%TF.GenerationSoftware,KiCad,Pcbnew,(6.0.9)*%
%TF.CreationDate,2023-02-03T10:47:39+01:00*%
%TF.ProjectId,HallBoard,48616c6c-426f-4617-9264-2e6b69636164,rev?*%
%TF.SameCoordinates,Original*%
%TF.FileFunction,Legend,Bot*%
%TF.FilePolarity,Positive*%
%FSLAX46Y46*%
G04 Gerber Fmt 4.6, Leading zero omitted, Abs format (unit mm)*
G04 Created by KiCad (PCBNEW (6.0.9)) date 2023-02-03 10:47:39*
%MOMM*%
%LPD*%
G01*
G04 APERTURE LIST*
G04 Aperture macros list*
%AMRoundRect*
0 Rectangle with rounded corners*
0 $1 Rounding radius*
0 $2 $3 $4 $5 $6 $7 $8 $9 X,Y pos of 4 corners*
0 Add a 4 corners polygon primitive as box body*
4,1,4,$2,$3,$4,$5,$6,$7,$8,$9,$2,$3,0*
0 Add four circle primitives for the rounded corners*
1,1,$1+$1,$2,$3*
1,1,$1+$1,$4,$5*
1,1,$1+$1,$6,$7*
1,1,$1+$1,$8,$9*
0 Add four rect primitives between the rounded corners*
20,1,$1+$1,$2,$3,$4,$5,0*
20,1,$1+$1,$4,$5,$6,$7,0*
20,1,$1+$1,$6,$7,$8,$9,0*
20,1,$1+$1,$8,$9,$2,$3,0*%
G04 Aperture macros list end*
%ADD10C,0.150000*%
%ADD11C,0.120000*%
%ADD12C,2.200000*%
%ADD13RoundRect,0.150000X0.625000X-0.150000X0.625000X0.150000X-0.625000X0.150000X-0.625000X-0.150000X0*%
%ADD14RoundRect,0.250000X0.650000X-0.350000X0.650000X0.350000X-0.650000X0.350000X-0.650000X-0.350000X0*%
%ADD15RoundRect,0.150000X-0.625000X0.150000X-0.625000X-0.150000X0.625000X-0.150000X0.625000X0.150000X0*%
%ADD16RoundRect,0.250000X-0.650000X0.350000X-0.650000X-0.350000X0.650000X-0.350000X0.650000X0.350000X0*%
%ADD17RoundRect,0.225000X0.250000X-0.225000X0.250000X0.225000X-0.250000X0.225000X-0.250000X-0.225000X0*%
%ADD18RoundRect,0.225000X-0.250000X0.225000X-0.250000X-0.225000X0.250000X-0.225000X0.250000X0.225000X0*%
G04 APERTURE END LIST*
D10*
X137765714Y-97163809D02*
X138622857Y-97163809D01*
X138718095Y-97116190D01*
X138765714Y-97020952D01*
X138765714Y-96973333D01*
X137432380Y-97163809D02*
X137480000Y-97116190D01*
X137527619Y-97163809D01*
X137480000Y-97211428D01*
X137432380Y-97163809D01*
X137527619Y-97163809D01*
X138432380Y-97782857D02*
X138384761Y-97687619D01*
X138289523Y-97640000D01*
X137432380Y-97640000D01*
X138384761Y-98592380D02*
X138432380Y-98497142D01*
X138432380Y-98306666D01*
X138384761Y-98211428D01*
X138337142Y-98163809D01*
X138241904Y-98116190D01*
X137956190Y-98116190D01*
X137860952Y-98163809D01*
X137813333Y-98211428D01*
X137765714Y-98306666D01*
X137765714Y-98497142D01*
X137813333Y-98592380D01*
X137765714Y-99020952D02*
X138622857Y-99020952D01*
X138718095Y-98973333D01*
X138765714Y-98878095D01*
X138765714Y-98830476D01*
X137432380Y-99020952D02*
X137480000Y-98973333D01*
X137527619Y-99020952D01*
X137480000Y-99068571D01*
X137432380Y-99020952D01*
X137527619Y-99020952D01*
X138432380Y-99640000D02*
X138384761Y-99544761D01*
X138289523Y-99497142D01*
X137432380Y-99497142D01*
X138384761Y-100449523D02*
X138432380Y-100354285D01*
X138432380Y-100163809D01*
X138384761Y-100068571D01*
X138337142Y-100020952D01*
X138241904Y-99973333D01*
X137956190Y-99973333D01*
X137860952Y-100020952D01*
X137813333Y-100068571D01*
X137765714Y-100163809D01*
X137765714Y-100354285D01*
X137813333Y-100449523D01*
X137765714Y-100878095D02*
X138622857Y-100878095D01*
X138718095Y-100830476D01*
X138765714Y-100735238D01*
X138765714Y-100687619D01*
X137432380Y-100878095D02*
X137480000Y-100830476D01*
X137527619Y-100878095D01*
X137480000Y-100925714D01*
X137432380Y-100878095D01*
X137527619Y-100878095D01*
X138432380Y-101497142D02*
X138384761Y-101401904D01*
X138289523Y-101354285D01*
X137432380Y-101354285D01*
X138384761Y-102306666D02*
X138432380Y-102211428D01*
X138432380Y-102020952D01*
X138384761Y-101925714D01*
X138337142Y-101878095D01*
X138241904Y-101830476D01*
X137956190Y-101830476D01*
X137860952Y-101878095D01*
X137813333Y-101925714D01*
X137765714Y-102020952D01*
X137765714Y-102211428D01*
X137813333Y-102306666D01*
X137765714Y-102735238D02*
X138622857Y-102735238D01*
X138718095Y-102687619D01*
X138765714Y-102592380D01*
X138765714Y-102544761D01*
X137432380Y-102735238D02*
X137480000Y-102687619D01*
X137527619Y-102735238D01*
X137480000Y-102782857D01*
X137432380Y-102735238D01*
X137527619Y-102735238D01*
X138432380Y-103354285D02*
X138384761Y-103259047D01*
X138289523Y-103211428D01*
X137432380Y-103211428D01*
X138384761Y-104163809D02*
X138432380Y-104068571D01*
X138432380Y-103878095D01*
X138384761Y-103782857D01*
X138337142Y-103735238D01*
X138241904Y-103687619D01*
X137956190Y-103687619D01*
X137860952Y-103735238D01*
X137813333Y-103782857D01*
X137765714Y-103878095D01*
X137765714Y-104068571D01*
X137813333Y-104163809D01*
%TO.C,J102*%
X137985714Y-95552380D02*
X137985714Y-96266666D01*
X138033333Y-96409523D01*
X138128571Y-96504761D01*
X138271428Y-96552380D01*
X138366666Y-96552380D01*
X136985714Y-96552380D02*
X137557142Y-96552380D01*
X137271428Y-96552380D02*
X137271428Y-95552380D01*
X137366666Y-95695238D01*
X137461904Y-95790476D01*
X137557142Y-95838095D01*
X136366666Y-95552380D02*
X136271428Y-95552380D01*
X136176190Y-95600000D01*
X136128571Y-95647619D01*
X136080952Y-95742857D01*
X136033333Y-95933333D01*
X136033333Y-96171428D01*
X136080952Y-96361904D01*
X136128571Y-96457142D01*
X136176190Y-96504761D01*
X136271428Y-96552380D01*
X136366666Y-96552380D01*
X136461904Y-96504761D01*
X136509523Y-96457142D01*
X136557142Y-96361904D01*
X136604761Y-96171428D01*
X136604761Y-95933333D01*
X136557142Y-95742857D01*
X136509523Y-95647619D01*
X136461904Y-95600000D01*
X136366666Y-95552380D01*
X135652380Y-95647619D02*
X135604761Y-95600000D01*
X135509523Y-95552380D01*
X135271428Y-95552380D01*
X135176190Y-95600000D01*
X135128571Y-95647619D01*
X135080952Y-95742857D01*
X135080952Y-95838095D01*
X135128571Y-95980952D01*
X135700000Y-96552380D01*
X135080952Y-96552380D01*
%TO.C,J101*%
X164185714Y-103352380D02*
X164185714Y-104066666D01*
X164233333Y-104209523D01*
X164328571Y-104304761D01*
X164471428Y-104352380D01*
X164566666Y-104352380D01*
X163185714Y-104352380D02*
X163757142Y-104352380D01*
X163471428Y-104352380D02*
X163471428Y-103352380D01*
X163566666Y-103495238D01*
X163661904Y-103590476D01*
X163757142Y-103638095D01*
X162566666Y-103352380D02*
X162471428Y-103352380D01*
X162376190Y-103400000D01*
X162328571Y-103447619D01*
X162280952Y-103542857D01*
X162233333Y-103733333D01*
X162233333Y-103971428D01*
X162280952Y-104161904D01*
X162328571Y-104257142D01*
X162376190Y-104304761D01*
X162471428Y-104352380D01*
X162566666Y-104352380D01*
X162661904Y-104304761D01*
X162709523Y-104257142D01*
X162757142Y-104161904D01*
X162804761Y-103971428D01*
X162804761Y-103733333D01*
X162757142Y-103542857D01*
X162709523Y-103447619D01*
X162661904Y-103400000D01*
X162566666Y-103352380D01*
X161280952Y-104352380D02*
X161852380Y-104352380D01*
X161566666Y-104352380D02*
X161566666Y-103352380D01*
X161661904Y-103495238D01*
X161757142Y-103590476D01*
X161852380Y-103638095D01*
D11*
%TO.C,J102*%
X141285000Y-96890000D02*
X143785000Y-96890000D01*
X143785000Y-102060000D02*
X144775000Y-102060000D01*
X143785000Y-103110000D02*
X143785000Y-102060000D01*
X141285000Y-103110000D02*
X143785000Y-103110000D01*
X139315000Y-101940000D02*
X139315000Y-98060000D01*
X143785000Y-96890000D02*
X143785000Y-97940000D01*
%TO.C,J101*%
X158715000Y-103110000D02*
X156215000Y-103110000D01*
X158715000Y-96890000D02*
X156215000Y-96890000D01*
X156215000Y-97940000D02*
X155225000Y-97940000D01*
X156215000Y-103110000D02*
X156215000Y-102060000D01*
X160685000Y-98060000D02*
X160685000Y-101940000D01*
X156215000Y-96890000D02*
X156215000Y-97940000D01*
%TO.C,C103*%
X154410000Y-97840580D02*
X154410000Y-97559420D01*
X153390000Y-97840580D02*
X153390000Y-97559420D01*
%TO.C,C101*%
X145690000Y-102159420D02*
X145690000Y-102440580D01*
X146710000Y-102159420D02*
X146710000Y-102440580D01*
%TD*%
%LPC*%
D12*
%TO.C,REF\u002A\u002A*%
X164000000Y-100000000D03*
%TD*%
%TO.C,REF\u002A\u002A*%
X136000000Y-100300000D03*
%TD*%
D13*
%TO.C,J102*%
X144000000Y-101500000D03*
X144000000Y-100500000D03*
X144000000Y-99500000D03*
X144000000Y-98500000D03*
D14*
X140125000Y-102800000D03*
X140125000Y-97200000D03*
%TD*%
D15*
%TO.C,J101*%
X156000000Y-98500000D03*
X156000000Y-99500000D03*
X156000000Y-100500000D03*
X156000000Y-101500000D03*
D16*
X159875000Y-97200000D03*
X159875000Y-102800000D03*
%TD*%
D17*
%TO.C,C103*%
X153900000Y-98475000D03*
X153900000Y-96925000D03*
%TD*%
D18*
%TO.C,C101*%
X146200000Y-101525000D03*
X146200000Y-103075000D03*
%TD*%
M02*
