%TF.GenerationSoftware,KiCad,Pcbnew,(6.0.9)*%
%TF.CreationDate,2023-02-03T10:47:39+01:00*%
%TF.ProjectId,HallBoard,48616c6c-426f-4617-9264-2e6b69636164,rev?*%
%TF.SameCoordinates,Original*%
%TF.FileFunction,Copper,L1,Top*%
%TF.FilePolarity,Positive*%
%FSLAX46Y46*%
G04 Gerber Fmt 4.6, Leading zero omitted, Abs format (unit mm)*
G04 Created by KiCad (PCBNEW (6.0.9)) date 2023-02-03 10:47:39*
%MOMM*%
%LPD*%
G01*
G04 APERTURE LIST*
G04 Aperture macros list*
%AMRoundRect*
0 Rectangle with rounded corners*
0 $1 Rounding radius*
0 $2 $3 $4 $5 $6 $7 $8 $9 X,Y pos of 4 corners*
0 Add a 4 corners polygon primitive as box body*
4,1,4,$2,$3,$4,$5,$6,$7,$8,$9,$2,$3,0*
0 Add four circle primitives for the rounded corners*
1,1,$1+$1,$2,$3*
1,1,$1+$1,$4,$5*
1,1,$1+$1,$6,$7*
1,1,$1+$1,$8,$9*
0 Add four rect primitives between the rounded corners*
20,1,$1+$1,$2,$3,$4,$5,0*
20,1,$1+$1,$4,$5,$6,$7,0*
20,1,$1+$1,$6,$7,$8,$9,0*
20,1,$1+$1,$8,$9,$2,$3,0*%
G04 Aperture macros list end*
%TA.AperFunction,SMDPad,CuDef*%
%ADD10RoundRect,0.140000X0.140000X0.170000X-0.140000X0.170000X-0.140000X-0.170000X0.140000X-0.170000X0*%
%TD*%
%TA.AperFunction,SMDPad,CuDef*%
%ADD11RoundRect,0.150000X-0.512500X-0.150000X0.512500X-0.150000X0.512500X0.150000X-0.512500X0.150000X0*%
%TD*%
%TA.AperFunction,ViaPad*%
%ADD12C,0.700000*%
%TD*%
%TA.AperFunction,Conductor*%
%ADD13C,0.500000*%
%TD*%
G04 APERTURE END LIST*
D10*
%TO.P,C102,1*%
%TO.N,+3V3*%
X150380000Y-102350000D03*
%TO.P,C102,2*%
%TO.N,GND*%
X149420000Y-102350000D03*
%TD*%
D11*
%TO.P,U101,1,SCL*%
%TO.N,/I2C_SCL*%
X148862500Y-99050000D03*
%TO.P,U101,2,GND*%
%TO.N,GND*%
X148862500Y-100000000D03*
%TO.P,U101,3,GND*%
X148862500Y-100950000D03*
%TO.P,U101,4,VDD*%
%TO.N,+3V3*%
X151137500Y-100950000D03*
%TO.P,U101,5,GND*%
%TO.N,GND*%
X151137500Y-100000000D03*
%TO.P,U101,6,SDA*%
%TO.N,/I2C_SDA*%
X151137500Y-99050000D03*
%TD*%
D12*
%TO.N,+3V3*%
X147400000Y-101500000D03*
X152700000Y-98542453D03*
%TO.N,GND*%
X140000000Y-101000000D03*
X145200000Y-103200000D03*
X140000000Y-96000000D03*
X157350000Y-101500000D03*
X140000000Y-104000000D03*
X142000000Y-104000000D03*
X158000000Y-104000000D03*
X154650000Y-101500000D03*
X142650000Y-98500000D03*
X144000000Y-104000000D03*
X142000000Y-96000000D03*
X156000000Y-104000000D03*
X140000000Y-99000000D03*
X148600000Y-102400000D03*
X152000000Y-104000000D03*
X152010917Y-96005981D03*
X146000000Y-104000000D03*
X160005833Y-95999999D03*
X160000000Y-104000000D03*
X156000000Y-96000000D03*
X160000000Y-99000000D03*
X160000000Y-101000000D03*
X146000000Y-96000000D03*
X154900000Y-96900000D03*
X148000000Y-96000000D03*
X158000000Y-96000000D03*
X148000000Y-104000000D03*
X149925500Y-100900000D03*
X154000000Y-96000000D03*
X145350000Y-98500000D03*
X150021538Y-95999999D03*
X150000000Y-104000000D03*
X154000000Y-104000000D03*
X144000000Y-96000000D03*
%TO.N,/I2C_SDA*%
X151100000Y-98300000D03*
%TO.N,/I2C_SCL*%
X153900000Y-100500000D03*
X147600000Y-99100000D03*
%TD*%
D13*
%TO.N,+3V3*%
X150400000Y-102330000D02*
X150380000Y-102350000D01*
X151137500Y-100950000D02*
X150400000Y-101687500D01*
X150400000Y-101687500D02*
X150400000Y-102330000D01*
X150000000Y-103200000D02*
X150850000Y-102350000D01*
X148200000Y-103200000D02*
X150000000Y-103200000D01*
X147400000Y-101500000D02*
X147400000Y-102400000D01*
X147400000Y-102400000D02*
X148200000Y-103200000D01*
X152700000Y-101500000D02*
X151850000Y-102350000D01*
X151850000Y-102350000D02*
X150850000Y-102350000D01*
X152700000Y-98542453D02*
X152700000Y-101500000D01*
X150380000Y-102350000D02*
X150850000Y-102350000D01*
%TO.N,GND*%
X148600000Y-102400000D02*
X149370000Y-102400000D01*
X149370000Y-102400000D02*
X149420000Y-102350000D01*
X148862500Y-100000000D02*
X148862500Y-100950000D01*
X148862500Y-100000000D02*
X150000000Y-100000000D01*
X148862500Y-101792500D02*
X149420000Y-102350000D01*
X148862500Y-100950000D02*
X148862500Y-101792500D01*
X150000000Y-100825500D02*
X149925500Y-100900000D01*
X150000000Y-100000000D02*
X151137500Y-100000000D01*
X150000000Y-100000000D02*
X150000000Y-100825500D01*
%TO.N,/I2C_SDA*%
X151100000Y-98300000D02*
X151100000Y-99012500D01*
X151100000Y-99012500D02*
X151137500Y-99050000D01*
%TO.N,/I2C_SCL*%
X148862500Y-99050000D02*
X148862500Y-98137500D01*
X148862500Y-98137500D02*
X149500000Y-97500000D01*
X148812500Y-99100000D02*
X148862500Y-99050000D01*
X153900000Y-98611082D02*
X153900000Y-100500000D01*
X152788918Y-97500000D02*
X153900000Y-98611082D01*
X149500000Y-97500000D02*
X152788918Y-97500000D01*
X147600000Y-99100000D02*
X148812500Y-99100000D01*
%TD*%
%TA.AperFunction,Conductor*%
%TO.N,GND*%
G36*
X160959191Y-95518907D02*
G01*
X160995155Y-95568407D01*
X161000000Y-95599000D01*
X161000000Y-104401000D01*
X160981093Y-104459191D01*
X160931593Y-104495155D01*
X160901000Y-104500000D01*
X139099000Y-104500000D01*
X139040809Y-104481093D01*
X139004845Y-104431593D01*
X139000000Y-104401000D01*
X139000000Y-101500000D01*
X146844750Y-101500000D01*
X146845597Y-101506433D01*
X146861179Y-101624785D01*
X146863670Y-101643709D01*
X146919139Y-101777625D01*
X146923089Y-101782772D01*
X146923092Y-101782778D01*
X146929042Y-101790532D01*
X146949500Y-101850799D01*
X146949500Y-102367373D01*
X146948814Y-102379009D01*
X146944636Y-102414310D01*
X146945965Y-102421586D01*
X146945965Y-102421589D01*
X146955248Y-102472414D01*
X146955758Y-102475476D01*
X146964551Y-102533962D01*
X146967679Y-102540475D01*
X146968975Y-102547573D01*
X146996198Y-102599980D01*
X146997588Y-102602762D01*
X147019987Y-102649408D01*
X147019989Y-102649411D01*
X147023191Y-102656079D01*
X147027297Y-102660521D01*
X147028820Y-102662781D01*
X147031421Y-102667788D01*
X147035725Y-102672828D01*
X147073357Y-102710460D01*
X147076051Y-102713263D01*
X147110124Y-102750124D01*
X147110127Y-102750126D01*
X147115146Y-102755556D01*
X147121210Y-102759078D01*
X147128535Y-102765638D01*
X147858381Y-103495484D01*
X147866122Y-103504196D01*
X147888128Y-103532110D01*
X147936737Y-103565706D01*
X147939264Y-103567513D01*
X147980860Y-103598235D01*
X147980864Y-103598237D01*
X147986817Y-103602634D01*
X147993631Y-103605027D01*
X147999569Y-103609131D01*
X148006622Y-103611362D01*
X148006625Y-103611363D01*
X148055912Y-103626950D01*
X148058857Y-103627933D01*
X148114631Y-103647520D01*
X148120672Y-103647758D01*
X148123354Y-103648280D01*
X148128730Y-103649980D01*
X148135337Y-103650500D01*
X148188531Y-103650500D01*
X148192417Y-103650576D01*
X148242604Y-103652548D01*
X148242606Y-103652548D01*
X148249994Y-103652838D01*
X148256772Y-103651041D01*
X148266598Y-103650500D01*
X149967373Y-103650500D01*
X149979009Y-103651186D01*
X150014310Y-103655364D01*
X150021586Y-103654035D01*
X150021589Y-103654035D01*
X150057604Y-103647457D01*
X150072430Y-103644749D01*
X150075476Y-103644242D01*
X150133962Y-103635449D01*
X150140475Y-103632321D01*
X150147573Y-103631025D01*
X150199982Y-103603801D01*
X150202762Y-103602412D01*
X150249408Y-103580013D01*
X150249411Y-103580011D01*
X150256079Y-103576809D01*
X150260521Y-103572703D01*
X150262781Y-103571180D01*
X150267788Y-103568579D01*
X150272828Y-103564275D01*
X150310460Y-103526643D01*
X150313263Y-103523949D01*
X150350119Y-103489880D01*
X150355556Y-103484854D01*
X150359079Y-103478788D01*
X150365637Y-103471466D01*
X151007608Y-102829496D01*
X151062125Y-102801719D01*
X151077612Y-102800500D01*
X151817373Y-102800500D01*
X151829009Y-102801186D01*
X151864310Y-102805364D01*
X151871586Y-102804035D01*
X151871589Y-102804035D01*
X151902288Y-102798428D01*
X151922430Y-102794749D01*
X151925476Y-102794242D01*
X151983962Y-102785449D01*
X151990475Y-102782321D01*
X151997573Y-102781025D01*
X152049982Y-102753801D01*
X152052762Y-102752412D01*
X152099408Y-102730013D01*
X152099411Y-102730011D01*
X152106079Y-102726809D01*
X152110521Y-102722703D01*
X152112781Y-102721180D01*
X152117788Y-102718579D01*
X152122828Y-102714275D01*
X152160460Y-102676643D01*
X152163263Y-102673949D01*
X152200119Y-102639880D01*
X152205556Y-102634854D01*
X152209079Y-102628788D01*
X152215637Y-102621466D01*
X152995489Y-101841615D01*
X153004203Y-101833873D01*
X153026296Y-101816456D01*
X153026298Y-101816454D01*
X153032110Y-101811872D01*
X153065691Y-101763285D01*
X153067498Y-101760756D01*
X153085175Y-101736822D01*
X153102635Y-101713183D01*
X153105029Y-101706366D01*
X153109131Y-101700431D01*
X153115616Y-101679928D01*
X153126943Y-101644110D01*
X153127928Y-101641159D01*
X153145068Y-101592352D01*
X153145068Y-101592350D01*
X153147520Y-101585369D01*
X153147758Y-101579327D01*
X153148280Y-101576647D01*
X153149980Y-101571270D01*
X153150500Y-101564663D01*
X153150500Y-101511484D01*
X153150576Y-101507597D01*
X153150622Y-101506433D01*
X153152839Y-101450006D01*
X153151041Y-101443224D01*
X153150500Y-101433399D01*
X153150500Y-100534972D01*
X153160470Y-100504286D01*
X153150500Y-100465028D01*
X153150500Y-98893252D01*
X153170958Y-98832985D01*
X153176908Y-98825231D01*
X153176911Y-98825225D01*
X153180861Y-98820078D01*
X153209402Y-98751173D01*
X153249139Y-98704648D01*
X153308633Y-98690364D01*
X153365161Y-98713779D01*
X153370870Y-98719055D01*
X153420504Y-98768689D01*
X153448281Y-98823206D01*
X153449500Y-98838693D01*
X153449500Y-100149201D01*
X153429042Y-100209468D01*
X153423092Y-100217222D01*
X153423089Y-100217228D01*
X153419139Y-100222375D01*
X153363670Y-100356291D01*
X153362824Y-100362720D01*
X153362823Y-100362722D01*
X153347653Y-100477950D01*
X153338073Y-100498036D01*
X153347653Y-100522050D01*
X153363670Y-100643709D01*
X153419139Y-100777625D01*
X153507379Y-100892621D01*
X153622375Y-100980861D01*
X153756291Y-101036330D01*
X153762720Y-101037176D01*
X153762722Y-101037177D01*
X153893567Y-101054403D01*
X153900000Y-101055250D01*
X153906433Y-101054403D01*
X154037278Y-101037177D01*
X154037280Y-101037176D01*
X154043709Y-101036330D01*
X154177625Y-100980861D01*
X154292621Y-100892621D01*
X154380861Y-100777625D01*
X154436330Y-100643709D01*
X154455250Y-100500000D01*
X154448671Y-100450028D01*
X154437177Y-100362722D01*
X154437176Y-100362720D01*
X154436330Y-100356291D01*
X154380861Y-100222375D01*
X154376911Y-100217228D01*
X154376908Y-100217222D01*
X154370958Y-100209468D01*
X154350500Y-100149201D01*
X154350500Y-98643708D01*
X154351186Y-98632072D01*
X154352986Y-98616860D01*
X154355364Y-98596771D01*
X154354035Y-98589495D01*
X154354035Y-98589491D01*
X154344750Y-98538655D01*
X154344239Y-98535587D01*
X154336549Y-98484437D01*
X154335449Y-98477120D01*
X154332321Y-98470607D01*
X154331025Y-98463509D01*
X154303793Y-98411084D01*
X154302403Y-98408303D01*
X154294935Y-98392750D01*
X154276809Y-98355003D01*
X154272705Y-98350563D01*
X154271180Y-98348300D01*
X154268579Y-98343293D01*
X154264275Y-98338254D01*
X154226643Y-98300622D01*
X154223949Y-98297819D01*
X154189876Y-98260958D01*
X154189873Y-98260956D01*
X154184854Y-98255526D01*
X154178790Y-98252004D01*
X154171465Y-98245444D01*
X153130537Y-97204516D01*
X153122795Y-97195803D01*
X153105371Y-97173701D01*
X153100790Y-97167890D01*
X153052169Y-97134286D01*
X153049646Y-97132483D01*
X153008057Y-97101764D01*
X153008055Y-97101763D01*
X153002102Y-97097366D01*
X152995286Y-97094973D01*
X152989349Y-97090869D01*
X152982290Y-97088636D01*
X152982289Y-97088636D01*
X152961945Y-97082202D01*
X152932989Y-97073044D01*
X152930104Y-97072082D01*
X152874287Y-97052481D01*
X152868245Y-97052244D01*
X152865571Y-97051723D01*
X152860188Y-97050020D01*
X152853581Y-97049500D01*
X152800377Y-97049500D01*
X152796490Y-97049424D01*
X152746315Y-97047452D01*
X152746312Y-97047452D01*
X152738924Y-97047162D01*
X152732146Y-97048959D01*
X152722321Y-97049500D01*
X149532626Y-97049500D01*
X149520990Y-97048814D01*
X149519453Y-97048632D01*
X149485689Y-97044636D01*
X149478413Y-97045965D01*
X149478409Y-97045965D01*
X149427573Y-97055250D01*
X149424505Y-97055761D01*
X149377494Y-97062829D01*
X149366038Y-97064551D01*
X149359525Y-97067679D01*
X149352427Y-97068975D01*
X149318656Y-97086517D01*
X149300002Y-97096207D01*
X149297236Y-97097590D01*
X149243921Y-97123191D01*
X149239481Y-97127295D01*
X149237218Y-97128820D01*
X149232211Y-97131421D01*
X149227172Y-97135725D01*
X149189540Y-97173357D01*
X149186737Y-97176051D01*
X149149876Y-97210124D01*
X149149874Y-97210127D01*
X149144444Y-97215146D01*
X149140922Y-97221210D01*
X149134362Y-97228535D01*
X148567016Y-97795881D01*
X148558304Y-97803622D01*
X148530390Y-97825628D01*
X148526183Y-97831715D01*
X148496792Y-97874241D01*
X148494988Y-97876764D01*
X148459866Y-97924316D01*
X148457473Y-97931132D01*
X148453369Y-97937069D01*
X148451136Y-97944128D01*
X148451136Y-97944129D01*
X148435549Y-97993415D01*
X148434582Y-97996314D01*
X148414981Y-98052131D01*
X148414744Y-98058173D01*
X148414223Y-98060847D01*
X148412520Y-98066230D01*
X148412000Y-98072837D01*
X148412000Y-98126041D01*
X148411924Y-98129928D01*
X148410940Y-98154981D01*
X148409662Y-98187494D01*
X148411459Y-98194272D01*
X148412000Y-98204097D01*
X148412000Y-98450777D01*
X148393093Y-98508968D01*
X148343593Y-98544932D01*
X148320297Y-98549500D01*
X148316782Y-98549500D01*
X148280216Y-98554883D01*
X148255501Y-98558521D01*
X148255499Y-98558522D01*
X148247888Y-98559642D01*
X148240982Y-98563033D01*
X148240981Y-98563033D01*
X148201726Y-98582306D01*
X148143145Y-98611068D01*
X148137364Y-98616859D01*
X148137363Y-98616860D01*
X148133785Y-98620444D01*
X148079293Y-98648268D01*
X148063722Y-98649500D01*
X147950799Y-98649500D01*
X147890532Y-98629042D01*
X147882778Y-98623092D01*
X147882772Y-98623089D01*
X147877625Y-98619139D01*
X147743709Y-98563670D01*
X147737280Y-98562824D01*
X147737278Y-98562823D01*
X147606433Y-98545597D01*
X147600000Y-98544750D01*
X147593567Y-98545597D01*
X147462722Y-98562823D01*
X147462720Y-98562824D01*
X147456291Y-98563670D01*
X147322375Y-98619139D01*
X147207379Y-98707379D01*
X147119139Y-98822375D01*
X147063670Y-98956291D01*
X147044750Y-99100000D01*
X147045597Y-99106433D01*
X147062756Y-99236763D01*
X147063670Y-99243709D01*
X147119139Y-99377625D01*
X147207379Y-99492621D01*
X147322375Y-99580861D01*
X147456291Y-99636330D01*
X147462720Y-99637176D01*
X147462722Y-99637177D01*
X147593567Y-99654403D01*
X147600000Y-99655250D01*
X147606433Y-99654403D01*
X147737278Y-99637177D01*
X147737280Y-99637176D01*
X147743709Y-99636330D01*
X147877625Y-99580861D01*
X147882772Y-99576911D01*
X147882778Y-99576908D01*
X147890532Y-99570958D01*
X147950799Y-99550500D01*
X148779873Y-99550500D01*
X148791509Y-99551186D01*
X148826810Y-99555364D01*
X148834086Y-99554035D01*
X148834089Y-99554035D01*
X148844621Y-99552111D01*
X148862408Y-99550500D01*
X149408218Y-99550500D01*
X149411801Y-99549972D01*
X149411808Y-99549972D01*
X149469499Y-99541479D01*
X149469501Y-99541478D01*
X149477112Y-99540358D01*
X149581855Y-99488932D01*
X149664293Y-99406350D01*
X149715536Y-99301518D01*
X149716645Y-99293916D01*
X149716646Y-99293913D01*
X149724983Y-99236763D01*
X149724983Y-99236761D01*
X149725500Y-99233218D01*
X149725500Y-98866782D01*
X149724450Y-98859645D01*
X149716479Y-98805501D01*
X149716478Y-98805499D01*
X149715358Y-98797888D01*
X149663932Y-98693145D01*
X149581350Y-98610707D01*
X149476518Y-98559464D01*
X149468916Y-98558355D01*
X149468913Y-98558354D01*
X149411765Y-98550017D01*
X149411759Y-98550017D01*
X149408218Y-98549500D01*
X149404797Y-98549500D01*
X149348162Y-98526443D01*
X149315877Y-98474468D01*
X149313000Y-98450774D01*
X149313000Y-98365111D01*
X149331907Y-98306920D01*
X149341996Y-98295107D01*
X149657607Y-97979496D01*
X149712124Y-97951719D01*
X149727611Y-97950500D01*
X150500747Y-97950500D01*
X150558938Y-97969407D01*
X150594902Y-98018907D01*
X150594902Y-98080093D01*
X150592211Y-98087385D01*
X150563670Y-98156291D01*
X150562824Y-98162720D01*
X150562823Y-98162722D01*
X150551209Y-98250943D01*
X150544750Y-98300000D01*
X150563670Y-98443709D01*
X150566086Y-98449542D01*
X150562889Y-98510569D01*
X150524385Y-98558119D01*
X150514095Y-98563959D01*
X150479468Y-98580960D01*
X150418145Y-98611068D01*
X150335707Y-98693650D01*
X150284464Y-98798482D01*
X150283355Y-98806084D01*
X150283354Y-98806087D01*
X150275541Y-98859645D01*
X150274500Y-98866782D01*
X150274500Y-99233218D01*
X150275028Y-99236801D01*
X150275028Y-99236808D01*
X150283435Y-99293913D01*
X150284642Y-99302112D01*
X150336068Y-99406855D01*
X150418650Y-99489293D01*
X150523482Y-99540536D01*
X150531084Y-99541645D01*
X150531087Y-99541646D01*
X150588237Y-99549983D01*
X150588239Y-99549983D01*
X150591782Y-99550500D01*
X151683218Y-99550500D01*
X151686801Y-99549972D01*
X151686808Y-99549972D01*
X151744499Y-99541479D01*
X151744501Y-99541478D01*
X151752112Y-99540358D01*
X151856855Y-99488932D01*
X151939293Y-99406350D01*
X151990536Y-99301518D01*
X151991645Y-99293916D01*
X151991646Y-99293913D01*
X151999983Y-99236763D01*
X151999983Y-99236761D01*
X152000500Y-99233218D01*
X152000500Y-98866782D01*
X151999450Y-98859645D01*
X151991479Y-98805501D01*
X151991478Y-98805499D01*
X151990358Y-98797888D01*
X151938932Y-98693145D01*
X151856350Y-98610707D01*
X151751518Y-98559464D01*
X151720114Y-98554883D01*
X151665263Y-98527774D01*
X151636821Y-98473601D01*
X151638172Y-98443952D01*
X151636330Y-98443709D01*
X151654403Y-98306433D01*
X151655250Y-98300000D01*
X151648791Y-98250943D01*
X151637177Y-98162722D01*
X151637176Y-98162720D01*
X151636330Y-98156291D01*
X151607789Y-98087385D01*
X151602989Y-98026388D01*
X151634958Y-97974219D01*
X151691487Y-97950805D01*
X151699253Y-97950500D01*
X152275508Y-97950500D01*
X152333699Y-97969407D01*
X152369663Y-98018907D01*
X152369663Y-98080093D01*
X152335776Y-98128042D01*
X152307379Y-98149832D01*
X152219139Y-98264828D01*
X152163670Y-98398744D01*
X152162824Y-98405173D01*
X152162823Y-98405175D01*
X152153444Y-98476413D01*
X152144750Y-98542453D01*
X152146813Y-98558119D01*
X152155367Y-98623092D01*
X152163670Y-98686162D01*
X152219139Y-98820078D01*
X152223089Y-98825225D01*
X152223092Y-98825231D01*
X152229042Y-98832985D01*
X152249500Y-98893252D01*
X152249500Y-101272388D01*
X152230593Y-101330579D01*
X152220504Y-101342392D01*
X151692393Y-101870504D01*
X151637876Y-101898281D01*
X151622389Y-101899500D01*
X151064110Y-101899500D01*
X151005919Y-101880593D01*
X150969955Y-101831093D01*
X150969955Y-101769907D01*
X150994107Y-101730496D01*
X151074901Y-101649703D01*
X151245108Y-101479496D01*
X151299624Y-101451719D01*
X151315111Y-101450500D01*
X151683218Y-101450500D01*
X151686801Y-101449972D01*
X151686808Y-101449972D01*
X151744499Y-101441479D01*
X151744501Y-101441478D01*
X151752112Y-101440358D01*
X151856855Y-101388932D01*
X151864059Y-101381716D01*
X151933513Y-101312140D01*
X151939293Y-101306350D01*
X151990536Y-101201518D01*
X151991645Y-101193916D01*
X151991646Y-101193913D01*
X151999983Y-101136763D01*
X151999983Y-101136761D01*
X152000500Y-101133218D01*
X152000500Y-100766782D01*
X151990358Y-100697888D01*
X151938932Y-100593145D01*
X151856350Y-100510707D01*
X151751518Y-100459464D01*
X151743916Y-100458355D01*
X151743913Y-100458354D01*
X151686763Y-100450017D01*
X151686761Y-100450017D01*
X151683218Y-100449500D01*
X150591782Y-100449500D01*
X150588199Y-100450028D01*
X150588192Y-100450028D01*
X150530501Y-100458521D01*
X150530499Y-100458522D01*
X150522888Y-100459642D01*
X150418145Y-100511068D01*
X150335707Y-100593650D01*
X150284464Y-100698482D01*
X150283355Y-100706084D01*
X150283354Y-100706087D01*
X150275024Y-100763192D01*
X150274500Y-100766782D01*
X150274500Y-101133218D01*
X150272955Y-101133218D01*
X150259742Y-101186962D01*
X150245618Y-101204779D01*
X150104512Y-101345885D01*
X150095797Y-101353627D01*
X150067890Y-101375628D01*
X150056203Y-101392538D01*
X150034292Y-101424241D01*
X150032483Y-101426772D01*
X150014057Y-101451719D01*
X149997366Y-101474316D01*
X149994973Y-101481132D01*
X149990869Y-101487069D01*
X149988636Y-101494128D01*
X149988636Y-101494129D01*
X149973049Y-101543415D01*
X149972082Y-101546314D01*
X149952481Y-101602131D01*
X149952244Y-101608173D01*
X149951723Y-101610847D01*
X149950020Y-101616230D01*
X149949500Y-101622837D01*
X149949500Y-101676041D01*
X149949424Y-101679928D01*
X149948523Y-101702869D01*
X149947162Y-101737494D01*
X149948959Y-101744272D01*
X149949500Y-101754097D01*
X149949500Y-101975340D01*
X149940226Y-102017176D01*
X149906028Y-102090513D01*
X149899500Y-102140099D01*
X149899501Y-102559900D01*
X149899925Y-102563119D01*
X149905168Y-102602955D01*
X149894017Y-102663115D01*
X149877019Y-102685878D01*
X149842393Y-102720504D01*
X149787876Y-102748281D01*
X149772389Y-102749500D01*
X148427611Y-102749500D01*
X148369420Y-102730593D01*
X148357607Y-102720504D01*
X147879496Y-102242393D01*
X147851719Y-102187876D01*
X147850500Y-102172389D01*
X147850500Y-101850799D01*
X147870958Y-101790532D01*
X147876908Y-101782778D01*
X147876911Y-101782772D01*
X147880861Y-101777625D01*
X147936330Y-101643709D01*
X147938822Y-101624785D01*
X147954403Y-101506433D01*
X147955250Y-101500000D01*
X147951085Y-101468361D01*
X147937177Y-101362722D01*
X147937176Y-101362720D01*
X147936330Y-101356291D01*
X147880861Y-101222375D01*
X147792621Y-101107379D01*
X147677625Y-101019139D01*
X147543709Y-100963670D01*
X147537280Y-100962824D01*
X147537278Y-100962823D01*
X147406433Y-100945597D01*
X147400000Y-100944750D01*
X147393567Y-100945597D01*
X147262722Y-100962823D01*
X147262720Y-100962824D01*
X147256291Y-100963670D01*
X147122375Y-101019139D01*
X147007379Y-101107379D01*
X146919139Y-101222375D01*
X146863670Y-101356291D01*
X146862824Y-101362720D01*
X146862823Y-101362722D01*
X146848915Y-101468361D01*
X146844750Y-101500000D01*
X139000000Y-101500000D01*
X139000000Y-95599000D01*
X139018907Y-95540809D01*
X139068407Y-95504845D01*
X139099000Y-95500000D01*
X160901000Y-95500000D01*
X160959191Y-95518907D01*
G37*
%TD.AperFunction*%
%TD*%
M02*
