%TF.GenerationSoftware,KiCad,Pcbnew,(6.0.9)*%
%TF.CreationDate,2023-02-02T10:48:40+01:00*%
%TF.ProjectId,HallBoard,48616c6c-426f-4617-9264-2e6b69636164,rev?*%
%TF.SameCoordinates,Original*%
%TF.FileFunction,Legend,Top*%
%TF.FilePolarity,Positive*%
%FSLAX46Y46*%
G04 Gerber Fmt 4.6, Leading zero omitted, Abs format (unit mm)*
G04 Created by KiCad (PCBNEW (6.0.9)) date 2023-02-02 10:48:40*
%MOMM*%
%LPD*%
G01*
G04 APERTURE LIST*
G04 Aperture macros list*
%AMRoundRect*
0 Rectangle with rounded corners*
0 $1 Rounding radius*
0 $2 $3 $4 $5 $6 $7 $8 $9 X,Y pos of 4 corners*
0 Add a 4 corners polygon primitive as box body*
4,1,4,$2,$3,$4,$5,$6,$7,$8,$9,$2,$3,0*
0 Add four circle primitives for the rounded corners*
1,1,$1+$1,$2,$3*
1,1,$1+$1,$4,$5*
1,1,$1+$1,$6,$7*
1,1,$1+$1,$8,$9*
0 Add four rect primitives between the rounded corners*
20,1,$1+$1,$2,$3,$4,$5,0*
20,1,$1+$1,$4,$5,$6,$7,0*
20,1,$1+$1,$6,$7,$8,$9,0*
20,1,$1+$1,$8,$9,$2,$3,0*%
G04 Aperture macros list end*
%ADD10C,0.160000*%
%ADD11C,0.150000*%
%ADD12C,0.120000*%
%ADD13RoundRect,0.140000X0.140000X0.170000X-0.140000X0.170000X-0.140000X-0.170000X0.140000X-0.170000X0*%
%ADD14C,2.200000*%
%ADD15RoundRect,0.150000X-0.512500X-0.150000X0.512500X-0.150000X0.512500X0.150000X-0.512500X0.150000X0*%
G04 APERTURE END LIST*
D10*
X161232380Y-103068095D02*
X161946666Y-103068095D01*
X162089523Y-103115714D01*
X162184761Y-103210952D01*
X162232380Y-103353809D01*
X162232380Y-103449047D01*
X162232380Y-102591904D02*
X161232380Y-102591904D01*
X161946666Y-102258571D01*
X161232380Y-101925238D01*
X162232380Y-101925238D01*
X162232380Y-100210952D02*
X162232380Y-100687142D01*
X161232380Y-100687142D01*
X162232380Y-99877619D02*
X161565714Y-99877619D01*
X161232380Y-99877619D02*
X161280000Y-99925238D01*
X161327619Y-99877619D01*
X161280000Y-99830000D01*
X161232380Y-99877619D01*
X161327619Y-99877619D01*
X162184761Y-99020476D02*
X162232380Y-99115714D01*
X162232380Y-99306190D01*
X162184761Y-99401428D01*
X162089523Y-99449047D01*
X161708571Y-99449047D01*
X161613333Y-99401428D01*
X161565714Y-99306190D01*
X161565714Y-99115714D01*
X161613333Y-99020476D01*
X161708571Y-98972857D01*
X161803809Y-98972857D01*
X161899047Y-99449047D01*
X161565714Y-98639523D02*
X162232380Y-98449047D01*
X161756190Y-98258571D01*
X162232380Y-98068095D01*
X161565714Y-97877619D01*
X162184761Y-97115714D02*
X162232380Y-97210952D01*
X162232380Y-97401428D01*
X162184761Y-97496666D01*
X162089523Y-97544285D01*
X161708571Y-97544285D01*
X161613333Y-97496666D01*
X161565714Y-97401428D01*
X161565714Y-97210952D01*
X161613333Y-97115714D01*
X161708571Y-97068095D01*
X161803809Y-97068095D01*
X161899047Y-97544285D01*
X162184761Y-96687142D02*
X162232380Y-96591904D01*
X162232380Y-96401428D01*
X162184761Y-96306190D01*
X162089523Y-96258571D01*
X162041904Y-96258571D01*
X161946666Y-96306190D01*
X161899047Y-96401428D01*
X161899047Y-96544285D01*
X161851428Y-96639523D01*
X161756190Y-96687142D01*
X161708571Y-96687142D01*
X161613333Y-96639523D01*
X161565714Y-96544285D01*
X161565714Y-96401428D01*
X161613333Y-96306190D01*
D11*
X138364761Y-104803333D02*
X138412380Y-104660476D01*
X138412380Y-104422380D01*
X138364761Y-104327142D01*
X138317142Y-104279523D01*
X138221904Y-104231904D01*
X138126666Y-104231904D01*
X138031428Y-104279523D01*
X137983809Y-104327142D01*
X137936190Y-104422380D01*
X137888571Y-104612857D01*
X137840952Y-104708095D01*
X137793333Y-104755714D01*
X137698095Y-104803333D01*
X137602857Y-104803333D01*
X137507619Y-104755714D01*
X137460000Y-104708095D01*
X137412380Y-104612857D01*
X137412380Y-104374761D01*
X137460000Y-104231904D01*
X138364761Y-103422380D02*
X138412380Y-103517619D01*
X138412380Y-103708095D01*
X138364761Y-103803333D01*
X138269523Y-103850952D01*
X137888571Y-103850952D01*
X137793333Y-103803333D01*
X137745714Y-103708095D01*
X137745714Y-103517619D01*
X137793333Y-103422380D01*
X137888571Y-103374761D01*
X137983809Y-103374761D01*
X138079047Y-103850952D01*
X137745714Y-102946190D02*
X138412380Y-102946190D01*
X137840952Y-102946190D02*
X137793333Y-102898571D01*
X137745714Y-102803333D01*
X137745714Y-102660476D01*
X137793333Y-102565238D01*
X137888571Y-102517619D01*
X138412380Y-102517619D01*
X138364761Y-102089047D02*
X138412380Y-101993809D01*
X138412380Y-101803333D01*
X138364761Y-101708095D01*
X138269523Y-101660476D01*
X138221904Y-101660476D01*
X138126666Y-101708095D01*
X138079047Y-101803333D01*
X138079047Y-101946190D01*
X138031428Y-102041428D01*
X137936190Y-102089047D01*
X137888571Y-102089047D01*
X137793333Y-102041428D01*
X137745714Y-101946190D01*
X137745714Y-101803333D01*
X137793333Y-101708095D01*
X138412380Y-101089047D02*
X138364761Y-101184285D01*
X138317142Y-101231904D01*
X138221904Y-101279523D01*
X137936190Y-101279523D01*
X137840952Y-101231904D01*
X137793333Y-101184285D01*
X137745714Y-101089047D01*
X137745714Y-100946190D01*
X137793333Y-100850952D01*
X137840952Y-100803333D01*
X137936190Y-100755714D01*
X138221904Y-100755714D01*
X138317142Y-100803333D01*
X138364761Y-100850952D01*
X138412380Y-100946190D01*
X138412380Y-101089047D01*
X138412380Y-100327142D02*
X137745714Y-100327142D01*
X137936190Y-100327142D02*
X137840952Y-100279523D01*
X137793333Y-100231904D01*
X137745714Y-100136666D01*
X137745714Y-100041428D01*
X138412380Y-98946190D02*
X137412380Y-98946190D01*
X137793333Y-98946190D02*
X137745714Y-98850952D01*
X137745714Y-98660476D01*
X137793333Y-98565238D01*
X137840952Y-98517619D01*
X137936190Y-98470000D01*
X138221904Y-98470000D01*
X138317142Y-98517619D01*
X138364761Y-98565238D01*
X138412380Y-98660476D01*
X138412380Y-98850952D01*
X138364761Y-98946190D01*
X138412380Y-97898571D02*
X138364761Y-97993809D01*
X138317142Y-98041428D01*
X138221904Y-98089047D01*
X137936190Y-98089047D01*
X137840952Y-98041428D01*
X137793333Y-97993809D01*
X137745714Y-97898571D01*
X137745714Y-97755714D01*
X137793333Y-97660476D01*
X137840952Y-97612857D01*
X137936190Y-97565238D01*
X138221904Y-97565238D01*
X138317142Y-97612857D01*
X138364761Y-97660476D01*
X138412380Y-97755714D01*
X138412380Y-97898571D01*
X138412380Y-96708095D02*
X137888571Y-96708095D01*
X137793333Y-96755714D01*
X137745714Y-96850952D01*
X137745714Y-97041428D01*
X137793333Y-97136666D01*
X138364761Y-96708095D02*
X138412380Y-96803333D01*
X138412380Y-97041428D01*
X138364761Y-97136666D01*
X138269523Y-97184285D01*
X138174285Y-97184285D01*
X138079047Y-97136666D01*
X138031428Y-97041428D01*
X138031428Y-96803333D01*
X137983809Y-96708095D01*
X138412380Y-96231904D02*
X137745714Y-96231904D01*
X137936190Y-96231904D02*
X137840952Y-96184285D01*
X137793333Y-96136666D01*
X137745714Y-96041428D01*
X137745714Y-95946190D01*
X138412380Y-95184285D02*
X137412380Y-95184285D01*
X138364761Y-95184285D02*
X138412380Y-95279523D01*
X138412380Y-95470000D01*
X138364761Y-95565238D01*
X138317142Y-95612857D01*
X138221904Y-95660476D01*
X137936190Y-95660476D01*
X137840952Y-95612857D01*
X137793333Y-95565238D01*
X137745714Y-95470000D01*
X137745714Y-95279523D01*
X137793333Y-95184285D01*
D10*
X165662380Y-101503809D02*
X166662380Y-101170476D01*
X165662380Y-100837142D01*
X165662380Y-100313333D02*
X165662380Y-100218095D01*
X165710000Y-100122857D01*
X165757619Y-100075238D01*
X165852857Y-100027619D01*
X166043333Y-99980000D01*
X166281428Y-99980000D01*
X166471904Y-100027619D01*
X166567142Y-100075238D01*
X166614761Y-100122857D01*
X166662380Y-100218095D01*
X166662380Y-100313333D01*
X166614761Y-100408571D01*
X166567142Y-100456190D01*
X166471904Y-100503809D01*
X166281428Y-100551428D01*
X166043333Y-100551428D01*
X165852857Y-100503809D01*
X165757619Y-100456190D01*
X165710000Y-100408571D01*
X165662380Y-100313333D01*
X166567142Y-99551428D02*
X166614761Y-99503809D01*
X166662380Y-99551428D01*
X166614761Y-99599047D01*
X166567142Y-99551428D01*
X166662380Y-99551428D01*
X166662380Y-98551428D02*
X166662380Y-99122857D01*
X166662380Y-98837142D02*
X165662380Y-98837142D01*
X165805238Y-98932380D01*
X165900476Y-99027619D01*
X165948095Y-99122857D01*
D11*
X134452380Y-104037619D02*
X133452380Y-104037619D01*
X133928571Y-104037619D02*
X133928571Y-103466190D01*
X134452380Y-103466190D02*
X133452380Y-103466190D01*
X134452380Y-102561428D02*
X133928571Y-102561428D01*
X133833333Y-102609047D01*
X133785714Y-102704285D01*
X133785714Y-102894761D01*
X133833333Y-102990000D01*
X134404761Y-102561428D02*
X134452380Y-102656666D01*
X134452380Y-102894761D01*
X134404761Y-102990000D01*
X134309523Y-103037619D01*
X134214285Y-103037619D01*
X134119047Y-102990000D01*
X134071428Y-102894761D01*
X134071428Y-102656666D01*
X134023809Y-102561428D01*
X134452380Y-101942380D02*
X134404761Y-102037619D01*
X134309523Y-102085238D01*
X133452380Y-102085238D01*
X134452380Y-101418571D02*
X134404761Y-101513809D01*
X134309523Y-101561428D01*
X133452380Y-101561428D01*
X134404761Y-100323333D02*
X134452380Y-100180476D01*
X134452380Y-99942380D01*
X134404761Y-99847142D01*
X134357142Y-99799523D01*
X134261904Y-99751904D01*
X134166666Y-99751904D01*
X134071428Y-99799523D01*
X134023809Y-99847142D01*
X133976190Y-99942380D01*
X133928571Y-100132857D01*
X133880952Y-100228095D01*
X133833333Y-100275714D01*
X133738095Y-100323333D01*
X133642857Y-100323333D01*
X133547619Y-100275714D01*
X133500000Y-100228095D01*
X133452380Y-100132857D01*
X133452380Y-99894761D01*
X133500000Y-99751904D01*
X133785714Y-99418571D02*
X134452380Y-99228095D01*
X133976190Y-99037619D01*
X134452380Y-98847142D01*
X133785714Y-98656666D01*
X134452380Y-98275714D02*
X133785714Y-98275714D01*
X133452380Y-98275714D02*
X133500000Y-98323333D01*
X133547619Y-98275714D01*
X133500000Y-98228095D01*
X133452380Y-98275714D01*
X133547619Y-98275714D01*
X133785714Y-97942380D02*
X133785714Y-97561428D01*
X133452380Y-97799523D02*
X134309523Y-97799523D01*
X134404761Y-97751904D01*
X134452380Y-97656666D01*
X134452380Y-97561428D01*
X134404761Y-96799523D02*
X134452380Y-96894761D01*
X134452380Y-97085238D01*
X134404761Y-97180476D01*
X134357142Y-97228095D01*
X134261904Y-97275714D01*
X133976190Y-97275714D01*
X133880952Y-97228095D01*
X133833333Y-97180476D01*
X133785714Y-97085238D01*
X133785714Y-96894761D01*
X133833333Y-96799523D01*
X134452380Y-96370952D02*
X133452380Y-96370952D01*
X134452380Y-95942380D02*
X133928571Y-95942380D01*
X133833333Y-95990000D01*
X133785714Y-96085238D01*
X133785714Y-96228095D01*
X133833333Y-96323333D01*
X133880952Y-96370952D01*
%TO.C,C102*%
X152270952Y-103327142D02*
X152223333Y-103374761D01*
X152080476Y-103422380D01*
X151985238Y-103422380D01*
X151842380Y-103374761D01*
X151747142Y-103279523D01*
X151699523Y-103184285D01*
X151651904Y-102993809D01*
X151651904Y-102850952D01*
X151699523Y-102660476D01*
X151747142Y-102565238D01*
X151842380Y-102470000D01*
X151985238Y-102422380D01*
X152080476Y-102422380D01*
X152223333Y-102470000D01*
X152270952Y-102517619D01*
X153223333Y-103422380D02*
X152651904Y-103422380D01*
X152937619Y-103422380D02*
X152937619Y-102422380D01*
X152842380Y-102565238D01*
X152747142Y-102660476D01*
X152651904Y-102708095D01*
X153842380Y-102422380D02*
X153937619Y-102422380D01*
X154032857Y-102470000D01*
X154080476Y-102517619D01*
X154128095Y-102612857D01*
X154175714Y-102803333D01*
X154175714Y-103041428D01*
X154128095Y-103231904D01*
X154080476Y-103327142D01*
X154032857Y-103374761D01*
X153937619Y-103422380D01*
X153842380Y-103422380D01*
X153747142Y-103374761D01*
X153699523Y-103327142D01*
X153651904Y-103231904D01*
X153604285Y-103041428D01*
X153604285Y-102803333D01*
X153651904Y-102612857D01*
X153699523Y-102517619D01*
X153747142Y-102470000D01*
X153842380Y-102422380D01*
X154556666Y-102517619D02*
X154604285Y-102470000D01*
X154699523Y-102422380D01*
X154937619Y-102422380D01*
X155032857Y-102470000D01*
X155080476Y-102517619D01*
X155128095Y-102612857D01*
X155128095Y-102708095D01*
X155080476Y-102850952D01*
X154509047Y-103422380D01*
X155128095Y-103422380D01*
%TO.C,U101*%
X147685714Y-96752380D02*
X147685714Y-97561904D01*
X147733333Y-97657142D01*
X147780952Y-97704761D01*
X147876190Y-97752380D01*
X148066666Y-97752380D01*
X148161904Y-97704761D01*
X148209523Y-97657142D01*
X148257142Y-97561904D01*
X148257142Y-96752380D01*
X149257142Y-97752380D02*
X148685714Y-97752380D01*
X148971428Y-97752380D02*
X148971428Y-96752380D01*
X148876190Y-96895238D01*
X148780952Y-96990476D01*
X148685714Y-97038095D01*
X149876190Y-96752380D02*
X149971428Y-96752380D01*
X150066666Y-96800000D01*
X150114285Y-96847619D01*
X150161904Y-96942857D01*
X150209523Y-97133333D01*
X150209523Y-97371428D01*
X150161904Y-97561904D01*
X150114285Y-97657142D01*
X150066666Y-97704761D01*
X149971428Y-97752380D01*
X149876190Y-97752380D01*
X149780952Y-97704761D01*
X149733333Y-97657142D01*
X149685714Y-97561904D01*
X149638095Y-97371428D01*
X149638095Y-97133333D01*
X149685714Y-96942857D01*
X149733333Y-96847619D01*
X149780952Y-96800000D01*
X149876190Y-96752380D01*
X151161904Y-97752380D02*
X150590476Y-97752380D01*
X150876190Y-97752380D02*
X150876190Y-96752380D01*
X150780952Y-96895238D01*
X150685714Y-96990476D01*
X150590476Y-97038095D01*
D12*
%TO.C,C102*%
X150007836Y-102710000D02*
X149792164Y-102710000D01*
X150007836Y-101990000D02*
X149792164Y-101990000D01*
%TO.C,U101*%
X150000000Y-101560000D02*
X150800000Y-101560000D01*
X150000000Y-98440000D02*
X148200000Y-98440000D01*
X150000000Y-101560000D02*
X149200000Y-101560000D01*
X150000000Y-98440000D02*
X150800000Y-98440000D01*
%TD*%
%LPC*%
D13*
%TO.C,C102*%
X150380000Y-102350000D03*
X149420000Y-102350000D03*
%TD*%
D14*
%TO.C,REF\u002A\u002A*%
X164000000Y-100000000D03*
%TD*%
D15*
%TO.C,U101*%
X148862500Y-99050000D03*
X148862500Y-100000000D03*
X148862500Y-100950000D03*
X151137500Y-100950000D03*
X151137500Y-100000000D03*
X151137500Y-99050000D03*
%TD*%
D14*
%TO.C,REF\u002A\u002A*%
X136000000Y-100300000D03*
%TD*%
M02*
