%TF.GenerationSoftware,KiCad,Pcbnew,(6.0.9)*%
%TF.CreationDate,2023-02-02T10:48:40+01:00*%
%TF.ProjectId,HallBoard,48616c6c-426f-4617-9264-2e6b69636164,rev?*%
%TF.SameCoordinates,Original*%
%TF.FileFunction,Copper,L1,Top*%
%TF.FilePolarity,Positive*%
%FSLAX46Y46*%
G04 Gerber Fmt 4.6, Leading zero omitted, Abs format (unit mm)*
G04 Created by KiCad (PCBNEW (6.0.9)) date 2023-02-02 10:48:40*
%MOMM*%
%LPD*%
G01*
G04 APERTURE LIST*
G04 Aperture macros list*
%AMRoundRect*
0 Rectangle with rounded corners*
0 $1 Rounding radius*
0 $2 $3 $4 $5 $6 $7 $8 $9 X,Y pos of 4 corners*
0 Add a 4 corners polygon primitive as box body*
4,1,4,$2,$3,$4,$5,$6,$7,$8,$9,$2,$3,0*
0 Add four circle primitives for the rounded corners*
1,1,$1+$1,$2,$3*
1,1,$1+$1,$4,$5*
1,1,$1+$1,$6,$7*
1,1,$1+$1,$8,$9*
0 Add four rect primitives between the rounded corners*
20,1,$1+$1,$2,$3,$4,$5,0*
20,1,$1+$1,$4,$5,$6,$7,0*
20,1,$1+$1,$6,$7,$8,$9,0*
20,1,$1+$1,$8,$9,$2,$3,0*%
G04 Aperture macros list end*
%TA.AperFunction,SMDPad,CuDef*%
%ADD10RoundRect,0.140000X0.140000X0.170000X-0.140000X0.170000X-0.140000X-0.170000X0.140000X-0.170000X0*%
%TD*%
%TA.AperFunction,SMDPad,CuDef*%
%ADD11RoundRect,0.150000X-0.512500X-0.150000X0.512500X-0.150000X0.512500X0.150000X-0.512500X0.150000X0*%
%TD*%
%TA.AperFunction,ViaPad*%
%ADD12C,0.700000*%
%TD*%
%TA.AperFunction,Conductor*%
%ADD13C,0.500000*%
%TD*%
G04 APERTURE END LIST*
D10*
%TO.P,C102,1*%
%TO.N,+3V3*%
X150380000Y-102350000D03*
%TO.P,C102,2*%
%TO.N,GND*%
X149420000Y-102350000D03*
%TD*%
D11*
%TO.P,U101,1,SCL*%
%TO.N,/I2C_SCL*%
X148862500Y-99050000D03*
%TO.P,U101,2,GND*%
%TO.N,GND*%
X148862500Y-100000000D03*
%TO.P,U101,3,GND*%
X148862500Y-100950000D03*
%TO.P,U101,4,VDD*%
%TO.N,+3V3*%
X151137500Y-100950000D03*
%TO.P,U101,5,GND*%
%TO.N,GND*%
X151137500Y-100000000D03*
%TO.P,U101,6,SDA*%
%TO.N,/I2C_SDA*%
X151137500Y-99050000D03*
%TD*%
D12*
%TO.N,+3V3*%
X147400000Y-101500000D03*
X152700000Y-98542453D03*
X151300000Y-102400000D03*
%TO.N,GND*%
X140000000Y-101000000D03*
X145200000Y-103200000D03*
X140000000Y-96000000D03*
X157350000Y-101500000D03*
X140000000Y-104000000D03*
X142000000Y-104000000D03*
X158000000Y-104000000D03*
X154650000Y-101500000D03*
X142650000Y-98500000D03*
X144000000Y-104000000D03*
X142000000Y-96000000D03*
X156000000Y-104000000D03*
X140000000Y-99000000D03*
X149400000Y-103100000D03*
X152000000Y-104000000D03*
X152010917Y-96005981D03*
X146000000Y-104000000D03*
X160005833Y-95999999D03*
X160000000Y-104000000D03*
X156000000Y-96000000D03*
X160000000Y-99000000D03*
X160000000Y-101000000D03*
X146000000Y-96000000D03*
X154900000Y-96900000D03*
X148000000Y-96000000D03*
X158000000Y-96000000D03*
X148000000Y-104000000D03*
X149925500Y-100900000D03*
X154000000Y-96000000D03*
X145350000Y-98500000D03*
X150021538Y-95999999D03*
X150000000Y-104000000D03*
X154000000Y-104000000D03*
X144000000Y-96000000D03*
%TO.N,/I2C_SDA*%
X151100000Y-98300000D03*
%TO.N,/I2C_SCL*%
X153900000Y-100500000D03*
X147600000Y-99100000D03*
%TD*%
D13*
%TO.N,+3V3*%
X150380000Y-102350000D02*
X151250000Y-102350000D01*
X151137500Y-101592500D02*
X150380000Y-102350000D01*
X151137500Y-100950000D02*
X151137500Y-101592500D01*
X151250000Y-102350000D02*
X151300000Y-102400000D01*
%TO.N,GND*%
X148862500Y-100000000D02*
X148862500Y-100950000D01*
X148862500Y-100000000D02*
X150000000Y-100000000D01*
X148862500Y-101792500D02*
X149420000Y-102350000D01*
X148862500Y-100950000D02*
X148862500Y-101792500D01*
X149420000Y-103080000D02*
X149400000Y-103100000D01*
X150000000Y-100825500D02*
X149925500Y-100900000D01*
X150000000Y-100000000D02*
X151137500Y-100000000D01*
X150000000Y-100000000D02*
X150000000Y-100825500D01*
X149420000Y-102350000D02*
X149420000Y-103080000D01*
%TO.N,/I2C_SDA*%
X151100000Y-98300000D02*
X151100000Y-99012500D01*
X151100000Y-99012500D02*
X151137500Y-99050000D01*
%TO.N,/I2C_SCL*%
X148862500Y-99050000D02*
X148862500Y-98137500D01*
X148862500Y-98137500D02*
X149500000Y-97500000D01*
X148812500Y-99100000D02*
X148862500Y-99050000D01*
X153900000Y-98611082D02*
X153900000Y-100500000D01*
X152788918Y-97500000D02*
X153900000Y-98611082D01*
X149500000Y-97500000D02*
X152788918Y-97500000D01*
X147600000Y-99100000D02*
X148812500Y-99100000D01*
%TD*%
M02*
