%TF.GenerationSoftware,KiCad,Pcbnew,(6.0.9)*%
%TF.CreationDate,2023-02-02T10:48:40+01:00*%
%TF.ProjectId,HallBoard,48616c6c-426f-4617-9264-2e6b69636164,rev?*%
%TF.SameCoordinates,Original*%
%TF.FileFunction,Copper,L6,Bot*%
%TF.FilePolarity,Positive*%
%FSLAX46Y46*%
G04 Gerber Fmt 4.6, Leading zero omitted, Abs format (unit mm)*
G04 Created by KiCad (PCBNEW (6.0.9)) date 2023-02-02 10:48:40*
%MOMM*%
%LPD*%
G01*
G04 APERTURE LIST*
G04 Aperture macros list*
%AMRoundRect*
0 Rectangle with rounded corners*
0 $1 Rounding radius*
0 $2 $3 $4 $5 $6 $7 $8 $9 X,Y pos of 4 corners*
0 Add a 4 corners polygon primitive as box body*
4,1,4,$2,$3,$4,$5,$6,$7,$8,$9,$2,$3,0*
0 Add four circle primitives for the rounded corners*
1,1,$1+$1,$2,$3*
1,1,$1+$1,$4,$5*
1,1,$1+$1,$6,$7*
1,1,$1+$1,$8,$9*
0 Add four rect primitives between the rounded corners*
20,1,$1+$1,$2,$3,$4,$5,0*
20,1,$1+$1,$4,$5,$6,$7,0*
20,1,$1+$1,$6,$7,$8,$9,0*
20,1,$1+$1,$8,$9,$2,$3,0*%
G04 Aperture macros list end*
%TA.AperFunction,SMDPad,CuDef*%
%ADD10RoundRect,0.150000X0.625000X-0.150000X0.625000X0.150000X-0.625000X0.150000X-0.625000X-0.150000X0*%
%TD*%
%TA.AperFunction,SMDPad,CuDef*%
%ADD11RoundRect,0.250000X0.650000X-0.350000X0.650000X0.350000X-0.650000X0.350000X-0.650000X-0.350000X0*%
%TD*%
%TA.AperFunction,SMDPad,CuDef*%
%ADD12RoundRect,0.150000X-0.625000X0.150000X-0.625000X-0.150000X0.625000X-0.150000X0.625000X0.150000X0*%
%TD*%
%TA.AperFunction,SMDPad,CuDef*%
%ADD13RoundRect,0.250000X-0.650000X0.350000X-0.650000X-0.350000X0.650000X-0.350000X0.650000X0.350000X0*%
%TD*%
%TA.AperFunction,SMDPad,CuDef*%
%ADD14RoundRect,0.225000X0.250000X-0.225000X0.250000X0.225000X-0.250000X0.225000X-0.250000X-0.225000X0*%
%TD*%
%TA.AperFunction,SMDPad,CuDef*%
%ADD15RoundRect,0.225000X-0.250000X0.225000X-0.250000X-0.225000X0.250000X-0.225000X0.250000X0.225000X0*%
%TD*%
%TA.AperFunction,ViaPad*%
%ADD16C,0.700000*%
%TD*%
%TA.AperFunction,Conductor*%
%ADD17C,0.500000*%
%TD*%
G04 APERTURE END LIST*
D10*
%TO.P,J102,1,Pin_1*%
%TO.N,+3V3*%
X144000000Y-101500000D03*
%TO.P,J102,2,Pin_2*%
%TO.N,/I2C_SDA*%
X144000000Y-100500000D03*
%TO.P,J102,3,Pin_3*%
%TO.N,/I2C_SCL*%
X144000000Y-99500000D03*
%TO.P,J102,4,Pin_4*%
%TO.N,GND*%
X144000000Y-98500000D03*
D11*
%TO.P,J102,MP*%
%TO.N,N/C*%
X140125000Y-102800000D03*
X140125000Y-97200000D03*
%TD*%
D12*
%TO.P,J101,1,Pin_1*%
%TO.N,+3V3*%
X156000000Y-98500000D03*
%TO.P,J101,2,Pin_2*%
%TO.N,/I2C_SDA*%
X156000000Y-99500000D03*
%TO.P,J101,3,Pin_3*%
%TO.N,/I2C_SCL*%
X156000000Y-100500000D03*
%TO.P,J101,4,Pin_4*%
%TO.N,GND*%
X156000000Y-101500000D03*
D13*
%TO.P,J101,MP*%
%TO.N,N/C*%
X159875000Y-97200000D03*
X159875000Y-102800000D03*
%TD*%
D14*
%TO.P,C103,1*%
%TO.N,+3V3*%
X153900000Y-98475000D03*
%TO.P,C103,2*%
%TO.N,GND*%
X153900000Y-96925000D03*
%TD*%
D15*
%TO.P,C101,1*%
%TO.N,+3V3*%
X146200000Y-101525000D03*
%TO.P,C101,2*%
%TO.N,GND*%
X146200000Y-103075000D03*
%TD*%
D16*
%TO.N,+3V3*%
X147400000Y-101500000D03*
X152700000Y-98542453D03*
X151300000Y-102400000D03*
%TO.N,GND*%
X140000000Y-101000000D03*
X145200000Y-103200000D03*
X140000000Y-96000000D03*
X157350000Y-101500000D03*
X140000000Y-104000000D03*
X142000000Y-104000000D03*
X158000000Y-104000000D03*
X154650000Y-101500000D03*
X142650000Y-98500000D03*
X144000000Y-104000000D03*
X142000000Y-96000000D03*
X156000000Y-104000000D03*
X140000000Y-99000000D03*
X149400000Y-103100000D03*
X152000000Y-104000000D03*
X152010917Y-96005981D03*
X146000000Y-104000000D03*
X160005833Y-95999999D03*
X160000000Y-104000000D03*
X156000000Y-96000000D03*
X160000000Y-99000000D03*
X160000000Y-101000000D03*
X146000000Y-96000000D03*
X154900000Y-96900000D03*
X148000000Y-96000000D03*
X158000000Y-96000000D03*
X148000000Y-104000000D03*
X149925500Y-100900000D03*
X154000000Y-96000000D03*
X145350000Y-98500000D03*
X150021538Y-95999999D03*
X150000000Y-104000000D03*
X154000000Y-104000000D03*
X144000000Y-96000000D03*
%TO.N,/I2C_SDA*%
X151100000Y-98300000D03*
%TO.N,/I2C_SCL*%
X153900000Y-100500000D03*
X147600000Y-99100000D03*
%TD*%
D17*
%TO.N,+3V3*%
X152767453Y-98475000D02*
X153900000Y-98475000D01*
X152700000Y-98542453D02*
X152767453Y-98475000D01*
X153925000Y-98500000D02*
X153900000Y-98475000D01*
X144000000Y-101500000D02*
X146050000Y-101500000D01*
X156000000Y-98500000D02*
X153925000Y-98500000D01*
X147400000Y-101500000D02*
X146250000Y-101500000D01*
%TO.N,GND*%
X154875000Y-96925000D02*
X154900000Y-96900000D01*
X156000000Y-101500000D02*
X154650000Y-101500000D01*
X144000000Y-98500000D02*
X142650000Y-98500000D01*
X156000000Y-101500000D02*
X157350000Y-101500000D01*
X146200000Y-103200000D02*
X145200000Y-103200000D01*
X153900000Y-96925000D02*
X154875000Y-96925000D01*
X144000000Y-98500000D02*
X145350000Y-98500000D01*
%TO.N,/I2C_SDA*%
X149600000Y-98300000D02*
X151100000Y-98300000D01*
X156000000Y-99500000D02*
X152300000Y-99500000D01*
X152300000Y-99500000D02*
X151100000Y-98300000D01*
X144000000Y-100500000D02*
X147400000Y-100500000D01*
X149500000Y-98400000D02*
X149600000Y-98300000D01*
X147400000Y-100500000D02*
X149500000Y-98400000D01*
%TO.N,/I2C_SCL*%
X147200000Y-99500000D02*
X147600000Y-99100000D01*
X153900000Y-100500000D02*
X156000000Y-100500000D01*
X144000000Y-99500000D02*
X147200000Y-99500000D01*
%TD*%
M02*
