M48
; DRILL file {KiCad (6.0.9)} date Thu Feb  2 10:48:38 2023
; FORMAT={-:-/ absolute / metric / decimal}
; #@! TF.CreationDate,2023-02-02T10:48:38+01:00
; #@! TF.GenerationSoftware,Kicad,Pcbnew,(6.0.9)
; #@! TF.FileFunction,Plated,1,6,PTH
FMAT,2
METRIC
; #@! TA.AperFunction,Plated,PTH,ViaDrill
T1C0.400
%
G90
G05
T1
X140.0Y-96.0
X140.0Y-99.0
X140.0Y-101.0
X140.0Y-104.0
X142.0Y-96.0
X142.0Y-104.0
X142.65Y-98.5
X144.0Y-96.0
X144.0Y-104.0
X145.2Y-103.2
X145.35Y-98.5
X146.0Y-96.0
X146.0Y-104.0
X147.4Y-101.5
X147.6Y-99.1
X148.0Y-96.0
X148.0Y-104.0
X149.4Y-103.1
X149.925Y-100.9
X150.0Y-104.0
X150.022Y-96.0
X151.1Y-98.3
X151.3Y-102.4
X152.0Y-104.0
X152.011Y-96.006
X152.7Y-98.542
X153.9Y-100.5
X154.0Y-96.0
X154.0Y-104.0
X154.65Y-101.5
X154.9Y-96.9
X156.0Y-96.0
X156.0Y-104.0
X157.35Y-101.5
X158.0Y-96.0
X158.0Y-104.0
X160.0Y-99.0
X160.0Y-101.0
X160.0Y-104.0
X160.006Y-96.0
T0
M30
