M48
; DRILL file {KiCad (6.0.9)} date Fri Feb  3 11:40:31 2023
; FORMAT={-:-/ absolute / metric / decimal}
; #@! TF.CreationDate,2023-02-03T11:40:31+01:00
; #@! TF.GenerationSoftware,Kicad,Pcbnew,(6.0.9)
; #@! TF.FileFunction,Plated,1,6,PTH
FMAT,2
METRIC
; #@! TA.AperFunction,Plated,PTH,ViaDrill
T1C0.200
; #@! TA.AperFunction,Plated,PTH,ViaDrill
T2C0.300
; #@! TA.AperFunction,Plated,PTH,ViaDrill
T3C0.400
; #@! TA.AperFunction,Plated,PTH,ComponentDrill
T4C0.500
; #@! TA.AperFunction,Plated,PTH,ComponentDrill
T5C0.600
; #@! TA.AperFunction,Plated,PTH,ComponentDrill
T6C0.800
; #@! TA.AperFunction,Plated,PTH,ComponentDrill
T7C0.950
; #@! TA.AperFunction,Plated,PTH,ComponentDrill
T8C2.500
; #@! TA.AperFunction,Plated,PTH,ComponentDrill
T9C4.550
%
G90
G05
T1
X129.0Y-95.0
X129.05Y-102.54
X129.2Y-106.0
X130.1Y-107.9
X130.1Y-108.8
X130.2Y-106.8
X130.4Y-98.7
X130.5Y-100.1
X130.5Y-101.3
X130.5Y-103.6
X130.7Y-97.4
X131.0Y-91.0
X131.0Y-93.0
X131.0Y-95.0
X131.6Y-98.7
X131.624Y-100.1
X131.7Y-101.3
X132.0Y-94.1
X132.76Y-102.54
X133.0Y-93.0
X133.13Y-110.949
X133.6Y-102.5
X133.879Y-109.921
X133.9Y-110.8
X134.0Y-86.0
X134.5Y-100.0
X134.6Y-97.3
X134.75Y-94.25
X135.0Y-85.0
X135.1Y-96.7
X135.1Y-97.7
X135.1Y-98.7
X135.1Y-99.7
X135.1Y-100.6
X135.1Y-101.5
X135.1Y-102.3
X135.1Y-103.1
X135.4Y-104.3
X135.5Y-106.9
X135.8Y-98.0
X135.8Y-100.0
X135.8Y-102.0
X137.0Y-83.0
X137.1Y-107.3
X137.994Y-89.993
X138.3Y-104.6
X138.4Y-91.3
X138.4Y-92.0
X138.4Y-92.7
X138.4Y-93.3
X138.99Y-82.0
X138.997Y-87.995
X139.1Y-90.7
X139.1Y-93.8
X139.11Y-90.01
X139.2Y-104.6
X139.6Y-111.5
X140.9Y-106.5
X141.0Y-80.0
X141.0Y-82.0
X141.0Y-84.0
X141.0Y-86.0
X141.0Y-88.0
X141.515Y-107.7
X142.5Y-100.0
X142.5Y-102.0
X142.5Y-104.0
X142.6Y-97.0
X142.995Y-81.995
X142.997Y-79.995
X143.0Y-84.0
X143.0Y-86.0
X143.0Y-88.0
X143.4Y-98.8
X143.4Y-99.7
X143.4Y-100.6
X143.4Y-101.5
X143.4Y-102.4
X143.4Y-103.3
X143.4Y-104.1
X143.4Y-104.9
X143.4Y-105.7
X144.3Y-109.5
X144.75Y-100.0
X144.86Y-101.5
X144.995Y-79.995
X145.0Y-86.0
X145.0Y-88.0
X145.0Y-96.75
X145.0Y-121.0
X145.3Y-104.6
X145.544Y-101.856
X146.25Y-98.0
X146.8Y-104.0
X146.8Y-107.4
X146.993Y-79.995
X147.0Y-92.0
X147.0Y-94.0
X147.0Y-96.0
X147.0Y-105.3
X147.1Y-108.3
X147.1Y-109.0
X147.33Y-98.41
X147.4Y-100.8
X147.7Y-107.4
X147.89Y-100.23
X147.9Y-110.9
X147.9Y-111.7
X147.995Y-120.992
X148.2Y-98.4
X148.4Y-108.5
X148.5Y-106.2
X148.995Y-91.995
X148.999Y-79.995
X149.0Y-94.0
X149.0Y-96.0
X149.0Y-97.7
X149.146Y-106.132
X149.5Y-110.25
X149.6Y-97.2
X149.6Y-99.9
X149.703Y-105.798
X149.992Y-120.992
X150.124Y-108.5
X150.2Y-97.7
X150.5Y-105.8
X150.8Y-108.534
X150.997Y-79.995
X151.0Y-92.0
X151.0Y-94.0
X151.0Y-96.0
X151.174Y-99.95
X151.2Y-98.0
X151.25Y-110.25
X151.3Y-105.6
X151.8Y-108.5
X152.0Y-98.04
X152.0Y-121.0
X152.44Y-100.2
X152.54Y-88.04
X152.6Y-92.0
X152.6Y-106.0
X152.7Y-107.2
X152.75Y-109.0
X152.75Y-110.25
X152.825Y-100.775
X152.9Y-99.5
X152.995Y-79.995
X152.995Y-93.995
X153.0Y-86.0
X153.192Y-101.43
X153.206Y-104.194
X154.0Y-87.998
X154.0Y-101.8
X154.0Y-121.0
X154.044Y-103.8
X154.2Y-107.7
X154.25Y-96.0
X154.6Y-102.2
X154.6Y-103.0
X154.989Y-113.0
X154.993Y-79.995
X155.0Y-84.0
X155.0Y-86.0
X155.0Y-115.0
X155.0Y-117.0
X155.001Y-110.94
X155.2Y-106.874
X155.3Y-100.3
X155.3Y-101.2
X155.3Y-102.0
X155.3Y-102.8
X155.3Y-103.7
X155.3Y-104.6
X155.7Y-99.0
X155.8Y-108.2
X156.0Y-101.5
X156.0Y-103.5
X156.4Y-95.6
X156.4Y-96.5
X156.5Y-108.2
X156.651Y-97.209
X156.7Y-98.0
X156.997Y-83.99
X156.997Y-85.988
X156.999Y-80.998
X157.0Y-115.0
X157.0Y-117.0
X157.0Y-118.0
X157.75Y-111.75
X158.989Y-84.988
X158.992Y-80.993
X158.992Y-82.991
X159.0Y-117.0
X159.5Y-96.5
X159.5Y-112.0
X159.5Y-113.5
X160.2Y-110.0
X160.999Y-82.99
X160.999Y-84.988
X161.0Y-81.0
X161.0Y-89.9
X161.25Y-96.5
X161.4Y-110.3
X161.6Y-87.3
X161.6Y-87.9
X161.6Y-88.5
X161.6Y-90.7
X161.71Y-89.96
X162.1Y-106.8
X162.1Y-107.7
X162.1Y-112.3
X162.1Y-113.2
X162.8Y-92.5
X162.8Y-94.8
X162.95Y-110.75
X162.995Y-109.275
X162.997Y-84.988
X162.997Y-86.998
X163.0Y-82.991
X163.0Y-88.997
X163.0Y-90.999
X163.0Y-86.0
X163.0Y-96.5
X163.3Y-93.2
X163.3Y-94.2
X163.8Y-112.3
X163.8Y-113.2
X163.85Y-107.65
X163.865Y-106.865
X164.0Y-99.0
X164.0Y-101.0
X164.0Y-103.0
X164.25Y-116.25
X164.41Y-91.98
X164.54Y-109.75
X164.7Y-98.1
X164.7Y-98.9
X164.7Y-99.8
X164.7Y-100.7
X164.7Y-101.6
X164.7Y-102.5
X164.7Y-103.3
X164.7Y-104.1
X164.78Y-93.45
X164.8Y-92.52
X164.96Y-88.51
X165.11Y-94.42
X165.121Y-91.864
X165.475Y-98.6
X165.69Y-95.2
X165.75Y-96.21
X166.7Y-91.34
X166.7Y-94.84
X166.8Y-104.4
X166.8Y-105.2
X167.0Y-96.8
X167.37Y-88.56
X167.7Y-111.8
X168.16Y-93.49
X168.22Y-92.55
X168.42Y-91.79
X168.46Y-94.16
X168.57Y-100.775
X168.7Y-100.0
X168.7Y-102.6
X168.892Y-99.091
X169.18Y-94.41
X169.2Y-104.4
X169.2Y-105.3
X169.4Y-100.0
X169.41Y-98.7
X169.53Y-97.5
X169.6Y-101.3
X170.0Y-91.75
X170.0Y-108.25
X171.5Y-95.5
T2
X165.716Y-106.107
X165.85Y-105.25
T3
X149.2Y-101.9
X149.2Y-103.7
X150.9Y-101.9
X150.9Y-103.7
T4
X164.85Y-86.55
X165.85Y-86.55
T6
X159.7Y-115.6
X161.7Y-115.6
T7
X145.0Y-82.525
X147.5Y-82.525
X150.0Y-82.525
X152.5Y-82.525
X155.0Y-82.525
T8
X134.282Y-89.268
X137.818Y-85.732
T9
X143.4Y-115.5
X150.6Y-115.5
T5
G00X160.85Y-107.475
M15
G01X160.85Y-107.725
M16
G05
G00X160.85Y-112.275
M15
G01X160.85Y-112.525
M16
G05
G00X165.15Y-107.475
M15
G01X165.15Y-107.725
M16
G05
G00X165.15Y-112.275
M15
G01X165.15Y-112.525
M16
G05
T0
M30
