M48
; DRILL file {KiCad (6.0.9)} date Wed Jan 25 10:50:13 2023
; FORMAT={-:-/ absolute / inch / decimal}
; #@! TF.CreationDate,2023-01-25T10:50:13+01:00
; #@! TF.GenerationSoftware,Kicad,Pcbnew,(6.0.9)
; #@! TF.FileFunction,Plated,1,6,PTH
FMAT,2
INCH
; #@! TA.AperFunction,Plated,PTH,ViaDrill
T1C0.0079
; #@! TA.AperFunction,Plated,PTH,ViaDrill
T2C0.0118
; #@! TA.AperFunction,Plated,PTH,ViaDrill
T3C0.0157
; #@! TA.AperFunction,Plated,PTH,ComponentDrill
T4C0.0236
; #@! TA.AperFunction,Plated,PTH,ComponentDrill
T5C0.0374
; #@! TA.AperFunction,Plated,PTH,ComponentDrill
T6C0.0984
; #@! TA.AperFunction,Plated,PTH,ComponentDrill
T7C0.1791
%
G90
G05
T1
X5.0787Y-3.7402
X5.0807Y-4.037
X5.0866Y-4.1732
X5.0984Y-4.2126
X5.1142Y-4.252
X5.1339Y-3.8858
X5.1378Y-3.9409
X5.1378Y-3.9882
X5.1457Y-3.8346
X5.1575Y-3.5827
X5.1575Y-3.6614
X5.1575Y-3.7402
X5.1811Y-3.8858
X5.1821Y-3.9409
X5.185Y-3.9882
X5.187Y-4.3898
X5.2362Y-3.6614
X5.2362Y-3.7402
X5.2717Y-4.5
X5.2756Y-3.3858
X5.2953Y-3.937
X5.2992Y-3.8307
X5.2992Y-4.5
X5.3051Y-3.7106
X5.3051Y-4.2028
X5.315Y-3.3465
X5.3189Y-3.8071
X5.3189Y-3.8465
X5.3189Y-3.8858
X5.3189Y-3.9252
X5.3189Y-3.9606
X5.3189Y-3.9961
X5.3189Y-4.0276
X5.3189Y-4.0591
X5.3465Y-3.8583
X5.3465Y-3.937
X5.3465Y-4.0157
X5.3937Y-3.2677
X5.4035Y-4.2421
X5.4055Y-4.5
X5.4328Y-3.543
X5.4331Y-4.5
X5.4488Y-3.5945
X5.4488Y-3.622
X5.4488Y-3.6496
X5.4488Y-3.6732
X5.472Y-3.2283
X5.4723Y-3.4644
X5.4764Y-3.5709
X5.4764Y-3.6929
X5.4764Y-4.0906
X5.4768Y-3.5437
X5.4823Y-4.1378
X5.4961Y-4.3898
X5.5472Y-4.1929
X5.5512Y-3.1496
X5.5512Y-3.2283
X5.5512Y-3.3071
X5.5512Y-3.3858
X5.5512Y-3.4646
X5.5714Y-4.2402
X5.5748Y-4.2126
X5.6102Y-3.937
X5.6102Y-4.0157
X5.6102Y-4.0945
X5.6142Y-3.8189
X5.6297Y-3.2281
X5.6298Y-3.1494
X5.6299Y-3.3071
X5.6299Y-3.3858
X5.6299Y-3.4646
X5.6457Y-3.8898
X5.6457Y-3.9252
X5.6457Y-3.9606
X5.6457Y-3.9961
X5.6457Y-4.0315
X5.6457Y-4.0669
X5.6457Y-4.0984
X5.6457Y-4.1299
X5.6457Y-4.1614
X5.6811Y-4.311
X5.6988Y-3.937
X5.7031Y-3.9961
X5.7085Y-3.1494
X5.7087Y-3.3858
X5.7087Y-3.4646
X5.7087Y-3.8091
X5.7087Y-4.7638
X5.7205Y-4.1181
X5.7301Y-4.0101
X5.7579Y-3.8583
X5.7795Y-4.0945
X5.7795Y-4.2283
X5.7871Y-3.1494
X5.7874Y-3.622
X5.7874Y-3.7008
X5.7874Y-3.7795
X5.7874Y-4.1457
X5.7913Y-4.2638
X5.7913Y-4.2913
X5.8004Y-3.8744
X5.8031Y-3.9685
X5.815Y-4.2283
X5.8224Y-3.9461
X5.8228Y-4.3661
X5.8228Y-4.3976
X5.8266Y-4.7635
X5.8346Y-3.874
X5.8425Y-4.2717
X5.8465Y-4.1811
X5.866Y-3.6218
X5.8661Y-3.1494
X5.8661Y-3.7008
X5.8661Y-3.7795
X5.8661Y-3.8465
X5.8719Y-4.1784
X5.8858Y-4.3406
X5.8898Y-3.8268
X5.8898Y-3.9331
X5.8938Y-4.1653
X5.9052Y-4.7635
X5.9104Y-4.2717
X5.9134Y-3.8465
X5.9252Y-4.1654
X5.937Y-4.273
X5.9448Y-3.1494
X5.9449Y-3.622
X5.9449Y-3.7008
X5.9449Y-3.7795
X5.9518Y-3.935
X5.9528Y-3.8583
X5.9547Y-4.3406
X5.9567Y-4.1575
X5.9764Y-4.2717
X5.9843Y-3.8598
X5.9843Y-4.7638
X6.0016Y-3.9449
X6.0079Y-3.4685
X6.0079Y-3.622
X6.0079Y-4.1732
X6.0118Y-4.2205
X6.0138Y-4.2913
X6.0138Y-4.3406
X6.0167Y-3.9675
X6.0197Y-3.9173
X6.0234Y-3.1494
X6.0234Y-3.7006
X6.0236Y-3.3858
X6.0312Y-3.9933
X6.0317Y-4.1021
X6.063Y-3.4645
X6.063Y-4.0079
X6.063Y-4.7638
X6.0647Y-4.0866
X6.0709Y-4.2402
X6.0728Y-3.7795
X6.0866Y-4.0236
X6.0866Y-4.0551
X6.1019Y-4.4488
X6.1021Y-3.1494
X6.1023Y-3.3067
X6.1024Y-3.3858
X6.1024Y-4.5276
X6.1024Y-4.6063
X6.1024Y-4.3677
X6.1102Y-4.2077
X6.1142Y-3.9488
X6.1142Y-3.9843
X6.1142Y-4.0157
X6.1142Y-4.0472
X6.1142Y-4.0827
X6.1142Y-4.1181
X6.1299Y-3.8976
X6.1339Y-4.2598
X6.1417Y-3.9961
X6.1417Y-4.0748
X6.1575Y-3.7638
X6.1575Y-3.7992
X6.1614Y-4.2598
X6.1674Y-3.8271
X6.1693Y-3.8583
X6.181Y-3.3067
X6.181Y-3.3853
X6.1811Y-3.1889
X6.1811Y-4.5276
X6.1811Y-4.6063
X6.2106Y-4.3996
X6.2594Y-3.346
X6.2595Y-3.1887
X6.2595Y-3.2674
X6.2597Y-4.4488
X6.2598Y-4.5276
X6.2598Y-4.6063
X6.2697Y-4.2618
X6.2795Y-3.7992
X6.3071Y-4.3307
X6.3381Y-4.5275
X6.3385Y-3.2673
X6.3385Y-3.346
X6.3386Y-3.189
X6.3386Y-3.5394
X6.3484Y-3.7992
X6.3543Y-4.3425
X6.3622Y-3.437
X6.3622Y-3.4606
X6.3622Y-3.4843
X6.3622Y-3.5709
X6.3665Y-3.5417
X6.3819Y-4.2047
X6.3819Y-4.2402
X6.3819Y-4.4213
X6.3819Y-4.4567
X6.4094Y-3.6417
X6.4094Y-3.7323
X6.4154Y-4.3602
X6.4171Y-4.3022
X6.4172Y-3.346
X6.4172Y-3.4251
X6.4173Y-3.2674
X6.4173Y-3.5038
X6.4173Y-3.5826
X6.4173Y-3.7992
X6.4291Y-3.6693
X6.4291Y-3.7087
X6.4488Y-4.4213
X6.4488Y-4.4567
X6.4508Y-4.2382
X6.4514Y-4.2073
X6.4567Y-3.8976
X6.4567Y-3.9764
X6.4567Y-4.0551
X6.4665Y-4.5768
X6.4728Y-3.6213
X6.478Y-4.3209
X6.4843Y-3.8622
X6.4843Y-3.8937
X6.4843Y-3.9291
X6.4843Y-3.9646
X6.4843Y-4.0
X6.4843Y-4.0354
X6.4843Y-4.0669
X6.4843Y-4.0984
X6.4874Y-3.6791
X6.4882Y-3.6425
X6.4945Y-3.4846
X6.4959Y-3.346
X6.4959Y-3.4251
X6.5004Y-3.7173
X6.5008Y-3.6167
X6.5148Y-3.8819
X6.5232Y-3.748
X6.5256Y-3.7878
X6.563Y-3.5961
X6.563Y-3.7339
X6.5669Y-4.1102
X6.5669Y-4.1417
X6.5745Y-3.4251
X6.5748Y-3.811
X6.5748Y-4.4587
X6.5894Y-3.4866
X6.6024Y-4.4016
X6.6205Y-3.6807
X6.6228Y-3.6437
X6.6307Y-3.6138
X6.6323Y-3.7071
X6.6366Y-3.9675
X6.6417Y-3.937
X6.6417Y-4.0394
X6.6493Y-3.9012
X6.6606Y-3.7169
X6.6614Y-4.1102
X6.6614Y-4.1457
X6.6693Y-3.937
X6.6697Y-3.8858
X6.6744Y-3.8386
X6.6772Y-3.9882
X6.6929Y-3.6122
X6.6929Y-4.2618
X6.752Y-3.7598
T2
X6.5242Y-4.1774
X6.5295Y-4.1437
T3
X5.874Y-4.0118
X5.874Y-4.0827
X5.9409Y-4.0118
X5.9409Y-4.0827
T5
X5.7087Y-3.249
X5.8071Y-3.249
X5.9055Y-3.249
X6.0039Y-3.249
X6.1024Y-3.249
T6
X5.2867Y-3.5145
X5.4259Y-3.3753
T7
X5.6457Y-4.5472
X5.9291Y-4.5472
T4
G00X6.3327Y-4.2313
M15
G01X6.3327Y-4.2411
M16
G05
G00X6.3327Y-4.4203
M15
G01X6.3327Y-4.4301
M16
G05
G00X6.502Y-4.2313
M15
G01X6.502Y-4.2411
M16
G05
G00X6.502Y-4.4203
M15
G01X6.502Y-4.4301
M16
G05
T0
M30
