%TF.GenerationSoftware,KiCad,Pcbnew,(6.0.9)*%
%TF.CreationDate,2023-02-02T10:15:23+01:00*%
%TF.ProjectId,BatteryManagementBoard,42617474-6572-4794-9d61-6e6167656d65,rev?*%
%TF.SameCoordinates,Original*%
%TF.FileFunction,Legend,Top*%
%TF.FilePolarity,Positive*%
%FSLAX46Y46*%
G04 Gerber Fmt 4.6, Leading zero omitted, Abs format (unit mm)*
G04 Created by KiCad (PCBNEW (6.0.9)) date 2023-02-02 10:15:23*
%MOMM*%
%LPD*%
G01*
G04 APERTURE LIST*
G04 Aperture macros list*
%AMRoundRect*
0 Rectangle with rounded corners*
0 $1 Rounding radius*
0 $2 $3 $4 $5 $6 $7 $8 $9 X,Y pos of 4 corners*
0 Add a 4 corners polygon primitive as box body*
4,1,4,$2,$3,$4,$5,$6,$7,$8,$9,$2,$3,0*
0 Add four circle primitives for the rounded corners*
1,1,$1+$1,$2,$3*
1,1,$1+$1,$4,$5*
1,1,$1+$1,$6,$7*
1,1,$1+$1,$8,$9*
0 Add four rect primitives between the rounded corners*
20,1,$1+$1,$2,$3,$4,$5,0*
20,1,$1+$1,$4,$5,$6,$7,0*
20,1,$1+$1,$6,$7,$8,$9,0*
20,1,$1+$1,$8,$9,$2,$3,0*%
G04 Aperture macros list end*
%ADD10C,0.200000*%
%ADD11C,0.120000*%
%ADD12C,0.100000*%
%ADD13C,0.010000*%
%ADD14RoundRect,0.250000X0.375000X1.075000X-0.375000X1.075000X-0.375000X-1.075000X0.375000X-1.075000X0*%
%ADD15RoundRect,0.225000X-0.225000X-0.250000X0.225000X-0.250000X0.225000X0.250000X-0.225000X0.250000X0*%
%ADD16RoundRect,0.135000X0.135000X0.185000X-0.135000X0.185000X-0.135000X-0.185000X0.135000X-0.185000X0*%
%ADD17RoundRect,0.140000X-0.140000X-0.170000X0.140000X-0.170000X0.140000X0.170000X-0.140000X0.170000X0*%
%ADD18RoundRect,0.050000X0.375000X0.050000X-0.375000X0.050000X-0.375000X-0.050000X0.375000X-0.050000X0*%
%ADD19RoundRect,0.050000X0.050000X0.275000X-0.050000X0.275000X-0.050000X-0.275000X0.050000X-0.275000X0*%
%ADD20RoundRect,0.140000X0.140000X0.170000X-0.140000X0.170000X-0.140000X-0.170000X0.140000X-0.170000X0*%
%ADD21C,0.520000*%
%ADD22R,0.870000X0.300000*%
%ADD23O,1.100000X2.200000*%
%ADD24R,0.850000X0.850000*%
%ADD25O,0.850000X0.850000*%
%ADD26RoundRect,0.140000X-0.170000X0.140000X-0.170000X-0.140000X0.170000X-0.140000X0.170000X0.140000X0*%
%ADD27RoundRect,0.225000X0.250000X-0.225000X0.250000X0.225000X-0.250000X0.225000X-0.250000X-0.225000X0*%
%ADD28RoundRect,0.150000X0.512500X0.150000X-0.512500X0.150000X-0.512500X-0.150000X0.512500X-0.150000X0*%
%ADD29R,1.800000X2.500000*%
%ADD30R,2.400000X0.740000*%
%ADD31RoundRect,0.250000X0.250000X0.475000X-0.250000X0.475000X-0.250000X-0.475000X0.250000X-0.475000X0*%
%ADD32RoundRect,0.135000X-0.185000X0.135000X-0.185000X-0.135000X0.185000X-0.135000X0.185000X0.135000X0*%
%ADD33R,0.650000X3.000000*%
%ADD34RoundRect,0.135000X0.185000X-0.135000X0.185000X0.135000X-0.185000X0.135000X-0.185000X-0.135000X0*%
%ADD35RoundRect,0.135000X-0.135000X-0.185000X0.135000X-0.185000X0.135000X0.185000X-0.135000X0.185000X0*%
%ADD36RoundRect,0.243750X-0.243750X-0.456250X0.243750X-0.456250X0.243750X0.456250X-0.243750X0.456250X0*%
%ADD37RoundRect,0.250000X-0.250000X-0.475000X0.250000X-0.475000X0.250000X0.475000X-0.250000X0.475000X0*%
%ADD38R,1.350000X1.350000*%
%ADD39O,1.350000X1.350000*%
%ADD40RoundRect,0.250000X-0.600000X-0.725000X0.600000X-0.725000X0.600000X0.725000X-0.600000X0.725000X0*%
%ADD41O,1.700000X1.950000*%
%ADD42C,6.500000*%
%ADD43R,6.300000X6.000000*%
%ADD44C,4.000000*%
G04 APERTURE END LIST*
D10*
X164509523Y-85157142D02*
X164461904Y-85204761D01*
X164319047Y-85252380D01*
X164223809Y-85252380D01*
X164080952Y-85204761D01*
X163985714Y-85109523D01*
X163938095Y-85014285D01*
X163890476Y-84823809D01*
X163890476Y-84680952D01*
X163938095Y-84490476D01*
X163985714Y-84395238D01*
X164080952Y-84300000D01*
X164223809Y-84252380D01*
X164319047Y-84252380D01*
X164461904Y-84300000D01*
X164509523Y-84347619D01*
X165509523Y-85157142D02*
X165461904Y-85204761D01*
X165319047Y-85252380D01*
X165223809Y-85252380D01*
X165080952Y-85204761D01*
X164985714Y-85109523D01*
X164938095Y-85014285D01*
X164890476Y-84823809D01*
X164890476Y-84680952D01*
X164938095Y-84490476D01*
X164985714Y-84395238D01*
X165080952Y-84300000D01*
X165223809Y-84252380D01*
X165319047Y-84252380D01*
X165461904Y-84300000D01*
X165509523Y-84347619D01*
D11*
X134402064Y-110660000D02*
X133197936Y-110660000D01*
X134402064Y-107940000D02*
X133197936Y-107940000D01*
X153859420Y-104390000D02*
X154140580Y-104390000D01*
X153859420Y-105410000D02*
X154140580Y-105410000D01*
X146453641Y-103120000D02*
X146146359Y-103120000D01*
X146453641Y-103880000D02*
X146146359Y-103880000D01*
X146192164Y-106440000D02*
X146407836Y-106440000D01*
X146192164Y-107160000D02*
X146407836Y-107160000D01*
X165570000Y-93990000D02*
X165570000Y-93640000D01*
X167390000Y-92170000D02*
X167390000Y-92520000D01*
X165570000Y-92170000D02*
X165570000Y-92520000D01*
X135892164Y-111240000D02*
X136107836Y-111240000D01*
X135892164Y-111960000D02*
X136107836Y-111960000D01*
X166857836Y-95860000D02*
X166642164Y-95860000D01*
X166857836Y-95140000D02*
X166642164Y-95140000D01*
D10*
X164580000Y-113750000D02*
X164580000Y-114470000D01*
X161420000Y-114470000D02*
X161420000Y-113750000D01*
X164580000Y-105530000D02*
X161420000Y-105530000D01*
X164580000Y-114470000D02*
X161420000Y-114470000D01*
X164580000Y-106250000D02*
X164580000Y-105530000D01*
X161420000Y-105530000D02*
X161420000Y-106250000D01*
X164000000Y-105000000D02*
G75*
G03*
X164000000Y-105000000I-100000J0D01*
G01*
D11*
X165535000Y-87245000D02*
X165535000Y-87158276D01*
X166410000Y-86155507D02*
X166410000Y-85855000D01*
X165535000Y-87245000D02*
X166410000Y-87245000D01*
X166410000Y-87245000D02*
X166410000Y-86944493D01*
X164850000Y-87245000D02*
X164165000Y-87245000D01*
X165535000Y-85941724D02*
X165535000Y-85855000D01*
X164165000Y-87245000D02*
X164165000Y-86550000D01*
X165535000Y-85855000D02*
X166410000Y-85855000D01*
X148340000Y-107192164D02*
X148340000Y-107407836D01*
X149060000Y-107192164D02*
X149060000Y-107407836D01*
X149090000Y-98665580D02*
X149090000Y-98384420D01*
X150110000Y-98665580D02*
X150110000Y-98384420D01*
X138200000Y-107840000D02*
X139000000Y-107840000D01*
X138200000Y-110960000D02*
X140000000Y-110960000D01*
X138200000Y-107840000D02*
X137400000Y-107840000D01*
X138200000Y-110960000D02*
X137400000Y-110960000D01*
X150353641Y-107180000D02*
X150046359Y-107180000D01*
X150353641Y-106420000D02*
X150046359Y-106420000D01*
X166350000Y-110700000D02*
X169650000Y-110700000D01*
X166350000Y-110700000D02*
X166350000Y-105300000D01*
X169650000Y-110700000D02*
X169650000Y-105300000D01*
X129335000Y-96830000D02*
X129335000Y-96765000D01*
X132865000Y-103235000D02*
X132865000Y-103170000D01*
X132865000Y-96830000D02*
X132865000Y-96765000D01*
X129335000Y-103235000D02*
X129335000Y-103170000D01*
X132865000Y-96765000D02*
X129335000Y-96765000D01*
X132865000Y-103235000D02*
X129335000Y-103235000D01*
X134190000Y-103170000D02*
X132865000Y-103170000D01*
X139161252Y-105965000D02*
X138638748Y-105965000D01*
X139161252Y-107435000D02*
X138638748Y-107435000D01*
X152920000Y-103046359D02*
X152920000Y-103353641D01*
X153680000Y-103046359D02*
X153680000Y-103353641D01*
X164820000Y-94776359D02*
X164820000Y-95083641D01*
X164060000Y-94776359D02*
X164060000Y-95083641D01*
X158330000Y-108890000D02*
X158220000Y-108890000D01*
X157050000Y-108890000D02*
X155680000Y-108890000D01*
X158320000Y-111110000D02*
X156950000Y-111110000D01*
X158220000Y-108890000D02*
X158220000Y-107060000D01*
X155670000Y-108890000D02*
X155670000Y-111110000D01*
X155780000Y-111110000D02*
X155670000Y-111110000D01*
X158330000Y-108890000D02*
X158330000Y-111110000D01*
X132780000Y-104953641D02*
X132780000Y-104646359D01*
X132020000Y-104953641D02*
X132020000Y-104646359D01*
D12*
X160150000Y-110000000D02*
G75*
G03*
X160150000Y-110000000I-50000J0D01*
G01*
D11*
X164590000Y-89606359D02*
X164590000Y-89913641D01*
X165350000Y-89606359D02*
X165350000Y-89913641D01*
X146146359Y-104120000D02*
X146453641Y-104120000D01*
X146146359Y-104880000D02*
X146453641Y-104880000D01*
X131100000Y-103840000D02*
X128415000Y-103840000D01*
X128415000Y-103840000D02*
X128415000Y-105760000D01*
X128415000Y-105760000D02*
X131100000Y-105760000D01*
X168750000Y-89903641D02*
X168750000Y-89596359D01*
X167990000Y-89903641D02*
X167990000Y-89596359D01*
X167750000Y-89586359D02*
X167750000Y-89893641D01*
X166990000Y-89586359D02*
X166990000Y-89893641D01*
X165620000Y-89913641D02*
X165620000Y-89606359D01*
X166380000Y-89913641D02*
X166380000Y-89606359D01*
X146146359Y-105420000D02*
X146453641Y-105420000D01*
X146146359Y-106180000D02*
X146453641Y-106180000D01*
X167135000Y-103235000D02*
X167135000Y-103170000D01*
X170665000Y-96830000D02*
X170665000Y-96765000D01*
X170665000Y-103235000D02*
X167135000Y-103235000D01*
X167135000Y-96830000D02*
X167135000Y-96765000D01*
X171990000Y-103170000D02*
X170665000Y-103170000D01*
X170665000Y-103235000D02*
X170665000Y-103170000D01*
X170665000Y-96765000D02*
X167135000Y-96765000D01*
X147138748Y-119065000D02*
X147661252Y-119065000D01*
X147138748Y-120535000D02*
X147661252Y-120535000D01*
X148060000Y-106192164D02*
X148060000Y-106407836D01*
X147340000Y-106192164D02*
X147340000Y-106407836D01*
X146775000Y-87390000D02*
X148145000Y-87390000D01*
X146765000Y-89610000D02*
X146875000Y-89610000D01*
X150585000Y-89610000D02*
X151955000Y-89610000D01*
X149315000Y-87390000D02*
X150685000Y-87390000D01*
X148045000Y-89610000D02*
X149415000Y-89610000D01*
X153235000Y-89610000D02*
X153235000Y-87390000D01*
X153125000Y-87390000D02*
X153235000Y-87390000D01*
X146875000Y-89610000D02*
X146875000Y-91440000D01*
X146765000Y-89610000D02*
X146765000Y-87390000D01*
X151855000Y-87390000D02*
X153225000Y-87390000D01*
X150307836Y-108160000D02*
X150092164Y-108160000D01*
X150307836Y-107440000D02*
X150092164Y-107440000D01*
X135038748Y-107435000D02*
X135561252Y-107435000D01*
X135038748Y-105965000D02*
X135561252Y-105965000D01*
X135038748Y-103965000D02*
X135561252Y-103965000D01*
X135038748Y-105435000D02*
X135561252Y-105435000D01*
%LPC*%
G36*
X159358000Y-110191000D02*
G01*
X159360000Y-110191000D01*
X159363000Y-110192000D01*
X159365000Y-110192000D01*
X159368000Y-110193000D01*
X159370000Y-110194000D01*
X159373000Y-110195000D01*
X159375000Y-110197000D01*
X159377000Y-110198000D01*
X159379000Y-110200000D01*
X159381000Y-110201000D01*
X159389000Y-110209000D01*
X159390000Y-110211000D01*
X159392000Y-110213000D01*
X159393000Y-110215000D01*
X159395000Y-110217000D01*
X159396000Y-110220000D01*
X159397000Y-110222000D01*
X159398000Y-110225000D01*
X159398000Y-110227000D01*
X159399000Y-110230000D01*
X159399000Y-110232000D01*
X159400000Y-110235000D01*
X159400000Y-110445000D01*
X159399000Y-110448000D01*
X159399000Y-110450000D01*
X159398000Y-110453000D01*
X159398000Y-110455000D01*
X159397000Y-110458000D01*
X159396000Y-110460000D01*
X159395000Y-110463000D01*
X159393000Y-110465000D01*
X159392000Y-110467000D01*
X159390000Y-110469000D01*
X159389000Y-110471000D01*
X159381000Y-110479000D01*
X159379000Y-110480000D01*
X159377000Y-110482000D01*
X159375000Y-110483000D01*
X159373000Y-110485000D01*
X159370000Y-110486000D01*
X159368000Y-110487000D01*
X159365000Y-110488000D01*
X159363000Y-110488000D01*
X159360000Y-110489000D01*
X159358000Y-110489000D01*
X159355000Y-110490000D01*
X159145000Y-110490000D01*
X159142000Y-110489000D01*
X159140000Y-110489000D01*
X159137000Y-110488000D01*
X159135000Y-110488000D01*
X159132000Y-110487000D01*
X159130000Y-110486000D01*
X159127000Y-110485000D01*
X159125000Y-110483000D01*
X159123000Y-110482000D01*
X159121000Y-110480000D01*
X159119000Y-110479000D01*
X159111000Y-110471000D01*
X159110000Y-110469000D01*
X159108000Y-110467000D01*
X159107000Y-110465000D01*
X159105000Y-110463000D01*
X159104000Y-110460000D01*
X159103000Y-110458000D01*
X159102000Y-110455000D01*
X159102000Y-110453000D01*
X159101000Y-110450000D01*
X159101000Y-110448000D01*
X159100000Y-110445000D01*
X159100000Y-110235000D01*
X159101000Y-110232000D01*
X159101000Y-110230000D01*
X159102000Y-110227000D01*
X159102000Y-110225000D01*
X159103000Y-110222000D01*
X159104000Y-110220000D01*
X159105000Y-110217000D01*
X159107000Y-110215000D01*
X159108000Y-110213000D01*
X159110000Y-110211000D01*
X159111000Y-110209000D01*
X159119000Y-110201000D01*
X159121000Y-110200000D01*
X159123000Y-110198000D01*
X159125000Y-110197000D01*
X159127000Y-110195000D01*
X159130000Y-110194000D01*
X159132000Y-110193000D01*
X159135000Y-110192000D01*
X159137000Y-110192000D01*
X159140000Y-110191000D01*
X159142000Y-110191000D01*
X159145000Y-110190000D01*
X159355000Y-110190000D01*
X159358000Y-110191000D01*
G37*
D13*
X159358000Y-110191000D02*
X159360000Y-110191000D01*
X159363000Y-110192000D01*
X159365000Y-110192000D01*
X159368000Y-110193000D01*
X159370000Y-110194000D01*
X159373000Y-110195000D01*
X159375000Y-110197000D01*
X159377000Y-110198000D01*
X159379000Y-110200000D01*
X159381000Y-110201000D01*
X159389000Y-110209000D01*
X159390000Y-110211000D01*
X159392000Y-110213000D01*
X159393000Y-110215000D01*
X159395000Y-110217000D01*
X159396000Y-110220000D01*
X159397000Y-110222000D01*
X159398000Y-110225000D01*
X159398000Y-110227000D01*
X159399000Y-110230000D01*
X159399000Y-110232000D01*
X159400000Y-110235000D01*
X159400000Y-110445000D01*
X159399000Y-110448000D01*
X159399000Y-110450000D01*
X159398000Y-110453000D01*
X159398000Y-110455000D01*
X159397000Y-110458000D01*
X159396000Y-110460000D01*
X159395000Y-110463000D01*
X159393000Y-110465000D01*
X159392000Y-110467000D01*
X159390000Y-110469000D01*
X159389000Y-110471000D01*
X159381000Y-110479000D01*
X159379000Y-110480000D01*
X159377000Y-110482000D01*
X159375000Y-110483000D01*
X159373000Y-110485000D01*
X159370000Y-110486000D01*
X159368000Y-110487000D01*
X159365000Y-110488000D01*
X159363000Y-110488000D01*
X159360000Y-110489000D01*
X159358000Y-110489000D01*
X159355000Y-110490000D01*
X159145000Y-110490000D01*
X159142000Y-110489000D01*
X159140000Y-110489000D01*
X159137000Y-110488000D01*
X159135000Y-110488000D01*
X159132000Y-110487000D01*
X159130000Y-110486000D01*
X159127000Y-110485000D01*
X159125000Y-110483000D01*
X159123000Y-110482000D01*
X159121000Y-110480000D01*
X159119000Y-110479000D01*
X159111000Y-110471000D01*
X159110000Y-110469000D01*
X159108000Y-110467000D01*
X159107000Y-110465000D01*
X159105000Y-110463000D01*
X159104000Y-110460000D01*
X159103000Y-110458000D01*
X159102000Y-110455000D01*
X159102000Y-110453000D01*
X159101000Y-110450000D01*
X159101000Y-110448000D01*
X159100000Y-110445000D01*
X159100000Y-110235000D01*
X159101000Y-110232000D01*
X159101000Y-110230000D01*
X159102000Y-110227000D01*
X159102000Y-110225000D01*
X159103000Y-110222000D01*
X159104000Y-110220000D01*
X159105000Y-110217000D01*
X159107000Y-110215000D01*
X159108000Y-110213000D01*
X159110000Y-110211000D01*
X159111000Y-110209000D01*
X159119000Y-110201000D01*
X159121000Y-110200000D01*
X159123000Y-110198000D01*
X159125000Y-110197000D01*
X159127000Y-110195000D01*
X159130000Y-110194000D01*
X159132000Y-110193000D01*
X159135000Y-110192000D01*
X159137000Y-110192000D01*
X159140000Y-110191000D01*
X159142000Y-110191000D01*
X159145000Y-110190000D01*
X159355000Y-110190000D01*
X159358000Y-110191000D01*
G36*
X159658000Y-109851000D02*
G01*
X159660000Y-109851000D01*
X159663000Y-109852000D01*
X159665000Y-109852000D01*
X159668000Y-109853000D01*
X159670000Y-109854000D01*
X159673000Y-109855000D01*
X159675000Y-109857000D01*
X159677000Y-109858000D01*
X159679000Y-109860000D01*
X159681000Y-109861000D01*
X159689000Y-109869000D01*
X159690000Y-109871000D01*
X159692000Y-109873000D01*
X159693000Y-109875000D01*
X159695000Y-109877000D01*
X159696000Y-109880000D01*
X159697000Y-109882000D01*
X159698000Y-109885000D01*
X159698000Y-109887000D01*
X159699000Y-109890000D01*
X159699000Y-109892000D01*
X159700000Y-109895000D01*
X159700000Y-110105000D01*
X159699000Y-110108000D01*
X159699000Y-110110000D01*
X159698000Y-110113000D01*
X159698000Y-110115000D01*
X159697000Y-110118000D01*
X159696000Y-110120000D01*
X159695000Y-110123000D01*
X159693000Y-110125000D01*
X159692000Y-110127000D01*
X159690000Y-110129000D01*
X159689000Y-110131000D01*
X159681000Y-110139000D01*
X159679000Y-110140000D01*
X159677000Y-110142000D01*
X159675000Y-110143000D01*
X159673000Y-110145000D01*
X159670000Y-110146000D01*
X159668000Y-110147000D01*
X159665000Y-110148000D01*
X159663000Y-110148000D01*
X159660000Y-110149000D01*
X159658000Y-110149000D01*
X159655000Y-110150000D01*
X159445000Y-110150000D01*
X159442000Y-110149000D01*
X159440000Y-110149000D01*
X159437000Y-110148000D01*
X159435000Y-110148000D01*
X159432000Y-110147000D01*
X159430000Y-110146000D01*
X159427000Y-110145000D01*
X159425000Y-110143000D01*
X159423000Y-110142000D01*
X159421000Y-110140000D01*
X159419000Y-110139000D01*
X159411000Y-110131000D01*
X159410000Y-110129000D01*
X159408000Y-110127000D01*
X159407000Y-110125000D01*
X159405000Y-110123000D01*
X159404000Y-110120000D01*
X159403000Y-110118000D01*
X159402000Y-110115000D01*
X159402000Y-110113000D01*
X159401000Y-110110000D01*
X159401000Y-110108000D01*
X159400000Y-110105000D01*
X159400000Y-109895000D01*
X159401000Y-109892000D01*
X159401000Y-109890000D01*
X159402000Y-109887000D01*
X159402000Y-109885000D01*
X159403000Y-109882000D01*
X159404000Y-109880000D01*
X159405000Y-109877000D01*
X159407000Y-109875000D01*
X159408000Y-109873000D01*
X159410000Y-109871000D01*
X159411000Y-109869000D01*
X159419000Y-109861000D01*
X159421000Y-109860000D01*
X159423000Y-109858000D01*
X159425000Y-109857000D01*
X159427000Y-109855000D01*
X159430000Y-109854000D01*
X159432000Y-109853000D01*
X159435000Y-109852000D01*
X159437000Y-109852000D01*
X159440000Y-109851000D01*
X159442000Y-109851000D01*
X159445000Y-109850000D01*
X159655000Y-109850000D01*
X159658000Y-109851000D01*
G37*
X159658000Y-109851000D02*
X159660000Y-109851000D01*
X159663000Y-109852000D01*
X159665000Y-109852000D01*
X159668000Y-109853000D01*
X159670000Y-109854000D01*
X159673000Y-109855000D01*
X159675000Y-109857000D01*
X159677000Y-109858000D01*
X159679000Y-109860000D01*
X159681000Y-109861000D01*
X159689000Y-109869000D01*
X159690000Y-109871000D01*
X159692000Y-109873000D01*
X159693000Y-109875000D01*
X159695000Y-109877000D01*
X159696000Y-109880000D01*
X159697000Y-109882000D01*
X159698000Y-109885000D01*
X159698000Y-109887000D01*
X159699000Y-109890000D01*
X159699000Y-109892000D01*
X159700000Y-109895000D01*
X159700000Y-110105000D01*
X159699000Y-110108000D01*
X159699000Y-110110000D01*
X159698000Y-110113000D01*
X159698000Y-110115000D01*
X159697000Y-110118000D01*
X159696000Y-110120000D01*
X159695000Y-110123000D01*
X159693000Y-110125000D01*
X159692000Y-110127000D01*
X159690000Y-110129000D01*
X159689000Y-110131000D01*
X159681000Y-110139000D01*
X159679000Y-110140000D01*
X159677000Y-110142000D01*
X159675000Y-110143000D01*
X159673000Y-110145000D01*
X159670000Y-110146000D01*
X159668000Y-110147000D01*
X159665000Y-110148000D01*
X159663000Y-110148000D01*
X159660000Y-110149000D01*
X159658000Y-110149000D01*
X159655000Y-110150000D01*
X159445000Y-110150000D01*
X159442000Y-110149000D01*
X159440000Y-110149000D01*
X159437000Y-110148000D01*
X159435000Y-110148000D01*
X159432000Y-110147000D01*
X159430000Y-110146000D01*
X159427000Y-110145000D01*
X159425000Y-110143000D01*
X159423000Y-110142000D01*
X159421000Y-110140000D01*
X159419000Y-110139000D01*
X159411000Y-110131000D01*
X159410000Y-110129000D01*
X159408000Y-110127000D01*
X159407000Y-110125000D01*
X159405000Y-110123000D01*
X159404000Y-110120000D01*
X159403000Y-110118000D01*
X159402000Y-110115000D01*
X159402000Y-110113000D01*
X159401000Y-110110000D01*
X159401000Y-110108000D01*
X159400000Y-110105000D01*
X159400000Y-109895000D01*
X159401000Y-109892000D01*
X159401000Y-109890000D01*
X159402000Y-109887000D01*
X159402000Y-109885000D01*
X159403000Y-109882000D01*
X159404000Y-109880000D01*
X159405000Y-109877000D01*
X159407000Y-109875000D01*
X159408000Y-109873000D01*
X159410000Y-109871000D01*
X159411000Y-109869000D01*
X159419000Y-109861000D01*
X159421000Y-109860000D01*
X159423000Y-109858000D01*
X159425000Y-109857000D01*
X159427000Y-109855000D01*
X159430000Y-109854000D01*
X159432000Y-109853000D01*
X159435000Y-109852000D01*
X159437000Y-109852000D01*
X159440000Y-109851000D01*
X159442000Y-109851000D01*
X159445000Y-109850000D01*
X159655000Y-109850000D01*
X159658000Y-109851000D01*
G36*
X159358000Y-109511000D02*
G01*
X159360000Y-109511000D01*
X159363000Y-109512000D01*
X159365000Y-109512000D01*
X159368000Y-109513000D01*
X159370000Y-109514000D01*
X159373000Y-109515000D01*
X159375000Y-109517000D01*
X159377000Y-109518000D01*
X159379000Y-109520000D01*
X159381000Y-109521000D01*
X159389000Y-109529000D01*
X159390000Y-109531000D01*
X159392000Y-109533000D01*
X159393000Y-109535000D01*
X159395000Y-109537000D01*
X159396000Y-109540000D01*
X159397000Y-109542000D01*
X159398000Y-109545000D01*
X159398000Y-109547000D01*
X159399000Y-109550000D01*
X159399000Y-109552000D01*
X159400000Y-109555000D01*
X159400000Y-109765000D01*
X159399000Y-109768000D01*
X159399000Y-109770000D01*
X159398000Y-109773000D01*
X159398000Y-109775000D01*
X159397000Y-109778000D01*
X159396000Y-109780000D01*
X159395000Y-109783000D01*
X159393000Y-109785000D01*
X159392000Y-109787000D01*
X159390000Y-109789000D01*
X159389000Y-109791000D01*
X159381000Y-109799000D01*
X159379000Y-109800000D01*
X159377000Y-109802000D01*
X159375000Y-109803000D01*
X159373000Y-109805000D01*
X159370000Y-109806000D01*
X159368000Y-109807000D01*
X159365000Y-109808000D01*
X159363000Y-109808000D01*
X159360000Y-109809000D01*
X159358000Y-109809000D01*
X159355000Y-109810000D01*
X159145000Y-109810000D01*
X159142000Y-109809000D01*
X159140000Y-109809000D01*
X159137000Y-109808000D01*
X159135000Y-109808000D01*
X159132000Y-109807000D01*
X159130000Y-109806000D01*
X159127000Y-109805000D01*
X159125000Y-109803000D01*
X159123000Y-109802000D01*
X159121000Y-109800000D01*
X159119000Y-109799000D01*
X159111000Y-109791000D01*
X159110000Y-109789000D01*
X159108000Y-109787000D01*
X159107000Y-109785000D01*
X159105000Y-109783000D01*
X159104000Y-109780000D01*
X159103000Y-109778000D01*
X159102000Y-109775000D01*
X159102000Y-109773000D01*
X159101000Y-109770000D01*
X159101000Y-109768000D01*
X159100000Y-109765000D01*
X159100000Y-109555000D01*
X159101000Y-109552000D01*
X159101000Y-109550000D01*
X159102000Y-109547000D01*
X159102000Y-109545000D01*
X159103000Y-109542000D01*
X159104000Y-109540000D01*
X159105000Y-109537000D01*
X159107000Y-109535000D01*
X159108000Y-109533000D01*
X159110000Y-109531000D01*
X159111000Y-109529000D01*
X159119000Y-109521000D01*
X159121000Y-109520000D01*
X159123000Y-109518000D01*
X159125000Y-109517000D01*
X159127000Y-109515000D01*
X159130000Y-109514000D01*
X159132000Y-109513000D01*
X159135000Y-109512000D01*
X159137000Y-109512000D01*
X159140000Y-109511000D01*
X159142000Y-109511000D01*
X159145000Y-109510000D01*
X159355000Y-109510000D01*
X159358000Y-109511000D01*
G37*
X159358000Y-109511000D02*
X159360000Y-109511000D01*
X159363000Y-109512000D01*
X159365000Y-109512000D01*
X159368000Y-109513000D01*
X159370000Y-109514000D01*
X159373000Y-109515000D01*
X159375000Y-109517000D01*
X159377000Y-109518000D01*
X159379000Y-109520000D01*
X159381000Y-109521000D01*
X159389000Y-109529000D01*
X159390000Y-109531000D01*
X159392000Y-109533000D01*
X159393000Y-109535000D01*
X159395000Y-109537000D01*
X159396000Y-109540000D01*
X159397000Y-109542000D01*
X159398000Y-109545000D01*
X159398000Y-109547000D01*
X159399000Y-109550000D01*
X159399000Y-109552000D01*
X159400000Y-109555000D01*
X159400000Y-109765000D01*
X159399000Y-109768000D01*
X159399000Y-109770000D01*
X159398000Y-109773000D01*
X159398000Y-109775000D01*
X159397000Y-109778000D01*
X159396000Y-109780000D01*
X159395000Y-109783000D01*
X159393000Y-109785000D01*
X159392000Y-109787000D01*
X159390000Y-109789000D01*
X159389000Y-109791000D01*
X159381000Y-109799000D01*
X159379000Y-109800000D01*
X159377000Y-109802000D01*
X159375000Y-109803000D01*
X159373000Y-109805000D01*
X159370000Y-109806000D01*
X159368000Y-109807000D01*
X159365000Y-109808000D01*
X159363000Y-109808000D01*
X159360000Y-109809000D01*
X159358000Y-109809000D01*
X159355000Y-109810000D01*
X159145000Y-109810000D01*
X159142000Y-109809000D01*
X159140000Y-109809000D01*
X159137000Y-109808000D01*
X159135000Y-109808000D01*
X159132000Y-109807000D01*
X159130000Y-109806000D01*
X159127000Y-109805000D01*
X159125000Y-109803000D01*
X159123000Y-109802000D01*
X159121000Y-109800000D01*
X159119000Y-109799000D01*
X159111000Y-109791000D01*
X159110000Y-109789000D01*
X159108000Y-109787000D01*
X159107000Y-109785000D01*
X159105000Y-109783000D01*
X159104000Y-109780000D01*
X159103000Y-109778000D01*
X159102000Y-109775000D01*
X159102000Y-109773000D01*
X159101000Y-109770000D01*
X159101000Y-109768000D01*
X159100000Y-109765000D01*
X159100000Y-109555000D01*
X159101000Y-109552000D01*
X159101000Y-109550000D01*
X159102000Y-109547000D01*
X159102000Y-109545000D01*
X159103000Y-109542000D01*
X159104000Y-109540000D01*
X159105000Y-109537000D01*
X159107000Y-109535000D01*
X159108000Y-109533000D01*
X159110000Y-109531000D01*
X159111000Y-109529000D01*
X159119000Y-109521000D01*
X159121000Y-109520000D01*
X159123000Y-109518000D01*
X159125000Y-109517000D01*
X159127000Y-109515000D01*
X159130000Y-109514000D01*
X159132000Y-109513000D01*
X159135000Y-109512000D01*
X159137000Y-109512000D01*
X159140000Y-109511000D01*
X159142000Y-109511000D01*
X159145000Y-109510000D01*
X159355000Y-109510000D01*
X159358000Y-109511000D01*
D14*
X135200000Y-109300000D03*
X132400000Y-109300000D03*
D15*
X153225000Y-104900000D03*
X154775000Y-104900000D03*
D16*
X146810000Y-103500000D03*
X145790000Y-103500000D03*
D17*
X145820000Y-106800000D03*
X146780000Y-106800000D03*
D18*
X167205000Y-93280000D03*
X167205000Y-92880000D03*
D19*
X167080000Y-92255000D03*
X166680000Y-92255000D03*
X166280000Y-92255000D03*
X165880000Y-92255000D03*
D18*
X165755000Y-92880000D03*
X165755000Y-93280000D03*
D19*
X165880000Y-93905000D03*
X166280000Y-93905000D03*
X166680000Y-93905000D03*
X167080000Y-93905000D03*
D17*
X135520000Y-111600000D03*
X136480000Y-111600000D03*
D20*
X167230000Y-95500000D03*
X166270000Y-95500000D03*
D21*
X163000000Y-113750000D03*
X163000000Y-106250000D03*
D22*
X163865000Y-107250000D03*
X163865000Y-108750000D03*
X163865000Y-109250000D03*
X163865000Y-109750000D03*
X163865000Y-110250000D03*
X163865000Y-110750000D03*
X163865000Y-111250000D03*
X163865000Y-112750000D03*
X162135000Y-112750000D03*
X162135000Y-111250000D03*
X162135000Y-110750000D03*
X162135000Y-110250000D03*
X162135000Y-109750000D03*
X162135000Y-109250000D03*
X162135000Y-108750000D03*
X162135000Y-107250000D03*
D23*
X165150000Y-107600000D03*
X160850000Y-107600000D03*
X165150000Y-112400000D03*
X160850000Y-112400000D03*
D24*
X164850000Y-86550000D03*
D25*
X165850000Y-86550000D03*
D26*
X148700000Y-106820000D03*
X148700000Y-107780000D03*
D27*
X149600000Y-99300000D03*
X149600000Y-97750000D03*
D28*
X139337500Y-110350000D03*
X139337500Y-109400000D03*
X139337500Y-108450000D03*
X137062500Y-108450000D03*
X137062500Y-109400000D03*
X137062500Y-110350000D03*
D16*
X150710000Y-106800000D03*
X149690000Y-106800000D03*
D29*
X168000000Y-109300000D03*
X168000000Y-105300000D03*
D30*
X133050000Y-102540000D03*
X129150000Y-102540000D03*
X133050000Y-101270000D03*
X129150000Y-101270000D03*
X133050000Y-100000000D03*
X129150000Y-100000000D03*
X133050000Y-98730000D03*
X129150000Y-98730000D03*
X133050000Y-97460000D03*
X129150000Y-97460000D03*
D31*
X139850000Y-106700000D03*
X137950000Y-106700000D03*
D32*
X153300000Y-102690000D03*
X153300000Y-103710000D03*
X164440000Y-94420000D03*
X164440000Y-95440000D03*
D33*
X157635000Y-108500000D03*
X156365000Y-111500000D03*
D34*
X132400000Y-105310000D03*
X132400000Y-104290000D03*
D32*
X164970000Y-89250000D03*
X164970000Y-90270000D03*
D35*
X145790000Y-104500000D03*
X146810000Y-104500000D03*
D36*
X129162500Y-104800000D03*
X131037500Y-104800000D03*
D34*
X168370000Y-90260000D03*
X168370000Y-89240000D03*
D32*
X167370000Y-89230000D03*
X167370000Y-90250000D03*
D34*
X166000000Y-90270000D03*
X166000000Y-89250000D03*
D35*
X145790000Y-105800000D03*
X146810000Y-105800000D03*
D30*
X170850000Y-102540000D03*
X166950000Y-102540000D03*
X170850000Y-101270000D03*
X166950000Y-101270000D03*
X170850000Y-100000000D03*
X166950000Y-100000000D03*
X170850000Y-98730000D03*
X166950000Y-98730000D03*
X170850000Y-97460000D03*
X166950000Y-97460000D03*
D37*
X146450000Y-119800000D03*
X148350000Y-119800000D03*
D26*
X147700000Y-105820000D03*
X147700000Y-106780000D03*
D33*
X147460000Y-90000000D03*
X148730000Y-87000000D03*
X150000000Y-90000000D03*
X151270000Y-87000000D03*
X152540000Y-90000000D03*
D20*
X150680000Y-107800000D03*
X149720000Y-107800000D03*
D37*
X134350000Y-106700000D03*
X136250000Y-106700000D03*
X134350000Y-104700000D03*
X136250000Y-104700000D03*
D38*
X161700000Y-115600000D03*
D39*
X159700000Y-115600000D03*
D40*
X145000000Y-82525000D03*
D41*
X147500000Y-82525000D03*
X150000000Y-82525000D03*
X152500000Y-82525000D03*
X155000000Y-82525000D03*
D42*
X150600000Y-115500000D03*
D43*
X143400000Y-115500000D03*
D44*
X137817767Y-85732233D03*
X134282233Y-89267767D03*
M02*
