%TF.GenerationSoftware,KiCad,Pcbnew,(6.0.9)*%
%TF.CreationDate,2023-02-03T11:40:43+01:00*%
%TF.ProjectId,BatteryManagementBoard,42617474-6572-4794-9d61-6e6167656d65,rev?*%
%TF.SameCoordinates,Original*%
%TF.FileFunction,Copper,L6,Bot*%
%TF.FilePolarity,Positive*%
%FSLAX46Y46*%
G04 Gerber Fmt 4.6, Leading zero omitted, Abs format (unit mm)*
G04 Created by KiCad (PCBNEW (6.0.9)) date 2023-02-03 11:40:43*
%MOMM*%
%LPD*%
G01*
G04 APERTURE LIST*
G04 Aperture macros list*
%AMRoundRect*
0 Rectangle with rounded corners*
0 $1 Rounding radius*
0 $2 $3 $4 $5 $6 $7 $8 $9 X,Y pos of 4 corners*
0 Add a 4 corners polygon primitive as box body*
4,1,4,$2,$3,$4,$5,$6,$7,$8,$9,$2,$3,0*
0 Add four circle primitives for the rounded corners*
1,1,$1+$1,$2,$3*
1,1,$1+$1,$4,$5*
1,1,$1+$1,$6,$7*
1,1,$1+$1,$8,$9*
0 Add four rect primitives between the rounded corners*
20,1,$1+$1,$2,$3,$4,$5,0*
20,1,$1+$1,$4,$5,$6,$7,0*
20,1,$1+$1,$6,$7,$8,$9,0*
20,1,$1+$1,$8,$9,$2,$3,0*%
G04 Aperture macros list end*
%TA.AperFunction,ComponentPad*%
%ADD10O,1.100000X2.200000*%
%TD*%
%TA.AperFunction,ComponentPad*%
%ADD11R,0.850000X0.850000*%
%TD*%
%TA.AperFunction,ComponentPad*%
%ADD12O,0.850000X0.850000*%
%TD*%
%TA.AperFunction,SMDPad,CuDef*%
%ADD13RoundRect,0.135000X-0.185000X0.135000X-0.185000X-0.135000X0.185000X-0.135000X0.185000X0.135000X0*%
%TD*%
%TA.AperFunction,SMDPad,CuDef*%
%ADD14RoundRect,0.135000X-0.135000X-0.185000X0.135000X-0.185000X0.135000X0.185000X-0.135000X0.185000X0*%
%TD*%
%TA.AperFunction,ComponentPad*%
%ADD15R,1.350000X1.350000*%
%TD*%
%TA.AperFunction,ComponentPad*%
%ADD16O,1.350000X1.350000*%
%TD*%
%TA.AperFunction,SMDPad,CuDef*%
%ADD17RoundRect,0.250000X-0.250000X-0.475000X0.250000X-0.475000X0.250000X0.475000X-0.250000X0.475000X0*%
%TD*%
%TA.AperFunction,SMDPad,CuDef*%
%ADD18RoundRect,0.250000X0.250000X0.475000X-0.250000X0.475000X-0.250000X-0.475000X0.250000X-0.475000X0*%
%TD*%
%TA.AperFunction,SMDPad,CuDef*%
%ADD19R,0.430000X0.380000*%
%TD*%
%TA.AperFunction,SMDPad,CuDef*%
%ADD20R,0.300000X0.400000*%
%TD*%
%TA.AperFunction,SMDPad,CuDef*%
%ADD21R,1.980000X2.450000*%
%TD*%
%TA.AperFunction,SMDPad,CuDef*%
%ADD22R,0.500000X0.350000*%
%TD*%
%TA.AperFunction,SMDPad,CuDef*%
%ADD23RoundRect,0.140000X-0.170000X0.140000X-0.170000X-0.140000X0.170000X-0.140000X0.170000X0.140000X0*%
%TD*%
%TA.AperFunction,SMDPad,CuDef*%
%ADD24RoundRect,0.135000X0.185000X-0.135000X0.185000X0.135000X-0.185000X0.135000X-0.185000X-0.135000X0*%
%TD*%
%TA.AperFunction,SMDPad,CuDef*%
%ADD25RoundRect,0.225000X0.225000X0.250000X-0.225000X0.250000X-0.225000X-0.250000X0.225000X-0.250000X0*%
%TD*%
%TA.AperFunction,SMDPad,CuDef*%
%ADD26RoundRect,0.050000X0.337500X0.050000X-0.337500X0.050000X-0.337500X-0.050000X0.337500X-0.050000X0*%
%TD*%
%TA.AperFunction,SMDPad,CuDef*%
%ADD27RoundRect,0.050000X0.050000X0.337500X-0.050000X0.337500X-0.050000X-0.337500X0.050000X-0.337500X0*%
%TD*%
%TA.AperFunction,SMDPad,CuDef*%
%ADD28R,2.800000X2.800000*%
%TD*%
%TA.AperFunction,ComponentPad*%
%ADD29RoundRect,0.250000X-0.600000X-0.725000X0.600000X-0.725000X0.600000X0.725000X-0.600000X0.725000X0*%
%TD*%
%TA.AperFunction,ComponentPad*%
%ADD30O,1.700000X1.950000*%
%TD*%
%TA.AperFunction,SMDPad,CuDef*%
%ADD31R,3.250000X5.000000*%
%TD*%
%TA.AperFunction,SMDPad,CuDef*%
%ADD32RoundRect,0.225000X0.250000X-0.225000X0.250000X0.225000X-0.250000X0.225000X-0.250000X-0.225000X0*%
%TD*%
%TA.AperFunction,SMDPad,CuDef*%
%ADD33R,0.380000X0.430000*%
%TD*%
%TA.AperFunction,SMDPad,CuDef*%
%ADD34R,0.400000X0.300000*%
%TD*%
%TA.AperFunction,SMDPad,CuDef*%
%ADD35R,2.450000X1.980000*%
%TD*%
%TA.AperFunction,SMDPad,CuDef*%
%ADD36R,0.350000X0.500000*%
%TD*%
%TA.AperFunction,SMDPad,CuDef*%
%ADD37RoundRect,0.140000X0.140000X0.170000X-0.140000X0.170000X-0.140000X-0.170000X0.140000X-0.170000X0*%
%TD*%
%TA.AperFunction,SMDPad,CuDef*%
%ADD38RoundRect,0.135000X0.135000X0.185000X-0.135000X0.185000X-0.135000X-0.185000X0.135000X-0.185000X0*%
%TD*%
%TA.AperFunction,SMDPad,CuDef*%
%ADD39RoundRect,0.250000X0.625000X-0.312500X0.625000X0.312500X-0.625000X0.312500X-0.625000X-0.312500X0*%
%TD*%
%TA.AperFunction,SMDPad,CuDef*%
%ADD40RoundRect,0.140000X0.170000X-0.140000X0.170000X0.140000X-0.170000X0.140000X-0.170000X-0.140000X0*%
%TD*%
%TA.AperFunction,SMDPad,CuDef*%
%ADD41RoundRect,0.218750X0.218750X0.256250X-0.218750X0.256250X-0.218750X-0.256250X0.218750X-0.256250X0*%
%TD*%
%TA.AperFunction,ComponentPad*%
%ADD42C,6.500000*%
%TD*%
%TA.AperFunction,ComponentPad*%
%ADD43R,6.300000X6.000000*%
%TD*%
%TA.AperFunction,SMDPad,CuDef*%
%ADD44RoundRect,0.140000X-0.140000X-0.170000X0.140000X-0.170000X0.140000X0.170000X-0.140000X0.170000X0*%
%TD*%
%TA.AperFunction,SMDPad,CuDef*%
%ADD45RoundRect,0.250000X-0.312500X-0.625000X0.312500X-0.625000X0.312500X0.625000X-0.312500X0.625000X0*%
%TD*%
%TA.AperFunction,ComponentPad*%
%ADD46C,4.000000*%
%TD*%
%TA.AperFunction,SMDPad,CuDef*%
%ADD47RoundRect,0.250000X1.075000X-0.375000X1.075000X0.375000X-1.075000X0.375000X-1.075000X-0.375000X0*%
%TD*%
%TA.AperFunction,SMDPad,CuDef*%
%ADD48RoundRect,0.150000X-0.512500X-0.150000X0.512500X-0.150000X0.512500X0.150000X-0.512500X0.150000X0*%
%TD*%
%TA.AperFunction,SMDPad,CuDef*%
%ADD49RoundRect,0.200000X0.200000X0.275000X-0.200000X0.275000X-0.200000X-0.275000X0.200000X-0.275000X0*%
%TD*%
%TA.AperFunction,ViaPad*%
%ADD50C,0.450000*%
%TD*%
%TA.AperFunction,ViaPad*%
%ADD51C,0.800000*%
%TD*%
%TA.AperFunction,ViaPad*%
%ADD52C,0.500000*%
%TD*%
%TA.AperFunction,ViaPad*%
%ADD53C,0.700000*%
%TD*%
%TA.AperFunction,Conductor*%
%ADD54C,0.200000*%
%TD*%
%TA.AperFunction,Conductor*%
%ADD55C,0.500000*%
%TD*%
%TA.AperFunction,Conductor*%
%ADD56C,0.300000*%
%TD*%
%TA.AperFunction,Conductor*%
%ADD57C,1.000000*%
%TD*%
G04 APERTURE END LIST*
D10*
X165150000Y-107600000D03*
X160850000Y-107600000D03*
X165150000Y-112400000D03*
X160850000Y-112400000D03*
D11*
X164850000Y-86550000D03*
D12*
X165850000Y-86550000D03*
D13*
X129700000Y-100190000D03*
X129700000Y-101210000D03*
D14*
X165720000Y-95710000D03*
X166740000Y-95710000D03*
D15*
X161700000Y-115600000D03*
D16*
X159700000Y-115600000D03*
D17*
X162050000Y-100000000D03*
X163950000Y-100000000D03*
D14*
X157240000Y-98000000D03*
X158260000Y-98000000D03*
D18*
X133250000Y-104300000D03*
X131350000Y-104300000D03*
D19*
X159610000Y-86850000D03*
X159610000Y-89650000D03*
D20*
X158110000Y-87275000D03*
X158110000Y-89225000D03*
X158110000Y-87925000D03*
X158110000Y-88575000D03*
D21*
X159250000Y-88250000D03*
D22*
X161010000Y-89225000D03*
X161010000Y-88575000D03*
X161010000Y-87275000D03*
X161010000Y-87925000D03*
D23*
X150800000Y-106720000D03*
X150800000Y-107680000D03*
D17*
X162050000Y-104000000D03*
X163950000Y-104000000D03*
D18*
X142450000Y-105000000D03*
X140550000Y-105000000D03*
D20*
X139000000Y-96975000D03*
X139000000Y-95025000D03*
X139000000Y-95675000D03*
D19*
X140500000Y-97400000D03*
D21*
X140140000Y-96000000D03*
D19*
X140500000Y-94600000D03*
D20*
X139000000Y-96325000D03*
D22*
X141900000Y-96975000D03*
X141900000Y-95675000D03*
X141900000Y-95025000D03*
X141900000Y-96325000D03*
D18*
X157950000Y-102500000D03*
X156050000Y-102500000D03*
D14*
X166690000Y-111300000D03*
X167710000Y-111300000D03*
D24*
X151800000Y-107710000D03*
X151800000Y-106690000D03*
D13*
X166300000Y-98990000D03*
X166300000Y-100010000D03*
D17*
X131150000Y-109800000D03*
X133050000Y-109800000D03*
D25*
X141175000Y-110500000D03*
X139625000Y-110500000D03*
D17*
X162050000Y-98000000D03*
X163950000Y-98000000D03*
X135850000Y-103000000D03*
X137750000Y-103000000D03*
D26*
X151987500Y-101350000D03*
X151987500Y-101750000D03*
X151987500Y-102150000D03*
X151987500Y-102550000D03*
X151987500Y-102950000D03*
X151987500Y-103350000D03*
X151987500Y-103750000D03*
X151987500Y-104150000D03*
D27*
X151400000Y-104737500D03*
X151000000Y-104737500D03*
X150600000Y-104737500D03*
X150200000Y-104737500D03*
X149800000Y-104737500D03*
X149400000Y-104737500D03*
X149000000Y-104737500D03*
X148600000Y-104737500D03*
D26*
X148012500Y-104150000D03*
X148012500Y-103750000D03*
X148012500Y-103350000D03*
X148012500Y-102950000D03*
X148012500Y-102550000D03*
X148012500Y-102150000D03*
X148012500Y-101750000D03*
X148012500Y-101350000D03*
D27*
X148600000Y-100762500D03*
X149000000Y-100762500D03*
X149400000Y-100762500D03*
X149800000Y-100762500D03*
X150200000Y-100762500D03*
X150600000Y-100762500D03*
X151000000Y-100762500D03*
X151400000Y-100762500D03*
D28*
X150000000Y-102750000D03*
D29*
X145000000Y-82525000D03*
D30*
X147500000Y-82525000D03*
X150000000Y-82525000D03*
X152500000Y-82525000D03*
X155000000Y-82525000D03*
D17*
X162050000Y-102000000D03*
X163950000Y-102000000D03*
D14*
X166690000Y-110100000D03*
X167710000Y-110100000D03*
D31*
X155625000Y-92000000D03*
X144375000Y-92000000D03*
D18*
X142450000Y-99000000D03*
X140550000Y-99000000D03*
X142450000Y-103000000D03*
X140550000Y-103000000D03*
D32*
X153600000Y-100575000D03*
X153600000Y-99025000D03*
D33*
X138100000Y-107890000D03*
D34*
X140475000Y-109390000D03*
X138525000Y-109390000D03*
D33*
X140900000Y-107890000D03*
D34*
X139175000Y-109390000D03*
X139825000Y-109390000D03*
D35*
X139500000Y-108250000D03*
D36*
X140475000Y-106490000D03*
X139175000Y-106490000D03*
X138525000Y-106490000D03*
X139825000Y-106490000D03*
D37*
X157230000Y-99000000D03*
X156270000Y-99000000D03*
D38*
X154260000Y-107250000D03*
X153240000Y-107250000D03*
D13*
X145800000Y-106790000D03*
X145800000Y-107810000D03*
D39*
X160000000Y-97962500D03*
X160000000Y-95037500D03*
D40*
X157000000Y-96480000D03*
X157000000Y-95520000D03*
D41*
X161787500Y-105750000D03*
X160212500Y-105750000D03*
D42*
X150600000Y-115500000D03*
D43*
X143400000Y-115500000D03*
D44*
X161820000Y-93200000D03*
X162780000Y-93200000D03*
D18*
X157950000Y-104500000D03*
X156050000Y-104500000D03*
D17*
X135850000Y-101000000D03*
X137750000Y-101000000D03*
D44*
X147020000Y-99250000D03*
X147980000Y-99250000D03*
D40*
X132400000Y-101180000D03*
X132400000Y-100220000D03*
D24*
X158250000Y-96510000D03*
X158250000Y-95490000D03*
D45*
X142837500Y-109500000D03*
X145762500Y-109500000D03*
D34*
X158775000Y-93640000D03*
D33*
X161150000Y-92140000D03*
D34*
X160725000Y-93640000D03*
X160075000Y-93640000D03*
X159425000Y-93640000D03*
D33*
X158350000Y-92140000D03*
D35*
X159750000Y-92500000D03*
D36*
X160725000Y-90740000D03*
X158775000Y-90740000D03*
X160075000Y-90740000D03*
X159425000Y-90740000D03*
D46*
X137817767Y-85732233D03*
X134282233Y-89267767D03*
D47*
X136000000Y-108500000D03*
X136000000Y-105700000D03*
D37*
X151980000Y-99200000D03*
X151020000Y-99200000D03*
D48*
X131212500Y-108012500D03*
X131212500Y-107062500D03*
X131212500Y-106112500D03*
X133487500Y-106112500D03*
X133487500Y-108012500D03*
D21*
X140860000Y-92250000D03*
D19*
X140500000Y-93650000D03*
D20*
X142000000Y-91275000D03*
D19*
X140500000Y-90850000D03*
D20*
X142000000Y-93225000D03*
X142000000Y-92575000D03*
X142000000Y-91925000D03*
D22*
X139100000Y-91275000D03*
X139100000Y-91925000D03*
X139100000Y-93225000D03*
X139100000Y-92575000D03*
D17*
X135850000Y-97000000D03*
X137750000Y-97000000D03*
D38*
X155260000Y-108250000D03*
X154240000Y-108250000D03*
D49*
X158025000Y-106300000D03*
X156375000Y-106300000D03*
D18*
X157950000Y-100500000D03*
X156050000Y-100500000D03*
D44*
X143840000Y-107800000D03*
X144800000Y-107800000D03*
D13*
X128600000Y-100190000D03*
X128600000Y-101210000D03*
D18*
X142450000Y-101000000D03*
X140550000Y-101000000D03*
D44*
X161820000Y-94200000D03*
X162780000Y-94200000D03*
D17*
X135850000Y-99000000D03*
X137750000Y-99000000D03*
D13*
X142900000Y-106890000D03*
X142900000Y-107910000D03*
D50*
X166700000Y-91340000D03*
X155000000Y-86000000D03*
X164700000Y-101600000D03*
X163800000Y-113200000D03*
X162100000Y-112300000D03*
X131000000Y-93000000D03*
X145300000Y-104600000D03*
X165690000Y-95200000D03*
X156998944Y-80997933D03*
X152600000Y-92000000D03*
X163300000Y-93200000D03*
X137100000Y-107300000D03*
X149000000Y-94000000D03*
X132000000Y-94100000D03*
X144860000Y-101500000D03*
X150996922Y-79994855D03*
X147890000Y-100230000D03*
X158991799Y-82990766D03*
X137993844Y-89992789D03*
X143400000Y-105700000D03*
X130700000Y-97400000D03*
X142500000Y-100000000D03*
X166800000Y-105200000D03*
X168460000Y-94160000D03*
X161250000Y-96500000D03*
X137000000Y-83000000D03*
X130500000Y-103600000D03*
X145000000Y-121000000D03*
X144300000Y-109500000D03*
X148995192Y-91994518D03*
X160998966Y-84987667D03*
X162100000Y-106800000D03*
X167700000Y-111800000D03*
X170000000Y-108250000D03*
X145000000Y-96750000D03*
X139600000Y-111500000D03*
X157000000Y-118000000D03*
X164250000Y-116250000D03*
X149000000Y-97700000D03*
X163000000Y-86000000D03*
X156400000Y-95600000D03*
X160998966Y-82989733D03*
X161710000Y-89960000D03*
X135100000Y-101500000D03*
X138400000Y-93300000D03*
X134750000Y-94250000D03*
X147000000Y-96000000D03*
X143000000Y-86000000D03*
X146992833Y-79994855D03*
X169200000Y-105300000D03*
X155800000Y-108200000D03*
X134500000Y-100000000D03*
D51*
X149200000Y-103700000D03*
D50*
X131000000Y-95000000D03*
X143400000Y-103300000D03*
X130500000Y-100100000D03*
X155000000Y-117000000D03*
X157000000Y-117000000D03*
X159000000Y-117000000D03*
X162996900Y-86997933D03*
X138400000Y-92000000D03*
X164410000Y-91980000D03*
X155300000Y-101200000D03*
X164700000Y-98100000D03*
X162999999Y-90998966D03*
X151800000Y-108500000D03*
X164000000Y-99000000D03*
X164700000Y-98900000D03*
X147994855Y-120991778D03*
X161600000Y-87300000D03*
X152440000Y-100200000D03*
X169200000Y-104400000D03*
X154992789Y-79994855D03*
X147330000Y-98410000D03*
X157000000Y-115000000D03*
X133879122Y-109920878D03*
X163800000Y-112300000D03*
X138400000Y-92700000D03*
X129200000Y-106000000D03*
X152994855Y-79994855D03*
X156000000Y-103500000D03*
X145000000Y-86000000D03*
X147700000Y-107400000D03*
X152994855Y-93994855D03*
X143400000Y-99700000D03*
X148998988Y-79994855D03*
X149600000Y-97200000D03*
X129000000Y-95000000D03*
X155300000Y-102000000D03*
X135800000Y-100000000D03*
X141000000Y-80000000D03*
X152000000Y-98040000D03*
X133000000Y-93000000D03*
X151000000Y-94000000D03*
X155300000Y-104600000D03*
X164700000Y-100700000D03*
X135100000Y-98700000D03*
X142994855Y-81994855D03*
X155300000Y-102800000D03*
X152750000Y-109000000D03*
X143400000Y-98800000D03*
X135100000Y-103100000D03*
X155001033Y-110940401D03*
X164700000Y-102500000D03*
X162800000Y-92500000D03*
X131624500Y-100100000D03*
D51*
X150900000Y-103700000D03*
D50*
X159500000Y-96500000D03*
X148400000Y-108500000D03*
X163300000Y-94200000D03*
X154000000Y-121000000D03*
X150200000Y-97700000D03*
X156650878Y-97209122D03*
X143000000Y-84000000D03*
X143400000Y-104900000D03*
X130200000Y-106800000D03*
X155300000Y-103700000D03*
X144994899Y-79994855D03*
X135400000Y-104300000D03*
X162100000Y-113200000D03*
X154988700Y-112999999D03*
X131000000Y-91000000D03*
X135500000Y-106900000D03*
X142500000Y-102000000D03*
X168891670Y-99091392D03*
X161000000Y-81000000D03*
X142500000Y-104000000D03*
X156996900Y-85987667D03*
X135800000Y-98000000D03*
X168700000Y-100000000D03*
X138400000Y-91300000D03*
X162999999Y-88996900D03*
X155300000Y-100300000D03*
X164700000Y-103300000D03*
X133130026Y-110948504D03*
X141000000Y-88000000D03*
X162100000Y-107700000D03*
X146800000Y-107400000D03*
X167370000Y-88560000D03*
X157750000Y-111750000D03*
X151250000Y-110250000D03*
X152000000Y-121000000D03*
X155700000Y-99000000D03*
X166800000Y-104400000D03*
X149000000Y-96000000D03*
X135100000Y-100600000D03*
X156000000Y-101500000D03*
X163850000Y-107650000D03*
X162800000Y-94800000D03*
X143400000Y-101500000D03*
X155000000Y-115000000D03*
X163000000Y-96500000D03*
X147000000Y-94000000D03*
X135100000Y-96700000D03*
X169400000Y-100000000D03*
X164000000Y-101000000D03*
X153000000Y-86000000D03*
X167000000Y-96800000D03*
X149991778Y-120991778D03*
X162996900Y-84987667D03*
X138996922Y-87994855D03*
X161600000Y-88500000D03*
X135000000Y-85000000D03*
X168420000Y-91790000D03*
X150800000Y-108534500D03*
X164700000Y-104100000D03*
X151000000Y-92000000D03*
X143000000Y-88000000D03*
X133900000Y-110800000D03*
X152750000Y-110250000D03*
X158991799Y-80992833D03*
X155000000Y-84000000D03*
X147000000Y-92000000D03*
X147900000Y-111700000D03*
X141000000Y-84000000D03*
X142996965Y-79994855D03*
X143400000Y-100600000D03*
X139110000Y-90010000D03*
X151000000Y-96000000D03*
X152540000Y-88040000D03*
D51*
X149200000Y-101900000D03*
D50*
X134000000Y-86000000D03*
X152900000Y-99500000D03*
X160200000Y-110000000D03*
X153999999Y-87997933D03*
X164700000Y-99800000D03*
X143400000Y-102400000D03*
X139100000Y-93800000D03*
X171500000Y-95500000D03*
X159500000Y-113500000D03*
X162999999Y-82990766D03*
X161600000Y-87900000D03*
X143400000Y-104100000D03*
X141000000Y-86000000D03*
X150124500Y-108500000D03*
X135800000Y-102000000D03*
X135100000Y-99700000D03*
X158988700Y-84987667D03*
X164960000Y-88510000D03*
X159500000Y-112000000D03*
X141000000Y-82000000D03*
X149500000Y-110250000D03*
X165750000Y-96210000D03*
X154250000Y-96000000D03*
X138989733Y-81999999D03*
X156996900Y-83989733D03*
D51*
X150900000Y-101900000D03*
D50*
X146250000Y-98000000D03*
X164000000Y-103000000D03*
X163865000Y-106865000D03*
X144750000Y-100000000D03*
X134600000Y-97300000D03*
X170000000Y-91750000D03*
X147100000Y-109000000D03*
X135100000Y-102300000D03*
X145000000Y-88000000D03*
X135100000Y-97700000D03*
X154000000Y-101800000D03*
X156700000Y-98000000D03*
X156400000Y-96500000D03*
X153191973Y-101429983D03*
X138300000Y-104600000D03*
X139200000Y-104600000D03*
X152825000Y-100775000D03*
X152600000Y-106000000D03*
X153206233Y-104193767D03*
X152700000Y-107200000D03*
X148500000Y-106200000D03*
X147000000Y-105300000D03*
X149600000Y-99900000D03*
X147100000Y-108300000D03*
X141514502Y-107700000D03*
X131600000Y-98700000D03*
X131700000Y-101300000D03*
X151300000Y-105600000D03*
X132760000Y-102540000D03*
X133600000Y-102500000D03*
D52*
X168700000Y-102600000D03*
D50*
X129050000Y-102540000D03*
X169180000Y-94410000D03*
D53*
X165715688Y-106107186D03*
X165850000Y-105250000D03*
D50*
X168160000Y-93490000D03*
X162994502Y-109275500D03*
X161399832Y-110299832D03*
X164540210Y-109750000D03*
X168220000Y-92550000D03*
X162950000Y-110750000D03*
X154200000Y-107700000D03*
X154044500Y-103800000D03*
X169600000Y-101300000D03*
X164800000Y-92520000D03*
X150500000Y-105800000D03*
X149703061Y-105798166D03*
X168570000Y-100775500D03*
X156500000Y-108200000D03*
X164780000Y-93450000D03*
X169410000Y-98700000D03*
X165120878Y-91864500D03*
X154600000Y-102200000D03*
X165475500Y-98600000D03*
X154600000Y-103000000D03*
X155200000Y-106874500D03*
X130500000Y-101300000D03*
X147900000Y-110900000D03*
X149145936Y-106132031D03*
X130400000Y-98700000D03*
X146800000Y-104000000D03*
X140900000Y-106500000D03*
X145543767Y-101856233D03*
X147400000Y-100800000D03*
X142600000Y-97000000D03*
X148200000Y-98400000D03*
X139100000Y-90700000D03*
X151200000Y-98000000D03*
X161000000Y-89900000D03*
X161600000Y-90700000D03*
X151174500Y-99950000D03*
X166700000Y-94840000D03*
X169530000Y-97500000D03*
X165110000Y-94420000D03*
X130100000Y-107900000D03*
X130100000Y-108800000D03*
D54*
X164280000Y-91340000D02*
X163840000Y-91780000D01*
X163840000Y-91780000D02*
X163840000Y-94560000D01*
X162050000Y-96350000D02*
X162050000Y-98000000D01*
X163840000Y-94560000D02*
X162050000Y-96350000D01*
X166700000Y-91340000D02*
X164280000Y-91340000D01*
D55*
X133758244Y-109800000D02*
X133879122Y-109920878D01*
X139625000Y-111475000D02*
X139600000Y-111500000D01*
D54*
X149400000Y-101700000D02*
X149200000Y-101900000D01*
D56*
X129700000Y-100190000D02*
X130410000Y-100190000D01*
D54*
X165720000Y-96180000D02*
X165750000Y-96210000D01*
X165720000Y-95230000D02*
X165690000Y-95200000D01*
D55*
X133050000Y-109950000D02*
X133900000Y-110800000D01*
D56*
X132400000Y-100220000D02*
X131744500Y-100220000D01*
X156480000Y-95520000D02*
X156400000Y-95600000D01*
D54*
X155750000Y-108250000D02*
X155800000Y-108200000D01*
X149400000Y-104737500D02*
X149400000Y-103350000D01*
D56*
X139100000Y-93800000D02*
X139100000Y-93225000D01*
D55*
X133050000Y-109800000D02*
X133050000Y-110868478D01*
X131350000Y-104300000D02*
X131200000Y-104300000D01*
X130462500Y-107062500D02*
X131212500Y-107062500D01*
D54*
X150800000Y-107680000D02*
X150800000Y-108534500D01*
X167710000Y-110100000D02*
X167710000Y-111300000D01*
D56*
X162780000Y-92520000D02*
X162800000Y-92500000D01*
D54*
X155260000Y-108250000D02*
X155750000Y-108250000D01*
X165720000Y-95710000D02*
X165720000Y-96180000D01*
D56*
X162780000Y-94200000D02*
X162780000Y-94780000D01*
X162780000Y-94200000D02*
X163300000Y-94200000D01*
D54*
X149400000Y-100762500D02*
X149400000Y-101700000D01*
D56*
X162780000Y-93200000D02*
X162780000Y-92520000D01*
X138400000Y-91600000D02*
X138700000Y-91900000D01*
X130410000Y-100190000D02*
X130500000Y-100100000D01*
X162780000Y-93200000D02*
X163300000Y-93200000D01*
D55*
X133050000Y-109800000D02*
X133758244Y-109800000D01*
D56*
X153375000Y-99025000D02*
X152900000Y-99500000D01*
X157000000Y-95520000D02*
X156480000Y-95520000D01*
X162780000Y-94780000D02*
X162800000Y-94800000D01*
D54*
X149400000Y-103350000D02*
X150000000Y-102750000D01*
D55*
X130200000Y-106800000D02*
X130462500Y-107062500D01*
D54*
X167710000Y-111300000D02*
X167710000Y-111790000D01*
D56*
X153600000Y-99025000D02*
X153375000Y-99025000D01*
X138400000Y-91300000D02*
X138400000Y-91600000D01*
D55*
X133050000Y-109800000D02*
X133050000Y-109950000D01*
D54*
X167710000Y-111790000D02*
X167700000Y-111800000D01*
D56*
X131744500Y-100220000D02*
X131624500Y-100100000D01*
D54*
X165720000Y-95710000D02*
X165720000Y-95230000D01*
D55*
X139625000Y-110500000D02*
X139625000Y-111475000D01*
D54*
X151800000Y-107710000D02*
X151800000Y-108500000D01*
D55*
X131200000Y-104300000D02*
X130500000Y-103600000D01*
X133050000Y-110868478D02*
X133130026Y-110948504D01*
D56*
X156270000Y-99000000D02*
X155700000Y-99000000D01*
D54*
X153650000Y-102150000D02*
X154000000Y-101800000D01*
X151987500Y-102150000D02*
X153650000Y-102150000D01*
D56*
X157240000Y-98000000D02*
X157240000Y-98990000D01*
D54*
X156700000Y-98000000D02*
X157240000Y-98000000D01*
D56*
X157240000Y-98990000D02*
X157230000Y-99000000D01*
D54*
X153191973Y-101429983D02*
X152871956Y-101750000D01*
X158240000Y-96500000D02*
X158250000Y-96510000D01*
X152871956Y-101750000D02*
X151987500Y-101750000D01*
X156400000Y-96500000D02*
X158240000Y-96500000D01*
D56*
X155625000Y-95625000D02*
X152100000Y-99150000D01*
D54*
X151583482Y-100283481D02*
X152100000Y-99766963D01*
X151400000Y-100762500D02*
X151400000Y-100466963D01*
D56*
X152100000Y-99150000D02*
X152100000Y-99700000D01*
X155625000Y-92000000D02*
X155625000Y-95625000D01*
D54*
X152100000Y-99766963D02*
X152100000Y-99700000D01*
X151400000Y-100466963D02*
X151583482Y-100283481D01*
X150600000Y-99620000D02*
X151020000Y-99200000D01*
X150600000Y-100762500D02*
X150600000Y-99620000D01*
D56*
X146100000Y-99100000D02*
X142700000Y-95700000D01*
D54*
X148012500Y-101750000D02*
X147050000Y-101750000D01*
D56*
X146870000Y-99100000D02*
X147020000Y-99250000D01*
X146100000Y-99100000D02*
X146870000Y-99100000D01*
D54*
X147050000Y-101750000D02*
X147000000Y-101700000D01*
D56*
X146100000Y-100800000D02*
X146100000Y-99100000D01*
X147000000Y-101700000D02*
X146100000Y-100800000D01*
D54*
X148600000Y-100762500D02*
X148600000Y-99870000D01*
X148600000Y-99870000D02*
X147980000Y-99250000D01*
D56*
X143700000Y-97700000D02*
X140500000Y-97700000D01*
D54*
X146600000Y-102100000D02*
X146650000Y-102150000D01*
X146650000Y-102150000D02*
X148012500Y-102150000D01*
D56*
X146600000Y-102100000D02*
X145500000Y-101000000D01*
X145500000Y-101000000D02*
X145500000Y-99500000D01*
X145500000Y-99500000D02*
X143700000Y-97700000D01*
D55*
X142900000Y-107910000D02*
X143730000Y-107910000D01*
X142900000Y-107910000D02*
X142900000Y-109437500D01*
X143730000Y-107910000D02*
X143840000Y-107800000D01*
X145790000Y-107800000D02*
X145800000Y-107810000D01*
X144800000Y-107800000D02*
X145790000Y-107800000D01*
D57*
X145762500Y-113137500D02*
X145762500Y-109500000D01*
X143400000Y-115500000D02*
X145762500Y-113137500D01*
D55*
X145800000Y-107810000D02*
X145800000Y-109462500D01*
X145800000Y-109462500D02*
X145762500Y-109500000D01*
D54*
X151987500Y-101350000D02*
X152250000Y-101350000D01*
X152825000Y-100775000D02*
X153600000Y-100775000D01*
D56*
X156375000Y-106300000D02*
X152900000Y-106300000D01*
D54*
X152250000Y-101350000D02*
X152825000Y-100775000D01*
D56*
X152900000Y-106300000D02*
X152600000Y-106000000D01*
D54*
X152762466Y-103750000D02*
X153206233Y-104193767D01*
X152700000Y-107200000D02*
X153190000Y-107200000D01*
X153190000Y-107200000D02*
X153240000Y-107250000D01*
X151987500Y-103750000D02*
X152762466Y-103750000D01*
X148600000Y-106100000D02*
X148500000Y-106200000D01*
X148600000Y-104737500D02*
X148600000Y-106100000D01*
X148012500Y-104150000D02*
X147550000Y-104150000D01*
X147550000Y-104150000D02*
X147100000Y-104600000D01*
X147000000Y-104700000D02*
X147000000Y-105300000D01*
X147100000Y-104600000D02*
X147000000Y-104700000D01*
X149800000Y-100100000D02*
X149600000Y-99900000D01*
X149800000Y-100762500D02*
X149800000Y-100100000D01*
X151987500Y-104150000D02*
X151987500Y-106502500D01*
X147700000Y-108300000D02*
X147100000Y-108300000D01*
X149280000Y-106720000D02*
X148000000Y-108000000D01*
X150800000Y-106720000D02*
X149280000Y-106720000D01*
X151987500Y-106502500D02*
X151800000Y-106690000D01*
X148000000Y-108000000D02*
X147700000Y-108300000D01*
X150830000Y-106690000D02*
X150800000Y-106720000D01*
X151800000Y-106690000D02*
X150830000Y-106690000D01*
D56*
X131820000Y-101180000D02*
X131700000Y-101300000D01*
D54*
X151300000Y-105600000D02*
X151400000Y-105500000D01*
X151400000Y-105500000D02*
X151400000Y-104737500D01*
D56*
X132400000Y-101180000D02*
X131820000Y-101180000D01*
D54*
X166300000Y-100200000D02*
X168700000Y-102600000D01*
D56*
X128600000Y-101210000D02*
X128600000Y-102090000D01*
D54*
X166300000Y-100010000D02*
X166300000Y-100200000D01*
D56*
X128600000Y-102090000D02*
X129050000Y-102540000D01*
D55*
X164470002Y-105250000D02*
X164710001Y-105489999D01*
X165610001Y-105489999D02*
X164710001Y-105489999D01*
X162287500Y-105250000D02*
X164470002Y-105250000D01*
X165098501Y-105489999D02*
X164710001Y-105489999D01*
X165850000Y-105250000D02*
X165610001Y-105489999D01*
X161787500Y-105750000D02*
X162287500Y-105250000D01*
X165715688Y-106107186D02*
X165098501Y-105489999D01*
D54*
X170300000Y-105100000D02*
X166690000Y-108710000D01*
X163045002Y-109225000D02*
X165815000Y-109225000D01*
X168160000Y-93490000D02*
X169540000Y-93490000D01*
X170300000Y-94250000D02*
X170300000Y-105100000D01*
X165815000Y-109225000D02*
X166690000Y-110100000D01*
X169540000Y-93490000D02*
X170300000Y-94250000D01*
X162994502Y-109275500D02*
X163045002Y-109225000D01*
X166690000Y-108710000D02*
X166690000Y-110100000D01*
X169580000Y-92550000D02*
X170900000Y-93870000D01*
X163000000Y-110800000D02*
X166190000Y-110800000D01*
X169000000Y-107200000D02*
X169000000Y-111350000D01*
X166190000Y-110800000D02*
X166690000Y-111300000D01*
X168220000Y-92550000D02*
X169580000Y-92550000D01*
X170900000Y-105300000D02*
X169000000Y-107200000D01*
X169000000Y-111350000D02*
X167950000Y-112400000D01*
X167950000Y-112400000D02*
X167200000Y-112400000D01*
X166690000Y-111890000D02*
X166690000Y-111300000D01*
X170900000Y-93870000D02*
X170900000Y-105300000D01*
X167200000Y-112400000D02*
X166690000Y-111890000D01*
X162950000Y-110750000D02*
X163000000Y-110800000D01*
X154240000Y-107740000D02*
X154200000Y-107700000D01*
X154044500Y-103800000D02*
X153594500Y-103350000D01*
X154240000Y-108250000D02*
X154240000Y-107740000D01*
X154260000Y-107640000D02*
X154200000Y-107700000D01*
X153594500Y-103350000D02*
X151987500Y-103350000D01*
X154260000Y-107250000D02*
X154260000Y-107640000D01*
X150200000Y-104737500D02*
X150200000Y-105500000D01*
X150200000Y-105500000D02*
X150500000Y-105800000D01*
X149800000Y-105701227D02*
X149703061Y-105798166D01*
X149800000Y-104737500D02*
X149800000Y-105701227D01*
X169005000Y-98295000D02*
X169410000Y-98700000D01*
X165354500Y-91864500D02*
X169005000Y-95515000D01*
X165120878Y-91864500D02*
X165354500Y-91864500D01*
X169005000Y-95515000D02*
X169005000Y-98295000D01*
X151987500Y-102550000D02*
X154250000Y-102550000D01*
X165865500Y-98990000D02*
X165475500Y-98600000D01*
X166300000Y-98990000D02*
X165865500Y-98990000D01*
X154250000Y-102550000D02*
X154600000Y-102200000D01*
X151987500Y-102950000D02*
X154550000Y-102950000D01*
D56*
X129700000Y-101210000D02*
X130410000Y-101210000D01*
D54*
X154550000Y-102950000D02*
X154600000Y-103000000D01*
D56*
X130410000Y-101210000D02*
X130500000Y-101300000D01*
X129700000Y-98700000D02*
X130400000Y-98700000D01*
D54*
X149000000Y-104737500D02*
X149000000Y-105986095D01*
D56*
X128600000Y-100190000D02*
X128600000Y-99800000D01*
D54*
X149000000Y-105986095D02*
X149145936Y-106132031D01*
D56*
X128600000Y-99800000D02*
X129700000Y-98700000D01*
D54*
X148012500Y-103750000D02*
X147050000Y-103750000D01*
X147050000Y-103750000D02*
X146800000Y-104000000D01*
X145800000Y-106790000D02*
X145590000Y-106790000D01*
X144700000Y-105900000D02*
X144700000Y-103900000D01*
X145250000Y-103350000D02*
X148012500Y-103350000D01*
X145590000Y-106790000D02*
X144700000Y-105900000D01*
X144700000Y-103900000D02*
X145250000Y-103350000D01*
X148012500Y-102950000D02*
X144950000Y-102950000D01*
X143210000Y-106890000D02*
X142900000Y-106890000D01*
X144300000Y-103600000D02*
X144300000Y-105800000D01*
X144950000Y-102950000D02*
X144300000Y-103600000D01*
X144300000Y-105800000D02*
X143210000Y-106890000D01*
X148012500Y-102550000D02*
X146237534Y-102550000D01*
X140890000Y-106490000D02*
X140900000Y-106500000D01*
X146237534Y-102550000D02*
X145543767Y-101856233D01*
X140475000Y-106490000D02*
X140890000Y-106490000D01*
X148012500Y-101350000D02*
X147750000Y-101350000D01*
X141900000Y-96975000D02*
X142575000Y-96975000D01*
X142575000Y-96975000D02*
X142600000Y-97000000D01*
X147750000Y-101350000D02*
X147400000Y-101000000D01*
X147400000Y-101000000D02*
X147400000Y-100800000D01*
X149000000Y-100200000D02*
X149000000Y-99200000D01*
X139100000Y-90700000D02*
X139100000Y-91275000D01*
X149000000Y-100762500D02*
X149000000Y-100200000D01*
X149000000Y-99200000D02*
X148200000Y-98400000D01*
X161000000Y-89900000D02*
X161000000Y-89235000D01*
X150200000Y-100086760D02*
X150200000Y-100762500D01*
X150200000Y-100086760D02*
X150200000Y-99000000D01*
X161000000Y-89235000D02*
X161010000Y-89225000D01*
X150200000Y-99000000D02*
X151200000Y-98000000D01*
X160765000Y-90700000D02*
X160725000Y-90740000D01*
X151174500Y-99950000D02*
X151000000Y-100124500D01*
X161600000Y-90700000D02*
X160765000Y-90700000D01*
X151000000Y-100124500D02*
X151000000Y-100762500D01*
X166700000Y-95670000D02*
X166740000Y-95710000D01*
X166700000Y-94840000D02*
X166700000Y-95670000D01*
X129900000Y-107900000D02*
X130100000Y-107900000D01*
X131212500Y-106112500D02*
X129887500Y-106112500D01*
X129500000Y-107500000D02*
X129900000Y-107900000D01*
X129887500Y-106112500D02*
X129500000Y-106500000D01*
X129500000Y-106500000D02*
X129500000Y-107500000D01*
%TA.AperFunction,Conductor*%
G36*
X164515677Y-97319685D02*
G01*
X164536319Y-97336319D01*
X164863681Y-97663681D01*
X164897166Y-97725004D01*
X164900000Y-97751362D01*
X164900000Y-104255106D01*
X164880315Y-104322145D01*
X164871259Y-104334489D01*
X164522715Y-104752742D01*
X164464676Y-104791641D01*
X164438332Y-104795162D01*
X164438481Y-104796510D01*
X164429275Y-104797526D01*
X164420008Y-104797162D01*
X164412924Y-104799040D01*
X164404564Y-104799500D01*
X163624000Y-104799500D01*
X163556961Y-104779815D01*
X163511206Y-104727011D01*
X163500000Y-104675500D01*
X163500000Y-97424000D01*
X163519685Y-97356961D01*
X163572489Y-97311206D01*
X163624000Y-97300000D01*
X164448638Y-97300000D01*
X164515677Y-97319685D01*
G37*
%TD.AperFunction*%
%TA.AperFunction,Conductor*%
G36*
X161843039Y-87019685D02*
G01*
X161888794Y-87072489D01*
X161900000Y-87124000D01*
X161900000Y-88676000D01*
X161880315Y-88743039D01*
X161827511Y-88788794D01*
X161776000Y-88800000D01*
X160824000Y-88800000D01*
X160756961Y-88780315D01*
X160711206Y-88727511D01*
X160700000Y-88676000D01*
X160700000Y-87124000D01*
X160719685Y-87056961D01*
X160772489Y-87011206D01*
X160824000Y-87000000D01*
X161776000Y-87000000D01*
X161843039Y-87019685D01*
G37*
%TD.AperFunction*%
%TA.AperFunction,Conductor*%
G36*
X136343039Y-96119685D02*
G01*
X136388794Y-96172489D01*
X136400000Y-96224000D01*
X136400000Y-103876000D01*
X136380315Y-103943039D01*
X136327511Y-103988794D01*
X136276000Y-104000000D01*
X135537544Y-104000000D01*
X135468761Y-103979174D01*
X134955217Y-103636811D01*
X134910356Y-103583246D01*
X134900000Y-103533637D01*
X134900000Y-96551362D01*
X134919685Y-96484323D01*
X134936319Y-96463681D01*
X135263681Y-96136319D01*
X135325004Y-96102834D01*
X135351362Y-96100000D01*
X136276000Y-96100000D01*
X136343039Y-96119685D01*
G37*
%TD.AperFunction*%
%TA.AperFunction,Conductor*%
G36*
X143415677Y-98219685D02*
G01*
X143436319Y-98236319D01*
X143763681Y-98563681D01*
X143797166Y-98625004D01*
X143800000Y-98651362D01*
X143800000Y-105748638D01*
X143780315Y-105815677D01*
X143763681Y-105836319D01*
X143636319Y-105963681D01*
X143574996Y-105997166D01*
X143548638Y-106000000D01*
X142024000Y-106000000D01*
X141956961Y-105980315D01*
X141911206Y-105927511D01*
X141900000Y-105876000D01*
X141900000Y-98324000D01*
X141919685Y-98256961D01*
X141972489Y-98211206D01*
X142024000Y-98200000D01*
X143348638Y-98200000D01*
X143415677Y-98219685D01*
G37*
%TD.AperFunction*%
%TA.AperFunction,Conductor*%
G36*
X139443039Y-91719685D02*
G01*
X139488794Y-91772489D01*
X139500000Y-91824000D01*
X139500000Y-93376000D01*
X139480315Y-93443039D01*
X139427511Y-93488794D01*
X139376000Y-93500000D01*
X138224000Y-93500000D01*
X138156961Y-93480315D01*
X138111206Y-93427511D01*
X138100000Y-93376000D01*
X138100000Y-91824000D01*
X138119685Y-91756961D01*
X138172489Y-91711206D01*
X138224000Y-91700000D01*
X139376000Y-91700000D01*
X139443039Y-91719685D01*
G37*
%TD.AperFunction*%
%TA.AperFunction,Conductor*%
G36*
X140708961Y-107319685D02*
G01*
X140737180Y-107344616D01*
X140803334Y-107424000D01*
X141073647Y-107748376D01*
X141100860Y-107808358D01*
X141104783Y-107833126D01*
X141165974Y-107953220D01*
X141261282Y-108048528D01*
X141269979Y-108052960D01*
X141269980Y-108052960D01*
X141347216Y-108092315D01*
X141386179Y-108123416D01*
X141645385Y-108434462D01*
X141700000Y-108500000D01*
X143048638Y-108500000D01*
X143115677Y-108519685D01*
X143136319Y-108536319D01*
X143463681Y-108863681D01*
X143497166Y-108925004D01*
X143500000Y-108951362D01*
X143500000Y-110248638D01*
X143480315Y-110315677D01*
X143463681Y-110336319D01*
X143236319Y-110563681D01*
X143174996Y-110597166D01*
X143148638Y-110600000D01*
X141800000Y-110600000D01*
X141436319Y-110963681D01*
X141374996Y-110997166D01*
X141348638Y-111000000D01*
X140751362Y-111000000D01*
X140684323Y-110980315D01*
X140663681Y-110963681D01*
X140536319Y-110836319D01*
X140502834Y-110774996D01*
X140500000Y-110748638D01*
X140500000Y-109600000D01*
X140300000Y-109400000D01*
X138324000Y-109400000D01*
X138256961Y-109380315D01*
X138211206Y-109327511D01*
X138200000Y-109276000D01*
X138200000Y-107424000D01*
X138219685Y-107356961D01*
X138272489Y-107311206D01*
X138324000Y-107300000D01*
X140641922Y-107300000D01*
X140708961Y-107319685D01*
G37*
%TD.AperFunction*%
%TA.AperFunction,Conductor*%
G36*
X156343039Y-99819685D02*
G01*
X156388794Y-99872489D01*
X156400000Y-99924000D01*
X156400000Y-105176000D01*
X156380315Y-105243039D01*
X156327511Y-105288794D01*
X156276000Y-105300000D01*
X155541333Y-105300000D01*
X155474294Y-105280315D01*
X155466933Y-105275200D01*
X155334667Y-105176000D01*
X155149600Y-105037200D01*
X155107779Y-104981229D01*
X155100000Y-104938000D01*
X155100000Y-100151362D01*
X155119685Y-100084323D01*
X155136319Y-100063681D01*
X155363681Y-99836319D01*
X155425004Y-99802834D01*
X155451362Y-99800000D01*
X156276000Y-99800000D01*
X156343039Y-99819685D01*
G37*
%TD.AperFunction*%
%TA.AperFunction,Conductor*%
G36*
X134817183Y-107518907D02*
G01*
X134828996Y-107528996D01*
X135100000Y-107800000D01*
X137201000Y-107800000D01*
X137259191Y-107818907D01*
X137295155Y-107868407D01*
X137300000Y-107899000D01*
X137300000Y-109101000D01*
X137281093Y-109159191D01*
X137231593Y-109195155D01*
X137201000Y-109200000D01*
X134441008Y-109200000D01*
X134382817Y-109181093D01*
X134371004Y-109171004D01*
X133700000Y-108500000D01*
X132841008Y-108500000D01*
X132782817Y-108481093D01*
X132771004Y-108471004D01*
X132728996Y-108428996D01*
X132701219Y-108374479D01*
X132700000Y-108358992D01*
X132700000Y-107641008D01*
X132718907Y-107582817D01*
X132728996Y-107571004D01*
X132771004Y-107528996D01*
X132825521Y-107501219D01*
X132841008Y-107500000D01*
X134758992Y-107500000D01*
X134817183Y-107518907D01*
G37*
%TD.AperFunction*%
%TA.AperFunction,Conductor*%
G36*
X162215677Y-97119685D02*
G01*
X162236319Y-97136319D01*
X162463681Y-97363681D01*
X162497166Y-97425004D01*
X162500000Y-97451362D01*
X162500000Y-104576000D01*
X162480315Y-104643039D01*
X162427511Y-104688794D01*
X162376000Y-104700000D01*
X161200000Y-104700000D01*
X160800000Y-105100000D01*
X160800000Y-106248638D01*
X160780315Y-106315677D01*
X160763681Y-106336319D01*
X160742966Y-106357034D01*
X160684231Y-106389927D01*
X160656543Y-106396574D01*
X160627597Y-106400000D01*
X159800000Y-106400000D01*
X159336319Y-106863681D01*
X159274996Y-106897166D01*
X159248638Y-106900000D01*
X157751362Y-106900000D01*
X157684323Y-106880315D01*
X157663681Y-106863681D01*
X157536319Y-106736319D01*
X157502834Y-106674996D01*
X157500000Y-106648638D01*
X157500000Y-99951362D01*
X157519685Y-99884323D01*
X157536319Y-99863681D01*
X157900000Y-99500000D01*
X157900000Y-97724000D01*
X157919685Y-97656961D01*
X157972489Y-97611206D01*
X158024000Y-97600000D01*
X158500000Y-97600000D01*
X158963681Y-97136319D01*
X159025004Y-97102834D01*
X159051362Y-97100000D01*
X162148638Y-97100000D01*
X162215677Y-97119685D01*
G37*
%TD.AperFunction*%
%TA.AperFunction,Conductor*%
G36*
X133759191Y-102118907D02*
G01*
X133795155Y-102168407D01*
X133800000Y-102199000D01*
X133800000Y-104200000D01*
X134400000Y-104800000D01*
X137301000Y-104800000D01*
X137359191Y-104818907D01*
X137395155Y-104868407D01*
X137400000Y-104899000D01*
X137400000Y-106301000D01*
X137381093Y-106359191D01*
X137331593Y-106395155D01*
X137301000Y-106400000D01*
X135300000Y-106400000D01*
X135289979Y-106408351D01*
X134727535Y-106877054D01*
X134670728Y-106899782D01*
X134664157Y-106900000D01*
X133041008Y-106900000D01*
X132982817Y-106881093D01*
X132971004Y-106871004D01*
X132528996Y-106428996D01*
X132501219Y-106374479D01*
X132500000Y-106358992D01*
X132500000Y-102199000D01*
X132518907Y-102140809D01*
X132568407Y-102104845D01*
X132599000Y-102100000D01*
X133701000Y-102100000D01*
X133759191Y-102118907D01*
G37*
%TD.AperFunction*%
%TA.AperFunction,Conductor*%
G36*
X160115677Y-86619685D02*
G01*
X160136319Y-86636319D01*
X160363681Y-86863681D01*
X160397166Y-86925004D01*
X160400000Y-86951362D01*
X160400000Y-90062456D01*
X160379174Y-90131239D01*
X160200000Y-90400000D01*
X160200000Y-90976000D01*
X160180315Y-91043039D01*
X160127511Y-91088794D01*
X160076000Y-91100000D01*
X157900000Y-91100000D01*
X157400000Y-91800000D01*
X157400000Y-94448638D01*
X157380315Y-94515677D01*
X157363681Y-94536319D01*
X157236319Y-94663681D01*
X157174996Y-94697166D01*
X157148638Y-94700000D01*
X154124000Y-94700000D01*
X154056961Y-94680315D01*
X154011206Y-94627511D01*
X154000000Y-94576000D01*
X154000000Y-89251362D01*
X154019685Y-89184323D01*
X154036319Y-89163681D01*
X156563681Y-86636319D01*
X156625004Y-86602834D01*
X156651362Y-86600000D01*
X160048638Y-86600000D01*
X160115677Y-86619685D01*
G37*
%TD.AperFunction*%
%TA.AperFunction,Conductor*%
G36*
X161515677Y-91819685D02*
G01*
X161536319Y-91836319D01*
X161765061Y-92065061D01*
X161798546Y-92126384D01*
X161801335Y-92149392D01*
X161896558Y-95672650D01*
X161878692Y-95740197D01*
X161827143Y-95787362D01*
X161772603Y-95800000D01*
X158024000Y-95800000D01*
X157956961Y-95780315D01*
X157911206Y-95727511D01*
X157900000Y-95676000D01*
X157900000Y-92551362D01*
X157919685Y-92484323D01*
X157936319Y-92463681D01*
X158563681Y-91836319D01*
X158625004Y-91802834D01*
X158651362Y-91800000D01*
X161448638Y-91800000D01*
X161515677Y-91819685D01*
G37*
%TD.AperFunction*%
%TA.AperFunction,Conductor*%
G36*
X146043039Y-89219685D02*
G01*
X146088794Y-89272489D01*
X146100000Y-89324000D01*
X146100000Y-94776000D01*
X146080315Y-94843039D01*
X146027511Y-94888794D01*
X145976000Y-94900000D01*
X144000000Y-94900000D01*
X142436319Y-96463681D01*
X142374996Y-96497166D01*
X142348638Y-96500000D01*
X141651362Y-96500000D01*
X141584323Y-96480315D01*
X141563681Y-96463681D01*
X141536319Y-96436319D01*
X141502834Y-96374996D01*
X141500000Y-96348638D01*
X141500000Y-93700000D01*
X141400000Y-93600000D01*
X140124000Y-93600000D01*
X140056961Y-93580315D01*
X140011206Y-93527511D01*
X140000000Y-93476000D01*
X140000000Y-90049036D01*
X140019685Y-89981997D01*
X140033537Y-89964227D01*
X140633750Y-89324000D01*
X140713259Y-89239190D01*
X140773470Y-89203747D01*
X140803721Y-89200000D01*
X145976000Y-89200000D01*
X146043039Y-89219685D01*
G37*
%TD.AperFunction*%
%TA.AperFunction,Conductor*%
G36*
X135015677Y-86619685D02*
G01*
X135036319Y-86636319D01*
X136663681Y-88263681D01*
X136697166Y-88325004D01*
X136700000Y-88351362D01*
X136700000Y-92400000D01*
X138600000Y-94300000D01*
X140879220Y-94300000D01*
X140946259Y-94319685D01*
X140992014Y-94372489D01*
X141003177Y-94420738D01*
X141099957Y-98098366D01*
X141100000Y-98101628D01*
X141100000Y-105776000D01*
X141080315Y-105843039D01*
X141027511Y-105888794D01*
X140976000Y-105900000D01*
X140300000Y-105900000D01*
X140000000Y-106200000D01*
X140000000Y-106676000D01*
X139980315Y-106743039D01*
X139927511Y-106788794D01*
X139876000Y-106800000D01*
X138224000Y-106800000D01*
X138156961Y-106780315D01*
X138111206Y-106727511D01*
X138100000Y-106676000D01*
X138100000Y-105100000D01*
X137040589Y-104136899D01*
X137004225Y-104077238D01*
X137000000Y-104045146D01*
X137000000Y-96000000D01*
X135196271Y-94196271D01*
X135162786Y-94134948D01*
X135161483Y-94128012D01*
X135159719Y-94116874D01*
X135098528Y-93996780D01*
X135003220Y-93901472D01*
X134883126Y-93840281D01*
X134872012Y-93838521D01*
X134870369Y-93837742D01*
X134864208Y-93835740D01*
X134864467Y-93834944D01*
X134808880Y-93808594D01*
X134803729Y-93803729D01*
X131436319Y-90436319D01*
X131402834Y-90374996D01*
X131400000Y-90348638D01*
X131400000Y-89032481D01*
X131415925Y-88971689D01*
X132282240Y-87431574D01*
X132331962Y-87382954D01*
X133772648Y-86614588D01*
X133831001Y-86600000D01*
X134948638Y-86600000D01*
X135015677Y-86619685D01*
G37*
%TD.AperFunction*%
%TA.AperFunction,Conductor*%
G36*
X131859191Y-107618907D02*
G01*
X131895155Y-107668407D01*
X131900000Y-107699000D01*
X131900000Y-110801000D01*
X131881093Y-110859191D01*
X131831593Y-110895155D01*
X131801000Y-110900000D01*
X130664401Y-110900000D01*
X130606210Y-110881093D01*
X130578666Y-110850502D01*
X130503638Y-110720550D01*
X130501646Y-110716925D01*
X130071825Y-109894754D01*
X130069981Y-109891040D01*
X129674948Y-109051553D01*
X129673262Y-109047765D01*
X129313748Y-108192513D01*
X129312221Y-108188658D01*
X129142952Y-107733509D01*
X129140390Y-107672377D01*
X129174249Y-107621414D01*
X129235743Y-107600000D01*
X131801000Y-107600000D01*
X131859191Y-107618907D01*
G37*
%TD.AperFunction*%
M02*
