%TF.GenerationSoftware,KiCad,Pcbnew,(6.0.9)*%
%TF.CreationDate,2023-01-25T10:50:16+01:00*%
%TF.ProjectId,BatteryManagementBoard,42617474-6572-4794-9d61-6e6167656d65,rev?*%
%TF.SameCoordinates,Original*%
%TF.FileFunction,Copper,L2,Inr*%
%TF.FilePolarity,Positive*%
%FSLAX46Y46*%
G04 Gerber Fmt 4.6, Leading zero omitted, Abs format (unit mm)*
G04 Created by KiCad (PCBNEW (6.0.9)) date 2023-01-25 10:50:16*
%MOMM*%
%LPD*%
G01*
G04 APERTURE LIST*
G04 Aperture macros list*
%AMRoundRect*
0 Rectangle with rounded corners*
0 $1 Rounding radius*
0 $2 $3 $4 $5 $6 $7 $8 $9 X,Y pos of 4 corners*
0 Add a 4 corners polygon primitive as box body*
4,1,4,$2,$3,$4,$5,$6,$7,$8,$9,$2,$3,0*
0 Add four circle primitives for the rounded corners*
1,1,$1+$1,$2,$3*
1,1,$1+$1,$4,$5*
1,1,$1+$1,$6,$7*
1,1,$1+$1,$8,$9*
0 Add four rect primitives between the rounded corners*
20,1,$1+$1,$2,$3,$4,$5,0*
20,1,$1+$1,$4,$5,$6,$7,0*
20,1,$1+$1,$6,$7,$8,$9,0*
20,1,$1+$1,$8,$9,$2,$3,0*%
G04 Aperture macros list end*
%TA.AperFunction,ComponentPad*%
%ADD10O,1.100000X2.200000*%
%TD*%
%TA.AperFunction,ComponentPad*%
%ADD11RoundRect,0.250000X-0.600000X-0.725000X0.600000X-0.725000X0.600000X0.725000X-0.600000X0.725000X0*%
%TD*%
%TA.AperFunction,ComponentPad*%
%ADD12O,1.700000X1.950000*%
%TD*%
%TA.AperFunction,ComponentPad*%
%ADD13C,6.500000*%
%TD*%
%TA.AperFunction,ComponentPad*%
%ADD14R,6.300000X6.000000*%
%TD*%
%TA.AperFunction,ComponentPad*%
%ADD15C,4.000000*%
%TD*%
%TA.AperFunction,ViaPad*%
%ADD16C,0.450000*%
%TD*%
%TA.AperFunction,ViaPad*%
%ADD17C,0.800000*%
%TD*%
%TA.AperFunction,ViaPad*%
%ADD18C,0.500000*%
%TD*%
%TA.AperFunction,ViaPad*%
%ADD19C,0.700000*%
%TD*%
G04 APERTURE END LIST*
D10*
%TO.N,unconnected-(J201-PadS1)*%
%TO.C,J201*%
X165150000Y-107600000D03*
%TO.N,unconnected-(J201-PadS2)*%
X160850000Y-107600000D03*
%TO.N,unconnected-(J201-PadS3)*%
X165150000Y-112400000D03*
%TO.N,unconnected-(J201-PadS4)*%
X160850000Y-112400000D03*
%TD*%
D11*
%TO.N,/P2-Connectors/Cell4*%
%TO.C,J208*%
X145000000Y-82525000D03*
D12*
%TO.N,/P2-Connectors/Cell3*%
X147500000Y-82525000D03*
%TO.N,/P2-Connectors/Cell2*%
X150000000Y-82525000D03*
%TO.N,/P2-Connectors/Cell1*%
X152500000Y-82525000D03*
%TO.N,GND*%
X155000000Y-82525000D03*
%TD*%
D13*
%TO.N,GND*%
%TO.C,J204*%
X150600000Y-115500000D03*
D14*
%TO.N,+BATT*%
X143400000Y-115500000D03*
%TD*%
D15*
%TO.N,GND*%
%TO.C,J202*%
X137817767Y-85732233D03*
%TO.N,VOUT*%
X134282233Y-89267767D03*
%TD*%
D16*
%TO.N,GND*%
X144750000Y-100000000D03*
X129500000Y-107000000D03*
X131750000Y-111500000D03*
X134750000Y-106750000D03*
X137250000Y-107750000D03*
X170000000Y-91750000D03*
X171500000Y-95500000D03*
X170000000Y-108250000D03*
X167000000Y-113250000D03*
X164250000Y-116250000D03*
X159250000Y-108250000D03*
X157750000Y-111750000D03*
X152750000Y-109000000D03*
X144300000Y-109500000D03*
X163000000Y-96500000D03*
X161250000Y-96500000D03*
X159500000Y-96500000D03*
X154250000Y-96000000D03*
X146250000Y-98000000D03*
X145000000Y-96750000D03*
X152750000Y-110250000D03*
X151250000Y-110250000D03*
X149500000Y-110250000D03*
X131000000Y-91000000D03*
X131000000Y-93000000D03*
X133000000Y-93000000D03*
X134750000Y-94250000D03*
X133000000Y-95000000D03*
X131000000Y-95000000D03*
X129000000Y-95000000D03*
X154998966Y-83989733D03*
X156996900Y-83989733D03*
X156996900Y-85987667D03*
X153999999Y-87997933D03*
X155000000Y-86000000D03*
X153000000Y-86000000D03*
X134000000Y-86000000D03*
X135000000Y-85000000D03*
X137000000Y-83000000D03*
X137993844Y-89992789D03*
X138996922Y-87994855D03*
X138989733Y-81999999D03*
X141000000Y-80000000D03*
X141000000Y-82000000D03*
X141000000Y-84000000D03*
X141000000Y-86000000D03*
X141000000Y-88000000D03*
X145000000Y-88000000D03*
X145000000Y-86000000D03*
X143000000Y-88000000D03*
X143000000Y-86000000D03*
X143000000Y-84000000D03*
X142994855Y-81994855D03*
X142996965Y-79994855D03*
X144994899Y-79994855D03*
X146992833Y-79994855D03*
X148998988Y-79994855D03*
X150996922Y-79994855D03*
X152994855Y-79994855D03*
X154992789Y-79994855D03*
X156998944Y-80997933D03*
X162999999Y-90998966D03*
X162999999Y-88996900D03*
X161000000Y-81000000D03*
X158991799Y-80992833D03*
X158991799Y-82990766D03*
X162999999Y-82990766D03*
X160998966Y-82989733D03*
X158988700Y-84987667D03*
X160998966Y-84987667D03*
X162996900Y-84987667D03*
X162996900Y-86997933D03*
X166992767Y-86997933D03*
X164994834Y-84987667D03*
X164994834Y-86997933D03*
X155001033Y-110940401D03*
X154988700Y-112999999D03*
X158996900Y-112999999D03*
X160987667Y-114998966D03*
X145000000Y-121000000D03*
X147994855Y-120991778D03*
X154000000Y-121000000D03*
X152000000Y-121000000D03*
X149991778Y-120991778D03*
X152994855Y-93994855D03*
X151000000Y-92000000D03*
X148995192Y-91994518D03*
X147000000Y-92000000D03*
X151000000Y-94000000D03*
X147000000Y-96000000D03*
X151000000Y-96000000D03*
X149000000Y-96000000D03*
X149000000Y-94000000D03*
X147000000Y-94000000D03*
X155000000Y-115000000D03*
X159000000Y-115000000D03*
X157000000Y-115000000D03*
X159000000Y-117000000D03*
X157000000Y-117000000D03*
X155000000Y-117000000D03*
X160200000Y-110000000D03*
%TO.N,/P2-Connectors/USB-P*%
X161399832Y-110299832D03*
%TO.N,GND*%
X147100000Y-109000000D03*
X147900000Y-111700000D03*
X141600000Y-107000000D03*
X164410000Y-91980000D03*
X168460000Y-94160000D03*
X168420000Y-91790000D03*
X168891670Y-99091392D03*
X156650878Y-97209122D03*
X152440000Y-100200000D03*
X147890000Y-100230000D03*
X144860000Y-101500000D03*
X161710000Y-89960000D03*
X139110000Y-90010000D03*
X152000000Y-98040000D03*
X147330000Y-98410000D03*
%TO.N,VBUS*%
X166700000Y-91340000D03*
%TO.N,GND*%
X164700000Y-101600000D03*
X163800000Y-113200000D03*
X162100000Y-112300000D03*
X145300000Y-104600000D03*
X165690000Y-95200000D03*
X152600000Y-92000000D03*
X163300000Y-93200000D03*
X143400000Y-105700000D03*
X130700000Y-97400000D03*
X142500000Y-100000000D03*
X166800000Y-105200000D03*
X162100000Y-106800000D03*
X167700000Y-111800000D03*
X139600000Y-111500000D03*
X149000000Y-97700000D03*
X156400000Y-95600000D03*
X135100000Y-101500000D03*
X138400000Y-93300000D03*
X169200000Y-105300000D03*
X155800000Y-108200000D03*
X134500000Y-100000000D03*
D17*
X149200000Y-103700000D03*
D16*
X143400000Y-103300000D03*
X130500000Y-100100000D03*
X138400000Y-92000000D03*
X155300000Y-101200000D03*
X164700000Y-98100000D03*
X151800000Y-108500000D03*
X164000000Y-99000000D03*
X164700000Y-98900000D03*
X161600000Y-87300000D03*
X169200000Y-104400000D03*
X163800000Y-112300000D03*
X138400000Y-92700000D03*
X129200000Y-106000000D03*
X156000000Y-103500000D03*
X147700000Y-107400000D03*
X143400000Y-99700000D03*
X149600000Y-97200000D03*
X155300000Y-102000000D03*
X135800000Y-100000000D03*
X155300000Y-104600000D03*
X164700000Y-100700000D03*
X135100000Y-98700000D03*
X155300000Y-102800000D03*
X143400000Y-98800000D03*
X135100000Y-103100000D03*
X164700000Y-102500000D03*
X162800000Y-92500000D03*
X131624500Y-100100000D03*
X134600000Y-114300000D03*
D17*
X150900000Y-103700000D03*
D16*
X148400000Y-108500000D03*
X163300000Y-94200000D03*
X150200000Y-97700000D03*
X143400000Y-104900000D03*
X155300000Y-103700000D03*
X162100000Y-113200000D03*
X142500000Y-102000000D03*
X142500000Y-104000000D03*
X135800000Y-98000000D03*
X168700000Y-100000000D03*
X138400000Y-91300000D03*
X155300000Y-100300000D03*
X164700000Y-103300000D03*
X162100000Y-107700000D03*
X146800000Y-107400000D03*
X167370000Y-88560000D03*
X137300000Y-114300000D03*
X155700000Y-99000000D03*
X166800000Y-104400000D03*
X135100000Y-100600000D03*
X156000000Y-101500000D03*
X163850000Y-107650000D03*
X162800000Y-94800000D03*
X143400000Y-101500000D03*
X135100000Y-96700000D03*
X169400000Y-100000000D03*
X164000000Y-101000000D03*
X167000000Y-96800000D03*
X161600000Y-88500000D03*
X150800000Y-108534500D03*
X164700000Y-104100000D03*
X143400000Y-100600000D03*
X133900000Y-114300000D03*
X152600000Y-88100000D03*
D17*
X149200000Y-101900000D03*
D16*
X152900000Y-99500000D03*
X164700000Y-99800000D03*
X143400000Y-102400000D03*
X139100000Y-93800000D03*
X161600000Y-87900000D03*
X143400000Y-104100000D03*
X150124500Y-108500000D03*
X135800000Y-102000000D03*
X135100000Y-99700000D03*
X164960000Y-88510000D03*
X165750000Y-96210000D03*
D17*
X150900000Y-101900000D03*
D16*
X164000000Y-103000000D03*
X163865000Y-106865000D03*
X138000000Y-114300000D03*
X134600000Y-97300000D03*
X135100000Y-102300000D03*
X135100000Y-97700000D03*
%TO.N,/P3-Charger/ACP*%
X154000000Y-101800000D03*
X156700000Y-98000000D03*
%TO.N,/P3-Charger/ACN*%
X156400000Y-96500000D03*
X153191973Y-101429983D03*
%TO.N,VOUT*%
X139100000Y-103900000D03*
X139250000Y-105100000D03*
%TO.N,/P3-Charger/VBUS-in*%
X152825000Y-100775000D03*
X152600000Y-106000000D03*
%TO.N,/P3-Charger/VDDA*%
X153206233Y-104193767D03*
X152700000Y-107200000D03*
%TO.N,/P3-Charger/COMP1*%
X148500000Y-106200000D03*
%TO.N,/P3-Charger/COMP2*%
X147000000Y-105300000D03*
%TO.N,/P3-Charger/REGN*%
X149600000Y-99900000D03*
%TO.N,BQ_IADPT*%
X147100000Y-108300000D03*
X141514502Y-107700000D03*
X131600000Y-98700000D03*
%TO.N,BQ_IBAT*%
X131700000Y-101300000D03*
X151300000Y-105600000D03*
D18*
%TO.N,+3.3V*%
X168700000Y-102600000D03*
D16*
X129050000Y-102540000D03*
D18*
X129900000Y-108000000D03*
D16*
X169180000Y-94410000D03*
D19*
%TO.N,/P2-Connectors/VBUS_connector*%
X165715688Y-106107186D03*
X165850000Y-105250000D03*
D16*
%TO.N,CC1*%
X168160000Y-93490000D03*
X162994502Y-109275500D03*
%TO.N,/P2-Connectors/USB-P*%
X164540210Y-109750000D03*
%TO.N,CC2*%
X168220000Y-92550000D03*
X162950000Y-110750000D03*
%TO.N,/P3-Charger/ILIM_HIZ*%
X154200000Y-107700000D03*
X154044500Y-103800000D03*
%TO.N,SDA*%
X169600000Y-101300000D03*
X164800000Y-92520000D03*
X150500000Y-105800000D03*
%TO.N,SCL*%
X149703061Y-105798166D03*
X168570000Y-100775500D03*
X156500000Y-108200000D03*
X164780000Y-93450000D03*
%TO.N,USBC_INT*%
X169410000Y-98700000D03*
X165120878Y-91864500D03*
%TO.N,BQ_CHRG_OK*%
X154600000Y-102200000D03*
X165475500Y-98600000D03*
%TO.N,BQ_EN_OTG*%
X154600000Y-103000000D03*
X155200000Y-106874500D03*
X130500000Y-101300000D03*
X147900000Y-110900000D03*
%TO.N,BQ_CMPOUT*%
X149145936Y-106132031D03*
X130400000Y-98700000D03*
%TO.N,/P3-Charger/CELL_BATPRESZ*%
X146800000Y-104000000D03*
%TO.N,/P3-Charger/!BATDRV*%
X140900000Y-106500000D03*
X145543767Y-101856233D03*
%TO.N,/P3-Charger/HIDRV2*%
X147400000Y-100800000D03*
X142600000Y-97000000D03*
%TO.N,/P3-Charger/LODRV2*%
X148200000Y-98400000D03*
X139100000Y-90700000D03*
%TO.N,/P3-Charger/LODRV1*%
X151200000Y-98000000D03*
X161000000Y-89900000D03*
%TO.N,/P3-Charger/HIDRV1*%
X161600000Y-90700000D03*
X151174500Y-99950000D03*
%TO.N,/P5-TUSB422 (Optional)/PTN_ENB*%
X166700000Y-94840000D03*
%TO.N,PTN_ID*%
X169530000Y-97500000D03*
X165110000Y-94420000D03*
%TD*%
%TA.AperFunction,Conductor*%
%TO.N,GND*%
G36*
X150468558Y-77755489D02*
G01*
X151394462Y-77794295D01*
X151399640Y-77794621D01*
X151861382Y-77833394D01*
X152323121Y-77872168D01*
X152328286Y-77872711D01*
X152502320Y-77894697D01*
X153247694Y-77988859D01*
X153252818Y-77989616D01*
X154166597Y-78144171D01*
X154171699Y-78145144D01*
X154511259Y-78217319D01*
X155078171Y-78337820D01*
X155083185Y-78338996D01*
X155613307Y-78475108D01*
X155980803Y-78569465D01*
X155985805Y-78570861D01*
X156872992Y-78838719D01*
X156877931Y-78840324D01*
X157753105Y-79145091D01*
X157757974Y-79146902D01*
X158619608Y-79488048D01*
X158624395Y-79490060D01*
X159471033Y-79867007D01*
X159475686Y-79869197D01*
X160305786Y-80281262D01*
X160310359Y-80283652D01*
X161122499Y-80730130D01*
X161126970Y-80732713D01*
X161441723Y-80923333D01*
X161919648Y-81212776D01*
X161924034Y-81215559D01*
X162695936Y-81728409D01*
X162700200Y-81731373D01*
X163449924Y-82276080D01*
X163454061Y-82279220D01*
X163884412Y-82620311D01*
X164180346Y-82854866D01*
X164184322Y-82858155D01*
X164700646Y-83303834D01*
X164885847Y-83463695D01*
X164889707Y-83467170D01*
X165565264Y-84101561D01*
X165568975Y-84105195D01*
X166217373Y-84767317D01*
X166220928Y-84771103D01*
X166841027Y-85459792D01*
X166844394Y-85463692D01*
X167176780Y-85865477D01*
X167435140Y-86177780D01*
X167438366Y-86181851D01*
X167998653Y-86920002D01*
X168001706Y-86924204D01*
X168530593Y-87685175D01*
X168533467Y-87689500D01*
X168683119Y-87925313D01*
X168997199Y-88420222D01*
X169030044Y-88471978D01*
X169032724Y-88476405D01*
X169496098Y-89278993D01*
X169498576Y-89283500D01*
X169693040Y-89655475D01*
X169927928Y-90104774D01*
X169930238Y-90109426D01*
X170047384Y-90358374D01*
X170323207Y-90944525D01*
X170324830Y-90947975D01*
X170326939Y-90952712D01*
X170670832Y-91770804D01*
X170686055Y-91807017D01*
X170687967Y-91811846D01*
X171010997Y-92680450D01*
X171012705Y-92685355D01*
X171299078Y-93566720D01*
X171300579Y-93571692D01*
X171392652Y-93901459D01*
X171537432Y-94420000D01*
X171549791Y-94464266D01*
X171551078Y-94469275D01*
X171762707Y-95371560D01*
X171763781Y-95376615D01*
X171937433Y-96286931D01*
X171938299Y-96292050D01*
X171967582Y-96490359D01*
X172073676Y-97208825D01*
X172074327Y-97213977D01*
X172171198Y-98135642D01*
X172171632Y-98140818D01*
X172229819Y-99065683D01*
X172230037Y-99070872D01*
X172234744Y-99295565D01*
X172247608Y-99909641D01*
X172249446Y-99997403D01*
X172249446Y-100002578D01*
X172238191Y-100539878D01*
X172230037Y-100929128D01*
X172229819Y-100934317D01*
X172171632Y-101859182D01*
X172171198Y-101864358D01*
X172074327Y-102786023D01*
X172073676Y-102791175D01*
X171946048Y-103655475D01*
X171938299Y-103707948D01*
X171937433Y-103713066D01*
X171767286Y-104605013D01*
X171763781Y-104623385D01*
X171762707Y-104628440D01*
X171551083Y-105530704D01*
X171549794Y-105535723D01*
X171462872Y-105847042D01*
X171300579Y-106428308D01*
X171299078Y-106433280D01*
X171012705Y-107314645D01*
X171010997Y-107319550D01*
X170775988Y-107951472D01*
X170706480Y-108138375D01*
X170687967Y-108188154D01*
X170686058Y-108192975D01*
X170417877Y-108830955D01*
X170326942Y-109047280D01*
X170324833Y-109052018D01*
X170224207Y-109265859D01*
X169930238Y-109890574D01*
X169927928Y-109895226D01*
X169498576Y-110716500D01*
X169496098Y-110721007D01*
X169034830Y-111519948D01*
X169032734Y-111523579D01*
X169030054Y-111528006D01*
X168856726Y-111801126D01*
X168533467Y-112310500D01*
X168530593Y-112314825D01*
X168001706Y-113075796D01*
X167998658Y-113079991D01*
X167670066Y-113512896D01*
X167438366Y-113818149D01*
X167435140Y-113822220D01*
X167393781Y-113872214D01*
X166844394Y-114536308D01*
X166841027Y-114540208D01*
X166545065Y-114868907D01*
X166220928Y-115228897D01*
X166217373Y-115232683D01*
X165568975Y-115894805D01*
X165565264Y-115898439D01*
X164889707Y-116532830D01*
X164885849Y-116536303D01*
X164184322Y-117141845D01*
X164180346Y-117145134D01*
X163884412Y-117379689D01*
X163454061Y-117720780D01*
X163449924Y-117723920D01*
X162700200Y-118268627D01*
X162695936Y-118271591D01*
X161924034Y-118784441D01*
X161919648Y-118787224D01*
X161441723Y-119076667D01*
X161126970Y-119267287D01*
X161122499Y-119269870D01*
X160310359Y-119716348D01*
X160305786Y-119718738D01*
X159475686Y-120130803D01*
X159471033Y-120132993D01*
X158791525Y-120435529D01*
X158624395Y-120509940D01*
X158619608Y-120511952D01*
X157757974Y-120853098D01*
X157753105Y-120854909D01*
X156877931Y-121159676D01*
X156872992Y-121161281D01*
X155985805Y-121429139D01*
X155980803Y-121430535D01*
X155613307Y-121524892D01*
X155083185Y-121661004D01*
X155078171Y-121662180D01*
X154511259Y-121782681D01*
X154171699Y-121854856D01*
X154166597Y-121855829D01*
X153252818Y-122010384D01*
X153247694Y-122011141D01*
X152502320Y-122105303D01*
X152328286Y-122127289D01*
X152323121Y-122127832D01*
X151861382Y-122166605D01*
X151399640Y-122205379D01*
X151394462Y-122205705D01*
X150468559Y-122244511D01*
X150463367Y-122244620D01*
X149536633Y-122244620D01*
X149531441Y-122244511D01*
X148605538Y-122205705D01*
X148600360Y-122205379D01*
X148138618Y-122166605D01*
X147676879Y-122127832D01*
X147671714Y-122127289D01*
X147497680Y-122105303D01*
X146752306Y-122011141D01*
X146747182Y-122010384D01*
X145833403Y-121855829D01*
X145828301Y-121854856D01*
X145488741Y-121782681D01*
X144921829Y-121662180D01*
X144916815Y-121661004D01*
X144386693Y-121524892D01*
X144019197Y-121430535D01*
X144014195Y-121429139D01*
X143127008Y-121161281D01*
X143122069Y-121159676D01*
X142246895Y-120854909D01*
X142242026Y-120853098D01*
X141380392Y-120511952D01*
X141375605Y-120509940D01*
X141208475Y-120435529D01*
X140528967Y-120132993D01*
X140524314Y-120130803D01*
X139694214Y-119718738D01*
X139689641Y-119716348D01*
X138877501Y-119269870D01*
X138873030Y-119267287D01*
X138558277Y-119076667D01*
X138080352Y-118787224D01*
X138075966Y-118784441D01*
X137677571Y-118519748D01*
X140049500Y-118519748D01*
X140061133Y-118578231D01*
X140105448Y-118644552D01*
X140171769Y-118688867D01*
X140183745Y-118691249D01*
X140183747Y-118691250D01*
X140202326Y-118694945D01*
X140230252Y-118700500D01*
X146569748Y-118700500D01*
X146597674Y-118694945D01*
X146616253Y-118691250D01*
X146616255Y-118691249D01*
X146628231Y-118688867D01*
X146694552Y-118644552D01*
X146738867Y-118578231D01*
X146750500Y-118519748D01*
X146750500Y-113782990D01*
X162475643Y-113782990D01*
X162477313Y-113791271D01*
X162484529Y-113827059D01*
X162486075Y-113842547D01*
X162484592Y-113850000D01*
X162486975Y-113861980D01*
X162486975Y-113861983D01*
X162487444Y-113864341D01*
X162489046Y-113874643D01*
X162499150Y-113964316D01*
X162537145Y-114072899D01*
X162598350Y-114170305D01*
X162679695Y-114251650D01*
X162777101Y-114312855D01*
X162783670Y-114315154D01*
X162783673Y-114315155D01*
X162879107Y-114348549D01*
X162879110Y-114348550D01*
X162885684Y-114350850D01*
X162892607Y-114351630D01*
X162975357Y-114360954D01*
X162985659Y-114362556D01*
X162988017Y-114363025D01*
X162988020Y-114363025D01*
X163000000Y-114365408D01*
X163011980Y-114363025D01*
X163011983Y-114363025D01*
X163014341Y-114362556D01*
X163024643Y-114360954D01*
X163107393Y-114351630D01*
X163114316Y-114350850D01*
X163120890Y-114348550D01*
X163120893Y-114348549D01*
X163216327Y-114315155D01*
X163216330Y-114315154D01*
X163222899Y-114312855D01*
X163320305Y-114251650D01*
X163401650Y-114170305D01*
X163462855Y-114072899D01*
X163500850Y-113964316D01*
X163510954Y-113874643D01*
X163511332Y-113872214D01*
X163511295Y-113871611D01*
X163511538Y-113869456D01*
X163511539Y-113869451D01*
X163511757Y-113869476D01*
X163512553Y-113864356D01*
X163513024Y-113861989D01*
X163513024Y-113861983D01*
X163513148Y-113861360D01*
X163513913Y-113859236D01*
X163514113Y-113856509D01*
X163515408Y-113850000D01*
X163515154Y-113848726D01*
X163515470Y-113847651D01*
X163515533Y-113847054D01*
X163514811Y-113847001D01*
X163519512Y-113782990D01*
X163524357Y-113717010D01*
X163515471Y-113672940D01*
X163513925Y-113657453D01*
X163515408Y-113650000D01*
X163513025Y-113638020D01*
X163513025Y-113638017D01*
X163512556Y-113635659D01*
X163510954Y-113625357D01*
X163501630Y-113542607D01*
X163500850Y-113535684D01*
X163462855Y-113427101D01*
X163401650Y-113329695D01*
X163320305Y-113248350D01*
X163222899Y-113187145D01*
X163216330Y-113184846D01*
X163216327Y-113184845D01*
X163120893Y-113151451D01*
X163120890Y-113151450D01*
X163114316Y-113149150D01*
X163103077Y-113147884D01*
X163024643Y-113139046D01*
X163014341Y-113137444D01*
X163011983Y-113136975D01*
X163011980Y-113136975D01*
X163000000Y-113134592D01*
X162988020Y-113136975D01*
X162988017Y-113136975D01*
X162985659Y-113137444D01*
X162975357Y-113139046D01*
X162896923Y-113147884D01*
X162885684Y-113149150D01*
X162879110Y-113151450D01*
X162879107Y-113151451D01*
X162783673Y-113184845D01*
X162783670Y-113184846D01*
X162777101Y-113187145D01*
X162679695Y-113248350D01*
X162598350Y-113329695D01*
X162537145Y-113427101D01*
X162499150Y-113535684D01*
X162498370Y-113542607D01*
X162489047Y-113625351D01*
X162488668Y-113627786D01*
X162488705Y-113628389D01*
X162488462Y-113630544D01*
X162488461Y-113630549D01*
X162488243Y-113630524D01*
X162487447Y-113635644D01*
X162486976Y-113638011D01*
X162486976Y-113638016D01*
X162486852Y-113638640D01*
X162486087Y-113640764D01*
X162485887Y-113643491D01*
X162484592Y-113650000D01*
X162484846Y-113651274D01*
X162484530Y-113652349D01*
X162484467Y-113652946D01*
X162485189Y-113652999D01*
X162475643Y-113782990D01*
X146750500Y-113782990D01*
X146750500Y-112991302D01*
X160169500Y-112991302D01*
X160169948Y-112995003D01*
X160179983Y-113077928D01*
X160184289Y-113113514D01*
X160242509Y-113267589D01*
X160335800Y-113403328D01*
X160458777Y-113512896D01*
X160604339Y-113589968D01*
X160764084Y-113630093D01*
X160849672Y-113630541D01*
X160921315Y-113630916D01*
X160921316Y-113630916D01*
X160928789Y-113630955D01*
X160936052Y-113629211D01*
X160936055Y-113629211D01*
X161012570Y-113610841D01*
X161088945Y-113592505D01*
X161235307Y-113516962D01*
X161359424Y-113408688D01*
X161454132Y-113273933D01*
X161513962Y-113120476D01*
X161530500Y-112994854D01*
X161530500Y-112991302D01*
X164469500Y-112991302D01*
X164469948Y-112995003D01*
X164479983Y-113077928D01*
X164484289Y-113113514D01*
X164542509Y-113267589D01*
X164635800Y-113403328D01*
X164758777Y-113512896D01*
X164904339Y-113589968D01*
X165064084Y-113630093D01*
X165149672Y-113630541D01*
X165221315Y-113630916D01*
X165221316Y-113630916D01*
X165228789Y-113630955D01*
X165236052Y-113629211D01*
X165236055Y-113629211D01*
X165312570Y-113610841D01*
X165388945Y-113592505D01*
X165535307Y-113516962D01*
X165659424Y-113408688D01*
X165754132Y-113273933D01*
X165813962Y-113120476D01*
X165830500Y-112994854D01*
X165830500Y-111808698D01*
X165815711Y-111686486D01*
X165757491Y-111532411D01*
X165664200Y-111396672D01*
X165566606Y-111309719D01*
X165546806Y-111292078D01*
X165546805Y-111292077D01*
X165541223Y-111287104D01*
X165395661Y-111210032D01*
X165235916Y-111169907D01*
X165150328Y-111169459D01*
X165078685Y-111169084D01*
X165078684Y-111169084D01*
X165071211Y-111169045D01*
X165063948Y-111170789D01*
X165063945Y-111170789D01*
X164987430Y-111189159D01*
X164911055Y-111207495D01*
X164764693Y-111283038D01*
X164759062Y-111287951D01*
X164759061Y-111287951D01*
X164722308Y-111320013D01*
X164640576Y-111391312D01*
X164545868Y-111526067D01*
X164486038Y-111679524D01*
X164485062Y-111686939D01*
X164471763Y-111787959D01*
X164469500Y-111805146D01*
X164469500Y-112991302D01*
X161530500Y-112991302D01*
X161530500Y-111808698D01*
X161515711Y-111686486D01*
X161457491Y-111532411D01*
X161364200Y-111396672D01*
X161266606Y-111309719D01*
X161246806Y-111292078D01*
X161246805Y-111292077D01*
X161241223Y-111287104D01*
X161095661Y-111210032D01*
X160935916Y-111169907D01*
X160850328Y-111169459D01*
X160778685Y-111169084D01*
X160778684Y-111169084D01*
X160771211Y-111169045D01*
X160763948Y-111170789D01*
X160763945Y-111170789D01*
X160687430Y-111189159D01*
X160611055Y-111207495D01*
X160464693Y-111283038D01*
X160459062Y-111287951D01*
X160459061Y-111287951D01*
X160422308Y-111320013D01*
X160340576Y-111391312D01*
X160245868Y-111526067D01*
X160186038Y-111679524D01*
X160185062Y-111686939D01*
X160171763Y-111787959D01*
X160169500Y-111805146D01*
X160169500Y-112991302D01*
X146750500Y-112991302D01*
X146750500Y-112480252D01*
X146738867Y-112421769D01*
X146694552Y-112355448D01*
X146628231Y-112311133D01*
X146616255Y-112308751D01*
X146616253Y-112308750D01*
X146597674Y-112305055D01*
X146569748Y-112299500D01*
X140230252Y-112299500D01*
X140202326Y-112305055D01*
X140183747Y-112308750D01*
X140183745Y-112308751D01*
X140171769Y-112311133D01*
X140105448Y-112355448D01*
X140061133Y-112421769D01*
X140049500Y-112480252D01*
X140049500Y-118519748D01*
X137677571Y-118519748D01*
X137304064Y-118271591D01*
X137299800Y-118268627D01*
X136550076Y-117723920D01*
X136545939Y-117720780D01*
X136115588Y-117379689D01*
X135819654Y-117145134D01*
X135815678Y-117141845D01*
X135114151Y-116536303D01*
X135110293Y-116532830D01*
X134434736Y-115898439D01*
X134431025Y-115894805D01*
X133782627Y-115232683D01*
X133779072Y-115228897D01*
X133454935Y-114868907D01*
X133158973Y-114540208D01*
X133155606Y-114536308D01*
X132606219Y-113872214D01*
X132564860Y-113822220D01*
X132561634Y-113818149D01*
X132329934Y-113512896D01*
X132001342Y-113079991D01*
X131998294Y-113075796D01*
X131469407Y-112314825D01*
X131466533Y-112310500D01*
X131143274Y-111801126D01*
X130969946Y-111528006D01*
X130967266Y-111523579D01*
X130965170Y-111519948D01*
X130607243Y-110900000D01*
X147469196Y-110900000D01*
X147490281Y-111033126D01*
X147551472Y-111153220D01*
X147646780Y-111248528D01*
X147766874Y-111309719D01*
X147900000Y-111330804D01*
X148033126Y-111309719D01*
X148153220Y-111248528D01*
X148248528Y-111153220D01*
X148309719Y-111033126D01*
X148330804Y-110900000D01*
X148309719Y-110766874D01*
X148301121Y-110750000D01*
X162519196Y-110750000D01*
X162540281Y-110883126D01*
X162601472Y-111003220D01*
X162696780Y-111098528D01*
X162816874Y-111159719D01*
X162950000Y-111180804D01*
X163083126Y-111159719D01*
X163203220Y-111098528D01*
X163298528Y-111003220D01*
X163359719Y-110883126D01*
X163380804Y-110750000D01*
X163359719Y-110616874D01*
X163298528Y-110496780D01*
X163203220Y-110401472D01*
X163083126Y-110340281D01*
X162950000Y-110319196D01*
X162816874Y-110340281D01*
X162696780Y-110401472D01*
X162601472Y-110496780D01*
X162540281Y-110616874D01*
X162519196Y-110750000D01*
X148301121Y-110750000D01*
X148248528Y-110646780D01*
X148153220Y-110551472D01*
X148033126Y-110490281D01*
X147900000Y-110469196D01*
X147766874Y-110490281D01*
X147646780Y-110551472D01*
X147551472Y-110646780D01*
X147490281Y-110766874D01*
X147469196Y-110900000D01*
X130607243Y-110900000D01*
X130503902Y-110721007D01*
X130501424Y-110716500D01*
X130283595Y-110299832D01*
X160969028Y-110299832D01*
X160990113Y-110432958D01*
X161051304Y-110553052D01*
X161146612Y-110648360D01*
X161266706Y-110709551D01*
X161399832Y-110730636D01*
X161532958Y-110709551D01*
X161653052Y-110648360D01*
X161748360Y-110553052D01*
X161809551Y-110432958D01*
X161830636Y-110299832D01*
X161809551Y-110166706D01*
X161748360Y-110046612D01*
X161653052Y-109951304D01*
X161532958Y-109890113D01*
X161399832Y-109869028D01*
X161266706Y-109890113D01*
X161146612Y-109951304D01*
X161051304Y-110046612D01*
X160990113Y-110166706D01*
X160969028Y-110299832D01*
X130283595Y-110299832D01*
X130072072Y-109895226D01*
X130069762Y-109890574D01*
X130003613Y-109750000D01*
X164109406Y-109750000D01*
X164130491Y-109883126D01*
X164191682Y-110003220D01*
X164286990Y-110098528D01*
X164407084Y-110159719D01*
X164540210Y-110180804D01*
X164673336Y-110159719D01*
X164793430Y-110098528D01*
X164888738Y-110003220D01*
X164949929Y-109883126D01*
X164971014Y-109750000D01*
X164949929Y-109616874D01*
X164888738Y-109496780D01*
X164793430Y-109401472D01*
X164673336Y-109340281D01*
X164540210Y-109319196D01*
X164407084Y-109340281D01*
X164286990Y-109401472D01*
X164191682Y-109496780D01*
X164130491Y-109616874D01*
X164109406Y-109750000D01*
X130003613Y-109750000D01*
X129780330Y-109275500D01*
X162563698Y-109275500D01*
X162584783Y-109408626D01*
X162645974Y-109528720D01*
X162741282Y-109624028D01*
X162861376Y-109685219D01*
X162994502Y-109706304D01*
X163127628Y-109685219D01*
X163247722Y-109624028D01*
X163343030Y-109528720D01*
X163404221Y-109408626D01*
X163425306Y-109275500D01*
X163404221Y-109142374D01*
X163343030Y-109022280D01*
X163247722Y-108926972D01*
X163127628Y-108865781D01*
X162994502Y-108844696D01*
X162861376Y-108865781D01*
X162741282Y-108926972D01*
X162645974Y-109022280D01*
X162584783Y-109142374D01*
X162563698Y-109275500D01*
X129780330Y-109275500D01*
X129775793Y-109265859D01*
X129675167Y-109052018D01*
X129673058Y-109047280D01*
X129581391Y-108829211D01*
X129507301Y-108652958D01*
X129448914Y-108514061D01*
X129441082Y-108444632D01*
X129472029Y-108381989D01*
X129531930Y-108346023D01*
X129601768Y-108348151D01*
X129631935Y-108362786D01*
X129660784Y-108381989D01*
X129704060Y-108410796D01*
X129712488Y-108413429D01*
X129712490Y-108413430D01*
X129760281Y-108428361D01*
X129827233Y-108449278D01*
X129836067Y-108449440D01*
X129872777Y-108450113D01*
X129956255Y-108451643D01*
X129964771Y-108449321D01*
X129964773Y-108449321D01*
X130072236Y-108420023D01*
X130072239Y-108420022D01*
X130080755Y-108417700D01*
X130190724Y-108350179D01*
X130236144Y-108300000D01*
X146669196Y-108300000D01*
X146690281Y-108433126D01*
X146751472Y-108553220D01*
X146846780Y-108648528D01*
X146966874Y-108709719D01*
X147100000Y-108730804D01*
X147233126Y-108709719D01*
X147353220Y-108648528D01*
X147448528Y-108553220D01*
X147509719Y-108433126D01*
X147530804Y-108300000D01*
X147514966Y-108200000D01*
X156069196Y-108200000D01*
X156090281Y-108333126D01*
X156151472Y-108453220D01*
X156246780Y-108548528D01*
X156366874Y-108609719D01*
X156500000Y-108630804D01*
X156633126Y-108609719D01*
X156753220Y-108548528D01*
X156848528Y-108453220D01*
X156909719Y-108333126D01*
X156930804Y-108200000D01*
X156929426Y-108191302D01*
X160169500Y-108191302D01*
X160169948Y-108195003D01*
X160182654Y-108300000D01*
X160184289Y-108313514D01*
X160242509Y-108467589D01*
X160335800Y-108603328D01*
X160458777Y-108712896D01*
X160604339Y-108789968D01*
X160764084Y-108830093D01*
X160849672Y-108830541D01*
X160921315Y-108830916D01*
X160921316Y-108830916D01*
X160928789Y-108830955D01*
X160936052Y-108829211D01*
X160936055Y-108829211D01*
X161012570Y-108810841D01*
X161088945Y-108792505D01*
X161235307Y-108716962D01*
X161359424Y-108608688D01*
X161454132Y-108473933D01*
X161462823Y-108451643D01*
X161511246Y-108327442D01*
X161513962Y-108320476D01*
X161523693Y-108246558D01*
X161529971Y-108198874D01*
X161529971Y-108198871D01*
X161530500Y-108194854D01*
X161530500Y-108191302D01*
X164469500Y-108191302D01*
X164469948Y-108195003D01*
X164482654Y-108300000D01*
X164484289Y-108313514D01*
X164542509Y-108467589D01*
X164635800Y-108603328D01*
X164758777Y-108712896D01*
X164904339Y-108789968D01*
X165064084Y-108830093D01*
X165149672Y-108830541D01*
X165221315Y-108830916D01*
X165221316Y-108830916D01*
X165228789Y-108830955D01*
X165236052Y-108829211D01*
X165236055Y-108829211D01*
X165312570Y-108810841D01*
X165388945Y-108792505D01*
X165535307Y-108716962D01*
X165659424Y-108608688D01*
X165754132Y-108473933D01*
X165762823Y-108451643D01*
X165811246Y-108327442D01*
X165813962Y-108320476D01*
X165823693Y-108246558D01*
X165829971Y-108198874D01*
X165829971Y-108198871D01*
X165830500Y-108194854D01*
X165830500Y-107008698D01*
X165827110Y-106980682D01*
X165816610Y-106893911D01*
X165816609Y-106893907D01*
X165815711Y-106886486D01*
X165807539Y-106864859D01*
X165784405Y-106803635D01*
X165779122Y-106733966D01*
X165812344Y-106672500D01*
X165859959Y-106644873D01*
X165859397Y-106643516D01*
X165972490Y-106596672D01*
X165993313Y-106588047D01*
X166059423Y-106537319D01*
X166101866Y-106504751D01*
X166108309Y-106499807D01*
X166117407Y-106487951D01*
X166191602Y-106391258D01*
X166196549Y-106384811D01*
X166252018Y-106250895D01*
X166270938Y-106107186D01*
X166252018Y-105963477D01*
X166248704Y-105955475D01*
X166199661Y-105837073D01*
X166199659Y-105837070D01*
X166196549Y-105829561D01*
X166191600Y-105823112D01*
X166189422Y-105819339D01*
X166172951Y-105751438D01*
X166195803Y-105685412D01*
X166221322Y-105658965D01*
X166236177Y-105647566D01*
X166236178Y-105647565D01*
X166242621Y-105642621D01*
X166255126Y-105626325D01*
X166325914Y-105534072D01*
X166330861Y-105527625D01*
X166352031Y-105476516D01*
X166383218Y-105401223D01*
X166383219Y-105401221D01*
X166386330Y-105393709D01*
X166405250Y-105250000D01*
X166386330Y-105106291D01*
X166330861Y-104972375D01*
X166242621Y-104857379D01*
X166127625Y-104769139D01*
X166091593Y-104754214D01*
X166001223Y-104716782D01*
X166001221Y-104716781D01*
X165993709Y-104713670D01*
X165850000Y-104694750D01*
X165706291Y-104713670D01*
X165698779Y-104716781D01*
X165698777Y-104716782D01*
X165608407Y-104754214D01*
X165572375Y-104769139D01*
X165457379Y-104857379D01*
X165369139Y-104972375D01*
X165313670Y-105106291D01*
X165294750Y-105250000D01*
X165313670Y-105393709D01*
X165316781Y-105401221D01*
X165316782Y-105401223D01*
X165362355Y-105511246D01*
X165369139Y-105527625D01*
X165374086Y-105534072D01*
X165376266Y-105537847D01*
X165392737Y-105605748D01*
X165369885Y-105671774D01*
X165344366Y-105698221D01*
X165334183Y-105706035D01*
X165323067Y-105714565D01*
X165318123Y-105721008D01*
X165302152Y-105741822D01*
X165234827Y-105829561D01*
X165225751Y-105851472D01*
X165183165Y-105954287D01*
X165179358Y-105963477D01*
X165160438Y-106107186D01*
X165161499Y-106115245D01*
X165161499Y-106115246D01*
X165176732Y-106230952D01*
X165165966Y-106299987D01*
X165119586Y-106352243D01*
X165071661Y-106369047D01*
X165071211Y-106369045D01*
X164911055Y-106407495D01*
X164904414Y-106410923D01*
X164904413Y-106410923D01*
X164899362Y-106413530D01*
X164764693Y-106483038D01*
X164640576Y-106591312D01*
X164545868Y-106726067D01*
X164543152Y-106733032D01*
X164543152Y-106733033D01*
X164520832Y-106790281D01*
X164486038Y-106879524D01*
X164469500Y-107005146D01*
X164469500Y-108191302D01*
X161530500Y-108191302D01*
X161530500Y-107008698D01*
X161527110Y-106980682D01*
X161516610Y-106893911D01*
X161516609Y-106893907D01*
X161515711Y-106886486D01*
X161457491Y-106732411D01*
X161364200Y-106596672D01*
X161241223Y-106487104D01*
X161095661Y-106410032D01*
X160935916Y-106369907D01*
X160850328Y-106369459D01*
X160778685Y-106369084D01*
X160778684Y-106369084D01*
X160771211Y-106369045D01*
X160763948Y-106370789D01*
X160763945Y-106370789D01*
X160703708Y-106385251D01*
X160611055Y-106407495D01*
X160604414Y-106410923D01*
X160604413Y-106410923D01*
X160599362Y-106413530D01*
X160464693Y-106483038D01*
X160340576Y-106591312D01*
X160245868Y-106726067D01*
X160243152Y-106733032D01*
X160243152Y-106733033D01*
X160220832Y-106790281D01*
X160186038Y-106879524D01*
X160169500Y-107005146D01*
X160169500Y-108191302D01*
X156929426Y-108191302D01*
X156909719Y-108066874D01*
X156848528Y-107946780D01*
X156753220Y-107851472D01*
X156633126Y-107790281D01*
X156500000Y-107769196D01*
X156366874Y-107790281D01*
X156246780Y-107851472D01*
X156151472Y-107946780D01*
X156090281Y-108066874D01*
X156069196Y-108200000D01*
X147514966Y-108200000D01*
X147509719Y-108166874D01*
X147448528Y-108046780D01*
X147353220Y-107951472D01*
X147233126Y-107890281D01*
X147100000Y-107869196D01*
X146966874Y-107890281D01*
X146846780Y-107951472D01*
X146751472Y-108046780D01*
X146690281Y-108166874D01*
X146669196Y-108300000D01*
X130236144Y-108300000D01*
X130277322Y-108254507D01*
X130281171Y-108246562D01*
X130281174Y-108246558D01*
X130329737Y-108146324D01*
X130329738Y-108146322D01*
X130333588Y-108138375D01*
X130338409Y-108109719D01*
X130354204Y-108015835D01*
X130354204Y-108015832D01*
X130354997Y-108011120D01*
X130355133Y-108000000D01*
X130354337Y-107994440D01*
X130338092Y-107881005D01*
X130338091Y-107881002D01*
X130336839Y-107872259D01*
X130327388Y-107851472D01*
X130287084Y-107762828D01*
X130287083Y-107762826D01*
X130283428Y-107754788D01*
X130236220Y-107700000D01*
X141083698Y-107700000D01*
X141104783Y-107833126D01*
X141165974Y-107953220D01*
X141261282Y-108048528D01*
X141381376Y-108109719D01*
X141514502Y-108130804D01*
X141647628Y-108109719D01*
X141767722Y-108048528D01*
X141863030Y-107953220D01*
X141924221Y-107833126D01*
X141945306Y-107700000D01*
X153769196Y-107700000D01*
X153790281Y-107833126D01*
X153851472Y-107953220D01*
X153946780Y-108048528D01*
X154066874Y-108109719D01*
X154200000Y-108130804D01*
X154333126Y-108109719D01*
X154453220Y-108048528D01*
X154548528Y-107953220D01*
X154609719Y-107833126D01*
X154630804Y-107700000D01*
X154609719Y-107566874D01*
X154548528Y-107446780D01*
X154453220Y-107351472D01*
X154333126Y-107290281D01*
X154200000Y-107269196D01*
X154066874Y-107290281D01*
X153946780Y-107351472D01*
X153851472Y-107446780D01*
X153790281Y-107566874D01*
X153769196Y-107700000D01*
X141945306Y-107700000D01*
X141924221Y-107566874D01*
X141863030Y-107446780D01*
X141767722Y-107351472D01*
X141647628Y-107290281D01*
X141514502Y-107269196D01*
X141381376Y-107290281D01*
X141261282Y-107351472D01*
X141165974Y-107446780D01*
X141104783Y-107566874D01*
X141083698Y-107700000D01*
X130236220Y-107700000D01*
X130227913Y-107690359D01*
X130204958Y-107663718D01*
X130204956Y-107663716D01*
X130199193Y-107657028D01*
X130119367Y-107605288D01*
X130098317Y-107591644D01*
X130098314Y-107591643D01*
X130090906Y-107586841D01*
X130082446Y-107584311D01*
X130082444Y-107584310D01*
X129975736Y-107552397D01*
X129967273Y-107549866D01*
X129958440Y-107549812D01*
X129910027Y-107549516D01*
X129838231Y-107549078D01*
X129714155Y-107584539D01*
X129605019Y-107653399D01*
X129519596Y-107750122D01*
X129464754Y-107866932D01*
X129463396Y-107875656D01*
X129463395Y-107875658D01*
X129457537Y-107913284D01*
X129427773Y-107976497D01*
X129368558Y-108013583D01*
X129298693Y-108012769D01*
X129240360Y-107974312D01*
X129218790Y-107937430D01*
X128989003Y-107319550D01*
X128987295Y-107314645D01*
X128950045Y-107200000D01*
X152269196Y-107200000D01*
X152290281Y-107333126D01*
X152351472Y-107453220D01*
X152446780Y-107548528D01*
X152566874Y-107609719D01*
X152700000Y-107630804D01*
X152833126Y-107609719D01*
X152953220Y-107548528D01*
X153048528Y-107453220D01*
X153109719Y-107333126D01*
X153130804Y-107200000D01*
X153109719Y-107066874D01*
X153048528Y-106946780D01*
X152976248Y-106874500D01*
X154769196Y-106874500D01*
X154790281Y-107007626D01*
X154851472Y-107127720D01*
X154946780Y-107223028D01*
X155066874Y-107284219D01*
X155200000Y-107305304D01*
X155333126Y-107284219D01*
X155453220Y-107223028D01*
X155548528Y-107127720D01*
X155609719Y-107007626D01*
X155630804Y-106874500D01*
X155609719Y-106741374D01*
X155548528Y-106621280D01*
X155453220Y-106525972D01*
X155333126Y-106464781D01*
X155200000Y-106443696D01*
X155066874Y-106464781D01*
X154946780Y-106525972D01*
X154851472Y-106621280D01*
X154790281Y-106741374D01*
X154769196Y-106874500D01*
X152976248Y-106874500D01*
X152953220Y-106851472D01*
X152833126Y-106790281D01*
X152700000Y-106769196D01*
X152566874Y-106790281D01*
X152446780Y-106851472D01*
X152351472Y-106946780D01*
X152290281Y-107066874D01*
X152269196Y-107200000D01*
X128950045Y-107200000D01*
X128722601Y-106500000D01*
X140469196Y-106500000D01*
X140490281Y-106633126D01*
X140551472Y-106753220D01*
X140646780Y-106848528D01*
X140766874Y-106909719D01*
X140900000Y-106930804D01*
X141033126Y-106909719D01*
X141153220Y-106848528D01*
X141248528Y-106753220D01*
X141309719Y-106633126D01*
X141330804Y-106500000D01*
X141309719Y-106366874D01*
X141248528Y-106246780D01*
X141201748Y-106200000D01*
X148069196Y-106200000D01*
X148090281Y-106333126D01*
X148151472Y-106453220D01*
X148246780Y-106548528D01*
X148366874Y-106609719D01*
X148500000Y-106630804D01*
X148633126Y-106609719D01*
X148753220Y-106548528D01*
X148781628Y-106520120D01*
X148842951Y-106486635D01*
X148912643Y-106491619D01*
X148925600Y-106497314D01*
X149012810Y-106541750D01*
X149145936Y-106562835D01*
X149279062Y-106541750D01*
X149399156Y-106480559D01*
X149494464Y-106385251D01*
X149498894Y-106376557D01*
X149498896Y-106376554D01*
X149542823Y-106290341D01*
X149590797Y-106239544D01*
X149658618Y-106222749D01*
X149672700Y-106224161D01*
X149703061Y-106228970D01*
X149836187Y-106207885D01*
X149956281Y-106146694D01*
X149987730Y-106115245D01*
X150012934Y-106090042D01*
X150074257Y-106056558D01*
X150143949Y-106061543D01*
X150188295Y-106090043D01*
X150246780Y-106148528D01*
X150366874Y-106209719D01*
X150500000Y-106230804D01*
X150633126Y-106209719D01*
X150753220Y-106148528D01*
X150848528Y-106053220D01*
X150875811Y-105999674D01*
X150923785Y-105948878D01*
X150991606Y-105932083D01*
X151045568Y-105950906D01*
X151046780Y-105948528D01*
X151166874Y-106009719D01*
X151300000Y-106030804D01*
X151433126Y-106009719D01*
X151452201Y-106000000D01*
X152169196Y-106000000D01*
X152190281Y-106133126D01*
X152251472Y-106253220D01*
X152346780Y-106348528D01*
X152466874Y-106409719D01*
X152600000Y-106430804D01*
X152733126Y-106409719D01*
X152853220Y-106348528D01*
X152918758Y-106282990D01*
X162475643Y-106282990D01*
X162477313Y-106291272D01*
X162501259Y-106410032D01*
X162503830Y-106422785D01*
X162507666Y-106430314D01*
X162507667Y-106430316D01*
X162537034Y-106487951D01*
X162568573Y-106549849D01*
X162574293Y-106556069D01*
X162574294Y-106556071D01*
X162645150Y-106633126D01*
X162665101Y-106654823D01*
X162672288Y-106659279D01*
X162672289Y-106659280D01*
X162742419Y-106702762D01*
X162786303Y-106729971D01*
X162794418Y-106732329D01*
X162794421Y-106732330D01*
X162876032Y-106756040D01*
X162923249Y-106769758D01*
X162929731Y-106770234D01*
X162931079Y-106770333D01*
X162931080Y-106770333D01*
X162933354Y-106770500D01*
X163035727Y-106770500D01*
X163103465Y-106761221D01*
X163132917Y-106757187D01*
X163132918Y-106757187D01*
X163141289Y-106756040D01*
X163184260Y-106737445D01*
X163264407Y-106702762D01*
X163264410Y-106702760D01*
X163272168Y-106699403D01*
X163382996Y-106609657D01*
X163387891Y-106602769D01*
X163387893Y-106602767D01*
X163454073Y-106509641D01*
X163465606Y-106493413D01*
X163513913Y-106359236D01*
X163524357Y-106217010D01*
X163509157Y-106141626D01*
X163497841Y-106085501D01*
X163497840Y-106085499D01*
X163496170Y-106077215D01*
X163483010Y-106051386D01*
X163435263Y-105957680D01*
X163431427Y-105950151D01*
X163334899Y-105845177D01*
X163318026Y-105834715D01*
X163220881Y-105774483D01*
X163220880Y-105774482D01*
X163213697Y-105770029D01*
X163205582Y-105767671D01*
X163205579Y-105767670D01*
X163109918Y-105739878D01*
X163076751Y-105730242D01*
X163070269Y-105729766D01*
X163068921Y-105729667D01*
X163068920Y-105729667D01*
X163066646Y-105729500D01*
X162964273Y-105729500D01*
X162896535Y-105738779D01*
X162867083Y-105742813D01*
X162867082Y-105742813D01*
X162858711Y-105743960D01*
X162850953Y-105747317D01*
X162850954Y-105747317D01*
X162735593Y-105797238D01*
X162735590Y-105797240D01*
X162727832Y-105800597D01*
X162617004Y-105890343D01*
X162612109Y-105897231D01*
X162612107Y-105897233D01*
X162553117Y-105980241D01*
X162534394Y-106006587D01*
X162486087Y-106140764D01*
X162475643Y-106282990D01*
X152918758Y-106282990D01*
X152948528Y-106253220D01*
X153009719Y-106133126D01*
X153030804Y-106000000D01*
X153009719Y-105866874D01*
X152948528Y-105746780D01*
X152853220Y-105651472D01*
X152733126Y-105590281D01*
X152600000Y-105569196D01*
X152466874Y-105590281D01*
X152346780Y-105651472D01*
X152251472Y-105746780D01*
X152190281Y-105866874D01*
X152169196Y-106000000D01*
X151452201Y-106000000D01*
X151553220Y-105948528D01*
X151648528Y-105853220D01*
X151709719Y-105733126D01*
X151730804Y-105600000D01*
X151709719Y-105466874D01*
X151648528Y-105346780D01*
X151553220Y-105251472D01*
X151433126Y-105190281D01*
X151300000Y-105169196D01*
X151166874Y-105190281D01*
X151046780Y-105251472D01*
X150951472Y-105346780D01*
X150924189Y-105400326D01*
X150876215Y-105451122D01*
X150808394Y-105467917D01*
X150754432Y-105449094D01*
X150753220Y-105451472D01*
X150717214Y-105433126D01*
X150633126Y-105390281D01*
X150500000Y-105369196D01*
X150366874Y-105390281D01*
X150246780Y-105451472D01*
X150190128Y-105508124D01*
X150128807Y-105541609D01*
X150059115Y-105536625D01*
X150014767Y-105508124D01*
X149956281Y-105449638D01*
X149836187Y-105388447D01*
X149703061Y-105367362D01*
X149569935Y-105388447D01*
X149449841Y-105449638D01*
X149354533Y-105544946D01*
X149350103Y-105553640D01*
X149350101Y-105553643D01*
X149306174Y-105639856D01*
X149258200Y-105690653D01*
X149190379Y-105707448D01*
X149176297Y-105706036D01*
X149145936Y-105701227D01*
X149012810Y-105722312D01*
X148892716Y-105783503D01*
X148864308Y-105811911D01*
X148802985Y-105845396D01*
X148733293Y-105840412D01*
X148720336Y-105834717D01*
X148633126Y-105790281D01*
X148500000Y-105769196D01*
X148366874Y-105790281D01*
X148246780Y-105851472D01*
X148151472Y-105946780D01*
X148090281Y-106066874D01*
X148069196Y-106200000D01*
X141201748Y-106200000D01*
X141153220Y-106151472D01*
X141033126Y-106090281D01*
X140900000Y-106069196D01*
X140766874Y-106090281D01*
X140646780Y-106151472D01*
X140551472Y-106246780D01*
X140490281Y-106366874D01*
X140469196Y-106500000D01*
X128722601Y-106500000D01*
X128700922Y-106433280D01*
X128699421Y-106428308D01*
X128537128Y-105847042D01*
X128450206Y-105535723D01*
X128448917Y-105530704D01*
X128347896Y-105100000D01*
X138819196Y-105100000D01*
X138840281Y-105233126D01*
X138901472Y-105353220D01*
X138996780Y-105448528D01*
X139116874Y-105509719D01*
X139250000Y-105530804D01*
X139383126Y-105509719D01*
X139503220Y-105448528D01*
X139598528Y-105353220D01*
X139625645Y-105300000D01*
X146569196Y-105300000D01*
X146590281Y-105433126D01*
X146651472Y-105553220D01*
X146746780Y-105648528D01*
X146866874Y-105709719D01*
X147000000Y-105730804D01*
X147133126Y-105709719D01*
X147253220Y-105648528D01*
X147348528Y-105553220D01*
X147409719Y-105433126D01*
X147430804Y-105300000D01*
X147409719Y-105166874D01*
X147348528Y-105046780D01*
X147253220Y-104951472D01*
X147133126Y-104890281D01*
X147000000Y-104869196D01*
X146866874Y-104890281D01*
X146746780Y-104951472D01*
X146651472Y-105046780D01*
X146590281Y-105166874D01*
X146569196Y-105300000D01*
X139625645Y-105300000D01*
X139659719Y-105233126D01*
X139680804Y-105100000D01*
X139659719Y-104966874D01*
X139598528Y-104846780D01*
X139503220Y-104751472D01*
X139383126Y-104690281D01*
X139250000Y-104669196D01*
X139116874Y-104690281D01*
X138996780Y-104751472D01*
X138901472Y-104846780D01*
X138840281Y-104966874D01*
X138819196Y-105100000D01*
X128347896Y-105100000D01*
X128237293Y-104628440D01*
X128236219Y-104623385D01*
X128232715Y-104605013D01*
X128098227Y-103900000D01*
X138669196Y-103900000D01*
X138690281Y-104033126D01*
X138751472Y-104153220D01*
X138846780Y-104248528D01*
X138966874Y-104309719D01*
X139100000Y-104330804D01*
X139233126Y-104309719D01*
X139353220Y-104248528D01*
X139448528Y-104153220D01*
X139509719Y-104033126D01*
X139514966Y-104000000D01*
X146369196Y-104000000D01*
X146390281Y-104133126D01*
X146451472Y-104253220D01*
X146546780Y-104348528D01*
X146666874Y-104409719D01*
X146800000Y-104430804D01*
X146933126Y-104409719D01*
X147053220Y-104348528D01*
X147148528Y-104253220D01*
X147209719Y-104133126D01*
X147230804Y-104000000D01*
X147209719Y-103866874D01*
X147148528Y-103746780D01*
X147053220Y-103651472D01*
X146933126Y-103590281D01*
X146800000Y-103569196D01*
X146666874Y-103590281D01*
X146546780Y-103651472D01*
X146451472Y-103746780D01*
X146390281Y-103866874D01*
X146369196Y-104000000D01*
X139514966Y-104000000D01*
X139530804Y-103900000D01*
X139509719Y-103766874D01*
X139448528Y-103646780D01*
X139353220Y-103551472D01*
X139233126Y-103490281D01*
X139100000Y-103469196D01*
X138966874Y-103490281D01*
X138846780Y-103551472D01*
X138751472Y-103646780D01*
X138690281Y-103766874D01*
X138669196Y-103900000D01*
X128098227Y-103900000D01*
X128062567Y-103713066D01*
X128061701Y-103707948D01*
X128053953Y-103655475D01*
X127926324Y-102791175D01*
X127925673Y-102786023D01*
X127899815Y-102540000D01*
X128619196Y-102540000D01*
X128640281Y-102673126D01*
X128701472Y-102793220D01*
X128796780Y-102888528D01*
X128916874Y-102949719D01*
X129050000Y-102970804D01*
X129183126Y-102949719D01*
X129303220Y-102888528D01*
X129398528Y-102793220D01*
X129459719Y-102673126D01*
X129480804Y-102540000D01*
X129459719Y-102406874D01*
X129398528Y-102286780D01*
X129303220Y-102191472D01*
X129183126Y-102130281D01*
X129050000Y-102109196D01*
X128916874Y-102130281D01*
X128796780Y-102191472D01*
X128701472Y-102286780D01*
X128640281Y-102406874D01*
X128619196Y-102540000D01*
X127899815Y-102540000D01*
X127828802Y-101864358D01*
X127828368Y-101859182D01*
X127828182Y-101856233D01*
X145112963Y-101856233D01*
X145134048Y-101989359D01*
X145195239Y-102109453D01*
X145290547Y-102204761D01*
X145410641Y-102265952D01*
X145543767Y-102287037D01*
X145676893Y-102265952D01*
X145796987Y-102204761D01*
X145892295Y-102109453D01*
X145953486Y-101989359D01*
X145974571Y-101856233D01*
X145953486Y-101723107D01*
X145892295Y-101603013D01*
X145796987Y-101507705D01*
X145676893Y-101446514D01*
X145543767Y-101425429D01*
X145410641Y-101446514D01*
X145290547Y-101507705D01*
X145195239Y-101603013D01*
X145134048Y-101723107D01*
X145112963Y-101856233D01*
X127828182Y-101856233D01*
X127793188Y-101300000D01*
X130069196Y-101300000D01*
X130090281Y-101433126D01*
X130151472Y-101553220D01*
X130246780Y-101648528D01*
X130366874Y-101709719D01*
X130500000Y-101730804D01*
X130633126Y-101709719D01*
X130753220Y-101648528D01*
X130848528Y-101553220D01*
X130909719Y-101433126D01*
X130930804Y-101300000D01*
X131269196Y-101300000D01*
X131290281Y-101433126D01*
X131351472Y-101553220D01*
X131446780Y-101648528D01*
X131566874Y-101709719D01*
X131700000Y-101730804D01*
X131833126Y-101709719D01*
X131953220Y-101648528D01*
X132048528Y-101553220D01*
X132109719Y-101433126D01*
X132130804Y-101300000D01*
X132109719Y-101166874D01*
X132048528Y-101046780D01*
X131953220Y-100951472D01*
X131833126Y-100890281D01*
X131700000Y-100869196D01*
X131566874Y-100890281D01*
X131446780Y-100951472D01*
X131351472Y-101046780D01*
X131290281Y-101166874D01*
X131269196Y-101300000D01*
X130930804Y-101300000D01*
X130909719Y-101166874D01*
X130848528Y-101046780D01*
X130753220Y-100951472D01*
X130633126Y-100890281D01*
X130500000Y-100869196D01*
X130366874Y-100890281D01*
X130246780Y-100951472D01*
X130151472Y-101046780D01*
X130090281Y-101166874D01*
X130069196Y-101300000D01*
X127793188Y-101300000D01*
X127770181Y-100934317D01*
X127769963Y-100929128D01*
X127767258Y-100800000D01*
X146969196Y-100800000D01*
X146990281Y-100933126D01*
X147051472Y-101053220D01*
X147146780Y-101148528D01*
X147266874Y-101209719D01*
X147400000Y-101230804D01*
X147533126Y-101209719D01*
X147653220Y-101148528D01*
X147748528Y-101053220D01*
X147809719Y-100933126D01*
X147830804Y-100800000D01*
X147826844Y-100775000D01*
X152394196Y-100775000D01*
X152415281Y-100908126D01*
X152476472Y-101028220D01*
X152571780Y-101123528D01*
X152620845Y-101148528D01*
X152683177Y-101180288D01*
X152683179Y-101180289D01*
X152691874Y-101184719D01*
X152696546Y-101185459D01*
X152751916Y-101223318D01*
X152779115Y-101287676D01*
X152778397Y-101321209D01*
X152761169Y-101429983D01*
X152782254Y-101563109D01*
X152843445Y-101683203D01*
X152938753Y-101778511D01*
X153058847Y-101839702D01*
X153191973Y-101860787D01*
X153325099Y-101839702D01*
X153404718Y-101799134D01*
X153473387Y-101786238D01*
X153538128Y-101812514D01*
X153578385Y-101869621D01*
X153583483Y-101890207D01*
X153590281Y-101933126D01*
X153651472Y-102053220D01*
X153746780Y-102148528D01*
X153866874Y-102209719D01*
X154000000Y-102230804D01*
X154009641Y-102229277D01*
X154009642Y-102229277D01*
X154047343Y-102223306D01*
X154116636Y-102232261D01*
X154170088Y-102277257D01*
X154184615Y-102314573D01*
X154185740Y-102314208D01*
X154188754Y-102323484D01*
X154190281Y-102333126D01*
X154251472Y-102453220D01*
X154310571Y-102512319D01*
X154344056Y-102573642D01*
X154339072Y-102643334D01*
X154310571Y-102687681D01*
X154251472Y-102746780D01*
X154190281Y-102866874D01*
X154169196Y-103000000D01*
X154190281Y-103133126D01*
X154194712Y-103141822D01*
X154194713Y-103141825D01*
X154223436Y-103198196D01*
X154236333Y-103266865D01*
X154210057Y-103331606D01*
X154152951Y-103371863D01*
X154093557Y-103376966D01*
X154044500Y-103369196D01*
X153911374Y-103390281D01*
X153791280Y-103451472D01*
X153695972Y-103546780D01*
X153634781Y-103666874D01*
X153623219Y-103739878D01*
X153622247Y-103746012D01*
X153592318Y-103809147D01*
X153533007Y-103846079D01*
X153463144Y-103845081D01*
X153443479Y-103837100D01*
X153388619Y-103809147D01*
X153339359Y-103784048D01*
X153206233Y-103762963D01*
X153073107Y-103784048D01*
X152953013Y-103845239D01*
X152857705Y-103940547D01*
X152796514Y-104060641D01*
X152775429Y-104193767D01*
X152796514Y-104326893D01*
X152857705Y-104446987D01*
X152953013Y-104542295D01*
X153073107Y-104603486D01*
X153206233Y-104624571D01*
X153339359Y-104603486D01*
X153459453Y-104542295D01*
X153554761Y-104446987D01*
X153615952Y-104326893D01*
X153628486Y-104247754D01*
X153658415Y-104184620D01*
X153717726Y-104147688D01*
X153787589Y-104148686D01*
X153807252Y-104156666D01*
X153911374Y-104209719D01*
X154044500Y-104230804D01*
X154177626Y-104209719D01*
X154297720Y-104148528D01*
X154393028Y-104053220D01*
X154454219Y-103933126D01*
X154475304Y-103800000D01*
X154454219Y-103666874D01*
X154446372Y-103651472D01*
X154421064Y-103601804D01*
X154408167Y-103533135D01*
X154434443Y-103468394D01*
X154491549Y-103428137D01*
X154550943Y-103423034D01*
X154600000Y-103430804D01*
X154733126Y-103409719D01*
X154853220Y-103348528D01*
X154948528Y-103253220D01*
X155009719Y-103133126D01*
X155030804Y-103000000D01*
X155009719Y-102866874D01*
X154948528Y-102746780D01*
X154889429Y-102687681D01*
X154855944Y-102626358D01*
X154858227Y-102594440D01*
X168244901Y-102594440D01*
X168261633Y-102722394D01*
X168313605Y-102840510D01*
X168396639Y-102939291D01*
X168403990Y-102944184D01*
X168403992Y-102944186D01*
X168487841Y-103000000D01*
X168504060Y-103010796D01*
X168512488Y-103013429D01*
X168512490Y-103013430D01*
X168560281Y-103028361D01*
X168627233Y-103049278D01*
X168636067Y-103049440D01*
X168672777Y-103050113D01*
X168756255Y-103051643D01*
X168764771Y-103049321D01*
X168764773Y-103049321D01*
X168872236Y-103020023D01*
X168872239Y-103020022D01*
X168880755Y-103017700D01*
X168990724Y-102950179D01*
X169077322Y-102854507D01*
X169081171Y-102846562D01*
X169081174Y-102846558D01*
X169129737Y-102746324D01*
X169129738Y-102746322D01*
X169133588Y-102738375D01*
X169144565Y-102673126D01*
X169154204Y-102615835D01*
X169154204Y-102615832D01*
X169154997Y-102611120D01*
X169155133Y-102600000D01*
X169153087Y-102585710D01*
X169138092Y-102481005D01*
X169138091Y-102481002D01*
X169136839Y-102472259D01*
X169130783Y-102458939D01*
X169087084Y-102362828D01*
X169087083Y-102362826D01*
X169083428Y-102354788D01*
X169048777Y-102314573D01*
X169004958Y-102263718D01*
X169004956Y-102263716D01*
X168999193Y-102257028D01*
X168956378Y-102229277D01*
X168898317Y-102191644D01*
X168898314Y-102191643D01*
X168890906Y-102186841D01*
X168882446Y-102184311D01*
X168882444Y-102184310D01*
X168775736Y-102152397D01*
X168767273Y-102149866D01*
X168758440Y-102149812D01*
X168710027Y-102149516D01*
X168638231Y-102149078D01*
X168514155Y-102184539D01*
X168405019Y-102253399D01*
X168319596Y-102350122D01*
X168264754Y-102466932D01*
X168263396Y-102475656D01*
X168263395Y-102475658D01*
X168257687Y-102512319D01*
X168244901Y-102594440D01*
X154858227Y-102594440D01*
X154860928Y-102556666D01*
X154889429Y-102512319D01*
X154948528Y-102453220D01*
X155009719Y-102333126D01*
X155030804Y-102200000D01*
X155009719Y-102066874D01*
X154948528Y-101946780D01*
X154853220Y-101851472D01*
X154733126Y-101790281D01*
X154600000Y-101769196D01*
X154590359Y-101770723D01*
X154590358Y-101770723D01*
X154552657Y-101776694D01*
X154483364Y-101767739D01*
X154429912Y-101722743D01*
X154415385Y-101685427D01*
X154414260Y-101685792D01*
X154411246Y-101676516D01*
X154409719Y-101666874D01*
X154348528Y-101546780D01*
X154253220Y-101451472D01*
X154133126Y-101390281D01*
X154000000Y-101369196D01*
X153866874Y-101390281D01*
X153797892Y-101425429D01*
X153787255Y-101430849D01*
X153718586Y-101443745D01*
X153653845Y-101417469D01*
X153613588Y-101360362D01*
X153608490Y-101339776D01*
X153602190Y-101300000D01*
X169169196Y-101300000D01*
X169190281Y-101433126D01*
X169251472Y-101553220D01*
X169346780Y-101648528D01*
X169466874Y-101709719D01*
X169600000Y-101730804D01*
X169733126Y-101709719D01*
X169853220Y-101648528D01*
X169948528Y-101553220D01*
X170009719Y-101433126D01*
X170030804Y-101300000D01*
X170009719Y-101166874D01*
X169948528Y-101046780D01*
X169853220Y-100951472D01*
X169733126Y-100890281D01*
X169600000Y-100869196D01*
X169466874Y-100890281D01*
X169346780Y-100951472D01*
X169251472Y-101046780D01*
X169190281Y-101166874D01*
X169169196Y-101300000D01*
X153602190Y-101300000D01*
X153601692Y-101296857D01*
X153540501Y-101176763D01*
X153445193Y-101081455D01*
X153355241Y-101035622D01*
X153333796Y-101024695D01*
X153333794Y-101024694D01*
X153325099Y-101020264D01*
X153320427Y-101019524D01*
X153265057Y-100981665D01*
X153237858Y-100917307D01*
X153238576Y-100883771D01*
X153254277Y-100784641D01*
X153255725Y-100775500D01*
X168139196Y-100775500D01*
X168160281Y-100908626D01*
X168221472Y-101028720D01*
X168316780Y-101124028D01*
X168436874Y-101185219D01*
X168570000Y-101206304D01*
X168703126Y-101185219D01*
X168823220Y-101124028D01*
X168918528Y-101028720D01*
X168979719Y-100908626D01*
X169000804Y-100775500D01*
X168979719Y-100642374D01*
X168918528Y-100522280D01*
X168823220Y-100426972D01*
X168703126Y-100365781D01*
X168570000Y-100344696D01*
X168436874Y-100365781D01*
X168316780Y-100426972D01*
X168221472Y-100522280D01*
X168160281Y-100642374D01*
X168139196Y-100775500D01*
X153255725Y-100775500D01*
X153255804Y-100775000D01*
X153234719Y-100641874D01*
X153173528Y-100521780D01*
X153078220Y-100426472D01*
X152958126Y-100365281D01*
X152825000Y-100344196D01*
X152691874Y-100365281D01*
X152571780Y-100426472D01*
X152476472Y-100521780D01*
X152415281Y-100641874D01*
X152394196Y-100775000D01*
X147826844Y-100775000D01*
X147809719Y-100666874D01*
X147748528Y-100546780D01*
X147653220Y-100451472D01*
X147533126Y-100390281D01*
X147400000Y-100369196D01*
X147266874Y-100390281D01*
X147146780Y-100451472D01*
X147051472Y-100546780D01*
X146990281Y-100666874D01*
X146969196Y-100800000D01*
X127767258Y-100800000D01*
X127761809Y-100539878D01*
X127750554Y-100002578D01*
X127750554Y-99997403D01*
X127752393Y-99909641D01*
X127752595Y-99900000D01*
X149169196Y-99900000D01*
X149190281Y-100033126D01*
X149251472Y-100153220D01*
X149346780Y-100248528D01*
X149466874Y-100309719D01*
X149600000Y-100330804D01*
X149733126Y-100309719D01*
X149853220Y-100248528D01*
X149948528Y-100153220D01*
X150009719Y-100033126D01*
X150022885Y-99950000D01*
X150743696Y-99950000D01*
X150764781Y-100083126D01*
X150825972Y-100203220D01*
X150921280Y-100298528D01*
X151041374Y-100359719D01*
X151174500Y-100380804D01*
X151307626Y-100359719D01*
X151427720Y-100298528D01*
X151523028Y-100203220D01*
X151584219Y-100083126D01*
X151605304Y-99950000D01*
X151584219Y-99816874D01*
X151523028Y-99696780D01*
X151427720Y-99601472D01*
X151307626Y-99540281D01*
X151174500Y-99519196D01*
X151041374Y-99540281D01*
X150921280Y-99601472D01*
X150825972Y-99696780D01*
X150764781Y-99816874D01*
X150743696Y-99950000D01*
X150022885Y-99950000D01*
X150030804Y-99900000D01*
X150009719Y-99766874D01*
X149948528Y-99646780D01*
X149853220Y-99551472D01*
X149733126Y-99490281D01*
X149600000Y-99469196D01*
X149466874Y-99490281D01*
X149346780Y-99551472D01*
X149251472Y-99646780D01*
X149190281Y-99766874D01*
X149169196Y-99900000D01*
X127752595Y-99900000D01*
X127765256Y-99295565D01*
X127769963Y-99070872D01*
X127770181Y-99065683D01*
X127793188Y-98700000D01*
X129969196Y-98700000D01*
X129990281Y-98833126D01*
X130051472Y-98953220D01*
X130146780Y-99048528D01*
X130266874Y-99109719D01*
X130400000Y-99130804D01*
X130533126Y-99109719D01*
X130653220Y-99048528D01*
X130748528Y-98953220D01*
X130809719Y-98833126D01*
X130830804Y-98700000D01*
X131169196Y-98700000D01*
X131190281Y-98833126D01*
X131251472Y-98953220D01*
X131346780Y-99048528D01*
X131466874Y-99109719D01*
X131600000Y-99130804D01*
X131733126Y-99109719D01*
X131853220Y-99048528D01*
X131948528Y-98953220D01*
X132009719Y-98833126D01*
X132030804Y-98700000D01*
X132009719Y-98566874D01*
X131948528Y-98446780D01*
X131901748Y-98400000D01*
X147769196Y-98400000D01*
X147790281Y-98533126D01*
X147851472Y-98653220D01*
X147946780Y-98748528D01*
X148066874Y-98809719D01*
X148200000Y-98830804D01*
X148333126Y-98809719D01*
X148453220Y-98748528D01*
X148548528Y-98653220D01*
X148575645Y-98600000D01*
X165044696Y-98600000D01*
X165065781Y-98733126D01*
X165126972Y-98853220D01*
X165222280Y-98948528D01*
X165342374Y-99009719D01*
X165475500Y-99030804D01*
X165608626Y-99009719D01*
X165728720Y-98948528D01*
X165824028Y-98853220D01*
X165885219Y-98733126D01*
X165890466Y-98700000D01*
X168979196Y-98700000D01*
X169000281Y-98833126D01*
X169061472Y-98953220D01*
X169156780Y-99048528D01*
X169276874Y-99109719D01*
X169410000Y-99130804D01*
X169543126Y-99109719D01*
X169663220Y-99048528D01*
X169758528Y-98953220D01*
X169819719Y-98833126D01*
X169840804Y-98700000D01*
X169819719Y-98566874D01*
X169758528Y-98446780D01*
X169663220Y-98351472D01*
X169543126Y-98290281D01*
X169410000Y-98269196D01*
X169276874Y-98290281D01*
X169156780Y-98351472D01*
X169061472Y-98446780D01*
X169000281Y-98566874D01*
X168979196Y-98700000D01*
X165890466Y-98700000D01*
X165906304Y-98600000D01*
X165885219Y-98466874D01*
X165824028Y-98346780D01*
X165728720Y-98251472D01*
X165608626Y-98190281D01*
X165475500Y-98169196D01*
X165342374Y-98190281D01*
X165222280Y-98251472D01*
X165126972Y-98346780D01*
X165065781Y-98466874D01*
X165044696Y-98600000D01*
X148575645Y-98600000D01*
X148609719Y-98533126D01*
X148630804Y-98400000D01*
X148609719Y-98266874D01*
X148548528Y-98146780D01*
X148453220Y-98051472D01*
X148352201Y-98000000D01*
X150769196Y-98000000D01*
X150790281Y-98133126D01*
X150851472Y-98253220D01*
X150946780Y-98348528D01*
X151066874Y-98409719D01*
X151200000Y-98430804D01*
X151333126Y-98409719D01*
X151453220Y-98348528D01*
X151548528Y-98253220D01*
X151609719Y-98133126D01*
X151630804Y-98000000D01*
X156269196Y-98000000D01*
X156290281Y-98133126D01*
X156351472Y-98253220D01*
X156446780Y-98348528D01*
X156566874Y-98409719D01*
X156700000Y-98430804D01*
X156833126Y-98409719D01*
X156953220Y-98348528D01*
X157048528Y-98253220D01*
X157109719Y-98133126D01*
X157130804Y-98000000D01*
X157109719Y-97866874D01*
X157048528Y-97746780D01*
X156953220Y-97651472D01*
X156833126Y-97590281D01*
X156700000Y-97569196D01*
X156566874Y-97590281D01*
X156446780Y-97651472D01*
X156351472Y-97746780D01*
X156290281Y-97866874D01*
X156269196Y-98000000D01*
X151630804Y-98000000D01*
X151609719Y-97866874D01*
X151548528Y-97746780D01*
X151453220Y-97651472D01*
X151333126Y-97590281D01*
X151200000Y-97569196D01*
X151066874Y-97590281D01*
X150946780Y-97651472D01*
X150851472Y-97746780D01*
X150790281Y-97866874D01*
X150769196Y-98000000D01*
X148352201Y-98000000D01*
X148333126Y-97990281D01*
X148200000Y-97969196D01*
X148066874Y-97990281D01*
X147946780Y-98051472D01*
X147851472Y-98146780D01*
X147790281Y-98266874D01*
X147769196Y-98400000D01*
X131901748Y-98400000D01*
X131853220Y-98351472D01*
X131733126Y-98290281D01*
X131600000Y-98269196D01*
X131466874Y-98290281D01*
X131346780Y-98351472D01*
X131251472Y-98446780D01*
X131190281Y-98566874D01*
X131169196Y-98700000D01*
X130830804Y-98700000D01*
X130809719Y-98566874D01*
X130748528Y-98446780D01*
X130653220Y-98351472D01*
X130533126Y-98290281D01*
X130400000Y-98269196D01*
X130266874Y-98290281D01*
X130146780Y-98351472D01*
X130051472Y-98446780D01*
X129990281Y-98566874D01*
X129969196Y-98700000D01*
X127793188Y-98700000D01*
X127828368Y-98140818D01*
X127828802Y-98135642D01*
X127895611Y-97500000D01*
X169099196Y-97500000D01*
X169120281Y-97633126D01*
X169181472Y-97753220D01*
X169276780Y-97848528D01*
X169396874Y-97909719D01*
X169530000Y-97930804D01*
X169663126Y-97909719D01*
X169783220Y-97848528D01*
X169878528Y-97753220D01*
X169939719Y-97633126D01*
X169960804Y-97500000D01*
X169939719Y-97366874D01*
X169878528Y-97246780D01*
X169783220Y-97151472D01*
X169663126Y-97090281D01*
X169530000Y-97069196D01*
X169396874Y-97090281D01*
X169276780Y-97151472D01*
X169181472Y-97246780D01*
X169120281Y-97366874D01*
X169099196Y-97500000D01*
X127895611Y-97500000D01*
X127925673Y-97213977D01*
X127926324Y-97208825D01*
X127957161Y-97000000D01*
X142169196Y-97000000D01*
X142190281Y-97133126D01*
X142251472Y-97253220D01*
X142346780Y-97348528D01*
X142466874Y-97409719D01*
X142600000Y-97430804D01*
X142733126Y-97409719D01*
X142853220Y-97348528D01*
X142948528Y-97253220D01*
X143009719Y-97133126D01*
X143030804Y-97000000D01*
X143009719Y-96866874D01*
X142948528Y-96746780D01*
X142853220Y-96651472D01*
X142733126Y-96590281D01*
X142600000Y-96569196D01*
X142466874Y-96590281D01*
X142346780Y-96651472D01*
X142251472Y-96746780D01*
X142190281Y-96866874D01*
X142169196Y-97000000D01*
X127957161Y-97000000D01*
X128030994Y-96500000D01*
X155969196Y-96500000D01*
X155990281Y-96633126D01*
X156051472Y-96753220D01*
X156146780Y-96848528D01*
X156266874Y-96909719D01*
X156400000Y-96930804D01*
X156533126Y-96909719D01*
X156653220Y-96848528D01*
X156748528Y-96753220D01*
X156809719Y-96633126D01*
X156830804Y-96500000D01*
X156809719Y-96366874D01*
X156748528Y-96246780D01*
X156653220Y-96151472D01*
X156533126Y-96090281D01*
X156400000Y-96069196D01*
X156266874Y-96090281D01*
X156146780Y-96151472D01*
X156051472Y-96246780D01*
X155990281Y-96366874D01*
X155969196Y-96500000D01*
X128030994Y-96500000D01*
X128032418Y-96490359D01*
X128061701Y-96292050D01*
X128062567Y-96286931D01*
X128236219Y-95376615D01*
X128237293Y-95371560D01*
X128448922Y-94469275D01*
X128450209Y-94464266D01*
X128462569Y-94420000D01*
X128607348Y-93901459D01*
X128699421Y-93571692D01*
X128700922Y-93566720D01*
X128738847Y-93450000D01*
X164349196Y-93450000D01*
X164370281Y-93583126D01*
X164431472Y-93703220D01*
X164526780Y-93798528D01*
X164646874Y-93859719D01*
X164770514Y-93879302D01*
X164833648Y-93909230D01*
X164870580Y-93968541D01*
X164869582Y-94038404D01*
X164838797Y-94089455D01*
X164761472Y-94166780D01*
X164700281Y-94286874D01*
X164679196Y-94420000D01*
X164700281Y-94553126D01*
X164761472Y-94673220D01*
X164856780Y-94768528D01*
X164976874Y-94829719D01*
X165110000Y-94850804D01*
X165178214Y-94840000D01*
X166269196Y-94840000D01*
X166290281Y-94973126D01*
X166351472Y-95093220D01*
X166446780Y-95188528D01*
X166566874Y-95249719D01*
X166700000Y-95270804D01*
X166833126Y-95249719D01*
X166953220Y-95188528D01*
X167048528Y-95093220D01*
X167109719Y-94973126D01*
X167130804Y-94840000D01*
X167109719Y-94706874D01*
X167048528Y-94586780D01*
X166953220Y-94491472D01*
X166833126Y-94430281D01*
X166705076Y-94410000D01*
X168749196Y-94410000D01*
X168770281Y-94543126D01*
X168831472Y-94663220D01*
X168926780Y-94758528D01*
X169046874Y-94819719D01*
X169180000Y-94840804D01*
X169313126Y-94819719D01*
X169433220Y-94758528D01*
X169528528Y-94663220D01*
X169589719Y-94543126D01*
X169610804Y-94410000D01*
X169589719Y-94276874D01*
X169528528Y-94156780D01*
X169433220Y-94061472D01*
X169313126Y-94000281D01*
X169180000Y-93979196D01*
X169046874Y-94000281D01*
X168926780Y-94061472D01*
X168831472Y-94156780D01*
X168770281Y-94276874D01*
X168749196Y-94410000D01*
X166705076Y-94410000D01*
X166700000Y-94409196D01*
X166566874Y-94430281D01*
X166446780Y-94491472D01*
X166351472Y-94586780D01*
X166290281Y-94706874D01*
X166269196Y-94840000D01*
X165178214Y-94840000D01*
X165243126Y-94829719D01*
X165363220Y-94768528D01*
X165458528Y-94673220D01*
X165519719Y-94553126D01*
X165540804Y-94420000D01*
X165519719Y-94286874D01*
X165458528Y-94166780D01*
X165363220Y-94071472D01*
X165243126Y-94010281D01*
X165119486Y-93990698D01*
X165056352Y-93960770D01*
X165019420Y-93901459D01*
X165020418Y-93831596D01*
X165051203Y-93780545D01*
X165128528Y-93703220D01*
X165189719Y-93583126D01*
X165204469Y-93490000D01*
X167729196Y-93490000D01*
X167750281Y-93623126D01*
X167811472Y-93743220D01*
X167906780Y-93838528D01*
X168026874Y-93899719D01*
X168160000Y-93920804D01*
X168293126Y-93899719D01*
X168413220Y-93838528D01*
X168508528Y-93743220D01*
X168569719Y-93623126D01*
X168590804Y-93490000D01*
X168569719Y-93356874D01*
X168508528Y-93236780D01*
X168413220Y-93141472D01*
X168404524Y-93137041D01*
X168403585Y-93136359D01*
X168360919Y-93081030D01*
X168354940Y-93011416D01*
X168387545Y-92949621D01*
X168420175Y-92925556D01*
X168463185Y-92903641D01*
X168473220Y-92898528D01*
X168568528Y-92803220D01*
X168629719Y-92683126D01*
X168650804Y-92550000D01*
X168629719Y-92416874D01*
X168568528Y-92296780D01*
X168473220Y-92201472D01*
X168353126Y-92140281D01*
X168220000Y-92119196D01*
X168086874Y-92140281D01*
X167966780Y-92201472D01*
X167871472Y-92296780D01*
X167810281Y-92416874D01*
X167789196Y-92550000D01*
X167810281Y-92683126D01*
X167871472Y-92803220D01*
X167966780Y-92898528D01*
X167975476Y-92902959D01*
X167976415Y-92903641D01*
X168019081Y-92958970D01*
X168025060Y-93028584D01*
X167992455Y-93090379D01*
X167959825Y-93114444D01*
X167906780Y-93141472D01*
X167811472Y-93236780D01*
X167750281Y-93356874D01*
X167729196Y-93490000D01*
X165204469Y-93490000D01*
X165210804Y-93450000D01*
X165189719Y-93316874D01*
X165128528Y-93196780D01*
X165033220Y-93101472D01*
X165024525Y-93097042D01*
X165016628Y-93091304D01*
X165018670Y-93088494D01*
X164980665Y-93052589D01*
X164963880Y-92984766D01*
X164986427Y-92918634D01*
X165031471Y-92879610D01*
X165044523Y-92872960D01*
X165044526Y-92872958D01*
X165053220Y-92868528D01*
X165148528Y-92773220D01*
X165209719Y-92653126D01*
X165230804Y-92520000D01*
X165210609Y-92392493D01*
X165219564Y-92323199D01*
X165264560Y-92269747D01*
X165276788Y-92262610D01*
X165365401Y-92217460D01*
X165365404Y-92217458D01*
X165374098Y-92213028D01*
X165469406Y-92117720D01*
X165530597Y-91997626D01*
X165551682Y-91864500D01*
X165530597Y-91731374D01*
X165469406Y-91611280D01*
X165374098Y-91515972D01*
X165254004Y-91454781D01*
X165120878Y-91433696D01*
X164987752Y-91454781D01*
X164867658Y-91515972D01*
X164772350Y-91611280D01*
X164711159Y-91731374D01*
X164690074Y-91864500D01*
X164691601Y-91874141D01*
X164710269Y-91992007D01*
X164701314Y-92061301D01*
X164656318Y-92114753D01*
X164644090Y-92121890D01*
X164555477Y-92167040D01*
X164555474Y-92167042D01*
X164546780Y-92171472D01*
X164451472Y-92266780D01*
X164390281Y-92386874D01*
X164369196Y-92520000D01*
X164390281Y-92653126D01*
X164451472Y-92773220D01*
X164546780Y-92868528D01*
X164555475Y-92872958D01*
X164563372Y-92878696D01*
X164561330Y-92881506D01*
X164599335Y-92917411D01*
X164616120Y-92985234D01*
X164593573Y-93051366D01*
X164548529Y-93090390D01*
X164535477Y-93097040D01*
X164535474Y-93097042D01*
X164526780Y-93101472D01*
X164431472Y-93196780D01*
X164370281Y-93316874D01*
X164349196Y-93450000D01*
X128738847Y-93450000D01*
X128987295Y-92685355D01*
X128989003Y-92680450D01*
X129312033Y-91811846D01*
X129313945Y-91807017D01*
X129329168Y-91770804D01*
X129673061Y-90952712D01*
X129675170Y-90947975D01*
X129676794Y-90944525D01*
X129952616Y-90358374D01*
X130069762Y-90109426D01*
X130072072Y-90104774D01*
X130306960Y-89655475D01*
X130501424Y-89283500D01*
X130503902Y-89278993D01*
X130510383Y-89267767D01*
X132077011Y-89267767D01*
X132095877Y-89555606D01*
X132152152Y-89838520D01*
X132153457Y-89842364D01*
X132243320Y-90107090D01*
X132244874Y-90111669D01*
X132372455Y-90370378D01*
X132532713Y-90610221D01*
X132722906Y-90827094D01*
X132939779Y-91017287D01*
X133179622Y-91177545D01*
X133438331Y-91305126D01*
X133442171Y-91306429D01*
X133442177Y-91306432D01*
X133569467Y-91349641D01*
X133711480Y-91397848D01*
X133994394Y-91454123D01*
X133998435Y-91454388D01*
X133998436Y-91454388D01*
X134278190Y-91472724D01*
X134282233Y-91472989D01*
X134286276Y-91472724D01*
X134566030Y-91454388D01*
X134566031Y-91454388D01*
X134570072Y-91454123D01*
X134852986Y-91397848D01*
X134994999Y-91349641D01*
X135023401Y-91340000D01*
X166269196Y-91340000D01*
X166290281Y-91473126D01*
X166351472Y-91593220D01*
X166446780Y-91688528D01*
X166566874Y-91749719D01*
X166700000Y-91770804D01*
X166833126Y-91749719D01*
X166953220Y-91688528D01*
X167048528Y-91593220D01*
X167109719Y-91473126D01*
X167130804Y-91340000D01*
X167109719Y-91206874D01*
X167048528Y-91086780D01*
X166953220Y-90991472D01*
X166833126Y-90930281D01*
X166700000Y-90909196D01*
X166566874Y-90930281D01*
X166446780Y-90991472D01*
X166351472Y-91086780D01*
X166290281Y-91206874D01*
X166269196Y-91340000D01*
X135023401Y-91340000D01*
X135122289Y-91306432D01*
X135122295Y-91306429D01*
X135126135Y-91305126D01*
X135384844Y-91177545D01*
X135624687Y-91017287D01*
X135841560Y-90827094D01*
X135953019Y-90700000D01*
X138669196Y-90700000D01*
X138690281Y-90833126D01*
X138751472Y-90953220D01*
X138846780Y-91048528D01*
X138966874Y-91109719D01*
X139100000Y-91130804D01*
X139233126Y-91109719D01*
X139353220Y-91048528D01*
X139448528Y-90953220D01*
X139509719Y-90833126D01*
X139530804Y-90700000D01*
X139509719Y-90566874D01*
X139448528Y-90446780D01*
X139353220Y-90351472D01*
X139233126Y-90290281D01*
X139100000Y-90269196D01*
X138966874Y-90290281D01*
X138846780Y-90351472D01*
X138751472Y-90446780D01*
X138690281Y-90566874D01*
X138669196Y-90700000D01*
X135953019Y-90700000D01*
X136031753Y-90610221D01*
X136192011Y-90370378D01*
X136319592Y-90111669D01*
X136321147Y-90107090D01*
X136391444Y-89900000D01*
X160569196Y-89900000D01*
X160590281Y-90033126D01*
X160651472Y-90153220D01*
X160746780Y-90248528D01*
X160866874Y-90309719D01*
X161000000Y-90330804D01*
X161009641Y-90329277D01*
X161097460Y-90315368D01*
X161166754Y-90324323D01*
X161220206Y-90369319D01*
X161240845Y-90436071D01*
X161227343Y-90494136D01*
X161190281Y-90566874D01*
X161169196Y-90700000D01*
X161190281Y-90833126D01*
X161251472Y-90953220D01*
X161346780Y-91048528D01*
X161466874Y-91109719D01*
X161600000Y-91130804D01*
X161733126Y-91109719D01*
X161853220Y-91048528D01*
X161948528Y-90953220D01*
X162009719Y-90833126D01*
X162030804Y-90700000D01*
X162009719Y-90566874D01*
X161948528Y-90446780D01*
X161853220Y-90351472D01*
X161733126Y-90290281D01*
X161600000Y-90269196D01*
X161590359Y-90270723D01*
X161502540Y-90284632D01*
X161433246Y-90275677D01*
X161379794Y-90230681D01*
X161359155Y-90163929D01*
X161372657Y-90105864D01*
X161405288Y-90041822D01*
X161409719Y-90033126D01*
X161430804Y-89900000D01*
X161409719Y-89766874D01*
X161348528Y-89646780D01*
X161253220Y-89551472D01*
X161133126Y-89490281D01*
X161000000Y-89469196D01*
X160866874Y-89490281D01*
X160746780Y-89551472D01*
X160651472Y-89646780D01*
X160590281Y-89766874D01*
X160569196Y-89900000D01*
X136391444Y-89900000D01*
X136411009Y-89842364D01*
X136412314Y-89838520D01*
X136468589Y-89555606D01*
X136487455Y-89267767D01*
X136468589Y-88979928D01*
X136412314Y-88697014D01*
X136390673Y-88633261D01*
X136320898Y-88427711D01*
X136320895Y-88427705D01*
X136319592Y-88423865D01*
X136192011Y-88165156D01*
X136031753Y-87925313D01*
X135841560Y-87708440D01*
X135624687Y-87518247D01*
X135384844Y-87357989D01*
X135126135Y-87230408D01*
X135122295Y-87229105D01*
X135122289Y-87229102D01*
X134856830Y-87138991D01*
X134856832Y-87138991D01*
X134852986Y-87137686D01*
X134570072Y-87081411D01*
X134566031Y-87081146D01*
X134566030Y-87081146D01*
X134286276Y-87062810D01*
X134282233Y-87062545D01*
X134278190Y-87062810D01*
X133998436Y-87081146D01*
X133998435Y-87081146D01*
X133994394Y-87081411D01*
X133711480Y-87137686D01*
X133707634Y-87138991D01*
X133707636Y-87138991D01*
X133442177Y-87229102D01*
X133442171Y-87229105D01*
X133438331Y-87230408D01*
X133179622Y-87357989D01*
X132939779Y-87518247D01*
X132722906Y-87708440D01*
X132532713Y-87925313D01*
X132372455Y-88165156D01*
X132244874Y-88423865D01*
X132243571Y-88427705D01*
X132243568Y-88427711D01*
X132173793Y-88633261D01*
X132152152Y-88697014D01*
X132095877Y-88979928D01*
X132077011Y-89267767D01*
X130510383Y-89267767D01*
X130967276Y-88476405D01*
X130969956Y-88471978D01*
X131002802Y-88420222D01*
X131316881Y-87925313D01*
X131466533Y-87689500D01*
X131469407Y-87685175D01*
X131998294Y-86924204D01*
X132001347Y-86920002D01*
X132561634Y-86181851D01*
X132564860Y-86177780D01*
X132823220Y-85865477D01*
X133155606Y-85463692D01*
X133158973Y-85459792D01*
X133779072Y-84771103D01*
X133782627Y-84767317D01*
X134431025Y-84105195D01*
X134434736Y-84101561D01*
X135110293Y-83467170D01*
X135114153Y-83463695D01*
X135299354Y-83303834D01*
X143949500Y-83303834D01*
X143952481Y-83335369D01*
X143997366Y-83463184D01*
X144077850Y-83572150D01*
X144085306Y-83577657D01*
X144179361Y-83647128D01*
X144179363Y-83647129D01*
X144186816Y-83652634D01*
X144195555Y-83655703D01*
X144195557Y-83655704D01*
X144243242Y-83672449D01*
X144314631Y-83697519D01*
X144322150Y-83698230D01*
X144322151Y-83698230D01*
X144343252Y-83700225D01*
X144343262Y-83700225D01*
X144346166Y-83700500D01*
X145653834Y-83700500D01*
X145656738Y-83700225D01*
X145656748Y-83700225D01*
X145677849Y-83698230D01*
X145677850Y-83698230D01*
X145685369Y-83697519D01*
X145756758Y-83672449D01*
X145804443Y-83655704D01*
X145804445Y-83655703D01*
X145813184Y-83652634D01*
X145820637Y-83647129D01*
X145820639Y-83647128D01*
X145914694Y-83577657D01*
X145922150Y-83572150D01*
X146002634Y-83463184D01*
X146047519Y-83335369D01*
X146050500Y-83303834D01*
X146050500Y-82701841D01*
X146449500Y-82701841D01*
X146449796Y-82704856D01*
X146449796Y-82704864D01*
X146463928Y-82848994D01*
X146464520Y-82855030D01*
X146524065Y-83052251D01*
X146620782Y-83234151D01*
X146750989Y-83393800D01*
X146909725Y-83525118D01*
X147090945Y-83623103D01*
X147096736Y-83624896D01*
X147096737Y-83624896D01*
X147114624Y-83630433D01*
X147287746Y-83684023D01*
X147492631Y-83705557D01*
X147498664Y-83705008D01*
X147498668Y-83705008D01*
X147624279Y-83693576D01*
X147697797Y-83686886D01*
X147703610Y-83685175D01*
X147703611Y-83685175D01*
X147889608Y-83630433D01*
X147889609Y-83630433D01*
X147895428Y-83628720D01*
X148017898Y-83564694D01*
X148072626Y-83536083D01*
X148072630Y-83536080D01*
X148077998Y-83533274D01*
X148165173Y-83463184D01*
X148233827Y-83407985D01*
X148233828Y-83407984D01*
X148238553Y-83404185D01*
X148370976Y-83246370D01*
X148470224Y-83065838D01*
X148532516Y-82869468D01*
X148550500Y-82709136D01*
X148550500Y-82701841D01*
X148949500Y-82701841D01*
X148949796Y-82704856D01*
X148949796Y-82704864D01*
X148963928Y-82848994D01*
X148964520Y-82855030D01*
X149024065Y-83052251D01*
X149120782Y-83234151D01*
X149250989Y-83393800D01*
X149409725Y-83525118D01*
X149590945Y-83623103D01*
X149596736Y-83624896D01*
X149596737Y-83624896D01*
X149614624Y-83630433D01*
X149787746Y-83684023D01*
X149992631Y-83705557D01*
X149998664Y-83705008D01*
X149998668Y-83705008D01*
X150124279Y-83693576D01*
X150197797Y-83686886D01*
X150203610Y-83685175D01*
X150203611Y-83685175D01*
X150389608Y-83630433D01*
X150389609Y-83630433D01*
X150395428Y-83628720D01*
X150517898Y-83564694D01*
X150572626Y-83536083D01*
X150572630Y-83536080D01*
X150577998Y-83533274D01*
X150665173Y-83463184D01*
X150733827Y-83407985D01*
X150733828Y-83407984D01*
X150738553Y-83404185D01*
X150870976Y-83246370D01*
X150970224Y-83065838D01*
X151032516Y-82869468D01*
X151050500Y-82709136D01*
X151050500Y-82701841D01*
X151449500Y-82701841D01*
X151449796Y-82704856D01*
X151449796Y-82704864D01*
X151463928Y-82848994D01*
X151464520Y-82855030D01*
X151524065Y-83052251D01*
X151620782Y-83234151D01*
X151750989Y-83393800D01*
X151909725Y-83525118D01*
X152090945Y-83623103D01*
X152096736Y-83624896D01*
X152096737Y-83624896D01*
X152114624Y-83630433D01*
X152287746Y-83684023D01*
X152492631Y-83705557D01*
X152498664Y-83705008D01*
X152498668Y-83705008D01*
X152624279Y-83693576D01*
X152697797Y-83686886D01*
X152703610Y-83685175D01*
X152703611Y-83685175D01*
X152889608Y-83630433D01*
X152889609Y-83630433D01*
X152895428Y-83628720D01*
X153017898Y-83564694D01*
X153072626Y-83536083D01*
X153072630Y-83536080D01*
X153077998Y-83533274D01*
X153165173Y-83463184D01*
X153233827Y-83407985D01*
X153233828Y-83407984D01*
X153238553Y-83404185D01*
X153370976Y-83246370D01*
X153470224Y-83065838D01*
X153532516Y-82869468D01*
X153550500Y-82709136D01*
X153550500Y-82348159D01*
X153550126Y-82344337D01*
X153536072Y-82201006D01*
X153536072Y-82201004D01*
X153535480Y-82194970D01*
X153475935Y-81997749D01*
X153379218Y-81815849D01*
X153249011Y-81656200D01*
X153090275Y-81524882D01*
X152909055Y-81426897D01*
X152899991Y-81424091D01*
X152718046Y-81367770D01*
X152718047Y-81367770D01*
X152712254Y-81365977D01*
X152507369Y-81344443D01*
X152501336Y-81344992D01*
X152501332Y-81344992D01*
X152391539Y-81354984D01*
X152302203Y-81363114D01*
X152296390Y-81364825D01*
X152296389Y-81364825D01*
X152167117Y-81402872D01*
X152104572Y-81421280D01*
X152020819Y-81465065D01*
X151927374Y-81513917D01*
X151927370Y-81513920D01*
X151922002Y-81516726D01*
X151917279Y-81520523D01*
X151917278Y-81520524D01*
X151823956Y-81595557D01*
X151761447Y-81645815D01*
X151629024Y-81803630D01*
X151529776Y-81984162D01*
X151467484Y-82180532D01*
X151449500Y-82340864D01*
X151449500Y-82701841D01*
X151050500Y-82701841D01*
X151050500Y-82348159D01*
X151050126Y-82344337D01*
X151036072Y-82201006D01*
X151036072Y-82201004D01*
X151035480Y-82194970D01*
X150975935Y-81997749D01*
X150879218Y-81815849D01*
X150749011Y-81656200D01*
X150590275Y-81524882D01*
X150409055Y-81426897D01*
X150399991Y-81424091D01*
X150218046Y-81367770D01*
X150218047Y-81367770D01*
X150212254Y-81365977D01*
X150007369Y-81344443D01*
X150001336Y-81344992D01*
X150001332Y-81344992D01*
X149891539Y-81354984D01*
X149802203Y-81363114D01*
X149796390Y-81364825D01*
X149796389Y-81364825D01*
X149667117Y-81402872D01*
X149604572Y-81421280D01*
X149520819Y-81465065D01*
X149427374Y-81513917D01*
X149427370Y-81513920D01*
X149422002Y-81516726D01*
X149417279Y-81520523D01*
X149417278Y-81520524D01*
X149323956Y-81595557D01*
X149261447Y-81645815D01*
X149129024Y-81803630D01*
X149029776Y-81984162D01*
X148967484Y-82180532D01*
X148949500Y-82340864D01*
X148949500Y-82701841D01*
X148550500Y-82701841D01*
X148550500Y-82348159D01*
X148550126Y-82344337D01*
X148536072Y-82201006D01*
X148536072Y-82201004D01*
X148535480Y-82194970D01*
X148475935Y-81997749D01*
X148379218Y-81815849D01*
X148249011Y-81656200D01*
X148090275Y-81524882D01*
X147909055Y-81426897D01*
X147899991Y-81424091D01*
X147718046Y-81367770D01*
X147718047Y-81367770D01*
X147712254Y-81365977D01*
X147507369Y-81344443D01*
X147501336Y-81344992D01*
X147501332Y-81344992D01*
X147391539Y-81354984D01*
X147302203Y-81363114D01*
X147296390Y-81364825D01*
X147296389Y-81364825D01*
X147167117Y-81402872D01*
X147104572Y-81421280D01*
X147020819Y-81465065D01*
X146927374Y-81513917D01*
X146927370Y-81513920D01*
X146922002Y-81516726D01*
X146917279Y-81520523D01*
X146917278Y-81520524D01*
X146823956Y-81595557D01*
X146761447Y-81645815D01*
X146629024Y-81803630D01*
X146529776Y-81984162D01*
X146467484Y-82180532D01*
X146449500Y-82340864D01*
X146449500Y-82701841D01*
X146050500Y-82701841D01*
X146050500Y-81746166D01*
X146048822Y-81728409D01*
X146048230Y-81722151D01*
X146048230Y-81722150D01*
X146047519Y-81714631D01*
X146002634Y-81586816D01*
X145922150Y-81477850D01*
X145843242Y-81419567D01*
X145820639Y-81402872D01*
X145820637Y-81402871D01*
X145813184Y-81397366D01*
X145804445Y-81394297D01*
X145804443Y-81394296D01*
X145756758Y-81377551D01*
X145685369Y-81352481D01*
X145677850Y-81351770D01*
X145677849Y-81351770D01*
X145656748Y-81349775D01*
X145656738Y-81349775D01*
X145653834Y-81349500D01*
X144346166Y-81349500D01*
X144343262Y-81349775D01*
X144343252Y-81349775D01*
X144322151Y-81351770D01*
X144322150Y-81351770D01*
X144314631Y-81352481D01*
X144243242Y-81377551D01*
X144195557Y-81394296D01*
X144195555Y-81394297D01*
X144186816Y-81397366D01*
X144179363Y-81402871D01*
X144179361Y-81402872D01*
X144156758Y-81419567D01*
X144077850Y-81477850D01*
X143997366Y-81586816D01*
X143952481Y-81714631D01*
X143951770Y-81722150D01*
X143951770Y-81722151D01*
X143951179Y-81728409D01*
X143949500Y-81746166D01*
X143949500Y-83303834D01*
X135299354Y-83303834D01*
X135815678Y-82858155D01*
X135819654Y-82854866D01*
X136115588Y-82620311D01*
X136545939Y-82279220D01*
X136550076Y-82276080D01*
X137299800Y-81731373D01*
X137304064Y-81728409D01*
X138075966Y-81215559D01*
X138080352Y-81212776D01*
X138558277Y-80923333D01*
X138873030Y-80732713D01*
X138877501Y-80730130D01*
X139689641Y-80283652D01*
X139694214Y-80281262D01*
X140524314Y-79869197D01*
X140528967Y-79867007D01*
X141375605Y-79490060D01*
X141380392Y-79488048D01*
X142242026Y-79146902D01*
X142246895Y-79145091D01*
X143122069Y-78840324D01*
X143127008Y-78838719D01*
X144014195Y-78570861D01*
X144019197Y-78569465D01*
X144386693Y-78475108D01*
X144916815Y-78338996D01*
X144921829Y-78337820D01*
X145488741Y-78217319D01*
X145828301Y-78145144D01*
X145833403Y-78144171D01*
X146747182Y-77989616D01*
X146752306Y-77988859D01*
X147497680Y-77894697D01*
X147671714Y-77872711D01*
X147676879Y-77872168D01*
X148138618Y-77833394D01*
X148600360Y-77794621D01*
X148605538Y-77794295D01*
X149531442Y-77755489D01*
X149536633Y-77755380D01*
X150463367Y-77755380D01*
X150468558Y-77755489D01*
G37*
%TD.AperFunction*%
%TD*%
M02*
