%TF.GenerationSoftware,KiCad,Pcbnew,(6.0.9)*%
%TF.CreationDate,2023-02-02T10:15:23+01:00*%
%TF.ProjectId,BatteryManagementBoard,42617474-6572-4794-9d61-6e6167656d65,rev?*%
%TF.SameCoordinates,Original*%
%TF.FileFunction,Copper,L1,Top*%
%TF.FilePolarity,Positive*%
%FSLAX46Y46*%
G04 Gerber Fmt 4.6, Leading zero omitted, Abs format (unit mm)*
G04 Created by KiCad (PCBNEW (6.0.9)) date 2023-02-02 10:15:23*
%MOMM*%
%LPD*%
G01*
G04 APERTURE LIST*
G04 Aperture macros list*
%AMRoundRect*
0 Rectangle with rounded corners*
0 $1 Rounding radius*
0 $2 $3 $4 $5 $6 $7 $8 $9 X,Y pos of 4 corners*
0 Add a 4 corners polygon primitive as box body*
4,1,4,$2,$3,$4,$5,$6,$7,$8,$9,$2,$3,0*
0 Add four circle primitives for the rounded corners*
1,1,$1+$1,$2,$3*
1,1,$1+$1,$4,$5*
1,1,$1+$1,$6,$7*
1,1,$1+$1,$8,$9*
0 Add four rect primitives between the rounded corners*
20,1,$1+$1,$2,$3,$4,$5,0*
20,1,$1+$1,$4,$5,$6,$7,0*
20,1,$1+$1,$6,$7,$8,$9,0*
20,1,$1+$1,$8,$9,$2,$3,0*%
G04 Aperture macros list end*
%TA.AperFunction,SMDPad,CuDef*%
%ADD10RoundRect,0.250000X0.375000X1.075000X-0.375000X1.075000X-0.375000X-1.075000X0.375000X-1.075000X0*%
%TD*%
%TA.AperFunction,SMDPad,CuDef*%
%ADD11RoundRect,0.225000X-0.225000X-0.250000X0.225000X-0.250000X0.225000X0.250000X-0.225000X0.250000X0*%
%TD*%
%TA.AperFunction,SMDPad,CuDef*%
%ADD12RoundRect,0.135000X0.135000X0.185000X-0.135000X0.185000X-0.135000X-0.185000X0.135000X-0.185000X0*%
%TD*%
%TA.AperFunction,SMDPad,CuDef*%
%ADD13RoundRect,0.140000X-0.140000X-0.170000X0.140000X-0.170000X0.140000X0.170000X-0.140000X0.170000X0*%
%TD*%
%TA.AperFunction,SMDPad,CuDef*%
%ADD14RoundRect,0.050000X0.375000X0.050000X-0.375000X0.050000X-0.375000X-0.050000X0.375000X-0.050000X0*%
%TD*%
%TA.AperFunction,SMDPad,CuDef*%
%ADD15RoundRect,0.050000X0.050000X0.275000X-0.050000X0.275000X-0.050000X-0.275000X0.050000X-0.275000X0*%
%TD*%
%TA.AperFunction,SMDPad,CuDef*%
%ADD16RoundRect,0.140000X0.140000X0.170000X-0.140000X0.170000X-0.140000X-0.170000X0.140000X-0.170000X0*%
%TD*%
%TA.AperFunction,SMDPad,CuDef*%
%ADD17R,0.870000X0.300000*%
%TD*%
%TA.AperFunction,ComponentPad*%
%ADD18O,1.100000X2.200000*%
%TD*%
%TA.AperFunction,ComponentPad*%
%ADD19R,0.850000X0.850000*%
%TD*%
%TA.AperFunction,ComponentPad*%
%ADD20O,0.850000X0.850000*%
%TD*%
%TA.AperFunction,SMDPad,CuDef*%
%ADD21RoundRect,0.140000X-0.170000X0.140000X-0.170000X-0.140000X0.170000X-0.140000X0.170000X0.140000X0*%
%TD*%
%TA.AperFunction,SMDPad,CuDef*%
%ADD22RoundRect,0.225000X0.250000X-0.225000X0.250000X0.225000X-0.250000X0.225000X-0.250000X-0.225000X0*%
%TD*%
%TA.AperFunction,SMDPad,CuDef*%
%ADD23RoundRect,0.150000X0.512500X0.150000X-0.512500X0.150000X-0.512500X-0.150000X0.512500X-0.150000X0*%
%TD*%
%TA.AperFunction,SMDPad,CuDef*%
%ADD24R,1.800000X2.500000*%
%TD*%
%TA.AperFunction,SMDPad,CuDef*%
%ADD25R,2.400000X0.740000*%
%TD*%
%TA.AperFunction,SMDPad,CuDef*%
%ADD26RoundRect,0.250000X0.250000X0.475000X-0.250000X0.475000X-0.250000X-0.475000X0.250000X-0.475000X0*%
%TD*%
%TA.AperFunction,SMDPad,CuDef*%
%ADD27RoundRect,0.135000X-0.185000X0.135000X-0.185000X-0.135000X0.185000X-0.135000X0.185000X0.135000X0*%
%TD*%
%TA.AperFunction,SMDPad,CuDef*%
%ADD28R,0.650000X3.000000*%
%TD*%
%TA.AperFunction,SMDPad,CuDef*%
%ADD29RoundRect,0.135000X0.185000X-0.135000X0.185000X0.135000X-0.185000X0.135000X-0.185000X-0.135000X0*%
%TD*%
%TA.AperFunction,SMDPad,CuDef*%
%ADD30RoundRect,0.010000X0.090000X0.090000X-0.090000X0.090000X-0.090000X-0.090000X0.090000X-0.090000X0*%
%TD*%
%TA.AperFunction,SMDPad,CuDef*%
%ADD31RoundRect,0.135000X-0.135000X-0.185000X0.135000X-0.185000X0.135000X0.185000X-0.135000X0.185000X0*%
%TD*%
%TA.AperFunction,SMDPad,CuDef*%
%ADD32RoundRect,0.243750X-0.243750X-0.456250X0.243750X-0.456250X0.243750X0.456250X-0.243750X0.456250X0*%
%TD*%
%TA.AperFunction,SMDPad,CuDef*%
%ADD33RoundRect,0.250000X-0.250000X-0.475000X0.250000X-0.475000X0.250000X0.475000X-0.250000X0.475000X0*%
%TD*%
%TA.AperFunction,ComponentPad*%
%ADD34R,1.350000X1.350000*%
%TD*%
%TA.AperFunction,ComponentPad*%
%ADD35O,1.350000X1.350000*%
%TD*%
%TA.AperFunction,ComponentPad*%
%ADD36RoundRect,0.250000X-0.600000X-0.725000X0.600000X-0.725000X0.600000X0.725000X-0.600000X0.725000X0*%
%TD*%
%TA.AperFunction,ComponentPad*%
%ADD37O,1.700000X1.950000*%
%TD*%
%TA.AperFunction,ComponentPad*%
%ADD38C,6.500000*%
%TD*%
%TA.AperFunction,ComponentPad*%
%ADD39R,6.300000X6.000000*%
%TD*%
%TA.AperFunction,ComponentPad*%
%ADD40C,4.000000*%
%TD*%
%TA.AperFunction,ViaPad*%
%ADD41C,0.450000*%
%TD*%
%TA.AperFunction,ViaPad*%
%ADD42C,0.800000*%
%TD*%
%TA.AperFunction,ViaPad*%
%ADD43C,0.500000*%
%TD*%
%TA.AperFunction,ViaPad*%
%ADD44C,0.700000*%
%TD*%
%TA.AperFunction,Conductor*%
%ADD45C,0.200000*%
%TD*%
%TA.AperFunction,Conductor*%
%ADD46C,0.500000*%
%TD*%
%TA.AperFunction,Conductor*%
%ADD47C,0.300000*%
%TD*%
%TA.AperFunction,Conductor*%
%ADD48C,1.000000*%
%TD*%
G04 APERTURE END LIST*
D10*
X135200000Y-109300000D03*
X132400000Y-109300000D03*
D11*
X153225000Y-104900000D03*
X154775000Y-104900000D03*
D12*
X146810000Y-103500000D03*
X145790000Y-103500000D03*
D13*
X145820000Y-106800000D03*
X146780000Y-106800000D03*
D14*
X167205000Y-93280000D03*
X167205000Y-92880000D03*
D15*
X167080000Y-92255000D03*
X166680000Y-92255000D03*
X166280000Y-92255000D03*
X165880000Y-92255000D03*
D14*
X165755000Y-92880000D03*
X165755000Y-93280000D03*
D15*
X165880000Y-93905000D03*
X166280000Y-93905000D03*
X166680000Y-93905000D03*
X167080000Y-93905000D03*
D13*
X135520000Y-111600000D03*
X136480000Y-111600000D03*
D16*
X167230000Y-95500000D03*
X166270000Y-95500000D03*
D17*
X163865000Y-107250000D03*
X163865000Y-108750000D03*
X163865000Y-109250000D03*
X163865000Y-109750000D03*
X163865000Y-110250000D03*
X163865000Y-110750000D03*
X163865000Y-111250000D03*
X163865000Y-112750000D03*
X162135000Y-112750000D03*
X162135000Y-111250000D03*
X162135000Y-110750000D03*
X162135000Y-110250000D03*
X162135000Y-109750000D03*
X162135000Y-109250000D03*
X162135000Y-108750000D03*
X162135000Y-107250000D03*
D18*
X165150000Y-107600000D03*
X160850000Y-107600000D03*
X165150000Y-112400000D03*
X160850000Y-112400000D03*
D19*
X164850000Y-86550000D03*
D20*
X165850000Y-86550000D03*
D21*
X148700000Y-106820000D03*
X148700000Y-107780000D03*
D22*
X149600000Y-99300000D03*
X149600000Y-97750000D03*
D23*
X139337500Y-110350000D03*
X139337500Y-109400000D03*
X139337500Y-108450000D03*
X137062500Y-108450000D03*
X137062500Y-109400000D03*
X137062500Y-110350000D03*
D12*
X150710000Y-106800000D03*
X149690000Y-106800000D03*
D24*
X168000000Y-109300000D03*
X168000000Y-105300000D03*
D25*
X133050000Y-102540000D03*
X129150000Y-102540000D03*
X133050000Y-101270000D03*
X129150000Y-101270000D03*
X133050000Y-100000000D03*
X129150000Y-100000000D03*
X133050000Y-98730000D03*
X129150000Y-98730000D03*
X133050000Y-97460000D03*
X129150000Y-97460000D03*
D26*
X139850000Y-106700000D03*
X137950000Y-106700000D03*
D27*
X153300000Y-102690000D03*
X153300000Y-103710000D03*
X164440000Y-94420000D03*
X164440000Y-95440000D03*
D28*
X157635000Y-108500000D03*
X156365000Y-111500000D03*
D29*
X132400000Y-105310000D03*
X132400000Y-104290000D03*
D30*
X159550000Y-110000000D03*
X159250000Y-109660000D03*
X159250000Y-110340000D03*
D27*
X164970000Y-89250000D03*
X164970000Y-90270000D03*
D31*
X145790000Y-104500000D03*
X146810000Y-104500000D03*
D32*
X129162500Y-104800000D03*
X131037500Y-104800000D03*
D29*
X168370000Y-90260000D03*
X168370000Y-89240000D03*
D27*
X167370000Y-89230000D03*
X167370000Y-90250000D03*
D29*
X166000000Y-90270000D03*
X166000000Y-89250000D03*
D31*
X145790000Y-105800000D03*
X146810000Y-105800000D03*
D25*
X170850000Y-102540000D03*
X166950000Y-102540000D03*
X170850000Y-101270000D03*
X166950000Y-101270000D03*
X170850000Y-100000000D03*
X166950000Y-100000000D03*
X170850000Y-98730000D03*
X166950000Y-98730000D03*
X170850000Y-97460000D03*
X166950000Y-97460000D03*
D33*
X146450000Y-119800000D03*
X148350000Y-119800000D03*
D21*
X147700000Y-105820000D03*
X147700000Y-106780000D03*
D28*
X147460000Y-90000000D03*
X148730000Y-87000000D03*
X150000000Y-90000000D03*
X151270000Y-87000000D03*
X152540000Y-90000000D03*
D16*
X150680000Y-107800000D03*
X149720000Y-107800000D03*
D33*
X134350000Y-106700000D03*
X136250000Y-106700000D03*
X134350000Y-104700000D03*
X136250000Y-104700000D03*
D34*
X161700000Y-115600000D03*
D35*
X159700000Y-115600000D03*
D36*
X145000000Y-82525000D03*
D37*
X147500000Y-82525000D03*
X150000000Y-82525000D03*
X152500000Y-82525000D03*
X155000000Y-82525000D03*
D38*
X150600000Y-115500000D03*
D39*
X143400000Y-115500000D03*
D40*
X137817767Y-85732233D03*
X134282233Y-89267767D03*
D41*
X166700000Y-91340000D03*
X155000000Y-86000000D03*
X164700000Y-101600000D03*
X163800000Y-113200000D03*
X162100000Y-112300000D03*
X131000000Y-93000000D03*
X145300000Y-104600000D03*
X165690000Y-95200000D03*
X156998944Y-80997933D03*
X152600000Y-92000000D03*
X163300000Y-93200000D03*
X137100000Y-107400000D03*
X149000000Y-94000000D03*
X132000000Y-94100000D03*
X144860000Y-101500000D03*
X150996922Y-79994855D03*
X147890000Y-100230000D03*
X158991799Y-82990766D03*
X137993844Y-89992789D03*
X143400000Y-105700000D03*
X130700000Y-97400000D03*
X142500000Y-100000000D03*
X166800000Y-105200000D03*
X168460000Y-94160000D03*
X161250000Y-96500000D03*
X137000000Y-83000000D03*
X130500000Y-103600000D03*
X145000000Y-121000000D03*
X144300000Y-109500000D03*
X148995192Y-91994518D03*
X160998966Y-84987667D03*
X162100000Y-106800000D03*
X167700000Y-111800000D03*
X170000000Y-108250000D03*
X145000000Y-96750000D03*
X139600000Y-111500000D03*
X157000000Y-118000000D03*
X164250000Y-116250000D03*
X149000000Y-97700000D03*
X163000000Y-86000000D03*
X156400000Y-95600000D03*
X160998966Y-82989733D03*
X161710000Y-89960000D03*
X135100000Y-101500000D03*
X138400000Y-93300000D03*
X134750000Y-94250000D03*
X147000000Y-96000000D03*
X143000000Y-86000000D03*
X146992833Y-79994855D03*
X169200000Y-105300000D03*
X155800000Y-108200000D03*
X134500000Y-100000000D03*
D42*
X149200000Y-103700000D03*
D41*
X131000000Y-95000000D03*
X143400000Y-103300000D03*
X130500000Y-100100000D03*
X155000000Y-117000000D03*
X157000000Y-117000000D03*
X159000000Y-117000000D03*
X162996900Y-86997933D03*
X138400000Y-92000000D03*
X164410000Y-91980000D03*
X155300000Y-101200000D03*
X164700000Y-98100000D03*
X162999999Y-90998966D03*
X151800000Y-108500000D03*
X164000000Y-99000000D03*
X164700000Y-98900000D03*
X147994855Y-120991778D03*
X161600000Y-87300000D03*
X152440000Y-100200000D03*
X169200000Y-104400000D03*
X154992789Y-79994855D03*
X147330000Y-98410000D03*
X157000000Y-115000000D03*
X133879122Y-109920878D03*
X163800000Y-112300000D03*
X138400000Y-92700000D03*
X129200000Y-106000000D03*
X152994855Y-79994855D03*
X156000000Y-103500000D03*
X145000000Y-86000000D03*
X147700000Y-107400000D03*
X152994855Y-93994855D03*
X143400000Y-99700000D03*
X148998988Y-79994855D03*
X149600000Y-97200000D03*
X129000000Y-95000000D03*
X155300000Y-102000000D03*
X135800000Y-100000000D03*
X141000000Y-80000000D03*
X152000000Y-98040000D03*
X133000000Y-93000000D03*
X151000000Y-94000000D03*
X155300000Y-104600000D03*
X164700000Y-100700000D03*
X135100000Y-98700000D03*
X142994855Y-81994855D03*
X155300000Y-102800000D03*
X152750000Y-109000000D03*
X143400000Y-98800000D03*
X135100000Y-103100000D03*
X155001033Y-110940401D03*
X164700000Y-102500000D03*
X162800000Y-92500000D03*
X131624500Y-100100000D03*
D42*
X150900000Y-103700000D03*
D41*
X159500000Y-96500000D03*
X148400000Y-108500000D03*
X163300000Y-94200000D03*
X154000000Y-121000000D03*
X150200000Y-97700000D03*
X156650878Y-97209122D03*
X143000000Y-84000000D03*
X143400000Y-104900000D03*
X130200000Y-106800000D03*
X155300000Y-103700000D03*
X144994899Y-79994855D03*
X135400000Y-104300000D03*
X162100000Y-113200000D03*
X154988700Y-112999999D03*
X131000000Y-91000000D03*
X135500000Y-106900000D03*
X142500000Y-102000000D03*
X168891670Y-99091392D03*
X161000000Y-81000000D03*
X142500000Y-104000000D03*
X156996900Y-85987667D03*
X135800000Y-98000000D03*
X168700000Y-100000000D03*
X138400000Y-91300000D03*
X162999999Y-88996900D03*
X155300000Y-100300000D03*
X164700000Y-103300000D03*
X133130026Y-110948504D03*
X141000000Y-88000000D03*
X162100000Y-107700000D03*
X146800000Y-107400000D03*
X167370000Y-88560000D03*
X157750000Y-111750000D03*
X151250000Y-110250000D03*
X152000000Y-121000000D03*
X155700000Y-99000000D03*
X166800000Y-104400000D03*
X149000000Y-96000000D03*
X135100000Y-100600000D03*
X156000000Y-101500000D03*
X163850000Y-107650000D03*
X162800000Y-94800000D03*
X143400000Y-101500000D03*
X155000000Y-115000000D03*
X163000000Y-96500000D03*
X147000000Y-94000000D03*
X135100000Y-96700000D03*
X169400000Y-100000000D03*
X164000000Y-101000000D03*
X153000000Y-86000000D03*
X167000000Y-96800000D03*
X149991778Y-120991778D03*
X162996900Y-84987667D03*
X138996922Y-87994855D03*
X161600000Y-88500000D03*
X135000000Y-85000000D03*
X168420000Y-91790000D03*
X150800000Y-108534500D03*
X164700000Y-104100000D03*
X151000000Y-92000000D03*
X143000000Y-88000000D03*
X133900000Y-110800000D03*
X152750000Y-110250000D03*
X158991799Y-80992833D03*
X155000000Y-84000000D03*
X147000000Y-92000000D03*
X147900000Y-111700000D03*
X141000000Y-84000000D03*
X142996965Y-79994855D03*
X143400000Y-100600000D03*
X139110000Y-90010000D03*
X151000000Y-96000000D03*
X152540000Y-88040000D03*
D42*
X149200000Y-101900000D03*
D41*
X134000000Y-86000000D03*
X152900000Y-99500000D03*
X160200000Y-110000000D03*
X153999999Y-87997933D03*
X164700000Y-99800000D03*
X143400000Y-102400000D03*
X139100000Y-93800000D03*
X171500000Y-95500000D03*
X159500000Y-113500000D03*
X162999999Y-82990766D03*
X161600000Y-87900000D03*
X143400000Y-104100000D03*
X141000000Y-86000000D03*
X150124500Y-108500000D03*
X135800000Y-102000000D03*
X135100000Y-99700000D03*
X158988700Y-84987667D03*
X164960000Y-88510000D03*
X159500000Y-112000000D03*
X141000000Y-82000000D03*
X149500000Y-110250000D03*
X165750000Y-96210000D03*
X154250000Y-96000000D03*
X138989733Y-81999999D03*
X156996900Y-83989733D03*
D42*
X150900000Y-101900000D03*
D41*
X146250000Y-98000000D03*
X164000000Y-103000000D03*
X163865000Y-106865000D03*
X144750000Y-100000000D03*
X134600000Y-97300000D03*
X170000000Y-91750000D03*
X147100000Y-109000000D03*
X135100000Y-102300000D03*
X145000000Y-88000000D03*
X135100000Y-97700000D03*
X154000000Y-101800000D03*
X156700000Y-98000000D03*
X156400000Y-96500000D03*
X153191973Y-101429983D03*
X138300000Y-104600000D03*
X139200000Y-104600000D03*
X152825000Y-100775000D03*
X152600000Y-106000000D03*
X153206233Y-104193767D03*
X152700000Y-107200000D03*
X148500000Y-106200000D03*
X147000000Y-105300000D03*
X149600000Y-99900000D03*
X147100000Y-108300000D03*
X141514502Y-107700000D03*
X131600000Y-98700000D03*
X131700000Y-101300000D03*
X151300000Y-105600000D03*
X132760000Y-102540000D03*
X133600000Y-102500000D03*
D43*
X168700000Y-102600000D03*
D41*
X129050000Y-102540000D03*
X169180000Y-94410000D03*
D44*
X165715688Y-106107186D03*
X165850000Y-105250000D03*
D41*
X168160000Y-93490000D03*
X162994502Y-109275500D03*
X161399832Y-110299832D03*
X164540210Y-109750000D03*
X168220000Y-92550000D03*
X162950000Y-110750000D03*
X154200000Y-107700000D03*
X154044500Y-103800000D03*
X169600000Y-101300000D03*
X164800000Y-92520000D03*
X150500000Y-105800000D03*
X149703061Y-105798166D03*
X168570000Y-100775500D03*
X156500000Y-108200000D03*
X164780000Y-93450000D03*
X169410000Y-98700000D03*
X165120878Y-91864500D03*
X154600000Y-102200000D03*
X165475500Y-98600000D03*
X154600000Y-103000000D03*
X155200000Y-106874500D03*
X130500000Y-101300000D03*
X147900000Y-110900000D03*
X149145936Y-106132031D03*
X130400000Y-98700000D03*
X146800000Y-104000000D03*
X140900000Y-106500000D03*
X145543767Y-101856233D03*
X147400000Y-100800000D03*
X142600000Y-97000000D03*
X148200000Y-98400000D03*
X139100000Y-90700000D03*
X151200000Y-98000000D03*
X161000000Y-89900000D03*
X161600000Y-90700000D03*
X151174500Y-99950000D03*
X166700000Y-94840000D03*
X169530000Y-97500000D03*
X165110000Y-94420000D03*
X130100000Y-107900000D03*
X130100000Y-108800000D03*
D45*
X166680000Y-91360000D02*
X166700000Y-91340000D01*
X166680000Y-92255000D02*
X166680000Y-91360000D01*
D46*
X163865000Y-112750000D02*
X163865000Y-113135000D01*
D47*
X168000000Y-105300000D02*
X166900000Y-105300000D01*
X131724500Y-100000000D02*
X131624500Y-100100000D01*
X168500000Y-104800000D02*
X168500000Y-104400000D01*
X129150000Y-100100000D02*
X129050000Y-100000000D01*
D45*
X166280000Y-93905000D02*
X166280000Y-94517537D01*
D46*
X163865000Y-107635000D02*
X163865000Y-107250000D01*
X163865000Y-112365000D02*
X163800000Y-112300000D01*
X162135000Y-107250000D02*
X162135000Y-106835000D01*
D47*
X129050000Y-97460000D02*
X130640000Y-97460000D01*
D45*
X148700000Y-107780000D02*
X148700000Y-108200000D01*
D47*
X168000000Y-105300000D02*
X167800000Y-105100000D01*
D46*
X163865000Y-106865000D02*
X163865000Y-107250000D01*
D47*
X167800000Y-104400000D02*
X166800000Y-104400000D01*
D45*
X147700000Y-106780000D02*
X147700000Y-106800000D01*
X166270000Y-95690000D02*
X165750000Y-96210000D01*
X166270000Y-95500000D02*
X165990000Y-95500000D01*
X146780000Y-106800000D02*
X147680000Y-106800000D01*
X166010000Y-94787537D02*
X166010000Y-95240000D01*
D47*
X166900000Y-105300000D02*
X166800000Y-105200000D01*
D46*
X163850000Y-107650000D02*
X163865000Y-107635000D01*
D45*
X149600000Y-97750000D02*
X149600000Y-97200000D01*
X149720000Y-108095500D02*
X150124500Y-108500000D01*
D46*
X162135000Y-112335000D02*
X162100000Y-112300000D01*
D45*
X166270000Y-95500000D02*
X166010000Y-95240000D01*
D46*
X150600000Y-117575000D02*
X150600000Y-115500000D01*
D45*
X149600000Y-97750000D02*
X150150000Y-97750000D01*
D47*
X153000000Y-86000000D02*
X155000000Y-84000000D01*
D45*
X166270000Y-95500000D02*
X166270000Y-95690000D01*
D47*
X167050000Y-96850000D02*
X167000000Y-96800000D01*
D45*
X147680000Y-106800000D02*
X147700000Y-106780000D01*
D46*
X162135000Y-112750000D02*
X162135000Y-112335000D01*
X162135000Y-112750000D02*
X162135000Y-113165000D01*
D45*
X149050000Y-97750000D02*
X149600000Y-97750000D01*
D47*
X167050000Y-100000000D02*
X168700000Y-100000000D01*
D45*
X154775000Y-104900000D02*
X155000000Y-104900000D01*
X165990000Y-95500000D02*
X165690000Y-95200000D01*
X145790000Y-104500000D02*
X145400000Y-104500000D01*
D47*
X167800000Y-105100000D02*
X167800000Y-104400000D01*
D45*
X166280000Y-94517537D02*
X166010000Y-94787537D01*
X155000000Y-104900000D02*
X155300000Y-104600000D01*
D47*
X168500000Y-104400000D02*
X169200000Y-104400000D01*
X132950000Y-100000000D02*
X131724500Y-100000000D01*
D45*
X164970000Y-89250000D02*
X164970000Y-88520000D01*
D47*
X152540000Y-90000000D02*
X152540000Y-91940000D01*
D46*
X162135000Y-106835000D02*
X162100000Y-106800000D01*
D45*
X159550000Y-110000000D02*
X160200000Y-110000000D01*
D47*
X129162500Y-104800000D02*
X129162500Y-105962500D01*
D45*
X150150000Y-97750000D02*
X150200000Y-97700000D01*
D47*
X130640000Y-97460000D02*
X130700000Y-97400000D01*
D46*
X162100000Y-107700000D02*
X162135000Y-107665000D01*
D45*
X146780000Y-107380000D02*
X146780000Y-106800000D01*
X148720000Y-107800000D02*
X148700000Y-107780000D01*
X149720000Y-107800000D02*
X148720000Y-107800000D01*
X149720000Y-107800000D02*
X149720000Y-108095500D01*
X148700000Y-108200000D02*
X148400000Y-108500000D01*
D46*
X163865000Y-112750000D02*
X163865000Y-112365000D01*
D47*
X152540000Y-86460000D02*
X152540000Y-88290000D01*
X130500000Y-100100000D02*
X129150000Y-100100000D01*
D45*
X145400000Y-104500000D02*
X145300000Y-104600000D01*
D47*
X152540000Y-91940000D02*
X152600000Y-92000000D01*
D45*
X147700000Y-106780000D02*
X147700000Y-107400000D01*
D47*
X129162500Y-105962500D02*
X129200000Y-106000000D01*
D45*
X149000000Y-97700000D02*
X149050000Y-97750000D01*
D47*
X168000000Y-105300000D02*
X169200000Y-105300000D01*
D46*
X162135000Y-113165000D02*
X162100000Y-113200000D01*
D47*
X168000000Y-105300000D02*
X168500000Y-104800000D01*
X152540000Y-88040000D02*
X152540000Y-88290000D01*
D46*
X163865000Y-113135000D02*
X163800000Y-113200000D01*
D45*
X146800000Y-107400000D02*
X146780000Y-107380000D01*
D47*
X132950000Y-97460000D02*
X134440000Y-97460000D01*
D46*
X148450000Y-119725000D02*
X150600000Y-117575000D01*
D45*
X167370000Y-89230000D02*
X167370000Y-88560000D01*
D46*
X162135000Y-107665000D02*
X162135000Y-107250000D01*
D47*
X153000000Y-86000000D02*
X152540000Y-86460000D01*
X134440000Y-97460000D02*
X134600000Y-97300000D01*
X167050000Y-97460000D02*
X167050000Y-96850000D01*
X170950000Y-100000000D02*
X169400000Y-100000000D01*
X152540000Y-90000000D02*
X152540000Y-88290000D01*
D45*
X164970000Y-88520000D02*
X164960000Y-88510000D01*
D47*
X132950000Y-100000000D02*
X134500000Y-100000000D01*
X155000000Y-84000000D02*
X155000000Y-82525000D01*
D45*
X154000000Y-98900000D02*
X155400000Y-97500000D01*
X156200000Y-97500000D02*
X156700000Y-98000000D01*
X155400000Y-97500000D02*
X156200000Y-97500000D01*
X154000000Y-101800000D02*
X154000000Y-98900000D01*
X153600000Y-98700000D02*
X155800000Y-96500000D01*
X153600000Y-101021956D02*
X153600000Y-98700000D01*
X155800000Y-96500000D02*
X156400000Y-96500000D01*
X153191973Y-101429983D02*
X153600000Y-101021956D01*
D46*
X139850000Y-106700000D02*
X139850000Y-105250000D01*
X139850000Y-105250000D02*
X139200000Y-104600000D01*
X139200000Y-104600000D02*
X138300000Y-104600000D01*
X143400000Y-116850000D02*
X143400000Y-115500000D01*
X146550000Y-120000000D02*
X143400000Y-116850000D01*
D45*
X148300000Y-104600000D02*
X147600000Y-103900000D01*
X153225000Y-104900000D02*
X152925000Y-104600000D01*
X153206233Y-103803767D02*
X153300000Y-103710000D01*
X147600000Y-103100000D02*
X147380000Y-102880000D01*
X152700000Y-107200000D02*
X152700000Y-107000000D01*
X152925000Y-104600000D02*
X148300000Y-104600000D01*
X152700000Y-107000000D02*
X153225000Y-106475000D01*
X153206233Y-104881233D02*
X153225000Y-104900000D01*
X147380000Y-102880000D02*
X146410000Y-102880000D01*
X146410000Y-102880000D02*
X145790000Y-103500000D01*
X153225000Y-106475000D02*
X153225000Y-104900000D01*
X147600000Y-103900000D02*
X147600000Y-103100000D01*
X153206233Y-104193767D02*
X153206233Y-104881233D01*
X153206233Y-104193767D02*
X153206233Y-103803767D01*
X149670000Y-106820000D02*
X149690000Y-106800000D01*
X148500000Y-106200000D02*
X148500000Y-106620000D01*
X148700000Y-106820000D02*
X149670000Y-106820000D01*
X148500000Y-106620000D02*
X148700000Y-106820000D01*
X150710000Y-106800000D02*
X150710000Y-107770000D01*
X150710000Y-107770000D02*
X150680000Y-107800000D01*
X147000000Y-105610000D02*
X146810000Y-105800000D01*
X147000000Y-105300000D02*
X147000000Y-105610000D01*
X147680000Y-105800000D02*
X147700000Y-105820000D01*
X146810000Y-105800000D02*
X147680000Y-105800000D01*
X145790000Y-105800000D02*
X145790000Y-106770000D01*
X145790000Y-106770000D02*
X145820000Y-106800000D01*
X150100000Y-100500000D02*
X149600000Y-100000000D01*
X152990000Y-102690000D02*
X150800000Y-100500000D01*
X149600000Y-100000000D02*
X149600000Y-99900000D01*
X150800000Y-100500000D02*
X150100000Y-100500000D01*
X153600000Y-102690000D02*
X152990000Y-102690000D01*
X149600000Y-99900000D02*
X149600000Y-99300000D01*
X141514502Y-107700000D02*
X142114502Y-108300000D01*
X142114502Y-108300000D02*
X147100000Y-108300000D01*
X132920000Y-98700000D02*
X132950000Y-98730000D01*
X131600000Y-98700000D02*
X132920000Y-98700000D01*
X131700000Y-101300000D02*
X132920000Y-101300000D01*
X132920000Y-101300000D02*
X132950000Y-101270000D01*
X164440000Y-95690000D02*
X164440000Y-95440000D01*
X169240000Y-89690000D02*
X169240000Y-94350000D01*
X169010000Y-89460000D02*
X169010000Y-88720000D01*
X165980000Y-96750000D02*
X165500000Y-96750000D01*
X166000000Y-88140000D02*
X166000000Y-89250000D01*
D46*
X167250000Y-95520000D02*
X167230000Y-95500000D01*
D45*
X168790000Y-89240000D02*
X169010000Y-89460000D01*
X167080000Y-93905000D02*
X167080000Y-94450000D01*
D46*
X167050000Y-102540000D02*
X170950000Y-102540000D01*
X169180000Y-94410000D02*
X168070000Y-95520000D01*
X168700000Y-102600000D02*
X167110000Y-102600000D01*
D45*
X166180000Y-87960000D02*
X166000000Y-88140000D01*
X169240000Y-94350000D02*
X169180000Y-94410000D01*
X168370000Y-89240000D02*
X168790000Y-89240000D01*
D47*
X133100000Y-104595894D02*
X133100000Y-102900000D01*
D45*
X167270000Y-95460000D02*
X167230000Y-95500000D01*
X169010000Y-88720000D02*
X168250000Y-87960000D01*
X167080000Y-94450000D02*
X167270000Y-94640000D01*
D47*
X132400000Y-105295894D02*
X133100000Y-104595894D01*
D45*
X167230000Y-95500000D02*
X165980000Y-96750000D01*
X167270000Y-94640000D02*
X167270000Y-95460000D01*
D46*
X132760000Y-102540000D02*
X129050000Y-102540000D01*
D45*
X169010000Y-89460000D02*
X169240000Y-89690000D01*
X168250000Y-87960000D02*
X166180000Y-87960000D01*
D46*
X132950000Y-102540000D02*
X132760000Y-102540000D01*
X167110000Y-102600000D02*
X167050000Y-102540000D01*
D47*
X132400000Y-105310000D02*
X132400000Y-105295894D01*
D45*
X165500000Y-96750000D02*
X164440000Y-95690000D01*
D46*
X168070000Y-95520000D02*
X167250000Y-95520000D01*
D47*
X162185000Y-108700000D02*
X163815000Y-108700000D01*
X163865000Y-111250000D02*
X164576203Y-111250000D01*
D48*
X164845000Y-114130000D02*
X165638772Y-114130000D01*
X163375000Y-115600000D02*
X164845000Y-114130000D01*
D47*
X164777208Y-109050000D02*
X164477208Y-108750000D01*
D48*
X166400000Y-108700000D02*
X166400000Y-106108148D01*
X166400000Y-113368772D02*
X166400000Y-108700000D01*
D47*
X165672792Y-108900000D02*
X165522792Y-109050000D01*
D46*
X165716650Y-106108148D02*
X166400000Y-106108148D01*
X166100000Y-108900000D02*
X166200000Y-108800000D01*
D47*
X162135000Y-111250000D02*
X162210000Y-111325000D01*
X162210000Y-111325000D02*
X163790000Y-111325000D01*
D46*
X166400000Y-106000000D02*
X166400000Y-108500000D01*
X166400000Y-109550000D02*
X166400000Y-109200000D01*
X166400000Y-109200000D02*
X165120000Y-109200000D01*
X165120000Y-109200000D02*
X165000000Y-109080000D01*
D47*
X164926203Y-110900000D02*
X165050000Y-110900000D01*
D48*
X165638772Y-114130000D02*
X166400000Y-113368772D01*
D46*
X166200000Y-108800000D02*
X167500000Y-108800000D01*
X165715688Y-106107186D02*
X165822874Y-106000000D01*
X166400000Y-109200000D02*
X166400000Y-108500000D01*
D48*
X167000000Y-109300000D02*
X168000000Y-109300000D01*
X166400000Y-108700000D02*
X167000000Y-109300000D01*
X166400000Y-106108148D02*
X165850000Y-105558148D01*
D47*
X163815000Y-108700000D02*
X163865000Y-108750000D01*
X164477208Y-108750000D02*
X163865000Y-108750000D01*
X162135000Y-108750000D02*
X162185000Y-108700000D01*
D46*
X166400000Y-105800000D02*
X166400000Y-106000000D01*
X167500000Y-108800000D02*
X168000000Y-109300000D01*
X165050000Y-110900000D02*
X166400000Y-109550000D01*
X166100000Y-108900000D02*
X166400000Y-108600000D01*
D47*
X166400000Y-108600000D02*
X166400000Y-108500000D01*
X163790000Y-111325000D02*
X163865000Y-111250000D01*
D48*
X161700000Y-115600000D02*
X163375000Y-115600000D01*
D47*
X165522792Y-109050000D02*
X164777208Y-109050000D01*
D46*
X165822874Y-106000000D02*
X166400000Y-106000000D01*
X165850000Y-105250000D02*
X166400000Y-105800000D01*
D47*
X164576203Y-111250000D02*
X164926203Y-110900000D01*
D48*
X165850000Y-105558148D02*
X165850000Y-105250000D01*
D47*
X166100000Y-108900000D02*
X165672792Y-108900000D01*
D46*
X165715688Y-106107186D02*
X165716650Y-106108148D01*
D45*
X163020002Y-109250000D02*
X163865000Y-109250000D01*
X162994502Y-109275500D02*
X163020002Y-109250000D01*
X167950000Y-93280000D02*
X168160000Y-93490000D01*
X167205000Y-93280000D02*
X167950000Y-93280000D01*
X156365000Y-111500000D02*
X156365000Y-110405000D01*
X161449664Y-110250000D02*
X161399832Y-110299832D01*
X156430000Y-110340000D02*
X159250000Y-110340000D01*
X163865000Y-109750000D02*
X164540210Y-109750000D01*
X162135000Y-110250000D02*
X161449664Y-110250000D01*
X159435000Y-110525000D02*
X159250000Y-110340000D01*
X161399832Y-110299832D02*
X161174664Y-110525000D01*
X156365000Y-110405000D02*
X156430000Y-110340000D01*
X161174664Y-110525000D02*
X159435000Y-110525000D01*
X157635000Y-108500000D02*
X157635000Y-109605000D01*
X161450000Y-109750000D02*
X161175000Y-109475000D01*
X163865000Y-110250000D02*
X163250000Y-110250000D01*
X163250000Y-110250000D02*
X162750000Y-109750000D01*
X162750000Y-109750000D02*
X162135000Y-109750000D01*
X159435000Y-109475000D02*
X159250000Y-109660000D01*
X162135000Y-109750000D02*
X161450000Y-109750000D01*
X157635000Y-109605000D02*
X157690000Y-109660000D01*
X161175000Y-109475000D02*
X159435000Y-109475000D01*
X157690000Y-109660000D02*
X159250000Y-109660000D01*
X162950000Y-110750000D02*
X162135000Y-110750000D01*
X167890000Y-92880000D02*
X168220000Y-92550000D01*
X167205000Y-92880000D02*
X167890000Y-92880000D01*
X165160000Y-92880000D02*
X164800000Y-92520000D01*
X169600000Y-101300000D02*
X170920000Y-101300000D01*
X165755000Y-92880000D02*
X165160000Y-92880000D01*
X156740000Y-107960000D02*
X156740000Y-105960000D01*
X157500000Y-105200000D02*
X164610000Y-105200000D01*
X168075500Y-101270000D02*
X168570000Y-100775500D01*
X165730000Y-101270000D02*
X167050000Y-101270000D01*
X164950000Y-93280000D02*
X164780000Y-93450000D01*
X165300000Y-101700000D02*
X165730000Y-101270000D01*
X165755000Y-93280000D02*
X164950000Y-93280000D01*
X156740000Y-105960000D02*
X157500000Y-105200000D01*
X167050000Y-101270000D02*
X168075500Y-101270000D01*
X164610000Y-105200000D02*
X165300000Y-104510000D01*
X165300000Y-104510000D02*
X165300000Y-101700000D01*
X156500000Y-108200000D02*
X156740000Y-107960000D01*
X165370000Y-91870000D02*
X165364500Y-91864500D01*
X165755000Y-92255000D02*
X165370000Y-91870000D01*
X169410000Y-98700000D02*
X170920000Y-98700000D01*
X165364500Y-91864500D02*
X165120878Y-91864500D01*
X165880000Y-92255000D02*
X165755000Y-92255000D01*
X165630000Y-98730000D02*
X167050000Y-98730000D01*
X154600000Y-102200000D02*
X154600000Y-99357537D01*
X164600000Y-97100000D02*
X165300000Y-97800000D01*
X165300000Y-98400000D02*
X165630000Y-98730000D01*
X155482537Y-98475000D02*
X155917463Y-98475000D01*
X155917463Y-98475000D02*
X156042463Y-98600000D01*
X165300000Y-97800000D02*
X165300000Y-98400000D01*
X156042463Y-98600000D02*
X159500000Y-98600000D01*
X161000000Y-97100000D02*
X164600000Y-97100000D01*
X159500000Y-98600000D02*
X161000000Y-97100000D01*
X154600000Y-99357537D02*
X155482537Y-98475000D01*
X155200000Y-106874500D02*
X155200000Y-108900000D01*
X155200000Y-108900000D02*
X153400000Y-110700000D01*
X130500000Y-101300000D02*
X129080000Y-101300000D01*
X153400000Y-110700000D02*
X153200000Y-110900000D01*
X153200000Y-110900000D02*
X147900000Y-110900000D01*
X130400000Y-98700000D02*
X129080000Y-98700000D01*
D47*
X131037500Y-104800000D02*
X131100000Y-104800000D01*
X131610000Y-104290000D02*
X132400000Y-104290000D01*
X131100000Y-104800000D02*
X131610000Y-104290000D01*
D45*
X146800000Y-103510000D02*
X146810000Y-103500000D01*
X146800000Y-104490000D02*
X146810000Y-104500000D01*
X146800000Y-104000000D02*
X146800000Y-104490000D01*
X146800000Y-104000000D02*
X146800000Y-103510000D01*
D47*
X142600000Y-97000000D02*
X143600000Y-97000000D01*
X143600000Y-97000000D02*
X147400000Y-100800000D01*
X137700000Y-93500000D02*
X140100000Y-95900000D01*
X145700000Y-95900000D02*
X148200000Y-98400000D01*
X140100000Y-95900000D02*
X145700000Y-95900000D01*
X138100000Y-90700000D02*
X137700000Y-91100000D01*
X139100000Y-90700000D02*
X138100000Y-90700000D01*
X137700000Y-91100000D02*
X137700000Y-93500000D01*
X159100000Y-90100000D02*
X159300000Y-89900000D01*
X151200000Y-98000000D02*
X159100000Y-90100000D01*
X159300000Y-89900000D02*
X161000000Y-89900000D01*
X156224500Y-94900000D02*
X158100000Y-94900000D01*
X161600000Y-91400000D02*
X161600000Y-90700000D01*
X158100000Y-94900000D02*
X161600000Y-91400000D01*
X151174500Y-99950000D02*
X156224500Y-94900000D01*
X145000000Y-84200000D02*
X145000000Y-82525000D01*
X147460000Y-90000000D02*
X147460000Y-86660000D01*
X147460000Y-86660000D02*
X145000000Y-84200000D01*
X148730000Y-84930000D02*
X148730000Y-87000000D01*
X147500000Y-82525000D02*
X147500000Y-83700000D01*
X147500000Y-83700000D02*
X148730000Y-84930000D01*
X150000000Y-90000000D02*
X150000000Y-82525000D01*
X151270000Y-87000000D02*
X151270000Y-85030000D01*
X152500000Y-83800000D02*
X152500000Y-82525000D01*
X151270000Y-85030000D02*
X152500000Y-83800000D01*
D45*
X166280000Y-91835025D02*
X165430000Y-90985025D01*
X165430000Y-90985025D02*
X165430000Y-90270000D01*
X166280000Y-92255000D02*
X166280000Y-91835025D01*
X166000000Y-90270000D02*
X165430000Y-90270000D01*
X165430000Y-90270000D02*
X164970000Y-90270000D01*
X167830000Y-91270000D02*
X167830000Y-90250000D01*
X167080000Y-92020000D02*
X167830000Y-91270000D01*
X167830000Y-90250000D02*
X168360000Y-90250000D01*
X168360000Y-90250000D02*
X168370000Y-90260000D01*
X167080000Y-92255000D02*
X167080000Y-92020000D01*
X167370000Y-90250000D02*
X167830000Y-90250000D01*
X166680000Y-94820000D02*
X166700000Y-94840000D01*
X166680000Y-93905000D02*
X166680000Y-94820000D01*
X170950000Y-97460000D02*
X169570000Y-97460000D01*
X164440000Y-94420000D02*
X165110000Y-94420000D01*
X165880000Y-94020000D02*
X165480000Y-94420000D01*
X165480000Y-94420000D02*
X165110000Y-94420000D01*
X165880000Y-93905000D02*
X165880000Y-94020000D01*
X169570000Y-97460000D02*
X169530000Y-97500000D01*
D46*
X137062500Y-111017500D02*
X136480000Y-111600000D01*
X137062500Y-110350000D02*
X137062500Y-111017500D01*
X132400000Y-111700000D02*
X132400000Y-109300000D01*
X133600000Y-112900000D02*
X132400000Y-111700000D01*
X139337500Y-110350000D02*
X139337500Y-110462500D01*
X136900000Y-112900000D02*
X133600000Y-112900000D01*
X139337500Y-110462500D02*
X136900000Y-112900000D01*
%TA.AperFunction,Conductor*%
G36*
X134959191Y-103818907D02*
G01*
X134995155Y-103868407D01*
X135000000Y-103899000D01*
X135000000Y-104125226D01*
X134995155Y-104155818D01*
X134993819Y-104159931D01*
X134990281Y-104166874D01*
X134969196Y-104300000D01*
X134990281Y-104433126D01*
X134993819Y-104440069D01*
X134995155Y-104444182D01*
X135000000Y-104474774D01*
X135000000Y-107258992D01*
X134981093Y-107317183D01*
X134971004Y-107328996D01*
X134628996Y-107671004D01*
X134574479Y-107698781D01*
X134558992Y-107700000D01*
X133700000Y-107700000D01*
X133400000Y-108000000D01*
X133400000Y-110448269D01*
X133381093Y-110506460D01*
X133331593Y-110542424D01*
X133270409Y-110542424D01*
X133270091Y-110542321D01*
X133263152Y-110538785D01*
X133255458Y-110537566D01*
X133255457Y-110537566D01*
X133137722Y-110518919D01*
X133130026Y-110517700D01*
X133122330Y-110518919D01*
X133004595Y-110537566D01*
X133004594Y-110537566D01*
X132996900Y-110538785D01*
X132989961Y-110542321D01*
X132989960Y-110542321D01*
X132883745Y-110596440D01*
X132883743Y-110596441D01*
X132876806Y-110599976D01*
X132781498Y-110695284D01*
X132755684Y-110745947D01*
X132712421Y-110789210D01*
X132667476Y-110800000D01*
X130667026Y-110800000D01*
X130608835Y-110781093D01*
X130575107Y-110737768D01*
X130496970Y-110542424D01*
X129437794Y-107894484D01*
X129433737Y-107833433D01*
X129466340Y-107781657D01*
X129495487Y-107764821D01*
X133200000Y-106400000D01*
X133200000Y-105032584D01*
X133218907Y-104974393D01*
X133228996Y-104962580D01*
X133313937Y-104877639D01*
X133330240Y-104864474D01*
X133332274Y-104863161D01*
X133332278Y-104863158D01*
X133339152Y-104858719D01*
X133358985Y-104833562D01*
X133362899Y-104829157D01*
X133362898Y-104829156D01*
X133365551Y-104826025D01*
X133368428Y-104823148D01*
X133379044Y-104808293D01*
X133381835Y-104804575D01*
X133406327Y-104773508D01*
X133406327Y-104773507D01*
X133411392Y-104767083D01*
X133413958Y-104759776D01*
X133414605Y-104758530D01*
X133419111Y-104752225D01*
X133432788Y-104706490D01*
X133434229Y-104702055D01*
X133447993Y-104662861D01*
X133447994Y-104662858D01*
X133450055Y-104656988D01*
X133450500Y-104651850D01*
X133450500Y-104649714D01*
X133450575Y-104647975D01*
X133450689Y-104646632D01*
X133452543Y-104640431D01*
X133451974Y-104625931D01*
X133450576Y-104590356D01*
X133450500Y-104586470D01*
X133450500Y-103899000D01*
X133469407Y-103840809D01*
X133518907Y-103804845D01*
X133549500Y-103800000D01*
X134901000Y-103800000D01*
X134959191Y-103818907D01*
G37*
%TD.AperFunction*%
%TA.AperFunction,Conductor*%
G36*
X140859191Y-105618907D02*
G01*
X140895155Y-105668407D01*
X140900000Y-105699000D01*
X140900000Y-105984642D01*
X140881093Y-106042833D01*
X140831593Y-106078797D01*
X140816487Y-106082423D01*
X140774569Y-106089062D01*
X140774568Y-106089062D01*
X140766874Y-106090281D01*
X140759935Y-106093817D01*
X140759934Y-106093817D01*
X140653719Y-106147936D01*
X140653717Y-106147937D01*
X140646780Y-106151472D01*
X140551472Y-106246780D01*
X140490281Y-106366874D01*
X140469196Y-106500000D01*
X140490281Y-106633126D01*
X140551472Y-106753220D01*
X140646780Y-106848528D01*
X140653717Y-106852063D01*
X140653719Y-106852064D01*
X140759934Y-106906183D01*
X140766874Y-106909719D01*
X140774568Y-106910938D01*
X140774569Y-106910938D01*
X140816487Y-106917577D01*
X140871004Y-106945355D01*
X140898781Y-106999871D01*
X140900000Y-107015358D01*
X140900000Y-109701000D01*
X140881093Y-109759191D01*
X140831593Y-109795155D01*
X140801000Y-109800000D01*
X138799000Y-109800000D01*
X138740809Y-109781093D01*
X138704845Y-109731593D01*
X138700000Y-109701000D01*
X138700000Y-108236622D01*
X138718907Y-108178431D01*
X138723834Y-108172194D01*
X139289794Y-107511907D01*
X139300000Y-107500000D01*
X139300000Y-105699000D01*
X139318907Y-105640809D01*
X139368407Y-105604845D01*
X139399000Y-105600000D01*
X140801000Y-105600000D01*
X140859191Y-105618907D01*
G37*
%TD.AperFunction*%
%TA.AperFunction,Conductor*%
G36*
X136359191Y-99518907D02*
G01*
X136395155Y-99568407D01*
X136400000Y-99599000D01*
X136400000Y-102800000D01*
X137071004Y-103471004D01*
X137098781Y-103525521D01*
X137100000Y-103541008D01*
X137100000Y-104900000D01*
X138555915Y-105870610D01*
X138593845Y-105918620D01*
X138600000Y-105952983D01*
X138600000Y-107258992D01*
X138581093Y-107317183D01*
X138571004Y-107328996D01*
X137900000Y-108000000D01*
X137900000Y-108701000D01*
X137881093Y-108759191D01*
X137831593Y-108795155D01*
X137801000Y-108800000D01*
X136299000Y-108800000D01*
X136240809Y-108781093D01*
X136204845Y-108731593D01*
X136200000Y-108701000D01*
X136200000Y-108000000D01*
X135433808Y-107329582D01*
X135402466Y-107277034D01*
X135400000Y-107255077D01*
X135400000Y-103900000D01*
X134728996Y-103228996D01*
X134701219Y-103174479D01*
X134700000Y-103158992D01*
X134700000Y-99599000D01*
X134718907Y-99540809D01*
X134768407Y-99504845D01*
X134799000Y-99500000D01*
X136301000Y-99500000D01*
X136359191Y-99518907D01*
G37*
%TD.AperFunction*%
%TA.AperFunction,Conductor*%
G36*
X135677031Y-108018907D02*
G01*
X135712995Y-108068407D01*
X135715917Y-108079585D01*
X135900000Y-109000000D01*
X137701000Y-109000000D01*
X137759191Y-109018907D01*
X137795155Y-109068407D01*
X137800000Y-109099000D01*
X137800000Y-109764651D01*
X137781093Y-109822842D01*
X137731593Y-109858806D01*
X137676556Y-109859202D01*
X137676518Y-109859464D01*
X137674805Y-109859214D01*
X137674804Y-109859214D01*
X137668914Y-109858355D01*
X137668912Y-109858354D01*
X137611763Y-109850017D01*
X137611761Y-109850017D01*
X137608218Y-109849500D01*
X136516782Y-109849500D01*
X136513199Y-109850028D01*
X136513192Y-109850028D01*
X136455501Y-109858521D01*
X136455499Y-109858522D01*
X136447888Y-109859642D01*
X136386327Y-109889867D01*
X136342696Y-109900000D01*
X135900000Y-109900000D01*
X135900000Y-112001000D01*
X135881093Y-112059191D01*
X135831593Y-112095155D01*
X135801000Y-112100000D01*
X134499000Y-112100000D01*
X134440809Y-112081093D01*
X134404845Y-112031593D01*
X134400000Y-112001000D01*
X134400000Y-108099000D01*
X134418907Y-108040809D01*
X134468407Y-108004845D01*
X134499000Y-108000000D01*
X135618840Y-108000000D01*
X135677031Y-108018907D01*
G37*
%TD.AperFunction*%
M02*
