%TF.GenerationSoftware,KiCad,Pcbnew,(6.0.9)*%
%TF.CreationDate,2023-01-25T10:50:16+01:00*%
%TF.ProjectId,BatteryManagementBoard,42617474-6572-4794-9d61-6e6167656d65,rev?*%
%TF.SameCoordinates,Original*%
%TF.FileFunction,Paste,Bot*%
%TF.FilePolarity,Positive*%
%FSLAX46Y46*%
G04 Gerber Fmt 4.6, Leading zero omitted, Abs format (unit mm)*
G04 Created by KiCad (PCBNEW (6.0.9)) date 2023-01-25 10:50:16*
%MOMM*%
%LPD*%
G01*
G04 APERTURE LIST*
G04 Aperture macros list*
%AMRoundRect*
0 Rectangle with rounded corners*
0 $1 Rounding radius*
0 $2 $3 $4 $5 $6 $7 $8 $9 X,Y pos of 4 corners*
0 Add a 4 corners polygon primitive as box body*
4,1,4,$2,$3,$4,$5,$6,$7,$8,$9,$2,$3,0*
0 Add four circle primitives for the rounded corners*
1,1,$1+$1,$2,$3*
1,1,$1+$1,$4,$5*
1,1,$1+$1,$6,$7*
1,1,$1+$1,$8,$9*
0 Add four rect primitives between the rounded corners*
20,1,$1+$1,$2,$3,$4,$5,0*
20,1,$1+$1,$4,$5,$6,$7,0*
20,1,$1+$1,$6,$7,$8,$9,0*
20,1,$1+$1,$8,$9,$2,$3,0*%
G04 Aperture macros list end*
%ADD10R,3.250000X5.000000*%
%ADD11RoundRect,0.135000X-0.185000X0.135000X-0.185000X-0.135000X0.185000X-0.135000X0.185000X0.135000X0*%
%ADD12RoundRect,0.135000X-0.135000X-0.185000X0.135000X-0.185000X0.135000X0.185000X-0.135000X0.185000X0*%
%ADD13RoundRect,0.250000X-0.250000X-0.475000X0.250000X-0.475000X0.250000X0.475000X-0.250000X0.475000X0*%
%ADD14R,0.430000X0.380000*%
%ADD15R,0.300000X0.400000*%
%ADD16R,1.980000X2.450000*%
%ADD17R,0.500000X0.350000*%
%ADD18RoundRect,0.140000X-0.170000X0.140000X-0.170000X-0.140000X0.170000X-0.140000X0.170000X0.140000X0*%
%ADD19RoundRect,0.250000X0.250000X0.475000X-0.250000X0.475000X-0.250000X-0.475000X0.250000X-0.475000X0*%
%ADD20RoundRect,0.250000X-0.550000X1.250000X-0.550000X-1.250000X0.550000X-1.250000X0.550000X1.250000X0*%
%ADD21RoundRect,0.135000X0.185000X-0.135000X0.185000X0.135000X-0.185000X0.135000X-0.185000X-0.135000X0*%
%ADD22RoundRect,0.225000X0.225000X0.250000X-0.225000X0.250000X-0.225000X-0.250000X0.225000X-0.250000X0*%
%ADD23RoundRect,0.250000X0.315000X0.315000X-0.315000X0.315000X-0.315000X-0.315000X0.315000X-0.315000X0*%
%ADD24RoundRect,0.050000X0.337500X0.050000X-0.337500X0.050000X-0.337500X-0.050000X0.337500X-0.050000X0*%
%ADD25RoundRect,0.050000X0.050000X0.337500X-0.050000X0.337500X-0.050000X-0.337500X0.050000X-0.337500X0*%
%ADD26RoundRect,0.225000X0.250000X-0.225000X0.250000X0.225000X-0.250000X0.225000X-0.250000X-0.225000X0*%
%ADD27R,0.380000X0.430000*%
%ADD28R,0.400000X0.300000*%
%ADD29R,2.450000X1.980000*%
%ADD30R,0.350000X0.500000*%
%ADD31RoundRect,0.140000X0.140000X0.170000X-0.140000X0.170000X-0.140000X-0.170000X0.140000X-0.170000X0*%
%ADD32RoundRect,0.135000X0.135000X0.185000X-0.135000X0.185000X-0.135000X-0.185000X0.135000X-0.185000X0*%
%ADD33RoundRect,0.250000X0.625000X-0.312500X0.625000X0.312500X-0.625000X0.312500X-0.625000X-0.312500X0*%
%ADD34RoundRect,0.140000X0.170000X-0.140000X0.170000X0.140000X-0.170000X0.140000X-0.170000X-0.140000X0*%
%ADD35RoundRect,0.218750X0.218750X0.256250X-0.218750X0.256250X-0.218750X-0.256250X0.218750X-0.256250X0*%
%ADD36RoundRect,0.140000X-0.140000X-0.170000X0.140000X-0.170000X0.140000X0.170000X-0.140000X0.170000X0*%
%ADD37RoundRect,0.250000X-0.312500X-0.625000X0.312500X-0.625000X0.312500X0.625000X-0.312500X0.625000X0*%
%ADD38RoundRect,0.200000X0.200000X0.275000X-0.200000X0.275000X-0.200000X-0.275000X0.200000X-0.275000X0*%
G04 APERTURE END LIST*
D10*
%TO.C,L301*%
X155625000Y-92000000D03*
X144375000Y-92000000D03*
%TD*%
D11*
%TO.C,R313*%
X129700000Y-100190000D03*
X129700000Y-101210000D03*
%TD*%
D12*
%TO.C,R505*%
X165720000Y-95710000D03*
X166740000Y-95710000D03*
%TD*%
D13*
%TO.C,C302*%
X162050000Y-100000000D03*
X163950000Y-100000000D03*
%TD*%
D12*
%TO.C,R302*%
X157240000Y-98000000D03*
X158260000Y-98000000D03*
%TD*%
D14*
%TO.C,Q302*%
X159610000Y-86850000D03*
X159610000Y-89650000D03*
D15*
X158110000Y-87275000D03*
X158110000Y-89225000D03*
X158110000Y-87925000D03*
X158110000Y-88575000D03*
D16*
X159250000Y-88250000D03*
D17*
X161010000Y-89225000D03*
X161010000Y-88575000D03*
X161010000Y-87275000D03*
X161010000Y-87925000D03*
%TD*%
D18*
%TO.C,C332*%
X150800000Y-106720000D03*
X150800000Y-107680000D03*
%TD*%
D13*
%TO.C,C304*%
X162050000Y-104000000D03*
X163950000Y-104000000D03*
%TD*%
D19*
%TO.C,C321*%
X142450000Y-105000000D03*
X140550000Y-105000000D03*
%TD*%
D15*
%TO.C,Q304*%
X139000000Y-96975000D03*
X139000000Y-95025000D03*
X139000000Y-95675000D03*
D14*
X140500000Y-97400000D03*
D16*
X140140000Y-96000000D03*
D14*
X140500000Y-94600000D03*
D15*
X139000000Y-96325000D03*
D17*
X141900000Y-96975000D03*
X141900000Y-95675000D03*
X141900000Y-95025000D03*
X141900000Y-96325000D03*
%TD*%
D19*
%TO.C,C306*%
X157950000Y-102500000D03*
X156050000Y-102500000D03*
%TD*%
D12*
%TO.C,R201*%
X166690000Y-111300000D03*
X167710000Y-111300000D03*
%TD*%
D20*
%TO.C,C401*%
X136000000Y-110300000D03*
X136000000Y-114700000D03*
%TD*%
D21*
%TO.C,R318*%
X151800000Y-107710000D03*
X151800000Y-106690000D03*
%TD*%
D11*
%TO.C,R316*%
X166300000Y-98990000D03*
X166300000Y-100010000D03*
%TD*%
D22*
%TO.C,C322*%
X141175000Y-110500000D03*
X139625000Y-110500000D03*
%TD*%
D13*
%TO.C,C301*%
X162050000Y-98000000D03*
X163950000Y-98000000D03*
%TD*%
%TO.C,C315*%
X135850000Y-103000000D03*
X137750000Y-103000000D03*
%TD*%
D23*
%TO.C,U301*%
X150700000Y-103450000D03*
X149300000Y-102050000D03*
X150700000Y-102050000D03*
X149300000Y-103450000D03*
D24*
X151987500Y-101350000D03*
X151987500Y-101750000D03*
X151987500Y-102150000D03*
X151987500Y-102550000D03*
X151987500Y-102950000D03*
X151987500Y-103350000D03*
X151987500Y-103750000D03*
X151987500Y-104150000D03*
D25*
X151400000Y-104737500D03*
X151000000Y-104737500D03*
X150600000Y-104737500D03*
X150200000Y-104737500D03*
X149800000Y-104737500D03*
X149400000Y-104737500D03*
X149000000Y-104737500D03*
X148600000Y-104737500D03*
D24*
X148012500Y-104150000D03*
X148012500Y-103750000D03*
X148012500Y-103350000D03*
X148012500Y-102950000D03*
X148012500Y-102550000D03*
X148012500Y-102150000D03*
X148012500Y-101750000D03*
X148012500Y-101350000D03*
D25*
X148600000Y-100762500D03*
X149000000Y-100762500D03*
X149400000Y-100762500D03*
X149800000Y-100762500D03*
X150200000Y-100762500D03*
X150600000Y-100762500D03*
X151000000Y-100762500D03*
X151400000Y-100762500D03*
%TD*%
D13*
%TO.C,C303*%
X162050000Y-102000000D03*
X163950000Y-102000000D03*
%TD*%
D12*
%TO.C,R202*%
X166690000Y-110100000D03*
X167710000Y-110100000D03*
%TD*%
D19*
%TO.C,C318*%
X142450000Y-99000000D03*
X140550000Y-99000000D03*
%TD*%
%TO.C,C320*%
X142450000Y-103000000D03*
X140550000Y-103000000D03*
%TD*%
D26*
%TO.C,C325*%
X153600000Y-100575000D03*
X153600000Y-99025000D03*
%TD*%
D27*
%TO.C,Q305*%
X138100000Y-107890000D03*
D28*
X140475000Y-109390000D03*
X138525000Y-109390000D03*
D27*
X140900000Y-107890000D03*
D28*
X139175000Y-109390000D03*
X139825000Y-109390000D03*
D29*
X139500000Y-108250000D03*
D30*
X140475000Y-106490000D03*
X139175000Y-106490000D03*
X138525000Y-106490000D03*
X139825000Y-106490000D03*
%TD*%
D31*
%TO.C,C308*%
X157230000Y-99000000D03*
X156270000Y-99000000D03*
%TD*%
D32*
%TO.C,R310*%
X154260000Y-107250000D03*
X153240000Y-107250000D03*
%TD*%
D11*
%TO.C,R306*%
X145800000Y-106790000D03*
X145800000Y-107810000D03*
%TD*%
D33*
%TO.C,R301*%
X160000000Y-97962500D03*
X160000000Y-95037500D03*
%TD*%
D34*
%TO.C,C309*%
X157000000Y-96480000D03*
X157000000Y-95520000D03*
%TD*%
D35*
%TO.C,F201*%
X161787500Y-105750000D03*
X160212500Y-105750000D03*
%TD*%
D36*
%TO.C,C310*%
X161820000Y-93200000D03*
X162780000Y-93200000D03*
%TD*%
D19*
%TO.C,C305*%
X157950000Y-104500000D03*
X156050000Y-104500000D03*
%TD*%
D13*
%TO.C,C316*%
X135850000Y-101000000D03*
X137750000Y-101000000D03*
%TD*%
D36*
%TO.C,C313*%
X147020000Y-99250000D03*
X147980000Y-99250000D03*
%TD*%
D34*
%TO.C,C333*%
X132400000Y-101180000D03*
X132400000Y-100220000D03*
%TD*%
D21*
%TO.C,R303*%
X158250000Y-96510000D03*
X158250000Y-95490000D03*
%TD*%
D37*
%TO.C,R304*%
X142837500Y-109500000D03*
X145762500Y-109500000D03*
%TD*%
D28*
%TO.C,Q301*%
X158775000Y-93640000D03*
D27*
X161150000Y-92140000D03*
D28*
X160725000Y-93640000D03*
X160075000Y-93640000D03*
X159425000Y-93640000D03*
D27*
X158350000Y-92140000D03*
D29*
X159750000Y-92500000D03*
D30*
X160725000Y-90740000D03*
X158775000Y-90740000D03*
X160075000Y-90740000D03*
X159425000Y-90740000D03*
%TD*%
D31*
%TO.C,C312*%
X151980000Y-99200000D03*
X151020000Y-99200000D03*
%TD*%
D16*
%TO.C,Q303*%
X140860000Y-92250000D03*
D14*
X140500000Y-93650000D03*
D15*
X142000000Y-91275000D03*
D14*
X140500000Y-90850000D03*
D15*
X142000000Y-93225000D03*
X142000000Y-92575000D03*
X142000000Y-91925000D03*
D17*
X139100000Y-91275000D03*
X139100000Y-91925000D03*
X139100000Y-93225000D03*
X139100000Y-92575000D03*
%TD*%
D13*
%TO.C,C314*%
X135850000Y-97000000D03*
X137750000Y-97000000D03*
%TD*%
D32*
%TO.C,R312*%
X155260000Y-108250000D03*
X154240000Y-108250000D03*
%TD*%
D38*
%TO.C,R307*%
X158025000Y-106300000D03*
X156375000Y-106300000D03*
%TD*%
D19*
%TO.C,C307*%
X157950000Y-100500000D03*
X156050000Y-100500000D03*
%TD*%
D36*
%TO.C,C323*%
X143840000Y-107800000D03*
X144800000Y-107800000D03*
%TD*%
D11*
%TO.C,R317*%
X128600000Y-100190000D03*
X128600000Y-101210000D03*
%TD*%
D19*
%TO.C,C319*%
X142450000Y-101000000D03*
X140550000Y-101000000D03*
%TD*%
D36*
%TO.C,C311*%
X161820000Y-94200000D03*
X162780000Y-94200000D03*
%TD*%
D13*
%TO.C,C317*%
X135850000Y-99000000D03*
X137750000Y-99000000D03*
%TD*%
D11*
%TO.C,R305*%
X142900000Y-106890000D03*
X142900000Y-107910000D03*
%TD*%
M02*
