%TF.GenerationSoftware,KiCad,Pcbnew,(6.0.9)*%
%TF.CreationDate,2023-01-25T10:50:16+01:00*%
%TF.ProjectId,BatteryManagementBoard,42617474-6572-4794-9d61-6e6167656d65,rev?*%
%TF.SameCoordinates,Original*%
%TF.FileFunction,Legend,Bot*%
%TF.FilePolarity,Positive*%
%FSLAX46Y46*%
G04 Gerber Fmt 4.6, Leading zero omitted, Abs format (unit mm)*
G04 Created by KiCad (PCBNEW (6.0.9)) date 2023-01-25 10:50:16*
%MOMM*%
%LPD*%
G01*
G04 APERTURE LIST*
%ADD10C,0.160000*%
%ADD11C,0.120000*%
%ADD12C,0.200000*%
G04 APERTURE END LIST*
D10*
X136892857Y-93647380D02*
X137369047Y-93647380D01*
X137369047Y-92647380D01*
X136559523Y-93123571D02*
X136226190Y-93123571D01*
X136083333Y-93647380D02*
X136559523Y-93647380D01*
X136559523Y-92647380D01*
X136083333Y-92647380D01*
X135654761Y-93647380D02*
X135654761Y-92647380D01*
X135416666Y-92647380D01*
X135273809Y-92695000D01*
X135178571Y-92790238D01*
X135130952Y-92885476D01*
X135083333Y-93075952D01*
X135083333Y-93218809D01*
X135130952Y-93409285D01*
X135178571Y-93504523D01*
X135273809Y-93599761D01*
X135416666Y-93647380D01*
X135654761Y-93647380D01*
X138178571Y-94590714D02*
X138178571Y-95590714D01*
X138178571Y-94638333D02*
X138083333Y-94590714D01*
X137892857Y-94590714D01*
X137797619Y-94638333D01*
X137750000Y-94685952D01*
X137702380Y-94781190D01*
X137702380Y-95066904D01*
X137750000Y-95162142D01*
X137797619Y-95209761D01*
X137892857Y-95257380D01*
X138083333Y-95257380D01*
X138178571Y-95209761D01*
X137130952Y-95257380D02*
X137226190Y-95209761D01*
X137273809Y-95162142D01*
X137321428Y-95066904D01*
X137321428Y-94781190D01*
X137273809Y-94685952D01*
X137226190Y-94638333D01*
X137130952Y-94590714D01*
X136988095Y-94590714D01*
X136892857Y-94638333D01*
X136845238Y-94685952D01*
X136797619Y-94781190D01*
X136797619Y-95066904D01*
X136845238Y-95162142D01*
X136892857Y-95209761D01*
X136988095Y-95257380D01*
X137130952Y-95257380D01*
X136464285Y-94590714D02*
X136273809Y-95257380D01*
X136083333Y-94781190D01*
X135892857Y-95257380D01*
X135702380Y-94590714D01*
X134940476Y-95209761D02*
X135035714Y-95257380D01*
X135226190Y-95257380D01*
X135321428Y-95209761D01*
X135369047Y-95114523D01*
X135369047Y-94733571D01*
X135321428Y-94638333D01*
X135226190Y-94590714D01*
X135035714Y-94590714D01*
X134940476Y-94638333D01*
X134892857Y-94733571D01*
X134892857Y-94828809D01*
X135369047Y-94924047D01*
X134464285Y-95257380D02*
X134464285Y-94590714D01*
X134464285Y-94781190D02*
X134416666Y-94685952D01*
X134369047Y-94638333D01*
X134273809Y-94590714D01*
X134178571Y-94590714D01*
X159821428Y-118428571D02*
X159678571Y-118476190D01*
X159630952Y-118523809D01*
X159583333Y-118619047D01*
X159583333Y-118761904D01*
X159630952Y-118857142D01*
X159678571Y-118904761D01*
X159773809Y-118952380D01*
X160154761Y-118952380D01*
X160154761Y-117952380D01*
X159821428Y-117952380D01*
X159726190Y-118000000D01*
X159678571Y-118047619D01*
X159630952Y-118142857D01*
X159630952Y-118238095D01*
X159678571Y-118333333D01*
X159726190Y-118380952D01*
X159821428Y-118428571D01*
X160154761Y-118428571D01*
X158726190Y-118952380D02*
X158726190Y-118428571D01*
X158773809Y-118333333D01*
X158869047Y-118285714D01*
X159059523Y-118285714D01*
X159154761Y-118333333D01*
X158726190Y-118904761D02*
X158821428Y-118952380D01*
X159059523Y-118952380D01*
X159154761Y-118904761D01*
X159202380Y-118809523D01*
X159202380Y-118714285D01*
X159154761Y-118619047D01*
X159059523Y-118571428D01*
X158821428Y-118571428D01*
X158726190Y-118523809D01*
X158392857Y-118285714D02*
X158011904Y-118285714D01*
X158250000Y-117952380D02*
X158250000Y-118809523D01*
X158202380Y-118904761D01*
X158107142Y-118952380D01*
X158011904Y-118952380D01*
X157821428Y-118285714D02*
X157440476Y-118285714D01*
X157678571Y-117952380D02*
X157678571Y-118809523D01*
X157630952Y-118904761D01*
X157535714Y-118952380D01*
X157440476Y-118952380D01*
X156726190Y-118904761D02*
X156821428Y-118952380D01*
X157011904Y-118952380D01*
X157107142Y-118904761D01*
X157154761Y-118809523D01*
X157154761Y-118428571D01*
X157107142Y-118333333D01*
X157011904Y-118285714D01*
X156821428Y-118285714D01*
X156726190Y-118333333D01*
X156678571Y-118428571D01*
X156678571Y-118523809D01*
X157154761Y-118619047D01*
X156250000Y-118952380D02*
X156250000Y-118285714D01*
X156250000Y-118476190D02*
X156202380Y-118380952D01*
X156154761Y-118333333D01*
X156059523Y-118285714D01*
X155964285Y-118285714D01*
X155726190Y-118285714D02*
X155488095Y-118952380D01*
X155250000Y-118285714D02*
X155488095Y-118952380D01*
X155583333Y-119190476D01*
X155630952Y-119238095D01*
X155726190Y-119285714D01*
D11*
%TO.C,L301*%
X143700000Y-98300000D02*
X156300000Y-98300000D01*
X156300000Y-98300000D02*
X156300000Y-94800000D01*
X156300000Y-85700000D02*
X156300000Y-89200000D01*
X143700000Y-85700000D02*
X143700000Y-89200000D01*
X143700000Y-98300000D02*
X143700000Y-94800000D01*
X143700000Y-85700000D02*
X156300000Y-85700000D01*
%TO.C,R313*%
X130080000Y-100546359D02*
X130080000Y-100853641D01*
X129320000Y-100546359D02*
X129320000Y-100853641D01*
%TO.C,R505*%
X166076359Y-96090000D02*
X166383641Y-96090000D01*
X166076359Y-95330000D02*
X166383641Y-95330000D01*
%TO.C,C302*%
X162738748Y-100735000D02*
X163261252Y-100735000D01*
X162738748Y-99265000D02*
X163261252Y-99265000D01*
%TO.C,R302*%
X157596359Y-98380000D02*
X157903641Y-98380000D01*
X157596359Y-97620000D02*
X157903641Y-97620000D01*
%TO.C,Q302*%
X161530711Y-87250000D02*
G75*
G03*
X161530711Y-87250000I-70711J0D01*
G01*
%TO.C,C332*%
X151160000Y-107092164D02*
X151160000Y-107307836D01*
X150440000Y-107092164D02*
X150440000Y-107307836D01*
%TO.C,C304*%
X162738748Y-104735000D02*
X163261252Y-104735000D01*
X162738748Y-103265000D02*
X163261252Y-103265000D01*
%TO.C,C321*%
X141761252Y-105735000D02*
X141238748Y-105735000D01*
X141761252Y-104265000D02*
X141238748Y-104265000D01*
%TO.C,Q304*%
X142420711Y-95000000D02*
G75*
G03*
X142420711Y-95000000I-70711J0D01*
G01*
%TO.C,C306*%
X157261252Y-103235000D02*
X156738748Y-103235000D01*
X157261252Y-101765000D02*
X156738748Y-101765000D01*
%TO.C,R201*%
X167046359Y-111680000D02*
X167353641Y-111680000D01*
X167046359Y-110920000D02*
X167353641Y-110920000D01*
%TO.C,C401*%
X138760000Y-115260000D02*
X137060000Y-115260000D01*
X137695563Y-109740000D02*
X138760000Y-110804437D01*
X133240000Y-110804437D02*
X133240000Y-115260000D01*
X134002500Y-109187500D02*
X134627500Y-109187500D01*
X134304437Y-109740000D02*
X134940000Y-109740000D01*
X134315000Y-108875000D02*
X134315000Y-109500000D01*
X134304437Y-109740000D02*
X133240000Y-110804437D01*
X133240000Y-115260000D02*
X134940000Y-115260000D01*
X137695563Y-109740000D02*
X137060000Y-109740000D01*
X138760000Y-110804437D02*
X138760000Y-115260000D01*
%TO.C,R318*%
X151420000Y-107353641D02*
X151420000Y-107046359D01*
X152180000Y-107353641D02*
X152180000Y-107046359D01*
%TO.C,R316*%
X166680000Y-99346359D02*
X166680000Y-99653641D01*
X165920000Y-99346359D02*
X165920000Y-99653641D01*
%TO.C,C322*%
X140540580Y-109990000D02*
X140259420Y-109990000D01*
X140540580Y-111010000D02*
X140259420Y-111010000D01*
%TO.C,C301*%
X162738748Y-98735000D02*
X163261252Y-98735000D01*
X162738748Y-97265000D02*
X163261252Y-97265000D01*
%TO.C,C315*%
X136538748Y-103735000D02*
X137061252Y-103735000D01*
X136538748Y-102265000D02*
X137061252Y-102265000D01*
%TO.C,U301*%
X151760000Y-100640000D02*
X152110000Y-100640000D01*
X151760000Y-104860000D02*
X152110000Y-104860000D01*
X152110000Y-104860000D02*
X152110000Y-104510000D01*
X148240000Y-100640000D02*
X147890000Y-100640000D01*
X147890000Y-104860000D02*
X147890000Y-104510000D01*
X147890000Y-100640000D02*
X147890000Y-100990000D01*
X148240000Y-104860000D02*
X147890000Y-104860000D01*
%TO.C,J208*%
X156800000Y-79775000D02*
X150000000Y-79775000D01*
X145750000Y-84225000D02*
X154250000Y-84225000D01*
X142150000Y-85275000D02*
X142150000Y-84025000D01*
X154250000Y-84975000D02*
X145750000Y-84975000D01*
X156800000Y-82725000D02*
X156800000Y-79775000D01*
X142450000Y-84975000D02*
X142450000Y-84225000D01*
X154250000Y-84225000D02*
X154250000Y-84975000D01*
X144250000Y-84975000D02*
X142450000Y-84975000D01*
X142450000Y-82725000D02*
X143200000Y-82725000D01*
X144250000Y-84225000D02*
X144250000Y-84975000D01*
X155750000Y-84975000D02*
X155750000Y-84225000D01*
X157560000Y-79015000D02*
X157560000Y-84985000D01*
X142440000Y-84985000D02*
X142440000Y-79015000D01*
X157550000Y-82725000D02*
X156800000Y-82725000D01*
X143200000Y-79775000D02*
X150000000Y-79775000D01*
X157550000Y-84225000D02*
X157550000Y-84975000D01*
X143400000Y-85275000D02*
X142150000Y-85275000D01*
X142440000Y-79015000D02*
X157560000Y-79015000D01*
X157560000Y-84985000D02*
X142440000Y-84985000D01*
X143200000Y-82725000D02*
X143200000Y-79775000D01*
X155750000Y-84225000D02*
X157550000Y-84225000D01*
X145750000Y-84975000D02*
X145750000Y-84225000D01*
X142450000Y-84225000D02*
X144250000Y-84225000D01*
X157550000Y-84975000D02*
X155750000Y-84975000D01*
%TO.C,C303*%
X162738748Y-102735000D02*
X163261252Y-102735000D01*
X162738748Y-101265000D02*
X163261252Y-101265000D01*
%TO.C,R202*%
X167046359Y-110480000D02*
X167353641Y-110480000D01*
X167046359Y-109720000D02*
X167353641Y-109720000D01*
%TO.C,C318*%
X141761252Y-98265000D02*
X141238748Y-98265000D01*
X141761252Y-99735000D02*
X141238748Y-99735000D01*
%TO.C,C320*%
X141761252Y-102265000D02*
X141238748Y-102265000D01*
X141761252Y-103735000D02*
X141238748Y-103735000D01*
%TO.C,C325*%
X154110000Y-99940580D02*
X154110000Y-99659420D01*
X153090000Y-99940580D02*
X153090000Y-99659420D01*
%TO.C,Q305*%
X138570711Y-106040000D02*
G75*
G03*
X138570711Y-106040000I-70711J0D01*
G01*
%TO.C,C308*%
X156857836Y-99360000D02*
X156642164Y-99360000D01*
X156857836Y-98640000D02*
X156642164Y-98640000D01*
%TO.C,R310*%
X153903641Y-107630000D02*
X153596359Y-107630000D01*
X153903641Y-106870000D02*
X153596359Y-106870000D01*
%TO.C,R306*%
X145420000Y-107146359D02*
X145420000Y-107453641D01*
X146180000Y-107146359D02*
X146180000Y-107453641D01*
%TO.C,R301*%
X159090000Y-97227064D02*
X159090000Y-95772936D01*
X160910000Y-97227064D02*
X160910000Y-95772936D01*
%TO.C,C309*%
X156640000Y-96107836D02*
X156640000Y-95892164D01*
X157360000Y-96107836D02*
X157360000Y-95892164D01*
%TO.C,F201*%
X161162779Y-106260000D02*
X160837221Y-106260000D01*
X161162779Y-105240000D02*
X160837221Y-105240000D01*
%TO.C,J204*%
X154850000Y-112450000D02*
X153750000Y-111350000D01*
X153750000Y-111350000D02*
X139150000Y-111350000D01*
X154850000Y-118550000D02*
X154850000Y-112450000D01*
X139150000Y-119650000D02*
X153750000Y-119650000D01*
X139150000Y-111350000D02*
X139150000Y-119650000D01*
X138000000Y-115000000D02*
X138000000Y-116000000D01*
X138500000Y-115500000D02*
X137500000Y-115500000D01*
X153750000Y-119650000D02*
X154850000Y-118550000D01*
X156500000Y-115500000D02*
X155500000Y-115500000D01*
%TO.C,C310*%
X162192164Y-93560000D02*
X162407836Y-93560000D01*
X162192164Y-92840000D02*
X162407836Y-92840000D01*
%TO.C,C305*%
X157261252Y-105235000D02*
X156738748Y-105235000D01*
X157261252Y-103765000D02*
X156738748Y-103765000D01*
%TO.C,C316*%
X136538748Y-101735000D02*
X137061252Y-101735000D01*
X136538748Y-100265000D02*
X137061252Y-100265000D01*
%TO.C,C313*%
X147392164Y-99610000D02*
X147607836Y-99610000D01*
X147392164Y-98890000D02*
X147607836Y-98890000D01*
%TO.C,C333*%
X132040000Y-100807836D02*
X132040000Y-100592164D01*
X132760000Y-100807836D02*
X132760000Y-100592164D01*
%TO.C,R303*%
X158630000Y-96153641D02*
X158630000Y-95846359D01*
X157870000Y-96153641D02*
X157870000Y-95846359D01*
%TO.C,R304*%
X143572936Y-110410000D02*
X145027064Y-110410000D01*
X143572936Y-108590000D02*
X145027064Y-108590000D01*
%TO.C,Q301*%
X158820711Y-90290000D02*
G75*
G03*
X158820711Y-90290000I-70711J0D01*
G01*
D12*
%TO.C,J202*%
X130428501Y-89090990D02*
X136827817Y-82691674D01*
D11*
X140221930Y-84035177D02*
X139514823Y-83328070D01*
X132196268Y-91353732D02*
X131630583Y-91919417D01*
D12*
X134459010Y-93121499D02*
X140858326Y-86722183D01*
X130428501Y-89090990D02*
X134459010Y-93121499D01*
X140858326Y-83893755D02*
X140858326Y-86722183D01*
X139656245Y-82691674D02*
X140858326Y-83893755D01*
X139656245Y-82691674D02*
X136827817Y-82691674D01*
D11*
X131630583Y-91353732D02*
X132196268Y-91919417D01*
%TO.C,C312*%
X151607836Y-98840000D02*
X151392164Y-98840000D01*
X151607836Y-99560000D02*
X151392164Y-99560000D01*
%TO.C,Q303*%
X138720711Y-93250000D02*
G75*
G03*
X138720711Y-93250000I-70711J0D01*
G01*
%TO.C,C314*%
X136538748Y-96265000D02*
X137061252Y-96265000D01*
X136538748Y-97735000D02*
X137061252Y-97735000D01*
%TO.C,R312*%
X154903641Y-107870000D02*
X154596359Y-107870000D01*
X154903641Y-108630000D02*
X154596359Y-108630000D01*
%TO.C,R307*%
X157437258Y-106822500D02*
X156962742Y-106822500D01*
X157437258Y-105777500D02*
X156962742Y-105777500D01*
%TO.C,C307*%
X157261252Y-99765000D02*
X156738748Y-99765000D01*
X157261252Y-101235000D02*
X156738748Y-101235000D01*
%TO.C,C323*%
X144212164Y-108160000D02*
X144427836Y-108160000D01*
X144212164Y-107440000D02*
X144427836Y-107440000D01*
%TO.C,R317*%
X128220000Y-100546359D02*
X128220000Y-100853641D01*
X128980000Y-100546359D02*
X128980000Y-100853641D01*
%TO.C,C319*%
X141761252Y-101735000D02*
X141238748Y-101735000D01*
X141761252Y-100265000D02*
X141238748Y-100265000D01*
%TO.C,C311*%
X162192164Y-94560000D02*
X162407836Y-94560000D01*
X162192164Y-93840000D02*
X162407836Y-93840000D01*
%TO.C,C317*%
X136538748Y-98265000D02*
X137061252Y-98265000D01*
X136538748Y-99735000D02*
X137061252Y-99735000D01*
%TO.C,R305*%
X143280000Y-107246359D02*
X143280000Y-107553641D01*
X142520000Y-107246359D02*
X142520000Y-107553641D01*
%TD*%
M02*
