%TF.GenerationSoftware,KiCad,Pcbnew,(6.0.9)*%
%TF.CreationDate,2023-02-03T11:40:43+01:00*%
%TF.ProjectId,BatteryManagementBoard,42617474-6572-4794-9d61-6e6167656d65,rev?*%
%TF.SameCoordinates,Original*%
%TF.FileFunction,Paste,Top*%
%TF.FilePolarity,Positive*%
%FSLAX46Y46*%
G04 Gerber Fmt 4.6, Leading zero omitted, Abs format (unit mm)*
G04 Created by KiCad (PCBNEW (6.0.9)) date 2023-02-03 11:40:43*
%MOMM*%
%LPD*%
G01*
G04 APERTURE LIST*
G04 Aperture macros list*
%AMRoundRect*
0 Rectangle with rounded corners*
0 $1 Rounding radius*
0 $2 $3 $4 $5 $6 $7 $8 $9 X,Y pos of 4 corners*
0 Add a 4 corners polygon primitive as box body*
4,1,4,$2,$3,$4,$5,$6,$7,$8,$9,$2,$3,0*
0 Add four circle primitives for the rounded corners*
1,1,$1+$1,$2,$3*
1,1,$1+$1,$4,$5*
1,1,$1+$1,$6,$7*
1,1,$1+$1,$8,$9*
0 Add four rect primitives between the rounded corners*
20,1,$1+$1,$2,$3,$4,$5,0*
20,1,$1+$1,$4,$5,$6,$7,0*
20,1,$1+$1,$6,$7,$8,$9,0*
20,1,$1+$1,$8,$9,$2,$3,0*%
G04 Aperture macros list end*
%ADD10C,0.010000*%
%ADD11RoundRect,0.250000X0.375000X1.075000X-0.375000X1.075000X-0.375000X-1.075000X0.375000X-1.075000X0*%
%ADD12RoundRect,0.225000X-0.225000X-0.250000X0.225000X-0.250000X0.225000X0.250000X-0.225000X0.250000X0*%
%ADD13RoundRect,0.135000X0.135000X0.185000X-0.135000X0.185000X-0.135000X-0.185000X0.135000X-0.185000X0*%
%ADD14RoundRect,0.140000X-0.140000X-0.170000X0.140000X-0.170000X0.140000X0.170000X-0.140000X0.170000X0*%
%ADD15RoundRect,0.050000X0.375000X0.050000X-0.375000X0.050000X-0.375000X-0.050000X0.375000X-0.050000X0*%
%ADD16RoundRect,0.050000X0.050000X0.275000X-0.050000X0.275000X-0.050000X-0.275000X0.050000X-0.275000X0*%
%ADD17RoundRect,0.140000X0.140000X0.170000X-0.140000X0.170000X-0.140000X-0.170000X0.140000X-0.170000X0*%
%ADD18R,0.870000X0.300000*%
%ADD19RoundRect,0.140000X-0.170000X0.140000X-0.170000X-0.140000X0.170000X-0.140000X0.170000X0.140000X0*%
%ADD20RoundRect,0.225000X0.250000X-0.225000X0.250000X0.225000X-0.250000X0.225000X-0.250000X-0.225000X0*%
%ADD21RoundRect,0.150000X0.512500X0.150000X-0.512500X0.150000X-0.512500X-0.150000X0.512500X-0.150000X0*%
%ADD22R,1.800000X2.500000*%
%ADD23R,2.400000X0.740000*%
%ADD24RoundRect,0.250000X0.250000X0.475000X-0.250000X0.475000X-0.250000X-0.475000X0.250000X-0.475000X0*%
%ADD25RoundRect,0.135000X-0.185000X0.135000X-0.185000X-0.135000X0.185000X-0.135000X0.185000X0.135000X0*%
%ADD26R,0.650000X3.000000*%
%ADD27RoundRect,0.135000X0.185000X-0.135000X0.185000X0.135000X-0.185000X0.135000X-0.185000X-0.135000X0*%
%ADD28RoundRect,0.135000X-0.135000X-0.185000X0.135000X-0.185000X0.135000X0.185000X-0.135000X0.185000X0*%
%ADD29RoundRect,0.243750X-0.243750X-0.456250X0.243750X-0.456250X0.243750X0.456250X-0.243750X0.456250X0*%
%ADD30RoundRect,0.250000X-0.250000X-0.475000X0.250000X-0.475000X0.250000X0.475000X-0.250000X0.475000X0*%
G04 APERTURE END LIST*
G36*
X159313000Y-110236000D02*
G01*
X159315000Y-110236000D01*
X159318000Y-110237000D01*
X159320000Y-110237000D01*
X159323000Y-110238000D01*
X159325000Y-110239000D01*
X159328000Y-110240000D01*
X159330000Y-110242000D01*
X159332000Y-110243000D01*
X159334000Y-110245000D01*
X159336000Y-110246000D01*
X159344000Y-110254000D01*
X159345000Y-110256000D01*
X159347000Y-110258000D01*
X159348000Y-110260000D01*
X159350000Y-110262000D01*
X159351000Y-110265000D01*
X159352000Y-110267000D01*
X159353000Y-110270000D01*
X159353000Y-110272000D01*
X159354000Y-110275000D01*
X159354000Y-110277000D01*
X159355000Y-110280000D01*
X159355000Y-110400000D01*
X159354000Y-110403000D01*
X159354000Y-110405000D01*
X159353000Y-110408000D01*
X159353000Y-110410000D01*
X159352000Y-110413000D01*
X159351000Y-110415000D01*
X159350000Y-110418000D01*
X159348000Y-110420000D01*
X159347000Y-110422000D01*
X159345000Y-110424000D01*
X159344000Y-110426000D01*
X159336000Y-110434000D01*
X159334000Y-110435000D01*
X159332000Y-110437000D01*
X159330000Y-110438000D01*
X159328000Y-110440000D01*
X159325000Y-110441000D01*
X159323000Y-110442000D01*
X159320000Y-110443000D01*
X159318000Y-110443000D01*
X159315000Y-110444000D01*
X159313000Y-110444000D01*
X159310000Y-110445000D01*
X159190000Y-110445000D01*
X159187000Y-110444000D01*
X159185000Y-110444000D01*
X159182000Y-110443000D01*
X159180000Y-110443000D01*
X159177000Y-110442000D01*
X159175000Y-110441000D01*
X159172000Y-110440000D01*
X159170000Y-110438000D01*
X159168000Y-110437000D01*
X159166000Y-110435000D01*
X159164000Y-110434000D01*
X159156000Y-110426000D01*
X159155000Y-110424000D01*
X159153000Y-110422000D01*
X159152000Y-110420000D01*
X159150000Y-110418000D01*
X159149000Y-110415000D01*
X159148000Y-110413000D01*
X159147000Y-110410000D01*
X159147000Y-110408000D01*
X159146000Y-110405000D01*
X159146000Y-110403000D01*
X159145000Y-110400000D01*
X159145000Y-110280000D01*
X159146000Y-110277000D01*
X159146000Y-110275000D01*
X159147000Y-110272000D01*
X159147000Y-110270000D01*
X159148000Y-110267000D01*
X159149000Y-110265000D01*
X159150000Y-110262000D01*
X159152000Y-110260000D01*
X159153000Y-110258000D01*
X159155000Y-110256000D01*
X159156000Y-110254000D01*
X159164000Y-110246000D01*
X159166000Y-110245000D01*
X159168000Y-110243000D01*
X159170000Y-110242000D01*
X159172000Y-110240000D01*
X159175000Y-110239000D01*
X159177000Y-110238000D01*
X159180000Y-110237000D01*
X159182000Y-110237000D01*
X159185000Y-110236000D01*
X159187000Y-110236000D01*
X159190000Y-110235000D01*
X159310000Y-110235000D01*
X159313000Y-110236000D01*
G37*
D10*
X159313000Y-110236000D02*
X159315000Y-110236000D01*
X159318000Y-110237000D01*
X159320000Y-110237000D01*
X159323000Y-110238000D01*
X159325000Y-110239000D01*
X159328000Y-110240000D01*
X159330000Y-110242000D01*
X159332000Y-110243000D01*
X159334000Y-110245000D01*
X159336000Y-110246000D01*
X159344000Y-110254000D01*
X159345000Y-110256000D01*
X159347000Y-110258000D01*
X159348000Y-110260000D01*
X159350000Y-110262000D01*
X159351000Y-110265000D01*
X159352000Y-110267000D01*
X159353000Y-110270000D01*
X159353000Y-110272000D01*
X159354000Y-110275000D01*
X159354000Y-110277000D01*
X159355000Y-110280000D01*
X159355000Y-110400000D01*
X159354000Y-110403000D01*
X159354000Y-110405000D01*
X159353000Y-110408000D01*
X159353000Y-110410000D01*
X159352000Y-110413000D01*
X159351000Y-110415000D01*
X159350000Y-110418000D01*
X159348000Y-110420000D01*
X159347000Y-110422000D01*
X159345000Y-110424000D01*
X159344000Y-110426000D01*
X159336000Y-110434000D01*
X159334000Y-110435000D01*
X159332000Y-110437000D01*
X159330000Y-110438000D01*
X159328000Y-110440000D01*
X159325000Y-110441000D01*
X159323000Y-110442000D01*
X159320000Y-110443000D01*
X159318000Y-110443000D01*
X159315000Y-110444000D01*
X159313000Y-110444000D01*
X159310000Y-110445000D01*
X159190000Y-110445000D01*
X159187000Y-110444000D01*
X159185000Y-110444000D01*
X159182000Y-110443000D01*
X159180000Y-110443000D01*
X159177000Y-110442000D01*
X159175000Y-110441000D01*
X159172000Y-110440000D01*
X159170000Y-110438000D01*
X159168000Y-110437000D01*
X159166000Y-110435000D01*
X159164000Y-110434000D01*
X159156000Y-110426000D01*
X159155000Y-110424000D01*
X159153000Y-110422000D01*
X159152000Y-110420000D01*
X159150000Y-110418000D01*
X159149000Y-110415000D01*
X159148000Y-110413000D01*
X159147000Y-110410000D01*
X159147000Y-110408000D01*
X159146000Y-110405000D01*
X159146000Y-110403000D01*
X159145000Y-110400000D01*
X159145000Y-110280000D01*
X159146000Y-110277000D01*
X159146000Y-110275000D01*
X159147000Y-110272000D01*
X159147000Y-110270000D01*
X159148000Y-110267000D01*
X159149000Y-110265000D01*
X159150000Y-110262000D01*
X159152000Y-110260000D01*
X159153000Y-110258000D01*
X159155000Y-110256000D01*
X159156000Y-110254000D01*
X159164000Y-110246000D01*
X159166000Y-110245000D01*
X159168000Y-110243000D01*
X159170000Y-110242000D01*
X159172000Y-110240000D01*
X159175000Y-110239000D01*
X159177000Y-110238000D01*
X159180000Y-110237000D01*
X159182000Y-110237000D01*
X159185000Y-110236000D01*
X159187000Y-110236000D01*
X159190000Y-110235000D01*
X159310000Y-110235000D01*
X159313000Y-110236000D01*
G36*
X159313000Y-109556000D02*
G01*
X159315000Y-109556000D01*
X159318000Y-109557000D01*
X159320000Y-109557000D01*
X159323000Y-109558000D01*
X159325000Y-109559000D01*
X159328000Y-109560000D01*
X159330000Y-109562000D01*
X159332000Y-109563000D01*
X159334000Y-109565000D01*
X159336000Y-109566000D01*
X159344000Y-109574000D01*
X159345000Y-109576000D01*
X159347000Y-109578000D01*
X159348000Y-109580000D01*
X159350000Y-109582000D01*
X159351000Y-109585000D01*
X159352000Y-109587000D01*
X159353000Y-109590000D01*
X159353000Y-109592000D01*
X159354000Y-109595000D01*
X159354000Y-109597000D01*
X159355000Y-109600000D01*
X159355000Y-109720000D01*
X159354000Y-109723000D01*
X159354000Y-109725000D01*
X159353000Y-109728000D01*
X159353000Y-109730000D01*
X159352000Y-109733000D01*
X159351000Y-109735000D01*
X159350000Y-109738000D01*
X159348000Y-109740000D01*
X159347000Y-109742000D01*
X159345000Y-109744000D01*
X159344000Y-109746000D01*
X159336000Y-109754000D01*
X159334000Y-109755000D01*
X159332000Y-109757000D01*
X159330000Y-109758000D01*
X159328000Y-109760000D01*
X159325000Y-109761000D01*
X159323000Y-109762000D01*
X159320000Y-109763000D01*
X159318000Y-109763000D01*
X159315000Y-109764000D01*
X159313000Y-109764000D01*
X159310000Y-109765000D01*
X159190000Y-109765000D01*
X159187000Y-109764000D01*
X159185000Y-109764000D01*
X159182000Y-109763000D01*
X159180000Y-109763000D01*
X159177000Y-109762000D01*
X159175000Y-109761000D01*
X159172000Y-109760000D01*
X159170000Y-109758000D01*
X159168000Y-109757000D01*
X159166000Y-109755000D01*
X159164000Y-109754000D01*
X159156000Y-109746000D01*
X159155000Y-109744000D01*
X159153000Y-109742000D01*
X159152000Y-109740000D01*
X159150000Y-109738000D01*
X159149000Y-109735000D01*
X159148000Y-109733000D01*
X159147000Y-109730000D01*
X159147000Y-109728000D01*
X159146000Y-109725000D01*
X159146000Y-109723000D01*
X159145000Y-109720000D01*
X159145000Y-109600000D01*
X159146000Y-109597000D01*
X159146000Y-109595000D01*
X159147000Y-109592000D01*
X159147000Y-109590000D01*
X159148000Y-109587000D01*
X159149000Y-109585000D01*
X159150000Y-109582000D01*
X159152000Y-109580000D01*
X159153000Y-109578000D01*
X159155000Y-109576000D01*
X159156000Y-109574000D01*
X159164000Y-109566000D01*
X159166000Y-109565000D01*
X159168000Y-109563000D01*
X159170000Y-109562000D01*
X159172000Y-109560000D01*
X159175000Y-109559000D01*
X159177000Y-109558000D01*
X159180000Y-109557000D01*
X159182000Y-109557000D01*
X159185000Y-109556000D01*
X159187000Y-109556000D01*
X159190000Y-109555000D01*
X159310000Y-109555000D01*
X159313000Y-109556000D01*
G37*
X159313000Y-109556000D02*
X159315000Y-109556000D01*
X159318000Y-109557000D01*
X159320000Y-109557000D01*
X159323000Y-109558000D01*
X159325000Y-109559000D01*
X159328000Y-109560000D01*
X159330000Y-109562000D01*
X159332000Y-109563000D01*
X159334000Y-109565000D01*
X159336000Y-109566000D01*
X159344000Y-109574000D01*
X159345000Y-109576000D01*
X159347000Y-109578000D01*
X159348000Y-109580000D01*
X159350000Y-109582000D01*
X159351000Y-109585000D01*
X159352000Y-109587000D01*
X159353000Y-109590000D01*
X159353000Y-109592000D01*
X159354000Y-109595000D01*
X159354000Y-109597000D01*
X159355000Y-109600000D01*
X159355000Y-109720000D01*
X159354000Y-109723000D01*
X159354000Y-109725000D01*
X159353000Y-109728000D01*
X159353000Y-109730000D01*
X159352000Y-109733000D01*
X159351000Y-109735000D01*
X159350000Y-109738000D01*
X159348000Y-109740000D01*
X159347000Y-109742000D01*
X159345000Y-109744000D01*
X159344000Y-109746000D01*
X159336000Y-109754000D01*
X159334000Y-109755000D01*
X159332000Y-109757000D01*
X159330000Y-109758000D01*
X159328000Y-109760000D01*
X159325000Y-109761000D01*
X159323000Y-109762000D01*
X159320000Y-109763000D01*
X159318000Y-109763000D01*
X159315000Y-109764000D01*
X159313000Y-109764000D01*
X159310000Y-109765000D01*
X159190000Y-109765000D01*
X159187000Y-109764000D01*
X159185000Y-109764000D01*
X159182000Y-109763000D01*
X159180000Y-109763000D01*
X159177000Y-109762000D01*
X159175000Y-109761000D01*
X159172000Y-109760000D01*
X159170000Y-109758000D01*
X159168000Y-109757000D01*
X159166000Y-109755000D01*
X159164000Y-109754000D01*
X159156000Y-109746000D01*
X159155000Y-109744000D01*
X159153000Y-109742000D01*
X159152000Y-109740000D01*
X159150000Y-109738000D01*
X159149000Y-109735000D01*
X159148000Y-109733000D01*
X159147000Y-109730000D01*
X159147000Y-109728000D01*
X159146000Y-109725000D01*
X159146000Y-109723000D01*
X159145000Y-109720000D01*
X159145000Y-109600000D01*
X159146000Y-109597000D01*
X159146000Y-109595000D01*
X159147000Y-109592000D01*
X159147000Y-109590000D01*
X159148000Y-109587000D01*
X159149000Y-109585000D01*
X159150000Y-109582000D01*
X159152000Y-109580000D01*
X159153000Y-109578000D01*
X159155000Y-109576000D01*
X159156000Y-109574000D01*
X159164000Y-109566000D01*
X159166000Y-109565000D01*
X159168000Y-109563000D01*
X159170000Y-109562000D01*
X159172000Y-109560000D01*
X159175000Y-109559000D01*
X159177000Y-109558000D01*
X159180000Y-109557000D01*
X159182000Y-109557000D01*
X159185000Y-109556000D01*
X159187000Y-109556000D01*
X159190000Y-109555000D01*
X159310000Y-109555000D01*
X159313000Y-109556000D01*
G36*
X159613000Y-109896000D02*
G01*
X159615000Y-109896000D01*
X159618000Y-109897000D01*
X159620000Y-109897000D01*
X159623000Y-109898000D01*
X159625000Y-109899000D01*
X159628000Y-109900000D01*
X159630000Y-109902000D01*
X159632000Y-109903000D01*
X159634000Y-109905000D01*
X159636000Y-109906000D01*
X159644000Y-109914000D01*
X159645000Y-109916000D01*
X159647000Y-109918000D01*
X159648000Y-109920000D01*
X159650000Y-109922000D01*
X159651000Y-109925000D01*
X159652000Y-109927000D01*
X159653000Y-109930000D01*
X159653000Y-109932000D01*
X159654000Y-109935000D01*
X159654000Y-109937000D01*
X159655000Y-109940000D01*
X159655000Y-110060000D01*
X159654000Y-110063000D01*
X159654000Y-110065000D01*
X159653000Y-110068000D01*
X159653000Y-110070000D01*
X159652000Y-110073000D01*
X159651000Y-110075000D01*
X159650000Y-110078000D01*
X159648000Y-110080000D01*
X159647000Y-110082000D01*
X159645000Y-110084000D01*
X159644000Y-110086000D01*
X159636000Y-110094000D01*
X159634000Y-110095000D01*
X159632000Y-110097000D01*
X159630000Y-110098000D01*
X159628000Y-110100000D01*
X159625000Y-110101000D01*
X159623000Y-110102000D01*
X159620000Y-110103000D01*
X159618000Y-110103000D01*
X159615000Y-110104000D01*
X159613000Y-110104000D01*
X159610000Y-110105000D01*
X159490000Y-110105000D01*
X159487000Y-110104000D01*
X159485000Y-110104000D01*
X159482000Y-110103000D01*
X159480000Y-110103000D01*
X159477000Y-110102000D01*
X159475000Y-110101000D01*
X159472000Y-110100000D01*
X159470000Y-110098000D01*
X159468000Y-110097000D01*
X159466000Y-110095000D01*
X159464000Y-110094000D01*
X159456000Y-110086000D01*
X159455000Y-110084000D01*
X159453000Y-110082000D01*
X159452000Y-110080000D01*
X159450000Y-110078000D01*
X159449000Y-110075000D01*
X159448000Y-110073000D01*
X159447000Y-110070000D01*
X159447000Y-110068000D01*
X159446000Y-110065000D01*
X159446000Y-110063000D01*
X159445000Y-110060000D01*
X159445000Y-109940000D01*
X159446000Y-109937000D01*
X159446000Y-109935000D01*
X159447000Y-109932000D01*
X159447000Y-109930000D01*
X159448000Y-109927000D01*
X159449000Y-109925000D01*
X159450000Y-109922000D01*
X159452000Y-109920000D01*
X159453000Y-109918000D01*
X159455000Y-109916000D01*
X159456000Y-109914000D01*
X159464000Y-109906000D01*
X159466000Y-109905000D01*
X159468000Y-109903000D01*
X159470000Y-109902000D01*
X159472000Y-109900000D01*
X159475000Y-109899000D01*
X159477000Y-109898000D01*
X159480000Y-109897000D01*
X159482000Y-109897000D01*
X159485000Y-109896000D01*
X159487000Y-109896000D01*
X159490000Y-109895000D01*
X159610000Y-109895000D01*
X159613000Y-109896000D01*
G37*
X159613000Y-109896000D02*
X159615000Y-109896000D01*
X159618000Y-109897000D01*
X159620000Y-109897000D01*
X159623000Y-109898000D01*
X159625000Y-109899000D01*
X159628000Y-109900000D01*
X159630000Y-109902000D01*
X159632000Y-109903000D01*
X159634000Y-109905000D01*
X159636000Y-109906000D01*
X159644000Y-109914000D01*
X159645000Y-109916000D01*
X159647000Y-109918000D01*
X159648000Y-109920000D01*
X159650000Y-109922000D01*
X159651000Y-109925000D01*
X159652000Y-109927000D01*
X159653000Y-109930000D01*
X159653000Y-109932000D01*
X159654000Y-109935000D01*
X159654000Y-109937000D01*
X159655000Y-109940000D01*
X159655000Y-110060000D01*
X159654000Y-110063000D01*
X159654000Y-110065000D01*
X159653000Y-110068000D01*
X159653000Y-110070000D01*
X159652000Y-110073000D01*
X159651000Y-110075000D01*
X159650000Y-110078000D01*
X159648000Y-110080000D01*
X159647000Y-110082000D01*
X159645000Y-110084000D01*
X159644000Y-110086000D01*
X159636000Y-110094000D01*
X159634000Y-110095000D01*
X159632000Y-110097000D01*
X159630000Y-110098000D01*
X159628000Y-110100000D01*
X159625000Y-110101000D01*
X159623000Y-110102000D01*
X159620000Y-110103000D01*
X159618000Y-110103000D01*
X159615000Y-110104000D01*
X159613000Y-110104000D01*
X159610000Y-110105000D01*
X159490000Y-110105000D01*
X159487000Y-110104000D01*
X159485000Y-110104000D01*
X159482000Y-110103000D01*
X159480000Y-110103000D01*
X159477000Y-110102000D01*
X159475000Y-110101000D01*
X159472000Y-110100000D01*
X159470000Y-110098000D01*
X159468000Y-110097000D01*
X159466000Y-110095000D01*
X159464000Y-110094000D01*
X159456000Y-110086000D01*
X159455000Y-110084000D01*
X159453000Y-110082000D01*
X159452000Y-110080000D01*
X159450000Y-110078000D01*
X159449000Y-110075000D01*
X159448000Y-110073000D01*
X159447000Y-110070000D01*
X159447000Y-110068000D01*
X159446000Y-110065000D01*
X159446000Y-110063000D01*
X159445000Y-110060000D01*
X159445000Y-109940000D01*
X159446000Y-109937000D01*
X159446000Y-109935000D01*
X159447000Y-109932000D01*
X159447000Y-109930000D01*
X159448000Y-109927000D01*
X159449000Y-109925000D01*
X159450000Y-109922000D01*
X159452000Y-109920000D01*
X159453000Y-109918000D01*
X159455000Y-109916000D01*
X159456000Y-109914000D01*
X159464000Y-109906000D01*
X159466000Y-109905000D01*
X159468000Y-109903000D01*
X159470000Y-109902000D01*
X159472000Y-109900000D01*
X159475000Y-109899000D01*
X159477000Y-109898000D01*
X159480000Y-109897000D01*
X159482000Y-109897000D01*
X159485000Y-109896000D01*
X159487000Y-109896000D01*
X159490000Y-109895000D01*
X159610000Y-109895000D01*
X159613000Y-109896000D01*
D11*
X135200000Y-109300000D03*
X132400000Y-109300000D03*
D12*
X153225000Y-104900000D03*
X154775000Y-104900000D03*
D13*
X146810000Y-103500000D03*
X145790000Y-103500000D03*
D14*
X145820000Y-106800000D03*
X146780000Y-106800000D03*
D15*
X167205000Y-93280000D03*
X167205000Y-92880000D03*
D16*
X167080000Y-92255000D03*
X166680000Y-92255000D03*
X166280000Y-92255000D03*
X165880000Y-92255000D03*
D15*
X165755000Y-92880000D03*
X165755000Y-93280000D03*
D16*
X165880000Y-93905000D03*
X166280000Y-93905000D03*
X166680000Y-93905000D03*
X167080000Y-93905000D03*
D14*
X135520000Y-111600000D03*
X136480000Y-111600000D03*
D17*
X167230000Y-95500000D03*
X166270000Y-95500000D03*
D18*
X163865000Y-107250000D03*
X163865000Y-108750000D03*
X163865000Y-109250000D03*
X163865000Y-109750000D03*
X163865000Y-110250000D03*
X163865000Y-110750000D03*
X163865000Y-111250000D03*
X163865000Y-112750000D03*
X162135000Y-112750000D03*
X162135000Y-111250000D03*
X162135000Y-110750000D03*
X162135000Y-110250000D03*
X162135000Y-109750000D03*
X162135000Y-109250000D03*
X162135000Y-108750000D03*
X162135000Y-107250000D03*
D19*
X148700000Y-106820000D03*
X148700000Y-107780000D03*
D20*
X149600000Y-99300000D03*
X149600000Y-97750000D03*
D21*
X139337500Y-110350000D03*
X139337500Y-109400000D03*
X139337500Y-108450000D03*
X137062500Y-108450000D03*
X137062500Y-109400000D03*
X137062500Y-110350000D03*
D13*
X150710000Y-106800000D03*
X149690000Y-106800000D03*
D22*
X168000000Y-109300000D03*
X168000000Y-105300000D03*
D23*
X133050000Y-102540000D03*
X129150000Y-102540000D03*
X133050000Y-101270000D03*
X129150000Y-101270000D03*
X133050000Y-100000000D03*
X129150000Y-100000000D03*
X133050000Y-98730000D03*
X129150000Y-98730000D03*
X133050000Y-97460000D03*
X129150000Y-97460000D03*
D24*
X139850000Y-106700000D03*
X137950000Y-106700000D03*
D25*
X153300000Y-102690000D03*
X153300000Y-103710000D03*
X164440000Y-94420000D03*
X164440000Y-95440000D03*
D26*
X157635000Y-108500000D03*
X156365000Y-111500000D03*
D27*
X132400000Y-105310000D03*
X132400000Y-104290000D03*
D25*
X164970000Y-89250000D03*
X164970000Y-90270000D03*
D28*
X145790000Y-104500000D03*
X146810000Y-104500000D03*
D29*
X129162500Y-104800000D03*
X131037500Y-104800000D03*
D27*
X168370000Y-90260000D03*
X168370000Y-89240000D03*
D25*
X167370000Y-89230000D03*
X167370000Y-90250000D03*
D27*
X166000000Y-90270000D03*
X166000000Y-89250000D03*
D28*
X145790000Y-105800000D03*
X146810000Y-105800000D03*
D23*
X170850000Y-102540000D03*
X166950000Y-102540000D03*
X170850000Y-101270000D03*
X166950000Y-101270000D03*
X170850000Y-100000000D03*
X166950000Y-100000000D03*
X170850000Y-98730000D03*
X166950000Y-98730000D03*
X170850000Y-97460000D03*
X166950000Y-97460000D03*
D30*
X146450000Y-119800000D03*
X148350000Y-119800000D03*
D19*
X147700000Y-105820000D03*
X147700000Y-106780000D03*
D26*
X147460000Y-90000000D03*
X148730000Y-87000000D03*
X150000000Y-90000000D03*
X151270000Y-87000000D03*
X152540000Y-90000000D03*
D17*
X150680000Y-107800000D03*
X149720000Y-107800000D03*
D30*
X134350000Y-106700000D03*
X136250000Y-106700000D03*
X134350000Y-104700000D03*
X136250000Y-104700000D03*
M02*
