%TF.GenerationSoftware,KiCad,Pcbnew,(6.0.9)*%
%TF.CreationDate,2023-01-25T10:50:16+01:00*%
%TF.ProjectId,BatteryManagementBoard,42617474-6572-4794-9d61-6e6167656d65,rev?*%
%TF.SameCoordinates,Original*%
%TF.FileFunction,Legend,Top*%
%TF.FilePolarity,Positive*%
%FSLAX46Y46*%
G04 Gerber Fmt 4.6, Leading zero omitted, Abs format (unit mm)*
G04 Created by KiCad (PCBNEW (6.0.9)) date 2023-01-25 10:50:16*
%MOMM*%
%LPD*%
G01*
G04 APERTURE LIST*
%ADD10C,0.120000*%
%ADD11C,0.200000*%
%ADD12C,0.100000*%
G04 APERTURE END LIST*
D10*
%TO.C,C326*%
X153859420Y-104390000D02*
X154140580Y-104390000D01*
X153859420Y-105410000D02*
X154140580Y-105410000D01*
%TO.C,R309*%
X146453641Y-103120000D02*
X146146359Y-103120000D01*
X146453641Y-103880000D02*
X146146359Y-103880000D01*
%TO.C,C330*%
X146192164Y-106440000D02*
X146407836Y-106440000D01*
X146192164Y-107160000D02*
X146407836Y-107160000D01*
%TO.C,TP201*%
X171700000Y-105250000D02*
G75*
G03*
X171700000Y-105250000I-700000J0D01*
G01*
%TO.C,U501*%
X165570000Y-93990000D02*
X165570000Y-93640000D01*
X167390000Y-92170000D02*
X167390000Y-92520000D01*
X165570000Y-92170000D02*
X165570000Y-92520000D01*
%TO.C,C501*%
X166857836Y-95860000D02*
X166642164Y-95860000D01*
X166857836Y-95140000D02*
X166642164Y-95140000D01*
%TO.C,R401*%
X131353641Y-106880000D02*
X131046359Y-106880000D01*
X131353641Y-106120000D02*
X131046359Y-106120000D01*
D11*
%TO.C,J201*%
X164580000Y-113750000D02*
X164580000Y-114470000D01*
X161420000Y-114470000D02*
X161420000Y-113750000D01*
X164580000Y-105530000D02*
X161420000Y-105530000D01*
X164580000Y-114470000D02*
X161420000Y-114470000D01*
X164580000Y-106250000D02*
X164580000Y-105530000D01*
X161420000Y-105530000D02*
X161420000Y-106250000D01*
X164000000Y-105000000D02*
G75*
G03*
X164000000Y-105000000I-100000J0D01*
G01*
D10*
%TO.C,C327*%
X148340000Y-107192164D02*
X148340000Y-107407836D01*
X149060000Y-107192164D02*
X149060000Y-107407836D01*
%TO.C,C402*%
X139890000Y-107492164D02*
X139890000Y-107707836D01*
X140610000Y-107492164D02*
X140610000Y-107707836D01*
%TO.C,C331*%
X149090000Y-98665580D02*
X149090000Y-98384420D01*
X150110000Y-98665580D02*
X150110000Y-98384420D01*
%TO.C,R314*%
X150353641Y-107180000D02*
X150046359Y-107180000D01*
X150353641Y-106420000D02*
X150046359Y-106420000D01*
%TO.C,D201*%
X166350000Y-110700000D02*
X169650000Y-110700000D01*
X166350000Y-110700000D02*
X166350000Y-105300000D01*
X169650000Y-110700000D02*
X169650000Y-105300000D01*
%TO.C,J205*%
X129335000Y-96830000D02*
X129335000Y-96765000D01*
X132865000Y-103235000D02*
X132865000Y-103170000D01*
X132865000Y-96830000D02*
X132865000Y-96765000D01*
X129335000Y-103235000D02*
X129335000Y-103170000D01*
X132865000Y-96765000D02*
X129335000Y-96765000D01*
X132865000Y-103235000D02*
X129335000Y-103235000D01*
X134190000Y-103170000D02*
X132865000Y-103170000D01*
%TO.C,C403*%
X130565000Y-108638748D02*
X130565000Y-109161252D01*
X132035000Y-108638748D02*
X132035000Y-109161252D01*
%TO.C,R308*%
X152920000Y-103046359D02*
X152920000Y-103353641D01*
X153680000Y-103046359D02*
X153680000Y-103353641D01*
%TO.C,R506*%
X164820000Y-94776359D02*
X164820000Y-95083641D01*
X164060000Y-94776359D02*
X164060000Y-95083641D01*
%TO.C,J206*%
X158330000Y-108890000D02*
X158220000Y-108890000D01*
X157050000Y-108890000D02*
X155680000Y-108890000D01*
X158320000Y-111110000D02*
X156950000Y-111110000D01*
X158220000Y-108890000D02*
X158220000Y-107060000D01*
X155670000Y-108890000D02*
X155670000Y-111110000D01*
X155780000Y-111110000D02*
X155670000Y-111110000D01*
X158330000Y-108890000D02*
X158330000Y-111110000D01*
%TO.C,R502*%
X164590000Y-89606359D02*
X164590000Y-89913641D01*
X165350000Y-89606359D02*
X165350000Y-89913641D01*
%TO.C,R311*%
X146146359Y-104120000D02*
X146453641Y-104120000D01*
X146146359Y-104880000D02*
X146453641Y-104880000D01*
%TO.C,D401*%
X131100000Y-103840000D02*
X128415000Y-103840000D01*
X128415000Y-103840000D02*
X128415000Y-105760000D01*
X128415000Y-105760000D02*
X131100000Y-105760000D01*
%TO.C,R503*%
X168750000Y-89903641D02*
X168750000Y-89596359D01*
X167990000Y-89903641D02*
X167990000Y-89596359D01*
%TO.C,R504*%
X167750000Y-89586359D02*
X167750000Y-89893641D01*
X166990000Y-89586359D02*
X166990000Y-89893641D01*
%TO.C,R501*%
X165620000Y-89913641D02*
X165620000Y-89606359D01*
X166380000Y-89913641D02*
X166380000Y-89606359D01*
%TO.C,R315*%
X146146359Y-105420000D02*
X146453641Y-105420000D01*
X146146359Y-106180000D02*
X146453641Y-106180000D01*
%TO.C,J203*%
X167135000Y-103235000D02*
X167135000Y-103170000D01*
X170665000Y-96830000D02*
X170665000Y-96765000D01*
X170665000Y-103235000D02*
X167135000Y-103235000D01*
X167135000Y-96830000D02*
X167135000Y-96765000D01*
X171990000Y-103170000D02*
X170665000Y-103170000D01*
X170665000Y-103235000D02*
X170665000Y-103170000D01*
X170665000Y-96765000D02*
X167135000Y-96765000D01*
%TO.C,C324*%
X147138748Y-119065000D02*
X147661252Y-119065000D01*
X147138748Y-120535000D02*
X147661252Y-120535000D01*
%TO.C,C329*%
X148060000Y-106192164D02*
X148060000Y-106407836D01*
X147340000Y-106192164D02*
X147340000Y-106407836D01*
%TO.C,J207*%
X146775000Y-87390000D02*
X148145000Y-87390000D01*
X146765000Y-89610000D02*
X146875000Y-89610000D01*
X150585000Y-89610000D02*
X151955000Y-89610000D01*
X149315000Y-87390000D02*
X150685000Y-87390000D01*
X148045000Y-89610000D02*
X149415000Y-89610000D01*
X153235000Y-89610000D02*
X153235000Y-87390000D01*
X153125000Y-87390000D02*
X153235000Y-87390000D01*
X146875000Y-89610000D02*
X146875000Y-91440000D01*
X146765000Y-89610000D02*
X146765000Y-87390000D01*
X151855000Y-87390000D02*
X153225000Y-87390000D01*
%TO.C,C328*%
X150307836Y-108160000D02*
X150092164Y-108160000D01*
X150307836Y-107440000D02*
X150092164Y-107440000D01*
%TO.C,U401*%
X139330000Y-106830000D02*
X139330000Y-104000000D01*
X132700000Y-106830000D02*
X132970000Y-106830000D01*
X132970000Y-106830000D02*
X132970000Y-105730000D01*
X132700000Y-108330000D02*
X132700000Y-106830000D01*
X139600000Y-108330000D02*
X139600000Y-106830000D01*
X139600000Y-106830000D02*
X139330000Y-106830000D01*
D12*
%TO.C,D202*%
X160150000Y-110000000D02*
G75*
G03*
X160150000Y-110000000I-50000J0D01*
G01*
%TD*%
M02*
