%TF.GenerationSoftware,KiCad,Pcbnew,(6.0.9)*%
%TF.CreationDate,2023-02-03T11:40:43+01:00*%
%TF.ProjectId,BatteryManagementBoard,42617474-6572-4794-9d61-6e6167656d65,rev?*%
%TF.SameCoordinates,Original*%
%TF.FileFunction,Legend,Bot*%
%TF.FilePolarity,Positive*%
%FSLAX46Y46*%
G04 Gerber Fmt 4.6, Leading zero omitted, Abs format (unit mm)*
G04 Created by KiCad (PCBNEW (6.0.9)) date 2023-02-03 11:40:43*
%MOMM*%
%LPD*%
G01*
G04 APERTURE LIST*
G04 Aperture macros list*
%AMRoundRect*
0 Rectangle with rounded corners*
0 $1 Rounding radius*
0 $2 $3 $4 $5 $6 $7 $8 $9 X,Y pos of 4 corners*
0 Add a 4 corners polygon primitive as box body*
4,1,4,$2,$3,$4,$5,$6,$7,$8,$9,$2,$3,0*
0 Add four circle primitives for the rounded corners*
1,1,$1+$1,$2,$3*
1,1,$1+$1,$4,$5*
1,1,$1+$1,$6,$7*
1,1,$1+$1,$8,$9*
0 Add four rect primitives between the rounded corners*
20,1,$1+$1,$2,$3,$4,$5,0*
20,1,$1+$1,$4,$5,$6,$7,0*
20,1,$1+$1,$6,$7,$8,$9,0*
20,1,$1+$1,$8,$9,$2,$3,0*%
G04 Aperture macros list end*
%ADD10C,0.160000*%
%ADD11C,0.120000*%
%ADD12C,0.200000*%
%ADD13C,0.520000*%
%ADD14O,1.100000X2.200000*%
%ADD15R,0.850000X0.850000*%
%ADD16O,0.850000X0.850000*%
%ADD17RoundRect,0.135000X-0.185000X0.135000X-0.185000X-0.135000X0.185000X-0.135000X0.185000X0.135000X0*%
%ADD18RoundRect,0.135000X-0.135000X-0.185000X0.135000X-0.185000X0.135000X0.185000X-0.135000X0.185000X0*%
%ADD19R,1.350000X1.350000*%
%ADD20O,1.350000X1.350000*%
%ADD21RoundRect,0.250000X-0.250000X-0.475000X0.250000X-0.475000X0.250000X0.475000X-0.250000X0.475000X0*%
%ADD22RoundRect,0.250000X0.250000X0.475000X-0.250000X0.475000X-0.250000X-0.475000X0.250000X-0.475000X0*%
%ADD23R,0.430000X0.380000*%
%ADD24R,0.300000X0.400000*%
%ADD25R,1.980000X2.450000*%
%ADD26R,0.500000X0.350000*%
%ADD27RoundRect,0.140000X-0.170000X0.140000X-0.170000X-0.140000X0.170000X-0.140000X0.170000X0.140000X0*%
%ADD28RoundRect,0.135000X0.185000X-0.135000X0.185000X0.135000X-0.185000X0.135000X-0.185000X-0.135000X0*%
%ADD29RoundRect,0.225000X0.225000X0.250000X-0.225000X0.250000X-0.225000X-0.250000X0.225000X-0.250000X0*%
%ADD30RoundRect,0.050000X0.337500X0.050000X-0.337500X0.050000X-0.337500X-0.050000X0.337500X-0.050000X0*%
%ADD31RoundRect,0.050000X0.050000X0.337500X-0.050000X0.337500X-0.050000X-0.337500X0.050000X-0.337500X0*%
%ADD32R,2.800000X2.800000*%
%ADD33RoundRect,0.250000X-0.600000X-0.725000X0.600000X-0.725000X0.600000X0.725000X-0.600000X0.725000X0*%
%ADD34O,1.700000X1.950000*%
%ADD35R,3.250000X5.000000*%
%ADD36RoundRect,0.225000X0.250000X-0.225000X0.250000X0.225000X-0.250000X0.225000X-0.250000X-0.225000X0*%
%ADD37R,0.380000X0.430000*%
%ADD38R,0.400000X0.300000*%
%ADD39R,2.450000X1.980000*%
%ADD40R,0.350000X0.500000*%
%ADD41RoundRect,0.140000X0.140000X0.170000X-0.140000X0.170000X-0.140000X-0.170000X0.140000X-0.170000X0*%
%ADD42RoundRect,0.135000X0.135000X0.185000X-0.135000X0.185000X-0.135000X-0.185000X0.135000X-0.185000X0*%
%ADD43RoundRect,0.250000X0.625000X-0.312500X0.625000X0.312500X-0.625000X0.312500X-0.625000X-0.312500X0*%
%ADD44RoundRect,0.140000X0.170000X-0.140000X0.170000X0.140000X-0.170000X0.140000X-0.170000X-0.140000X0*%
%ADD45RoundRect,0.218750X0.218750X0.256250X-0.218750X0.256250X-0.218750X-0.256250X0.218750X-0.256250X0*%
%ADD46C,6.500000*%
%ADD47R,6.300000X6.000000*%
%ADD48RoundRect,0.140000X-0.140000X-0.170000X0.140000X-0.170000X0.140000X0.170000X-0.140000X0.170000X0*%
%ADD49RoundRect,0.250000X-0.312500X-0.625000X0.312500X-0.625000X0.312500X0.625000X-0.312500X0.625000X0*%
%ADD50C,4.000000*%
%ADD51RoundRect,0.250000X1.075000X-0.375000X1.075000X0.375000X-1.075000X0.375000X-1.075000X-0.375000X0*%
%ADD52RoundRect,0.150000X-0.512500X-0.150000X0.512500X-0.150000X0.512500X0.150000X-0.512500X0.150000X0*%
%ADD53RoundRect,0.200000X0.200000X0.275000X-0.200000X0.275000X-0.200000X-0.275000X0.200000X-0.275000X0*%
G04 APERTURE END LIST*
D10*
X167628571Y-97600000D02*
X167676190Y-97742857D01*
X167723809Y-97790476D01*
X167819047Y-97838095D01*
X167961904Y-97838095D01*
X168057142Y-97790476D01*
X168104761Y-97742857D01*
X168152380Y-97647619D01*
X168152380Y-97266666D01*
X167152380Y-97266666D01*
X167152380Y-97600000D01*
X167200000Y-97695238D01*
X167247619Y-97742857D01*
X167342857Y-97790476D01*
X167438095Y-97790476D01*
X167533333Y-97742857D01*
X167580952Y-97695238D01*
X167628571Y-97600000D01*
X167628571Y-97266666D01*
X168152380Y-98266666D02*
X167152380Y-98266666D01*
X167866666Y-98600000D01*
X167152380Y-98933333D01*
X168152380Y-98933333D01*
X167152380Y-100028571D02*
X168152380Y-100361904D01*
X167152380Y-100695238D01*
X167152380Y-101219047D02*
X167152380Y-101314285D01*
X167200000Y-101409523D01*
X167247619Y-101457142D01*
X167342857Y-101504761D01*
X167533333Y-101552380D01*
X167771428Y-101552380D01*
X167961904Y-101504761D01*
X168057142Y-101457142D01*
X168104761Y-101409523D01*
X168152380Y-101314285D01*
X168152380Y-101219047D01*
X168104761Y-101123809D01*
X168057142Y-101076190D01*
X167961904Y-101028571D01*
X167771428Y-100980952D01*
X167533333Y-100980952D01*
X167342857Y-101028571D01*
X167247619Y-101076190D01*
X167200000Y-101123809D01*
X167152380Y-101219047D01*
X168057142Y-101980952D02*
X168104761Y-102028571D01*
X168152380Y-101980952D01*
X168104761Y-101933333D01*
X168057142Y-101980952D01*
X168152380Y-101980952D01*
X167152380Y-102361904D02*
X167152380Y-102980952D01*
X167533333Y-102647619D01*
X167533333Y-102790476D01*
X167580952Y-102885714D01*
X167628571Y-102933333D01*
X167723809Y-102980952D01*
X167961904Y-102980952D01*
X168057142Y-102933333D01*
X168104761Y-102885714D01*
X168152380Y-102790476D01*
X168152380Y-102504761D01*
X168104761Y-102409523D01*
X168057142Y-102361904D01*
X157771428Y-120178571D02*
X157628571Y-120226190D01*
X157580952Y-120273809D01*
X157533333Y-120369047D01*
X157533333Y-120511904D01*
X157580952Y-120607142D01*
X157628571Y-120654761D01*
X157723809Y-120702380D01*
X158104761Y-120702380D01*
X158104761Y-119702380D01*
X157771428Y-119702380D01*
X157676190Y-119750000D01*
X157628571Y-119797619D01*
X157580952Y-119892857D01*
X157580952Y-119988095D01*
X157628571Y-120083333D01*
X157676190Y-120130952D01*
X157771428Y-120178571D01*
X158104761Y-120178571D01*
X156676190Y-120702380D02*
X156676190Y-120178571D01*
X156723809Y-120083333D01*
X156819047Y-120035714D01*
X157009523Y-120035714D01*
X157104761Y-120083333D01*
X156676190Y-120654761D02*
X156771428Y-120702380D01*
X157009523Y-120702380D01*
X157104761Y-120654761D01*
X157152380Y-120559523D01*
X157152380Y-120464285D01*
X157104761Y-120369047D01*
X157009523Y-120321428D01*
X156771428Y-120321428D01*
X156676190Y-120273809D01*
X156342857Y-120035714D02*
X155961904Y-120035714D01*
X156200000Y-119702380D02*
X156200000Y-120559523D01*
X156152380Y-120654761D01*
X156057142Y-120702380D01*
X155961904Y-120702380D01*
X155771428Y-120035714D02*
X155390476Y-120035714D01*
X155628571Y-119702380D02*
X155628571Y-120559523D01*
X155580952Y-120654761D01*
X155485714Y-120702380D01*
X155390476Y-120702380D01*
X154676190Y-120654761D02*
X154771428Y-120702380D01*
X154961904Y-120702380D01*
X155057142Y-120654761D01*
X155104761Y-120559523D01*
X155104761Y-120178571D01*
X155057142Y-120083333D01*
X154961904Y-120035714D01*
X154771428Y-120035714D01*
X154676190Y-120083333D01*
X154628571Y-120178571D01*
X154628571Y-120273809D01*
X155104761Y-120369047D01*
X154200000Y-120702380D02*
X154200000Y-120035714D01*
X154200000Y-120226190D02*
X154152380Y-120130952D01*
X154104761Y-120083333D01*
X154009523Y-120035714D01*
X153914285Y-120035714D01*
X153676190Y-120035714D02*
X153438095Y-120702380D01*
X153200000Y-120035714D02*
X153438095Y-120702380D01*
X153533333Y-120940476D01*
X153580952Y-120988095D01*
X153676190Y-121035714D01*
X136892857Y-93647380D02*
X137369047Y-93647380D01*
X137369047Y-92647380D01*
X136559523Y-93123571D02*
X136226190Y-93123571D01*
X136083333Y-93647380D02*
X136559523Y-93647380D01*
X136559523Y-92647380D01*
X136083333Y-92647380D01*
X135654761Y-93647380D02*
X135654761Y-92647380D01*
X135416666Y-92647380D01*
X135273809Y-92695000D01*
X135178571Y-92790238D01*
X135130952Y-92885476D01*
X135083333Y-93075952D01*
X135083333Y-93218809D01*
X135130952Y-93409285D01*
X135178571Y-93504523D01*
X135273809Y-93599761D01*
X135416666Y-93647380D01*
X135654761Y-93647380D01*
X138178571Y-94590714D02*
X138178571Y-95590714D01*
X138178571Y-94638333D02*
X138083333Y-94590714D01*
X137892857Y-94590714D01*
X137797619Y-94638333D01*
X137750000Y-94685952D01*
X137702380Y-94781190D01*
X137702380Y-95066904D01*
X137750000Y-95162142D01*
X137797619Y-95209761D01*
X137892857Y-95257380D01*
X138083333Y-95257380D01*
X138178571Y-95209761D01*
X137130952Y-95257380D02*
X137226190Y-95209761D01*
X137273809Y-95162142D01*
X137321428Y-95066904D01*
X137321428Y-94781190D01*
X137273809Y-94685952D01*
X137226190Y-94638333D01*
X137130952Y-94590714D01*
X136988095Y-94590714D01*
X136892857Y-94638333D01*
X136845238Y-94685952D01*
X136797619Y-94781190D01*
X136797619Y-95066904D01*
X136845238Y-95162142D01*
X136892857Y-95209761D01*
X136988095Y-95257380D01*
X137130952Y-95257380D01*
X136464285Y-94590714D02*
X136273809Y-95257380D01*
X136083333Y-94781190D01*
X135892857Y-95257380D01*
X135702380Y-94590714D01*
X134940476Y-95209761D02*
X135035714Y-95257380D01*
X135226190Y-95257380D01*
X135321428Y-95209761D01*
X135369047Y-95114523D01*
X135369047Y-94733571D01*
X135321428Y-94638333D01*
X135226190Y-94590714D01*
X135035714Y-94590714D01*
X134940476Y-94638333D01*
X134892857Y-94733571D01*
X134892857Y-94828809D01*
X135369047Y-94924047D01*
X134464285Y-95257380D02*
X134464285Y-94590714D01*
X134464285Y-94781190D02*
X134416666Y-94685952D01*
X134369047Y-94638333D01*
X134273809Y-94590714D01*
X134178571Y-94590714D01*
X170152380Y-96761904D02*
X170866666Y-96761904D01*
X171009523Y-96714285D01*
X171104761Y-96619047D01*
X171152380Y-96476190D01*
X171152380Y-96380952D01*
X171152380Y-97238095D02*
X170152380Y-97238095D01*
X170866666Y-97571428D01*
X170152380Y-97904761D01*
X171152380Y-97904761D01*
X171152380Y-99619047D02*
X171152380Y-99142857D01*
X170152380Y-99142857D01*
X171152380Y-99952380D02*
X170485714Y-99952380D01*
X170152380Y-99952380D02*
X170200000Y-99904761D01*
X170247619Y-99952380D01*
X170200000Y-100000000D01*
X170152380Y-99952380D01*
X170247619Y-99952380D01*
X171104761Y-100809523D02*
X171152380Y-100714285D01*
X171152380Y-100523809D01*
X171104761Y-100428571D01*
X171009523Y-100380952D01*
X170628571Y-100380952D01*
X170533333Y-100428571D01*
X170485714Y-100523809D01*
X170485714Y-100714285D01*
X170533333Y-100809523D01*
X170628571Y-100857142D01*
X170723809Y-100857142D01*
X170819047Y-100380952D01*
X170485714Y-101190476D02*
X171152380Y-101380952D01*
X170676190Y-101571428D01*
X171152380Y-101761904D01*
X170485714Y-101952380D01*
X171104761Y-102714285D02*
X171152380Y-102619047D01*
X171152380Y-102428571D01*
X171104761Y-102333333D01*
X171009523Y-102285714D01*
X170628571Y-102285714D01*
X170533333Y-102333333D01*
X170485714Y-102428571D01*
X170485714Y-102619047D01*
X170533333Y-102714285D01*
X170628571Y-102761904D01*
X170723809Y-102761904D01*
X170819047Y-102285714D01*
X171104761Y-103142857D02*
X171152380Y-103238095D01*
X171152380Y-103428571D01*
X171104761Y-103523809D01*
X171009523Y-103571428D01*
X170961904Y-103571428D01*
X170866666Y-103523809D01*
X170819047Y-103428571D01*
X170819047Y-103285714D01*
X170771428Y-103190476D01*
X170676190Y-103142857D01*
X170628571Y-103142857D01*
X170533333Y-103190476D01*
X170485714Y-103285714D01*
X170485714Y-103428571D01*
X170533333Y-103523809D01*
X153376190Y-94885714D02*
X153376190Y-95742857D01*
X153423809Y-95838095D01*
X153519047Y-95885714D01*
X153566666Y-95885714D01*
X153376190Y-94552380D02*
X153423809Y-94600000D01*
X153376190Y-94647619D01*
X153328571Y-94600000D01*
X153376190Y-94552380D01*
X153376190Y-94647619D01*
X152757142Y-95552380D02*
X152852380Y-95504761D01*
X152900000Y-95409523D01*
X152900000Y-94552380D01*
X151947619Y-95504761D02*
X152042857Y-95552380D01*
X152233333Y-95552380D01*
X152328571Y-95504761D01*
X152376190Y-95457142D01*
X152423809Y-95361904D01*
X152423809Y-95076190D01*
X152376190Y-94980952D01*
X152328571Y-94933333D01*
X152233333Y-94885714D01*
X152042857Y-94885714D01*
X151947619Y-94933333D01*
X151519047Y-94885714D02*
X151519047Y-95742857D01*
X151566666Y-95838095D01*
X151661904Y-95885714D01*
X151709523Y-95885714D01*
X151519047Y-94552380D02*
X151566666Y-94600000D01*
X151519047Y-94647619D01*
X151471428Y-94600000D01*
X151519047Y-94552380D01*
X151519047Y-94647619D01*
X150900000Y-95552380D02*
X150995238Y-95504761D01*
X151042857Y-95409523D01*
X151042857Y-94552380D01*
X150090476Y-95504761D02*
X150185714Y-95552380D01*
X150376190Y-95552380D01*
X150471428Y-95504761D01*
X150519047Y-95457142D01*
X150566666Y-95361904D01*
X150566666Y-95076190D01*
X150519047Y-94980952D01*
X150471428Y-94933333D01*
X150376190Y-94885714D01*
X150185714Y-94885714D01*
X150090476Y-94933333D01*
X149661904Y-94885714D02*
X149661904Y-95742857D01*
X149709523Y-95838095D01*
X149804761Y-95885714D01*
X149852380Y-95885714D01*
X149661904Y-94552380D02*
X149709523Y-94600000D01*
X149661904Y-94647619D01*
X149614285Y-94600000D01*
X149661904Y-94552380D01*
X149661904Y-94647619D01*
X149042857Y-95552380D02*
X149138095Y-95504761D01*
X149185714Y-95409523D01*
X149185714Y-94552380D01*
X148233333Y-95504761D02*
X148328571Y-95552380D01*
X148519047Y-95552380D01*
X148614285Y-95504761D01*
X148661904Y-95457142D01*
X148709523Y-95361904D01*
X148709523Y-95076190D01*
X148661904Y-94980952D01*
X148614285Y-94933333D01*
X148519047Y-94885714D01*
X148328571Y-94885714D01*
X148233333Y-94933333D01*
X147804761Y-94885714D02*
X147804761Y-95742857D01*
X147852380Y-95838095D01*
X147947619Y-95885714D01*
X147995238Y-95885714D01*
X147804761Y-94552380D02*
X147852380Y-94600000D01*
X147804761Y-94647619D01*
X147757142Y-94600000D01*
X147804761Y-94552380D01*
X147804761Y-94647619D01*
X147185714Y-95552380D02*
X147280952Y-95504761D01*
X147328571Y-95409523D01*
X147328571Y-94552380D01*
X146376190Y-95504761D02*
X146471428Y-95552380D01*
X146661904Y-95552380D01*
X146757142Y-95504761D01*
X146804761Y-95457142D01*
X146852380Y-95361904D01*
X146852380Y-95076190D01*
X146804761Y-94980952D01*
X146757142Y-94933333D01*
X146661904Y-94885714D01*
X146471428Y-94885714D01*
X146376190Y-94933333D01*
D11*
X130080000Y-100546359D02*
X130080000Y-100853641D01*
X129320000Y-100546359D02*
X129320000Y-100853641D01*
X166076359Y-96090000D02*
X166383641Y-96090000D01*
X166076359Y-95330000D02*
X166383641Y-95330000D01*
X160700000Y-114540000D02*
X158640000Y-114540000D01*
X161700000Y-116660000D02*
X162760000Y-116660000D01*
X160700000Y-116660000D02*
X158640000Y-116660000D01*
X160700000Y-116660000D02*
X160700000Y-114540000D01*
X158640000Y-116660000D02*
X158640000Y-114540000D01*
X162760000Y-116660000D02*
X162760000Y-115600000D01*
X162738748Y-100735000D02*
X163261252Y-100735000D01*
X162738748Y-99265000D02*
X163261252Y-99265000D01*
X157596359Y-98380000D02*
X157903641Y-98380000D01*
X157596359Y-97620000D02*
X157903641Y-97620000D01*
X132561252Y-105035000D02*
X132038748Y-105035000D01*
X132561252Y-103565000D02*
X132038748Y-103565000D01*
X161530711Y-87250000D02*
G75*
G03*
X161530711Y-87250000I-70711J0D01*
G01*
X151160000Y-107092164D02*
X151160000Y-107307836D01*
X150440000Y-107092164D02*
X150440000Y-107307836D01*
X162738748Y-104735000D02*
X163261252Y-104735000D01*
X162738748Y-103265000D02*
X163261252Y-103265000D01*
X141761252Y-105735000D02*
X141238748Y-105735000D01*
X141761252Y-104265000D02*
X141238748Y-104265000D01*
X142420711Y-95000000D02*
G75*
G03*
X142420711Y-95000000I-70711J0D01*
G01*
X157261252Y-103235000D02*
X156738748Y-103235000D01*
X157261252Y-101765000D02*
X156738748Y-101765000D01*
X167046359Y-111680000D02*
X167353641Y-111680000D01*
X167046359Y-110920000D02*
X167353641Y-110920000D01*
X151420000Y-107353641D02*
X151420000Y-107046359D01*
X152180000Y-107353641D02*
X152180000Y-107046359D01*
X166680000Y-99346359D02*
X166680000Y-99653641D01*
X165920000Y-99346359D02*
X165920000Y-99653641D01*
X131838748Y-110535000D02*
X132361252Y-110535000D01*
X131838748Y-109065000D02*
X132361252Y-109065000D01*
X140540580Y-109990000D02*
X140259420Y-109990000D01*
X140540580Y-111010000D02*
X140259420Y-111010000D01*
X162738748Y-98735000D02*
X163261252Y-98735000D01*
X162738748Y-97265000D02*
X163261252Y-97265000D01*
X136538748Y-103735000D02*
X137061252Y-103735000D01*
X136538748Y-102265000D02*
X137061252Y-102265000D01*
X151760000Y-100640000D02*
X152110000Y-100640000D01*
X151760000Y-104860000D02*
X152110000Y-104860000D01*
X152110000Y-104860000D02*
X152110000Y-104510000D01*
X148240000Y-100640000D02*
X147890000Y-100640000D01*
X147890000Y-104860000D02*
X147890000Y-104510000D01*
X147890000Y-100640000D02*
X147890000Y-100990000D01*
X148240000Y-104860000D02*
X147890000Y-104860000D01*
X156800000Y-79775000D02*
X150000000Y-79775000D01*
X145750000Y-84225000D02*
X154250000Y-84225000D01*
X142150000Y-85275000D02*
X142150000Y-84025000D01*
X154250000Y-84975000D02*
X145750000Y-84975000D01*
X156800000Y-82725000D02*
X156800000Y-79775000D01*
X142450000Y-84975000D02*
X142450000Y-84225000D01*
X154250000Y-84225000D02*
X154250000Y-84975000D01*
X144250000Y-84975000D02*
X142450000Y-84975000D01*
X142450000Y-82725000D02*
X143200000Y-82725000D01*
X144250000Y-84225000D02*
X144250000Y-84975000D01*
X155750000Y-84975000D02*
X155750000Y-84225000D01*
X157560000Y-79015000D02*
X157560000Y-84985000D01*
X142440000Y-84985000D02*
X142440000Y-79015000D01*
X157550000Y-82725000D02*
X156800000Y-82725000D01*
X143200000Y-79775000D02*
X150000000Y-79775000D01*
X157550000Y-84225000D02*
X157550000Y-84975000D01*
X143400000Y-85275000D02*
X142150000Y-85275000D01*
X142440000Y-79015000D02*
X157560000Y-79015000D01*
X157560000Y-84985000D02*
X142440000Y-84985000D01*
X143200000Y-82725000D02*
X143200000Y-79775000D01*
X155750000Y-84225000D02*
X157550000Y-84225000D01*
X145750000Y-84975000D02*
X145750000Y-84225000D01*
X142450000Y-84225000D02*
X144250000Y-84225000D01*
X157550000Y-84975000D02*
X155750000Y-84975000D01*
X162738748Y-102735000D02*
X163261252Y-102735000D01*
X162738748Y-101265000D02*
X163261252Y-101265000D01*
X167046359Y-110480000D02*
X167353641Y-110480000D01*
X167046359Y-109720000D02*
X167353641Y-109720000D01*
X143700000Y-98300000D02*
X156300000Y-98300000D01*
X156300000Y-98300000D02*
X156300000Y-94800000D01*
X156300000Y-85700000D02*
X156300000Y-89200000D01*
X143700000Y-85700000D02*
X143700000Y-89200000D01*
X143700000Y-98300000D02*
X143700000Y-94800000D01*
X143700000Y-85700000D02*
X156300000Y-85700000D01*
X141761252Y-98265000D02*
X141238748Y-98265000D01*
X141761252Y-99735000D02*
X141238748Y-99735000D01*
X141761252Y-102265000D02*
X141238748Y-102265000D01*
X141761252Y-103735000D02*
X141238748Y-103735000D01*
X154110000Y-99940580D02*
X154110000Y-99659420D01*
X153090000Y-99940580D02*
X153090000Y-99659420D01*
X138570711Y-106040000D02*
G75*
G03*
X138570711Y-106040000I-70711J0D01*
G01*
X156857836Y-99360000D02*
X156642164Y-99360000D01*
X156857836Y-98640000D02*
X156642164Y-98640000D01*
X153903641Y-107630000D02*
X153596359Y-107630000D01*
X153903641Y-106870000D02*
X153596359Y-106870000D01*
X145420000Y-107146359D02*
X145420000Y-107453641D01*
X146180000Y-107146359D02*
X146180000Y-107453641D01*
X159090000Y-97227064D02*
X159090000Y-95772936D01*
X160910000Y-97227064D02*
X160910000Y-95772936D01*
X156640000Y-96107836D02*
X156640000Y-95892164D01*
X157360000Y-96107836D02*
X157360000Y-95892164D01*
X161162779Y-106260000D02*
X160837221Y-106260000D01*
X161162779Y-105240000D02*
X160837221Y-105240000D01*
X154850000Y-112450000D02*
X153750000Y-111350000D01*
X153750000Y-111350000D02*
X139150000Y-111350000D01*
X154850000Y-118550000D02*
X154850000Y-112450000D01*
X139150000Y-119650000D02*
X153750000Y-119650000D01*
X139150000Y-111350000D02*
X139150000Y-119650000D01*
X138000000Y-115000000D02*
X138000000Y-116000000D01*
X138500000Y-115500000D02*
X137500000Y-115500000D01*
X153750000Y-119650000D02*
X154850000Y-118550000D01*
X156500000Y-115500000D02*
X155500000Y-115500000D01*
X162192164Y-93560000D02*
X162407836Y-93560000D01*
X162192164Y-92840000D02*
X162407836Y-92840000D01*
X157261252Y-105235000D02*
X156738748Y-105235000D01*
X157261252Y-103765000D02*
X156738748Y-103765000D01*
X136538748Y-101735000D02*
X137061252Y-101735000D01*
X136538748Y-100265000D02*
X137061252Y-100265000D01*
X147392164Y-99610000D02*
X147607836Y-99610000D01*
X147392164Y-98890000D02*
X147607836Y-98890000D01*
X132040000Y-100807836D02*
X132040000Y-100592164D01*
X132760000Y-100807836D02*
X132760000Y-100592164D01*
X158630000Y-96153641D02*
X158630000Y-95846359D01*
X157870000Y-96153641D02*
X157870000Y-95846359D01*
X143572936Y-110410000D02*
X145027064Y-110410000D01*
X143572936Y-108590000D02*
X145027064Y-108590000D01*
X158820711Y-90290000D02*
G75*
G03*
X158820711Y-90290000I-70711J0D01*
G01*
D12*
X130428501Y-89090990D02*
X136827817Y-82691674D01*
D11*
X140221930Y-84035177D02*
X139514823Y-83328070D01*
X132196268Y-91353732D02*
X131630583Y-91919417D01*
D12*
X134459010Y-93121499D02*
X140858326Y-86722183D01*
X130428501Y-89090990D02*
X134459010Y-93121499D01*
X140858326Y-83893755D02*
X140858326Y-86722183D01*
X139656245Y-82691674D02*
X140858326Y-83893755D01*
X139656245Y-82691674D02*
X136827817Y-82691674D01*
D11*
X131630583Y-91353732D02*
X132196268Y-91919417D01*
X137360000Y-107702064D02*
X137360000Y-106497936D01*
X134640000Y-107702064D02*
X134640000Y-106497936D01*
X151607836Y-98840000D02*
X151392164Y-98840000D01*
X151607836Y-99560000D02*
X151392164Y-99560000D01*
X132350000Y-105502500D02*
X133150000Y-105502500D01*
X132350000Y-108622500D02*
X130550000Y-108622500D01*
X132350000Y-105502500D02*
X131550000Y-105502500D01*
X132350000Y-108622500D02*
X133150000Y-108622500D01*
X138720711Y-93250000D02*
G75*
G03*
X138720711Y-93250000I-70711J0D01*
G01*
X136538748Y-96265000D02*
X137061252Y-96265000D01*
X136538748Y-97735000D02*
X137061252Y-97735000D01*
X154903641Y-107870000D02*
X154596359Y-107870000D01*
X154903641Y-108630000D02*
X154596359Y-108630000D01*
X157437258Y-106822500D02*
X156962742Y-106822500D01*
X157437258Y-105777500D02*
X156962742Y-105777500D01*
X157261252Y-99765000D02*
X156738748Y-99765000D01*
X157261252Y-101235000D02*
X156738748Y-101235000D01*
X144212164Y-108160000D02*
X144427836Y-108160000D01*
X144212164Y-107440000D02*
X144427836Y-107440000D01*
X128220000Y-100546359D02*
X128220000Y-100853641D01*
X128980000Y-100546359D02*
X128980000Y-100853641D01*
X141761252Y-101735000D02*
X141238748Y-101735000D01*
X141761252Y-100265000D02*
X141238748Y-100265000D01*
X162192164Y-94560000D02*
X162407836Y-94560000D01*
X162192164Y-93840000D02*
X162407836Y-93840000D01*
X136538748Y-98265000D02*
X137061252Y-98265000D01*
X136538748Y-99735000D02*
X137061252Y-99735000D01*
X143280000Y-107246359D02*
X143280000Y-107553641D01*
X142520000Y-107246359D02*
X142520000Y-107553641D01*
%LPC*%
D13*
X163000000Y-113750000D03*
X163000000Y-106250000D03*
D14*
X165150000Y-107600000D03*
X160850000Y-107600000D03*
X165150000Y-112400000D03*
X160850000Y-112400000D03*
D15*
X164850000Y-86550000D03*
D16*
X165850000Y-86550000D03*
D17*
X129700000Y-100190000D03*
X129700000Y-101210000D03*
D18*
X165720000Y-95710000D03*
X166740000Y-95710000D03*
D19*
X161700000Y-115600000D03*
D20*
X159700000Y-115600000D03*
D21*
X162050000Y-100000000D03*
X163950000Y-100000000D03*
D18*
X157240000Y-98000000D03*
X158260000Y-98000000D03*
D22*
X133250000Y-104300000D03*
X131350000Y-104300000D03*
D23*
X159610000Y-86850000D03*
X159610000Y-89650000D03*
D24*
X158110000Y-87275000D03*
X158110000Y-89225000D03*
X158110000Y-87925000D03*
X158110000Y-88575000D03*
D25*
X159250000Y-88250000D03*
D26*
X161010000Y-89225000D03*
X161010000Y-88575000D03*
X161010000Y-87275000D03*
X161010000Y-87925000D03*
D27*
X150800000Y-106720000D03*
X150800000Y-107680000D03*
D21*
X162050000Y-104000000D03*
X163950000Y-104000000D03*
D22*
X142450000Y-105000000D03*
X140550000Y-105000000D03*
D24*
X139000000Y-96975000D03*
X139000000Y-95025000D03*
X139000000Y-95675000D03*
D23*
X140500000Y-97400000D03*
D25*
X140140000Y-96000000D03*
D23*
X140500000Y-94600000D03*
D24*
X139000000Y-96325000D03*
D26*
X141900000Y-96975000D03*
X141900000Y-95675000D03*
X141900000Y-95025000D03*
X141900000Y-96325000D03*
D22*
X157950000Y-102500000D03*
X156050000Y-102500000D03*
D18*
X166690000Y-111300000D03*
X167710000Y-111300000D03*
D28*
X151800000Y-107710000D03*
X151800000Y-106690000D03*
D17*
X166300000Y-98990000D03*
X166300000Y-100010000D03*
D21*
X131150000Y-109800000D03*
X133050000Y-109800000D03*
D29*
X141175000Y-110500000D03*
X139625000Y-110500000D03*
D21*
X162050000Y-98000000D03*
X163950000Y-98000000D03*
X135850000Y-103000000D03*
X137750000Y-103000000D03*
D30*
X151987500Y-101350000D03*
X151987500Y-101750000D03*
X151987500Y-102150000D03*
X151987500Y-102550000D03*
X151987500Y-102950000D03*
X151987500Y-103350000D03*
X151987500Y-103750000D03*
X151987500Y-104150000D03*
D31*
X151400000Y-104737500D03*
X151000000Y-104737500D03*
X150600000Y-104737500D03*
X150200000Y-104737500D03*
X149800000Y-104737500D03*
X149400000Y-104737500D03*
X149000000Y-104737500D03*
X148600000Y-104737500D03*
D30*
X148012500Y-104150000D03*
X148012500Y-103750000D03*
X148012500Y-103350000D03*
X148012500Y-102950000D03*
X148012500Y-102550000D03*
X148012500Y-102150000D03*
X148012500Y-101750000D03*
X148012500Y-101350000D03*
D31*
X148600000Y-100762500D03*
X149000000Y-100762500D03*
X149400000Y-100762500D03*
X149800000Y-100762500D03*
X150200000Y-100762500D03*
X150600000Y-100762500D03*
X151000000Y-100762500D03*
X151400000Y-100762500D03*
D32*
X150000000Y-102750000D03*
D33*
X145000000Y-82525000D03*
D34*
X147500000Y-82525000D03*
X150000000Y-82525000D03*
X152500000Y-82525000D03*
X155000000Y-82525000D03*
D21*
X162050000Y-102000000D03*
X163950000Y-102000000D03*
D18*
X166690000Y-110100000D03*
X167710000Y-110100000D03*
D35*
X155625000Y-92000000D03*
X144375000Y-92000000D03*
D22*
X142450000Y-99000000D03*
X140550000Y-99000000D03*
X142450000Y-103000000D03*
X140550000Y-103000000D03*
D36*
X153600000Y-100575000D03*
X153600000Y-99025000D03*
D37*
X138100000Y-107890000D03*
D38*
X140475000Y-109390000D03*
X138525000Y-109390000D03*
D37*
X140900000Y-107890000D03*
D38*
X139175000Y-109390000D03*
X139825000Y-109390000D03*
D39*
X139500000Y-108250000D03*
D40*
X140475000Y-106490000D03*
X139175000Y-106490000D03*
X138525000Y-106490000D03*
X139825000Y-106490000D03*
D41*
X157230000Y-99000000D03*
X156270000Y-99000000D03*
D42*
X154260000Y-107250000D03*
X153240000Y-107250000D03*
D17*
X145800000Y-106790000D03*
X145800000Y-107810000D03*
D43*
X160000000Y-97962500D03*
X160000000Y-95037500D03*
D44*
X157000000Y-96480000D03*
X157000000Y-95520000D03*
D45*
X161787500Y-105750000D03*
X160212500Y-105750000D03*
D46*
X150600000Y-115500000D03*
D47*
X143400000Y-115500000D03*
D48*
X161820000Y-93200000D03*
X162780000Y-93200000D03*
D22*
X157950000Y-104500000D03*
X156050000Y-104500000D03*
D21*
X135850000Y-101000000D03*
X137750000Y-101000000D03*
D48*
X147020000Y-99250000D03*
X147980000Y-99250000D03*
D44*
X132400000Y-101180000D03*
X132400000Y-100220000D03*
D28*
X158250000Y-96510000D03*
X158250000Y-95490000D03*
D49*
X142837500Y-109500000D03*
X145762500Y-109500000D03*
D38*
X158775000Y-93640000D03*
D37*
X161150000Y-92140000D03*
D38*
X160725000Y-93640000D03*
X160075000Y-93640000D03*
X159425000Y-93640000D03*
D37*
X158350000Y-92140000D03*
D39*
X159750000Y-92500000D03*
D40*
X160725000Y-90740000D03*
X158775000Y-90740000D03*
X160075000Y-90740000D03*
X159425000Y-90740000D03*
D50*
X137817767Y-85732233D03*
X134282233Y-89267767D03*
D51*
X136000000Y-108500000D03*
X136000000Y-105700000D03*
D41*
X151980000Y-99200000D03*
X151020000Y-99200000D03*
D52*
X131212500Y-108012500D03*
X131212500Y-107062500D03*
X131212500Y-106112500D03*
X133487500Y-106112500D03*
X133487500Y-108012500D03*
D25*
X140860000Y-92250000D03*
D23*
X140500000Y-93650000D03*
D24*
X142000000Y-91275000D03*
D23*
X140500000Y-90850000D03*
D24*
X142000000Y-93225000D03*
X142000000Y-92575000D03*
X142000000Y-91925000D03*
D26*
X139100000Y-91275000D03*
X139100000Y-91925000D03*
X139100000Y-93225000D03*
X139100000Y-92575000D03*
D21*
X135850000Y-97000000D03*
X137750000Y-97000000D03*
D42*
X155260000Y-108250000D03*
X154240000Y-108250000D03*
D53*
X158025000Y-106300000D03*
X156375000Y-106300000D03*
D22*
X157950000Y-100500000D03*
X156050000Y-100500000D03*
D48*
X143840000Y-107800000D03*
X144800000Y-107800000D03*
D17*
X128600000Y-100190000D03*
X128600000Y-101210000D03*
D22*
X142450000Y-101000000D03*
X140550000Y-101000000D03*
D48*
X161820000Y-94200000D03*
X162780000Y-94200000D03*
D21*
X135850000Y-99000000D03*
X137750000Y-99000000D03*
D17*
X142900000Y-106890000D03*
X142900000Y-107910000D03*
M02*
