M48
; DRILL file {KiCad (6.0.9)} date Fri Feb  3 11:30:57 2023
; FORMAT={-:-/ absolute / metric / decimal}
; #@! TF.CreationDate,2023-02-03T11:30:57+01:00
; #@! TF.GenerationSoftware,Kicad,Pcbnew,(6.0.9)
; #@! TF.FileFunction,Plated,1,6,PTH
FMAT,2
METRIC
; #@! TA.AperFunction,Plated,PTH,ViaDrill
T1C0.200
; #@! TA.AperFunction,Plated,PTH,ComponentDrill
T2C0.200
; #@! TA.AperFunction,Plated,PTH,ViaDrill
T3C0.300
; #@! TA.AperFunction,Plated,PTH,ComponentDrill
T4C0.300
; #@! TA.AperFunction,Plated,PTH,ViaDrill
T5C0.400
; #@! TA.AperFunction,Plated,PTH,ComponentDrill
T6C0.500
; #@! TA.AperFunction,Plated,PTH,ComponentDrill
T7C0.600
; #@! TA.AperFunction,Plated,PTH,ComponentDrill
T8C0.650
; #@! TA.AperFunction,Plated,PTH,ComponentDrill
T9C0.800
; #@! TA.AperFunction,Plated,PTH,ComponentDrill
T10C0.950
; #@! TA.AperFunction,Plated,PTH,ComponentDrill
T11C1.000
; #@! TA.AperFunction,Plated,PTH,ComponentDrill
T12C2.500
; #@! TA.AperFunction,Plated,PTH,ComponentDrill
T13C4.550
%
G90
G05
T1
X61.5Y-49.75
X61.55Y-57.29
X61.7Y-60.75
X62.6Y-62.65
X62.6Y-63.55
X62.7Y-61.55
X62.9Y-53.45
X63.0Y-54.85
X63.0Y-56.05
X63.0Y-58.35
X63.2Y-52.15
X63.5Y-45.75
X63.5Y-47.75
X63.5Y-49.75
X64.1Y-53.45
X64.124Y-54.85
X64.2Y-56.05
X64.5Y-48.85
X65.26Y-57.29
X65.5Y-47.75
X65.63Y-65.699
X66.1Y-57.25
X66.379Y-64.671
X66.4Y-65.55
X66.5Y-40.75
X67.0Y-54.75
X67.1Y-52.05
X67.25Y-49.0
X67.5Y-39.75
X67.6Y-51.45
X67.6Y-52.45
X67.6Y-53.45
X67.6Y-54.45
X67.6Y-55.35
X67.6Y-56.25
X67.6Y-57.05
X67.6Y-57.85
X67.9Y-59.05
X68.0Y-61.65
X68.3Y-52.75
X68.3Y-54.75
X68.3Y-56.75
X69.5Y-37.75
X69.6Y-62.15
X70.494Y-44.743
X70.8Y-59.35
X70.9Y-46.05
X70.9Y-46.75
X70.9Y-47.45
X70.9Y-48.05
X71.49Y-36.75
X71.497Y-42.745
X71.6Y-45.45
X71.6Y-48.55
X71.61Y-44.76
X71.7Y-59.35
X72.1Y-66.25
X73.4Y-61.25
X73.5Y-34.75
X73.5Y-36.75
X73.5Y-38.75
X73.5Y-40.75
X73.5Y-42.75
X74.015Y-62.45
X75.0Y-54.75
X75.0Y-56.75
X75.0Y-58.75
X75.1Y-51.75
X75.495Y-36.745
X75.497Y-34.745
X75.5Y-38.75
X75.5Y-40.75
X75.5Y-42.75
X75.9Y-53.55
X75.9Y-54.45
X75.9Y-55.35
X75.9Y-56.25
X75.9Y-57.15
X75.9Y-58.05
X75.9Y-58.85
X75.9Y-59.65
X75.9Y-60.45
X76.8Y-64.25
X77.25Y-54.75
X77.36Y-56.25
X77.495Y-34.745
X77.5Y-40.75
X77.5Y-42.75
X77.5Y-51.5
X77.5Y-75.75
X77.6Y-118.9
X77.8Y-59.35
X78.044Y-56.606
X78.4Y-118.8
X78.75Y-52.75
X79.3Y-58.75
X79.3Y-62.15
X79.493Y-34.745
X79.5Y-46.75
X79.5Y-48.75
X79.5Y-50.75
X79.5Y-60.05
X79.6Y-63.05
X79.6Y-63.75
X79.83Y-53.16
X79.9Y-55.55
X80.2Y-62.15
X80.39Y-54.98
X80.4Y-65.65
X80.4Y-66.45
X80.4Y-123.4
X80.495Y-75.742
X80.7Y-53.15
X80.9Y-63.25
X81.0Y-60.95
X81.495Y-46.745
X81.499Y-34.745
X81.5Y-48.75
X81.5Y-50.75
X81.5Y-52.45
X81.646Y-60.882
X82.0Y-65.0
X82.1Y-51.95
X82.1Y-54.65
X82.203Y-60.548
X82.492Y-75.742
X82.624Y-63.25
X82.7Y-52.45
X83.0Y-60.55
X83.3Y-63.284
X83.497Y-34.745
X83.5Y-46.75
X83.5Y-48.75
X83.5Y-50.75
X83.674Y-54.7
X83.7Y-52.75
X83.75Y-65.0
X83.8Y-60.35
X84.3Y-63.25
X84.5Y-52.79
X84.5Y-75.75
X84.94Y-54.95
X85.04Y-42.79
X85.1Y-46.75
X85.1Y-60.75
X85.2Y-61.95
X85.25Y-63.75
X85.25Y-65.0
X85.325Y-55.525
X85.4Y-54.25
X85.495Y-34.745
X85.495Y-48.745
X85.5Y-40.75
X85.692Y-56.18
X85.706Y-58.944
X86.2Y-122.7
X86.5Y-42.748
X86.5Y-56.55
X86.5Y-75.75
X86.544Y-58.55
X86.7Y-62.45
X86.75Y-50.75
X87.1Y-56.95
X87.1Y-57.75
X87.489Y-67.75
X87.493Y-34.745
X87.5Y-38.75
X87.5Y-40.75
X87.5Y-69.75
X87.5Y-71.75
X87.501Y-65.69
X87.7Y-61.624
X87.8Y-55.05
X87.8Y-55.95
X87.8Y-56.75
X87.8Y-57.55
X87.8Y-58.45
X87.8Y-59.35
X88.2Y-53.75
X88.3Y-62.95
X88.5Y-56.25
X88.5Y-58.25
X88.9Y-50.35
X88.9Y-51.25
X89.0Y-62.95
X89.151Y-51.959
X89.2Y-52.75
X89.497Y-38.74
X89.497Y-40.738
X89.499Y-35.748
X89.5Y-69.75
X89.5Y-71.75
X89.5Y-72.75
X90.25Y-66.5
X91.489Y-39.738
X91.492Y-35.743
X91.492Y-37.741
X91.5Y-71.75
X92.0Y-51.25
X92.0Y-66.75
X92.0Y-68.25
X92.7Y-64.75
X93.499Y-37.74
X93.499Y-39.738
X93.5Y-35.75
X93.5Y-44.65
X93.75Y-51.25
X93.9Y-65.05
X94.1Y-42.05
X94.1Y-42.65
X94.1Y-43.25
X94.1Y-45.45
X94.21Y-44.71
X94.6Y-61.55
X94.6Y-62.45
X94.6Y-67.05
X94.6Y-67.95
X95.3Y-47.25
X95.3Y-49.55
X95.45Y-65.5
X95.495Y-64.025
X95.497Y-39.738
X95.497Y-41.748
X95.5Y-37.741
X95.5Y-43.747
X95.5Y-45.749
X95.5Y-40.75
X95.5Y-51.25
X95.8Y-47.95
X95.8Y-48.95
X96.3Y-67.05
X96.3Y-67.95
X96.35Y-62.4
X96.365Y-61.615
X96.5Y-53.75
X96.5Y-55.75
X96.5Y-57.75
X96.75Y-71.0
X96.91Y-46.73
X97.04Y-64.5
X97.2Y-52.85
X97.2Y-53.65
X97.2Y-54.55
X97.2Y-55.45
X97.2Y-56.35
X97.2Y-57.25
X97.2Y-58.05
X97.2Y-58.85
X97.28Y-48.2
X97.3Y-47.27
X97.46Y-43.26
X97.61Y-49.17
X97.621Y-46.614
X97.975Y-53.35
X98.19Y-49.95
X98.25Y-50.96
X99.2Y-46.09
X99.2Y-49.59
X99.3Y-59.15
X99.3Y-59.95
X99.5Y-51.55
X99.87Y-43.31
X100.2Y-66.55
X100.66Y-48.24
X100.72Y-47.3
X100.92Y-46.54
X100.96Y-48.91
X101.07Y-55.526
X101.2Y-54.75
X101.2Y-57.35
X101.392Y-53.841
X101.68Y-49.16
X101.7Y-59.15
X101.7Y-60.05
X101.9Y-54.75
X101.91Y-53.45
X102.03Y-52.25
X102.1Y-56.05
X102.5Y-46.5
X102.5Y-63.0
X104.0Y-50.25
X117.2Y-58.94
X117.2Y-60.6
X118.2Y-49.6
X118.2Y-51.6
X118.8Y-54.3
X118.93Y-55.6
X118.93Y-58.14
X118.96Y-58.814
X118.99Y-53.06
X119.2Y-46.6
X119.2Y-60.6
X119.2Y-62.6
X119.2Y-64.6
X119.3Y-48.1
X119.66Y-55.6
X119.95Y-47.2
X120.1Y-50.2
X120.2Y-51.6
X120.44Y-44.19
X121.0Y-50.2
X121.075Y-47.275
X121.196Y-68.599
X121.2Y-42.6
X121.2Y-62.6
X121.2Y-64.6
X121.2Y-66.6
X121.41Y-46.3
X122.2Y-41.6
X122.3Y-61.83
X122.47Y-50.37
X122.5Y-54.3
X122.5Y-56.9
X122.55Y-52.72
X122.56Y-55.6
X122.73Y-58.14
X122.76Y-58.92
X122.95Y-44.85
X122.95Y-48.1
X123.2Y-66.35
X123.2Y-69.6
X123.3Y-59.8
X123.45Y-57.1
X123.5Y-46.6
X123.6Y-49.9
X123.86Y-40.07
X124.2Y-71.6
X124.349Y-46.6
X124.45Y-49.85
X125.2Y-38.6
X125.2Y-40.6
X125.2Y-59.1
X125.32Y-68.17
X125.8Y-68.93
X126.2Y-69.6
X126.2Y-71.6
X126.2Y-73.595
X126.5Y-62.8
X126.7Y-44.85
X126.7Y-48.35
X126.71Y-46.45
X126.77Y-49.55
X126.9Y-59.7
X127.2Y-37.6
X127.2Y-38.6
X127.45Y-41.1
X128.198Y-71.6
X128.2Y-69.6
X128.2Y-73.6
X130.2Y-69.6
X130.2Y-71.6
X130.2Y-75.6
X130.45Y-59.15
X130.47Y-57.88
X130.7Y-42.6
X130.76Y-43.93
X131.0Y-52.7
X131.7Y-68.775
X131.7Y-70.85
X131.9Y-55.8
X131.9Y-56.7
X132.2Y-52.6
X132.2Y-73.6
X132.2Y-75.6
X133.2Y-51.6
X133.76Y-59.26
X134.167Y-52.648
X134.194Y-44.599
X134.2Y-73.6
X134.2Y-75.6
X134.68Y-46.93
X134.7Y-68.1
X135.02Y-59.27
X135.03Y-46.24
X135.1Y-55.6
X135.1Y-56.9
X135.115Y-47.465
X135.776Y-47.616
X136.2Y-69.6
X136.2Y-75.6
X136.29Y-59.31
X136.7Y-57.0
X137.5Y-43.9
X137.7Y-54.85
X138.192Y-75.587
X138.2Y-44.1
X138.2Y-69.6
X138.72Y-46.026
X139.4Y-46.6
X139.5Y-57.1
X139.95Y-42.85
X140.2Y-48.6
X140.2Y-50.6
X140.2Y-69.6
X140.2Y-75.617
X140.5Y-54.85
X141.7Y-42.85
X141.7Y-68.775
X141.7Y-70.85
X141.9Y-58.9
X142.2Y-48.6
X142.2Y-73.6
X142.2Y-75.6
X143.2Y-42.6
X143.2Y-52.6
X143.45Y-54.85
X143.45Y-57.1
X144.192Y-75.592
X144.2Y-46.3
X144.2Y-51.6
X144.2Y-73.6
X145.2Y-49.6
X145.2Y-52.6
X145.7Y-42.6
X145.83Y-57.97
X146.192Y-75.592
X146.22Y-60.78
X147.7Y-41.6
X147.94Y-56.61
X147.95Y-55.35
X148.192Y-73.6
X148.194Y-71.592
X148.2Y-47.85
X148.2Y-48.6
X148.2Y-51.6
X148.4Y-56.0
X148.45Y-52.85
X148.663Y-41.227
X149.01Y-47.51
X149.06Y-42.86
X149.1Y-41.8
X149.1Y-46.5
X149.2Y-37.6
X149.2Y-52.424
X149.9Y-45.5
X150.193Y-71.592
X150.95Y-41.1
X150.95Y-48.026
X151.1Y-41.9
X151.3Y-47.2
X152.2Y-71.6
X152.45Y-53.35
X153.0Y-56.0
X153.2Y-42.4
X153.7Y-53.1
X153.7Y-55.6
X154.2Y-62.6
X154.2Y-64.6
X154.2Y-66.6
X154.2Y-68.6
X154.45Y-60.35
X155.2Y-42.6
X155.45Y-43.85
X155.5Y-44.6
X155.5Y-51.0
X156.0Y-46.8
X156.2Y-48.6
X156.2Y-62.6
X156.2Y-64.6
X156.2Y-66.6
X156.7Y-53.1
X156.95Y-55.6
X157.0Y-46.8
X157.45Y-53.6
X157.45Y-54.35
X157.45Y-56.85
X157.7Y-49.5
X157.95Y-60.35
X158.2Y-47.6
X158.2Y-62.6
X158.3Y-51.2
X159.2Y-51.1
X159.2Y-52.26
X171.2Y-101.1
X172.0Y-104.6
X172.65Y-104.6
X173.3Y-104.75
X173.46Y-102.66
X175.05Y-104.6
X175.699Y-104.63
X176.197Y-104.212
X176.901Y-104.11
X177.524Y-104.45
X178.175Y-104.625
X180.3Y-104.5
X180.85Y-104.5
X181.2Y-101.0
X181.55Y-104.5
T2
X135.3Y-49.66
X135.3Y-51.06
X136.0Y-48.96
X136.0Y-50.36
X136.0Y-51.76
X136.7Y-49.66
X136.7Y-51.06
X137.4Y-48.96
X137.4Y-50.36
X137.4Y-51.76
X138.1Y-49.66
X138.1Y-51.06
T3
X98.216Y-60.857
X98.35Y-60.0
X149.3Y-39.4
X149.3Y-40.4
X153.2Y-47.8
X154.0Y-43.8
X155.6Y-49.6
T4
X88.3Y-120.05
X88.3Y-121.55
X89.8Y-120.05
X89.8Y-121.55
X91.3Y-120.05
X91.3Y-121.55
T5
X61.2Y-103.1
X61.7Y-111.1
X62.2Y-113.1
X62.7Y-98.1
X63.7Y-116.6
X65.7Y-119.1
X67.2Y-109.85
X67.7Y-118.35
X67.95Y-104.35
X67.95Y-105.35
X67.95Y-108.6
X68.45Y-89.85
X68.7Y-106.1
X68.95Y-93.85
X68.95Y-96.85
X69.45Y-116.1
X69.7Y-106.1
X69.7Y-108.6
X69.95Y-93.85
X69.95Y-96.85
X70.45Y-109.85
X70.7Y-106.1
X70.95Y-93.85
X70.95Y-96.85
X71.2Y-116.6
X71.4Y-111.7
X71.45Y-105.35
X71.95Y-93.85
X71.95Y-96.85
X72.2Y-92.35
X72.2Y-94.85
X72.2Y-95.85
X72.2Y-123.1
X72.45Y-87.6
X72.6Y-111.6
X72.7Y-107.6
X75.2Y-93.6
X75.2Y-125.1
X75.3Y-88.4
X75.3Y-117.8
X75.95Y-85.85
X75.95Y-96.1
X75.95Y-99.6
X75.95Y-102.85
X75.95Y-105.85
X79.4Y-88.6
X79.6Y-124.0
X80.9Y-105.8
X80.95Y-99.6
X80.95Y-102.85
X81.7Y-56.65
X81.7Y-58.45
X81.95Y-93.6
X81.95Y-96.1
X83.4Y-56.65
X83.4Y-58.45
X83.4Y-122.0
X84.0Y-119.0
X84.7Y-116.5
X85.0Y-117.6
X85.45Y-124.1
X85.45Y-127.35
X85.7Y-89.1
X85.7Y-92.35
X85.8Y-116.05
X85.9Y-121.9
X86.2Y-85.1
X86.2Y-120.35
X87.2Y-99.1
X87.2Y-100.1
X87.45Y-112.6
X88.2Y-98.1
X88.2Y-99.1
X88.2Y-100.1
X88.919Y-125.116
X88.924Y-116.414
X89.2Y-99.1
X89.2Y-100.1
X89.214Y-98.095
X90.2Y-99.1
X90.2Y-100.1
X90.2Y-112.6
X90.9Y-125.4
X90.95Y-86.35
X91.2Y-98.095
X91.2Y-99.1
X91.2Y-100.1
X92.1Y-125.4
X92.2Y-98.1
X92.2Y-99.1
X92.2Y-100.1
X93.2Y-99.1
X93.2Y-100.1
X93.2Y-125.1
X94.1Y-113.4
X94.2Y-99.1
X94.2Y-100.1
X94.6Y-112.3
X94.8Y-119.1
X95.2Y-120.85
X95.5Y-122.3
X95.7Y-88.85
X95.875Y-112.125
X95.9Y-119.1
X95.95Y-114.85
X97.7Y-121.6
X97.8Y-118.9
X98.2Y-104.85
X98.3Y-105.95
X98.3Y-111.6
X99.2Y-110.3
X99.6Y-115.9
X99.7Y-119.1
X99.95Y-93.6
X101.3Y-109.2
X101.45Y-116.35
X102.95Y-99.35
X103.7Y-102.6
X103.95Y-109.6
X104.2Y-105.85
X127.2Y-103.8
X128.6Y-104.0
X128.8Y-111.8
X130.2Y-104.2
X130.4Y-111.0
X131.4Y-96.6
X131.6Y-110.4
X132.0Y-104.6
X132.4Y-97.6
X133.2Y-109.6
X133.4Y-98.6
X134.6Y-100.2
X135.0Y-117.4
X135.6Y-116.0
X136.2Y-114.6
X137.0Y-112.6
X137.6Y-99.4
X137.6Y-100.8
X137.6Y-102.2
X140.4Y-102.6
X140.6Y-92.2
X140.6Y-109.2
X142.0Y-112.6
X142.2Y-92.4
X142.4Y-102.6
X142.4Y-114.6
X142.6Y-109.0
X142.8Y-104.8
X142.8Y-107.2
X143.0Y-116.0
X143.4Y-92.8
X143.4Y-117.6
X144.2Y-100.0
X145.6Y-98.6
X145.8Y-109.6
X146.6Y-97.4
X146.6Y-104.6
X147.4Y-110.4
X147.6Y-96.4
X148.4Y-104.4
X148.8Y-111.0
X150.2Y-112.0
X150.4Y-104.0
X151.8Y-103.8
X173.5Y-46.294
X173.5Y-56.278
X173.5Y-48.3
X173.5Y-50.3
X173.5Y-52.3
X173.5Y-58.3
X173.5Y-60.3
X173.5Y-62.3
X173.5Y-64.3
X173.5Y-66.3
X173.506Y-54.289
X174.4Y-51.4
X175.8Y-55.2
X176.0Y-60.95
X176.0Y-63.65
X176.042Y-53.6
X176.5Y-46.3
X176.5Y-66.3
X176.6Y-58.7
X178.0Y-52.4
X178.4Y-56.374
X178.5Y-46.3
X178.5Y-66.3
X179.0Y-48.95
X179.0Y-51.65
X179.0Y-58.9
X179.9Y-57.7
X180.7Y-61.1
X181.5Y-46.3
X181.5Y-48.3
X181.5Y-50.3
X181.5Y-52.3
X181.5Y-54.3
X181.5Y-56.3
X181.5Y-58.3
X181.5Y-60.3
X181.5Y-62.3
X181.5Y-64.3
X181.5Y-66.3
T6
X97.35Y-41.3
X98.35Y-41.3
T8
X171.2Y-102.23
X171.2Y-103.5
X182.2Y-102.23
X182.2Y-103.5
T9
X92.2Y-70.35
X94.2Y-70.35
T10
X77.5Y-37.275
X80.0Y-37.275
X82.5Y-37.275
X85.0Y-37.275
X87.5Y-37.275
T11
X175.425Y-102.1
X177.965Y-102.1
T12
X64.6Y-101.9
X64.6Y-106.9
X66.782Y-44.018
X70.318Y-40.482
X89.8Y-92.8
X94.8Y-92.8
X136.9Y-87.8
X141.9Y-87.8
T13
X75.9Y-70.25
X83.1Y-70.25
T7
G00X93.35Y-62.225
M15
G01X93.35Y-62.475
M16
G05
G00X93.35Y-67.025
M15
G01X93.35Y-67.275
M16
G05
G00X97.65Y-62.225
M15
G01X97.65Y-62.475
M16
G05
G00X97.65Y-67.025
M15
G01X97.65Y-67.275
M16
G05
G00X172.18Y-105.6
M15
G01X172.18Y-106.2
M16
G05
G00X181.22Y-105.6
M15
G01X181.22Y-106.2
M16
G05
T8
G00X172.18Y-108.425
M15
G01X172.18Y-109.375
M16
G05
G00X181.22Y-108.425
M15
G01X181.22Y-109.375
M16
G05
T0
M30
