%TF.GenerationSoftware,KiCad,Pcbnew,(6.0.9)*%
%TF.CreationDate,2023-02-02T11:23:03+01:00*%
%TF.ProjectId,Stencil,5374656e-6369-46c2-9e6b-696361645f70,rev?*%
%TF.SameCoordinates,Original*%
%TF.FileFunction,Soldermask,Top*%
%TF.FilePolarity,Negative*%
%FSLAX46Y46*%
G04 Gerber Fmt 4.6, Leading zero omitted, Abs format (unit mm)*
G04 Created by KiCad (PCBNEW (6.0.9)) date 2023-02-02 11:23:03*
%MOMM*%
%LPD*%
G01*
G04 APERTURE LIST*
G04 Aperture macros list*
%AMRoundRect*
0 Rectangle with rounded corners*
0 $1 Rounding radius*
0 $2 $3 $4 $5 $6 $7 $8 $9 X,Y pos of 4 corners*
0 Add a 4 corners polygon primitive as box body*
4,1,4,$2,$3,$4,$5,$6,$7,$8,$9,$2,$3,0*
0 Add four circle primitives for the rounded corners*
1,1,$1+$1,$2,$3*
1,1,$1+$1,$4,$5*
1,1,$1+$1,$6,$7*
1,1,$1+$1,$8,$9*
0 Add four rect primitives between the rounded corners*
20,1,$1+$1,$2,$3,$4,$5,0*
20,1,$1+$1,$4,$5,$6,$7,0*
20,1,$1+$1,$6,$7,$8,$9,0*
20,1,$1+$1,$8,$9,$2,$3,0*%
G04 Aperture macros list end*
%ADD10C,0.010000*%
%ADD11RoundRect,0.140000X-0.170000X0.140000X-0.170000X-0.140000X0.170000X-0.140000X0.170000X0.140000X0*%
%ADD12RoundRect,0.250000X0.375000X1.075000X-0.375000X1.075000X-0.375000X-1.075000X0.375000X-1.075000X0*%
%ADD13RoundRect,0.140000X0.170000X-0.140000X0.170000X0.140000X-0.170000X0.140000X-0.170000X-0.140000X0*%
%ADD14R,0.700000X0.600000*%
%ADD15R,0.500000X0.700000*%
%ADD16R,0.400000X0.700000*%
%ADD17RoundRect,0.135000X0.185000X-0.135000X0.185000X0.135000X-0.185000X0.135000X-0.185000X-0.135000X0*%
%ADD18RoundRect,0.135000X0.135000X0.185000X-0.135000X0.185000X-0.135000X-0.185000X0.135000X-0.185000X0*%
%ADD19R,2.400000X0.740000*%
%ADD20RoundRect,0.200000X0.275000X-0.200000X0.275000X0.200000X-0.275000X0.200000X-0.275000X-0.200000X0*%
%ADD21R,3.250000X5.000000*%
%ADD22RoundRect,0.250000X0.650000X-0.325000X0.650000X0.325000X-0.650000X0.325000X-0.650000X-0.325000X0*%
%ADD23C,2.200000*%
%ADD24RoundRect,0.135000X-0.185000X0.135000X-0.185000X-0.135000X0.185000X-0.135000X0.185000X0.135000X0*%
%ADD25RoundRect,0.250000X0.450000X-0.262500X0.450000X0.262500X-0.450000X0.262500X-0.450000X-0.262500X0*%
%ADD26RoundRect,0.243750X-0.456250X0.243750X-0.456250X-0.243750X0.456250X-0.243750X0.456250X0.243750X0*%
%ADD27R,1.500000X0.900000*%
%ADD28R,0.900000X1.500000*%
%ADD29R,0.900000X0.900000*%
%ADD30C,0.600000*%
%ADD31R,1.550000X1.300000*%
%ADD32C,4.000000*%
%ADD33RoundRect,0.150000X-0.150000X-0.625000X0.150000X-0.625000X0.150000X0.625000X-0.150000X0.625000X0*%
%ADD34RoundRect,0.250000X-0.350000X-0.650000X0.350000X-0.650000X0.350000X0.650000X-0.350000X0.650000X0*%
%ADD35R,1.200000X2.200000*%
%ADD36R,5.800000X6.400000*%
%ADD37R,4.860000X3.360000*%
%ADD38R,1.400000X1.390000*%
%ADD39RoundRect,0.135000X-0.135000X-0.185000X0.135000X-0.185000X0.135000X0.185000X-0.135000X0.185000X0*%
%ADD40R,1.800000X2.500000*%
%ADD41R,2.310000X2.460000*%
%ADD42RoundRect,0.100000X0.100000X-0.687500X0.100000X0.687500X-0.100000X0.687500X-0.100000X-0.687500X0*%
%ADD43RoundRect,0.225000X0.250000X-0.225000X0.250000X0.225000X-0.250000X0.225000X-0.250000X-0.225000X0*%
%ADD44R,0.650000X3.000000*%
%ADD45R,0.300000X1.000000*%
%ADD46O,1.100000X2.200000*%
%ADD47RoundRect,0.250000X-0.625000X0.312500X-0.625000X-0.312500X0.625000X-0.312500X0.625000X0.312500X0*%
%ADD48R,1.000000X1.000000*%
%ADD49O,1.000000X1.000000*%
%ADD50RoundRect,0.150000X-0.512500X-0.150000X0.512500X-0.150000X0.512500X0.150000X-0.512500X0.150000X0*%
%ADD51RoundRect,0.140000X0.140000X0.170000X-0.140000X0.170000X-0.140000X-0.170000X0.140000X-0.170000X0*%
%ADD52R,0.700000X0.400000*%
%ADD53RoundRect,0.140000X-0.140000X-0.170000X0.140000X-0.170000X0.140000X0.170000X-0.140000X0.170000X0*%
%ADD54RoundRect,0.250000X0.262500X0.450000X-0.262500X0.450000X-0.262500X-0.450000X0.262500X-0.450000X0*%
%ADD55RoundRect,0.225000X-0.225000X-0.250000X0.225000X-0.250000X0.225000X0.250000X-0.225000X0.250000X0*%
%ADD56R,0.740000X2.400000*%
%ADD57RoundRect,0.250000X-0.325000X-0.650000X0.325000X-0.650000X0.325000X0.650000X-0.325000X0.650000X0*%
%ADD58R,0.650000X0.400000*%
%ADD59RoundRect,0.250000X-0.250000X-0.475000X0.250000X-0.475000X0.250000X0.475000X-0.250000X0.475000X0*%
%ADD60RoundRect,0.250000X0.312500X0.625000X-0.312500X0.625000X-0.312500X-0.625000X0.312500X-0.625000X0*%
%ADD61RoundRect,0.250000X-1.250000X-0.550000X1.250000X-0.550000X1.250000X0.550000X-1.250000X0.550000X0*%
%ADD62RoundRect,0.225000X-0.250000X0.225000X-0.250000X-0.225000X0.250000X-0.225000X0.250000X0.225000X0*%
%ADD63R,2.200000X1.200000*%
%ADD64R,6.400000X5.800000*%
%ADD65RoundRect,0.250000X0.250000X0.475000X-0.250000X0.475000X-0.250000X-0.475000X0.250000X-0.475000X0*%
%ADD66RoundRect,0.050000X0.375000X0.050000X-0.375000X0.050000X-0.375000X-0.050000X0.375000X-0.050000X0*%
%ADD67RoundRect,0.050000X0.050000X0.275000X-0.050000X0.275000X-0.050000X-0.275000X0.050000X-0.275000X0*%
%ADD68RoundRect,0.250000X-0.262500X-0.450000X0.262500X-0.450000X0.262500X0.450000X-0.262500X0.450000X0*%
%ADD69R,0.850000X0.850000*%
%ADD70O,0.850000X0.850000*%
%ADD71RoundRect,0.243750X-0.243750X-0.456250X0.243750X-0.456250X0.243750X0.456250X-0.243750X0.456250X0*%
%ADD72RoundRect,0.250000X-0.450000X0.262500X-0.450000X-0.262500X0.450000X-0.262500X0.450000X0.262500X0*%
%ADD73C,0.520000*%
%ADD74R,0.870000X0.300000*%
%ADD75RoundRect,0.250000X-0.650000X0.325000X-0.650000X-0.325000X0.650000X-0.325000X0.650000X0.325000X0*%
%ADD76R,0.700000X0.500000*%
%ADD77RoundRect,0.150000X0.512500X0.150000X-0.512500X0.150000X-0.512500X-0.150000X0.512500X-0.150000X0*%
%ADD78RoundRect,0.225000X0.225000X0.250000X-0.225000X0.250000X-0.225000X-0.250000X0.225000X-0.250000X0*%
%ADD79RoundRect,0.250000X-0.600000X-0.725000X0.600000X-0.725000X0.600000X0.725000X-0.600000X0.725000X0*%
%ADD80O,1.700000X1.950000*%
%ADD81R,1.700000X1.700000*%
%ADD82O,1.700000X1.700000*%
%ADD83R,1.350000X1.350000*%
%ADD84O,1.350000X1.350000*%
%ADD85C,6.500000*%
%ADD86R,6.300000X6.000000*%
G04 APERTURE END LIST*
%TO.C,D202*%
G36*
X190108000Y-91041000D02*
G01*
X190110000Y-91041000D01*
X190113000Y-91042000D01*
X190115000Y-91042000D01*
X190118000Y-91043000D01*
X190120000Y-91044000D01*
X190123000Y-91045000D01*
X190125000Y-91047000D01*
X190127000Y-91048000D01*
X190129000Y-91050000D01*
X190131000Y-91051000D01*
X190139000Y-91059000D01*
X190140000Y-91061000D01*
X190142000Y-91063000D01*
X190143000Y-91065000D01*
X190145000Y-91067000D01*
X190146000Y-91070000D01*
X190147000Y-91072000D01*
X190148000Y-91075000D01*
X190148000Y-91077000D01*
X190149000Y-91080000D01*
X190149000Y-91082000D01*
X190150000Y-91085000D01*
X190150000Y-91295000D01*
X190149000Y-91298000D01*
X190149000Y-91300000D01*
X190148000Y-91303000D01*
X190148000Y-91305000D01*
X190147000Y-91308000D01*
X190146000Y-91310000D01*
X190145000Y-91313000D01*
X190143000Y-91315000D01*
X190142000Y-91317000D01*
X190140000Y-91319000D01*
X190139000Y-91321000D01*
X190131000Y-91329000D01*
X190129000Y-91330000D01*
X190127000Y-91332000D01*
X190125000Y-91333000D01*
X190123000Y-91335000D01*
X190120000Y-91336000D01*
X190118000Y-91337000D01*
X190115000Y-91338000D01*
X190113000Y-91338000D01*
X190110000Y-91339000D01*
X190108000Y-91339000D01*
X190105000Y-91340000D01*
X189895000Y-91340000D01*
X189892000Y-91339000D01*
X189890000Y-91339000D01*
X189887000Y-91338000D01*
X189885000Y-91338000D01*
X189882000Y-91337000D01*
X189880000Y-91336000D01*
X189877000Y-91335000D01*
X189875000Y-91333000D01*
X189873000Y-91332000D01*
X189871000Y-91330000D01*
X189869000Y-91329000D01*
X189861000Y-91321000D01*
X189860000Y-91319000D01*
X189858000Y-91317000D01*
X189857000Y-91315000D01*
X189855000Y-91313000D01*
X189854000Y-91310000D01*
X189853000Y-91308000D01*
X189852000Y-91305000D01*
X189852000Y-91303000D01*
X189851000Y-91300000D01*
X189851000Y-91298000D01*
X189850000Y-91295000D01*
X189850000Y-91085000D01*
X189851000Y-91082000D01*
X189851000Y-91080000D01*
X189852000Y-91077000D01*
X189852000Y-91075000D01*
X189853000Y-91072000D01*
X189854000Y-91070000D01*
X189855000Y-91067000D01*
X189857000Y-91065000D01*
X189858000Y-91063000D01*
X189860000Y-91061000D01*
X189861000Y-91059000D01*
X189869000Y-91051000D01*
X189871000Y-91050000D01*
X189873000Y-91048000D01*
X189875000Y-91047000D01*
X189877000Y-91045000D01*
X189880000Y-91044000D01*
X189882000Y-91043000D01*
X189885000Y-91042000D01*
X189887000Y-91042000D01*
X189890000Y-91041000D01*
X189892000Y-91041000D01*
X189895000Y-91040000D01*
X190105000Y-91040000D01*
X190108000Y-91041000D01*
G37*
D10*
X190108000Y-91041000D02*
X190110000Y-91041000D01*
X190113000Y-91042000D01*
X190115000Y-91042000D01*
X190118000Y-91043000D01*
X190120000Y-91044000D01*
X190123000Y-91045000D01*
X190125000Y-91047000D01*
X190127000Y-91048000D01*
X190129000Y-91050000D01*
X190131000Y-91051000D01*
X190139000Y-91059000D01*
X190140000Y-91061000D01*
X190142000Y-91063000D01*
X190143000Y-91065000D01*
X190145000Y-91067000D01*
X190146000Y-91070000D01*
X190147000Y-91072000D01*
X190148000Y-91075000D01*
X190148000Y-91077000D01*
X190149000Y-91080000D01*
X190149000Y-91082000D01*
X190150000Y-91085000D01*
X190150000Y-91295000D01*
X190149000Y-91298000D01*
X190149000Y-91300000D01*
X190148000Y-91303000D01*
X190148000Y-91305000D01*
X190147000Y-91308000D01*
X190146000Y-91310000D01*
X190145000Y-91313000D01*
X190143000Y-91315000D01*
X190142000Y-91317000D01*
X190140000Y-91319000D01*
X190139000Y-91321000D01*
X190131000Y-91329000D01*
X190129000Y-91330000D01*
X190127000Y-91332000D01*
X190125000Y-91333000D01*
X190123000Y-91335000D01*
X190120000Y-91336000D01*
X190118000Y-91337000D01*
X190115000Y-91338000D01*
X190113000Y-91338000D01*
X190110000Y-91339000D01*
X190108000Y-91339000D01*
X190105000Y-91340000D01*
X189895000Y-91340000D01*
X189892000Y-91339000D01*
X189890000Y-91339000D01*
X189887000Y-91338000D01*
X189885000Y-91338000D01*
X189882000Y-91337000D01*
X189880000Y-91336000D01*
X189877000Y-91335000D01*
X189875000Y-91333000D01*
X189873000Y-91332000D01*
X189871000Y-91330000D01*
X189869000Y-91329000D01*
X189861000Y-91321000D01*
X189860000Y-91319000D01*
X189858000Y-91317000D01*
X189857000Y-91315000D01*
X189855000Y-91313000D01*
X189854000Y-91310000D01*
X189853000Y-91308000D01*
X189852000Y-91305000D01*
X189852000Y-91303000D01*
X189851000Y-91300000D01*
X189851000Y-91298000D01*
X189850000Y-91295000D01*
X189850000Y-91085000D01*
X189851000Y-91082000D01*
X189851000Y-91080000D01*
X189852000Y-91077000D01*
X189852000Y-91075000D01*
X189853000Y-91072000D01*
X189854000Y-91070000D01*
X189855000Y-91067000D01*
X189857000Y-91065000D01*
X189858000Y-91063000D01*
X189860000Y-91061000D01*
X189861000Y-91059000D01*
X189869000Y-91051000D01*
X189871000Y-91050000D01*
X189873000Y-91048000D01*
X189875000Y-91047000D01*
X189877000Y-91045000D01*
X189880000Y-91044000D01*
X189882000Y-91043000D01*
X189885000Y-91042000D01*
X189887000Y-91042000D01*
X189890000Y-91041000D01*
X189892000Y-91041000D01*
X189895000Y-91040000D01*
X190105000Y-91040000D01*
X190108000Y-91041000D01*
G36*
X190408000Y-90701000D02*
G01*
X190410000Y-90701000D01*
X190413000Y-90702000D01*
X190415000Y-90702000D01*
X190418000Y-90703000D01*
X190420000Y-90704000D01*
X190423000Y-90705000D01*
X190425000Y-90707000D01*
X190427000Y-90708000D01*
X190429000Y-90710000D01*
X190431000Y-90711000D01*
X190439000Y-90719000D01*
X190440000Y-90721000D01*
X190442000Y-90723000D01*
X190443000Y-90725000D01*
X190445000Y-90727000D01*
X190446000Y-90730000D01*
X190447000Y-90732000D01*
X190448000Y-90735000D01*
X190448000Y-90737000D01*
X190449000Y-90740000D01*
X190449000Y-90742000D01*
X190450000Y-90745000D01*
X190450000Y-90955000D01*
X190449000Y-90958000D01*
X190449000Y-90960000D01*
X190448000Y-90963000D01*
X190448000Y-90965000D01*
X190447000Y-90968000D01*
X190446000Y-90970000D01*
X190445000Y-90973000D01*
X190443000Y-90975000D01*
X190442000Y-90977000D01*
X190440000Y-90979000D01*
X190439000Y-90981000D01*
X190431000Y-90989000D01*
X190429000Y-90990000D01*
X190427000Y-90992000D01*
X190425000Y-90993000D01*
X190423000Y-90995000D01*
X190420000Y-90996000D01*
X190418000Y-90997000D01*
X190415000Y-90998000D01*
X190413000Y-90998000D01*
X190410000Y-90999000D01*
X190408000Y-90999000D01*
X190405000Y-91000000D01*
X190195000Y-91000000D01*
X190192000Y-90999000D01*
X190190000Y-90999000D01*
X190187000Y-90998000D01*
X190185000Y-90998000D01*
X190182000Y-90997000D01*
X190180000Y-90996000D01*
X190177000Y-90995000D01*
X190175000Y-90993000D01*
X190173000Y-90992000D01*
X190171000Y-90990000D01*
X190169000Y-90989000D01*
X190161000Y-90981000D01*
X190160000Y-90979000D01*
X190158000Y-90977000D01*
X190157000Y-90975000D01*
X190155000Y-90973000D01*
X190154000Y-90970000D01*
X190153000Y-90968000D01*
X190152000Y-90965000D01*
X190152000Y-90963000D01*
X190151000Y-90960000D01*
X190151000Y-90958000D01*
X190150000Y-90955000D01*
X190150000Y-90745000D01*
X190151000Y-90742000D01*
X190151000Y-90740000D01*
X190152000Y-90737000D01*
X190152000Y-90735000D01*
X190153000Y-90732000D01*
X190154000Y-90730000D01*
X190155000Y-90727000D01*
X190157000Y-90725000D01*
X190158000Y-90723000D01*
X190160000Y-90721000D01*
X190161000Y-90719000D01*
X190169000Y-90711000D01*
X190171000Y-90710000D01*
X190173000Y-90708000D01*
X190175000Y-90707000D01*
X190177000Y-90705000D01*
X190180000Y-90704000D01*
X190182000Y-90703000D01*
X190185000Y-90702000D01*
X190187000Y-90702000D01*
X190190000Y-90701000D01*
X190192000Y-90701000D01*
X190195000Y-90700000D01*
X190405000Y-90700000D01*
X190408000Y-90701000D01*
G37*
X190408000Y-90701000D02*
X190410000Y-90701000D01*
X190413000Y-90702000D01*
X190415000Y-90702000D01*
X190418000Y-90703000D01*
X190420000Y-90704000D01*
X190423000Y-90705000D01*
X190425000Y-90707000D01*
X190427000Y-90708000D01*
X190429000Y-90710000D01*
X190431000Y-90711000D01*
X190439000Y-90719000D01*
X190440000Y-90721000D01*
X190442000Y-90723000D01*
X190443000Y-90725000D01*
X190445000Y-90727000D01*
X190446000Y-90730000D01*
X190447000Y-90732000D01*
X190448000Y-90735000D01*
X190448000Y-90737000D01*
X190449000Y-90740000D01*
X190449000Y-90742000D01*
X190450000Y-90745000D01*
X190450000Y-90955000D01*
X190449000Y-90958000D01*
X190449000Y-90960000D01*
X190448000Y-90963000D01*
X190448000Y-90965000D01*
X190447000Y-90968000D01*
X190446000Y-90970000D01*
X190445000Y-90973000D01*
X190443000Y-90975000D01*
X190442000Y-90977000D01*
X190440000Y-90979000D01*
X190439000Y-90981000D01*
X190431000Y-90989000D01*
X190429000Y-90990000D01*
X190427000Y-90992000D01*
X190425000Y-90993000D01*
X190423000Y-90995000D01*
X190420000Y-90996000D01*
X190418000Y-90997000D01*
X190415000Y-90998000D01*
X190413000Y-90998000D01*
X190410000Y-90999000D01*
X190408000Y-90999000D01*
X190405000Y-91000000D01*
X190195000Y-91000000D01*
X190192000Y-90999000D01*
X190190000Y-90999000D01*
X190187000Y-90998000D01*
X190185000Y-90998000D01*
X190182000Y-90997000D01*
X190180000Y-90996000D01*
X190177000Y-90995000D01*
X190175000Y-90993000D01*
X190173000Y-90992000D01*
X190171000Y-90990000D01*
X190169000Y-90989000D01*
X190161000Y-90981000D01*
X190160000Y-90979000D01*
X190158000Y-90977000D01*
X190157000Y-90975000D01*
X190155000Y-90973000D01*
X190154000Y-90970000D01*
X190153000Y-90968000D01*
X190152000Y-90965000D01*
X190152000Y-90963000D01*
X190151000Y-90960000D01*
X190151000Y-90958000D01*
X190150000Y-90955000D01*
X190150000Y-90745000D01*
X190151000Y-90742000D01*
X190151000Y-90740000D01*
X190152000Y-90737000D01*
X190152000Y-90735000D01*
X190153000Y-90732000D01*
X190154000Y-90730000D01*
X190155000Y-90727000D01*
X190157000Y-90725000D01*
X190158000Y-90723000D01*
X190160000Y-90721000D01*
X190161000Y-90719000D01*
X190169000Y-90711000D01*
X190171000Y-90710000D01*
X190173000Y-90708000D01*
X190175000Y-90707000D01*
X190177000Y-90705000D01*
X190180000Y-90704000D01*
X190182000Y-90703000D01*
X190185000Y-90702000D01*
X190187000Y-90702000D01*
X190190000Y-90701000D01*
X190192000Y-90701000D01*
X190195000Y-90700000D01*
X190405000Y-90700000D01*
X190408000Y-90701000D01*
G36*
X190108000Y-90361000D02*
G01*
X190110000Y-90361000D01*
X190113000Y-90362000D01*
X190115000Y-90362000D01*
X190118000Y-90363000D01*
X190120000Y-90364000D01*
X190123000Y-90365000D01*
X190125000Y-90367000D01*
X190127000Y-90368000D01*
X190129000Y-90370000D01*
X190131000Y-90371000D01*
X190139000Y-90379000D01*
X190140000Y-90381000D01*
X190142000Y-90383000D01*
X190143000Y-90385000D01*
X190145000Y-90387000D01*
X190146000Y-90390000D01*
X190147000Y-90392000D01*
X190148000Y-90395000D01*
X190148000Y-90397000D01*
X190149000Y-90400000D01*
X190149000Y-90402000D01*
X190150000Y-90405000D01*
X190150000Y-90615000D01*
X190149000Y-90618000D01*
X190149000Y-90620000D01*
X190148000Y-90623000D01*
X190148000Y-90625000D01*
X190147000Y-90628000D01*
X190146000Y-90630000D01*
X190145000Y-90633000D01*
X190143000Y-90635000D01*
X190142000Y-90637000D01*
X190140000Y-90639000D01*
X190139000Y-90641000D01*
X190131000Y-90649000D01*
X190129000Y-90650000D01*
X190127000Y-90652000D01*
X190125000Y-90653000D01*
X190123000Y-90655000D01*
X190120000Y-90656000D01*
X190118000Y-90657000D01*
X190115000Y-90658000D01*
X190113000Y-90658000D01*
X190110000Y-90659000D01*
X190108000Y-90659000D01*
X190105000Y-90660000D01*
X189895000Y-90660000D01*
X189892000Y-90659000D01*
X189890000Y-90659000D01*
X189887000Y-90658000D01*
X189885000Y-90658000D01*
X189882000Y-90657000D01*
X189880000Y-90656000D01*
X189877000Y-90655000D01*
X189875000Y-90653000D01*
X189873000Y-90652000D01*
X189871000Y-90650000D01*
X189869000Y-90649000D01*
X189861000Y-90641000D01*
X189860000Y-90639000D01*
X189858000Y-90637000D01*
X189857000Y-90635000D01*
X189855000Y-90633000D01*
X189854000Y-90630000D01*
X189853000Y-90628000D01*
X189852000Y-90625000D01*
X189852000Y-90623000D01*
X189851000Y-90620000D01*
X189851000Y-90618000D01*
X189850000Y-90615000D01*
X189850000Y-90405000D01*
X189851000Y-90402000D01*
X189851000Y-90400000D01*
X189852000Y-90397000D01*
X189852000Y-90395000D01*
X189853000Y-90392000D01*
X189854000Y-90390000D01*
X189855000Y-90387000D01*
X189857000Y-90385000D01*
X189858000Y-90383000D01*
X189860000Y-90381000D01*
X189861000Y-90379000D01*
X189869000Y-90371000D01*
X189871000Y-90370000D01*
X189873000Y-90368000D01*
X189875000Y-90367000D01*
X189877000Y-90365000D01*
X189880000Y-90364000D01*
X189882000Y-90363000D01*
X189885000Y-90362000D01*
X189887000Y-90362000D01*
X189890000Y-90361000D01*
X189892000Y-90361000D01*
X189895000Y-90360000D01*
X190105000Y-90360000D01*
X190108000Y-90361000D01*
G37*
X190108000Y-90361000D02*
X190110000Y-90361000D01*
X190113000Y-90362000D01*
X190115000Y-90362000D01*
X190118000Y-90363000D01*
X190120000Y-90364000D01*
X190123000Y-90365000D01*
X190125000Y-90367000D01*
X190127000Y-90368000D01*
X190129000Y-90370000D01*
X190131000Y-90371000D01*
X190139000Y-90379000D01*
X190140000Y-90381000D01*
X190142000Y-90383000D01*
X190143000Y-90385000D01*
X190145000Y-90387000D01*
X190146000Y-90390000D01*
X190147000Y-90392000D01*
X190148000Y-90395000D01*
X190148000Y-90397000D01*
X190149000Y-90400000D01*
X190149000Y-90402000D01*
X190150000Y-90405000D01*
X190150000Y-90615000D01*
X190149000Y-90618000D01*
X190149000Y-90620000D01*
X190148000Y-90623000D01*
X190148000Y-90625000D01*
X190147000Y-90628000D01*
X190146000Y-90630000D01*
X190145000Y-90633000D01*
X190143000Y-90635000D01*
X190142000Y-90637000D01*
X190140000Y-90639000D01*
X190139000Y-90641000D01*
X190131000Y-90649000D01*
X190129000Y-90650000D01*
X190127000Y-90652000D01*
X190125000Y-90653000D01*
X190123000Y-90655000D01*
X190120000Y-90656000D01*
X190118000Y-90657000D01*
X190115000Y-90658000D01*
X190113000Y-90658000D01*
X190110000Y-90659000D01*
X190108000Y-90659000D01*
X190105000Y-90660000D01*
X189895000Y-90660000D01*
X189892000Y-90659000D01*
X189890000Y-90659000D01*
X189887000Y-90658000D01*
X189885000Y-90658000D01*
X189882000Y-90657000D01*
X189880000Y-90656000D01*
X189877000Y-90655000D01*
X189875000Y-90653000D01*
X189873000Y-90652000D01*
X189871000Y-90650000D01*
X189869000Y-90649000D01*
X189861000Y-90641000D01*
X189860000Y-90639000D01*
X189858000Y-90637000D01*
X189857000Y-90635000D01*
X189855000Y-90633000D01*
X189854000Y-90630000D01*
X189853000Y-90628000D01*
X189852000Y-90625000D01*
X189852000Y-90623000D01*
X189851000Y-90620000D01*
X189851000Y-90618000D01*
X189850000Y-90615000D01*
X189850000Y-90405000D01*
X189851000Y-90402000D01*
X189851000Y-90400000D01*
X189852000Y-90397000D01*
X189852000Y-90395000D01*
X189853000Y-90392000D01*
X189854000Y-90390000D01*
X189855000Y-90387000D01*
X189857000Y-90385000D01*
X189858000Y-90383000D01*
X189860000Y-90381000D01*
X189861000Y-90379000D01*
X189869000Y-90371000D01*
X189871000Y-90370000D01*
X189873000Y-90368000D01*
X189875000Y-90367000D01*
X189877000Y-90365000D01*
X189880000Y-90364000D01*
X189882000Y-90363000D01*
X189885000Y-90362000D01*
X189887000Y-90362000D01*
X189890000Y-90361000D01*
X189892000Y-90361000D01*
X189895000Y-90360000D01*
X190105000Y-90360000D01*
X190108000Y-90361000D01*
%TD*%
D11*
%TO.C,C327*%
X179450000Y-87670000D03*
X179450000Y-88630000D03*
%TD*%
D12*
%TO.C,L401*%
X165950000Y-90150000D03*
X163150000Y-90150000D03*
%TD*%
D13*
%TO.C,C10*%
X134100000Y-141780000D03*
X134100000Y-140820000D03*
%TD*%
D14*
%TO.C,D402*%
X122057029Y-73558471D03*
X122057029Y-74958471D03*
%TD*%
D15*
%TO.C,Q408*%
X148307029Y-66758471D03*
D16*
X147907029Y-67758471D03*
X148707029Y-67758471D03*
%TD*%
D17*
%TO.C,R501*%
X196750000Y-71120000D03*
X196750000Y-70100000D03*
%TD*%
D18*
%TO.C,R418*%
X117067029Y-70258471D03*
X116047029Y-70258471D03*
%TD*%
D19*
%TO.C,J203*%
X201600000Y-83390000D03*
X197700000Y-83390000D03*
X201600000Y-82120000D03*
X197700000Y-82120000D03*
X201600000Y-80850000D03*
X197700000Y-80850000D03*
X201600000Y-79580000D03*
X197700000Y-79580000D03*
X201600000Y-78310000D03*
X197700000Y-78310000D03*
%TD*%
D20*
%TO.C,R5*%
X144700000Y-142625000D03*
X144700000Y-140975000D03*
%TD*%
D13*
%TO.C,C304*%
X149937029Y-85728471D03*
X149937029Y-84768471D03*
%TD*%
D21*
%TO.C,L1*%
X124075000Y-123600000D03*
X135325000Y-123600000D03*
%TD*%
D22*
%TO.C,C6*%
X144700000Y-126075000D03*
X144700000Y-123125000D03*
%TD*%
D23*
%TO.C,REF\u002A\u002A*%
X152800000Y-134400000D03*
%TD*%
D24*
%TO.C,R309*%
X126807029Y-89998471D03*
X126807029Y-91018471D03*
%TD*%
D25*
%TO.C,R406*%
X148307029Y-76320971D03*
X148307029Y-74495971D03*
%TD*%
D26*
%TO.C,D305*%
X137307029Y-89070971D03*
X137307029Y-90945971D03*
%TD*%
D17*
%TO.C,R302*%
X154737029Y-85788471D03*
X154737029Y-84768471D03*
%TD*%
D18*
%TO.C,R414*%
X117067029Y-73508471D03*
X116047029Y-73508471D03*
%TD*%
%TO.C,R309*%
X177560000Y-84350000D03*
X176540000Y-84350000D03*
%TD*%
D27*
%TO.C,U301*%
X125557029Y-68048471D03*
X125557029Y-69318471D03*
X125557029Y-70588471D03*
X125557029Y-71858471D03*
X125557029Y-73128471D03*
X125557029Y-74398471D03*
X125557029Y-75668471D03*
X125557029Y-76938471D03*
X125557029Y-78208471D03*
X125557029Y-79478471D03*
X125557029Y-80748471D03*
X125557029Y-82018471D03*
X125557029Y-83288471D03*
X125557029Y-84558471D03*
D28*
X127322029Y-85808471D03*
X128592029Y-85808471D03*
X129862029Y-85808471D03*
X131132029Y-85808471D03*
X132402029Y-85808471D03*
X133672029Y-85808471D03*
X134942029Y-85808471D03*
X136212029Y-85808471D03*
X137482029Y-85808471D03*
X138752029Y-85808471D03*
X140022029Y-85808471D03*
X141292029Y-85808471D03*
D27*
X143057029Y-84558471D03*
X143057029Y-83288471D03*
X143057029Y-82018471D03*
X143057029Y-80748471D03*
X143057029Y-79478471D03*
X143057029Y-78208471D03*
X143057029Y-76938471D03*
X143057029Y-75668471D03*
X143057029Y-74398471D03*
X143057029Y-73128471D03*
X143057029Y-71858471D03*
X143057029Y-70588471D03*
X143057029Y-69318471D03*
X143057029Y-68048471D03*
D29*
X131407029Y-77168471D03*
D30*
X133507029Y-74368471D03*
X131407029Y-76468471D03*
X132107029Y-74368471D03*
D29*
X131407029Y-75768471D03*
D30*
X132807029Y-76468471D03*
D29*
X132807029Y-77168471D03*
X132807029Y-75768471D03*
D30*
X132107029Y-75768471D03*
D29*
X134207029Y-75768471D03*
D30*
X131407029Y-75068471D03*
D29*
X134207029Y-77168471D03*
D30*
X133507029Y-75768471D03*
D29*
X132807029Y-74368471D03*
X134207029Y-74368471D03*
D30*
X133507029Y-77168471D03*
X132807029Y-75068471D03*
D29*
X131407029Y-74368471D03*
D30*
X134207029Y-75068471D03*
X134207029Y-76468471D03*
X132107029Y-77168471D03*
%TD*%
D31*
%TO.C,SW301*%
X113322029Y-83258471D03*
X121272029Y-83258471D03*
X113322029Y-78758471D03*
X121272029Y-78758471D03*
%TD*%
D32*
%TO.C,J1*%
X115700000Y-128700000D03*
X115700000Y-123700000D03*
%TD*%
D33*
%TO.C,J4*%
X130500000Y-143800000D03*
X131500000Y-143800000D03*
X132500000Y-143800000D03*
X133500000Y-143800000D03*
D34*
X129200000Y-147675000D03*
X134800000Y-147675000D03*
%TD*%
D35*
%TO.C,Q2*%
X147420000Y-127800000D03*
D36*
X149700000Y-121500000D03*
D35*
X151980000Y-127800000D03*
%TD*%
D37*
%TO.C,D1*%
X141120000Y-130500000D03*
D38*
X137138000Y-129580000D03*
X137138000Y-131420000D03*
%TD*%
D26*
%TO.C,D301*%
X125307029Y-89070971D03*
X125307029Y-90945971D03*
%TD*%
D39*
%TO.C,R8*%
X136540000Y-148200000D03*
X137560000Y-148200000D03*
%TD*%
D31*
%TO.C,SW302*%
X147432029Y-78758471D03*
X155382029Y-78758471D03*
X155382029Y-83258471D03*
X147432029Y-83258471D03*
%TD*%
D24*
%TO.C,R506*%
X195190000Y-75270000D03*
X195190000Y-76290000D03*
%TD*%
D40*
%TO.C,D201*%
X198750000Y-90150000D03*
X198750000Y-86150000D03*
%TD*%
D41*
%TO.C,U1*%
X140900000Y-142600000D03*
D42*
X138625000Y-145462500D03*
X139275000Y-145462500D03*
X139925000Y-145462500D03*
X140575000Y-145462500D03*
X141225000Y-145462500D03*
X141875000Y-145462500D03*
X142525000Y-145462500D03*
X143175000Y-145462500D03*
X143175000Y-139737500D03*
X142525000Y-139737500D03*
X141875000Y-139737500D03*
X141225000Y-139737500D03*
X140575000Y-139737500D03*
X139925000Y-139737500D03*
X139275000Y-139737500D03*
X138625000Y-139737500D03*
%TD*%
D43*
%TO.C,C303*%
X119957029Y-67883471D03*
X119957029Y-66333471D03*
%TD*%
D44*
%TO.C,J207*%
X178210000Y-70850000D03*
X179480000Y-67850000D03*
X180750000Y-70850000D03*
X182020000Y-67850000D03*
X183290000Y-70850000D03*
%TD*%
D45*
%TO.C,J101*%
X179596447Y-134246447D03*
X180596447Y-134246447D03*
X181596447Y-134246447D03*
X182596447Y-134246447D03*
X184096447Y-134246447D03*
X185096447Y-134246447D03*
X186096447Y-134246447D03*
X187096447Y-134246447D03*
X186596447Y-134246447D03*
X185596447Y-134246447D03*
X184596447Y-134246447D03*
X183596447Y-134246447D03*
X183096447Y-134246447D03*
X182096447Y-134246447D03*
X181096447Y-134246447D03*
X180096447Y-134246447D03*
D46*
X178826447Y-137646447D03*
X187866447Y-137646447D03*
%TD*%
D15*
%TO.C,Q406*%
X148307029Y-72108471D03*
D16*
X147907029Y-73108471D03*
X148707029Y-73108471D03*
%TD*%
D18*
%TO.C,R2*%
X129710000Y-141700000D03*
X128690000Y-141700000D03*
%TD*%
D47*
%TO.C,R9*%
X119900000Y-131737500D03*
X119900000Y-134662500D03*
%TD*%
D48*
%TO.C,J104*%
X177996447Y-132096447D03*
D49*
X177996447Y-130826447D03*
%TD*%
D50*
%TO.C,U101*%
X182155393Y-116942893D03*
X182155393Y-117892893D03*
X182155393Y-118842893D03*
X184430393Y-118842893D03*
X184430393Y-117892893D03*
X184430393Y-116942893D03*
%TD*%
D26*
%TO.C,D306*%
X140307029Y-89070971D03*
X140307029Y-90945971D03*
%TD*%
D51*
%TO.C,C501*%
X197980000Y-76350000D03*
X197020000Y-76350000D03*
%TD*%
D18*
%TO.C,R314*%
X181460000Y-87650000D03*
X180440000Y-87650000D03*
%TD*%
D52*
%TO.C,Q407*%
X146807029Y-67758471D03*
X145807029Y-67258471D03*
X145807029Y-68258471D03*
%TD*%
D23*
%TO.C,REF\u002A\u002A*%
X169292893Y-118192893D03*
%TD*%
D18*
%TO.C,R416*%
X120817029Y-73258471D03*
X119797029Y-73258471D03*
%TD*%
D16*
%TO.C,Q401*%
X152607029Y-70508471D03*
X152107029Y-71508471D03*
X153107029Y-71508471D03*
%TD*%
D39*
%TO.C,R417*%
X116047029Y-71258471D03*
X117067029Y-71258471D03*
%TD*%
D24*
%TO.C,R308*%
X184050000Y-83540000D03*
X184050000Y-84560000D03*
%TD*%
D53*
%TO.C,C330*%
X176570000Y-87650000D03*
X177530000Y-87650000D03*
%TD*%
D54*
%TO.C,R412*%
X148469529Y-65258471D03*
X146644529Y-65258471D03*
%TD*%
D55*
%TO.C,C326*%
X183975000Y-85750000D03*
X185525000Y-85750000D03*
%TD*%
D56*
%TO.C,J205*%
X120572029Y-89508471D03*
X120572029Y-93408471D03*
X119302029Y-89508471D03*
X119302029Y-93408471D03*
%TD*%
D14*
%TO.C,D404*%
X122057029Y-70308471D03*
X122057029Y-71708471D03*
%TD*%
D26*
%TO.C,D304*%
X134307029Y-89070971D03*
X134307029Y-90945971D03*
%TD*%
D57*
%TO.C,C9*%
X144025000Y-135300000D03*
X146975000Y-135300000D03*
%TD*%
D14*
%TO.C,D401*%
X118307029Y-73558471D03*
X118307029Y-74958471D03*
%TD*%
D58*
%TO.C,UR1*%
X132850000Y-141650000D03*
X132850000Y-141000000D03*
X132850000Y-140350000D03*
X130950000Y-140350000D03*
X130950000Y-141000000D03*
X130950000Y-141650000D03*
%TD*%
D24*
%TO.C,R314*%
X141807029Y-89998471D03*
X141807029Y-91018471D03*
%TD*%
D18*
%TO.C,R4*%
X140010000Y-135800000D03*
X138990000Y-135800000D03*
%TD*%
D51*
%TO.C,C102*%
X183672893Y-120242893D03*
X182712893Y-120242893D03*
%TD*%
D59*
%TO.C,C404*%
X165100000Y-87550000D03*
X167000000Y-87550000D03*
%TD*%
D24*
%TO.C,R308*%
X123807029Y-89998471D03*
X123807029Y-91018471D03*
%TD*%
D13*
%TO.C,C302*%
X123557029Y-68238471D03*
X123557029Y-67278471D03*
%TD*%
D44*
%TO.C,J206*%
X188385000Y-89350000D03*
X187115000Y-92350000D03*
%TD*%
D59*
%TO.C,C324*%
X177200000Y-100650000D03*
X179100000Y-100650000D03*
%TD*%
D60*
%TO.C,R6*%
X148162500Y-131600000D03*
X145237500Y-131600000D03*
%TD*%
D59*
%TO.C,C405*%
X165100000Y-85550000D03*
X167000000Y-85550000D03*
%TD*%
D25*
%TO.C,R409*%
X148307029Y-70820971D03*
X148307029Y-68995971D03*
%TD*%
D39*
%TO.C,R315*%
X176540000Y-86650000D03*
X177560000Y-86650000D03*
%TD*%
D52*
%TO.C,Q405*%
X146807029Y-72408471D03*
X145807029Y-71908471D03*
X145807029Y-72908471D03*
%TD*%
D61*
%TO.C,C1*%
X116600000Y-117200000D03*
X121000000Y-117200000D03*
%TD*%
D62*
%TO.C,C3*%
X137300000Y-139425000D03*
X137300000Y-140975000D03*
%TD*%
D63*
%TO.C,Q1*%
X123750000Y-131820000D03*
D64*
X130050000Y-134100000D03*
D63*
X123750000Y-136380000D03*
%TD*%
D26*
%TO.C,D303*%
X131307029Y-89070971D03*
X131307029Y-90945971D03*
%TD*%
D17*
%TO.C,R503*%
X199120000Y-71110000D03*
X199120000Y-70090000D03*
%TD*%
D23*
%TO.C,REF\u002A\u002A*%
X197292893Y-117892893D03*
%TD*%
D24*
%TO.C,R310*%
X129807029Y-89998471D03*
X129807029Y-91018471D03*
%TD*%
D39*
%TO.C,R311*%
X176540000Y-85350000D03*
X177560000Y-85350000D03*
%TD*%
D65*
%TO.C,C402*%
X170600000Y-87550000D03*
X168700000Y-87550000D03*
%TD*%
D24*
%TO.C,R311*%
X132807029Y-89998471D03*
X132807029Y-91018471D03*
%TD*%
D14*
%TO.C,D403*%
X118307029Y-70308471D03*
X118307029Y-71708471D03*
%TD*%
D66*
%TO.C,U501*%
X197955000Y-74130000D03*
X197955000Y-73730000D03*
D67*
X197830000Y-73105000D03*
X197430000Y-73105000D03*
X197030000Y-73105000D03*
X196630000Y-73105000D03*
D66*
X196505000Y-73730000D03*
X196505000Y-74130000D03*
D67*
X196630000Y-74755000D03*
X197030000Y-74755000D03*
X197430000Y-74755000D03*
X197830000Y-74755000D03*
%TD*%
D39*
%TO.C,R419*%
X119797029Y-71258471D03*
X120817029Y-71258471D03*
%TD*%
D18*
%TO.C,R420*%
X120817029Y-70258471D03*
X119797029Y-70258471D03*
%TD*%
D22*
%TO.C,C7*%
X141950000Y-126075000D03*
X141950000Y-123125000D03*
%TD*%
D52*
%TO.C,Q403*%
X152807029Y-76108471D03*
X153807029Y-76608471D03*
X153807029Y-75608471D03*
%TD*%
D19*
%TO.C,J205*%
X163800000Y-83390000D03*
X159900000Y-83390000D03*
X163800000Y-82120000D03*
X159900000Y-82120000D03*
X163800000Y-80850000D03*
X159900000Y-80850000D03*
X163800000Y-79580000D03*
X159900000Y-79580000D03*
X163800000Y-78310000D03*
X159900000Y-78310000D03*
%TD*%
D68*
%TO.C,R7*%
X144725000Y-138400000D03*
X146550000Y-138400000D03*
%TD*%
D23*
%TO.C,REF\u002A\u002A*%
X133800000Y-107900000D03*
%TD*%
D24*
%TO.C,R502*%
X195720000Y-70100000D03*
X195720000Y-71120000D03*
%TD*%
D26*
%TO.C,D307*%
X143307029Y-89070971D03*
X143307029Y-90945971D03*
%TD*%
D69*
%TO.C,J210*%
X195600000Y-67400000D03*
D70*
X196600000Y-67400000D03*
%TD*%
D32*
%TO.C,J2*%
X140900000Y-114600000D03*
X145900000Y-114600000D03*
%TD*%
D26*
%TO.C,D302*%
X128307029Y-89070971D03*
X128307029Y-90945971D03*
%TD*%
D17*
%TO.C,R401*%
X163150000Y-86160000D03*
X163150000Y-85140000D03*
%TD*%
D24*
%TO.C,R301*%
X121427029Y-67148471D03*
X121427029Y-68168471D03*
%TD*%
D71*
%TO.C,D401*%
X159912500Y-85650000D03*
X161787500Y-85650000D03*
%TD*%
D53*
%TO.C,C403*%
X166270000Y-92450000D03*
X167230000Y-92450000D03*
%TD*%
D51*
%TO.C,C328*%
X181430000Y-88650000D03*
X180470000Y-88650000D03*
%TD*%
D43*
%TO.C,C331*%
X180350000Y-80150000D03*
X180350000Y-78600000D03*
%TD*%
D22*
%TO.C,C8*%
X139200000Y-126075000D03*
X139200000Y-123125000D03*
%TD*%
D72*
%TO.C,R403*%
X150557029Y-72395971D03*
X150557029Y-74220971D03*
%TD*%
D39*
%TO.C,R1*%
X136540000Y-147000000D03*
X137560000Y-147000000D03*
%TD*%
D18*
%TO.C,R10*%
X145710000Y-144100000D03*
X144690000Y-144100000D03*
%TD*%
D11*
%TO.C,C329*%
X178450000Y-86670000D03*
X178450000Y-87630000D03*
%TD*%
D39*
%TO.C,R415*%
X119797029Y-74258471D03*
X120817029Y-74258471D03*
%TD*%
D33*
%TO.C,J3*%
X122400000Y-140300000D03*
X123400000Y-140300000D03*
X124400000Y-140300000D03*
X125400000Y-140300000D03*
D34*
X126700000Y-144175000D03*
X121100000Y-144175000D03*
%TD*%
D73*
%TO.C,J201*%
X193750000Y-94600000D03*
X193750000Y-87100000D03*
D74*
X194615000Y-88100000D03*
X194615000Y-89600000D03*
X194615000Y-90100000D03*
X194615000Y-90600000D03*
X194615000Y-91100000D03*
X194615000Y-91600000D03*
X194615000Y-92100000D03*
X194615000Y-93600000D03*
X192885000Y-93600000D03*
X192885000Y-92100000D03*
X192885000Y-91600000D03*
X192885000Y-91100000D03*
X192885000Y-90600000D03*
X192885000Y-90100000D03*
X192885000Y-89600000D03*
X192885000Y-88100000D03*
D46*
X195900000Y-88450000D03*
X191600000Y-88450000D03*
X195900000Y-93250000D03*
X191600000Y-93250000D03*
%TD*%
D75*
%TO.C,C2*%
X120800000Y-123625000D03*
X120800000Y-126575000D03*
%TD*%
D24*
%TO.C,R504*%
X198120000Y-70080000D03*
X198120000Y-71100000D03*
%TD*%
D53*
%TO.C,C4*%
X138020000Y-137900000D03*
X138980000Y-137900000D03*
%TD*%
D39*
%TO.C,R413*%
X116047029Y-74508471D03*
X117067029Y-74508471D03*
%TD*%
D76*
%TO.C,Q404*%
X149907029Y-76108471D03*
D52*
X150907029Y-76508471D03*
X150907029Y-75708471D03*
%TD*%
D24*
%TO.C,R312*%
X135807029Y-89998471D03*
X135807029Y-91018471D03*
%TD*%
D15*
%TO.C,Q402*%
X150607029Y-71108471D03*
D16*
X151007029Y-70108471D03*
X150207029Y-70108471D03*
%TD*%
D77*
%TO.C,U401*%
X170087500Y-91200000D03*
X170087500Y-90250000D03*
X170087500Y-89300000D03*
X167812500Y-89300000D03*
X167812500Y-90250000D03*
X167812500Y-91200000D03*
%TD*%
D78*
%TO.C,C5*%
X140475000Y-148100000D03*
X138925000Y-148100000D03*
%TD*%
D24*
%TO.C,R313*%
X138807029Y-89998471D03*
X138807029Y-91018471D03*
%TD*%
D48*
%TO.C,J103*%
X188796447Y-132296447D03*
D49*
X188796447Y-131026447D03*
%TD*%
D79*
%TO.C,J208*%
X175750000Y-63375000D03*
D80*
X178250000Y-63375000D03*
X180750000Y-63375000D03*
X183250000Y-63375000D03*
X185750000Y-63375000D03*
%TD*%
D32*
%TO.C,J202*%
X168567767Y-66582233D03*
X165032233Y-70117767D03*
%TD*%
D81*
%TO.C,J102*%
X182871447Y-130846447D03*
D82*
X185411447Y-130846447D03*
%TD*%
D83*
%TO.C,J209*%
X192450000Y-96450000D03*
D84*
X190450000Y-96450000D03*
%TD*%
D85*
%TO.C,J204*%
X181350000Y-96350000D03*
D86*
X174150000Y-96350000D03*
%TD*%
M02*
