%TF.GenerationSoftware,KiCad,Pcbnew,(6.0.9)*%
%TF.CreationDate,2023-02-02T11:23:03+01:00*%
%TF.ProjectId,Stencil,5374656e-6369-46c2-9e6b-696361645f70,rev?*%
%TF.SameCoordinates,Original*%
%TF.FileFunction,Paste,Bot*%
%TF.FilePolarity,Positive*%
%FSLAX46Y46*%
G04 Gerber Fmt 4.6, Leading zero omitted, Abs format (unit mm)*
G04 Created by KiCad (PCBNEW (6.0.9)) date 2023-02-02 11:23:03*
%MOMM*%
%LPD*%
G01*
G04 APERTURE LIST*
G04 Aperture macros list*
%AMRoundRect*
0 Rectangle with rounded corners*
0 $1 Rounding radius*
0 $2 $3 $4 $5 $6 $7 $8 $9 X,Y pos of 4 corners*
0 Add a 4 corners polygon primitive as box body*
4,1,4,$2,$3,$4,$5,$6,$7,$8,$9,$2,$3,0*
0 Add four circle primitives for the rounded corners*
1,1,$1+$1,$2,$3*
1,1,$1+$1,$4,$5*
1,1,$1+$1,$6,$7*
1,1,$1+$1,$8,$9*
0 Add four rect primitives between the rounded corners*
20,1,$1+$1,$2,$3,$4,$5,0*
20,1,$1+$1,$4,$5,$6,$7,0*
20,1,$1+$1,$6,$7,$8,$9,0*
20,1,$1+$1,$8,$9,$2,$3,0*%
G04 Aperture macros list end*
%ADD10RoundRect,0.135000X-0.135000X-0.185000X0.135000X-0.185000X0.135000X0.185000X-0.135000X0.185000X0*%
%ADD11RoundRect,0.250000X0.475000X-0.250000X0.475000X0.250000X-0.475000X0.250000X-0.475000X-0.250000X0*%
%ADD12RoundRect,0.225000X0.250000X-0.225000X0.250000X0.225000X-0.250000X0.225000X-0.250000X-0.225000X0*%
%ADD13RoundRect,0.250000X0.250000X0.475000X-0.250000X0.475000X-0.250000X-0.475000X0.250000X-0.475000X0*%
%ADD14RoundRect,0.150000X0.150000X0.625000X-0.150000X0.625000X-0.150000X-0.625000X0.150000X-0.625000X0*%
%ADD15RoundRect,0.250000X0.350000X0.650000X-0.350000X0.650000X-0.350000X-0.650000X0.350000X-0.650000X0*%
%ADD16RoundRect,0.135000X-0.185000X0.135000X-0.185000X-0.135000X0.185000X-0.135000X0.185000X0.135000X0*%
%ADD17RoundRect,0.250000X-0.250000X-0.475000X0.250000X-0.475000X0.250000X0.475000X-0.250000X0.475000X0*%
%ADD18RoundRect,0.140000X0.170000X-0.140000X0.170000X0.140000X-0.170000X0.140000X-0.170000X-0.140000X0*%
%ADD19R,2.100000X0.750000*%
%ADD20R,0.300000X0.400000*%
%ADD21R,0.430000X0.380000*%
%ADD22R,1.980000X2.450000*%
%ADD23R,0.500000X0.350000*%
%ADD24RoundRect,0.135000X0.185000X-0.135000X0.185000X0.135000X-0.185000X0.135000X-0.185000X-0.135000X0*%
%ADD25RoundRect,0.225000X-0.250000X0.225000X-0.250000X-0.225000X0.250000X-0.225000X0.250000X0.225000X0*%
%ADD26RoundRect,0.140000X-0.170000X0.140000X-0.170000X-0.140000X0.170000X-0.140000X0.170000X0.140000X0*%
%ADD27RoundRect,0.218750X0.218750X0.256250X-0.218750X0.256250X-0.218750X-0.256250X0.218750X-0.256250X0*%
%ADD28RoundRect,0.135000X0.135000X0.185000X-0.135000X0.185000X-0.135000X-0.185000X0.135000X-0.185000X0*%
%ADD29RoundRect,0.200000X0.200000X0.275000X-0.200000X0.275000X-0.200000X-0.275000X0.200000X-0.275000X0*%
%ADD30RoundRect,0.150000X-0.625000X0.150000X-0.625000X-0.150000X0.625000X-0.150000X0.625000X0.150000X0*%
%ADD31RoundRect,0.250000X-0.650000X0.350000X-0.650000X-0.350000X0.650000X-0.350000X0.650000X0.350000X0*%
%ADD32RoundRect,0.150000X-0.512500X-0.150000X0.512500X-0.150000X0.512500X0.150000X-0.512500X0.150000X0*%
%ADD33RoundRect,0.250000X-0.312500X-0.625000X0.312500X-0.625000X0.312500X0.625000X-0.312500X0.625000X0*%
%ADD34RoundRect,0.140000X0.140000X0.170000X-0.140000X0.170000X-0.140000X-0.170000X0.140000X-0.170000X0*%
%ADD35RoundRect,0.250000X1.075000X-0.375000X1.075000X0.375000X-1.075000X0.375000X-1.075000X-0.375000X0*%
%ADD36RoundRect,0.150000X0.625000X-0.150000X0.625000X0.150000X-0.625000X0.150000X-0.625000X-0.150000X0*%
%ADD37RoundRect,0.250000X0.650000X-0.350000X0.650000X0.350000X-0.650000X0.350000X-0.650000X-0.350000X0*%
%ADD38RoundRect,0.225000X0.225000X0.250000X-0.225000X0.250000X-0.225000X-0.250000X0.225000X-0.250000X0*%
%ADD39R,0.650000X1.800000*%
%ADD40RoundRect,0.140000X-0.140000X-0.170000X0.140000X-0.170000X0.140000X0.170000X-0.140000X0.170000X0*%
%ADD41RoundRect,0.250000X0.625000X-0.312500X0.625000X0.312500X-0.625000X0.312500X-0.625000X-0.312500X0*%
%ADD42R,3.250000X5.000000*%
%ADD43RoundRect,0.250000X0.315000X0.315000X-0.315000X0.315000X-0.315000X-0.315000X0.315000X-0.315000X0*%
%ADD44RoundRect,0.050000X0.337500X0.050000X-0.337500X0.050000X-0.337500X-0.050000X0.337500X-0.050000X0*%
%ADD45RoundRect,0.050000X0.050000X0.337500X-0.050000X0.337500X-0.050000X-0.337500X0.050000X-0.337500X0*%
%ADD46R,0.380000X0.430000*%
%ADD47R,0.400000X0.300000*%
%ADD48R,2.450000X1.980000*%
%ADD49R,0.350000X0.500000*%
G04 APERTURE END LIST*
D10*
%TO.C,R304*%
X137797029Y-90408471D03*
X138817029Y-90408471D03*
%TD*%
D11*
%TO.C,C301*%
X128057029Y-69708471D03*
X128057029Y-67808471D03*
%TD*%
D12*
%TO.C,C404*%
X122057029Y-71783471D03*
X122057029Y-70233471D03*
%TD*%
D13*
%TO.C,C320*%
X173200000Y-83850000D03*
X171300000Y-83850000D03*
%TD*%
D14*
%TO.C,J207*%
X140807029Y-95208471D03*
X139807029Y-95208471D03*
X138807029Y-95208471D03*
X137807029Y-95208471D03*
D15*
X136507029Y-99083471D03*
X142107029Y-99083471D03*
%TD*%
D16*
%TO.C,R306*%
X176550000Y-87640000D03*
X176550000Y-88660000D03*
%TD*%
D17*
%TO.C,C304*%
X192800000Y-84850000D03*
X194700000Y-84850000D03*
%TD*%
D13*
%TO.C,C319*%
X173200000Y-81850000D03*
X171300000Y-81850000D03*
%TD*%
D18*
%TO.C,C309*%
X187750000Y-77330000D03*
X187750000Y-76370000D03*
%TD*%
D10*
%TO.C,R303*%
X137797029Y-91608471D03*
X138817029Y-91608471D03*
%TD*%
D19*
%TO.C,J203*%
X117207029Y-83548471D03*
X113607029Y-83548471D03*
X117207029Y-82278471D03*
X113607029Y-82278471D03*
X117207029Y-81008471D03*
X113607029Y-81008471D03*
X117207029Y-79738471D03*
X113607029Y-79738471D03*
X117207029Y-78468471D03*
X113607029Y-78468471D03*
%TD*%
D20*
%TO.C,Q304*%
X169750000Y-77825000D03*
X169750000Y-75875000D03*
X169750000Y-76525000D03*
D21*
X171250000Y-78250000D03*
D22*
X170890000Y-76850000D03*
D21*
X171250000Y-75450000D03*
D20*
X169750000Y-77175000D03*
D23*
X172650000Y-77825000D03*
X172650000Y-76525000D03*
X172650000Y-75875000D03*
X172650000Y-77175000D03*
%TD*%
D24*
%TO.C,R318*%
X182550000Y-88560000D03*
X182550000Y-87540000D03*
%TD*%
D25*
%TO.C,C101*%
X179492893Y-119417893D03*
X179492893Y-120967893D03*
%TD*%
D10*
%TO.C,R318*%
X140797029Y-82008471D03*
X141817029Y-82008471D03*
%TD*%
D17*
%TO.C,C317*%
X166600000Y-79850000D03*
X168500000Y-79850000D03*
%TD*%
D13*
%TO.C,C407*%
X164000000Y-85150000D03*
X162100000Y-85150000D03*
%TD*%
%TO.C,C318*%
X173200000Y-79850000D03*
X171300000Y-79850000D03*
%TD*%
D16*
%TO.C,R317*%
X159350000Y-81040000D03*
X159350000Y-82060000D03*
%TD*%
D26*
%TO.C,C332*%
X181550000Y-87570000D03*
X181550000Y-88530000D03*
%TD*%
D27*
%TO.C,F201*%
X192537500Y-86600000D03*
X190962500Y-86600000D03*
%TD*%
D13*
%TO.C,C307*%
X188700000Y-81350000D03*
X186800000Y-81350000D03*
%TD*%
D16*
%TO.C,R317*%
X127307029Y-80748471D03*
X127307029Y-81768471D03*
%TD*%
%TO.C,R305*%
X173650000Y-87740000D03*
X173650000Y-88760000D03*
%TD*%
D17*
%TO.C,C314*%
X166600000Y-77850000D03*
X168500000Y-77850000D03*
%TD*%
D10*
%TO.C,R202*%
X197440000Y-90950000D03*
X198460000Y-90950000D03*
%TD*%
D28*
%TO.C,R312*%
X186010000Y-89100000D03*
X184990000Y-89100000D03*
%TD*%
D29*
%TO.C,R307*%
X188775000Y-87150000D03*
X187125000Y-87150000D03*
%TD*%
D24*
%TO.C,R404*%
X153807029Y-76628471D03*
X153807029Y-75608471D03*
%TD*%
D17*
%TO.C,C406*%
X161900000Y-90650000D03*
X163800000Y-90650000D03*
%TD*%
D22*
%TO.C,Q303*%
X171610000Y-73100000D03*
D21*
X171250000Y-74500000D03*
D20*
X172750000Y-72125000D03*
D21*
X171250000Y-71700000D03*
D20*
X172750000Y-74075000D03*
X172750000Y-73425000D03*
X172750000Y-72775000D03*
D23*
X169850000Y-72125000D03*
X169850000Y-72775000D03*
X169850000Y-74075000D03*
X169850000Y-73425000D03*
%TD*%
D13*
%TO.C,C306*%
X188700000Y-83350000D03*
X186800000Y-83350000D03*
%TD*%
D16*
%TO.C,R316*%
X197050000Y-79840000D03*
X197050000Y-80860000D03*
%TD*%
D30*
%TO.C,J101*%
X189292893Y-116392893D03*
X189292893Y-117392893D03*
X189292893Y-118392893D03*
X189292893Y-119392893D03*
D31*
X193167893Y-115092893D03*
X193167893Y-120692893D03*
%TD*%
D21*
%TO.C,Q302*%
X190360000Y-67700000D03*
X190360000Y-70500000D03*
D20*
X188860000Y-68125000D03*
X188860000Y-70075000D03*
X188860000Y-68775000D03*
X188860000Y-69425000D03*
D22*
X190000000Y-69100000D03*
D23*
X191760000Y-70075000D03*
X191760000Y-69425000D03*
X191760000Y-68125000D03*
X191760000Y-68775000D03*
%TD*%
D12*
%TO.C,C401*%
X118307029Y-75033471D03*
X118307029Y-73483471D03*
%TD*%
D10*
%TO.C,R102*%
X179086447Y-130796447D03*
X180106447Y-130796447D03*
%TD*%
D18*
%TO.C,C333*%
X163150000Y-82030000D03*
X163150000Y-81070000D03*
%TD*%
D16*
%TO.C,R405*%
X150907029Y-75598471D03*
X150907029Y-76618471D03*
%TD*%
D10*
%TO.C,R302*%
X187990000Y-78850000D03*
X189010000Y-78850000D03*
%TD*%
D17*
%TO.C,C316*%
X166600000Y-81850000D03*
X168500000Y-81850000D03*
%TD*%
D10*
%TO.C,R319*%
X140797029Y-80758471D03*
X141817029Y-80758471D03*
%TD*%
D32*
%TO.C,U402*%
X161962500Y-88862500D03*
X161962500Y-87912500D03*
X161962500Y-86962500D03*
X164237500Y-86962500D03*
X164237500Y-88862500D03*
%TD*%
D33*
%TO.C,R304*%
X173587500Y-90350000D03*
X176512500Y-90350000D03*
%TD*%
D10*
%TO.C,R401*%
X152097029Y-71508471D03*
X153117029Y-71508471D03*
%TD*%
D34*
%TO.C,C312*%
X182730000Y-80050000D03*
X181770000Y-80050000D03*
%TD*%
D16*
%TO.C,R316*%
X130807029Y-80748471D03*
X130807029Y-81768471D03*
%TD*%
D35*
%TO.C,L402*%
X166750000Y-89350000D03*
X166750000Y-86550000D03*
%TD*%
D12*
%TO.C,C325*%
X184350000Y-81425000D03*
X184350000Y-79875000D03*
%TD*%
D10*
%TO.C,R402*%
X150097029Y-70008471D03*
X151117029Y-70008471D03*
%TD*%
%TO.C,R101*%
X179086447Y-132096447D03*
X180106447Y-132096447D03*
%TD*%
D24*
%TO.C,R305*%
X139557029Y-81768471D03*
X139557029Y-80748471D03*
%TD*%
D12*
%TO.C,C403*%
X118307029Y-71783471D03*
X118307029Y-70233471D03*
%TD*%
D16*
%TO.C,R315*%
X138557029Y-80748471D03*
X138557029Y-81768471D03*
%TD*%
D10*
%TO.C,R201*%
X197440000Y-92150000D03*
X198460000Y-92150000D03*
%TD*%
D12*
%TO.C,C402*%
X122057029Y-75033471D03*
X122057029Y-73483471D03*
%TD*%
D24*
%TO.C,R306*%
X131807029Y-81768471D03*
X131807029Y-80748471D03*
%TD*%
D13*
%TO.C,C305*%
X188700000Y-85350000D03*
X186800000Y-85350000D03*
%TD*%
D36*
%TO.C,J102*%
X177292893Y-119392893D03*
X177292893Y-118392893D03*
X177292893Y-117392893D03*
X177292893Y-116392893D03*
D37*
X173417893Y-120692893D03*
X173417893Y-115092893D03*
%TD*%
D10*
%TO.C,R505*%
X196470000Y-76560000D03*
X197490000Y-76560000D03*
%TD*%
D12*
%TO.C,C103*%
X187192893Y-116367893D03*
X187192893Y-114817893D03*
%TD*%
D38*
%TO.C,C322*%
X171925000Y-91350000D03*
X170375000Y-91350000D03*
%TD*%
D28*
%TO.C,R411*%
X148827029Y-67758471D03*
X147807029Y-67758471D03*
%TD*%
D39*
%TO.C,J206*%
X131767029Y-68158471D03*
X133037029Y-70858471D03*
X134307029Y-68158471D03*
X135577029Y-70858471D03*
X136847029Y-68158471D03*
%TD*%
%TO.C,J202*%
X141942029Y-92358471D03*
X140672029Y-89658471D03*
%TD*%
D17*
%TO.C,C315*%
X166600000Y-83850000D03*
X168500000Y-83850000D03*
%TD*%
D40*
%TO.C,C313*%
X177770000Y-80100000D03*
X178730000Y-80100000D03*
%TD*%
D41*
%TO.C,R301*%
X190750000Y-78812500D03*
X190750000Y-75887500D03*
%TD*%
D16*
%TO.C,R407*%
X145957029Y-71898471D03*
X145957029Y-72918471D03*
%TD*%
D28*
%TO.C,R310*%
X185010000Y-88100000D03*
X183990000Y-88100000D03*
%TD*%
D17*
%TO.C,C303*%
X192800000Y-82850000D03*
X194700000Y-82850000D03*
%TD*%
D19*
%TO.C,J201*%
X155007029Y-83548471D03*
X151407029Y-83548471D03*
X155007029Y-82278471D03*
X151407029Y-82278471D03*
X155007029Y-81008471D03*
X151407029Y-81008471D03*
X155007029Y-79738471D03*
X151407029Y-79738471D03*
X155007029Y-78468471D03*
X151407029Y-78468471D03*
%TD*%
D42*
%TO.C,L301*%
X186375000Y-72850000D03*
X175125000Y-72850000D03*
%TD*%
D14*
%TO.C,J204*%
X130807029Y-95208471D03*
X129807029Y-95208471D03*
X128807029Y-95208471D03*
X127807029Y-95208471D03*
D15*
X132107029Y-99083471D03*
X126507029Y-99083471D03*
%TD*%
D28*
%TO.C,R408*%
X148817029Y-73108471D03*
X147797029Y-73108471D03*
%TD*%
D24*
%TO.C,R307*%
X128307029Y-81768471D03*
X128307029Y-80748471D03*
%TD*%
D40*
%TO.C,C311*%
X192570000Y-75050000D03*
X193530000Y-75050000D03*
%TD*%
%TO.C,C310*%
X192570000Y-74050000D03*
X193530000Y-74050000D03*
%TD*%
D43*
%TO.C,U301*%
X181450000Y-84300000D03*
X180050000Y-82900000D03*
X181450000Y-82900000D03*
X180050000Y-84300000D03*
D44*
X182737500Y-82200000D03*
X182737500Y-82600000D03*
X182737500Y-83000000D03*
X182737500Y-83400000D03*
X182737500Y-83800000D03*
X182737500Y-84200000D03*
X182737500Y-84600000D03*
X182737500Y-85000000D03*
D45*
X182150000Y-85587500D03*
X181750000Y-85587500D03*
X181350000Y-85587500D03*
X180950000Y-85587500D03*
X180550000Y-85587500D03*
X180150000Y-85587500D03*
X179750000Y-85587500D03*
X179350000Y-85587500D03*
D44*
X178762500Y-85000000D03*
X178762500Y-84600000D03*
X178762500Y-84200000D03*
X178762500Y-83800000D03*
X178762500Y-83400000D03*
X178762500Y-83000000D03*
X178762500Y-82600000D03*
X178762500Y-82200000D03*
D45*
X179350000Y-81612500D03*
X179750000Y-81612500D03*
X180150000Y-81612500D03*
X180550000Y-81612500D03*
X180950000Y-81612500D03*
X181350000Y-81612500D03*
X181750000Y-81612500D03*
X182150000Y-81612500D03*
%TD*%
D40*
%TO.C,C323*%
X174590000Y-88650000D03*
X175550000Y-88650000D03*
%TD*%
D13*
%TO.C,C321*%
X173200000Y-85850000D03*
X171300000Y-85850000D03*
%TD*%
D17*
%TO.C,C302*%
X192800000Y-80850000D03*
X194700000Y-80850000D03*
%TD*%
D16*
%TO.C,R410*%
X145807029Y-67248471D03*
X145807029Y-68268471D03*
%TD*%
D24*
%TO.C,R303*%
X189000000Y-77360000D03*
X189000000Y-76340000D03*
%TD*%
D17*
%TO.C,C301*%
X192800000Y-78850000D03*
X194700000Y-78850000D03*
%TD*%
D34*
%TO.C,C308*%
X187980000Y-79850000D03*
X187020000Y-79850000D03*
%TD*%
D16*
%TO.C,R313*%
X160450000Y-81040000D03*
X160450000Y-82060000D03*
%TD*%
D46*
%TO.C,Q305*%
X168850000Y-88740000D03*
D47*
X171225000Y-90240000D03*
X169275000Y-90240000D03*
D46*
X171650000Y-88740000D03*
D47*
X169925000Y-90240000D03*
X170575000Y-90240000D03*
D48*
X170250000Y-89100000D03*
D49*
X171225000Y-87340000D03*
X169925000Y-87340000D03*
X169275000Y-87340000D03*
X170575000Y-87340000D03*
%TD*%
D47*
%TO.C,Q301*%
X189525000Y-74490000D03*
D46*
X191900000Y-72990000D03*
D47*
X191475000Y-74490000D03*
X190825000Y-74490000D03*
X190175000Y-74490000D03*
D46*
X189100000Y-72990000D03*
D48*
X190500000Y-73350000D03*
D49*
X191475000Y-71590000D03*
X189525000Y-71590000D03*
X190825000Y-71590000D03*
X190175000Y-71590000D03*
%TD*%
M02*
