%TF.GenerationSoftware,KiCad,Pcbnew,(6.0.9)*%
%TF.CreationDate,2023-02-03T11:31:16+01:00*%
%TF.ProjectId,Stencil,5374656e-6369-46c2-9e6b-696361645f70,rev?*%
%TF.SameCoordinates,Original*%
%TF.FileFunction,Soldermask,Top*%
%TF.FilePolarity,Negative*%
%FSLAX46Y46*%
G04 Gerber Fmt 4.6, Leading zero omitted, Abs format (unit mm)*
G04 Created by KiCad (PCBNEW (6.0.9)) date 2023-02-03 11:31:16*
%MOMM*%
%LPD*%
G01*
G04 APERTURE LIST*
G04 Aperture macros list*
%AMRoundRect*
0 Rectangle with rounded corners*
0 $1 Rounding radius*
0 $2 $3 $4 $5 $6 $7 $8 $9 X,Y pos of 4 corners*
0 Add a 4 corners polygon primitive as box body*
4,1,4,$2,$3,$4,$5,$6,$7,$8,$9,$2,$3,0*
0 Add four circle primitives for the rounded corners*
1,1,$1+$1,$2,$3*
1,1,$1+$1,$4,$5*
1,1,$1+$1,$6,$7*
1,1,$1+$1,$8,$9*
0 Add four rect primitives between the rounded corners*
20,1,$1+$1,$2,$3,$4,$5,0*
20,1,$1+$1,$4,$5,$6,$7,0*
20,1,$1+$1,$6,$7,$8,$9,0*
20,1,$1+$1,$8,$9,$2,$3,0*%
%AMRotRect*
0 Rectangle, with rotation*
0 The origin of the aperture is its center*
0 $1 length*
0 $2 width*
0 $3 Rotation angle, in degrees counterclockwise*
0 Add horizontal line*
21,1,$1,$2,0,0,$3*%
G04 Aperture macros list end*
%ADD10C,0.010000*%
%ADD11R,1.000000X1.000000*%
%ADD12O,1.000000X1.000000*%
%ADD13R,1.700000X1.700000*%
%ADD14O,1.700000X1.700000*%
%ADD15R,0.300000X1.000000*%
%ADD16O,1.100000X2.200000*%
%ADD17R,4.860000X3.360000*%
%ADD18R,1.400000X1.390000*%
%ADD19RoundRect,0.135000X0.135000X0.185000X-0.135000X0.185000X-0.135000X-0.185000X0.135000X-0.185000X0*%
%ADD20RoundRect,0.250000X-0.650000X0.325000X-0.650000X-0.325000X0.650000X-0.325000X0.650000X0.325000X0*%
%ADD21R,2.200000X1.200000*%
%ADD22R,6.400000X5.800000*%
%ADD23RoundRect,0.150000X-0.150000X-0.625000X0.150000X-0.625000X0.150000X0.625000X-0.150000X0.625000X0*%
%ADD24RoundRect,0.250000X-0.350000X-0.650000X0.350000X-0.650000X0.350000X0.650000X-0.350000X0.650000X0*%
%ADD25RoundRect,0.250000X0.650000X-0.325000X0.650000X0.325000X-0.650000X0.325000X-0.650000X-0.325000X0*%
%ADD26C,2.200000*%
%ADD27R,1.200000X2.200000*%
%ADD28R,5.800000X6.400000*%
%ADD29RoundRect,0.135000X-0.135000X-0.185000X0.135000X-0.185000X0.135000X0.185000X-0.135000X0.185000X0*%
%ADD30R,2.310000X2.460000*%
%ADD31RoundRect,0.100000X0.100000X-0.687500X0.100000X0.687500X-0.100000X0.687500X-0.100000X-0.687500X0*%
%ADD32RoundRect,0.140000X0.170000X-0.140000X0.170000X0.140000X-0.170000X0.140000X-0.170000X-0.140000X0*%
%ADD33RoundRect,0.250000X-1.250000X-0.550000X1.250000X-0.550000X1.250000X0.550000X-1.250000X0.550000X0*%
%ADD34RoundRect,0.200000X0.275000X-0.200000X0.275000X0.200000X-0.275000X0.200000X-0.275000X-0.200000X0*%
%ADD35RoundRect,0.250000X-0.625000X0.312500X-0.625000X-0.312500X0.625000X-0.312500X0.625000X0.312500X0*%
%ADD36RoundRect,0.225000X0.225000X0.250000X-0.225000X0.250000X-0.225000X-0.250000X0.225000X-0.250000X0*%
%ADD37R,3.250000X5.000000*%
%ADD38R,0.650000X0.400000*%
%ADD39RoundRect,0.250000X-0.325000X-0.650000X0.325000X-0.650000X0.325000X0.650000X-0.325000X0.650000X0*%
%ADD40C,4.000000*%
%ADD41RoundRect,0.250000X-0.262500X-0.450000X0.262500X-0.450000X0.262500X0.450000X-0.262500X0.450000X0*%
%ADD42RoundRect,0.140000X-0.140000X-0.170000X0.140000X-0.170000X0.140000X0.170000X-0.140000X0.170000X0*%
%ADD43RoundRect,0.250000X0.312500X0.625000X-0.312500X0.625000X-0.312500X-0.625000X0.312500X-0.625000X0*%
%ADD44RoundRect,0.225000X-0.250000X0.225000X-0.250000X-0.225000X0.250000X-0.225000X0.250000X0.225000X0*%
%ADD45RoundRect,0.150000X0.150000X-0.512500X0.150000X0.512500X-0.150000X0.512500X-0.150000X-0.512500X0*%
%ADD46RoundRect,0.140000X-0.170000X0.140000X-0.170000X-0.140000X0.170000X-0.140000X0.170000X0.140000X0*%
%ADD47RotRect,4.430000X2.100000X210.000000*%
%ADD48RotRect,4.430000X2.100000X10.000000*%
%ADD49R,2.100000X4.430000*%
%ADD50RotRect,4.430000X2.100000X330.000000*%
%ADD51RotRect,4.430000X2.100000X170.000000*%
%ADD52RotRect,4.430000X2.100000X50.000000*%
%ADD53RotRect,4.430000X2.100000X250.000000*%
%ADD54RotRect,4.430000X2.100000X290.000000*%
%ADD55RotRect,4.430000X2.100000X130.000000*%
%ADD56R,0.700000X0.400000*%
%ADD57RoundRect,0.243750X-0.456250X0.243750X-0.456250X-0.243750X0.456250X-0.243750X0.456250X0.243750X0*%
%ADD58R,0.500000X0.700000*%
%ADD59R,0.400000X0.700000*%
%ADD60R,0.700000X0.600000*%
%ADD61R,1.550000X1.300000*%
%ADD62RoundRect,0.135000X0.185000X-0.135000X0.185000X0.135000X-0.185000X0.135000X-0.185000X-0.135000X0*%
%ADD63RoundRect,0.135000X-0.185000X0.135000X-0.185000X-0.135000X0.185000X-0.135000X0.185000X0.135000X0*%
%ADD64R,1.500000X0.900000*%
%ADD65R,0.900000X1.500000*%
%ADD66R,0.900000X0.900000*%
%ADD67C,0.600000*%
%ADD68R,0.740000X2.400000*%
%ADD69RoundRect,0.250000X0.450000X-0.262500X0.450000X0.262500X-0.450000X0.262500X-0.450000X-0.262500X0*%
%ADD70RoundRect,0.225000X0.250000X-0.225000X0.250000X0.225000X-0.250000X0.225000X-0.250000X-0.225000X0*%
%ADD71RoundRect,0.250000X0.262500X0.450000X-0.262500X0.450000X-0.262500X-0.450000X0.262500X-0.450000X0*%
%ADD72R,0.700000X0.500000*%
%ADD73RoundRect,0.250000X-0.450000X0.262500X-0.450000X-0.262500X0.450000X-0.262500X0.450000X0.262500X0*%
%ADD74RoundRect,0.250000X-0.600000X-0.725000X0.600000X-0.725000X0.600000X0.725000X-0.600000X0.725000X0*%
%ADD75O,1.700000X1.950000*%
%ADD76C,6.500000*%
%ADD77R,6.300000X6.000000*%
%ADD78RoundRect,0.140000X0.140000X0.170000X-0.140000X0.170000X-0.140000X-0.170000X0.140000X-0.170000X0*%
%ADD79R,0.650000X3.000000*%
%ADD80R,2.400000X0.740000*%
%ADD81RoundRect,0.250000X-0.250000X-0.475000X0.250000X-0.475000X0.250000X0.475000X-0.250000X0.475000X0*%
%ADD82R,1.350000X1.350000*%
%ADD83O,1.350000X1.350000*%
%ADD84RoundRect,0.150000X0.512500X0.150000X-0.512500X0.150000X-0.512500X-0.150000X0.512500X-0.150000X0*%
%ADD85R,0.850000X0.850000*%
%ADD86O,0.850000X0.850000*%
%ADD87C,0.520000*%
%ADD88R,0.870000X0.300000*%
%ADD89R,1.800000X2.500000*%
%ADD90RoundRect,0.243750X-0.243750X-0.456250X0.243750X-0.456250X0.243750X0.456250X-0.243750X0.456250X0*%
%ADD91RoundRect,0.250000X0.250000X0.475000X-0.250000X0.475000X-0.250000X-0.475000X0.250000X-0.475000X0*%
%ADD92RoundRect,0.225000X-0.225000X-0.250000X0.225000X-0.250000X0.225000X0.250000X-0.225000X0.250000X0*%
%ADD93RoundRect,0.050000X0.375000X0.050000X-0.375000X0.050000X-0.375000X-0.050000X0.375000X-0.050000X0*%
%ADD94RoundRect,0.050000X0.050000X0.275000X-0.050000X0.275000X-0.050000X-0.275000X0.050000X-0.275000X0*%
%ADD95RoundRect,0.250000X0.375000X1.075000X-0.375000X1.075000X-0.375000X-1.075000X0.375000X-1.075000X0*%
G04 APERTURE END LIST*
%TO.C,D202*%
G36*
X91858000Y-64941000D02*
G01*
X91860000Y-64941000D01*
X91863000Y-64942000D01*
X91865000Y-64942000D01*
X91868000Y-64943000D01*
X91870000Y-64944000D01*
X91873000Y-64945000D01*
X91875000Y-64947000D01*
X91877000Y-64948000D01*
X91879000Y-64950000D01*
X91881000Y-64951000D01*
X91889000Y-64959000D01*
X91890000Y-64961000D01*
X91892000Y-64963000D01*
X91893000Y-64965000D01*
X91895000Y-64967000D01*
X91896000Y-64970000D01*
X91897000Y-64972000D01*
X91898000Y-64975000D01*
X91898000Y-64977000D01*
X91899000Y-64980000D01*
X91899000Y-64982000D01*
X91900000Y-64985000D01*
X91900000Y-65195000D01*
X91899000Y-65198000D01*
X91899000Y-65200000D01*
X91898000Y-65203000D01*
X91898000Y-65205000D01*
X91897000Y-65208000D01*
X91896000Y-65210000D01*
X91895000Y-65213000D01*
X91893000Y-65215000D01*
X91892000Y-65217000D01*
X91890000Y-65219000D01*
X91889000Y-65221000D01*
X91881000Y-65229000D01*
X91879000Y-65230000D01*
X91877000Y-65232000D01*
X91875000Y-65233000D01*
X91873000Y-65235000D01*
X91870000Y-65236000D01*
X91868000Y-65237000D01*
X91865000Y-65238000D01*
X91863000Y-65238000D01*
X91860000Y-65239000D01*
X91858000Y-65239000D01*
X91855000Y-65240000D01*
X91645000Y-65240000D01*
X91642000Y-65239000D01*
X91640000Y-65239000D01*
X91637000Y-65238000D01*
X91635000Y-65238000D01*
X91632000Y-65237000D01*
X91630000Y-65236000D01*
X91627000Y-65235000D01*
X91625000Y-65233000D01*
X91623000Y-65232000D01*
X91621000Y-65230000D01*
X91619000Y-65229000D01*
X91611000Y-65221000D01*
X91610000Y-65219000D01*
X91608000Y-65217000D01*
X91607000Y-65215000D01*
X91605000Y-65213000D01*
X91604000Y-65210000D01*
X91603000Y-65208000D01*
X91602000Y-65205000D01*
X91602000Y-65203000D01*
X91601000Y-65200000D01*
X91601000Y-65198000D01*
X91600000Y-65195000D01*
X91600000Y-64985000D01*
X91601000Y-64982000D01*
X91601000Y-64980000D01*
X91602000Y-64977000D01*
X91602000Y-64975000D01*
X91603000Y-64972000D01*
X91604000Y-64970000D01*
X91605000Y-64967000D01*
X91607000Y-64965000D01*
X91608000Y-64963000D01*
X91610000Y-64961000D01*
X91611000Y-64959000D01*
X91619000Y-64951000D01*
X91621000Y-64950000D01*
X91623000Y-64948000D01*
X91625000Y-64947000D01*
X91627000Y-64945000D01*
X91630000Y-64944000D01*
X91632000Y-64943000D01*
X91635000Y-64942000D01*
X91637000Y-64942000D01*
X91640000Y-64941000D01*
X91642000Y-64941000D01*
X91645000Y-64940000D01*
X91855000Y-64940000D01*
X91858000Y-64941000D01*
G37*
D10*
X91858000Y-64941000D02*
X91860000Y-64941000D01*
X91863000Y-64942000D01*
X91865000Y-64942000D01*
X91868000Y-64943000D01*
X91870000Y-64944000D01*
X91873000Y-64945000D01*
X91875000Y-64947000D01*
X91877000Y-64948000D01*
X91879000Y-64950000D01*
X91881000Y-64951000D01*
X91889000Y-64959000D01*
X91890000Y-64961000D01*
X91892000Y-64963000D01*
X91893000Y-64965000D01*
X91895000Y-64967000D01*
X91896000Y-64970000D01*
X91897000Y-64972000D01*
X91898000Y-64975000D01*
X91898000Y-64977000D01*
X91899000Y-64980000D01*
X91899000Y-64982000D01*
X91900000Y-64985000D01*
X91900000Y-65195000D01*
X91899000Y-65198000D01*
X91899000Y-65200000D01*
X91898000Y-65203000D01*
X91898000Y-65205000D01*
X91897000Y-65208000D01*
X91896000Y-65210000D01*
X91895000Y-65213000D01*
X91893000Y-65215000D01*
X91892000Y-65217000D01*
X91890000Y-65219000D01*
X91889000Y-65221000D01*
X91881000Y-65229000D01*
X91879000Y-65230000D01*
X91877000Y-65232000D01*
X91875000Y-65233000D01*
X91873000Y-65235000D01*
X91870000Y-65236000D01*
X91868000Y-65237000D01*
X91865000Y-65238000D01*
X91863000Y-65238000D01*
X91860000Y-65239000D01*
X91858000Y-65239000D01*
X91855000Y-65240000D01*
X91645000Y-65240000D01*
X91642000Y-65239000D01*
X91640000Y-65239000D01*
X91637000Y-65238000D01*
X91635000Y-65238000D01*
X91632000Y-65237000D01*
X91630000Y-65236000D01*
X91627000Y-65235000D01*
X91625000Y-65233000D01*
X91623000Y-65232000D01*
X91621000Y-65230000D01*
X91619000Y-65229000D01*
X91611000Y-65221000D01*
X91610000Y-65219000D01*
X91608000Y-65217000D01*
X91607000Y-65215000D01*
X91605000Y-65213000D01*
X91604000Y-65210000D01*
X91603000Y-65208000D01*
X91602000Y-65205000D01*
X91602000Y-65203000D01*
X91601000Y-65200000D01*
X91601000Y-65198000D01*
X91600000Y-65195000D01*
X91600000Y-64985000D01*
X91601000Y-64982000D01*
X91601000Y-64980000D01*
X91602000Y-64977000D01*
X91602000Y-64975000D01*
X91603000Y-64972000D01*
X91604000Y-64970000D01*
X91605000Y-64967000D01*
X91607000Y-64965000D01*
X91608000Y-64963000D01*
X91610000Y-64961000D01*
X91611000Y-64959000D01*
X91619000Y-64951000D01*
X91621000Y-64950000D01*
X91623000Y-64948000D01*
X91625000Y-64947000D01*
X91627000Y-64945000D01*
X91630000Y-64944000D01*
X91632000Y-64943000D01*
X91635000Y-64942000D01*
X91637000Y-64942000D01*
X91640000Y-64941000D01*
X91642000Y-64941000D01*
X91645000Y-64940000D01*
X91855000Y-64940000D01*
X91858000Y-64941000D01*
G36*
X92158000Y-64601000D02*
G01*
X92160000Y-64601000D01*
X92163000Y-64602000D01*
X92165000Y-64602000D01*
X92168000Y-64603000D01*
X92170000Y-64604000D01*
X92173000Y-64605000D01*
X92175000Y-64607000D01*
X92177000Y-64608000D01*
X92179000Y-64610000D01*
X92181000Y-64611000D01*
X92189000Y-64619000D01*
X92190000Y-64621000D01*
X92192000Y-64623000D01*
X92193000Y-64625000D01*
X92195000Y-64627000D01*
X92196000Y-64630000D01*
X92197000Y-64632000D01*
X92198000Y-64635000D01*
X92198000Y-64637000D01*
X92199000Y-64640000D01*
X92199000Y-64642000D01*
X92200000Y-64645000D01*
X92200000Y-64855000D01*
X92199000Y-64858000D01*
X92199000Y-64860000D01*
X92198000Y-64863000D01*
X92198000Y-64865000D01*
X92197000Y-64868000D01*
X92196000Y-64870000D01*
X92195000Y-64873000D01*
X92193000Y-64875000D01*
X92192000Y-64877000D01*
X92190000Y-64879000D01*
X92189000Y-64881000D01*
X92181000Y-64889000D01*
X92179000Y-64890000D01*
X92177000Y-64892000D01*
X92175000Y-64893000D01*
X92173000Y-64895000D01*
X92170000Y-64896000D01*
X92168000Y-64897000D01*
X92165000Y-64898000D01*
X92163000Y-64898000D01*
X92160000Y-64899000D01*
X92158000Y-64899000D01*
X92155000Y-64900000D01*
X91945000Y-64900000D01*
X91942000Y-64899000D01*
X91940000Y-64899000D01*
X91937000Y-64898000D01*
X91935000Y-64898000D01*
X91932000Y-64897000D01*
X91930000Y-64896000D01*
X91927000Y-64895000D01*
X91925000Y-64893000D01*
X91923000Y-64892000D01*
X91921000Y-64890000D01*
X91919000Y-64889000D01*
X91911000Y-64881000D01*
X91910000Y-64879000D01*
X91908000Y-64877000D01*
X91907000Y-64875000D01*
X91905000Y-64873000D01*
X91904000Y-64870000D01*
X91903000Y-64868000D01*
X91902000Y-64865000D01*
X91902000Y-64863000D01*
X91901000Y-64860000D01*
X91901000Y-64858000D01*
X91900000Y-64855000D01*
X91900000Y-64645000D01*
X91901000Y-64642000D01*
X91901000Y-64640000D01*
X91902000Y-64637000D01*
X91902000Y-64635000D01*
X91903000Y-64632000D01*
X91904000Y-64630000D01*
X91905000Y-64627000D01*
X91907000Y-64625000D01*
X91908000Y-64623000D01*
X91910000Y-64621000D01*
X91911000Y-64619000D01*
X91919000Y-64611000D01*
X91921000Y-64610000D01*
X91923000Y-64608000D01*
X91925000Y-64607000D01*
X91927000Y-64605000D01*
X91930000Y-64604000D01*
X91932000Y-64603000D01*
X91935000Y-64602000D01*
X91937000Y-64602000D01*
X91940000Y-64601000D01*
X91942000Y-64601000D01*
X91945000Y-64600000D01*
X92155000Y-64600000D01*
X92158000Y-64601000D01*
G37*
X92158000Y-64601000D02*
X92160000Y-64601000D01*
X92163000Y-64602000D01*
X92165000Y-64602000D01*
X92168000Y-64603000D01*
X92170000Y-64604000D01*
X92173000Y-64605000D01*
X92175000Y-64607000D01*
X92177000Y-64608000D01*
X92179000Y-64610000D01*
X92181000Y-64611000D01*
X92189000Y-64619000D01*
X92190000Y-64621000D01*
X92192000Y-64623000D01*
X92193000Y-64625000D01*
X92195000Y-64627000D01*
X92196000Y-64630000D01*
X92197000Y-64632000D01*
X92198000Y-64635000D01*
X92198000Y-64637000D01*
X92199000Y-64640000D01*
X92199000Y-64642000D01*
X92200000Y-64645000D01*
X92200000Y-64855000D01*
X92199000Y-64858000D01*
X92199000Y-64860000D01*
X92198000Y-64863000D01*
X92198000Y-64865000D01*
X92197000Y-64868000D01*
X92196000Y-64870000D01*
X92195000Y-64873000D01*
X92193000Y-64875000D01*
X92192000Y-64877000D01*
X92190000Y-64879000D01*
X92189000Y-64881000D01*
X92181000Y-64889000D01*
X92179000Y-64890000D01*
X92177000Y-64892000D01*
X92175000Y-64893000D01*
X92173000Y-64895000D01*
X92170000Y-64896000D01*
X92168000Y-64897000D01*
X92165000Y-64898000D01*
X92163000Y-64898000D01*
X92160000Y-64899000D01*
X92158000Y-64899000D01*
X92155000Y-64900000D01*
X91945000Y-64900000D01*
X91942000Y-64899000D01*
X91940000Y-64899000D01*
X91937000Y-64898000D01*
X91935000Y-64898000D01*
X91932000Y-64897000D01*
X91930000Y-64896000D01*
X91927000Y-64895000D01*
X91925000Y-64893000D01*
X91923000Y-64892000D01*
X91921000Y-64890000D01*
X91919000Y-64889000D01*
X91911000Y-64881000D01*
X91910000Y-64879000D01*
X91908000Y-64877000D01*
X91907000Y-64875000D01*
X91905000Y-64873000D01*
X91904000Y-64870000D01*
X91903000Y-64868000D01*
X91902000Y-64865000D01*
X91902000Y-64863000D01*
X91901000Y-64860000D01*
X91901000Y-64858000D01*
X91900000Y-64855000D01*
X91900000Y-64645000D01*
X91901000Y-64642000D01*
X91901000Y-64640000D01*
X91902000Y-64637000D01*
X91902000Y-64635000D01*
X91903000Y-64632000D01*
X91904000Y-64630000D01*
X91905000Y-64627000D01*
X91907000Y-64625000D01*
X91908000Y-64623000D01*
X91910000Y-64621000D01*
X91911000Y-64619000D01*
X91919000Y-64611000D01*
X91921000Y-64610000D01*
X91923000Y-64608000D01*
X91925000Y-64607000D01*
X91927000Y-64605000D01*
X91930000Y-64604000D01*
X91932000Y-64603000D01*
X91935000Y-64602000D01*
X91937000Y-64602000D01*
X91940000Y-64601000D01*
X91942000Y-64601000D01*
X91945000Y-64600000D01*
X92155000Y-64600000D01*
X92158000Y-64601000D01*
G36*
X91858000Y-64261000D02*
G01*
X91860000Y-64261000D01*
X91863000Y-64262000D01*
X91865000Y-64262000D01*
X91868000Y-64263000D01*
X91870000Y-64264000D01*
X91873000Y-64265000D01*
X91875000Y-64267000D01*
X91877000Y-64268000D01*
X91879000Y-64270000D01*
X91881000Y-64271000D01*
X91889000Y-64279000D01*
X91890000Y-64281000D01*
X91892000Y-64283000D01*
X91893000Y-64285000D01*
X91895000Y-64287000D01*
X91896000Y-64290000D01*
X91897000Y-64292000D01*
X91898000Y-64295000D01*
X91898000Y-64297000D01*
X91899000Y-64300000D01*
X91899000Y-64302000D01*
X91900000Y-64305000D01*
X91900000Y-64515000D01*
X91899000Y-64518000D01*
X91899000Y-64520000D01*
X91898000Y-64523000D01*
X91898000Y-64525000D01*
X91897000Y-64528000D01*
X91896000Y-64530000D01*
X91895000Y-64533000D01*
X91893000Y-64535000D01*
X91892000Y-64537000D01*
X91890000Y-64539000D01*
X91889000Y-64541000D01*
X91881000Y-64549000D01*
X91879000Y-64550000D01*
X91877000Y-64552000D01*
X91875000Y-64553000D01*
X91873000Y-64555000D01*
X91870000Y-64556000D01*
X91868000Y-64557000D01*
X91865000Y-64558000D01*
X91863000Y-64558000D01*
X91860000Y-64559000D01*
X91858000Y-64559000D01*
X91855000Y-64560000D01*
X91645000Y-64560000D01*
X91642000Y-64559000D01*
X91640000Y-64559000D01*
X91637000Y-64558000D01*
X91635000Y-64558000D01*
X91632000Y-64557000D01*
X91630000Y-64556000D01*
X91627000Y-64555000D01*
X91625000Y-64553000D01*
X91623000Y-64552000D01*
X91621000Y-64550000D01*
X91619000Y-64549000D01*
X91611000Y-64541000D01*
X91610000Y-64539000D01*
X91608000Y-64537000D01*
X91607000Y-64535000D01*
X91605000Y-64533000D01*
X91604000Y-64530000D01*
X91603000Y-64528000D01*
X91602000Y-64525000D01*
X91602000Y-64523000D01*
X91601000Y-64520000D01*
X91601000Y-64518000D01*
X91600000Y-64515000D01*
X91600000Y-64305000D01*
X91601000Y-64302000D01*
X91601000Y-64300000D01*
X91602000Y-64297000D01*
X91602000Y-64295000D01*
X91603000Y-64292000D01*
X91604000Y-64290000D01*
X91605000Y-64287000D01*
X91607000Y-64285000D01*
X91608000Y-64283000D01*
X91610000Y-64281000D01*
X91611000Y-64279000D01*
X91619000Y-64271000D01*
X91621000Y-64270000D01*
X91623000Y-64268000D01*
X91625000Y-64267000D01*
X91627000Y-64265000D01*
X91630000Y-64264000D01*
X91632000Y-64263000D01*
X91635000Y-64262000D01*
X91637000Y-64262000D01*
X91640000Y-64261000D01*
X91642000Y-64261000D01*
X91645000Y-64260000D01*
X91855000Y-64260000D01*
X91858000Y-64261000D01*
G37*
X91858000Y-64261000D02*
X91860000Y-64261000D01*
X91863000Y-64262000D01*
X91865000Y-64262000D01*
X91868000Y-64263000D01*
X91870000Y-64264000D01*
X91873000Y-64265000D01*
X91875000Y-64267000D01*
X91877000Y-64268000D01*
X91879000Y-64270000D01*
X91881000Y-64271000D01*
X91889000Y-64279000D01*
X91890000Y-64281000D01*
X91892000Y-64283000D01*
X91893000Y-64285000D01*
X91895000Y-64287000D01*
X91896000Y-64290000D01*
X91897000Y-64292000D01*
X91898000Y-64295000D01*
X91898000Y-64297000D01*
X91899000Y-64300000D01*
X91899000Y-64302000D01*
X91900000Y-64305000D01*
X91900000Y-64515000D01*
X91899000Y-64518000D01*
X91899000Y-64520000D01*
X91898000Y-64523000D01*
X91898000Y-64525000D01*
X91897000Y-64528000D01*
X91896000Y-64530000D01*
X91895000Y-64533000D01*
X91893000Y-64535000D01*
X91892000Y-64537000D01*
X91890000Y-64539000D01*
X91889000Y-64541000D01*
X91881000Y-64549000D01*
X91879000Y-64550000D01*
X91877000Y-64552000D01*
X91875000Y-64553000D01*
X91873000Y-64555000D01*
X91870000Y-64556000D01*
X91868000Y-64557000D01*
X91865000Y-64558000D01*
X91863000Y-64558000D01*
X91860000Y-64559000D01*
X91858000Y-64559000D01*
X91855000Y-64560000D01*
X91645000Y-64560000D01*
X91642000Y-64559000D01*
X91640000Y-64559000D01*
X91637000Y-64558000D01*
X91635000Y-64558000D01*
X91632000Y-64557000D01*
X91630000Y-64556000D01*
X91627000Y-64555000D01*
X91625000Y-64553000D01*
X91623000Y-64552000D01*
X91621000Y-64550000D01*
X91619000Y-64549000D01*
X91611000Y-64541000D01*
X91610000Y-64539000D01*
X91608000Y-64537000D01*
X91607000Y-64535000D01*
X91605000Y-64533000D01*
X91604000Y-64530000D01*
X91603000Y-64528000D01*
X91602000Y-64525000D01*
X91602000Y-64523000D01*
X91601000Y-64520000D01*
X91601000Y-64518000D01*
X91600000Y-64515000D01*
X91600000Y-64305000D01*
X91601000Y-64302000D01*
X91601000Y-64300000D01*
X91602000Y-64297000D01*
X91602000Y-64295000D01*
X91603000Y-64292000D01*
X91604000Y-64290000D01*
X91605000Y-64287000D01*
X91607000Y-64285000D01*
X91608000Y-64283000D01*
X91610000Y-64281000D01*
X91611000Y-64279000D01*
X91619000Y-64271000D01*
X91621000Y-64270000D01*
X91623000Y-64268000D01*
X91625000Y-64267000D01*
X91627000Y-64265000D01*
X91630000Y-64264000D01*
X91632000Y-64263000D01*
X91635000Y-64262000D01*
X91637000Y-64262000D01*
X91640000Y-64261000D01*
X91642000Y-64261000D01*
X91645000Y-64260000D01*
X91855000Y-64260000D01*
X91858000Y-64261000D01*
%TD*%
D11*
%TO.C,J104*%
X171200000Y-103500000D03*
D12*
X171200000Y-102230000D03*
%TD*%
D13*
%TO.C,J102*%
X175425000Y-102100000D03*
D14*
X177965000Y-102100000D03*
%TD*%
D11*
%TO.C,J103*%
X182200000Y-103500000D03*
D12*
X182200000Y-102230000D03*
%TD*%
D15*
%TO.C,J101*%
X172950000Y-105500000D03*
X173950000Y-105500000D03*
X174950000Y-105500000D03*
X175950000Y-105500000D03*
X177450000Y-105500000D03*
X178450000Y-105500000D03*
X179450000Y-105500000D03*
X180450000Y-105500000D03*
X179950000Y-105500000D03*
X178950000Y-105500000D03*
X177950000Y-105500000D03*
X176950000Y-105500000D03*
X176450000Y-105500000D03*
X175450000Y-105500000D03*
X174450000Y-105500000D03*
X173450000Y-105500000D03*
D16*
X172180000Y-108900000D03*
X181220000Y-108900000D03*
%TD*%
D17*
%TO.C,D1*%
X90020000Y-108700000D03*
D18*
X86038000Y-107780000D03*
X86038000Y-109620000D03*
%TD*%
D19*
%TO.C,R4*%
X88910000Y-114000000D03*
X87890000Y-114000000D03*
%TD*%
D20*
%TO.C,C2*%
X69700000Y-101825000D03*
X69700000Y-104775000D03*
%TD*%
D21*
%TO.C,Q1*%
X72650000Y-110020000D03*
D22*
X78950000Y-112300000D03*
D21*
X72650000Y-114580000D03*
%TD*%
D23*
%TO.C,J3*%
X71300000Y-118500000D03*
X72300000Y-118500000D03*
X73300000Y-118500000D03*
X74300000Y-118500000D03*
D24*
X75600000Y-122375000D03*
X70000000Y-122375000D03*
%TD*%
D25*
%TO.C,C6*%
X93600000Y-104275000D03*
X93600000Y-101325000D03*
%TD*%
D26*
%TO.C,REF\u002A\u002A*%
X101700000Y-112600000D03*
%TD*%
D27*
%TO.C,Q2*%
X96320000Y-106000000D03*
D28*
X98600000Y-99700000D03*
D27*
X100880000Y-106000000D03*
%TD*%
D19*
%TO.C,R10*%
X94610000Y-122300000D03*
X93590000Y-122300000D03*
%TD*%
D29*
%TO.C,R8*%
X85440000Y-126400000D03*
X86460000Y-126400000D03*
%TD*%
D30*
%TO.C,U1*%
X89800000Y-120800000D03*
D31*
X87525000Y-123662500D03*
X88175000Y-123662500D03*
X88825000Y-123662500D03*
X89475000Y-123662500D03*
X90125000Y-123662500D03*
X90775000Y-123662500D03*
X91425000Y-123662500D03*
X92075000Y-123662500D03*
X92075000Y-117937500D03*
X91425000Y-117937500D03*
X90775000Y-117937500D03*
X90125000Y-117937500D03*
X89475000Y-117937500D03*
X88825000Y-117937500D03*
X88175000Y-117937500D03*
X87525000Y-117937500D03*
%TD*%
D32*
%TO.C,C10*%
X83000000Y-119980000D03*
X83000000Y-119020000D03*
%TD*%
D33*
%TO.C,C1*%
X65500000Y-95400000D03*
X69900000Y-95400000D03*
%TD*%
D34*
%TO.C,R5*%
X93600000Y-120825000D03*
X93600000Y-119175000D03*
%TD*%
D26*
%TO.C,REF\u002A\u002A*%
X82700000Y-86100000D03*
%TD*%
D35*
%TO.C,R9*%
X68800000Y-109937500D03*
X68800000Y-112862500D03*
%TD*%
D36*
%TO.C,C5*%
X89375000Y-126300000D03*
X87825000Y-126300000D03*
%TD*%
D25*
%TO.C,C7*%
X90850000Y-104275000D03*
X90850000Y-101325000D03*
%TD*%
D37*
%TO.C,L1*%
X72975000Y-101800000D03*
X84225000Y-101800000D03*
%TD*%
D38*
%TO.C,UR1*%
X81750000Y-119850000D03*
X81750000Y-119200000D03*
X81750000Y-118550000D03*
X79850000Y-118550000D03*
X79850000Y-119200000D03*
X79850000Y-119850000D03*
%TD*%
D39*
%TO.C,C9*%
X92925000Y-113500000D03*
X95875000Y-113500000D03*
%TD*%
D40*
%TO.C,J2*%
X89800000Y-92800000D03*
X94800000Y-92800000D03*
%TD*%
D41*
%TO.C,R7*%
X93625000Y-116600000D03*
X95450000Y-116600000D03*
%TD*%
D23*
%TO.C,J4*%
X79400000Y-122000000D03*
X80400000Y-122000000D03*
X81400000Y-122000000D03*
X82400000Y-122000000D03*
D24*
X78100000Y-125875000D03*
X83700000Y-125875000D03*
%TD*%
D42*
%TO.C,C4*%
X86920000Y-116100000D03*
X87880000Y-116100000D03*
%TD*%
D43*
%TO.C,R6*%
X97062500Y-109800000D03*
X94137500Y-109800000D03*
%TD*%
D19*
%TO.C,R2*%
X78610000Y-119900000D03*
X77590000Y-119900000D03*
%TD*%
D44*
%TO.C,C3*%
X86200000Y-117625000D03*
X86200000Y-119175000D03*
%TD*%
D25*
%TO.C,C8*%
X88100000Y-104275000D03*
X88100000Y-101325000D03*
%TD*%
D29*
%TO.C,R1*%
X85440000Y-125200000D03*
X86460000Y-125200000D03*
%TD*%
D40*
%TO.C,J1*%
X64600000Y-106900000D03*
X64600000Y-101900000D03*
%TD*%
D45*
%TO.C,U101*%
X176550000Y-57437500D03*
X177500000Y-57437500D03*
X178450000Y-57437500D03*
X178450000Y-55162500D03*
X177500000Y-55162500D03*
X176550000Y-55162500D03*
%TD*%
D26*
%TO.C,REF\u002A\u002A*%
X177800000Y-70300000D03*
%TD*%
%TO.C,REF\u002A\u002A*%
X177500000Y-42300000D03*
%TD*%
D46*
%TO.C,C102*%
X179850000Y-55920000D03*
X179850000Y-56880000D03*
%TD*%
D40*
%TO.C,J1*%
X141900000Y-87800000D03*
X136900000Y-87800000D03*
%TD*%
D26*
%TO.C,REF\u002A\u002A*%
X156400000Y-105800000D03*
%TD*%
D47*
%TO.C,D2*%
X147475000Y-99817468D03*
X148725000Y-101982532D03*
%TD*%
D48*
%TO.C,D7*%
X129817060Y-108831010D03*
X129382940Y-106368990D03*
%TD*%
D49*
%TO.C,D5*%
X140650000Y-115800000D03*
X138150000Y-115800000D03*
%TD*%
D26*
%TO.C,REF\u002A\u002A*%
X122400000Y-105800000D03*
%TD*%
D50*
%TO.C,D8*%
X130175000Y-101882532D03*
X131425000Y-99717468D03*
%TD*%
D51*
%TO.C,D3*%
X149417060Y-106368990D03*
X148982940Y-108831010D03*
%TD*%
D52*
%TO.C,D6*%
X133957556Y-114303485D03*
X132042444Y-112696515D03*
%TD*%
D49*
%TO.C,D10*%
X138150000Y-105800000D03*
X140650000Y-105800000D03*
%TD*%
D53*
%TO.C,D1*%
X141725384Y-95972475D03*
X144074616Y-96827525D03*
%TD*%
D54*
%TO.C,D9*%
X134825384Y-96827525D03*
X137174616Y-95972475D03*
%TD*%
D55*
%TO.C,D4*%
X146757556Y-112696515D03*
X144842444Y-114303485D03*
%TD*%
D26*
%TO.C,REF\u002A\u002A*%
X139400000Y-122800000D03*
%TD*%
D56*
%TO.C,Q407*%
X150700000Y-42350000D03*
X149700000Y-41850000D03*
X149700000Y-42850000D03*
%TD*%
D57*
%TO.C,D305*%
X141200000Y-63662500D03*
X141200000Y-65537500D03*
%TD*%
D58*
%TO.C,Q402*%
X154500000Y-45700000D03*
D59*
X154900000Y-44700000D03*
X154100000Y-44700000D03*
%TD*%
D60*
%TO.C,D403*%
X122200000Y-44900000D03*
X122200000Y-46300000D03*
%TD*%
D61*
%TO.C,SW301*%
X117215000Y-57850000D03*
X125165000Y-57850000D03*
X117215000Y-53350000D03*
X125165000Y-53350000D03*
%TD*%
D59*
%TO.C,Q401*%
X156500000Y-45100000D03*
X156000000Y-46100000D03*
X157000000Y-46100000D03*
%TD*%
D56*
%TO.C,Q403*%
X156700000Y-50700000D03*
X157700000Y-51200000D03*
X157700000Y-50200000D03*
%TD*%
D19*
%TO.C,R416*%
X124710000Y-47850000D03*
X123690000Y-47850000D03*
%TD*%
D62*
%TO.C,R302*%
X158630000Y-60380000D03*
X158630000Y-59360000D03*
%TD*%
D63*
%TO.C,R310*%
X133700000Y-64590000D03*
X133700000Y-65610000D03*
%TD*%
%TO.C,R301*%
X125320000Y-41740000D03*
X125320000Y-42760000D03*
%TD*%
%TO.C,R314*%
X145700000Y-64590000D03*
X145700000Y-65610000D03*
%TD*%
D57*
%TO.C,D301*%
X129200000Y-63662500D03*
X129200000Y-65537500D03*
%TD*%
D60*
%TO.C,D404*%
X125950000Y-44900000D03*
X125950000Y-46300000D03*
%TD*%
D19*
%TO.C,R420*%
X124710000Y-44850000D03*
X123690000Y-44850000D03*
%TD*%
D64*
%TO.C,U301*%
X129450000Y-42640000D03*
X129450000Y-43910000D03*
X129450000Y-45180000D03*
X129450000Y-46450000D03*
X129450000Y-47720000D03*
X129450000Y-48990000D03*
X129450000Y-50260000D03*
X129450000Y-51530000D03*
X129450000Y-52800000D03*
X129450000Y-54070000D03*
X129450000Y-55340000D03*
X129450000Y-56610000D03*
X129450000Y-57880000D03*
X129450000Y-59150000D03*
D65*
X131215000Y-60400000D03*
X132485000Y-60400000D03*
X133755000Y-60400000D03*
X135025000Y-60400000D03*
X136295000Y-60400000D03*
X137565000Y-60400000D03*
X138835000Y-60400000D03*
X140105000Y-60400000D03*
X141375000Y-60400000D03*
X142645000Y-60400000D03*
X143915000Y-60400000D03*
X145185000Y-60400000D03*
D64*
X146950000Y-59150000D03*
X146950000Y-57880000D03*
X146950000Y-56610000D03*
X146950000Y-55340000D03*
X146950000Y-54070000D03*
X146950000Y-52800000D03*
X146950000Y-51530000D03*
X146950000Y-50260000D03*
X146950000Y-48990000D03*
X146950000Y-47720000D03*
X146950000Y-46450000D03*
X146950000Y-45180000D03*
X146950000Y-43910000D03*
X146950000Y-42640000D03*
D66*
X135300000Y-51760000D03*
D67*
X137400000Y-48960000D03*
X135300000Y-51060000D03*
X136000000Y-48960000D03*
D66*
X135300000Y-50360000D03*
D67*
X136700000Y-51060000D03*
D66*
X136700000Y-51760000D03*
X136700000Y-50360000D03*
D67*
X136000000Y-50360000D03*
D66*
X138100000Y-50360000D03*
D67*
X135300000Y-49660000D03*
D66*
X138100000Y-51760000D03*
D67*
X137400000Y-50360000D03*
D66*
X136700000Y-48960000D03*
X138100000Y-48960000D03*
D67*
X137400000Y-51760000D03*
X136700000Y-49660000D03*
D66*
X135300000Y-48960000D03*
D67*
X138100000Y-49660000D03*
X138100000Y-51060000D03*
X136000000Y-51760000D03*
%TD*%
D60*
%TO.C,D401*%
X122200000Y-48150000D03*
X122200000Y-49550000D03*
%TD*%
D61*
%TO.C,SW302*%
X151325000Y-53350000D03*
X159275000Y-53350000D03*
X159275000Y-57850000D03*
X151325000Y-57850000D03*
%TD*%
D68*
%TO.C,J205*%
X124465000Y-64100000D03*
X124465000Y-68000000D03*
X123195000Y-64100000D03*
X123195000Y-68000000D03*
%TD*%
D57*
%TO.C,D307*%
X147200000Y-63662500D03*
X147200000Y-65537500D03*
%TD*%
%TO.C,D302*%
X132200000Y-63662500D03*
X132200000Y-65537500D03*
%TD*%
D63*
%TO.C,R308*%
X127700000Y-64590000D03*
X127700000Y-65610000D03*
%TD*%
D69*
%TO.C,R409*%
X152200000Y-45412500D03*
X152200000Y-43587500D03*
%TD*%
D58*
%TO.C,Q408*%
X152200000Y-41350000D03*
D59*
X151800000Y-42350000D03*
X152600000Y-42350000D03*
%TD*%
D69*
%TO.C,R406*%
X152200000Y-50912500D03*
X152200000Y-49087500D03*
%TD*%
D63*
%TO.C,R311*%
X136700000Y-64590000D03*
X136700000Y-65610000D03*
%TD*%
D29*
%TO.C,R417*%
X119940000Y-45850000D03*
X120960000Y-45850000D03*
%TD*%
D70*
%TO.C,C303*%
X123850000Y-42475000D03*
X123850000Y-40925000D03*
%TD*%
D71*
%TO.C,R412*%
X152362500Y-39850000D03*
X150537500Y-39850000D03*
%TD*%
D29*
%TO.C,R419*%
X123690000Y-45850000D03*
X124710000Y-45850000D03*
%TD*%
D56*
%TO.C,Q405*%
X150700000Y-47000000D03*
X149700000Y-46500000D03*
X149700000Y-47500000D03*
%TD*%
D19*
%TO.C,R418*%
X120960000Y-44850000D03*
X119940000Y-44850000D03*
%TD*%
D57*
%TO.C,D304*%
X138200000Y-63662500D03*
X138200000Y-65537500D03*
%TD*%
D60*
%TO.C,D402*%
X125950000Y-48150000D03*
X125950000Y-49550000D03*
%TD*%
D29*
%TO.C,R415*%
X123690000Y-48850000D03*
X124710000Y-48850000D03*
%TD*%
%TO.C,R413*%
X119940000Y-49100000D03*
X120960000Y-49100000D03*
%TD*%
D63*
%TO.C,R313*%
X142700000Y-64590000D03*
X142700000Y-65610000D03*
%TD*%
D72*
%TO.C,Q404*%
X153800000Y-50700000D03*
D56*
X154800000Y-51100000D03*
X154800000Y-50300000D03*
%TD*%
D57*
%TO.C,D303*%
X135200000Y-63662500D03*
X135200000Y-65537500D03*
%TD*%
D32*
%TO.C,C302*%
X127450000Y-42830000D03*
X127450000Y-41870000D03*
%TD*%
D57*
%TO.C,D306*%
X144200000Y-63662500D03*
X144200000Y-65537500D03*
%TD*%
D32*
%TO.C,C304*%
X153830000Y-60320000D03*
X153830000Y-59360000D03*
%TD*%
D19*
%TO.C,R414*%
X120960000Y-48100000D03*
X119940000Y-48100000D03*
%TD*%
D63*
%TO.C,R309*%
X130700000Y-64590000D03*
X130700000Y-65610000D03*
%TD*%
D73*
%TO.C,R403*%
X154450000Y-46987500D03*
X154450000Y-48812500D03*
%TD*%
D58*
%TO.C,Q406*%
X152200000Y-46700000D03*
D59*
X151800000Y-47700000D03*
X152600000Y-47700000D03*
%TD*%
D63*
%TO.C,R312*%
X139700000Y-64590000D03*
X139700000Y-65610000D03*
%TD*%
D40*
%TO.C,J202*%
X70317767Y-40482233D03*
X66782233Y-44017767D03*
%TD*%
D74*
%TO.C,J208*%
X77500000Y-37275000D03*
D75*
X80000000Y-37275000D03*
X82500000Y-37275000D03*
X85000000Y-37275000D03*
X87500000Y-37275000D03*
%TD*%
D76*
%TO.C,J204*%
X83100000Y-70250000D03*
D77*
X75900000Y-70250000D03*
%TD*%
D29*
%TO.C,R315*%
X78290000Y-60550000D03*
X79310000Y-60550000D03*
%TD*%
D78*
%TO.C,C328*%
X83180000Y-62550000D03*
X82220000Y-62550000D03*
%TD*%
D79*
%TO.C,J207*%
X79960000Y-44750000D03*
X81230000Y-41750000D03*
X82500000Y-44750000D03*
X83770000Y-41750000D03*
X85040000Y-44750000D03*
%TD*%
D46*
%TO.C,C329*%
X80200000Y-60570000D03*
X80200000Y-61530000D03*
%TD*%
D80*
%TO.C,J203*%
X103350000Y-57290000D03*
X99450000Y-57290000D03*
X103350000Y-56020000D03*
X99450000Y-56020000D03*
X103350000Y-54750000D03*
X99450000Y-54750000D03*
X103350000Y-53480000D03*
X99450000Y-53480000D03*
X103350000Y-52210000D03*
X99450000Y-52210000D03*
%TD*%
D81*
%TO.C,C404*%
X66850000Y-61450000D03*
X68750000Y-61450000D03*
%TD*%
D82*
%TO.C,J209*%
X94200000Y-70350000D03*
D83*
X92200000Y-70350000D03*
%TD*%
D81*
%TO.C,C405*%
X66850000Y-59450000D03*
X68750000Y-59450000D03*
%TD*%
%TO.C,C324*%
X78950000Y-74550000D03*
X80850000Y-74550000D03*
%TD*%
D84*
%TO.C,U401*%
X71837500Y-65100000D03*
X71837500Y-64150000D03*
X71837500Y-63200000D03*
X69562500Y-63200000D03*
X69562500Y-64150000D03*
X69562500Y-65100000D03*
%TD*%
D85*
%TO.C,J210*%
X97350000Y-41300000D03*
D86*
X98350000Y-41300000D03*
%TD*%
D63*
%TO.C,R308*%
X85800000Y-57440000D03*
X85800000Y-58460000D03*
%TD*%
D46*
%TO.C,C327*%
X81200000Y-61570000D03*
X81200000Y-62530000D03*
%TD*%
D42*
%TO.C,C403*%
X68020000Y-66350000D03*
X68980000Y-66350000D03*
%TD*%
D62*
%TO.C,R501*%
X98500000Y-45020000D03*
X98500000Y-44000000D03*
%TD*%
D63*
%TO.C,R504*%
X99870000Y-43980000D03*
X99870000Y-45000000D03*
%TD*%
D62*
%TO.C,R503*%
X100870000Y-45010000D03*
X100870000Y-43990000D03*
%TD*%
D87*
%TO.C,J201*%
X95500000Y-68500000D03*
X95500000Y-61000000D03*
D88*
X96365000Y-62000000D03*
X96365000Y-63500000D03*
X96365000Y-64000000D03*
X96365000Y-64500000D03*
X96365000Y-65000000D03*
X96365000Y-65500000D03*
X96365000Y-66000000D03*
X96365000Y-67500000D03*
X94635000Y-67500000D03*
X94635000Y-66000000D03*
X94635000Y-65500000D03*
X94635000Y-65000000D03*
X94635000Y-64500000D03*
X94635000Y-64000000D03*
X94635000Y-63500000D03*
X94635000Y-62000000D03*
D16*
X97650000Y-62350000D03*
X93350000Y-62350000D03*
X97650000Y-67150000D03*
X93350000Y-67150000D03*
%TD*%
D89*
%TO.C,D201*%
X100500000Y-64050000D03*
X100500000Y-60050000D03*
%TD*%
D70*
%TO.C,C331*%
X82100000Y-54050000D03*
X82100000Y-52500000D03*
%TD*%
D90*
%TO.C,D401*%
X61662500Y-59550000D03*
X63537500Y-59550000D03*
%TD*%
D19*
%TO.C,R314*%
X83210000Y-61550000D03*
X82190000Y-61550000D03*
%TD*%
D29*
%TO.C,R311*%
X78290000Y-59250000D03*
X79310000Y-59250000D03*
%TD*%
D63*
%TO.C,R502*%
X97470000Y-44000000D03*
X97470000Y-45020000D03*
%TD*%
D62*
%TO.C,R401*%
X64900000Y-60060000D03*
X64900000Y-59040000D03*
%TD*%
D78*
%TO.C,C501*%
X99730000Y-50250000D03*
X98770000Y-50250000D03*
%TD*%
D79*
%TO.C,J206*%
X90135000Y-63250000D03*
X88865000Y-66250000D03*
%TD*%
D80*
%TO.C,J205*%
X65550000Y-57290000D03*
X61650000Y-57290000D03*
X65550000Y-56020000D03*
X61650000Y-56020000D03*
X65550000Y-54750000D03*
X61650000Y-54750000D03*
X65550000Y-53480000D03*
X61650000Y-53480000D03*
X65550000Y-52210000D03*
X61650000Y-52210000D03*
%TD*%
D91*
%TO.C,C402*%
X72350000Y-61450000D03*
X70450000Y-61450000D03*
%TD*%
D63*
%TO.C,R506*%
X96940000Y-49170000D03*
X96940000Y-50190000D03*
%TD*%
D92*
%TO.C,C326*%
X85725000Y-59650000D03*
X87275000Y-59650000D03*
%TD*%
D93*
%TO.C,U501*%
X99705000Y-48030000D03*
X99705000Y-47630000D03*
D94*
X99580000Y-47005000D03*
X99180000Y-47005000D03*
X98780000Y-47005000D03*
X98380000Y-47005000D03*
D93*
X98255000Y-47630000D03*
X98255000Y-48030000D03*
D94*
X98380000Y-48655000D03*
X98780000Y-48655000D03*
X99180000Y-48655000D03*
X99580000Y-48655000D03*
%TD*%
D19*
%TO.C,R309*%
X79310000Y-58250000D03*
X78290000Y-58250000D03*
%TD*%
D95*
%TO.C,L401*%
X67700000Y-64050000D03*
X64900000Y-64050000D03*
%TD*%
D42*
%TO.C,C330*%
X78320000Y-61550000D03*
X79280000Y-61550000D03*
%TD*%
M02*
