%TF.GenerationSoftware,KiCad,Pcbnew,(6.0.9)*%
%TF.CreationDate,2023-02-02T11:23:03+01:00*%
%TF.ProjectId,Stencil,5374656e-6369-46c2-9e6b-696361645f70,rev?*%
%TF.SameCoordinates,Original*%
%TF.FileFunction,Legend,Bot*%
%TF.FilePolarity,Positive*%
%FSLAX46Y46*%
G04 Gerber Fmt 4.6, Leading zero omitted, Abs format (unit mm)*
G04 Created by KiCad (PCBNEW (6.0.9)) date 2023-02-02 11:23:03*
%MOMM*%
%LPD*%
G01*
G04 APERTURE LIST*
G04 Aperture macros list*
%AMRoundRect*
0 Rectangle with rounded corners*
0 $1 Rounding radius*
0 $2 $3 $4 $5 $6 $7 $8 $9 X,Y pos of 4 corners*
0 Add a 4 corners polygon primitive as box body*
4,1,4,$2,$3,$4,$5,$6,$7,$8,$9,$2,$3,0*
0 Add four circle primitives for the rounded corners*
1,1,$1+$1,$2,$3*
1,1,$1+$1,$4,$5*
1,1,$1+$1,$6,$7*
1,1,$1+$1,$8,$9*
0 Add four rect primitives between the rounded corners*
20,1,$1+$1,$2,$3,$4,$5,0*
20,1,$1+$1,$4,$5,$6,$7,0*
20,1,$1+$1,$6,$7,$8,$9,0*
20,1,$1+$1,$8,$9,$2,$3,0*%
G04 Aperture macros list end*
%ADD10C,0.160000*%
%ADD11C,0.150000*%
%ADD12C,0.120000*%
%ADD13C,0.200000*%
%ADD14C,2.200000*%
%ADD15C,0.600000*%
%ADD16C,4.000000*%
%ADD17O,1.100000X2.200000*%
%ADD18R,1.000000X1.000000*%
%ADD19O,1.000000X1.000000*%
%ADD20R,0.850000X0.850000*%
%ADD21O,0.850000X0.850000*%
%ADD22C,0.520000*%
%ADD23RoundRect,0.135000X-0.135000X-0.185000X0.135000X-0.185000X0.135000X0.185000X-0.135000X0.185000X0*%
%ADD24RoundRect,0.250000X0.475000X-0.250000X0.475000X0.250000X-0.475000X0.250000X-0.475000X-0.250000X0*%
%ADD25RoundRect,0.225000X0.250000X-0.225000X0.250000X0.225000X-0.250000X0.225000X-0.250000X-0.225000X0*%
%ADD26RoundRect,0.250000X0.250000X0.475000X-0.250000X0.475000X-0.250000X-0.475000X0.250000X-0.475000X0*%
%ADD27RoundRect,0.150000X0.150000X0.625000X-0.150000X0.625000X-0.150000X-0.625000X0.150000X-0.625000X0*%
%ADD28RoundRect,0.250000X0.350000X0.650000X-0.350000X0.650000X-0.350000X-0.650000X0.350000X-0.650000X0*%
%ADD29RoundRect,0.135000X-0.185000X0.135000X-0.185000X-0.135000X0.185000X-0.135000X0.185000X0.135000X0*%
%ADD30RoundRect,0.250000X-0.250000X-0.475000X0.250000X-0.475000X0.250000X0.475000X-0.250000X0.475000X0*%
%ADD31RoundRect,0.140000X0.170000X-0.140000X0.170000X0.140000X-0.170000X0.140000X-0.170000X-0.140000X0*%
%ADD32R,2.100000X0.750000*%
%ADD33R,0.300000X0.400000*%
%ADD34R,0.430000X0.380000*%
%ADD35R,1.980000X2.450000*%
%ADD36R,0.500000X0.350000*%
%ADD37RoundRect,0.135000X0.185000X-0.135000X0.185000X0.135000X-0.185000X0.135000X-0.185000X-0.135000X0*%
%ADD38RoundRect,0.225000X-0.250000X0.225000X-0.250000X-0.225000X0.250000X-0.225000X0.250000X0.225000X0*%
%ADD39RoundRect,0.250000X-0.600000X-0.725000X0.600000X-0.725000X0.600000X0.725000X-0.600000X0.725000X0*%
%ADD40O,1.700000X1.950000*%
%ADD41RoundRect,0.140000X-0.170000X0.140000X-0.170000X-0.140000X0.170000X-0.140000X0.170000X0.140000X0*%
%ADD42RoundRect,0.218750X0.218750X0.256250X-0.218750X0.256250X-0.218750X-0.256250X0.218750X-0.256250X0*%
%ADD43RoundRect,0.135000X0.135000X0.185000X-0.135000X0.185000X-0.135000X-0.185000X0.135000X-0.185000X0*%
%ADD44RoundRect,0.200000X0.200000X0.275000X-0.200000X0.275000X-0.200000X-0.275000X0.200000X-0.275000X0*%
%ADD45RoundRect,0.150000X-0.625000X0.150000X-0.625000X-0.150000X0.625000X-0.150000X0.625000X0.150000X0*%
%ADD46RoundRect,0.250000X-0.650000X0.350000X-0.650000X-0.350000X0.650000X-0.350000X0.650000X0.350000X0*%
%ADD47RoundRect,0.150000X-0.512500X-0.150000X0.512500X-0.150000X0.512500X0.150000X-0.512500X0.150000X0*%
%ADD48R,1.700000X1.700000*%
%ADD49O,1.700000X1.700000*%
%ADD50RoundRect,0.250000X-0.312500X-0.625000X0.312500X-0.625000X0.312500X0.625000X-0.312500X0.625000X0*%
%ADD51RoundRect,0.140000X0.140000X0.170000X-0.140000X0.170000X-0.140000X-0.170000X0.140000X-0.170000X0*%
%ADD52R,1.350000X1.350000*%
%ADD53O,1.350000X1.350000*%
%ADD54RoundRect,0.250000X1.075000X-0.375000X1.075000X0.375000X-1.075000X0.375000X-1.075000X-0.375000X0*%
%ADD55RoundRect,0.150000X0.625000X-0.150000X0.625000X0.150000X-0.625000X0.150000X-0.625000X-0.150000X0*%
%ADD56RoundRect,0.250000X0.650000X-0.350000X0.650000X0.350000X-0.650000X0.350000X-0.650000X-0.350000X0*%
%ADD57RoundRect,0.225000X0.225000X0.250000X-0.225000X0.250000X-0.225000X-0.250000X0.225000X-0.250000X0*%
%ADD58R,0.650000X1.800000*%
%ADD59RoundRect,0.140000X-0.140000X-0.170000X0.140000X-0.170000X0.140000X0.170000X-0.140000X0.170000X0*%
%ADD60RoundRect,0.250000X0.625000X-0.312500X0.625000X0.312500X-0.625000X0.312500X-0.625000X-0.312500X0*%
%ADD61R,3.250000X5.000000*%
%ADD62C,6.500000*%
%ADD63R,6.300000X6.000000*%
%ADD64RoundRect,0.050000X0.337500X0.050000X-0.337500X0.050000X-0.337500X-0.050000X0.337500X-0.050000X0*%
%ADD65RoundRect,0.050000X0.050000X0.337500X-0.050000X0.337500X-0.050000X-0.337500X0.050000X-0.337500X0*%
%ADD66R,2.800000X2.800000*%
%ADD67R,0.380000X0.430000*%
%ADD68R,0.400000X0.300000*%
%ADD69R,2.450000X1.980000*%
%ADD70R,0.350000X0.500000*%
G04 APERTURE END LIST*
D10*
X139580838Y-82960851D02*
X139485600Y-82960851D01*
X139390362Y-83008471D01*
X139342743Y-83056090D01*
X139295124Y-83151328D01*
X139247505Y-83341804D01*
X139247505Y-83579899D01*
X139295124Y-83770375D01*
X139342743Y-83865613D01*
X139390362Y-83913232D01*
X139485600Y-83960851D01*
X139580838Y-83960851D01*
X139676076Y-83913232D01*
X139723695Y-83865613D01*
X139771314Y-83770375D01*
X139818933Y-83579899D01*
X139818933Y-83341804D01*
X139771314Y-83151328D01*
X139723695Y-83056090D01*
X139676076Y-83008471D01*
X139580838Y-82960851D01*
X138295124Y-83960851D02*
X138866552Y-83960851D01*
X138580838Y-83960851D02*
X138580838Y-82960851D01*
X138676076Y-83103709D01*
X138771314Y-83198947D01*
X138866552Y-83246566D01*
X128330838Y-82960851D02*
X128235600Y-82960851D01*
X128140362Y-83008471D01*
X128092743Y-83056090D01*
X128045124Y-83151328D01*
X127997505Y-83341804D01*
X127997505Y-83579899D01*
X128045124Y-83770375D01*
X128092743Y-83865613D01*
X128140362Y-83913232D01*
X128235600Y-83960851D01*
X128330838Y-83960851D01*
X128426076Y-83913232D01*
X128473695Y-83865613D01*
X128521314Y-83770375D01*
X128568933Y-83579899D01*
X128568933Y-83341804D01*
X128521314Y-83151328D01*
X128473695Y-83056090D01*
X128426076Y-83008471D01*
X128330838Y-82960851D01*
X127045124Y-83960851D02*
X127616552Y-83960851D01*
X127330838Y-83960851D02*
X127330838Y-82960851D01*
X127426076Y-83103709D01*
X127521314Y-83198947D01*
X127616552Y-83246566D01*
D11*
X171058607Y-115056702D02*
X171915750Y-115056702D01*
X172010988Y-115009083D01*
X172058607Y-114913845D01*
X172058607Y-114866226D01*
X170725273Y-115056702D02*
X170772893Y-115009083D01*
X170820512Y-115056702D01*
X170772893Y-115104321D01*
X170725273Y-115056702D01*
X170820512Y-115056702D01*
X171725273Y-115675750D02*
X171677654Y-115580512D01*
X171582416Y-115532893D01*
X170725273Y-115532893D01*
X171677654Y-116485273D02*
X171725273Y-116390035D01*
X171725273Y-116199559D01*
X171677654Y-116104321D01*
X171630035Y-116056702D01*
X171534797Y-116009083D01*
X171249083Y-116009083D01*
X171153845Y-116056702D01*
X171106226Y-116104321D01*
X171058607Y-116199559D01*
X171058607Y-116390035D01*
X171106226Y-116485273D01*
X171058607Y-116913845D02*
X171915750Y-116913845D01*
X172010988Y-116866226D01*
X172058607Y-116770988D01*
X172058607Y-116723369D01*
X170725273Y-116913845D02*
X170772893Y-116866226D01*
X170820512Y-116913845D01*
X170772893Y-116961464D01*
X170725273Y-116913845D01*
X170820512Y-116913845D01*
X171725273Y-117532893D02*
X171677654Y-117437654D01*
X171582416Y-117390035D01*
X170725273Y-117390035D01*
X171677654Y-118342416D02*
X171725273Y-118247178D01*
X171725273Y-118056702D01*
X171677654Y-117961464D01*
X171630035Y-117913845D01*
X171534797Y-117866226D01*
X171249083Y-117866226D01*
X171153845Y-117913845D01*
X171106226Y-117961464D01*
X171058607Y-118056702D01*
X171058607Y-118247178D01*
X171106226Y-118342416D01*
X171058607Y-118770988D02*
X171915750Y-118770988D01*
X172010988Y-118723369D01*
X172058607Y-118628131D01*
X172058607Y-118580512D01*
X170725273Y-118770988D02*
X170772893Y-118723369D01*
X170820512Y-118770988D01*
X170772893Y-118818607D01*
X170725273Y-118770988D01*
X170820512Y-118770988D01*
X171725273Y-119390035D02*
X171677654Y-119294797D01*
X171582416Y-119247178D01*
X170725273Y-119247178D01*
X171677654Y-120199559D02*
X171725273Y-120104321D01*
X171725273Y-119913845D01*
X171677654Y-119818607D01*
X171630035Y-119770988D01*
X171534797Y-119723369D01*
X171249083Y-119723369D01*
X171153845Y-119770988D01*
X171106226Y-119818607D01*
X171058607Y-119913845D01*
X171058607Y-120104321D01*
X171106226Y-120199559D01*
X171058607Y-120628131D02*
X171915750Y-120628131D01*
X172010988Y-120580512D01*
X172058607Y-120485273D01*
X172058607Y-120437654D01*
X170725273Y-120628131D02*
X170772893Y-120580512D01*
X170820512Y-120628131D01*
X170772893Y-120675750D01*
X170725273Y-120628131D01*
X170820512Y-120628131D01*
X171725273Y-121247178D02*
X171677654Y-121151940D01*
X171582416Y-121104321D01*
X170725273Y-121104321D01*
X171677654Y-122056702D02*
X171725273Y-121961464D01*
X171725273Y-121770988D01*
X171677654Y-121675750D01*
X171630035Y-121628131D01*
X171534797Y-121580512D01*
X171249083Y-121580512D01*
X171153845Y-121628131D01*
X171106226Y-121675750D01*
X171058607Y-121770988D01*
X171058607Y-121961464D01*
X171106226Y-122056702D01*
D10*
X128568933Y-79663232D02*
X128426076Y-79710851D01*
X128187981Y-79710851D01*
X128092743Y-79663232D01*
X128045124Y-79615613D01*
X127997505Y-79520375D01*
X127997505Y-79425137D01*
X128045124Y-79329899D01*
X128092743Y-79282280D01*
X128187981Y-79234661D01*
X128378457Y-79187042D01*
X128473695Y-79139423D01*
X128521314Y-79091804D01*
X128568933Y-78996566D01*
X128568933Y-78901328D01*
X128521314Y-78806090D01*
X128473695Y-78758471D01*
X128378457Y-78710851D01*
X128140362Y-78710851D01*
X127997505Y-78758471D01*
X127664171Y-78710851D02*
X127045124Y-78710851D01*
X127378457Y-79091804D01*
X127235600Y-79091804D01*
X127140362Y-79139423D01*
X127092743Y-79187042D01*
X127045124Y-79282280D01*
X127045124Y-79520375D01*
X127092743Y-79615613D01*
X127140362Y-79663232D01*
X127235600Y-79710851D01*
X127521314Y-79710851D01*
X127616552Y-79663232D01*
X127664171Y-79615613D01*
X188521428Y-101028571D02*
X188378571Y-101076190D01*
X188330952Y-101123809D01*
X188283333Y-101219047D01*
X188283333Y-101361904D01*
X188330952Y-101457142D01*
X188378571Y-101504761D01*
X188473809Y-101552380D01*
X188854761Y-101552380D01*
X188854761Y-100552380D01*
X188521428Y-100552380D01*
X188426190Y-100600000D01*
X188378571Y-100647619D01*
X188330952Y-100742857D01*
X188330952Y-100838095D01*
X188378571Y-100933333D01*
X188426190Y-100980952D01*
X188521428Y-101028571D01*
X188854761Y-101028571D01*
X187426190Y-101552380D02*
X187426190Y-101028571D01*
X187473809Y-100933333D01*
X187569047Y-100885714D01*
X187759523Y-100885714D01*
X187854761Y-100933333D01*
X187426190Y-101504761D02*
X187521428Y-101552380D01*
X187759523Y-101552380D01*
X187854761Y-101504761D01*
X187902380Y-101409523D01*
X187902380Y-101314285D01*
X187854761Y-101219047D01*
X187759523Y-101171428D01*
X187521428Y-101171428D01*
X187426190Y-101123809D01*
X187092857Y-100885714D02*
X186711904Y-100885714D01*
X186950000Y-100552380D02*
X186950000Y-101409523D01*
X186902380Y-101504761D01*
X186807142Y-101552380D01*
X186711904Y-101552380D01*
X186521428Y-100885714D02*
X186140476Y-100885714D01*
X186378571Y-100552380D02*
X186378571Y-101409523D01*
X186330952Y-101504761D01*
X186235714Y-101552380D01*
X186140476Y-101552380D01*
X185426190Y-101504761D02*
X185521428Y-101552380D01*
X185711904Y-101552380D01*
X185807142Y-101504761D01*
X185854761Y-101409523D01*
X185854761Y-101028571D01*
X185807142Y-100933333D01*
X185711904Y-100885714D01*
X185521428Y-100885714D01*
X185426190Y-100933333D01*
X185378571Y-101028571D01*
X185378571Y-101123809D01*
X185854761Y-101219047D01*
X184950000Y-101552380D02*
X184950000Y-100885714D01*
X184950000Y-101076190D02*
X184902380Y-100980952D01*
X184854761Y-100933333D01*
X184759523Y-100885714D01*
X184664285Y-100885714D01*
X184426190Y-100885714D02*
X184188095Y-101552380D01*
X183950000Y-100885714D02*
X184188095Y-101552380D01*
X184283333Y-101790476D01*
X184330952Y-101838095D01*
X184426190Y-101885714D01*
X200902380Y-77611904D02*
X201616666Y-77611904D01*
X201759523Y-77564285D01*
X201854761Y-77469047D01*
X201902380Y-77326190D01*
X201902380Y-77230952D01*
X201902380Y-78088095D02*
X200902380Y-78088095D01*
X201616666Y-78421428D01*
X200902380Y-78754761D01*
X201902380Y-78754761D01*
X201902380Y-80469047D02*
X201902380Y-79992857D01*
X200902380Y-79992857D01*
X201902380Y-80802380D02*
X201235714Y-80802380D01*
X200902380Y-80802380D02*
X200950000Y-80754761D01*
X200997619Y-80802380D01*
X200950000Y-80850000D01*
X200902380Y-80802380D01*
X200997619Y-80802380D01*
X201854761Y-81659523D02*
X201902380Y-81564285D01*
X201902380Y-81373809D01*
X201854761Y-81278571D01*
X201759523Y-81230952D01*
X201378571Y-81230952D01*
X201283333Y-81278571D01*
X201235714Y-81373809D01*
X201235714Y-81564285D01*
X201283333Y-81659523D01*
X201378571Y-81707142D01*
X201473809Y-81707142D01*
X201569047Y-81230952D01*
X201235714Y-82040476D02*
X201902380Y-82230952D01*
X201426190Y-82421428D01*
X201902380Y-82611904D01*
X201235714Y-82802380D01*
X201854761Y-83564285D02*
X201902380Y-83469047D01*
X201902380Y-83278571D01*
X201854761Y-83183333D01*
X201759523Y-83135714D01*
X201378571Y-83135714D01*
X201283333Y-83183333D01*
X201235714Y-83278571D01*
X201235714Y-83469047D01*
X201283333Y-83564285D01*
X201378571Y-83611904D01*
X201473809Y-83611904D01*
X201569047Y-83135714D01*
X201854761Y-83992857D02*
X201902380Y-84088095D01*
X201902380Y-84278571D01*
X201854761Y-84373809D01*
X201759523Y-84421428D01*
X201711904Y-84421428D01*
X201616666Y-84373809D01*
X201569047Y-84278571D01*
X201569047Y-84135714D01*
X201521428Y-84040476D01*
X201426190Y-83992857D01*
X201378571Y-83992857D01*
X201283333Y-84040476D01*
X201235714Y-84135714D01*
X201235714Y-84278571D01*
X201283333Y-84373809D01*
X184126190Y-75735714D02*
X184126190Y-76592857D01*
X184173809Y-76688095D01*
X184269047Y-76735714D01*
X184316666Y-76735714D01*
X184126190Y-75402380D02*
X184173809Y-75450000D01*
X184126190Y-75497619D01*
X184078571Y-75450000D01*
X184126190Y-75402380D01*
X184126190Y-75497619D01*
X183507142Y-76402380D02*
X183602380Y-76354761D01*
X183650000Y-76259523D01*
X183650000Y-75402380D01*
X182697619Y-76354761D02*
X182792857Y-76402380D01*
X182983333Y-76402380D01*
X183078571Y-76354761D01*
X183126190Y-76307142D01*
X183173809Y-76211904D01*
X183173809Y-75926190D01*
X183126190Y-75830952D01*
X183078571Y-75783333D01*
X182983333Y-75735714D01*
X182792857Y-75735714D01*
X182697619Y-75783333D01*
X182269047Y-75735714D02*
X182269047Y-76592857D01*
X182316666Y-76688095D01*
X182411904Y-76735714D01*
X182459523Y-76735714D01*
X182269047Y-75402380D02*
X182316666Y-75450000D01*
X182269047Y-75497619D01*
X182221428Y-75450000D01*
X182269047Y-75402380D01*
X182269047Y-75497619D01*
X181650000Y-76402380D02*
X181745238Y-76354761D01*
X181792857Y-76259523D01*
X181792857Y-75402380D01*
X180840476Y-76354761D02*
X180935714Y-76402380D01*
X181126190Y-76402380D01*
X181221428Y-76354761D01*
X181269047Y-76307142D01*
X181316666Y-76211904D01*
X181316666Y-75926190D01*
X181269047Y-75830952D01*
X181221428Y-75783333D01*
X181126190Y-75735714D01*
X180935714Y-75735714D01*
X180840476Y-75783333D01*
X180411904Y-75735714D02*
X180411904Y-76592857D01*
X180459523Y-76688095D01*
X180554761Y-76735714D01*
X180602380Y-76735714D01*
X180411904Y-75402380D02*
X180459523Y-75450000D01*
X180411904Y-75497619D01*
X180364285Y-75450000D01*
X180411904Y-75402380D01*
X180411904Y-75497619D01*
X179792857Y-76402380D02*
X179888095Y-76354761D01*
X179935714Y-76259523D01*
X179935714Y-75402380D01*
X178983333Y-76354761D02*
X179078571Y-76402380D01*
X179269047Y-76402380D01*
X179364285Y-76354761D01*
X179411904Y-76307142D01*
X179459523Y-76211904D01*
X179459523Y-75926190D01*
X179411904Y-75830952D01*
X179364285Y-75783333D01*
X179269047Y-75735714D01*
X179078571Y-75735714D01*
X178983333Y-75783333D01*
X178554761Y-75735714D02*
X178554761Y-76592857D01*
X178602380Y-76688095D01*
X178697619Y-76735714D01*
X178745238Y-76735714D01*
X178554761Y-75402380D02*
X178602380Y-75450000D01*
X178554761Y-75497619D01*
X178507142Y-75450000D01*
X178554761Y-75402380D01*
X178554761Y-75497619D01*
X177935714Y-76402380D02*
X178030952Y-76354761D01*
X178078571Y-76259523D01*
X178078571Y-75402380D01*
X177126190Y-76354761D02*
X177221428Y-76402380D01*
X177411904Y-76402380D01*
X177507142Y-76354761D01*
X177554761Y-76307142D01*
X177602380Y-76211904D01*
X177602380Y-75926190D01*
X177554761Y-75830952D01*
X177507142Y-75783333D01*
X177411904Y-75735714D01*
X177221428Y-75735714D01*
X177126190Y-75783333D01*
X131830838Y-82960851D02*
X131735600Y-82960851D01*
X131640362Y-83008471D01*
X131592743Y-83056090D01*
X131545124Y-83151328D01*
X131497505Y-83341804D01*
X131497505Y-83579899D01*
X131545124Y-83770375D01*
X131592743Y-83865613D01*
X131640362Y-83913232D01*
X131735600Y-83960851D01*
X131830838Y-83960851D01*
X131926076Y-83913232D01*
X131973695Y-83865613D01*
X132021314Y-83770375D01*
X132068933Y-83579899D01*
X132068933Y-83341804D01*
X132021314Y-83151328D01*
X131973695Y-83056090D01*
X131926076Y-83008471D01*
X131830838Y-82960851D01*
X130545124Y-83960851D02*
X131116552Y-83960851D01*
X130830838Y-83960851D02*
X130830838Y-82960851D01*
X130926076Y-83103709D01*
X131021314Y-83198947D01*
X131116552Y-83246566D01*
X139818933Y-79663232D02*
X139676076Y-79710851D01*
X139437981Y-79710851D01*
X139342743Y-79663232D01*
X139295124Y-79615613D01*
X139247505Y-79520375D01*
X139247505Y-79425137D01*
X139295124Y-79329899D01*
X139342743Y-79282280D01*
X139437981Y-79234661D01*
X139628457Y-79187042D01*
X139723695Y-79139423D01*
X139771314Y-79091804D01*
X139818933Y-78996566D01*
X139818933Y-78901328D01*
X139771314Y-78806090D01*
X139723695Y-78758471D01*
X139628457Y-78710851D01*
X139390362Y-78710851D01*
X139247505Y-78758471D01*
X138295124Y-79710851D02*
X138866552Y-79710851D01*
X138580838Y-79710851D02*
X138580838Y-78710851D01*
X138676076Y-78853709D01*
X138771314Y-78948947D01*
X138866552Y-78996566D01*
X167642857Y-74497380D02*
X168119047Y-74497380D01*
X168119047Y-73497380D01*
X167309523Y-73973571D02*
X166976190Y-73973571D01*
X166833333Y-74497380D02*
X167309523Y-74497380D01*
X167309523Y-73497380D01*
X166833333Y-73497380D01*
X166404761Y-74497380D02*
X166404761Y-73497380D01*
X166166666Y-73497380D01*
X166023809Y-73545000D01*
X165928571Y-73640238D01*
X165880952Y-73735476D01*
X165833333Y-73925952D01*
X165833333Y-74068809D01*
X165880952Y-74259285D01*
X165928571Y-74354523D01*
X166023809Y-74449761D01*
X166166666Y-74497380D01*
X166404761Y-74497380D01*
X168928571Y-75440714D02*
X168928571Y-76440714D01*
X168928571Y-75488333D02*
X168833333Y-75440714D01*
X168642857Y-75440714D01*
X168547619Y-75488333D01*
X168500000Y-75535952D01*
X168452380Y-75631190D01*
X168452380Y-75916904D01*
X168500000Y-76012142D01*
X168547619Y-76059761D01*
X168642857Y-76107380D01*
X168833333Y-76107380D01*
X168928571Y-76059761D01*
X167880952Y-76107380D02*
X167976190Y-76059761D01*
X168023809Y-76012142D01*
X168071428Y-75916904D01*
X168071428Y-75631190D01*
X168023809Y-75535952D01*
X167976190Y-75488333D01*
X167880952Y-75440714D01*
X167738095Y-75440714D01*
X167642857Y-75488333D01*
X167595238Y-75535952D01*
X167547619Y-75631190D01*
X167547619Y-75916904D01*
X167595238Y-76012142D01*
X167642857Y-76059761D01*
X167738095Y-76107380D01*
X167880952Y-76107380D01*
X167214285Y-75440714D02*
X167023809Y-76107380D01*
X166833333Y-75631190D01*
X166642857Y-76107380D01*
X166452380Y-75440714D01*
X165690476Y-76059761D02*
X165785714Y-76107380D01*
X165976190Y-76107380D01*
X166071428Y-76059761D01*
X166119047Y-75964523D01*
X166119047Y-75583571D01*
X166071428Y-75488333D01*
X165976190Y-75440714D01*
X165785714Y-75440714D01*
X165690476Y-75488333D01*
X165642857Y-75583571D01*
X165642857Y-75678809D01*
X166119047Y-75774047D01*
X165214285Y-76107380D02*
X165214285Y-75440714D01*
X165214285Y-75631190D02*
X165166666Y-75535952D01*
X165119047Y-75488333D01*
X165023809Y-75440714D01*
X164928571Y-75440714D01*
X198378571Y-78450000D02*
X198426190Y-78592857D01*
X198473809Y-78640476D01*
X198569047Y-78688095D01*
X198711904Y-78688095D01*
X198807142Y-78640476D01*
X198854761Y-78592857D01*
X198902380Y-78497619D01*
X198902380Y-78116666D01*
X197902380Y-78116666D01*
X197902380Y-78450000D01*
X197950000Y-78545238D01*
X197997619Y-78592857D01*
X198092857Y-78640476D01*
X198188095Y-78640476D01*
X198283333Y-78592857D01*
X198330952Y-78545238D01*
X198378571Y-78450000D01*
X198378571Y-78116666D01*
X198902380Y-79116666D02*
X197902380Y-79116666D01*
X198616666Y-79450000D01*
X197902380Y-79783333D01*
X198902380Y-79783333D01*
X197902380Y-80878571D02*
X198902380Y-81211904D01*
X197902380Y-81545238D01*
X197902380Y-82069047D02*
X197902380Y-82164285D01*
X197950000Y-82259523D01*
X197997619Y-82307142D01*
X198092857Y-82354761D01*
X198283333Y-82402380D01*
X198521428Y-82402380D01*
X198711904Y-82354761D01*
X198807142Y-82307142D01*
X198854761Y-82259523D01*
X198902380Y-82164285D01*
X198902380Y-82069047D01*
X198854761Y-81973809D01*
X198807142Y-81926190D01*
X198711904Y-81878571D01*
X198521428Y-81830952D01*
X198283333Y-81830952D01*
X198092857Y-81878571D01*
X197997619Y-81926190D01*
X197950000Y-81973809D01*
X197902380Y-82069047D01*
X198807142Y-82830952D02*
X198854761Y-82878571D01*
X198902380Y-82830952D01*
X198854761Y-82783333D01*
X198807142Y-82830952D01*
X198902380Y-82830952D01*
X197902380Y-83211904D02*
X197902380Y-83830952D01*
X198283333Y-83497619D01*
X198283333Y-83640476D01*
X198330952Y-83735714D01*
X198378571Y-83783333D01*
X198473809Y-83830952D01*
X198711904Y-83830952D01*
X198807142Y-83783333D01*
X198854761Y-83735714D01*
X198902380Y-83640476D01*
X198902380Y-83354761D01*
X198854761Y-83259523D01*
X198807142Y-83211904D01*
X132068933Y-79663232D02*
X131926076Y-79710851D01*
X131687981Y-79710851D01*
X131592743Y-79663232D01*
X131545124Y-79615613D01*
X131497505Y-79520375D01*
X131497505Y-79425137D01*
X131545124Y-79329899D01*
X131592743Y-79282280D01*
X131687981Y-79234661D01*
X131878457Y-79187042D01*
X131973695Y-79139423D01*
X132021314Y-79091804D01*
X132068933Y-78996566D01*
X132068933Y-78901328D01*
X132021314Y-78806090D01*
X131973695Y-78758471D01*
X131878457Y-78710851D01*
X131640362Y-78710851D01*
X131497505Y-78758471D01*
X131116552Y-78806090D02*
X131068933Y-78758471D01*
X130973695Y-78710851D01*
X130735600Y-78710851D01*
X130640362Y-78758471D01*
X130592743Y-78806090D01*
X130545124Y-78901328D01*
X130545124Y-78996566D01*
X130592743Y-79139423D01*
X131164171Y-79710851D01*
X130545124Y-79710851D01*
D11*
%TO.C,J101*%
X197478607Y-121245273D02*
X197478607Y-121959559D01*
X197526226Y-122102416D01*
X197621464Y-122197654D01*
X197764321Y-122245273D01*
X197859559Y-122245273D01*
X196478607Y-122245273D02*
X197050035Y-122245273D01*
X196764321Y-122245273D02*
X196764321Y-121245273D01*
X196859559Y-121388131D01*
X196954797Y-121483369D01*
X197050035Y-121530988D01*
X195859559Y-121245273D02*
X195764321Y-121245273D01*
X195669083Y-121292893D01*
X195621464Y-121340512D01*
X195573845Y-121435750D01*
X195526226Y-121626226D01*
X195526226Y-121864321D01*
X195573845Y-122054797D01*
X195621464Y-122150035D01*
X195669083Y-122197654D01*
X195764321Y-122245273D01*
X195859559Y-122245273D01*
X195954797Y-122197654D01*
X196002416Y-122150035D01*
X196050035Y-122054797D01*
X196097654Y-121864321D01*
X196097654Y-121626226D01*
X196050035Y-121435750D01*
X196002416Y-121340512D01*
X195954797Y-121292893D01*
X195859559Y-121245273D01*
X194573845Y-122245273D02*
X195145273Y-122245273D01*
X194859559Y-122245273D02*
X194859559Y-121245273D01*
X194954797Y-121388131D01*
X195050035Y-121483369D01*
X195145273Y-121530988D01*
%TO.C,J102*%
X171278607Y-113445273D02*
X171278607Y-114159559D01*
X171326226Y-114302416D01*
X171421464Y-114397654D01*
X171564321Y-114445273D01*
X171659559Y-114445273D01*
X170278607Y-114445273D02*
X170850035Y-114445273D01*
X170564321Y-114445273D02*
X170564321Y-113445273D01*
X170659559Y-113588131D01*
X170754797Y-113683369D01*
X170850035Y-113730988D01*
X169659559Y-113445273D02*
X169564321Y-113445273D01*
X169469083Y-113492893D01*
X169421464Y-113540512D01*
X169373845Y-113635750D01*
X169326226Y-113826226D01*
X169326226Y-114064321D01*
X169373845Y-114254797D01*
X169421464Y-114350035D01*
X169469083Y-114397654D01*
X169564321Y-114445273D01*
X169659559Y-114445273D01*
X169754797Y-114397654D01*
X169802416Y-114350035D01*
X169850035Y-114254797D01*
X169897654Y-114064321D01*
X169897654Y-113826226D01*
X169850035Y-113635750D01*
X169802416Y-113540512D01*
X169754797Y-113492893D01*
X169659559Y-113445273D01*
X168945273Y-113540512D02*
X168897654Y-113492893D01*
X168802416Y-113445273D01*
X168564321Y-113445273D01*
X168469083Y-113492893D01*
X168421464Y-113540512D01*
X168373845Y-113635750D01*
X168373845Y-113730988D01*
X168421464Y-113873845D01*
X168992893Y-114445273D01*
X168373845Y-114445273D01*
D12*
%TO.C,R304*%
X138153388Y-90028471D02*
X138460670Y-90028471D01*
X138153388Y-90788471D02*
X138460670Y-90788471D01*
%TO.C,C301*%
X127322029Y-69019723D02*
X127322029Y-68497219D01*
X128792029Y-69019723D02*
X128792029Y-68497219D01*
%TO.C,C404*%
X122567029Y-71149051D02*
X122567029Y-70867891D01*
X121547029Y-71149051D02*
X121547029Y-70867891D01*
%TO.C,C320*%
X172511252Y-83115000D02*
X171988748Y-83115000D01*
X172511252Y-84585000D02*
X171988748Y-84585000D01*
%TO.C,J207*%
X142417029Y-95423471D02*
X141367029Y-95423471D01*
X142417029Y-97923471D02*
X142417029Y-95423471D01*
X136197029Y-95423471D02*
X137247029Y-95423471D01*
X136197029Y-97923471D02*
X136197029Y-95423471D01*
X141247029Y-99893471D02*
X137367029Y-99893471D01*
X141367029Y-95423471D02*
X141367029Y-94433471D01*
%TO.C,R306*%
X176170000Y-87996359D02*
X176170000Y-88303641D01*
X176930000Y-87996359D02*
X176930000Y-88303641D01*
%TO.C,C304*%
X193488748Y-85585000D02*
X194011252Y-85585000D01*
X193488748Y-84115000D02*
X194011252Y-84115000D01*
%TO.C,C319*%
X172511252Y-82585000D02*
X171988748Y-82585000D01*
X172511252Y-81115000D02*
X171988748Y-81115000D01*
%TO.C,C309*%
X187390000Y-76957836D02*
X187390000Y-76742164D01*
X188110000Y-76957836D02*
X188110000Y-76742164D01*
%TO.C,R303*%
X138153388Y-91228471D02*
X138460670Y-91228471D01*
X138153388Y-91988471D02*
X138460670Y-91988471D01*
%TO.C,J203*%
X114077029Y-84243471D02*
X114077029Y-84183471D01*
X116737029Y-84243471D02*
X116737029Y-84183471D01*
X114077029Y-84243471D02*
X116737029Y-84243471D01*
X114077029Y-77833471D02*
X114077029Y-77773471D01*
X116737029Y-77833471D02*
X116737029Y-77773471D01*
X114077029Y-77773471D02*
X116737029Y-77773471D01*
X116737029Y-84183471D02*
X118197029Y-84183471D01*
%TO.C,Q304*%
X173170711Y-75850000D02*
G75*
G03*
X173170711Y-75850000I-70711J0D01*
G01*
%TO.C,R318*%
X182170000Y-88203641D02*
X182170000Y-87896359D01*
X182930000Y-88203641D02*
X182930000Y-87896359D01*
%TO.C,C101*%
X178982893Y-120052313D02*
X178982893Y-120333473D01*
X180002893Y-120052313D02*
X180002893Y-120333473D01*
%TO.C,J208*%
X187550000Y-60625000D02*
X180750000Y-60625000D01*
X176500000Y-65075000D02*
X185000000Y-65075000D01*
X172900000Y-66125000D02*
X172900000Y-64875000D01*
X185000000Y-65825000D02*
X176500000Y-65825000D01*
X187550000Y-63575000D02*
X187550000Y-60625000D01*
X173200000Y-65825000D02*
X173200000Y-65075000D01*
X185000000Y-65075000D02*
X185000000Y-65825000D01*
X175000000Y-65825000D02*
X173200000Y-65825000D01*
X173200000Y-63575000D02*
X173950000Y-63575000D01*
X175000000Y-65075000D02*
X175000000Y-65825000D01*
X186500000Y-65825000D02*
X186500000Y-65075000D01*
X188310000Y-59865000D02*
X188310000Y-65835000D01*
X173190000Y-65835000D02*
X173190000Y-59865000D01*
X188300000Y-63575000D02*
X187550000Y-63575000D01*
X173950000Y-60625000D02*
X180750000Y-60625000D01*
X188300000Y-65075000D02*
X188300000Y-65825000D01*
X174150000Y-66125000D02*
X172900000Y-66125000D01*
X173190000Y-59865000D02*
X188310000Y-59865000D01*
X188310000Y-65835000D02*
X173190000Y-65835000D01*
X173950000Y-63575000D02*
X173950000Y-60625000D01*
X186500000Y-65075000D02*
X188300000Y-65075000D01*
X176500000Y-65825000D02*
X176500000Y-65075000D01*
X173200000Y-65075000D02*
X175000000Y-65075000D01*
X188300000Y-65825000D02*
X186500000Y-65825000D01*
%TO.C,R318*%
X141153388Y-81628471D02*
X141460670Y-81628471D01*
X141153388Y-82388471D02*
X141460670Y-82388471D01*
%TO.C,C317*%
X167288748Y-79115000D02*
X167811252Y-79115000D01*
X167288748Y-80585000D02*
X167811252Y-80585000D01*
%TO.C,C407*%
X163311252Y-85885000D02*
X162788748Y-85885000D01*
X163311252Y-84415000D02*
X162788748Y-84415000D01*
%TO.C,C318*%
X172511252Y-79115000D02*
X171988748Y-79115000D01*
X172511252Y-80585000D02*
X171988748Y-80585000D01*
%TO.C,R317*%
X158970000Y-81396359D02*
X158970000Y-81703641D01*
X159730000Y-81396359D02*
X159730000Y-81703641D01*
%TO.C,C332*%
X181910000Y-87942164D02*
X181910000Y-88157836D01*
X181190000Y-87942164D02*
X181190000Y-88157836D01*
%TO.C,F201*%
X191912779Y-87110000D02*
X191587221Y-87110000D01*
X191912779Y-86090000D02*
X191587221Y-86090000D01*
%TO.C,C307*%
X188011252Y-80615000D02*
X187488748Y-80615000D01*
X188011252Y-82085000D02*
X187488748Y-82085000D01*
%TO.C,R317*%
X126927029Y-81104830D02*
X126927029Y-81412112D01*
X127687029Y-81104830D02*
X127687029Y-81412112D01*
%TO.C,R305*%
X174030000Y-88096359D02*
X174030000Y-88403641D01*
X173270000Y-88096359D02*
X173270000Y-88403641D01*
%TO.C,C314*%
X167288748Y-77115000D02*
X167811252Y-77115000D01*
X167288748Y-78585000D02*
X167811252Y-78585000D01*
%TO.C,R202*%
X197796359Y-91330000D02*
X198103641Y-91330000D01*
X197796359Y-90570000D02*
X198103641Y-90570000D01*
%TO.C,R312*%
X185653641Y-88720000D02*
X185346359Y-88720000D01*
X185653641Y-89480000D02*
X185346359Y-89480000D01*
%TO.C,R307*%
X188187258Y-87672500D02*
X187712742Y-87672500D01*
X188187258Y-86627500D02*
X187712742Y-86627500D01*
%TO.C,R404*%
X154187029Y-76272112D02*
X154187029Y-75964830D01*
X153427029Y-76272112D02*
X153427029Y-75964830D01*
%TO.C,C406*%
X162588748Y-91385000D02*
X163111252Y-91385000D01*
X162588748Y-89915000D02*
X163111252Y-89915000D01*
%TO.C,Q303*%
X169470711Y-74100000D02*
G75*
G03*
X169470711Y-74100000I-70711J0D01*
G01*
%TO.C,C306*%
X188011252Y-84085000D02*
X187488748Y-84085000D01*
X188011252Y-82615000D02*
X187488748Y-82615000D01*
%TO.C,R316*%
X197430000Y-80196359D02*
X197430000Y-80503641D01*
X196670000Y-80196359D02*
X196670000Y-80503641D01*
%TO.C,J101*%
X192007893Y-121002893D02*
X189507893Y-121002893D01*
X192007893Y-114782893D02*
X189507893Y-114782893D01*
X189507893Y-115832893D02*
X188517893Y-115832893D01*
X189507893Y-121002893D02*
X189507893Y-119952893D01*
X193977893Y-115952893D02*
X193977893Y-119832893D01*
X189507893Y-114782893D02*
X189507893Y-115832893D01*
%TO.C,Q302*%
X192280711Y-68100000D02*
G75*
G03*
X192280711Y-68100000I-70711J0D01*
G01*
D13*
%TO.C,J202*%
X161178501Y-69940990D02*
X167577817Y-63541674D01*
D12*
X170971930Y-64885177D02*
X170264823Y-64178070D01*
X162946268Y-72203732D02*
X162380583Y-72769417D01*
D13*
X165209010Y-73971499D02*
X171608326Y-67572183D01*
X161178501Y-69940990D02*
X165209010Y-73971499D01*
X171608326Y-64743755D02*
X171608326Y-67572183D01*
X170406245Y-63541674D02*
X171608326Y-64743755D01*
X170406245Y-63541674D02*
X167577817Y-63541674D01*
D12*
X162380583Y-72203732D02*
X162946268Y-72769417D01*
%TO.C,C401*%
X118817029Y-74399051D02*
X118817029Y-74117891D01*
X117797029Y-74399051D02*
X117797029Y-74117891D01*
%TO.C,R102*%
X179442806Y-130416447D02*
X179750088Y-130416447D01*
X179442806Y-131176447D02*
X179750088Y-131176447D01*
%TO.C,C333*%
X162790000Y-81657836D02*
X162790000Y-81442164D01*
X163510000Y-81657836D02*
X163510000Y-81442164D01*
%TO.C,R405*%
X150527029Y-75954830D02*
X150527029Y-76262112D01*
X151287029Y-75954830D02*
X151287029Y-76262112D01*
%TO.C,R302*%
X188346359Y-79230000D02*
X188653641Y-79230000D01*
X188346359Y-78470000D02*
X188653641Y-78470000D01*
%TO.C,C316*%
X167288748Y-82585000D02*
X167811252Y-82585000D01*
X167288748Y-81115000D02*
X167811252Y-81115000D01*
%TO.C,R319*%
X141153388Y-81138471D02*
X141460670Y-81138471D01*
X141153388Y-80378471D02*
X141460670Y-80378471D01*
%TO.C,U402*%
X163100000Y-86352500D02*
X163900000Y-86352500D01*
X163100000Y-89472500D02*
X161300000Y-89472500D01*
X163100000Y-86352500D02*
X162300000Y-86352500D01*
X163100000Y-89472500D02*
X163900000Y-89472500D01*
%TO.C,J102*%
X184141447Y-129516447D02*
X186741447Y-129516447D01*
X184141447Y-132176447D02*
X186741447Y-132176447D01*
X181541447Y-129516447D02*
X181541447Y-130846447D01*
X186741447Y-129516447D02*
X186741447Y-132176447D01*
X182871447Y-129516447D02*
X181541447Y-129516447D01*
X184141447Y-129516447D02*
X184141447Y-132176447D01*
%TO.C,R304*%
X174322936Y-91260000D02*
X175777064Y-91260000D01*
X174322936Y-89440000D02*
X175777064Y-89440000D01*
%TO.C,R401*%
X152453388Y-71128471D02*
X152760670Y-71128471D01*
X152453388Y-71888471D02*
X152760670Y-71888471D01*
%TO.C,C312*%
X182357836Y-79690000D02*
X182142164Y-79690000D01*
X182357836Y-80410000D02*
X182142164Y-80410000D01*
%TO.C,R316*%
X131187029Y-81104830D02*
X131187029Y-81412112D01*
X130427029Y-81104830D02*
X130427029Y-81412112D01*
%TO.C,J209*%
X191450000Y-95390000D02*
X189390000Y-95390000D01*
X192450000Y-97510000D02*
X193510000Y-97510000D01*
X191450000Y-97510000D02*
X189390000Y-97510000D01*
X191450000Y-97510000D02*
X191450000Y-95390000D01*
X189390000Y-97510000D02*
X189390000Y-95390000D01*
X193510000Y-97510000D02*
X193510000Y-96450000D01*
%TO.C,L402*%
X168110000Y-88552064D02*
X168110000Y-87347936D01*
X165390000Y-88552064D02*
X165390000Y-87347936D01*
%TO.C,C325*%
X184860000Y-80790580D02*
X184860000Y-80509420D01*
X183840000Y-80790580D02*
X183840000Y-80509420D01*
%TO.C,R402*%
X150453388Y-69628471D02*
X150760670Y-69628471D01*
X150453388Y-70388471D02*
X150760670Y-70388471D01*
%TO.C,R101*%
X179442806Y-132476447D02*
X179750088Y-132476447D01*
X179442806Y-131716447D02*
X179750088Y-131716447D01*
%TO.C,R305*%
X139177029Y-81412112D02*
X139177029Y-81104830D01*
X139937029Y-81412112D02*
X139937029Y-81104830D01*
%TO.C,C403*%
X117797029Y-71149051D02*
X117797029Y-70867891D01*
X118817029Y-71149051D02*
X118817029Y-70867891D01*
%TO.C,R315*%
X138937029Y-81104830D02*
X138937029Y-81412112D01*
X138177029Y-81104830D02*
X138177029Y-81412112D01*
%TO.C,R201*%
X197796359Y-92530000D02*
X198103641Y-92530000D01*
X197796359Y-91770000D02*
X198103641Y-91770000D01*
%TO.C,C402*%
X122567029Y-74399051D02*
X122567029Y-74117891D01*
X121547029Y-74399051D02*
X121547029Y-74117891D01*
%TO.C,R306*%
X131427029Y-81412112D02*
X131427029Y-81104830D01*
X132187029Y-81412112D02*
X132187029Y-81104830D01*
%TO.C,C305*%
X188011252Y-86085000D02*
X187488748Y-86085000D01*
X188011252Y-84615000D02*
X187488748Y-84615000D01*
%TO.C,J102*%
X174577893Y-114782893D02*
X177077893Y-114782893D01*
X177077893Y-119952893D02*
X178067893Y-119952893D01*
X177077893Y-121002893D02*
X177077893Y-119952893D01*
X174577893Y-121002893D02*
X177077893Y-121002893D01*
X172607893Y-119832893D02*
X172607893Y-115952893D01*
X177077893Y-114782893D02*
X177077893Y-115832893D01*
%TO.C,R505*%
X196826359Y-76940000D02*
X197133641Y-76940000D01*
X196826359Y-76180000D02*
X197133641Y-76180000D01*
%TO.C,C103*%
X187702893Y-115733473D02*
X187702893Y-115452313D01*
X186682893Y-115733473D02*
X186682893Y-115452313D01*
%TO.C,C322*%
X171290580Y-90840000D02*
X171009420Y-90840000D01*
X171290580Y-91860000D02*
X171009420Y-91860000D01*
%TO.C,R411*%
X148470670Y-68138471D02*
X148163388Y-68138471D01*
X148470670Y-67378471D02*
X148163388Y-67378471D01*
%TO.C,J206*%
X132352029Y-68548471D02*
X133722029Y-68548471D01*
X137432029Y-68548471D02*
X137717029Y-68548471D01*
X134892029Y-68548471D02*
X136262029Y-68548471D01*
X130897029Y-68548471D02*
X130897029Y-70468471D01*
X131182029Y-67318471D02*
X131182029Y-68548471D01*
X130897029Y-68548471D02*
X131182029Y-68548471D01*
X130897029Y-70468471D02*
X132452029Y-70468471D01*
X133622029Y-70468471D02*
X134992029Y-70468471D01*
X136162029Y-70468471D02*
X137717029Y-70468471D01*
X137717029Y-68548471D02*
X137717029Y-70468471D01*
%TO.C,J202*%
X142812029Y-91968471D02*
X142812029Y-90048471D01*
X142812029Y-90048471D02*
X141257029Y-90048471D01*
X139802029Y-91968471D02*
X139802029Y-90048471D01*
X142812029Y-91968471D02*
X142527029Y-91968471D01*
X140087029Y-90048471D02*
X139802029Y-90048471D01*
X141357029Y-91968471D02*
X139802029Y-91968471D01*
X142527029Y-93198471D02*
X142527029Y-91968471D01*
%TO.C,C315*%
X167288748Y-84585000D02*
X167811252Y-84585000D01*
X167288748Y-83115000D02*
X167811252Y-83115000D01*
%TO.C,C313*%
X178142164Y-80460000D02*
X178357836Y-80460000D01*
X178142164Y-79740000D02*
X178357836Y-79740000D01*
%TO.C,R301*%
X189840000Y-78077064D02*
X189840000Y-76622936D01*
X191660000Y-78077064D02*
X191660000Y-76622936D01*
%TO.C,R407*%
X146337029Y-72254830D02*
X146337029Y-72562112D01*
X145577029Y-72254830D02*
X145577029Y-72562112D01*
%TO.C,R310*%
X184653641Y-88480000D02*
X184346359Y-88480000D01*
X184653641Y-87720000D02*
X184346359Y-87720000D01*
%TO.C,C303*%
X193488748Y-83585000D02*
X194011252Y-83585000D01*
X193488748Y-82115000D02*
X194011252Y-82115000D01*
%TO.C,J201*%
X154537029Y-84183471D02*
X155997029Y-84183471D01*
X151877029Y-84243471D02*
X151877029Y-84183471D01*
X151877029Y-77833471D02*
X151877029Y-77773471D01*
X151877029Y-84243471D02*
X154537029Y-84243471D01*
X151877029Y-77773471D02*
X154537029Y-77773471D01*
X154537029Y-77833471D02*
X154537029Y-77773471D01*
X154537029Y-84243471D02*
X154537029Y-84183471D01*
%TO.C,L301*%
X174450000Y-79150000D02*
X187050000Y-79150000D01*
X187050000Y-79150000D02*
X187050000Y-75650000D01*
X187050000Y-66550000D02*
X187050000Y-70050000D01*
X174450000Y-66550000D02*
X174450000Y-70050000D01*
X174450000Y-79150000D02*
X174450000Y-75650000D01*
X174450000Y-66550000D02*
X187050000Y-66550000D01*
%TO.C,J204*%
X131367029Y-95423471D02*
X131367029Y-94433471D01*
X131247029Y-99893471D02*
X127367029Y-99893471D01*
X126197029Y-97923471D02*
X126197029Y-95423471D01*
X126197029Y-95423471D02*
X127247029Y-95423471D01*
X132417029Y-95423471D02*
X131367029Y-95423471D01*
X132417029Y-97923471D02*
X132417029Y-95423471D01*
%TO.C,R408*%
X148460670Y-73488471D02*
X148153388Y-73488471D01*
X148460670Y-72728471D02*
X148153388Y-72728471D01*
%TO.C,J204*%
X185600000Y-93300000D02*
X184500000Y-92200000D01*
X184500000Y-92200000D02*
X169900000Y-92200000D01*
X185600000Y-99400000D02*
X185600000Y-93300000D01*
X169900000Y-100500000D02*
X184500000Y-100500000D01*
X169900000Y-92200000D02*
X169900000Y-100500000D01*
X168750000Y-95850000D02*
X168750000Y-96850000D01*
X169250000Y-96350000D02*
X168250000Y-96350000D01*
X184500000Y-100500000D02*
X185600000Y-99400000D01*
X187250000Y-96350000D02*
X186250000Y-96350000D01*
%TO.C,R307*%
X128687029Y-81412112D02*
X128687029Y-81104830D01*
X127927029Y-81412112D02*
X127927029Y-81104830D01*
%TO.C,C311*%
X192942164Y-75410000D02*
X193157836Y-75410000D01*
X192942164Y-74690000D02*
X193157836Y-74690000D01*
%TO.C,C310*%
X192942164Y-74410000D02*
X193157836Y-74410000D01*
X192942164Y-73690000D02*
X193157836Y-73690000D01*
%TO.C,U301*%
X182510000Y-81490000D02*
X182860000Y-81490000D01*
X182510000Y-85710000D02*
X182860000Y-85710000D01*
X182860000Y-85710000D02*
X182860000Y-85360000D01*
X178990000Y-81490000D02*
X178640000Y-81490000D01*
X178640000Y-85710000D02*
X178640000Y-85360000D01*
X178640000Y-81490000D02*
X178640000Y-81840000D01*
X178990000Y-85710000D02*
X178640000Y-85710000D01*
%TO.C,C323*%
X174962164Y-89010000D02*
X175177836Y-89010000D01*
X174962164Y-88290000D02*
X175177836Y-88290000D01*
%TO.C,C321*%
X172511252Y-86585000D02*
X171988748Y-86585000D01*
X172511252Y-85115000D02*
X171988748Y-85115000D01*
%TO.C,C302*%
X193488748Y-81585000D02*
X194011252Y-81585000D01*
X193488748Y-80115000D02*
X194011252Y-80115000D01*
%TO.C,R410*%
X145427029Y-67604830D02*
X145427029Y-67912112D01*
X146187029Y-67604830D02*
X146187029Y-67912112D01*
%TO.C,R303*%
X189380000Y-77003641D02*
X189380000Y-76696359D01*
X188620000Y-77003641D02*
X188620000Y-76696359D01*
%TO.C,C301*%
X193488748Y-79585000D02*
X194011252Y-79585000D01*
X193488748Y-78115000D02*
X194011252Y-78115000D01*
%TO.C,C308*%
X187607836Y-80210000D02*
X187392164Y-80210000D01*
X187607836Y-79490000D02*
X187392164Y-79490000D01*
%TO.C,R313*%
X160830000Y-81396359D02*
X160830000Y-81703641D01*
X160070000Y-81396359D02*
X160070000Y-81703641D01*
%TO.C,Q305*%
X169320711Y-86890000D02*
G75*
G03*
X169320711Y-86890000I-70711J0D01*
G01*
%TO.C,Q301*%
X189570711Y-71140000D02*
G75*
G03*
X189570711Y-71140000I-70711J0D01*
G01*
%TD*%
%LPC*%
D14*
%TO.C,REF\u002A\u002A*%
X152800000Y-134400000D03*
%TD*%
D15*
%TO.C,U301*%
X133507029Y-74368471D03*
X131407029Y-76468471D03*
X132107029Y-74368471D03*
X132807029Y-76468471D03*
X132107029Y-75768471D03*
X131407029Y-75068471D03*
X133507029Y-75768471D03*
X133507029Y-77168471D03*
X132807029Y-75068471D03*
X134207029Y-75068471D03*
X134207029Y-76468471D03*
X132107029Y-77168471D03*
%TD*%
D16*
%TO.C,J1*%
X115700000Y-128700000D03*
X115700000Y-123700000D03*
%TD*%
D17*
%TO.C,J101*%
X178826447Y-137646447D03*
X187866447Y-137646447D03*
%TD*%
D18*
%TO.C,J104*%
X177996447Y-132096447D03*
D19*
X177996447Y-130826447D03*
%TD*%
D14*
%TO.C,REF\u002A\u002A*%
X169292893Y-118192893D03*
%TD*%
%TO.C,REF\u002A\u002A*%
X197292893Y-117892893D03*
%TD*%
%TO.C,REF\u002A\u002A*%
X133800000Y-107900000D03*
%TD*%
D20*
%TO.C,J210*%
X195600000Y-67400000D03*
D21*
X196600000Y-67400000D03*
%TD*%
D16*
%TO.C,J2*%
X140900000Y-114600000D03*
X145900000Y-114600000D03*
%TD*%
D22*
%TO.C,J201*%
X193750000Y-94600000D03*
X193750000Y-87100000D03*
D17*
X195900000Y-88450000D03*
X191600000Y-88450000D03*
X195900000Y-93250000D03*
X191600000Y-93250000D03*
%TD*%
D23*
%TO.C,R304*%
X137797029Y-90408471D03*
X138817029Y-90408471D03*
%TD*%
D24*
%TO.C,C301*%
X128057029Y-69708471D03*
X128057029Y-67808471D03*
%TD*%
D25*
%TO.C,C404*%
X122057029Y-71783471D03*
X122057029Y-70233471D03*
%TD*%
D26*
%TO.C,C320*%
X173200000Y-83850000D03*
X171300000Y-83850000D03*
%TD*%
D27*
%TO.C,J207*%
X140807029Y-95208471D03*
X139807029Y-95208471D03*
X138807029Y-95208471D03*
X137807029Y-95208471D03*
D28*
X136507029Y-99083471D03*
X142107029Y-99083471D03*
%TD*%
D29*
%TO.C,R306*%
X176550000Y-87640000D03*
X176550000Y-88660000D03*
%TD*%
D30*
%TO.C,C304*%
X192800000Y-84850000D03*
X194700000Y-84850000D03*
%TD*%
D26*
%TO.C,C319*%
X173200000Y-81850000D03*
X171300000Y-81850000D03*
%TD*%
D31*
%TO.C,C309*%
X187750000Y-77330000D03*
X187750000Y-76370000D03*
%TD*%
D23*
%TO.C,R303*%
X137797029Y-91608471D03*
X138817029Y-91608471D03*
%TD*%
D32*
%TO.C,J203*%
X117207029Y-83548471D03*
X113607029Y-83548471D03*
X117207029Y-82278471D03*
X113607029Y-82278471D03*
X117207029Y-81008471D03*
X113607029Y-81008471D03*
X117207029Y-79738471D03*
X113607029Y-79738471D03*
X117207029Y-78468471D03*
X113607029Y-78468471D03*
%TD*%
D33*
%TO.C,Q304*%
X169750000Y-77825000D03*
X169750000Y-75875000D03*
X169750000Y-76525000D03*
D34*
X171250000Y-78250000D03*
D35*
X170890000Y-76850000D03*
D34*
X171250000Y-75450000D03*
D33*
X169750000Y-77175000D03*
D36*
X172650000Y-77825000D03*
X172650000Y-76525000D03*
X172650000Y-75875000D03*
X172650000Y-77175000D03*
%TD*%
D37*
%TO.C,R318*%
X182550000Y-88560000D03*
X182550000Y-87540000D03*
%TD*%
D38*
%TO.C,C101*%
X179492893Y-119417893D03*
X179492893Y-120967893D03*
%TD*%
D18*
%TO.C,J103*%
X188796447Y-132296447D03*
D19*
X188796447Y-131026447D03*
%TD*%
D39*
%TO.C,J208*%
X175750000Y-63375000D03*
D40*
X178250000Y-63375000D03*
X180750000Y-63375000D03*
X183250000Y-63375000D03*
X185750000Y-63375000D03*
%TD*%
D23*
%TO.C,R318*%
X140797029Y-82008471D03*
X141817029Y-82008471D03*
%TD*%
D30*
%TO.C,C317*%
X166600000Y-79850000D03*
X168500000Y-79850000D03*
%TD*%
D26*
%TO.C,C407*%
X164000000Y-85150000D03*
X162100000Y-85150000D03*
%TD*%
%TO.C,C318*%
X173200000Y-79850000D03*
X171300000Y-79850000D03*
%TD*%
D29*
%TO.C,R317*%
X159350000Y-81040000D03*
X159350000Y-82060000D03*
%TD*%
D41*
%TO.C,C332*%
X181550000Y-87570000D03*
X181550000Y-88530000D03*
%TD*%
D42*
%TO.C,F201*%
X192537500Y-86600000D03*
X190962500Y-86600000D03*
%TD*%
D26*
%TO.C,C307*%
X188700000Y-81350000D03*
X186800000Y-81350000D03*
%TD*%
D29*
%TO.C,R317*%
X127307029Y-80748471D03*
X127307029Y-81768471D03*
%TD*%
%TO.C,R305*%
X173650000Y-87740000D03*
X173650000Y-88760000D03*
%TD*%
D30*
%TO.C,C314*%
X166600000Y-77850000D03*
X168500000Y-77850000D03*
%TD*%
D23*
%TO.C,R202*%
X197440000Y-90950000D03*
X198460000Y-90950000D03*
%TD*%
D43*
%TO.C,R312*%
X186010000Y-89100000D03*
X184990000Y-89100000D03*
%TD*%
D44*
%TO.C,R307*%
X188775000Y-87150000D03*
X187125000Y-87150000D03*
%TD*%
D37*
%TO.C,R404*%
X153807029Y-76628471D03*
X153807029Y-75608471D03*
%TD*%
D30*
%TO.C,C406*%
X161900000Y-90650000D03*
X163800000Y-90650000D03*
%TD*%
D35*
%TO.C,Q303*%
X171610000Y-73100000D03*
D34*
X171250000Y-74500000D03*
D33*
X172750000Y-72125000D03*
D34*
X171250000Y-71700000D03*
D33*
X172750000Y-74075000D03*
X172750000Y-73425000D03*
X172750000Y-72775000D03*
D36*
X169850000Y-72125000D03*
X169850000Y-72775000D03*
X169850000Y-74075000D03*
X169850000Y-73425000D03*
%TD*%
D26*
%TO.C,C306*%
X188700000Y-83350000D03*
X186800000Y-83350000D03*
%TD*%
D29*
%TO.C,R316*%
X197050000Y-79840000D03*
X197050000Y-80860000D03*
%TD*%
D45*
%TO.C,J101*%
X189292893Y-116392893D03*
X189292893Y-117392893D03*
X189292893Y-118392893D03*
X189292893Y-119392893D03*
D46*
X193167893Y-115092893D03*
X193167893Y-120692893D03*
%TD*%
D34*
%TO.C,Q302*%
X190360000Y-67700000D03*
X190360000Y-70500000D03*
D33*
X188860000Y-68125000D03*
X188860000Y-70075000D03*
X188860000Y-68775000D03*
X188860000Y-69425000D03*
D35*
X190000000Y-69100000D03*
D36*
X191760000Y-70075000D03*
X191760000Y-69425000D03*
X191760000Y-68125000D03*
X191760000Y-68775000D03*
%TD*%
D16*
%TO.C,J202*%
X168567767Y-66582233D03*
X165032233Y-70117767D03*
%TD*%
D25*
%TO.C,C401*%
X118307029Y-75033471D03*
X118307029Y-73483471D03*
%TD*%
D23*
%TO.C,R102*%
X179086447Y-130796447D03*
X180106447Y-130796447D03*
%TD*%
D31*
%TO.C,C333*%
X163150000Y-82030000D03*
X163150000Y-81070000D03*
%TD*%
D29*
%TO.C,R405*%
X150907029Y-75598471D03*
X150907029Y-76618471D03*
%TD*%
D23*
%TO.C,R302*%
X187990000Y-78850000D03*
X189010000Y-78850000D03*
%TD*%
D30*
%TO.C,C316*%
X166600000Y-81850000D03*
X168500000Y-81850000D03*
%TD*%
D23*
%TO.C,R319*%
X140797029Y-80758471D03*
X141817029Y-80758471D03*
%TD*%
D47*
%TO.C,U402*%
X161962500Y-88862500D03*
X161962500Y-87912500D03*
X161962500Y-86962500D03*
X164237500Y-86962500D03*
X164237500Y-88862500D03*
%TD*%
D48*
%TO.C,J102*%
X182871447Y-130846447D03*
D49*
X185411447Y-130846447D03*
%TD*%
D50*
%TO.C,R304*%
X173587500Y-90350000D03*
X176512500Y-90350000D03*
%TD*%
D23*
%TO.C,R401*%
X152097029Y-71508471D03*
X153117029Y-71508471D03*
%TD*%
D51*
%TO.C,C312*%
X182730000Y-80050000D03*
X181770000Y-80050000D03*
%TD*%
D29*
%TO.C,R316*%
X130807029Y-80748471D03*
X130807029Y-81768471D03*
%TD*%
D52*
%TO.C,J209*%
X192450000Y-96450000D03*
D53*
X190450000Y-96450000D03*
%TD*%
D54*
%TO.C,L402*%
X166750000Y-89350000D03*
X166750000Y-86550000D03*
%TD*%
D25*
%TO.C,C325*%
X184350000Y-81425000D03*
X184350000Y-79875000D03*
%TD*%
D23*
%TO.C,R402*%
X150097029Y-70008471D03*
X151117029Y-70008471D03*
%TD*%
%TO.C,R101*%
X179086447Y-132096447D03*
X180106447Y-132096447D03*
%TD*%
D37*
%TO.C,R305*%
X139557029Y-81768471D03*
X139557029Y-80748471D03*
%TD*%
D25*
%TO.C,C403*%
X118307029Y-71783471D03*
X118307029Y-70233471D03*
%TD*%
D29*
%TO.C,R315*%
X138557029Y-80748471D03*
X138557029Y-81768471D03*
%TD*%
D23*
%TO.C,R201*%
X197440000Y-92150000D03*
X198460000Y-92150000D03*
%TD*%
D25*
%TO.C,C402*%
X122057029Y-75033471D03*
X122057029Y-73483471D03*
%TD*%
D37*
%TO.C,R306*%
X131807029Y-81768471D03*
X131807029Y-80748471D03*
%TD*%
D26*
%TO.C,C305*%
X188700000Y-85350000D03*
X186800000Y-85350000D03*
%TD*%
D55*
%TO.C,J102*%
X177292893Y-119392893D03*
X177292893Y-118392893D03*
X177292893Y-117392893D03*
X177292893Y-116392893D03*
D56*
X173417893Y-120692893D03*
X173417893Y-115092893D03*
%TD*%
D23*
%TO.C,R505*%
X196470000Y-76560000D03*
X197490000Y-76560000D03*
%TD*%
D25*
%TO.C,C103*%
X187192893Y-116367893D03*
X187192893Y-114817893D03*
%TD*%
D57*
%TO.C,C322*%
X171925000Y-91350000D03*
X170375000Y-91350000D03*
%TD*%
D43*
%TO.C,R411*%
X148827029Y-67758471D03*
X147807029Y-67758471D03*
%TD*%
D58*
%TO.C,J206*%
X131767029Y-68158471D03*
X133037029Y-70858471D03*
X134307029Y-68158471D03*
X135577029Y-70858471D03*
X136847029Y-68158471D03*
%TD*%
%TO.C,J202*%
X141942029Y-92358471D03*
X140672029Y-89658471D03*
%TD*%
D30*
%TO.C,C315*%
X166600000Y-83850000D03*
X168500000Y-83850000D03*
%TD*%
D59*
%TO.C,C313*%
X177770000Y-80100000D03*
X178730000Y-80100000D03*
%TD*%
D60*
%TO.C,R301*%
X190750000Y-78812500D03*
X190750000Y-75887500D03*
%TD*%
D29*
%TO.C,R407*%
X145957029Y-71898471D03*
X145957029Y-72918471D03*
%TD*%
D43*
%TO.C,R310*%
X185010000Y-88100000D03*
X183990000Y-88100000D03*
%TD*%
D30*
%TO.C,C303*%
X192800000Y-82850000D03*
X194700000Y-82850000D03*
%TD*%
D32*
%TO.C,J201*%
X155007029Y-83548471D03*
X151407029Y-83548471D03*
X155007029Y-82278471D03*
X151407029Y-82278471D03*
X155007029Y-81008471D03*
X151407029Y-81008471D03*
X155007029Y-79738471D03*
X151407029Y-79738471D03*
X155007029Y-78468471D03*
X151407029Y-78468471D03*
%TD*%
D61*
%TO.C,L301*%
X186375000Y-72850000D03*
X175125000Y-72850000D03*
%TD*%
D27*
%TO.C,J204*%
X130807029Y-95208471D03*
X129807029Y-95208471D03*
X128807029Y-95208471D03*
X127807029Y-95208471D03*
D28*
X132107029Y-99083471D03*
X126507029Y-99083471D03*
%TD*%
D43*
%TO.C,R408*%
X148817029Y-73108471D03*
X147797029Y-73108471D03*
%TD*%
D62*
%TO.C,J204*%
X181350000Y-96350000D03*
D63*
X174150000Y-96350000D03*
%TD*%
D37*
%TO.C,R307*%
X128307029Y-81768471D03*
X128307029Y-80748471D03*
%TD*%
D59*
%TO.C,C311*%
X192570000Y-75050000D03*
X193530000Y-75050000D03*
%TD*%
%TO.C,C310*%
X192570000Y-74050000D03*
X193530000Y-74050000D03*
%TD*%
D64*
%TO.C,U301*%
X182737500Y-82200000D03*
X182737500Y-82600000D03*
X182737500Y-83000000D03*
X182737500Y-83400000D03*
X182737500Y-83800000D03*
X182737500Y-84200000D03*
X182737500Y-84600000D03*
X182737500Y-85000000D03*
D65*
X182150000Y-85587500D03*
X181750000Y-85587500D03*
X181350000Y-85587500D03*
X180950000Y-85587500D03*
X180550000Y-85587500D03*
X180150000Y-85587500D03*
X179750000Y-85587500D03*
X179350000Y-85587500D03*
D64*
X178762500Y-85000000D03*
X178762500Y-84600000D03*
X178762500Y-84200000D03*
X178762500Y-83800000D03*
X178762500Y-83400000D03*
X178762500Y-83000000D03*
X178762500Y-82600000D03*
X178762500Y-82200000D03*
D65*
X179350000Y-81612500D03*
X179750000Y-81612500D03*
X180150000Y-81612500D03*
X180550000Y-81612500D03*
X180950000Y-81612500D03*
X181350000Y-81612500D03*
X181750000Y-81612500D03*
X182150000Y-81612500D03*
D66*
X180750000Y-83600000D03*
%TD*%
D59*
%TO.C,C323*%
X174590000Y-88650000D03*
X175550000Y-88650000D03*
%TD*%
D26*
%TO.C,C321*%
X173200000Y-85850000D03*
X171300000Y-85850000D03*
%TD*%
D30*
%TO.C,C302*%
X192800000Y-80850000D03*
X194700000Y-80850000D03*
%TD*%
D29*
%TO.C,R410*%
X145807029Y-67248471D03*
X145807029Y-68268471D03*
%TD*%
D37*
%TO.C,R303*%
X189000000Y-77360000D03*
X189000000Y-76340000D03*
%TD*%
D30*
%TO.C,C301*%
X192800000Y-78850000D03*
X194700000Y-78850000D03*
%TD*%
D51*
%TO.C,C308*%
X187980000Y-79850000D03*
X187020000Y-79850000D03*
%TD*%
D29*
%TO.C,R313*%
X160450000Y-81040000D03*
X160450000Y-82060000D03*
%TD*%
D67*
%TO.C,Q305*%
X168850000Y-88740000D03*
D68*
X171225000Y-90240000D03*
X169275000Y-90240000D03*
D67*
X171650000Y-88740000D03*
D68*
X169925000Y-90240000D03*
X170575000Y-90240000D03*
D69*
X170250000Y-89100000D03*
D70*
X171225000Y-87340000D03*
X169925000Y-87340000D03*
X169275000Y-87340000D03*
X170575000Y-87340000D03*
%TD*%
D68*
%TO.C,Q301*%
X189525000Y-74490000D03*
D67*
X191900000Y-72990000D03*
D68*
X191475000Y-74490000D03*
X190825000Y-74490000D03*
X190175000Y-74490000D03*
D67*
X189100000Y-72990000D03*
D69*
X190500000Y-73350000D03*
D70*
X191475000Y-71590000D03*
X189525000Y-71590000D03*
X190825000Y-71590000D03*
X190175000Y-71590000D03*
%TD*%
M02*
