%TF.GenerationSoftware,KiCad,Pcbnew,(6.0.9)*%
%TF.CreationDate,2023-02-03T11:31:16+01:00*%
%TF.ProjectId,Stencil,5374656e-6369-46c2-9e6b-696361645f70,rev?*%
%TF.SameCoordinates,Original*%
%TF.FileFunction,Paste,Bot*%
%TF.FilePolarity,Positive*%
%FSLAX46Y46*%
G04 Gerber Fmt 4.6, Leading zero omitted, Abs format (unit mm)*
G04 Created by KiCad (PCBNEW (6.0.9)) date 2023-02-03 11:31:16*
%MOMM*%
%LPD*%
G01*
G04 APERTURE LIST*
G04 Aperture macros list*
%AMRoundRect*
0 Rectangle with rounded corners*
0 $1 Rounding radius*
0 $2 $3 $4 $5 $6 $7 $8 $9 X,Y pos of 4 corners*
0 Add a 4 corners polygon primitive as box body*
4,1,4,$2,$3,$4,$5,$6,$7,$8,$9,$2,$3,0*
0 Add four circle primitives for the rounded corners*
1,1,$1+$1,$2,$3*
1,1,$1+$1,$4,$5*
1,1,$1+$1,$6,$7*
1,1,$1+$1,$8,$9*
0 Add four rect primitives between the rounded corners*
20,1,$1+$1,$2,$3,$4,$5,0*
20,1,$1+$1,$4,$5,$6,$7,0*
20,1,$1+$1,$6,$7,$8,$9,0*
20,1,$1+$1,$8,$9,$2,$3,0*%
G04 Aperture macros list end*
%ADD10RoundRect,0.135000X-0.135000X-0.185000X0.135000X-0.185000X0.135000X0.185000X-0.135000X0.185000X0*%
%ADD11RoundRect,0.225000X-0.225000X-0.250000X0.225000X-0.250000X0.225000X0.250000X-0.225000X0.250000X0*%
%ADD12RoundRect,0.225000X0.225000X0.250000X-0.225000X0.250000X-0.225000X-0.250000X0.225000X-0.250000X0*%
%ADD13RoundRect,0.150000X-0.150000X-0.625000X0.150000X-0.625000X0.150000X0.625000X-0.150000X0.625000X0*%
%ADD14RoundRect,0.250000X-0.350000X-0.650000X0.350000X-0.650000X0.350000X0.650000X-0.350000X0.650000X0*%
%ADD15RoundRect,0.150000X0.150000X0.625000X-0.150000X0.625000X-0.150000X-0.625000X0.150000X-0.625000X0*%
%ADD16RoundRect,0.250000X0.350000X0.650000X-0.350000X0.650000X-0.350000X-0.650000X0.350000X-0.650000X0*%
%ADD17RoundRect,0.135000X-0.185000X0.135000X-0.185000X-0.135000X0.185000X-0.135000X0.185000X0.135000X0*%
%ADD18RoundRect,0.225000X0.250000X-0.225000X0.250000X0.225000X-0.250000X0.225000X-0.250000X-0.225000X0*%
%ADD19RoundRect,0.135000X0.185000X-0.135000X0.185000X0.135000X-0.185000X0.135000X-0.185000X-0.135000X0*%
%ADD20R,2.100000X0.750000*%
%ADD21RoundRect,0.250000X0.475000X-0.250000X0.475000X0.250000X-0.475000X0.250000X-0.475000X-0.250000X0*%
%ADD22RoundRect,0.135000X0.135000X0.185000X-0.135000X0.185000X-0.135000X-0.185000X0.135000X-0.185000X0*%
%ADD23R,0.650000X1.800000*%
%ADD24RoundRect,0.140000X-0.140000X-0.170000X0.140000X-0.170000X0.140000X0.170000X-0.140000X0.170000X0*%
%ADD25RoundRect,0.250000X0.250000X0.475000X-0.250000X0.475000X-0.250000X-0.475000X0.250000X-0.475000X0*%
%ADD26R,1.980000X2.450000*%
%ADD27R,0.430000X0.380000*%
%ADD28R,0.300000X0.400000*%
%ADD29R,0.500000X0.350000*%
%ADD30RoundRect,0.250000X-0.250000X-0.475000X0.250000X-0.475000X0.250000X0.475000X-0.250000X0.475000X0*%
%ADD31RoundRect,0.200000X0.200000X0.275000X-0.200000X0.275000X-0.200000X-0.275000X0.200000X-0.275000X0*%
%ADD32RoundRect,0.150000X-0.512500X-0.150000X0.512500X-0.150000X0.512500X0.150000X-0.512500X0.150000X0*%
%ADD33R,0.400000X0.300000*%
%ADD34R,0.380000X0.430000*%
%ADD35R,2.450000X1.980000*%
%ADD36R,0.350000X0.500000*%
%ADD37RoundRect,0.140000X0.140000X0.170000X-0.140000X0.170000X-0.140000X-0.170000X0.140000X-0.170000X0*%
%ADD38RoundRect,0.250000X1.075000X-0.375000X1.075000X0.375000X-1.075000X0.375000X-1.075000X-0.375000X0*%
%ADD39RoundRect,0.140000X0.170000X-0.140000X0.170000X0.140000X-0.170000X0.140000X-0.170000X-0.140000X0*%
%ADD40RoundRect,0.250000X-0.312500X-0.625000X0.312500X-0.625000X0.312500X0.625000X-0.312500X0.625000X0*%
%ADD41RoundRect,0.218750X0.218750X0.256250X-0.218750X0.256250X-0.218750X-0.256250X0.218750X-0.256250X0*%
%ADD42RoundRect,0.250000X0.625000X-0.312500X0.625000X0.312500X-0.625000X0.312500X-0.625000X-0.312500X0*%
%ADD43R,3.250000X5.000000*%
%ADD44RoundRect,0.250000X0.315000X0.315000X-0.315000X0.315000X-0.315000X-0.315000X0.315000X-0.315000X0*%
%ADD45RoundRect,0.050000X0.337500X0.050000X-0.337500X0.050000X-0.337500X-0.050000X0.337500X-0.050000X0*%
%ADD46RoundRect,0.050000X0.050000X0.337500X-0.050000X0.337500X-0.050000X-0.337500X0.050000X-0.337500X0*%
%ADD47RoundRect,0.140000X-0.170000X0.140000X-0.170000X-0.140000X0.170000X-0.140000X0.170000X0.140000X0*%
G04 APERTURE END LIST*
D10*
%TO.C,R101*%
X172440000Y-103350000D03*
X173460000Y-103350000D03*
%TD*%
%TO.C,R102*%
X172440000Y-102050000D03*
X173460000Y-102050000D03*
%TD*%
D11*
%TO.C,C101*%
X179025000Y-60100000D03*
X180575000Y-60100000D03*
%TD*%
D12*
%TO.C,C103*%
X175975000Y-52400000D03*
X174425000Y-52400000D03*
%TD*%
D13*
%TO.C,J101*%
X176000000Y-50300000D03*
X177000000Y-50300000D03*
X178000000Y-50300000D03*
X179000000Y-50300000D03*
D14*
X174700000Y-46425000D03*
X180300000Y-46425000D03*
%TD*%
D15*
%TO.C,J102*%
X179000000Y-62300000D03*
X178000000Y-62300000D03*
X177000000Y-62300000D03*
X176000000Y-62300000D03*
D16*
X180300000Y-66175000D03*
X174700000Y-66175000D03*
%TD*%
D17*
%TO.C,R410*%
X149700000Y-41840000D03*
X149700000Y-42860000D03*
%TD*%
D15*
%TO.C,J204*%
X134700000Y-69800000D03*
X133700000Y-69800000D03*
X132700000Y-69800000D03*
X131700000Y-69800000D03*
D16*
X136000000Y-73675000D03*
X130400000Y-73675000D03*
%TD*%
D18*
%TO.C,C401*%
X122200000Y-49625000D03*
X122200000Y-48075000D03*
%TD*%
D19*
%TO.C,R404*%
X157700000Y-51220000D03*
X157700000Y-50200000D03*
%TD*%
D10*
%TO.C,R402*%
X153990000Y-44600000D03*
X155010000Y-44600000D03*
%TD*%
%TO.C,R303*%
X141690000Y-66200000D03*
X142710000Y-66200000D03*
%TD*%
D20*
%TO.C,J203*%
X121100000Y-58140000D03*
X117500000Y-58140000D03*
X121100000Y-56870000D03*
X117500000Y-56870000D03*
X121100000Y-55600000D03*
X117500000Y-55600000D03*
X121100000Y-54330000D03*
X117500000Y-54330000D03*
X121100000Y-53060000D03*
X117500000Y-53060000D03*
%TD*%
D17*
%TO.C,R407*%
X149850000Y-46490000D03*
X149850000Y-47510000D03*
%TD*%
%TO.C,R317*%
X136700000Y-55340000D03*
X136700000Y-56360000D03*
%TD*%
D19*
%TO.C,R307*%
X137700000Y-56360000D03*
X137700000Y-55340000D03*
%TD*%
D21*
%TO.C,C301*%
X131950000Y-44300000D03*
X131950000Y-42400000D03*
%TD*%
D10*
%TO.C,R319*%
X144690000Y-55350000D03*
X145710000Y-55350000D03*
%TD*%
D22*
%TO.C,R411*%
X152720000Y-42350000D03*
X151700000Y-42350000D03*
%TD*%
D17*
%TO.C,R315*%
X142450000Y-55340000D03*
X142450000Y-56360000D03*
%TD*%
D18*
%TO.C,C404*%
X125950000Y-46375000D03*
X125950000Y-44825000D03*
%TD*%
D23*
%TO.C,J206*%
X135660000Y-42750000D03*
X136930000Y-45450000D03*
X138200000Y-42750000D03*
X139470000Y-45450000D03*
X140740000Y-42750000D03*
%TD*%
D10*
%TO.C,R401*%
X155990000Y-46100000D03*
X157010000Y-46100000D03*
%TD*%
D22*
%TO.C,R408*%
X152710000Y-47700000D03*
X151690000Y-47700000D03*
%TD*%
D17*
%TO.C,R316*%
X139500000Y-55340000D03*
X139500000Y-56360000D03*
%TD*%
%TO.C,R405*%
X154800000Y-50190000D03*
X154800000Y-51210000D03*
%TD*%
D15*
%TO.C,J207*%
X144700000Y-69800000D03*
X143700000Y-69800000D03*
X142700000Y-69800000D03*
X141700000Y-69800000D03*
D16*
X140400000Y-73675000D03*
X146000000Y-73675000D03*
%TD*%
D18*
%TO.C,C402*%
X125950000Y-49625000D03*
X125950000Y-48075000D03*
%TD*%
D19*
%TO.C,R305*%
X143450000Y-56360000D03*
X143450000Y-55340000D03*
%TD*%
D10*
%TO.C,R304*%
X141690000Y-65000000D03*
X142710000Y-65000000D03*
%TD*%
D23*
%TO.C,J202*%
X145835000Y-66950000D03*
X144565000Y-64250000D03*
%TD*%
D19*
%TO.C,R306*%
X140500000Y-56360000D03*
X140500000Y-55340000D03*
%TD*%
D10*
%TO.C,R318*%
X144690000Y-56600000D03*
X145710000Y-56600000D03*
%TD*%
D20*
%TO.C,J201*%
X158900000Y-58140000D03*
X155300000Y-58140000D03*
X158900000Y-56870000D03*
X155300000Y-56870000D03*
X158900000Y-55600000D03*
X155300000Y-55600000D03*
X158900000Y-54330000D03*
X155300000Y-54330000D03*
X158900000Y-53060000D03*
X155300000Y-53060000D03*
%TD*%
D18*
%TO.C,C403*%
X122200000Y-46375000D03*
X122200000Y-44825000D03*
%TD*%
D24*
%TO.C,C311*%
X94320000Y-48950000D03*
X95280000Y-48950000D03*
%TD*%
D25*
%TO.C,C319*%
X74950000Y-55750000D03*
X73050000Y-55750000D03*
%TD*%
D26*
%TO.C,Q303*%
X73360000Y-47000000D03*
D27*
X73000000Y-48400000D03*
D28*
X74500000Y-46025000D03*
D27*
X73000000Y-45600000D03*
D28*
X74500000Y-47975000D03*
X74500000Y-47325000D03*
X74500000Y-46675000D03*
D29*
X71600000Y-46025000D03*
X71600000Y-46675000D03*
X71600000Y-47975000D03*
X71600000Y-47325000D03*
%TD*%
D17*
%TO.C,R317*%
X61100000Y-54940000D03*
X61100000Y-55960000D03*
%TD*%
D22*
%TO.C,R312*%
X87760000Y-63000000D03*
X86740000Y-63000000D03*
%TD*%
D30*
%TO.C,C316*%
X68350000Y-55750000D03*
X70250000Y-55750000D03*
%TD*%
D24*
%TO.C,C323*%
X76340000Y-62550000D03*
X77300000Y-62550000D03*
%TD*%
D31*
%TO.C,R307*%
X90525000Y-61050000D03*
X88875000Y-61050000D03*
%TD*%
D25*
%TO.C,C307*%
X90450000Y-55250000D03*
X88550000Y-55250000D03*
%TD*%
D32*
%TO.C,U402*%
X63712500Y-62762500D03*
X63712500Y-61812500D03*
X63712500Y-60862500D03*
X65987500Y-60862500D03*
X65987500Y-62762500D03*
%TD*%
D33*
%TO.C,Q301*%
X91275000Y-48390000D03*
D34*
X93650000Y-46890000D03*
D33*
X93225000Y-48390000D03*
X92575000Y-48390000D03*
X91925000Y-48390000D03*
D34*
X90850000Y-46890000D03*
D35*
X92250000Y-47250000D03*
D36*
X93225000Y-45490000D03*
X91275000Y-45490000D03*
X92575000Y-45490000D03*
X91925000Y-45490000D03*
%TD*%
D24*
%TO.C,C313*%
X79520000Y-54000000D03*
X80480000Y-54000000D03*
%TD*%
D37*
%TO.C,C312*%
X84480000Y-53950000D03*
X83520000Y-53950000D03*
%TD*%
D38*
%TO.C,L402*%
X68500000Y-63250000D03*
X68500000Y-60450000D03*
%TD*%
D19*
%TO.C,R303*%
X90750000Y-51260000D03*
X90750000Y-50240000D03*
%TD*%
D30*
%TO.C,C317*%
X68350000Y-53750000D03*
X70250000Y-53750000D03*
%TD*%
D39*
%TO.C,C333*%
X64900000Y-55930000D03*
X64900000Y-54970000D03*
%TD*%
D17*
%TO.C,R305*%
X75400000Y-61640000D03*
X75400000Y-62660000D03*
%TD*%
D25*
%TO.C,C305*%
X90450000Y-59250000D03*
X88550000Y-59250000D03*
%TD*%
D40*
%TO.C,R304*%
X75337500Y-64250000D03*
X78262500Y-64250000D03*
%TD*%
D30*
%TO.C,C314*%
X68350000Y-51750000D03*
X70250000Y-51750000D03*
%TD*%
D25*
%TO.C,C318*%
X74950000Y-53750000D03*
X73050000Y-53750000D03*
%TD*%
%TO.C,C320*%
X74950000Y-57750000D03*
X73050000Y-57750000D03*
%TD*%
D30*
%TO.C,C303*%
X94550000Y-56750000D03*
X96450000Y-56750000D03*
%TD*%
D17*
%TO.C,R316*%
X98800000Y-53740000D03*
X98800000Y-54760000D03*
%TD*%
D30*
%TO.C,C301*%
X94550000Y-52750000D03*
X96450000Y-52750000D03*
%TD*%
D24*
%TO.C,C310*%
X94320000Y-47950000D03*
X95280000Y-47950000D03*
%TD*%
D12*
%TO.C,C322*%
X73675000Y-65250000D03*
X72125000Y-65250000D03*
%TD*%
D41*
%TO.C,F201*%
X94287500Y-60500000D03*
X92712500Y-60500000D03*
%TD*%
D30*
%TO.C,C315*%
X68350000Y-57750000D03*
X70250000Y-57750000D03*
%TD*%
D39*
%TO.C,C309*%
X89500000Y-51230000D03*
X89500000Y-50270000D03*
%TD*%
D42*
%TO.C,R301*%
X92500000Y-52712500D03*
X92500000Y-49787500D03*
%TD*%
D17*
%TO.C,R306*%
X78300000Y-61540000D03*
X78300000Y-62560000D03*
%TD*%
D37*
%TO.C,C308*%
X89730000Y-53750000D03*
X88770000Y-53750000D03*
%TD*%
D10*
%TO.C,R202*%
X99190000Y-64850000D03*
X100210000Y-64850000D03*
%TD*%
D30*
%TO.C,C406*%
X63650000Y-64550000D03*
X65550000Y-64550000D03*
%TD*%
D22*
%TO.C,R310*%
X86760000Y-62000000D03*
X85740000Y-62000000D03*
%TD*%
D43*
%TO.C,L301*%
X88125000Y-46750000D03*
X76875000Y-46750000D03*
%TD*%
D44*
%TO.C,U301*%
X83200000Y-58200000D03*
X81800000Y-56800000D03*
X83200000Y-56800000D03*
X81800000Y-58200000D03*
D45*
X84487500Y-56100000D03*
X84487500Y-56500000D03*
X84487500Y-56900000D03*
X84487500Y-57300000D03*
X84487500Y-57700000D03*
X84487500Y-58100000D03*
X84487500Y-58500000D03*
X84487500Y-58900000D03*
D46*
X83900000Y-59487500D03*
X83500000Y-59487500D03*
X83100000Y-59487500D03*
X82700000Y-59487500D03*
X82300000Y-59487500D03*
X81900000Y-59487500D03*
X81500000Y-59487500D03*
X81100000Y-59487500D03*
D45*
X80512500Y-58900000D03*
X80512500Y-58500000D03*
X80512500Y-58100000D03*
X80512500Y-57700000D03*
X80512500Y-57300000D03*
X80512500Y-56900000D03*
X80512500Y-56500000D03*
X80512500Y-56100000D03*
D46*
X81100000Y-55512500D03*
X81500000Y-55512500D03*
X81900000Y-55512500D03*
X82300000Y-55512500D03*
X82700000Y-55512500D03*
X83100000Y-55512500D03*
X83500000Y-55512500D03*
X83900000Y-55512500D03*
%TD*%
D34*
%TO.C,Q305*%
X70600000Y-62640000D03*
D33*
X72975000Y-64140000D03*
X71025000Y-64140000D03*
D34*
X73400000Y-62640000D03*
D33*
X71675000Y-64140000D03*
X72325000Y-64140000D03*
D35*
X72000000Y-63000000D03*
D36*
X72975000Y-61240000D03*
X71675000Y-61240000D03*
X71025000Y-61240000D03*
X72325000Y-61240000D03*
%TD*%
D18*
%TO.C,C325*%
X86100000Y-55325000D03*
X86100000Y-53775000D03*
%TD*%
D27*
%TO.C,Q302*%
X92110000Y-41600000D03*
X92110000Y-44400000D03*
D28*
X90610000Y-42025000D03*
X90610000Y-43975000D03*
X90610000Y-42675000D03*
X90610000Y-43325000D03*
D26*
X91750000Y-43000000D03*
D29*
X93510000Y-43975000D03*
X93510000Y-43325000D03*
X93510000Y-42025000D03*
X93510000Y-42675000D03*
%TD*%
D19*
%TO.C,R318*%
X84300000Y-62460000D03*
X84300000Y-61440000D03*
%TD*%
D28*
%TO.C,Q304*%
X71500000Y-51725000D03*
X71500000Y-49775000D03*
X71500000Y-50425000D03*
D27*
X73000000Y-52150000D03*
D26*
X72640000Y-50750000D03*
D27*
X73000000Y-49350000D03*
D28*
X71500000Y-51075000D03*
D29*
X74400000Y-51725000D03*
X74400000Y-50425000D03*
X74400000Y-49775000D03*
X74400000Y-51075000D03*
%TD*%
D25*
%TO.C,C321*%
X74950000Y-59750000D03*
X73050000Y-59750000D03*
%TD*%
D10*
%TO.C,R302*%
X89740000Y-52750000D03*
X90760000Y-52750000D03*
%TD*%
D30*
%TO.C,C304*%
X94550000Y-58750000D03*
X96450000Y-58750000D03*
%TD*%
D25*
%TO.C,C407*%
X65750000Y-59050000D03*
X63850000Y-59050000D03*
%TD*%
D47*
%TO.C,C332*%
X83300000Y-61470000D03*
X83300000Y-62430000D03*
%TD*%
D17*
%TO.C,R313*%
X62200000Y-54940000D03*
X62200000Y-55960000D03*
%TD*%
D10*
%TO.C,R505*%
X98220000Y-50460000D03*
X99240000Y-50460000D03*
%TD*%
%TO.C,R201*%
X99190000Y-66050000D03*
X100210000Y-66050000D03*
%TD*%
D25*
%TO.C,C306*%
X90450000Y-57250000D03*
X88550000Y-57250000D03*
%TD*%
D30*
%TO.C,C302*%
X94550000Y-54750000D03*
X96450000Y-54750000D03*
%TD*%
M02*
