%TF.GenerationSoftware,KiCad,Pcbnew,(6.0.9)*%
%TF.CreationDate,2023-02-02T11:23:03+01:00*%
%TF.ProjectId,Stencil,5374656e-6369-46c2-9e6b-696361645f70,rev?*%
%TF.SameCoordinates,Original*%
%TF.FileFunction,Copper,L6,Bot*%
%TF.FilePolarity,Positive*%
%FSLAX46Y46*%
G04 Gerber Fmt 4.6, Leading zero omitted, Abs format (unit mm)*
G04 Created by KiCad (PCBNEW (6.0.9)) date 2023-02-02 11:23:03*
%MOMM*%
%LPD*%
G01*
G04 APERTURE LIST*
G04 Aperture macros list*
%AMRoundRect*
0 Rectangle with rounded corners*
0 $1 Rounding radius*
0 $2 $3 $4 $5 $6 $7 $8 $9 X,Y pos of 4 corners*
0 Add a 4 corners polygon primitive as box body*
4,1,4,$2,$3,$4,$5,$6,$7,$8,$9,$2,$3,0*
0 Add four circle primitives for the rounded corners*
1,1,$1+$1,$2,$3*
1,1,$1+$1,$4,$5*
1,1,$1+$1,$6,$7*
1,1,$1+$1,$8,$9*
0 Add four rect primitives between the rounded corners*
20,1,$1+$1,$2,$3,$4,$5,0*
20,1,$1+$1,$4,$5,$6,$7,0*
20,1,$1+$1,$6,$7,$8,$9,0*
20,1,$1+$1,$8,$9,$2,$3,0*%
G04 Aperture macros list end*
%TA.AperFunction,ComponentPad*%
%ADD10C,0.600000*%
%TD*%
%TA.AperFunction,ComponentPad*%
%ADD11C,4.000000*%
%TD*%
%TA.AperFunction,ComponentPad*%
%ADD12C,0.700000*%
%TD*%
%TA.AperFunction,SMDPad,CuDef*%
%ADD13R,3.500000X2.000000*%
%TD*%
%TA.AperFunction,ComponentPad*%
%ADD14O,0.900000X1.600000*%
%TD*%
%TA.AperFunction,ComponentPad*%
%ADD15O,1.100000X2.200000*%
%TD*%
%TA.AperFunction,ComponentPad*%
%ADD16R,1.000000X1.000000*%
%TD*%
%TA.AperFunction,ComponentPad*%
%ADD17O,1.000000X1.000000*%
%TD*%
%TA.AperFunction,ComponentPad*%
%ADD18R,0.850000X0.850000*%
%TD*%
%TA.AperFunction,ComponentPad*%
%ADD19O,0.850000X0.850000*%
%TD*%
%TA.AperFunction,SMDPad,CuDef*%
%ADD20RoundRect,0.135000X-0.135000X-0.185000X0.135000X-0.185000X0.135000X0.185000X-0.135000X0.185000X0*%
%TD*%
%TA.AperFunction,SMDPad,CuDef*%
%ADD21RoundRect,0.250000X0.475000X-0.250000X0.475000X0.250000X-0.475000X0.250000X-0.475000X-0.250000X0*%
%TD*%
%TA.AperFunction,SMDPad,CuDef*%
%ADD22RoundRect,0.225000X0.250000X-0.225000X0.250000X0.225000X-0.250000X0.225000X-0.250000X-0.225000X0*%
%TD*%
%TA.AperFunction,SMDPad,CuDef*%
%ADD23RoundRect,0.250000X0.250000X0.475000X-0.250000X0.475000X-0.250000X-0.475000X0.250000X-0.475000X0*%
%TD*%
%TA.AperFunction,SMDPad,CuDef*%
%ADD24RoundRect,0.150000X0.150000X0.625000X-0.150000X0.625000X-0.150000X-0.625000X0.150000X-0.625000X0*%
%TD*%
%TA.AperFunction,SMDPad,CuDef*%
%ADD25RoundRect,0.250000X0.350000X0.650000X-0.350000X0.650000X-0.350000X-0.650000X0.350000X-0.650000X0*%
%TD*%
%TA.AperFunction,SMDPad,CuDef*%
%ADD26RoundRect,0.135000X-0.185000X0.135000X-0.185000X-0.135000X0.185000X-0.135000X0.185000X0.135000X0*%
%TD*%
%TA.AperFunction,SMDPad,CuDef*%
%ADD27RoundRect,0.250000X-0.250000X-0.475000X0.250000X-0.475000X0.250000X0.475000X-0.250000X0.475000X0*%
%TD*%
%TA.AperFunction,SMDPad,CuDef*%
%ADD28RoundRect,0.140000X0.170000X-0.140000X0.170000X0.140000X-0.170000X0.140000X-0.170000X-0.140000X0*%
%TD*%
%TA.AperFunction,SMDPad,CuDef*%
%ADD29R,2.100000X0.750000*%
%TD*%
%TA.AperFunction,SMDPad,CuDef*%
%ADD30R,0.300000X0.400000*%
%TD*%
%TA.AperFunction,SMDPad,CuDef*%
%ADD31R,0.430000X0.380000*%
%TD*%
%TA.AperFunction,SMDPad,CuDef*%
%ADD32R,1.980000X2.450000*%
%TD*%
%TA.AperFunction,SMDPad,CuDef*%
%ADD33R,0.500000X0.350000*%
%TD*%
%TA.AperFunction,SMDPad,CuDef*%
%ADD34RoundRect,0.135000X0.185000X-0.135000X0.185000X0.135000X-0.185000X0.135000X-0.185000X-0.135000X0*%
%TD*%
%TA.AperFunction,SMDPad,CuDef*%
%ADD35RoundRect,0.225000X-0.250000X0.225000X-0.250000X-0.225000X0.250000X-0.225000X0.250000X0.225000X0*%
%TD*%
%TA.AperFunction,ComponentPad*%
%ADD36RoundRect,0.250000X-0.600000X-0.725000X0.600000X-0.725000X0.600000X0.725000X-0.600000X0.725000X0*%
%TD*%
%TA.AperFunction,ComponentPad*%
%ADD37O,1.700000X1.950000*%
%TD*%
%TA.AperFunction,SMDPad,CuDef*%
%ADD38RoundRect,0.140000X-0.170000X0.140000X-0.170000X-0.140000X0.170000X-0.140000X0.170000X0.140000X0*%
%TD*%
%TA.AperFunction,SMDPad,CuDef*%
%ADD39RoundRect,0.218750X0.218750X0.256250X-0.218750X0.256250X-0.218750X-0.256250X0.218750X-0.256250X0*%
%TD*%
%TA.AperFunction,SMDPad,CuDef*%
%ADD40RoundRect,0.135000X0.135000X0.185000X-0.135000X0.185000X-0.135000X-0.185000X0.135000X-0.185000X0*%
%TD*%
%TA.AperFunction,SMDPad,CuDef*%
%ADD41RoundRect,0.200000X0.200000X0.275000X-0.200000X0.275000X-0.200000X-0.275000X0.200000X-0.275000X0*%
%TD*%
%TA.AperFunction,SMDPad,CuDef*%
%ADD42RoundRect,0.150000X-0.625000X0.150000X-0.625000X-0.150000X0.625000X-0.150000X0.625000X0.150000X0*%
%TD*%
%TA.AperFunction,SMDPad,CuDef*%
%ADD43RoundRect,0.250000X-0.650000X0.350000X-0.650000X-0.350000X0.650000X-0.350000X0.650000X0.350000X0*%
%TD*%
%TA.AperFunction,SMDPad,CuDef*%
%ADD44RoundRect,0.150000X-0.512500X-0.150000X0.512500X-0.150000X0.512500X0.150000X-0.512500X0.150000X0*%
%TD*%
%TA.AperFunction,ComponentPad*%
%ADD45R,1.700000X1.700000*%
%TD*%
%TA.AperFunction,ComponentPad*%
%ADD46O,1.700000X1.700000*%
%TD*%
%TA.AperFunction,SMDPad,CuDef*%
%ADD47RoundRect,0.250000X-0.312500X-0.625000X0.312500X-0.625000X0.312500X0.625000X-0.312500X0.625000X0*%
%TD*%
%TA.AperFunction,SMDPad,CuDef*%
%ADD48RoundRect,0.140000X0.140000X0.170000X-0.140000X0.170000X-0.140000X-0.170000X0.140000X-0.170000X0*%
%TD*%
%TA.AperFunction,ComponentPad*%
%ADD49R,1.350000X1.350000*%
%TD*%
%TA.AperFunction,ComponentPad*%
%ADD50O,1.350000X1.350000*%
%TD*%
%TA.AperFunction,SMDPad,CuDef*%
%ADD51RoundRect,0.250000X1.075000X-0.375000X1.075000X0.375000X-1.075000X0.375000X-1.075000X-0.375000X0*%
%TD*%
%TA.AperFunction,SMDPad,CuDef*%
%ADD52RoundRect,0.150000X0.625000X-0.150000X0.625000X0.150000X-0.625000X0.150000X-0.625000X-0.150000X0*%
%TD*%
%TA.AperFunction,SMDPad,CuDef*%
%ADD53RoundRect,0.250000X0.650000X-0.350000X0.650000X0.350000X-0.650000X0.350000X-0.650000X-0.350000X0*%
%TD*%
%TA.AperFunction,SMDPad,CuDef*%
%ADD54RoundRect,0.225000X0.225000X0.250000X-0.225000X0.250000X-0.225000X-0.250000X0.225000X-0.250000X0*%
%TD*%
%TA.AperFunction,SMDPad,CuDef*%
%ADD55R,0.650000X1.800000*%
%TD*%
%TA.AperFunction,SMDPad,CuDef*%
%ADD56RoundRect,0.140000X-0.140000X-0.170000X0.140000X-0.170000X0.140000X0.170000X-0.140000X0.170000X0*%
%TD*%
%TA.AperFunction,SMDPad,CuDef*%
%ADD57RoundRect,0.250000X0.625000X-0.312500X0.625000X0.312500X-0.625000X0.312500X-0.625000X-0.312500X0*%
%TD*%
%TA.AperFunction,SMDPad,CuDef*%
%ADD58R,3.250000X5.000000*%
%TD*%
%TA.AperFunction,ComponentPad*%
%ADD59C,6.500000*%
%TD*%
%TA.AperFunction,ComponentPad*%
%ADD60R,6.300000X6.000000*%
%TD*%
%TA.AperFunction,SMDPad,CuDef*%
%ADD61RoundRect,0.050000X0.337500X0.050000X-0.337500X0.050000X-0.337500X-0.050000X0.337500X-0.050000X0*%
%TD*%
%TA.AperFunction,SMDPad,CuDef*%
%ADD62RoundRect,0.050000X0.050000X0.337500X-0.050000X0.337500X-0.050000X-0.337500X0.050000X-0.337500X0*%
%TD*%
%TA.AperFunction,SMDPad,CuDef*%
%ADD63R,2.800000X2.800000*%
%TD*%
%TA.AperFunction,SMDPad,CuDef*%
%ADD64R,0.380000X0.430000*%
%TD*%
%TA.AperFunction,SMDPad,CuDef*%
%ADD65R,0.400000X0.300000*%
%TD*%
%TA.AperFunction,SMDPad,CuDef*%
%ADD66R,2.450000X1.980000*%
%TD*%
%TA.AperFunction,SMDPad,CuDef*%
%ADD67R,0.350000X0.500000*%
%TD*%
%TA.AperFunction,ViaPad*%
%ADD68C,0.450000*%
%TD*%
%TA.AperFunction,ViaPad*%
%ADD69C,0.800000*%
%TD*%
%TA.AperFunction,ViaPad*%
%ADD70C,0.700000*%
%TD*%
%TA.AperFunction,ViaPad*%
%ADD71C,0.500000*%
%TD*%
%TA.AperFunction,Conductor*%
%ADD72C,0.300000*%
%TD*%
%TA.AperFunction,Conductor*%
%ADD73C,0.200000*%
%TD*%
%TA.AperFunction,Conductor*%
%ADD74C,0.500000*%
%TD*%
%TA.AperFunction,Conductor*%
%ADD75C,0.180000*%
%TD*%
%TA.AperFunction,Conductor*%
%ADD76C,1.000000*%
%TD*%
G04 APERTURE END LIST*
D10*
%TO.P,U301,41,GND*%
%TO.N,N/C*%
X133507029Y-74368471D03*
X131407029Y-76468471D03*
X132107029Y-74368471D03*
X132807029Y-76468471D03*
X132107029Y-75768471D03*
X131407029Y-75068471D03*
X133507029Y-75768471D03*
X133507029Y-77168471D03*
X132807029Y-75068471D03*
X134207029Y-75068471D03*
X134207029Y-76468471D03*
X132107029Y-77168471D03*
%TD*%
D11*
%TO.P,J1,1,N*%
%TO.N,N/C*%
X115700000Y-128700000D03*
%TO.P,J1,2,P*%
X115700000Y-123700000D03*
%TD*%
D12*
%TO.P,U1,17,EP*%
%TO.N,N/C*%
X142400000Y-141850000D03*
X139400000Y-141850000D03*
X139400000Y-143350000D03*
X142400000Y-143350000D03*
D13*
X140900000Y-142600000D03*
D12*
X140900000Y-143350000D03*
X140900000Y-141850000D03*
%TD*%
D14*
%TO.P,J101,S1,Shell*%
%TO.N,N/C*%
X178826447Y-134646447D03*
D15*
%TO.P,J101,S2,Shell*%
X178826447Y-137646447D03*
%TO.P,J101,S3,Shell*%
X187866447Y-137646447D03*
D14*
%TO.P,J101,S4,Shell*%
X187866447Y-134646447D03*
%TD*%
D16*
%TO.P,J104,1,Pin_1*%
%TO.N,N/C*%
X177996447Y-132096447D03*
D17*
%TO.P,J104,2,Pin_2*%
X177996447Y-130826447D03*
%TD*%
D18*
%TO.P,J210,1,Pin_1*%
%TO.N,N/C*%
X195600000Y-67400000D03*
D19*
%TO.P,J210,2,Pin_2*%
X196600000Y-67400000D03*
%TD*%
D11*
%TO.P,J2,1,N*%
%TO.N,N/C*%
X140900000Y-114600000D03*
%TO.P,J2,2,P*%
X145900000Y-114600000D03*
%TD*%
D15*
%TO.P,J201,S1,Shell*%
%TO.N,N/C*%
X195900000Y-88450000D03*
%TO.P,J201,S2,Shell*%
X191600000Y-88450000D03*
%TO.P,J201,S3,Shell*%
X195900000Y-93250000D03*
%TO.P,J201,S4,Shell*%
X191600000Y-93250000D03*
%TD*%
D20*
%TO.P,R304,1*%
%TO.N,N/C*%
X137797029Y-90408471D03*
%TO.P,R304,2*%
X138817029Y-90408471D03*
%TD*%
D21*
%TO.P,C301,1*%
%TO.N,N/C*%
X128057029Y-69708471D03*
%TO.P,C301,2*%
X128057029Y-67808471D03*
%TD*%
D22*
%TO.P,C404,1*%
%TO.N,N/C*%
X122057029Y-71783471D03*
%TO.P,C404,2*%
X122057029Y-70233471D03*
%TD*%
D23*
%TO.P,C320,1*%
%TO.N,N/C*%
X173200000Y-83850000D03*
%TO.P,C320,2*%
X171300000Y-83850000D03*
%TD*%
D24*
%TO.P,J207,1,Pin_1*%
%TO.N,N/C*%
X140807029Y-95208471D03*
%TO.P,J207,2,Pin_2*%
X139807029Y-95208471D03*
%TO.P,J207,3,Pin_3*%
X138807029Y-95208471D03*
%TO.P,J207,4,Pin_4*%
X137807029Y-95208471D03*
D25*
%TO.P,J207,MP*%
X136507029Y-99083471D03*
X142107029Y-99083471D03*
%TD*%
D26*
%TO.P,R306,1*%
%TO.N,N/C*%
X176550000Y-87640000D03*
%TO.P,R306,2*%
X176550000Y-88660000D03*
%TD*%
D27*
%TO.P,C304,1*%
%TO.N,N/C*%
X192800000Y-84850000D03*
%TO.P,C304,2*%
X194700000Y-84850000D03*
%TD*%
D23*
%TO.P,C319,1*%
%TO.N,N/C*%
X173200000Y-81850000D03*
%TO.P,C319,2*%
X171300000Y-81850000D03*
%TD*%
D28*
%TO.P,C309,1*%
%TO.N,N/C*%
X187750000Y-77330000D03*
%TO.P,C309,2*%
X187750000Y-76370000D03*
%TD*%
D20*
%TO.P,R303,1*%
%TO.N,N/C*%
X137797029Y-91608471D03*
%TO.P,R303,2*%
X138817029Y-91608471D03*
%TD*%
D29*
%TO.P,J203,1,Pin_1*%
%TO.N,N/C*%
X117207029Y-83548471D03*
%TO.P,J203,2,Pin_2*%
X113607029Y-83548471D03*
%TO.P,J203,3,Pin_3*%
X117207029Y-82278471D03*
%TO.P,J203,4,Pin_4*%
X113607029Y-82278471D03*
%TO.P,J203,5,Pin_5*%
X117207029Y-81008471D03*
%TO.P,J203,6,Pin_6*%
X113607029Y-81008471D03*
%TO.P,J203,7,Pin_7*%
X117207029Y-79738471D03*
%TO.P,J203,8,Pin_8*%
X113607029Y-79738471D03*
%TO.P,J203,9,Pin_9*%
X117207029Y-78468471D03*
%TO.P,J203,10,Pin_10*%
X113607029Y-78468471D03*
%TD*%
D30*
%TO.P,Q304,D,D*%
%TO.N,N/C*%
X169750000Y-77825000D03*
X169750000Y-75875000D03*
X169750000Y-76525000D03*
D31*
X171250000Y-78250000D03*
D32*
X170890000Y-76850000D03*
D31*
X171250000Y-75450000D03*
D30*
X169750000Y-77175000D03*
D33*
%TO.P,Q304,G,G*%
X172650000Y-77825000D03*
%TO.P,Q304,S,S*%
X172650000Y-76525000D03*
X172650000Y-75875000D03*
X172650000Y-77175000D03*
%TD*%
D34*
%TO.P,R318,1*%
%TO.N,N/C*%
X182550000Y-88560000D03*
%TO.P,R318,2*%
X182550000Y-87540000D03*
%TD*%
D35*
%TO.P,C101,1*%
%TO.N,N/C*%
X179492893Y-119417893D03*
%TO.P,C101,2*%
X179492893Y-120967893D03*
%TD*%
D16*
%TO.P,J103,1,Pin_1*%
%TO.N,N/C*%
X188796447Y-132296447D03*
D17*
%TO.P,J103,2,Pin_2*%
X188796447Y-131026447D03*
%TD*%
D36*
%TO.P,J208,1,Pin_1*%
%TO.N,N/C*%
X175750000Y-63375000D03*
D37*
%TO.P,J208,2,Pin_2*%
X178250000Y-63375000D03*
%TO.P,J208,3,Pin_3*%
X180750000Y-63375000D03*
%TO.P,J208,4,Pin_4*%
X183250000Y-63375000D03*
%TO.P,J208,5,Pin_5*%
X185750000Y-63375000D03*
%TD*%
D20*
%TO.P,R318,1*%
%TO.N,N/C*%
X140797029Y-82008471D03*
%TO.P,R318,2*%
X141817029Y-82008471D03*
%TD*%
D27*
%TO.P,C317,1*%
%TO.N,N/C*%
X166600000Y-79850000D03*
%TO.P,C317,2*%
X168500000Y-79850000D03*
%TD*%
D23*
%TO.P,C407,1*%
%TO.N,N/C*%
X164000000Y-85150000D03*
%TO.P,C407,2*%
X162100000Y-85150000D03*
%TD*%
%TO.P,C318,1*%
%TO.N,N/C*%
X173200000Y-79850000D03*
%TO.P,C318,2*%
X171300000Y-79850000D03*
%TD*%
D26*
%TO.P,R317,1*%
%TO.N,N/C*%
X159350000Y-81040000D03*
%TO.P,R317,2*%
X159350000Y-82060000D03*
%TD*%
D38*
%TO.P,C332,1*%
%TO.N,N/C*%
X181550000Y-87570000D03*
%TO.P,C332,2*%
X181550000Y-88530000D03*
%TD*%
D39*
%TO.P,F201,1*%
%TO.N,N/C*%
X192537500Y-86600000D03*
%TO.P,F201,2*%
X190962500Y-86600000D03*
%TD*%
D23*
%TO.P,C307,1*%
%TO.N,N/C*%
X188700000Y-81350000D03*
%TO.P,C307,2*%
X186800000Y-81350000D03*
%TD*%
D26*
%TO.P,R317,1*%
%TO.N,N/C*%
X127307029Y-80748471D03*
%TO.P,R317,2*%
X127307029Y-81768471D03*
%TD*%
%TO.P,R305,1*%
%TO.N,N/C*%
X173650000Y-87740000D03*
%TO.P,R305,2*%
X173650000Y-88760000D03*
%TD*%
D27*
%TO.P,C314,1*%
%TO.N,N/C*%
X166600000Y-77850000D03*
%TO.P,C314,2*%
X168500000Y-77850000D03*
%TD*%
D20*
%TO.P,R202,1*%
%TO.N,N/C*%
X197440000Y-90950000D03*
%TO.P,R202,2*%
X198460000Y-90950000D03*
%TD*%
D40*
%TO.P,R312,1*%
%TO.N,N/C*%
X186010000Y-89100000D03*
%TO.P,R312,2*%
X184990000Y-89100000D03*
%TD*%
D41*
%TO.P,R307,1*%
%TO.N,N/C*%
X188775000Y-87150000D03*
%TO.P,R307,2*%
X187125000Y-87150000D03*
%TD*%
D34*
%TO.P,R404,1*%
%TO.N,N/C*%
X153807029Y-76628471D03*
%TO.P,R404,2*%
X153807029Y-75608471D03*
%TD*%
D27*
%TO.P,C406,1*%
%TO.N,N/C*%
X161900000Y-90650000D03*
%TO.P,C406,2*%
X163800000Y-90650000D03*
%TD*%
D32*
%TO.P,Q303,D,D*%
%TO.N,N/C*%
X171610000Y-73100000D03*
D31*
X171250000Y-74500000D03*
D30*
X172750000Y-72125000D03*
D31*
X171250000Y-71700000D03*
D30*
X172750000Y-74075000D03*
X172750000Y-73425000D03*
X172750000Y-72775000D03*
D33*
%TO.P,Q303,G,G*%
X169850000Y-72125000D03*
%TO.P,Q303,S,S*%
X169850000Y-72775000D03*
X169850000Y-74075000D03*
X169850000Y-73425000D03*
%TD*%
D23*
%TO.P,C306,1*%
%TO.N,N/C*%
X188700000Y-83350000D03*
%TO.P,C306,2*%
X186800000Y-83350000D03*
%TD*%
D26*
%TO.P,R316,1*%
%TO.N,N/C*%
X197050000Y-79840000D03*
%TO.P,R316,2*%
X197050000Y-80860000D03*
%TD*%
D42*
%TO.P,J101,1,Pin_1*%
%TO.N,N/C*%
X189292893Y-116392893D03*
%TO.P,J101,2,Pin_2*%
X189292893Y-117392893D03*
%TO.P,J101,3,Pin_3*%
X189292893Y-118392893D03*
%TO.P,J101,4,Pin_4*%
X189292893Y-119392893D03*
D43*
%TO.P,J101,MP*%
X193167893Y-115092893D03*
X193167893Y-120692893D03*
%TD*%
D31*
%TO.P,Q302,D,D*%
%TO.N,N/C*%
X190360000Y-67700000D03*
X190360000Y-70500000D03*
D30*
X188860000Y-68125000D03*
X188860000Y-70075000D03*
X188860000Y-68775000D03*
X188860000Y-69425000D03*
D32*
X190000000Y-69100000D03*
D33*
%TO.P,Q302,G,G*%
X191760000Y-70075000D03*
%TO.P,Q302,S,S*%
X191760000Y-69425000D03*
X191760000Y-68125000D03*
X191760000Y-68775000D03*
%TD*%
D11*
%TO.P,J202,1,N*%
%TO.N,N/C*%
X168567767Y-66582233D03*
%TO.P,J202,2,P*%
X165032233Y-70117767D03*
%TD*%
D22*
%TO.P,C401,1*%
%TO.N,N/C*%
X118307029Y-75033471D03*
%TO.P,C401,2*%
X118307029Y-73483471D03*
%TD*%
D20*
%TO.P,R102,1*%
%TO.N,N/C*%
X179086447Y-130796447D03*
%TO.P,R102,2*%
X180106447Y-130796447D03*
%TD*%
D28*
%TO.P,C333,1*%
%TO.N,N/C*%
X163150000Y-82030000D03*
%TO.P,C333,2*%
X163150000Y-81070000D03*
%TD*%
D26*
%TO.P,R405,1*%
%TO.N,N/C*%
X150907029Y-75598471D03*
%TO.P,R405,2*%
X150907029Y-76618471D03*
%TD*%
D20*
%TO.P,R302,1*%
%TO.N,N/C*%
X187990000Y-78850000D03*
%TO.P,R302,2*%
X189010000Y-78850000D03*
%TD*%
D27*
%TO.P,C316,1*%
%TO.N,N/C*%
X166600000Y-81850000D03*
%TO.P,C316,2*%
X168500000Y-81850000D03*
%TD*%
D20*
%TO.P,R319,1*%
%TO.N,N/C*%
X140797029Y-80758471D03*
%TO.P,R319,2*%
X141817029Y-80758471D03*
%TD*%
D44*
%TO.P,U402,1,Vin*%
%TO.N,N/C*%
X161962500Y-88862500D03*
%TO.P,U402,2,GND*%
X161962500Y-87912500D03*
%TO.P,U402,3,EN*%
X161962500Y-86962500D03*
%TO.P,U402,4,VOUT*%
X164237500Y-86962500D03*
%TO.P,U402,5,LX*%
X164237500Y-88862500D03*
%TD*%
D45*
%TO.P,J102,1,Pin_1*%
%TO.N,N/C*%
X182871447Y-130846447D03*
D46*
%TO.P,J102,2,Pin_2*%
X185411447Y-130846447D03*
%TD*%
D47*
%TO.P,R304,1*%
%TO.N,N/C*%
X173587500Y-90350000D03*
%TO.P,R304,2*%
X176512500Y-90350000D03*
%TD*%
D20*
%TO.P,R401,1*%
%TO.N,N/C*%
X152097029Y-71508471D03*
%TO.P,R401,2*%
X153117029Y-71508471D03*
%TD*%
D48*
%TO.P,C312,1*%
%TO.N,N/C*%
X182730000Y-80050000D03*
%TO.P,C312,2*%
X181770000Y-80050000D03*
%TD*%
D26*
%TO.P,R316,1*%
%TO.N,N/C*%
X130807029Y-80748471D03*
%TO.P,R316,2*%
X130807029Y-81768471D03*
%TD*%
D49*
%TO.P,J209,1,Pin_1*%
%TO.N,N/C*%
X192450000Y-96450000D03*
D50*
%TO.P,J209,2,Pin_2*%
X190450000Y-96450000D03*
%TD*%
D51*
%TO.P,L402,1,1*%
%TO.N,N/C*%
X166750000Y-89350000D03*
%TO.P,L402,2,2*%
X166750000Y-86550000D03*
%TD*%
D22*
%TO.P,C325,1*%
%TO.N,N/C*%
X184350000Y-81425000D03*
%TO.P,C325,2*%
X184350000Y-79875000D03*
%TD*%
D20*
%TO.P,R402,1*%
%TO.N,N/C*%
X150097029Y-70008471D03*
%TO.P,R402,2*%
X151117029Y-70008471D03*
%TD*%
%TO.P,R101,1*%
%TO.N,N/C*%
X179086447Y-132096447D03*
%TO.P,R101,2*%
X180106447Y-132096447D03*
%TD*%
D34*
%TO.P,R305,1*%
%TO.N,N/C*%
X139557029Y-81768471D03*
%TO.P,R305,2*%
X139557029Y-80748471D03*
%TD*%
D22*
%TO.P,C403,1*%
%TO.N,N/C*%
X118307029Y-71783471D03*
%TO.P,C403,2*%
X118307029Y-70233471D03*
%TD*%
D26*
%TO.P,R315,1*%
%TO.N,N/C*%
X138557029Y-80748471D03*
%TO.P,R315,2*%
X138557029Y-81768471D03*
%TD*%
D20*
%TO.P,R201,1*%
%TO.N,N/C*%
X197440000Y-92150000D03*
%TO.P,R201,2*%
X198460000Y-92150000D03*
%TD*%
D22*
%TO.P,C402,1*%
%TO.N,N/C*%
X122057029Y-75033471D03*
%TO.P,C402,2*%
X122057029Y-73483471D03*
%TD*%
D34*
%TO.P,R306,1*%
%TO.N,N/C*%
X131807029Y-81768471D03*
%TO.P,R306,2*%
X131807029Y-80748471D03*
%TD*%
D23*
%TO.P,C305,1*%
%TO.N,N/C*%
X188700000Y-85350000D03*
%TO.P,C305,2*%
X186800000Y-85350000D03*
%TD*%
D52*
%TO.P,J102,1,Pin_1*%
%TO.N,N/C*%
X177292893Y-119392893D03*
%TO.P,J102,2,Pin_2*%
X177292893Y-118392893D03*
%TO.P,J102,3,Pin_3*%
X177292893Y-117392893D03*
%TO.P,J102,4,Pin_4*%
X177292893Y-116392893D03*
D53*
%TO.P,J102,MP*%
X173417893Y-120692893D03*
X173417893Y-115092893D03*
%TD*%
D20*
%TO.P,R505,1*%
%TO.N,N/C*%
X196470000Y-76560000D03*
%TO.P,R505,2*%
X197490000Y-76560000D03*
%TD*%
D22*
%TO.P,C103,1*%
%TO.N,N/C*%
X187192893Y-116367893D03*
%TO.P,C103,2*%
X187192893Y-114817893D03*
%TD*%
D54*
%TO.P,C322,1*%
%TO.N,N/C*%
X171925000Y-91350000D03*
%TO.P,C322,2*%
X170375000Y-91350000D03*
%TD*%
D40*
%TO.P,R411,1*%
%TO.N,N/C*%
X148827029Y-67758471D03*
%TO.P,R411,2*%
X147807029Y-67758471D03*
%TD*%
D55*
%TO.P,J206,1,Pin_1*%
%TO.N,N/C*%
X131767029Y-68158471D03*
%TO.P,J206,2,Pin_2*%
X133037029Y-70858471D03*
%TO.P,J206,3,Pin_3*%
X134307029Y-68158471D03*
%TO.P,J206,4,Pin_4*%
X135577029Y-70858471D03*
%TO.P,J206,5,Pin_5*%
X136847029Y-68158471D03*
%TD*%
%TO.P,J202,1,Pin_1*%
%TO.N,N/C*%
X141942029Y-92358471D03*
%TO.P,J202,2,Pin_2*%
X140672029Y-89658471D03*
%TD*%
D27*
%TO.P,C315,1*%
%TO.N,N/C*%
X166600000Y-83850000D03*
%TO.P,C315,2*%
X168500000Y-83850000D03*
%TD*%
D56*
%TO.P,C313,1*%
%TO.N,N/C*%
X177770000Y-80100000D03*
%TO.P,C313,2*%
X178730000Y-80100000D03*
%TD*%
D57*
%TO.P,R301,1*%
%TO.N,N/C*%
X190750000Y-78812500D03*
%TO.P,R301,2*%
X190750000Y-75887500D03*
%TD*%
D26*
%TO.P,R407,1*%
%TO.N,N/C*%
X145957029Y-71898471D03*
%TO.P,R407,2*%
X145957029Y-72918471D03*
%TD*%
D40*
%TO.P,R310,1*%
%TO.N,N/C*%
X185010000Y-88100000D03*
%TO.P,R310,2*%
X183990000Y-88100000D03*
%TD*%
D27*
%TO.P,C303,1*%
%TO.N,N/C*%
X192800000Y-82850000D03*
%TO.P,C303,2*%
X194700000Y-82850000D03*
%TD*%
D29*
%TO.P,J201,1,Pin_1*%
%TO.N,N/C*%
X155007029Y-83548471D03*
%TO.P,J201,2,Pin_2*%
X151407029Y-83548471D03*
%TO.P,J201,3,Pin_3*%
X155007029Y-82278471D03*
%TO.P,J201,4,Pin_4*%
X151407029Y-82278471D03*
%TO.P,J201,5,Pin_5*%
X155007029Y-81008471D03*
%TO.P,J201,6,Pin_6*%
X151407029Y-81008471D03*
%TO.P,J201,7,Pin_7*%
X155007029Y-79738471D03*
%TO.P,J201,8,Pin_8*%
X151407029Y-79738471D03*
%TO.P,J201,9,Pin_9*%
X155007029Y-78468471D03*
%TO.P,J201,10,Pin_10*%
X151407029Y-78468471D03*
%TD*%
D58*
%TO.P,L301,1,1*%
%TO.N,N/C*%
X186375000Y-72850000D03*
%TO.P,L301,2,2*%
X175125000Y-72850000D03*
%TD*%
D24*
%TO.P,J204,1,Pin_1*%
%TO.N,N/C*%
X130807029Y-95208471D03*
%TO.P,J204,2,Pin_2*%
X129807029Y-95208471D03*
%TO.P,J204,3,Pin_3*%
X128807029Y-95208471D03*
%TO.P,J204,4,Pin_4*%
X127807029Y-95208471D03*
D25*
%TO.P,J204,MP*%
X132107029Y-99083471D03*
X126507029Y-99083471D03*
%TD*%
D40*
%TO.P,R408,1*%
%TO.N,N/C*%
X148817029Y-73108471D03*
%TO.P,R408,2*%
X147797029Y-73108471D03*
%TD*%
D59*
%TO.P,J204,N,N*%
%TO.N,N/C*%
X181350000Y-96350000D03*
D60*
%TO.P,J204,P,P*%
X174150000Y-96350000D03*
%TD*%
D34*
%TO.P,R307,1*%
%TO.N,N/C*%
X128307029Y-81768471D03*
%TO.P,R307,2*%
X128307029Y-80748471D03*
%TD*%
D56*
%TO.P,C311,1*%
%TO.N,N/C*%
X192570000Y-75050000D03*
%TO.P,C311,2*%
X193530000Y-75050000D03*
%TD*%
%TO.P,C310,1*%
%TO.N,N/C*%
X192570000Y-74050000D03*
%TO.P,C310,2*%
X193530000Y-74050000D03*
%TD*%
D61*
%TO.P,U301,1,VBUS*%
%TO.N,N/C*%
X182737500Y-82200000D03*
%TO.P,U301,2,ACN*%
X182737500Y-82600000D03*
%TO.P,U301,3,ACP*%
X182737500Y-83000000D03*
%TO.P,U301,4,CHRG_OK*%
X182737500Y-83400000D03*
%TO.P,U301,5,OTG/VAP*%
X182737500Y-83800000D03*
%TO.P,U301,6,ILIM_HIZ*%
X182737500Y-84200000D03*
%TO.P,U301,7,VDDA*%
X182737500Y-84600000D03*
%TO.P,U301,8,IADPT*%
X182737500Y-85000000D03*
D62*
%TO.P,U301,9,IBAT*%
X182150000Y-85587500D03*
%TO.P,U301,10,PSYS*%
X181750000Y-85587500D03*
%TO.P,U301,11,!PROCHOT*%
X181350000Y-85587500D03*
%TO.P,U301,12,SDA*%
X180950000Y-85587500D03*
%TO.P,U301,13,SCL*%
X180550000Y-85587500D03*
%TO.P,U301,14,CMPIN*%
X180150000Y-85587500D03*
%TO.P,U301,15,CMPOUT*%
X179750000Y-85587500D03*
%TO.P,U301,16,COMP1*%
X179350000Y-85587500D03*
D61*
%TO.P,U301,17,COMP2*%
X178762500Y-85000000D03*
%TO.P,U301,18,CELL_BATPRESZ*%
X178762500Y-84600000D03*
%TO.P,U301,19,SRN*%
X178762500Y-84200000D03*
%TO.P,U301,20,SRP*%
X178762500Y-83800000D03*
%TO.P,U301,21,!BATDRV*%
X178762500Y-83400000D03*
%TO.P,U301,22,VSYS*%
X178762500Y-83000000D03*
%TO.P,U301,23,SW2*%
X178762500Y-82600000D03*
%TO.P,U301,24,HIDRV2*%
X178762500Y-82200000D03*
D62*
%TO.P,U301,25,BTST2*%
X179350000Y-81612500D03*
%TO.P,U301,26,LODRV2*%
X179750000Y-81612500D03*
%TO.P,U301,27,PGND*%
X180150000Y-81612500D03*
%TO.P,U301,28,REGN*%
X180550000Y-81612500D03*
%TO.P,U301,29,LODRV1*%
X180950000Y-81612500D03*
%TO.P,U301,30,BTST1*%
X181350000Y-81612500D03*
%TO.P,U301,31,HIDRV1*%
X181750000Y-81612500D03*
%TO.P,U301,32,SW1*%
X182150000Y-81612500D03*
D63*
%TO.P,U301,33,THERMALPAD*%
X180750000Y-83600000D03*
%TD*%
D56*
%TO.P,C323,1*%
%TO.N,N/C*%
X174590000Y-88650000D03*
%TO.P,C323,2*%
X175550000Y-88650000D03*
%TD*%
D23*
%TO.P,C321,1*%
%TO.N,N/C*%
X173200000Y-85850000D03*
%TO.P,C321,2*%
X171300000Y-85850000D03*
%TD*%
D27*
%TO.P,C302,1*%
%TO.N,N/C*%
X192800000Y-80850000D03*
%TO.P,C302,2*%
X194700000Y-80850000D03*
%TD*%
D26*
%TO.P,R410,1*%
%TO.N,N/C*%
X145807029Y-67248471D03*
%TO.P,R410,2*%
X145807029Y-68268471D03*
%TD*%
D34*
%TO.P,R303,1*%
%TO.N,N/C*%
X189000000Y-77360000D03*
%TO.P,R303,2*%
X189000000Y-76340000D03*
%TD*%
D27*
%TO.P,C301,1*%
%TO.N,N/C*%
X192800000Y-78850000D03*
%TO.P,C301,2*%
X194700000Y-78850000D03*
%TD*%
D48*
%TO.P,C308,1*%
%TO.N,N/C*%
X187980000Y-79850000D03*
%TO.P,C308,2*%
X187020000Y-79850000D03*
%TD*%
D26*
%TO.P,R313,1*%
%TO.N,N/C*%
X160450000Y-81040000D03*
%TO.P,R313,2*%
X160450000Y-82060000D03*
%TD*%
D64*
%TO.P,Q305,D,D*%
%TO.N,N/C*%
X168850000Y-88740000D03*
D65*
X171225000Y-90240000D03*
X169275000Y-90240000D03*
D64*
X171650000Y-88740000D03*
D65*
X169925000Y-90240000D03*
X170575000Y-90240000D03*
D66*
X170250000Y-89100000D03*
D67*
%TO.P,Q305,G,G*%
X171225000Y-87340000D03*
%TO.P,Q305,S,S*%
X169925000Y-87340000D03*
X169275000Y-87340000D03*
X170575000Y-87340000D03*
%TD*%
D65*
%TO.P,Q301,D,D*%
%TO.N,N/C*%
X189525000Y-74490000D03*
D64*
X191900000Y-72990000D03*
D65*
X191475000Y-74490000D03*
X190825000Y-74490000D03*
X190175000Y-74490000D03*
D64*
X189100000Y-72990000D03*
D66*
X190500000Y-73350000D03*
D67*
%TO.P,Q301,G,G*%
X191475000Y-71590000D03*
%TO.P,Q301,S,S*%
X189525000Y-71590000D03*
X190825000Y-71590000D03*
X190175000Y-71590000D03*
%TD*%
D68*
%TO.N,*%
X195710000Y-69360000D03*
X182842956Y-132958882D03*
D69*
X127050000Y-117900000D03*
D68*
X198450000Y-92650000D03*
X189741799Y-63840766D03*
X149807029Y-78508471D03*
X180453061Y-86648166D03*
D69*
X154050000Y-121150000D03*
D68*
X127807029Y-96258471D03*
D69*
X119050000Y-126150000D03*
D70*
X177292893Y-113892893D03*
D68*
X165850000Y-83950000D03*
D69*
X123700000Y-133400000D03*
D68*
X113307029Y-86008471D03*
D69*
X181650000Y-84550000D03*
D68*
X144307029Y-73258471D03*
X115307029Y-88008471D03*
X200750000Y-72600000D03*
X169850000Y-71550000D03*
X165500000Y-75100000D03*
D69*
X137300000Y-142150000D03*
D68*
X144057029Y-80758471D03*
X175750000Y-66850000D03*
X194615000Y-87715000D03*
X168743844Y-70842789D03*
X193750000Y-66850000D03*
X192850000Y-94050000D03*
X199450000Y-80850000D03*
X192350000Y-71550000D03*
X187746900Y-66837667D03*
X194550000Y-94050000D03*
X115307029Y-72008471D03*
D70*
X181292893Y-121892893D03*
D68*
X136307029Y-74008471D03*
X184750000Y-82650000D03*
X129867029Y-84668471D03*
X183290000Y-68890000D03*
X191748966Y-65837667D03*
X138307029Y-74008471D03*
X183575000Y-81625000D03*
X124307029Y-95008471D03*
D69*
X145200000Y-135200000D03*
D68*
X115407029Y-73508471D03*
D69*
X112800000Y-132900000D03*
D68*
X151607029Y-70008471D03*
X176050000Y-85450000D03*
X175750000Y-68850000D03*
D69*
X122050000Y-115650000D03*
D68*
X144557029Y-78258471D03*
X173750000Y-64850000D03*
X171750000Y-66850000D03*
D70*
X173292893Y-118892893D03*
D68*
X153557029Y-79008471D03*
X120456029Y-72008471D03*
D69*
X141300000Y-134400000D03*
D68*
X173750000Y-66850000D03*
X195450000Y-79750000D03*
X130807029Y-93508471D03*
X121307029Y-84508471D03*
X136057029Y-68258471D03*
D69*
X142000000Y-147200000D03*
X135800000Y-138300000D03*
D68*
X192850000Y-93150000D03*
D69*
X120550000Y-137900000D03*
D68*
X115067029Y-84222971D03*
X181750000Y-76850000D03*
X178646447Y-133346447D03*
X181950000Y-78850000D03*
X144047029Y-82018471D03*
X181750000Y-74850000D03*
D69*
X132050000Y-121400000D03*
D68*
X139307029Y-68008471D03*
D69*
X155300000Y-127650000D03*
X139300000Y-120900000D03*
D68*
X119607029Y-72008471D03*
X181746922Y-60844855D03*
D69*
X145900000Y-140900000D03*
D68*
X188196447Y-133246447D03*
X161450000Y-78250000D03*
X195450000Y-84950000D03*
X176293767Y-82706233D03*
D69*
X140313738Y-119894653D03*
D68*
X183750000Y-66850000D03*
X184950000Y-88550000D03*
X186946447Y-133246447D03*
X193750000Y-77350000D03*
X180250000Y-91100000D03*
X154307029Y-88008471D03*
X117517029Y-71708471D03*
D70*
X173292893Y-121892893D03*
D68*
X131227029Y-72878471D03*
X192850000Y-88550000D03*
X175750000Y-101850000D03*
D69*
X119050000Y-127150000D03*
D68*
X153107029Y-72208471D03*
X128307029Y-80258471D03*
D69*
X154800000Y-124400000D03*
D68*
X117307029Y-68008471D03*
X196440000Y-76050000D03*
X120557029Y-75258471D03*
D70*
X193298726Y-113892892D03*
X177292893Y-121892893D03*
D68*
X174150000Y-83250000D03*
X115767029Y-81008471D03*
X114307029Y-77008471D03*
D70*
X173292893Y-113892893D03*
D68*
X195860000Y-75270000D03*
X195450000Y-80650000D03*
X194750000Y-79850000D03*
D69*
X150300000Y-132100000D03*
D68*
X161250000Y-84450000D03*
X148307029Y-97008471D03*
X197550000Y-85250000D03*
D70*
X149307029Y-73808471D03*
D68*
X130307029Y-99008471D03*
D69*
X118300000Y-131650000D03*
D68*
X183350000Y-72850000D03*
D69*
X130500000Y-110400000D03*
D68*
X171750000Y-68850000D03*
X171750000Y-64850000D03*
D70*
X180892893Y-116992893D03*
D68*
X200150000Y-80850000D03*
X200160000Y-79550000D03*
D69*
X135100000Y-140800000D03*
X149400000Y-127750000D03*
D68*
X138307029Y-99008471D03*
X178950000Y-79250000D03*
D69*
X136100000Y-139400000D03*
X138550000Y-134400000D03*
D68*
X140307029Y-99008471D03*
D69*
X141300000Y-121900000D03*
D68*
X141807029Y-68008471D03*
X164750000Y-66850000D03*
X179895936Y-86982031D03*
X137807029Y-96258471D03*
X135305872Y-84002987D03*
D69*
X138300000Y-121900000D03*
D68*
X133497029Y-81648471D03*
D70*
X183218393Y-118792893D03*
D68*
X184170947Y-133196447D03*
X167850000Y-88250000D03*
D69*
X133050000Y-117900000D03*
X150700000Y-137700000D03*
D70*
X180692893Y-119392893D03*
D69*
X143300000Y-121900000D03*
X142300000Y-121900000D03*
D68*
X193746900Y-67847933D03*
X119307029Y-95008471D03*
X124307029Y-85008471D03*
X191750000Y-61850000D03*
D69*
X140019011Y-146915553D03*
D68*
X180950000Y-78550000D03*
X116207029Y-75608471D03*
X165850000Y-79550000D03*
X154057029Y-85758471D03*
X195000000Y-97100000D03*
D69*
X155050000Y-131400000D03*
D68*
X165850000Y-78550000D03*
D69*
X119050000Y-130400000D03*
X121800000Y-127900000D03*
D70*
X187192893Y-118392893D03*
D68*
X195450000Y-82450000D03*
D69*
X146300000Y-142650000D03*
D68*
X118577029Y-75778471D03*
X186750000Y-82350000D03*
X191748966Y-63839733D03*
X166150000Y-85150000D03*
X117182029Y-72683471D03*
X153057029Y-81008471D03*
X138307029Y-101008471D03*
X193550000Y-75650000D03*
X178450000Y-88250000D03*
X185751033Y-91790401D03*
D70*
X185992893Y-116435346D03*
D68*
X200280000Y-78350000D03*
X138307029Y-84008471D03*
X178650000Y-91750000D03*
X187750000Y-95850000D03*
X150307029Y-90008471D03*
X127807029Y-94182971D03*
X128307029Y-78008471D03*
D69*
X126400000Y-139600000D03*
D68*
X177750000Y-72850000D03*
X177550000Y-84850000D03*
D69*
X144300000Y-121900000D03*
D68*
X131127029Y-84678471D03*
D69*
X133050000Y-115400000D03*
D68*
X145167029Y-68268471D03*
X173746965Y-60844855D03*
X182000000Y-91100000D03*
X119967029Y-65478471D03*
D70*
X178492893Y-121092893D03*
D68*
X116547029Y-69598471D03*
X186050000Y-83650000D03*
D69*
X123050000Y-115650000D03*
X145300000Y-121900000D03*
D68*
X199950000Y-86150000D03*
X144300962Y-97000000D03*
X135507029Y-72008471D03*
D69*
X152400000Y-131000000D03*
D68*
X195530000Y-74300000D03*
X134827527Y-71433971D03*
X169050000Y-85450000D03*
X163510000Y-83390000D03*
X185350000Y-83850000D03*
X122307029Y-99003274D03*
X190250000Y-77350000D03*
D69*
X123300000Y-117650000D03*
D68*
X127307029Y-82508471D03*
D69*
X147050000Y-136650000D03*
D70*
X145407029Y-64808471D03*
D68*
X189750000Y-97850000D03*
X174150000Y-86550000D03*
X117307029Y-92008471D03*
X194600000Y-88500000D03*
X174150000Y-84150000D03*
X169150000Y-73550000D03*
X175610000Y-82350000D03*
X190950000Y-90850000D03*
X192350000Y-68150000D03*
X187748944Y-61847933D03*
D69*
X119550000Y-111650000D03*
D68*
X179250000Y-87050000D03*
D69*
X120050000Y-118650000D03*
D68*
X190250000Y-94350000D03*
X130301248Y-70007314D03*
D69*
X136800000Y-114150000D03*
D68*
X182345267Y-133376206D03*
X163750000Y-73850000D03*
X151307029Y-68008471D03*
D70*
X150107029Y-69208471D03*
D68*
X183450000Y-88050000D03*
X147057029Y-73433971D03*
X121307029Y-64008471D03*
X118837029Y-83548471D03*
D70*
X191292893Y-121892893D03*
D69*
X120800000Y-130400000D03*
D68*
X193749999Y-69846900D03*
X185750000Y-97850000D03*
X199930000Y-75260000D03*
X185950000Y-87724500D03*
X185750000Y-64850000D03*
X122877029Y-74958471D03*
X173350000Y-77850000D03*
X118867029Y-84328471D03*
X183547288Y-132856292D03*
D70*
X193292893Y-116892893D03*
X182692893Y-120992893D03*
D68*
X185750000Y-66850000D03*
X116057029Y-72608471D03*
D70*
X185303810Y-113898874D03*
D68*
X202250000Y-76350000D03*
D69*
X122550000Y-127150000D03*
D68*
X126307029Y-95008471D03*
X142298558Y-101000000D03*
X185000000Y-76850000D03*
D69*
X139300000Y-121900000D03*
D68*
X195450000Y-78950000D03*
X124304716Y-97008470D03*
X194750000Y-81850000D03*
D69*
X136550000Y-145900000D03*
D68*
X187400878Y-78059122D03*
X175500000Y-80850000D03*
D69*
X139300000Y-119900000D03*
D68*
X140299520Y-101000000D03*
X195450000Y-81550000D03*
X165850000Y-82350000D03*
D69*
X142050000Y-108150000D03*
D68*
X160950000Y-87650000D03*
X117307029Y-90008471D03*
X174150000Y-80550000D03*
D69*
X181650000Y-82750000D03*
D68*
X185738700Y-93849999D03*
X151557029Y-69258471D03*
D69*
X136800000Y-110900000D03*
X122300000Y-138400000D03*
X122050000Y-118650000D03*
D68*
X131500000Y-145200000D03*
D69*
X145700000Y-134100000D03*
D68*
X187846447Y-129746447D03*
X130307029Y-101008471D03*
X115307029Y-86008471D03*
X194750000Y-83850000D03*
D69*
X120050000Y-115650000D03*
X126400000Y-110200000D03*
D68*
X152107029Y-72208471D03*
X131137029Y-71648471D03*
X179296447Y-133346447D03*
X136296921Y-82001831D03*
X113307029Y-84347973D03*
X173250000Y-82850000D03*
X123307028Y-83000481D03*
X196500000Y-77060000D03*
X166550000Y-82850000D03*
X173744855Y-62844855D03*
X200750000Y-89100000D03*
X165850000Y-80550000D03*
X147207029Y-67308471D03*
X179750000Y-74850000D03*
X138557029Y-80258471D03*
X160850000Y-89650000D03*
X184821447Y-133371447D03*
X177742833Y-60844855D03*
X118307029Y-67008471D03*
X183744855Y-74844855D03*
D69*
X121550000Y-131650000D03*
D68*
X175050000Y-90350000D03*
X164629122Y-90770878D03*
D70*
X196600000Y-86100000D03*
D68*
X161750000Y-71850000D03*
X170350000Y-92350000D03*
X177850000Y-89850000D03*
D69*
X116800000Y-140900000D03*
X140024500Y-138214299D03*
D68*
X175744899Y-60844855D03*
D69*
X123050000Y-118650000D03*
D70*
X179292893Y-113892893D03*
D68*
X161250000Y-80950000D03*
D69*
X132050000Y-124650000D03*
D70*
X173292893Y-116892893D03*
D68*
X126307029Y-101008471D03*
X174150000Y-82350000D03*
X179745192Y-72844518D03*
D69*
X120800000Y-127900000D03*
D68*
X159800000Y-83390000D03*
X140307029Y-77008471D03*
X194050000Y-74050000D03*
D69*
X113800000Y-119900000D03*
X145300000Y-120900000D03*
D68*
X165850000Y-81450000D03*
X183500000Y-89850000D03*
X132397029Y-84718471D03*
X169860000Y-70860000D03*
X116307029Y-77008471D03*
X134307029Y-95008471D03*
X130274394Y-78056695D03*
X184749999Y-68847933D03*
X122807029Y-73758471D03*
D70*
X179292893Y-121892893D03*
D69*
X136550000Y-149150000D03*
D68*
X162450000Y-82150000D03*
D69*
X132000000Y-127600000D03*
D68*
X126577029Y-83288471D03*
X128307029Y-99008471D03*
X185750000Y-95850000D03*
D69*
X142300000Y-120900000D03*
D68*
X180874500Y-89350000D03*
X196225500Y-79450000D03*
X152307029Y-90008471D03*
X188500000Y-92600000D03*
X183190000Y-81050000D03*
X167750000Y-63850000D03*
D70*
X149407029Y-68408471D03*
D68*
X166550000Y-78850000D03*
X150307029Y-92008471D03*
X163880026Y-91798504D03*
X172264502Y-88550000D03*
X153557029Y-79758471D03*
X119557029Y-82508471D03*
X121907029Y-94338471D03*
X182750000Y-101850000D03*
X149807029Y-81008471D03*
X182050000Y-86450000D03*
X192350000Y-68750000D03*
X171650000Y-87350000D03*
X136307029Y-101025412D03*
X122307029Y-85008471D03*
D70*
X185292893Y-121892893D03*
D68*
X153557029Y-82258471D03*
X139307029Y-78008471D03*
X192149832Y-91149832D03*
X144307029Y-77008471D03*
X152307029Y-74008471D03*
X183744855Y-60844855D03*
D70*
X187942893Y-119392893D03*
D68*
X179346447Y-129846447D03*
X169150000Y-74150000D03*
X122817029Y-71858471D03*
X183350000Y-86850000D03*
X126867029Y-69338471D03*
D69*
X136900000Y-137850000D03*
D68*
X186050000Y-82050000D03*
X144299039Y-99007990D03*
X169150000Y-72150000D03*
X141307029Y-78008471D03*
X128307029Y-101008471D03*
D70*
X184592893Y-120292893D03*
D68*
X198910000Y-74340000D03*
X186050000Y-82850000D03*
X179750000Y-76850000D03*
X114907029Y-79708471D03*
X131883262Y-73024704D03*
X177750000Y-76850000D03*
X187750000Y-97850000D03*
X121307029Y-66008471D03*
X195160000Y-72830000D03*
X144307029Y-74008471D03*
D70*
X178642893Y-116392893D03*
D68*
X123307029Y-63008471D03*
X141937029Y-83378471D03*
X129500000Y-140600000D03*
D69*
X121050000Y-118650000D03*
D68*
X154307029Y-73008471D03*
X161750000Y-73850000D03*
X145207029Y-67208471D03*
X134267029Y-81598471D03*
X169950000Y-85450000D03*
X187750000Y-98850000D03*
X150307029Y-88008471D03*
X198970000Y-73400000D03*
X173250000Y-84850000D03*
D69*
X179950000Y-82750000D03*
D70*
X196465688Y-86957186D03*
D68*
X151607029Y-76408471D03*
X165750000Y-65850000D03*
D70*
X151707029Y-75008471D03*
D68*
X174150000Y-85750000D03*
X115307029Y-90008471D03*
D70*
X193292893Y-121892893D03*
D68*
X186450000Y-79850000D03*
X199641670Y-79941392D03*
X178080000Y-79260000D03*
X191750000Y-70750000D03*
X132307029Y-101008471D03*
X180350000Y-78050000D03*
D69*
X123800000Y-129400000D03*
D68*
X186750000Y-84350000D03*
D70*
X184392893Y-116192893D03*
D68*
X149807029Y-83508471D03*
D69*
X143200000Y-147200000D03*
D68*
X162374500Y-80950000D03*
X119057029Y-73508471D03*
D70*
X189292893Y-121892893D03*
D68*
X169850000Y-74650000D03*
X185350000Y-83050000D03*
D70*
X175292893Y-121892893D03*
X175942893Y-116392893D03*
D68*
X173750000Y-68850000D03*
X142327029Y-86188471D03*
X187450000Y-78850000D03*
D70*
X183314431Y-113892892D03*
D68*
X152807029Y-78508471D03*
D69*
X119800000Y-127900000D03*
D68*
X119307029Y-87718471D03*
X187150000Y-76450000D03*
X145117029Y-72918471D03*
X184794500Y-84650000D03*
X186550000Y-89050000D03*
X175750000Y-77600000D03*
D70*
X145407029Y-65808471D03*
D68*
X137807029Y-68258471D03*
D70*
X183292893Y-121892893D03*
D68*
X177550000Y-88250000D03*
X193744502Y-90125500D03*
X180741778Y-101841778D03*
X190250000Y-92850000D03*
X139557029Y-82508471D03*
D69*
X152550000Y-138150000D03*
D68*
X153807029Y-74908471D03*
X159950000Y-86850000D03*
D69*
X144300000Y-120900000D03*
D68*
X126307029Y-97008471D03*
X153017029Y-83548471D03*
X119057029Y-70258471D03*
X134957029Y-81668471D03*
D70*
X187292893Y-121892893D03*
D68*
X145307029Y-63008471D03*
X192000000Y-77350000D03*
X195450000Y-83350000D03*
X164650000Y-91650000D03*
X181696447Y-133346447D03*
X141307029Y-71008471D03*
X119307029Y-91758471D03*
D70*
X187292893Y-113892893D03*
D68*
X132797029Y-81658471D03*
D69*
X140300000Y-121900000D03*
D68*
X137300000Y-144500000D03*
X166250000Y-87750000D03*
X198120000Y-69410000D03*
X195450000Y-84150000D03*
X118817029Y-87238471D03*
X169739733Y-62849999D03*
X123307029Y-64008471D03*
X195550000Y-73370000D03*
X139557029Y-80258471D03*
X126557029Y-84558471D03*
X187746900Y-64839733D03*
X118607029Y-79708471D03*
D69*
X126300000Y-115400000D03*
D68*
X197450000Y-75690000D03*
X162350000Y-79550000D03*
D69*
X123550000Y-109400000D03*
D68*
X162750000Y-74950000D03*
X130787029Y-72338471D03*
X192350000Y-69350000D03*
X152307029Y-88008471D03*
X197550000Y-86050000D03*
X115037029Y-81008471D03*
X130807029Y-80258471D03*
X179150000Y-89350000D03*
X199210000Y-75010000D03*
X127307029Y-80258471D03*
X192460000Y-70810000D03*
X165850000Y-83150000D03*
D69*
X149400000Y-133400000D03*
D68*
X114307029Y-75008471D03*
D69*
X127050000Y-107650000D03*
D68*
X183650000Y-80350000D03*
X186050000Y-81150000D03*
X181924500Y-80800000D03*
X152307029Y-92008471D03*
D70*
X190642893Y-119392893D03*
D68*
X199170000Y-72640000D03*
D70*
X175292893Y-113892893D03*
D68*
X154407029Y-76608471D03*
D69*
X141300000Y-120900000D03*
D68*
X179750000Y-78550000D03*
X197750000Y-77650000D03*
X195870878Y-72714500D03*
X134299520Y-100995765D03*
X117307029Y-88008471D03*
X165250000Y-80850000D03*
X195290210Y-90600000D03*
X169746922Y-68844855D03*
X123557029Y-66508471D03*
D69*
X113300000Y-134900000D03*
D68*
X136326531Y-71333971D03*
X118657029Y-78128471D03*
X187496447Y-133246447D03*
X122307029Y-97008471D03*
X184750000Y-101850000D03*
X200350000Y-82150000D03*
X193749999Y-63840766D03*
X150557029Y-85758471D03*
X159750000Y-75850000D03*
X177750000Y-74850000D03*
D69*
X179950000Y-84550000D03*
D70*
X181292893Y-113892893D03*
D68*
X187250000Y-89050000D03*
X178150000Y-81650000D03*
X178744855Y-101841778D03*
D69*
X147000000Y-140900000D03*
D68*
X174150000Y-81450000D03*
X122807029Y-70258471D03*
X177750000Y-86150000D03*
D69*
X121050000Y-115650000D03*
D68*
X136307029Y-76008471D03*
X183500000Y-91100000D03*
X118607029Y-82308471D03*
X150307029Y-94008471D03*
X133607029Y-69308471D03*
X166550000Y-80850000D03*
X144769821Y-66635177D03*
X181750000Y-72850000D03*
X117303274Y-94007028D03*
X129307029Y-77008471D03*
X193700000Y-91600000D03*
D69*
X146600000Y-144100000D03*
X118800000Y-140150000D03*
D68*
X122307029Y-95008471D03*
X189738700Y-65837667D03*
D69*
X144300000Y-146900000D03*
D68*
X161750000Y-75850000D03*
X174150000Y-79650000D03*
D69*
X137300000Y-106900000D03*
D68*
X194050000Y-75050000D03*
D69*
X138300000Y-120900000D03*
D68*
X182550000Y-89350000D03*
X117107029Y-75608471D03*
X145307029Y-77832971D03*
X140807029Y-79508471D03*
X180350000Y-80750000D03*
D69*
X148900000Y-140700000D03*
D68*
X165850000Y-77550000D03*
X128700000Y-140700000D03*
X146300000Y-97000000D03*
X165350000Y-78150000D03*
X199320000Y-81625500D03*
D70*
X193292893Y-118892893D03*
D68*
X171750000Y-62850000D03*
X164350000Y-83350000D03*
X169150000Y-72850000D03*
X143807029Y-67008471D03*
X161150000Y-79550000D03*
X119707029Y-75308471D03*
X173250000Y-80850000D03*
X137807029Y-94182971D03*
X186050000Y-85450000D03*
D69*
X123300000Y-114150000D03*
D68*
X134307029Y-69508471D03*
D69*
X114800000Y-138400000D03*
D68*
X155307029Y-77668969D03*
X185742789Y-60844855D03*
X132307029Y-95008471D03*
X120307029Y-97008471D03*
X183941973Y-82279983D03*
D69*
X130700000Y-145800000D03*
D68*
X181550000Y-89384500D03*
X183956233Y-85043767D03*
D69*
X140300000Y-120900000D03*
X134500000Y-143800000D03*
D68*
X136307029Y-95008471D03*
X179748988Y-60844855D03*
D69*
X143300000Y-119900000D03*
D68*
X179946447Y-133496447D03*
D70*
X191292893Y-113892893D03*
D68*
X118667029Y-81008471D03*
X126807029Y-68008471D03*
X189741799Y-61842833D03*
X192850000Y-87650000D03*
X193550000Y-73350000D03*
X187150000Y-77350000D03*
X121427029Y-93578471D03*
X131807029Y-80258471D03*
X177000000Y-78850000D03*
D69*
X137000000Y-143700000D03*
D68*
X186050000Y-84550000D03*
D69*
X146975000Y-133925000D03*
D68*
X181250000Y-86650000D03*
X182750000Y-78890000D03*
D69*
X143300000Y-120900000D03*
X142299614Y-119894653D03*
X122500000Y-133500000D03*
D68*
X193746900Y-65837667D03*
D69*
X148800000Y-143400000D03*
X146800000Y-110650000D03*
D68*
X177850000Y-89150000D03*
X130807029Y-82508471D03*
X171750000Y-60850000D03*
D69*
X127050000Y-121400000D03*
D68*
X160850000Y-88750000D03*
D70*
X188192893Y-114792893D03*
D68*
X147057029Y-66508471D03*
D69*
X149300000Y-126650000D03*
D68*
X194550000Y-93150000D03*
D69*
X127050000Y-124650000D03*
D68*
X115037029Y-83548471D03*
D69*
X112300000Y-124900000D03*
D68*
X115097029Y-78468471D03*
X148557029Y-78758471D03*
X199950000Y-85250000D03*
X124307029Y-99008471D03*
X147407029Y-72608471D03*
X155307029Y-76508471D03*
D69*
X123300000Y-116650000D03*
D68*
X178650000Y-92550000D03*
D69*
X150800000Y-140900000D03*
D68*
X161250000Y-82150000D03*
X197450000Y-72190000D03*
D70*
X189292893Y-113892893D03*
D69*
X127050000Y-127650000D03*
D68*
X193749999Y-71848966D03*
X178640000Y-81080000D03*
X145207029Y-71908471D03*
D69*
X151050000Y-115400000D03*
D68*
X174150000Y-84950000D03*
D71*
X199450000Y-83450000D03*
%TD*%
D72*
%TO.N,*%
X118577029Y-82278471D02*
X118607029Y-82308471D01*
D73*
X180950000Y-80936760D02*
X180950000Y-79850000D01*
X181550000Y-88530000D02*
X181550000Y-89384500D01*
D72*
X151407029Y-82278471D02*
X146577029Y-82278471D01*
X193530000Y-74050000D02*
X193530000Y-73370000D01*
X150907029Y-75598471D02*
X151117029Y-75598471D01*
X151407029Y-78468471D02*
X152767029Y-78468471D01*
D74*
X131767029Y-67348471D02*
X132307029Y-66808471D01*
D72*
X153827029Y-76608471D02*
X153807029Y-76628471D01*
D73*
X171640000Y-87340000D02*
X171650000Y-87350000D01*
D72*
X182842956Y-132958882D02*
X182842956Y-132965133D01*
X140377029Y-96548471D02*
X142217029Y-96548471D01*
D75*
X141942029Y-91643471D02*
X141907029Y-91608471D01*
D72*
X122057029Y-75033471D02*
X122802029Y-75033471D01*
D73*
X178762500Y-83400000D02*
X176987534Y-83400000D01*
X115627029Y-83968471D02*
X115627029Y-82858471D01*
D74*
X147907029Y-70708471D02*
X149307029Y-72108471D01*
D72*
X183870947Y-133496447D02*
X184170947Y-133196447D01*
X139807029Y-95208471D02*
X139807029Y-95978471D01*
D73*
X176000000Y-84200000D02*
X178762500Y-84200000D01*
X187150000Y-77350000D02*
X188990000Y-77350000D01*
D72*
X153057029Y-83588471D02*
X153017029Y-83548471D01*
D73*
X178450000Y-89150000D02*
X177850000Y-89150000D01*
D72*
X155007029Y-82278471D02*
X153577029Y-82278471D01*
D73*
X201650000Y-86150000D02*
X199750000Y-88050000D01*
D72*
X177996447Y-132096447D02*
X179086447Y-132096447D01*
X150907029Y-76618471D02*
X151397029Y-76618471D01*
D74*
X133037029Y-72338471D02*
X133507029Y-72808471D01*
D72*
X118307029Y-75508471D02*
X118577029Y-75778471D01*
X177750000Y-82550000D02*
X176850000Y-81650000D01*
D73*
X176340000Y-87640000D02*
X175450000Y-86750000D01*
D72*
X137707029Y-68158471D02*
X137807029Y-68258471D01*
X169850000Y-74650000D02*
X169850000Y-74075000D01*
D74*
X176540000Y-88650000D02*
X176550000Y-88660000D01*
X189292893Y-119392893D02*
X190642893Y-119392893D01*
D76*
X174150000Y-96350000D02*
X176512500Y-93987500D01*
D72*
X147207029Y-67308471D02*
X147207029Y-67458471D01*
D74*
X140307029Y-93508471D02*
X130807029Y-93508471D01*
D72*
X140797029Y-80758471D02*
X140797029Y-82008471D01*
D73*
X178762500Y-82600000D02*
X177800000Y-82600000D01*
X199750000Y-88050000D02*
X199750000Y-92200000D01*
X201650000Y-74720000D02*
X201650000Y-86150000D01*
X173325000Y-77825000D02*
X173350000Y-77850000D01*
X188990000Y-77350000D02*
X189000000Y-77360000D01*
X180950000Y-86350000D02*
X181250000Y-86650000D01*
X201050000Y-85950000D02*
X197440000Y-89560000D01*
D74*
X135577029Y-71938471D02*
X135577029Y-70858471D01*
D72*
X151117029Y-70008471D02*
X151607029Y-70008471D01*
X161160000Y-82060000D02*
X161250000Y-82150000D01*
D73*
X177850000Y-85450000D02*
X177750000Y-85550000D01*
D72*
X117117029Y-75608471D02*
X117107029Y-75608471D01*
D73*
X185010000Y-88490000D02*
X184950000Y-88550000D01*
D72*
X127557029Y-73008471D02*
X129707029Y-70858471D01*
X163150000Y-82030000D02*
X162570000Y-82030000D01*
X127307029Y-81768471D02*
X127307029Y-82508471D01*
X176250000Y-81850000D02*
X176250000Y-80350000D01*
X141907029Y-83408471D02*
X141937029Y-83378471D01*
D74*
X177292893Y-116392893D02*
X175942893Y-116392893D01*
D72*
X152767029Y-78468471D02*
X152807029Y-78508471D01*
D73*
X199755000Y-76365000D02*
X199755000Y-79145000D01*
D72*
X147797029Y-73108471D02*
X147797029Y-72998471D01*
X113607029Y-81008471D02*
X115037029Y-81008471D01*
X142327029Y-86188471D02*
X141907029Y-85768471D01*
D73*
X183621956Y-82600000D02*
X182737500Y-82600000D01*
D72*
X130637029Y-71648471D02*
X126247029Y-76038471D01*
D74*
X185592893Y-117392893D02*
X184392893Y-116192893D01*
X130807029Y-95208471D02*
X130807029Y-93508471D01*
D72*
X122807029Y-73758471D02*
X122332029Y-73758471D01*
X180106447Y-133336447D02*
X179946447Y-133496447D01*
D74*
X160950000Y-87650000D02*
X161212500Y-87912500D01*
D72*
X183346447Y-133496447D02*
X183870947Y-133496447D01*
X126247029Y-76038471D02*
X121217029Y-76038471D01*
X144437029Y-82408471D02*
X144047029Y-82018471D01*
D73*
X183575000Y-81625000D02*
X184350000Y-81625000D01*
X197450000Y-75690000D02*
X197450000Y-76520000D01*
D72*
X153807029Y-75608471D02*
X153807029Y-74908471D01*
D74*
X192537500Y-86600000D02*
X193037500Y-86100000D01*
X185992893Y-116435346D02*
X186060346Y-116367893D01*
D72*
X131807029Y-81768471D02*
X130807029Y-81768471D01*
D74*
X173650000Y-88760000D02*
X174480000Y-88760000D01*
D72*
X186375000Y-72850000D02*
X186375000Y-76475000D01*
D74*
X189292893Y-116392893D02*
X187217893Y-116392893D01*
X174480000Y-88760000D02*
X174590000Y-88650000D01*
D72*
X176850000Y-79950000D02*
X173450000Y-76550000D01*
D73*
X182737500Y-82200000D02*
X183000000Y-82200000D01*
D72*
X176850000Y-81650000D02*
X176850000Y-79950000D01*
D73*
X193700000Y-91600000D02*
X193750000Y-91650000D01*
D75*
X134067029Y-85405873D02*
X134067029Y-89687173D01*
D74*
X176550000Y-88660000D02*
X176550000Y-90312500D01*
D73*
X179750000Y-86836095D02*
X179895936Y-86982031D01*
D72*
X151407029Y-79738471D02*
X146037029Y-79738471D01*
D73*
X129867029Y-84668471D02*
X129707029Y-84668471D01*
D72*
X139687029Y-97438471D02*
X138807029Y-96558471D01*
X145767029Y-67208471D02*
X145807029Y-67248471D01*
D74*
X134307029Y-68158471D02*
X135657029Y-69508471D01*
D72*
X117207029Y-82278471D02*
X118577029Y-82278471D01*
X148817029Y-73108471D02*
X149207029Y-73108471D01*
X122082029Y-70258471D02*
X122057029Y-70233471D01*
X130807029Y-81768471D02*
X130807029Y-82508471D01*
D74*
X145007029Y-69208471D02*
X150107029Y-69208471D01*
D73*
X184794500Y-84650000D02*
X184344500Y-84200000D01*
X197450000Y-76520000D02*
X197490000Y-76560000D01*
X115047029Y-82278471D02*
X113607029Y-82278471D01*
D72*
X179346447Y-129846447D02*
X180106447Y-130606447D01*
D75*
X140637029Y-90408471D02*
X138917029Y-90408471D01*
D74*
X151407029Y-83548471D02*
X149847029Y-83548471D01*
D72*
X131767029Y-68158471D02*
X131767029Y-68688471D01*
X113607029Y-83548471D02*
X115037029Y-83548471D01*
X184670947Y-132696447D02*
X185996447Y-132696447D01*
D74*
X196600000Y-86100000D02*
X196360001Y-86339999D01*
D73*
X178750000Y-88850000D02*
X178450000Y-89150000D01*
D74*
X163800000Y-91718478D02*
X163880026Y-91798504D01*
D72*
X145217029Y-71898471D02*
X145957029Y-71898471D01*
D73*
X181580000Y-87540000D02*
X181550000Y-87570000D01*
D72*
X187750000Y-76370000D02*
X187230000Y-76370000D01*
X118332029Y-70258471D02*
X118307029Y-70233471D01*
D74*
X135507029Y-72008471D02*
X135577029Y-71938471D01*
X182892893Y-116192893D02*
X184392893Y-116192893D01*
X140807029Y-94008471D02*
X140307029Y-93508471D01*
D72*
X153767029Y-78468471D02*
X152807029Y-77508471D01*
X141817029Y-82008471D02*
X144037029Y-82008471D01*
D73*
X179350000Y-85587500D02*
X179350000Y-86950000D01*
X192800000Y-77200000D02*
X192800000Y-78850000D01*
D72*
X120557029Y-75378471D02*
X120557029Y-75258471D01*
D74*
X177292893Y-118392893D02*
X180692893Y-118392893D01*
D73*
X182050000Y-86450000D02*
X182150000Y-86350000D01*
X198460000Y-92640000D02*
X198450000Y-92650000D01*
X199750000Y-92200000D02*
X198700000Y-93250000D01*
D72*
X131767029Y-68688471D02*
X121397029Y-68688471D01*
X187990000Y-78850000D02*
X187990000Y-79840000D01*
D73*
X179350000Y-80720000D02*
X178730000Y-80100000D01*
D74*
X142607029Y-66808471D02*
X145007029Y-69208471D01*
D73*
X175700000Y-83800000D02*
X175050000Y-84450000D01*
D72*
X142217029Y-96548471D02*
X143697029Y-95068471D01*
D73*
X197440000Y-92740000D02*
X197440000Y-92150000D01*
X185300000Y-83800000D02*
X185350000Y-83850000D01*
X180950000Y-79850000D02*
X181950000Y-78850000D01*
D75*
X132764627Y-84103471D02*
X134067029Y-85405873D01*
D72*
X122870202Y-73008471D02*
X127557029Y-73008471D01*
D73*
X185010000Y-88100000D02*
X185010000Y-88490000D01*
D72*
X122807029Y-70258471D02*
X122082029Y-70258471D01*
D73*
X197440000Y-89560000D02*
X197440000Y-90950000D01*
X182737500Y-84600000D02*
X183512466Y-84600000D01*
D72*
X184125000Y-79875000D02*
X183650000Y-80350000D01*
X131807029Y-80748471D02*
X131807029Y-80258471D01*
D73*
X177800000Y-84600000D02*
X177550000Y-84850000D01*
D72*
X132397029Y-84718471D02*
X129807029Y-87308471D01*
D74*
X170375000Y-91350000D02*
X170375000Y-92325000D01*
D73*
X179750000Y-80050000D02*
X178950000Y-79250000D01*
D72*
X117182029Y-72683471D02*
X122545202Y-72683471D01*
X162494500Y-81070000D02*
X162374500Y-80950000D01*
D73*
X180150000Y-85587500D02*
X180150000Y-84200000D01*
D72*
X118307029Y-71783471D02*
X117592029Y-71783471D01*
D74*
X144507029Y-70708471D02*
X147907029Y-70708471D01*
D72*
X162570000Y-82030000D02*
X162450000Y-82150000D01*
D73*
X186500000Y-89100000D02*
X186550000Y-89050000D01*
D72*
X144467029Y-86418471D02*
X144467029Y-95725577D01*
X137807029Y-95208471D02*
X137807029Y-96258471D01*
D73*
X195030000Y-72190000D02*
X194590000Y-72630000D01*
X198910000Y-74340000D02*
X200290000Y-74340000D01*
D72*
X148827029Y-67758471D02*
X148827029Y-67828471D01*
D75*
X135578327Y-91198471D02*
X137387029Y-91198471D01*
D72*
X150097029Y-70008471D02*
X150097029Y-69218471D01*
D73*
X177750000Y-85550000D02*
X177750000Y-86150000D01*
D72*
X144467029Y-95725577D02*
X142754135Y-97438471D01*
D73*
X180030000Y-87570000D02*
X178750000Y-88850000D01*
X196470000Y-76560000D02*
X196470000Y-76080000D01*
X160250000Y-87350000D02*
X160250000Y-88350000D01*
D75*
X135735731Y-90818471D02*
X137387029Y-90818471D01*
D73*
X195870878Y-72714500D02*
X196104500Y-72714500D01*
X182150000Y-81612500D02*
X182150000Y-81316963D01*
X197050000Y-79840000D02*
X196615500Y-79840000D01*
D74*
X149307029Y-72108471D02*
X149307029Y-73208471D01*
D73*
X194590000Y-75410000D02*
X192800000Y-77200000D01*
D75*
X140672029Y-90443471D02*
X140637029Y-90408471D01*
D72*
X117207029Y-78468471D02*
X118317029Y-78468471D01*
D74*
X180492893Y-117392893D02*
X180892893Y-116992893D01*
D72*
X161160000Y-81040000D02*
X161250000Y-80950000D01*
D73*
X182850000Y-80616963D02*
X182850000Y-80550000D01*
D75*
X137387029Y-91198471D02*
X137797029Y-91608471D01*
D73*
X160250000Y-88350000D02*
X160650000Y-88750000D01*
X173960000Y-87740000D02*
X173650000Y-87740000D01*
X198460000Y-90950000D02*
X198460000Y-92150000D01*
D74*
X161212500Y-87912500D02*
X161962500Y-87912500D01*
D73*
X178762500Y-82200000D02*
X178500000Y-82200000D01*
D72*
X140797029Y-80758471D02*
X140797029Y-79518471D01*
D73*
X200330000Y-73400000D02*
X201650000Y-74720000D01*
X183941973Y-82279983D02*
X183621956Y-82600000D01*
D72*
X119057029Y-70258471D02*
X118332029Y-70258471D01*
D75*
X134447029Y-89529769D02*
X135735731Y-90818471D01*
D74*
X187192893Y-114817893D02*
X188167893Y-114817893D01*
D72*
X144557029Y-77258471D02*
X144307029Y-77008471D01*
X155007029Y-79738471D02*
X153577029Y-79738471D01*
D73*
X198700000Y-93250000D02*
X197950000Y-93250000D01*
X196470000Y-76080000D02*
X196440000Y-76050000D01*
D72*
X118332029Y-73508471D02*
X118307029Y-73483471D01*
X114907029Y-79708471D02*
X113637029Y-79708471D01*
X134307029Y-68158471D02*
X134307029Y-69508471D01*
D73*
X180950000Y-80936760D02*
X180950000Y-81612500D01*
X191515000Y-71550000D02*
X191475000Y-71590000D01*
D72*
X126807029Y-68008471D02*
X127857029Y-68008471D01*
D74*
X179492893Y-121092893D02*
X178492893Y-121092893D01*
D73*
X196104500Y-72714500D02*
X199755000Y-76365000D01*
X196940000Y-91650000D02*
X197440000Y-92150000D01*
D72*
X187990000Y-79840000D02*
X187980000Y-79850000D01*
X169150000Y-72450000D02*
X169450000Y-72750000D01*
D73*
X182737500Y-85000000D02*
X182737500Y-87352500D01*
D74*
X133507029Y-72808471D02*
X140907029Y-72808471D01*
D72*
X138557029Y-80748471D02*
X138557029Y-80258471D01*
X115767029Y-81008471D02*
X117207029Y-81008471D01*
D73*
X197450000Y-72190000D02*
X195030000Y-72190000D01*
X197050000Y-81050000D02*
X199450000Y-83450000D01*
X186010000Y-89100000D02*
X186500000Y-89100000D01*
D72*
X131227029Y-72878471D02*
X127147029Y-76958471D01*
X122742029Y-71783471D02*
X122817029Y-71858471D01*
X145217029Y-85668471D02*
X144467029Y-86418471D01*
X144437029Y-85388471D02*
X144437029Y-82408471D01*
X193530000Y-75050000D02*
X193530000Y-75630000D01*
X159350000Y-80650000D02*
X160450000Y-79550000D01*
D74*
X182792893Y-116292893D02*
X182892893Y-116192893D01*
D73*
X182737500Y-87352500D02*
X182550000Y-87540000D01*
X182737500Y-83000000D02*
X184400000Y-83000000D01*
X179750000Y-81050000D02*
X179750000Y-80050000D01*
X184344500Y-84200000D02*
X182737500Y-84200000D01*
D72*
X193530000Y-75630000D02*
X193550000Y-75650000D01*
D73*
X183450000Y-88050000D02*
X183940000Y-88050000D01*
D74*
X180692893Y-118392893D02*
X182792893Y-116292893D01*
D72*
X139807029Y-95978471D02*
X140377029Y-96548471D01*
X185996447Y-132696447D02*
X186396447Y-132296447D01*
X145117029Y-72918471D02*
X145957029Y-72918471D01*
X136847029Y-68158471D02*
X136157029Y-68158471D01*
D73*
X180150000Y-84200000D02*
X180750000Y-83600000D01*
X183940000Y-88050000D02*
X183990000Y-88100000D01*
X181924500Y-80800000D02*
X181750000Y-80974500D01*
D72*
X147207029Y-67458471D02*
X147507029Y-67758471D01*
X153117029Y-71508471D02*
X153117029Y-72198471D01*
D73*
X175450000Y-86750000D02*
X175450000Y-84750000D01*
D72*
X113607029Y-78468471D02*
X115097029Y-78468471D01*
D73*
X179750000Y-85587500D02*
X179750000Y-86836095D01*
D72*
X160450000Y-79550000D02*
X161150000Y-79550000D01*
D74*
X163800000Y-90650000D02*
X163800000Y-90800000D01*
D72*
X140797029Y-79518471D02*
X140807029Y-79508471D01*
X129807029Y-87308471D02*
X129807029Y-95208471D01*
D75*
X134447029Y-85248471D02*
X134447029Y-89529769D01*
D74*
X170375000Y-92325000D02*
X170350000Y-92350000D01*
D72*
X141817029Y-80758471D02*
X143557029Y-80758471D01*
D74*
X187192893Y-118392893D02*
X189292893Y-118392893D01*
X143107029Y-75008471D02*
X151707029Y-75008471D01*
D73*
X176550000Y-87640000D02*
X176340000Y-87640000D01*
D72*
X151397029Y-76618471D02*
X151607029Y-76408471D01*
D74*
X195220002Y-86100000D02*
X195460001Y-86339999D01*
D72*
X187020000Y-79850000D02*
X186450000Y-79850000D01*
D74*
X149307029Y-73208471D02*
X149307029Y-73808471D01*
D73*
X181350000Y-81612500D02*
X181350000Y-80470000D01*
D72*
X128807029Y-86998471D02*
X128807029Y-95208471D01*
X118577029Y-79738471D02*
X118607029Y-79708471D01*
X154407029Y-76608471D02*
X153827029Y-76608471D01*
D73*
X180550000Y-86551227D02*
X180453061Y-86648166D01*
D72*
X128057029Y-69708471D02*
X127237029Y-69708471D01*
D73*
X180150000Y-82550000D02*
X179950000Y-82750000D01*
X194590000Y-72630000D02*
X194590000Y-75410000D01*
X196470000Y-76560000D02*
X196470000Y-77030000D01*
D72*
X144037029Y-82008471D02*
X144047029Y-82018471D01*
D73*
X115627029Y-82858471D02*
X115047029Y-82278471D01*
D75*
X134067029Y-89687173D02*
X135578327Y-91198471D01*
D73*
X180550000Y-81612500D02*
X180550000Y-80950000D01*
D72*
X187125000Y-87150000D02*
X183650000Y-87150000D01*
D73*
X200290000Y-74340000D02*
X201050000Y-75100000D01*
X161962500Y-86962500D02*
X160637500Y-86962500D01*
X201050000Y-75100000D02*
X201050000Y-85950000D01*
D72*
X183650000Y-87150000D02*
X183350000Y-86850000D01*
X160450000Y-81040000D02*
X161160000Y-81040000D01*
D74*
X133037029Y-70858471D02*
X133037029Y-72338471D01*
D72*
X182850000Y-80000000D02*
X182850000Y-80550000D01*
X137807029Y-95208471D02*
X137807029Y-94182971D01*
D73*
X180150000Y-81612500D02*
X180150000Y-82550000D01*
D72*
X119057029Y-73508471D02*
X118332029Y-73508471D01*
D74*
X177292893Y-117392893D02*
X180492893Y-117392893D01*
D72*
X153117029Y-72198471D02*
X153107029Y-72208471D01*
X193530000Y-75050000D02*
X194050000Y-75050000D01*
X143697029Y-86128471D02*
X144437029Y-85388471D01*
D75*
X126557029Y-84558471D02*
X127012029Y-84103471D01*
D72*
X186396447Y-132296447D02*
X188796447Y-132296447D01*
X141907029Y-85768471D02*
X141907029Y-83408471D01*
X145057029Y-80758471D02*
X144807029Y-80758471D01*
D73*
X197050000Y-80860000D02*
X197050000Y-81050000D01*
X199755000Y-79145000D02*
X200160000Y-79550000D01*
D74*
X177292893Y-119392893D02*
X179342893Y-119392893D01*
D75*
X141942029Y-92358471D02*
X141942029Y-91643471D01*
D73*
X187450000Y-78850000D02*
X187990000Y-78850000D01*
X129707029Y-84668471D02*
X128607029Y-85768471D01*
D75*
X132922029Y-83723471D02*
X134447029Y-85248471D01*
D72*
X131127029Y-84678471D02*
X128807029Y-86998471D01*
X184170947Y-133196447D02*
X184670947Y-132696447D01*
X151407029Y-78468471D02*
X149847029Y-78468471D01*
D74*
X188167893Y-114817893D02*
X188192893Y-114792893D01*
D72*
X142754135Y-97438471D02*
X139687029Y-97438471D01*
D73*
X128607029Y-85768471D02*
X117427029Y-85768471D01*
X185000000Y-83400000D02*
X185350000Y-83050000D01*
D72*
X113637029Y-79708471D02*
X113607029Y-79738471D01*
X136847029Y-68158471D02*
X137707029Y-68158471D01*
X177996447Y-130826447D02*
X179056447Y-130826447D01*
D74*
X176550000Y-90312500D02*
X176512500Y-90350000D01*
D73*
X196565000Y-90075000D02*
X197440000Y-90950000D01*
X191750000Y-70085000D02*
X191760000Y-70075000D01*
D74*
X153017029Y-83548471D02*
X155007029Y-83548471D01*
D72*
X153057029Y-84758471D02*
X153057029Y-83588471D01*
X159350000Y-82940000D02*
X159800000Y-83390000D01*
D73*
X179750000Y-81612500D02*
X179750000Y-81050000D01*
D72*
X153577029Y-82278471D02*
X153557029Y-82258471D01*
X115037029Y-81008471D02*
X115767029Y-81008471D01*
D73*
X180550000Y-80950000D02*
X180350000Y-80750000D01*
X196615500Y-79840000D02*
X196225500Y-79450000D01*
D74*
X161950000Y-85150000D02*
X161250000Y-84450000D01*
D72*
X153057029Y-81008471D02*
X155007029Y-81008471D01*
X117592029Y-71783471D02*
X117517029Y-71708471D01*
X120456029Y-69629471D02*
X120456029Y-72008471D01*
D73*
X180550000Y-85587500D02*
X180550000Y-86551227D01*
X182550000Y-87540000D02*
X181580000Y-87540000D01*
X175450000Y-84750000D02*
X176000000Y-84200000D01*
D72*
X153577029Y-79738471D02*
X153557029Y-79758471D01*
D74*
X196465688Y-86957186D02*
X195848501Y-86339999D01*
D72*
X121217029Y-76038471D02*
X120557029Y-75378471D01*
D73*
X178300000Y-85000000D02*
X177850000Y-85450000D01*
D72*
X146037029Y-79738471D02*
X144557029Y-78258471D01*
D73*
X183000000Y-82200000D02*
X183575000Y-81625000D01*
D74*
X163800000Y-90650000D02*
X163800000Y-91718478D01*
D73*
X179350000Y-86950000D02*
X179250000Y-87050000D01*
D72*
X144807029Y-80758471D02*
X143557029Y-80758471D01*
X122802029Y-75033471D02*
X122877029Y-74958471D01*
D74*
X196360001Y-86339999D02*
X195460001Y-86339999D01*
D73*
X182333482Y-81133481D02*
X182850000Y-80616963D01*
D72*
X160450000Y-82060000D02*
X161160000Y-82060000D01*
D74*
X187217893Y-116392893D02*
X187192893Y-116367893D01*
X175550000Y-88650000D02*
X176540000Y-88650000D01*
D72*
X117207029Y-79738471D02*
X118577029Y-79738471D01*
X117207029Y-83548471D02*
X118837029Y-83548471D01*
D73*
X169850000Y-71550000D02*
X169850000Y-72125000D01*
D72*
X163150000Y-81070000D02*
X162494500Y-81070000D01*
X127237029Y-69708471D02*
X126867029Y-69338471D01*
D73*
X184990000Y-89100000D02*
X184990000Y-88590000D01*
D72*
X122057029Y-71783471D02*
X122742029Y-71783471D01*
X184350000Y-79875000D02*
X184125000Y-79875000D01*
X131137029Y-71648471D02*
X130637029Y-71648471D01*
X193530000Y-73370000D02*
X193550000Y-73350000D01*
D73*
X117427029Y-85768471D02*
X115627029Y-83968471D01*
X160650000Y-88750000D02*
X160850000Y-88750000D01*
D74*
X189292893Y-117392893D02*
X185592893Y-117392893D01*
D73*
X176987534Y-83400000D02*
X176293767Y-82706233D01*
D75*
X140672029Y-89658471D02*
X140672029Y-90443471D01*
X127012029Y-83723471D02*
X132922029Y-83723471D01*
D72*
X186375000Y-76475000D02*
X182850000Y-80000000D01*
X144807029Y-80758471D02*
X145217029Y-81168471D01*
D73*
X193744502Y-90125500D02*
X193795002Y-90075000D01*
X182150000Y-86350000D02*
X182150000Y-85587500D01*
D72*
X180106447Y-130606447D02*
X180106447Y-133336447D01*
X118467029Y-76958471D02*
X117117029Y-75608471D01*
D73*
X184400000Y-83000000D02*
X184750000Y-82650000D01*
D72*
X145217029Y-81168471D02*
X145217029Y-85668471D01*
D74*
X135657029Y-69508471D02*
X143307029Y-69508471D01*
D73*
X193750000Y-91650000D02*
X196940000Y-91650000D01*
D72*
X152807029Y-77508471D02*
X152557029Y-77258471D01*
X146577029Y-82278471D02*
X145057029Y-80758471D01*
X127307029Y-80748471D02*
X127307029Y-80258471D01*
X174450000Y-78550000D02*
X171250000Y-78550000D01*
D75*
X137387029Y-90818471D02*
X137797029Y-90408471D01*
D72*
X139557029Y-80748471D02*
X139557029Y-80258471D01*
D73*
X178762500Y-84600000D02*
X177800000Y-84600000D01*
D74*
X195848501Y-86339999D02*
X195460001Y-86339999D01*
D73*
X172650000Y-77825000D02*
X173325000Y-77825000D01*
D72*
X130807029Y-80748471D02*
X130807029Y-80258471D01*
X149207029Y-73108471D02*
X149307029Y-73208471D01*
D73*
X160637500Y-86962500D02*
X160250000Y-87350000D01*
D72*
X139557029Y-81768471D02*
X139557029Y-82508471D01*
X169150000Y-72150000D02*
X169150000Y-72450000D01*
X145807029Y-77258471D02*
X144557029Y-77258471D01*
D74*
X193037500Y-86100000D02*
X195220002Y-86100000D01*
D73*
X177350000Y-82950000D02*
X177400000Y-83000000D01*
D75*
X127012029Y-84103471D02*
X132764627Y-84103471D01*
D73*
X178500000Y-82200000D02*
X178150000Y-81850000D01*
D76*
X176512500Y-93987500D02*
X176512500Y-90350000D01*
D72*
X151407029Y-81008471D02*
X149807029Y-81008471D01*
D73*
X178762500Y-83800000D02*
X175700000Y-83800000D01*
X196470000Y-77030000D02*
X196500000Y-77060000D01*
D72*
X122332029Y-73758471D02*
X122057029Y-73483471D01*
D74*
X186060346Y-116367893D02*
X187192893Y-116367893D01*
D72*
X122545202Y-72683471D02*
X122870202Y-73008471D01*
D73*
X183512466Y-84600000D02*
X183956233Y-85043767D01*
D72*
X143697029Y-95068471D02*
X143697029Y-86128471D01*
D75*
X138917029Y-90408471D02*
X138817029Y-90508471D01*
D72*
X118307029Y-75033471D02*
X118307029Y-75508471D01*
D73*
X182737500Y-83800000D02*
X185300000Y-83800000D01*
D74*
X143307029Y-69508471D02*
X144507029Y-70708471D01*
D73*
X175050000Y-86650000D02*
X173960000Y-87740000D01*
D72*
X187230000Y-76370000D02*
X187150000Y-76450000D01*
D74*
X189292893Y-119392893D02*
X187942893Y-119392893D01*
D73*
X178762500Y-85000000D02*
X178300000Y-85000000D01*
D74*
X140907029Y-72808471D02*
X143107029Y-75008471D01*
D73*
X181750000Y-80974500D02*
X181750000Y-81612500D01*
D74*
X131767029Y-68158471D02*
X131767029Y-67348471D01*
D73*
X181350000Y-80470000D02*
X181770000Y-80050000D01*
X178150000Y-81850000D02*
X178150000Y-81650000D01*
D72*
X138557029Y-81768471D02*
X139557029Y-81768471D01*
X127807029Y-95208471D02*
X127807029Y-94182971D01*
X143557029Y-80758471D02*
X144057029Y-80758471D01*
D74*
X163800000Y-90650000D02*
X164508244Y-90650000D01*
D72*
X182842956Y-132965133D02*
X183346447Y-133468624D01*
X177620000Y-79950000D02*
X177770000Y-80100000D01*
X159350000Y-81040000D02*
X159350000Y-80650000D01*
D73*
X182737500Y-83400000D02*
X185000000Y-83400000D01*
D72*
X117207029Y-81008471D02*
X118667029Y-81008471D01*
X128307029Y-80748471D02*
X128307029Y-80258471D01*
X145167029Y-68268471D02*
X145807029Y-68268471D01*
X129707029Y-70858471D02*
X133037029Y-70858471D01*
X176850000Y-79950000D02*
X177620000Y-79950000D01*
D75*
X126577029Y-83288471D02*
X127012029Y-83723471D01*
D73*
X180950000Y-85587500D02*
X180950000Y-86350000D01*
D72*
X147797029Y-72998471D02*
X147407029Y-72608471D01*
X136157029Y-68158471D02*
X136057029Y-68258471D01*
X115097029Y-78468471D02*
X117207029Y-78468471D01*
D74*
X180692893Y-119392893D02*
X179542893Y-119392893D01*
D72*
X127147029Y-76958471D02*
X118467029Y-76958471D01*
X155007029Y-78468471D02*
X153767029Y-78468471D01*
D73*
X191750000Y-70750000D02*
X191750000Y-70085000D01*
D72*
X176250000Y-80350000D02*
X174450000Y-78550000D01*
D74*
X140807029Y-95208471D02*
X140807029Y-94008471D01*
D72*
X193530000Y-74050000D02*
X194050000Y-74050000D01*
X151407029Y-81008471D02*
X153057029Y-81008471D01*
D73*
X177400000Y-83000000D02*
X178762500Y-83000000D01*
D72*
X159350000Y-82060000D02*
X159350000Y-82940000D01*
D74*
X151407029Y-83548471D02*
X153017029Y-83548471D01*
D73*
X182150000Y-81316963D02*
X182333482Y-81133481D01*
X182550000Y-88560000D02*
X182550000Y-89350000D01*
D72*
X177350000Y-82950000D02*
X176250000Y-81850000D01*
D73*
X197950000Y-93250000D02*
X197440000Y-92740000D01*
D72*
X149847029Y-78468471D02*
X149807029Y-78508471D01*
X179056447Y-130826447D02*
X179086447Y-130796447D01*
D73*
X175050000Y-84450000D02*
X175050000Y-86650000D01*
D72*
X183346447Y-133468624D02*
X183346447Y-133496447D01*
X145207029Y-71908471D02*
X145217029Y-71898471D01*
X152557029Y-77258471D02*
X145807029Y-77258471D01*
D73*
X198970000Y-73400000D02*
X200330000Y-73400000D01*
D74*
X162100000Y-85150000D02*
X161950000Y-85150000D01*
D72*
X138807029Y-96558471D02*
X138807029Y-95208471D01*
D74*
X173650000Y-88760000D02*
X173650000Y-90287500D01*
D72*
X127857029Y-68008471D02*
X128057029Y-67808471D01*
D74*
X164508244Y-90650000D02*
X164629122Y-90770878D01*
D73*
X198460000Y-92150000D02*
X198460000Y-92640000D01*
D72*
X152097029Y-71508471D02*
X152097029Y-72198471D01*
X148827029Y-67828471D02*
X149407029Y-68408471D01*
D73*
X177800000Y-82600000D02*
X177750000Y-82550000D01*
D72*
X151117029Y-75598471D02*
X151707029Y-75008471D01*
D75*
X141907029Y-91608471D02*
X138817029Y-91608471D01*
D72*
X145207029Y-67208471D02*
X145767029Y-67208471D01*
D73*
X179350000Y-81612500D02*
X179350000Y-80720000D01*
D72*
X121397029Y-68688471D02*
X120456029Y-69629471D01*
X127807029Y-95208471D02*
X127807029Y-96258471D01*
D73*
X193795002Y-90075000D02*
X196565000Y-90075000D01*
X171225000Y-87340000D02*
X171640000Y-87340000D01*
D72*
X154057029Y-85758471D02*
X153057029Y-84758471D01*
X128307029Y-81768471D02*
X127307029Y-81768471D01*
D74*
X177292893Y-116392893D02*
X178642893Y-116392893D01*
D72*
X150097029Y-69218471D02*
X150107029Y-69208471D01*
D73*
X184990000Y-88590000D02*
X184950000Y-88550000D01*
X192350000Y-71550000D02*
X191515000Y-71550000D01*
D74*
X149847029Y-83548471D02*
X149807029Y-83508471D01*
X132307029Y-66808471D02*
X142607029Y-66808471D01*
D72*
X118317029Y-78468471D02*
X118657029Y-78128471D01*
X147507029Y-67758471D02*
X147807029Y-67758471D01*
X152097029Y-72198471D02*
X152107029Y-72208471D01*
D73*
X181550000Y-87570000D02*
X180030000Y-87570000D01*
D74*
X163800000Y-90800000D02*
X164650000Y-91650000D01*
%TD*%
%TA.AperFunction,NonConductor*%
G36*
X170193039Y-72569685D02*
G01*
X170238794Y-72622489D01*
X170250000Y-72674000D01*
X170250000Y-74226000D01*
X170230315Y-74293039D01*
X170177511Y-74338794D01*
X170126000Y-74350000D01*
X168974000Y-74350000D01*
X168906961Y-74330315D01*
X168861206Y-74277511D01*
X168850000Y-74226000D01*
X168850000Y-72674000D01*
X168869685Y-72606961D01*
X168922489Y-72561206D01*
X168974000Y-72550000D01*
X170126000Y-72550000D01*
X170193039Y-72569685D01*
G37*
%TD.AperFunction*%
%TA.AperFunction,NonConductor*%
G36*
X164509191Y-82968907D02*
G01*
X164545155Y-83018407D01*
X164550000Y-83049000D01*
X164550000Y-85050000D01*
X165150000Y-85650000D01*
X168051000Y-85650000D01*
X168109191Y-85668907D01*
X168145155Y-85718407D01*
X168150000Y-85749000D01*
X168150000Y-87151000D01*
X168131093Y-87209191D01*
X168081593Y-87245155D01*
X168051000Y-87250000D01*
X166050000Y-87250000D01*
X166039979Y-87258351D01*
X165477535Y-87727054D01*
X165420728Y-87749782D01*
X165414157Y-87750000D01*
X163791008Y-87750000D01*
X163732817Y-87731093D01*
X163721004Y-87721004D01*
X163278996Y-87278996D01*
X163251219Y-87224479D01*
X163250000Y-87208992D01*
X163250000Y-83049000D01*
X163268907Y-82990809D01*
X163318407Y-82954845D01*
X163349000Y-82950000D01*
X164451000Y-82950000D01*
X164509191Y-82968907D01*
G37*
%TD.AperFunction*%
%TA.AperFunction,NonConductor*%
G36*
X195265677Y-78169685D02*
G01*
X195286319Y-78186319D01*
X195613681Y-78513681D01*
X195647166Y-78575004D01*
X195650000Y-78601362D01*
X195650000Y-85105106D01*
X195630315Y-85172145D01*
X195621259Y-85184489D01*
X195272715Y-85602742D01*
X195214676Y-85641641D01*
X195188332Y-85645162D01*
X195188481Y-85646510D01*
X195179275Y-85647526D01*
X195170008Y-85647162D01*
X195162924Y-85649040D01*
X195154564Y-85649500D01*
X194374000Y-85649500D01*
X194306961Y-85629815D01*
X194261206Y-85577011D01*
X194250000Y-85525500D01*
X194250000Y-78274000D01*
X194269685Y-78206961D01*
X194322489Y-78161206D01*
X194374000Y-78150000D01*
X195198638Y-78150000D01*
X195265677Y-78169685D01*
G37*
%TD.AperFunction*%
%TA.AperFunction,NonConductor*%
G36*
X171458961Y-88169685D02*
G01*
X171487180Y-88194616D01*
X171553334Y-88274000D01*
X171823647Y-88598376D01*
X171850860Y-88658358D01*
X171854783Y-88683126D01*
X171915974Y-88803220D01*
X172011282Y-88898528D01*
X172019979Y-88902960D01*
X172019980Y-88902960D01*
X172097216Y-88942315D01*
X172136179Y-88973416D01*
X172395385Y-89284462D01*
X172450000Y-89350000D01*
X173798638Y-89350000D01*
X173865677Y-89369685D01*
X173886319Y-89386319D01*
X174213681Y-89713681D01*
X174247166Y-89775004D01*
X174250000Y-89801362D01*
X174250000Y-91098638D01*
X174230315Y-91165677D01*
X174213681Y-91186319D01*
X173986319Y-91413681D01*
X173924996Y-91447166D01*
X173898638Y-91450000D01*
X172550000Y-91450000D01*
X172186319Y-91813681D01*
X172124996Y-91847166D01*
X172098638Y-91850000D01*
X171501362Y-91850000D01*
X171434323Y-91830315D01*
X171413681Y-91813681D01*
X171286319Y-91686319D01*
X171252834Y-91624996D01*
X171250000Y-91598638D01*
X171250000Y-90450000D01*
X171050000Y-90250000D01*
X169074000Y-90250000D01*
X169006961Y-90230315D01*
X168961206Y-90177511D01*
X168950000Y-90126000D01*
X168950000Y-88274000D01*
X168969685Y-88206961D01*
X169022489Y-88161206D01*
X169074000Y-88150000D01*
X171391922Y-88150000D01*
X171458961Y-88169685D01*
G37*
%TD.AperFunction*%
%TA.AperFunction,NonConductor*%
G36*
X187093039Y-80669685D02*
G01*
X187138794Y-80722489D01*
X187150000Y-80774000D01*
X187150000Y-86026000D01*
X187130315Y-86093039D01*
X187077511Y-86138794D01*
X187026000Y-86150000D01*
X186291333Y-86150000D01*
X186224294Y-86130315D01*
X186216933Y-86125200D01*
X186084667Y-86026000D01*
X185899600Y-85887200D01*
X185857779Y-85831229D01*
X185850000Y-85788000D01*
X185850000Y-81001362D01*
X185869685Y-80934323D01*
X185886319Y-80913681D01*
X186113681Y-80686319D01*
X186175004Y-80652834D01*
X186201362Y-80650000D01*
X187026000Y-80650000D01*
X187093039Y-80669685D01*
G37*
%TD.AperFunction*%
%TA.AperFunction,NonConductor*%
G36*
X176793039Y-70069685D02*
G01*
X176838794Y-70122489D01*
X176850000Y-70174000D01*
X176850000Y-75626000D01*
X176830315Y-75693039D01*
X176777511Y-75738794D01*
X176726000Y-75750000D01*
X174750000Y-75750000D01*
X173186319Y-77313681D01*
X173124996Y-77347166D01*
X173098638Y-77350000D01*
X172401362Y-77350000D01*
X172334323Y-77330315D01*
X172313681Y-77313681D01*
X172286319Y-77286319D01*
X172252834Y-77224996D01*
X172250000Y-77198638D01*
X172250000Y-74550000D01*
X172150000Y-74450000D01*
X170874000Y-74450000D01*
X170806961Y-74430315D01*
X170761206Y-74377511D01*
X170750000Y-74326000D01*
X170750000Y-70899036D01*
X170769685Y-70831997D01*
X170783537Y-70814227D01*
X171383750Y-70174000D01*
X171463259Y-70089190D01*
X171523470Y-70053747D01*
X171553721Y-70050000D01*
X176726000Y-70050000D01*
X176793039Y-70069685D01*
G37*
%TD.AperFunction*%
%TA.AperFunction,NonConductor*%
G36*
X192593039Y-67869685D02*
G01*
X192638794Y-67922489D01*
X192650000Y-67974000D01*
X192650000Y-69526000D01*
X192630315Y-69593039D01*
X192577511Y-69638794D01*
X192526000Y-69650000D01*
X191574000Y-69650000D01*
X191506961Y-69630315D01*
X191461206Y-69577511D01*
X191450000Y-69526000D01*
X191450000Y-67974000D01*
X191469685Y-67906961D01*
X191522489Y-67861206D01*
X191574000Y-67850000D01*
X192526000Y-67850000D01*
X192593039Y-67869685D01*
G37*
%TD.AperFunction*%
%TA.AperFunction,NonConductor*%
G36*
X192265677Y-72669685D02*
G01*
X192286319Y-72686319D01*
X192515061Y-72915061D01*
X192548546Y-72976384D01*
X192551335Y-72999392D01*
X192646558Y-76522650D01*
X192628692Y-76590197D01*
X192577143Y-76637362D01*
X192522603Y-76650000D01*
X188774000Y-76650000D01*
X188706961Y-76630315D01*
X188661206Y-76577511D01*
X188650000Y-76526000D01*
X188650000Y-73401362D01*
X188669685Y-73334323D01*
X188686319Y-73313681D01*
X189313681Y-72686319D01*
X189375004Y-72652834D01*
X189401362Y-72650000D01*
X192198638Y-72650000D01*
X192265677Y-72669685D01*
G37*
%TD.AperFunction*%
%TA.AperFunction,NonConductor*%
G36*
X174165677Y-79069685D02*
G01*
X174186319Y-79086319D01*
X174513681Y-79413681D01*
X174547166Y-79475004D01*
X174550000Y-79501362D01*
X174550000Y-86598638D01*
X174530315Y-86665677D01*
X174513681Y-86686319D01*
X174386319Y-86813681D01*
X174324996Y-86847166D01*
X174298638Y-86850000D01*
X172774000Y-86850000D01*
X172706961Y-86830315D01*
X172661206Y-86777511D01*
X172650000Y-86726000D01*
X172650000Y-79174000D01*
X172669685Y-79106961D01*
X172722489Y-79061206D01*
X172774000Y-79050000D01*
X174098638Y-79050000D01*
X174165677Y-79069685D01*
G37*
%TD.AperFunction*%
%TA.AperFunction,NonConductor*%
G36*
X167093039Y-76969685D02*
G01*
X167138794Y-77022489D01*
X167150000Y-77074000D01*
X167150000Y-84726000D01*
X167130315Y-84793039D01*
X167077511Y-84838794D01*
X167026000Y-84850000D01*
X166287544Y-84850000D01*
X166218761Y-84829174D01*
X165705217Y-84486811D01*
X165660356Y-84433246D01*
X165650000Y-84383637D01*
X165650000Y-77401362D01*
X165669685Y-77334323D01*
X165686319Y-77313681D01*
X166013681Y-76986319D01*
X166075004Y-76952834D01*
X166101362Y-76950000D01*
X167026000Y-76950000D01*
X167093039Y-76969685D01*
G37*
%TD.AperFunction*%
%TA.AperFunction,NonConductor*%
G36*
X192965677Y-77969685D02*
G01*
X192986319Y-77986319D01*
X193213681Y-78213681D01*
X193247166Y-78275004D01*
X193250000Y-78301362D01*
X193250000Y-85426000D01*
X193230315Y-85493039D01*
X193177511Y-85538794D01*
X193126000Y-85550000D01*
X191950000Y-85550000D01*
X191550000Y-85950000D01*
X191550000Y-87098638D01*
X191530315Y-87165677D01*
X191513681Y-87186319D01*
X191492966Y-87207034D01*
X191434231Y-87239927D01*
X191406543Y-87246574D01*
X191377597Y-87250000D01*
X190550000Y-87250000D01*
X190086319Y-87713681D01*
X190024996Y-87747166D01*
X189998638Y-87750000D01*
X188501362Y-87750000D01*
X188434323Y-87730315D01*
X188413681Y-87713681D01*
X188286319Y-87586319D01*
X188252834Y-87524996D01*
X188250000Y-87498638D01*
X188250000Y-80801362D01*
X188269685Y-80734323D01*
X188286319Y-80713681D01*
X188650000Y-80350000D01*
X188650000Y-78574000D01*
X188669685Y-78506961D01*
X188722489Y-78461206D01*
X188774000Y-78450000D01*
X189250000Y-78450000D01*
X189713681Y-77986319D01*
X189775004Y-77952834D01*
X189801362Y-77950000D01*
X192898638Y-77950000D01*
X192965677Y-77969685D01*
G37*
%TD.AperFunction*%
%TA.AperFunction,NonConductor*%
G36*
X162609191Y-88468907D02*
G01*
X162645155Y-88518407D01*
X162650000Y-88549000D01*
X162650000Y-91651000D01*
X162631093Y-91709191D01*
X162581593Y-91745155D01*
X162551000Y-91750000D01*
X161414401Y-91750000D01*
X161356210Y-91731093D01*
X161328666Y-91700502D01*
X161253638Y-91570550D01*
X161251646Y-91566925D01*
X160821825Y-90744754D01*
X160819981Y-90741040D01*
X160640978Y-90360639D01*
X160637619Y-90352598D01*
X160317248Y-89478859D01*
X160080457Y-88833063D01*
X160078176Y-88771920D01*
X160112270Y-88721114D01*
X160129132Y-88710434D01*
X160629096Y-88460452D01*
X160673370Y-88450000D01*
X162551000Y-88450000D01*
X162609191Y-88468907D01*
G37*
%TD.AperFunction*%
%TA.AperFunction,NonConductor*%
G36*
X165765677Y-67469685D02*
G01*
X165786319Y-67486319D01*
X167413681Y-69113681D01*
X167447166Y-69175004D01*
X167450000Y-69201362D01*
X167450000Y-73250000D01*
X169350000Y-75150000D01*
X171629220Y-75150000D01*
X171696259Y-75169685D01*
X171742014Y-75222489D01*
X171753177Y-75270738D01*
X171849957Y-78948366D01*
X171850000Y-78951628D01*
X171850000Y-86626000D01*
X171830315Y-86693039D01*
X171777511Y-86738794D01*
X171726000Y-86750000D01*
X171050000Y-86750000D01*
X170750000Y-87050000D01*
X170750000Y-87526000D01*
X170730315Y-87593039D01*
X170677511Y-87638794D01*
X170626000Y-87650000D01*
X168974000Y-87650000D01*
X168906961Y-87630315D01*
X168861206Y-87577511D01*
X168850000Y-87526000D01*
X168850000Y-85950000D01*
X167790589Y-84986899D01*
X167754225Y-84927238D01*
X167750000Y-84895146D01*
X167750000Y-76850000D01*
X165946271Y-75046271D01*
X165912786Y-74984948D01*
X165911483Y-74978012D01*
X165909719Y-74966874D01*
X165848528Y-74846780D01*
X165753220Y-74751472D01*
X165633126Y-74690281D01*
X165622012Y-74688521D01*
X165620369Y-74687742D01*
X165614208Y-74685740D01*
X165614467Y-74684944D01*
X165558880Y-74658594D01*
X165553729Y-74653729D01*
X162186319Y-71286319D01*
X162152834Y-71224996D01*
X162150000Y-71198638D01*
X162150000Y-69901362D01*
X162169685Y-69834323D01*
X162186319Y-69813681D01*
X164513681Y-67486319D01*
X164575004Y-67452834D01*
X164601362Y-67450000D01*
X165698638Y-67450000D01*
X165765677Y-67469685D01*
G37*
%TD.AperFunction*%
%TA.AperFunction,NonConductor*%
G36*
X165476400Y-88369800D02*
G01*
X165837146Y-88640360D01*
X165837147Y-88640360D01*
X165850000Y-88650000D01*
X167675226Y-88650000D01*
X167705818Y-88654845D01*
X167709931Y-88656181D01*
X167716874Y-88659719D01*
X167850000Y-88680804D01*
X167935513Y-88667260D01*
X167995945Y-88676831D01*
X168039210Y-88720096D01*
X168050000Y-88765041D01*
X168050000Y-90047754D01*
X168031093Y-90105945D01*
X167981593Y-90141909D01*
X167947808Y-90146703D01*
X166175771Y-90089541D01*
X164994412Y-90051433D01*
X164936862Y-90030659D01*
X164921554Y-90015865D01*
X164450000Y-89450000D01*
X163539149Y-89358915D01*
X163483129Y-89334311D01*
X163452269Y-89281478D01*
X163450000Y-89260406D01*
X163450000Y-88449000D01*
X163468907Y-88390809D01*
X163518407Y-88354845D01*
X163549000Y-88350000D01*
X165417000Y-88350000D01*
X165476400Y-88369800D01*
G37*
%TD.AperFunction*%
%TA.AperFunction,NonConductor*%
G36*
X190865677Y-67469685D02*
G01*
X190886319Y-67486319D01*
X191113681Y-67713681D01*
X191147166Y-67775004D01*
X191150000Y-67801362D01*
X191150000Y-70912456D01*
X191129174Y-70981239D01*
X190950000Y-71250000D01*
X190950000Y-71826000D01*
X190930315Y-71893039D01*
X190877511Y-71938794D01*
X190826000Y-71950000D01*
X188650000Y-71950000D01*
X188150000Y-72650000D01*
X188150000Y-75298638D01*
X188130315Y-75365677D01*
X188113681Y-75386319D01*
X187986319Y-75513681D01*
X187924996Y-75547166D01*
X187898638Y-75550000D01*
X184874000Y-75550000D01*
X184806961Y-75530315D01*
X184761206Y-75477511D01*
X184750000Y-75426000D01*
X184750000Y-70101362D01*
X184769685Y-70034323D01*
X184786319Y-70013681D01*
X187313681Y-67486319D01*
X187375004Y-67452834D01*
X187401362Y-67450000D01*
X190798638Y-67450000D01*
X190865677Y-67469685D01*
G37*
%TD.AperFunction*%
M02*
