M48
; DRILL file {KiCad (6.0.9)} date Thu Feb  2 11:22:58 2023
; FORMAT={-:-/ absolute / metric / decimal}
; #@! TF.CreationDate,2023-02-02T11:22:58+01:00
; #@! TF.GenerationSoftware,Kicad,Pcbnew,(6.0.9)
; #@! TF.FileFunction,Plated,1,6,PTH
FMAT,2
METRIC
; #@! TA.AperFunction,Plated,PTH,ViaDrill
T1C0.200
; #@! TA.AperFunction,Plated,PTH,ComponentDrill
T2C0.200
; #@! TA.AperFunction,Plated,PTH,ViaDrill
T3C0.300
; #@! TA.AperFunction,Plated,PTH,ComponentDrill
T4C0.300
; #@! TA.AperFunction,Plated,PTH,ViaDrill
T5C0.400
; #@! TA.AperFunction,Plated,PTH,ComponentDrill
T6C0.500
; #@! TA.AperFunction,Plated,PTH,ComponentDrill
T7C0.600
; #@! TA.AperFunction,Plated,PTH,ComponentDrill
T8C0.650
; #@! TA.AperFunction,Plated,PTH,ComponentDrill
T9C0.800
; #@! TA.AperFunction,Plated,PTH,ComponentDrill
T10C0.950
; #@! TA.AperFunction,Plated,PTH,ComponentDrill
T11C1.000
; #@! TA.AperFunction,Plated,PTH,ComponentDrill
T12C2.500
; #@! TA.AperFunction,Plated,PTH,ComponentDrill
T13C4.550
%
G90
G05
T1
X113.307Y-84.348
X113.307Y-86.008
X114.307Y-75.008
X114.307Y-77.008
X114.907Y-79.708
X115.037Y-81.008
X115.037Y-83.548
X115.067Y-84.223
X115.097Y-78.468
X115.307Y-72.008
X115.307Y-86.008
X115.307Y-88.008
X115.307Y-90.008
X115.407Y-73.508
X115.767Y-81.008
X116.057Y-72.608
X116.207Y-75.608
X116.307Y-77.008
X116.547Y-69.598
X117.107Y-75.608
X117.182Y-72.683
X117.303Y-94.007
X117.307Y-68.008
X117.307Y-88.008
X117.307Y-90.008
X117.307Y-92.008
X117.517Y-71.708
X118.307Y-67.008
X118.577Y-75.778
X118.607Y-79.708
X118.607Y-82.308
X118.657Y-78.128
X118.667Y-81.008
X118.817Y-87.238
X118.837Y-83.548
X118.867Y-84.328
X119.057Y-70.258
X119.057Y-73.508
X119.307Y-87.718
X119.307Y-91.758
X119.307Y-95.008
X119.557Y-82.508
X119.607Y-72.008
X119.707Y-75.308
X119.967Y-65.478
X120.307Y-97.008
X120.456Y-72.008
X120.557Y-75.258
X121.307Y-64.008
X121.307Y-66.008
X121.307Y-84.508
X121.427Y-93.578
X121.907Y-94.338
X122.307Y-85.008
X122.307Y-95.008
X122.307Y-97.008
X122.307Y-99.003
X122.807Y-70.258
X122.807Y-73.758
X122.817Y-71.858
X122.877Y-74.958
X123.307Y-83.0
X123.307Y-63.008
X123.307Y-64.008
X123.557Y-66.508
X124.305Y-97.008
X124.307Y-85.008
X124.307Y-95.008
X124.307Y-99.008
X126.307Y-95.008
X126.307Y-97.008
X126.307Y-101.008
X126.557Y-84.558
X126.577Y-83.288
X126.807Y-68.008
X126.867Y-69.338
X127.307Y-80.258
X127.307Y-82.508
X127.807Y-94.183
X127.807Y-96.258
X128.307Y-78.008
X128.307Y-80.258
X128.307Y-99.008
X128.307Y-101.008
X128.7Y-140.7
X129.307Y-77.008
X129.5Y-140.6
X129.867Y-84.668
X130.274Y-78.057
X130.301Y-70.007
X130.307Y-99.008
X130.307Y-101.008
X130.787Y-72.338
X130.807Y-80.258
X130.807Y-82.508
X130.807Y-93.508
X131.127Y-84.678
X131.137Y-71.648
X131.227Y-72.878
X131.5Y-145.2
X131.807Y-80.258
X131.883Y-73.025
X132.307Y-95.008
X132.307Y-101.008
X132.397Y-84.718
X132.797Y-81.658
X133.497Y-81.648
X133.607Y-69.308
X134.267Y-81.598
X134.3Y-100.996
X134.307Y-69.508
X134.307Y-95.008
X134.828Y-71.434
X134.957Y-81.668
X135.306Y-84.003
X135.507Y-72.008
X136.057Y-68.258
X136.297Y-82.002
X136.307Y-74.008
X136.307Y-76.008
X136.307Y-95.008
X136.307Y-101.025
X136.327Y-71.334
X137.3Y-144.5
X137.807Y-68.258
X137.807Y-94.183
X137.807Y-96.258
X138.307Y-74.008
X138.307Y-84.008
X138.307Y-99.008
X138.307Y-101.008
X138.557Y-80.258
X139.307Y-68.008
X139.307Y-78.008
X139.557Y-80.258
X139.557Y-82.508
X140.3Y-101.0
X140.307Y-77.008
X140.307Y-99.008
X140.807Y-79.508
X141.307Y-71.008
X141.307Y-78.008
X141.807Y-68.008
X141.937Y-83.378
X142.299Y-101.0
X142.327Y-86.188
X143.807Y-67.008
X144.047Y-82.018
X144.057Y-80.758
X144.299Y-99.008
X144.301Y-97.0
X144.307Y-73.258
X144.307Y-74.008
X144.307Y-77.008
X144.557Y-78.258
X144.77Y-66.635
X145.117Y-72.918
X145.167Y-68.268
X145.207Y-67.208
X145.207Y-71.908
X145.307Y-63.008
X145.307Y-77.833
X146.3Y-97.0
X147.057Y-66.508
X147.057Y-73.434
X147.207Y-67.308
X147.407Y-72.608
X148.307Y-97.008
X148.557Y-78.758
X149.807Y-78.508
X149.807Y-81.008
X149.807Y-83.508
X150.307Y-88.008
X150.307Y-90.008
X150.307Y-92.008
X150.307Y-94.008
X150.557Y-85.758
X151.307Y-68.008
X151.557Y-69.258
X151.607Y-70.008
X151.607Y-76.408
X152.107Y-72.208
X152.307Y-74.008
X152.307Y-88.008
X152.307Y-90.008
X152.307Y-92.008
X152.807Y-78.508
X153.017Y-83.548
X153.057Y-81.008
X153.107Y-72.208
X153.557Y-79.008
X153.557Y-79.758
X153.557Y-82.258
X153.807Y-74.908
X154.057Y-85.758
X154.307Y-73.008
X154.307Y-88.008
X154.407Y-76.608
X155.307Y-76.508
X155.307Y-77.669
X159.75Y-75.85
X159.8Y-83.39
X159.95Y-86.85
X160.85Y-88.75
X160.85Y-89.65
X160.95Y-87.65
X161.15Y-79.55
X161.25Y-80.95
X161.25Y-82.15
X161.25Y-84.45
X161.45Y-78.25
X161.75Y-71.85
X161.75Y-73.85
X161.75Y-75.85
X162.35Y-79.55
X162.374Y-80.95
X162.45Y-82.15
X162.75Y-74.95
X163.51Y-83.39
X163.75Y-73.85
X163.88Y-91.799
X164.35Y-83.35
X164.629Y-90.771
X164.65Y-91.65
X164.75Y-66.85
X165.25Y-80.85
X165.35Y-78.15
X165.5Y-75.1
X165.75Y-65.85
X165.85Y-77.55
X165.85Y-78.55
X165.85Y-79.55
X165.85Y-80.55
X165.85Y-81.45
X165.85Y-82.35
X165.85Y-83.15
X165.85Y-83.95
X166.15Y-85.15
X166.25Y-87.75
X166.55Y-78.85
X166.55Y-80.85
X166.55Y-82.85
X167.75Y-63.85
X167.85Y-88.25
X168.744Y-70.843
X169.05Y-85.45
X169.15Y-72.15
X169.15Y-72.85
X169.15Y-73.55
X169.15Y-74.15
X169.74Y-62.85
X169.747Y-68.845
X169.85Y-71.55
X169.85Y-74.65
X169.86Y-70.86
X169.95Y-85.45
X170.35Y-92.35
X171.65Y-87.35
X171.75Y-60.85
X171.75Y-62.85
X171.75Y-64.85
X171.75Y-66.85
X171.75Y-68.85
X172.265Y-88.55
X173.25Y-80.85
X173.25Y-82.85
X173.25Y-84.85
X173.35Y-77.85
X173.745Y-62.845
X173.747Y-60.845
X173.75Y-64.85
X173.75Y-66.85
X173.75Y-68.85
X174.15Y-79.65
X174.15Y-80.55
X174.15Y-81.45
X174.15Y-82.35
X174.15Y-83.25
X174.15Y-84.15
X174.15Y-84.95
X174.15Y-85.75
X174.15Y-86.55
X175.05Y-90.35
X175.5Y-80.85
X175.61Y-82.35
X175.745Y-60.845
X175.75Y-66.85
X175.75Y-68.85
X175.75Y-77.6
X175.75Y-101.85
X176.05Y-85.45
X176.294Y-82.706
X177.0Y-78.85
X177.55Y-84.85
X177.55Y-88.25
X177.743Y-60.845
X177.75Y-72.85
X177.75Y-74.85
X177.75Y-76.85
X177.75Y-86.15
X177.85Y-89.15
X177.85Y-89.85
X178.08Y-79.26
X178.15Y-81.65
X178.45Y-88.25
X178.64Y-81.08
X178.646Y-133.346
X178.65Y-91.75
X178.65Y-92.55
X178.745Y-101.842
X178.95Y-79.25
X179.15Y-89.35
X179.25Y-87.05
X179.296Y-133.346
X179.346Y-129.846
X179.745Y-72.845
X179.749Y-60.845
X179.75Y-74.85
X179.75Y-76.85
X179.75Y-78.55
X179.896Y-86.982
X179.946Y-133.496
X180.25Y-91.1
X180.35Y-78.05
X180.35Y-80.75
X180.453Y-86.648
X180.742Y-101.842
X180.874Y-89.35
X180.95Y-78.55
X181.25Y-86.65
X181.55Y-89.385
X181.696Y-133.346
X181.747Y-60.845
X181.75Y-72.85
X181.75Y-74.85
X181.75Y-76.85
X181.924Y-80.8
X181.95Y-78.85
X182.0Y-91.1
X182.05Y-86.45
X182.345Y-133.376
X182.55Y-89.35
X182.75Y-78.89
X182.75Y-101.85
X182.843Y-132.959
X183.19Y-81.05
X183.29Y-68.89
X183.35Y-72.85
X183.35Y-86.85
X183.45Y-88.05
X183.5Y-89.85
X183.5Y-91.1
X183.547Y-132.856
X183.575Y-81.625
X183.65Y-80.35
X183.745Y-60.845
X183.745Y-74.845
X183.75Y-66.85
X183.942Y-82.28
X183.956Y-85.044
X184.171Y-133.196
X184.75Y-68.848
X184.75Y-82.65
X184.75Y-101.85
X184.794Y-84.65
X184.821Y-133.371
X184.95Y-88.55
X185.0Y-76.85
X185.35Y-83.05
X185.35Y-83.85
X185.739Y-93.85
X185.743Y-60.845
X185.75Y-64.85
X185.75Y-66.85
X185.75Y-95.85
X185.75Y-97.85
X185.751Y-91.79
X185.95Y-87.724
X186.05Y-81.15
X186.05Y-82.05
X186.05Y-82.85
X186.05Y-83.65
X186.05Y-84.55
X186.05Y-85.45
X186.45Y-79.85
X186.55Y-89.05
X186.75Y-82.35
X186.75Y-84.35
X186.946Y-133.246
X187.15Y-76.45
X187.15Y-77.35
X187.25Y-89.05
X187.401Y-78.059
X187.45Y-78.85
X187.496Y-133.246
X187.747Y-64.84
X187.747Y-66.838
X187.749Y-61.848
X187.75Y-95.85
X187.75Y-97.85
X187.75Y-98.85
X187.846Y-129.746
X188.196Y-133.246
X188.5Y-92.6
X189.739Y-65.838
X189.742Y-61.843
X189.742Y-63.841
X189.75Y-97.85
X190.25Y-77.35
X190.25Y-92.85
X190.25Y-94.35
X190.95Y-90.85
X191.749Y-63.84
X191.749Y-65.838
X191.75Y-61.85
X191.75Y-70.75
X192.0Y-77.35
X192.15Y-91.15
X192.35Y-68.15
X192.35Y-68.75
X192.35Y-69.35
X192.35Y-71.55
X192.46Y-70.81
X192.85Y-87.65
X192.85Y-88.55
X192.85Y-93.15
X192.85Y-94.05
X193.55Y-73.35
X193.55Y-75.65
X193.7Y-91.6
X193.745Y-90.126
X193.747Y-65.838
X193.747Y-67.848
X193.75Y-63.841
X193.75Y-69.847
X193.75Y-71.849
X193.75Y-66.85
X193.75Y-77.35
X194.05Y-74.05
X194.05Y-75.05
X194.55Y-93.15
X194.55Y-94.05
X194.6Y-88.5
X194.615Y-87.715
X194.75Y-79.85
X194.75Y-81.85
X194.75Y-83.85
X195.0Y-97.1
X195.16Y-72.83
X195.29Y-90.6
X195.45Y-78.95
X195.45Y-79.75
X195.45Y-80.65
X195.45Y-81.55
X195.45Y-82.45
X195.45Y-83.35
X195.45Y-84.15
X195.45Y-84.95
X195.53Y-74.3
X195.55Y-73.37
X195.71Y-69.36
X195.86Y-75.27
X195.871Y-72.715
X196.225Y-79.45
X196.44Y-76.05
X196.5Y-77.06
X197.45Y-72.19
X197.45Y-75.69
X197.55Y-85.25
X197.55Y-86.05
X197.75Y-77.65
X198.12Y-69.41
X198.45Y-92.65
X198.91Y-74.34
X198.97Y-73.4
X199.17Y-72.64
X199.21Y-75.01
X199.32Y-81.626
X199.45Y-80.85
X199.45Y-83.45
X199.642Y-79.941
X199.93Y-75.26
X199.95Y-85.25
X199.95Y-86.15
X200.15Y-80.85
X200.16Y-79.55
X200.28Y-78.35
X200.35Y-82.15
X200.75Y-72.6
X200.75Y-89.1
X202.25Y-76.35
T2
X131.407Y-75.068
X131.407Y-76.468
X132.107Y-74.368
X132.107Y-75.768
X132.107Y-77.168
X132.807Y-75.068
X132.807Y-76.468
X133.507Y-74.368
X133.507Y-75.768
X133.507Y-77.168
X134.207Y-75.068
X134.207Y-76.468
T3
X145.407Y-64.808
X145.407Y-65.808
X149.307Y-73.808
X149.407Y-68.408
X150.107Y-69.208
X151.707Y-75.008
X196.466Y-86.957
X196.6Y-86.1
T4
X139.4Y-141.85
X139.4Y-143.35
X140.9Y-141.85
X140.9Y-143.35
X142.4Y-141.85
X142.4Y-143.35
T5
X112.3Y-124.9
X112.8Y-132.9
X113.3Y-134.9
X113.8Y-119.9
X114.8Y-138.4
X116.8Y-140.9
X118.3Y-131.65
X118.8Y-140.15
X119.05Y-126.15
X119.05Y-127.15
X119.05Y-130.4
X119.55Y-111.65
X119.8Y-127.9
X120.05Y-115.65
X120.05Y-118.65
X120.55Y-137.9
X120.8Y-127.9
X120.8Y-130.4
X121.05Y-115.65
X121.05Y-118.65
X121.55Y-131.65
X121.8Y-127.9
X122.05Y-115.65
X122.05Y-118.65
X122.3Y-138.4
X122.5Y-133.5
X122.55Y-127.15
X123.05Y-115.65
X123.05Y-118.65
X123.3Y-114.15
X123.3Y-116.65
X123.3Y-117.65
X123.55Y-109.4
X123.7Y-133.4
X123.8Y-129.4
X126.3Y-115.4
X126.4Y-110.2
X126.4Y-139.6
X127.05Y-107.65
X127.05Y-117.9
X127.05Y-121.4
X127.05Y-124.65
X127.05Y-127.65
X130.5Y-110.4
X130.7Y-145.8
X132.0Y-127.6
X132.05Y-121.4
X132.05Y-124.65
X133.05Y-115.4
X133.05Y-117.9
X134.5Y-143.8
X135.1Y-140.8
X135.8Y-138.3
X136.1Y-139.4
X136.55Y-145.9
X136.55Y-149.15
X136.8Y-110.9
X136.8Y-114.15
X136.9Y-137.85
X137.0Y-143.7
X137.3Y-106.9
X137.3Y-142.15
X138.3Y-120.9
X138.3Y-121.9
X138.55Y-134.4
X139.3Y-119.9
X139.3Y-120.9
X139.3Y-121.9
X140.019Y-146.916
X140.024Y-138.214
X140.3Y-120.9
X140.3Y-121.9
X140.314Y-119.895
X141.3Y-120.9
X141.3Y-121.9
X141.3Y-134.4
X142.0Y-147.2
X142.05Y-108.15
X142.3Y-119.895
X142.3Y-120.9
X142.3Y-121.9
X143.2Y-147.2
X143.3Y-119.9
X143.3Y-120.9
X143.3Y-121.9
X144.3Y-120.9
X144.3Y-121.9
X144.3Y-146.9
X145.2Y-135.2
X145.3Y-120.9
X145.3Y-121.9
X145.7Y-134.1
X145.9Y-140.9
X146.3Y-142.65
X146.6Y-144.1
X146.8Y-110.65
X146.975Y-133.925
X147.0Y-140.9
X147.05Y-136.65
X148.8Y-143.4
X148.9Y-140.7
X149.3Y-126.65
X149.4Y-127.75
X149.4Y-133.4
X150.3Y-132.1
X150.7Y-137.7
X150.8Y-140.9
X151.05Y-115.4
X152.4Y-131.0
X152.55Y-138.15
X154.05Y-121.15
X154.8Y-124.4
X155.05Y-131.4
X155.3Y-127.65
X173.293Y-113.893
X173.293Y-116.893
X173.293Y-118.893
X173.293Y-121.893
X175.293Y-113.893
X175.293Y-121.893
X175.943Y-116.393
X177.293Y-113.893
X177.293Y-121.893
X178.493Y-121.093
X178.643Y-116.393
X179.293Y-113.893
X179.293Y-121.893
X179.95Y-82.75
X179.95Y-84.55
X180.693Y-119.393
X180.893Y-116.993
X181.293Y-113.893
X181.293Y-121.893
X181.65Y-82.75
X181.65Y-84.55
X182.693Y-120.993
X183.218Y-118.793
X183.293Y-121.893
X183.314Y-113.893
X184.393Y-116.193
X184.593Y-120.293
X185.293Y-121.893
X185.304Y-113.899
X185.993Y-116.435
X187.193Y-118.393
X187.293Y-113.893
X187.293Y-121.893
X187.943Y-119.393
X188.193Y-114.793
X189.293Y-113.893
X189.293Y-121.893
X190.643Y-119.393
X191.293Y-113.893
X191.293Y-121.893
X193.293Y-116.893
X193.293Y-118.893
X193.293Y-121.893
X193.299Y-113.893
T6
X195.6Y-67.4
X196.6Y-67.4
T8
X177.996Y-130.826
X177.996Y-132.096
X188.796Y-131.026
X188.796Y-132.296
T9
X190.45Y-96.45
X192.45Y-96.45
T10
X175.75Y-63.375
X178.25Y-63.375
X180.75Y-63.375
X183.25Y-63.375
X185.75Y-63.375
T11
X182.871Y-130.846
X185.411Y-130.846
T12
X115.7Y-123.7
X115.7Y-128.7
X140.9Y-114.6
X145.9Y-114.6
X165.032Y-70.118
X168.568Y-66.582
T13
X174.15Y-96.35
X181.35Y-96.35
T7
G00X178.826Y-134.346
M15
G01X178.826Y-134.946
M16
G05
G00X187.866Y-134.346
M15
G01X187.866Y-134.946
M16
G05
G00X191.6Y-88.325
M15
G01X191.6Y-88.575
M16
G05
G00X191.6Y-93.125
M15
G01X191.6Y-93.375
M16
G05
G00X195.9Y-88.325
M15
G01X195.9Y-88.575
M16
G05
G00X195.9Y-93.125
M15
G01X195.9Y-93.375
M16
G05
T8
G00X178.826Y-137.171
M15
G01X178.826Y-138.121
M16
G05
G00X187.866Y-137.171
M15
G01X187.866Y-138.121
M16
G05
T0
M30
