%TF.GenerationSoftware,KiCad,Pcbnew,(6.0.9)*%
%TF.CreationDate,2023-02-03T11:31:16+01:00*%
%TF.ProjectId,Stencil,5374656e-6369-46c2-9e6b-696361645f70,rev?*%
%TF.SameCoordinates,Original*%
%TF.FileFunction,Profile,NP*%
%FSLAX46Y46*%
G04 Gerber Fmt 4.6, Leading zero omitted, Abs format (unit mm)*
G04 Created by KiCad (PCBNEW (6.0.9)) date 2023-02-03 11:31:16*
%MOMM*%
%LPD*%
G01*
G04 APERTURE LIST*
%TA.AperFunction,Profile*%
%ADD10C,0.100000*%
%TD*%
%TA.AperFunction,Profile*%
%ADD11C,0.010000*%
%TD*%
%TA.AperFunction,Profile*%
%ADD12C,0.050000*%
%TD*%
G04 APERTURE END LIST*
D10*
X170700000Y-100500000D02*
G75*
G03*
X170200000Y-101000000I1J-500001D01*
G01*
X183200000Y-101000000D02*
G75*
G03*
X182700000Y-100500000I-500001J-1D01*
G01*
X170200000Y-110300000D02*
X170200000Y-101000000D01*
X182700000Y-110800000D02*
G75*
G03*
X183200000Y-110300000I-1J500001D01*
G01*
X183200000Y-110300000D02*
X183200000Y-101000000D01*
X182700000Y-110800000D02*
X170700000Y-110800000D01*
X170200000Y-110300000D02*
G75*
G03*
X170700000Y-110800000I500001J1D01*
G01*
X182700000Y-100500000D02*
X170700000Y-100500000D01*
D11*
X105200000Y-106100000D02*
G75*
G03*
X105200000Y-106100000I-22500000J0D01*
G01*
D10*
X182500000Y-72300000D02*
X182500000Y-40300000D01*
X173500000Y-39300000D02*
G75*
G03*
X172500000Y-40300000I-1J-999999D01*
G01*
X181500000Y-73300000D02*
G75*
G03*
X182500000Y-72300000I1J999999D01*
G01*
X173500000Y-73300000D02*
X181500000Y-73300000D01*
X181500000Y-39300000D02*
X173500000Y-39300000D01*
X182500000Y-40300000D02*
G75*
G03*
X181500000Y-39300000I-999999J1D01*
G01*
X172500000Y-72300000D02*
G75*
G03*
X173500000Y-73300000I999999J-1D01*
G01*
X172500000Y-40300000D02*
X172500000Y-72300000D01*
D12*
X161900000Y-105800000D02*
G75*
G03*
X161900000Y-105800000I-22500000J0D01*
G01*
D10*
X128949999Y-36600000D02*
G75*
G03*
X127950000Y-35600001I-999999J0D01*
G01*
X129950000Y-40850000D02*
X146450000Y-40850000D01*
X146450000Y-40850000D02*
G75*
G03*
X147450000Y-39850000I1J999999D01*
G01*
X128950000Y-39850000D02*
G75*
G03*
X129950000Y-40850000I999999J-1D01*
G01*
X128949999Y-36600000D02*
X128950000Y-39850000D01*
X127950000Y-35600001D02*
G75*
G03*
X148450000Y-35600001I10250000J-19999999D01*
G01*
X147450000Y-39850000D02*
X147450000Y-36600000D01*
X148450000Y-35600000D02*
G75*
G03*
X147450000Y-36600000I-1J-999999D01*
G01*
X105000000Y-54750000D02*
G75*
G03*
X105000000Y-54750000I-22500000J0D01*
G01*
%TO.C,REF\u002A\u002A*%
D12*
X152515545Y-60602139D02*
X152642167Y-60636067D01*
X152755694Y-60701612D01*
X152848388Y-60794306D01*
X152913933Y-60907833D01*
X152947861Y-61034455D01*
X152950000Y-61100000D01*
X152950000Y-70100000D01*
X152947861Y-70165545D01*
X152913932Y-70292167D01*
X152848388Y-70405694D01*
X152755694Y-70498388D01*
X152642167Y-70563932D01*
X152515545Y-70597861D01*
X152450000Y-70600000D01*
X149950000Y-70600000D01*
X149884455Y-70597861D01*
X149757833Y-70563932D01*
X149644306Y-70498388D01*
X149551612Y-70405694D01*
X149486068Y-70292167D01*
X149452139Y-70165545D01*
X149450000Y-70100000D01*
X149450000Y-61100000D01*
X149452139Y-61034455D01*
X149486067Y-60907833D01*
X149551612Y-60794306D01*
X149644306Y-60701612D01*
X149757833Y-60636067D01*
X149884455Y-60602139D01*
X149950000Y-60600000D01*
X152450000Y-60600000D01*
X152515545Y-60602139D01*
D11*
%TO.C,J201*%
X95240000Y-68600000D02*
X95240000Y-68400000D01*
X95760000Y-68400000D02*
X95760000Y-68600000D01*
X95240000Y-68600000D02*
G75*
G03*
X95500000Y-68860000I260000J0D01*
G01*
X95500000Y-68140000D02*
G75*
G03*
X95240000Y-68400000I0J-260000D01*
G01*
X95500000Y-68860000D02*
G75*
G03*
X95760000Y-68600000I0J260000D01*
G01*
X95760000Y-68400000D02*
G75*
G03*
X95500000Y-68140000I-260000J0D01*
G01*
%TD*%
M02*
