%TF.GenerationSoftware,KiCad,Pcbnew,(6.0.9)*%
%TF.CreationDate,2023-02-02T11:01:25+01:00*%
%TF.ProjectId,Powerboard,506f7765-7262-46f6-9172-642e6b696361,rev?*%
%TF.SameCoordinates,Original*%
%TF.FileFunction,Copper,L1,Top*%
%TF.FilePolarity,Positive*%
%FSLAX46Y46*%
G04 Gerber Fmt 4.6, Leading zero omitted, Abs format (unit mm)*
G04 Created by KiCad (PCBNEW (6.0.9)) date 2023-02-02 11:01:25*
%MOMM*%
%LPD*%
G01*
G04 APERTURE LIST*
G04 Aperture macros list*
%AMRoundRect*
0 Rectangle with rounded corners*
0 $1 Rounding radius*
0 $2 $3 $4 $5 $6 $7 $8 $9 X,Y pos of 4 corners*
0 Add a 4 corners polygon primitive as box body*
4,1,4,$2,$3,$4,$5,$6,$7,$8,$9,$2,$3,0*
0 Add four circle primitives for the rounded corners*
1,1,$1+$1,$2,$3*
1,1,$1+$1,$4,$5*
1,1,$1+$1,$6,$7*
1,1,$1+$1,$8,$9*
0 Add four rect primitives between the rounded corners*
20,1,$1+$1,$2,$3,$4,$5,0*
20,1,$1+$1,$4,$5,$6,$7,0*
20,1,$1+$1,$6,$7,$8,$9,0*
20,1,$1+$1,$8,$9,$2,$3,0*%
G04 Aperture macros list end*
%TA.AperFunction,SMDPad,CuDef*%
%ADD10R,0.650000X0.400000*%
%TD*%
%TA.AperFunction,SMDPad,CuDef*%
%ADD11RoundRect,0.250000X-0.262500X-0.450000X0.262500X-0.450000X0.262500X0.450000X-0.262500X0.450000X0*%
%TD*%
%TA.AperFunction,SMDPad,CuDef*%
%ADD12RoundRect,0.150000X-0.150000X-0.625000X0.150000X-0.625000X0.150000X0.625000X-0.150000X0.625000X0*%
%TD*%
%TA.AperFunction,SMDPad,CuDef*%
%ADD13RoundRect,0.250000X-0.350000X-0.650000X0.350000X-0.650000X0.350000X0.650000X-0.350000X0.650000X0*%
%TD*%
%TA.AperFunction,ComponentPad*%
%ADD14C,4.000000*%
%TD*%
%TA.AperFunction,SMDPad,CuDef*%
%ADD15RoundRect,0.250000X-0.325000X-0.650000X0.325000X-0.650000X0.325000X0.650000X-0.325000X0.650000X0*%
%TD*%
%TA.AperFunction,SMDPad,CuDef*%
%ADD16R,3.250000X5.000000*%
%TD*%
%TA.AperFunction,SMDPad,CuDef*%
%ADD17RoundRect,0.250000X0.650000X-0.325000X0.650000X0.325000X-0.650000X0.325000X-0.650000X-0.325000X0*%
%TD*%
%TA.AperFunction,SMDPad,CuDef*%
%ADD18RoundRect,0.225000X0.225000X0.250000X-0.225000X0.250000X-0.225000X-0.250000X0.225000X-0.250000X0*%
%TD*%
%TA.AperFunction,SMDPad,CuDef*%
%ADD19RoundRect,0.250000X-0.625000X0.312500X-0.625000X-0.312500X0.625000X-0.312500X0.625000X0.312500X0*%
%TD*%
%TA.AperFunction,SMDPad,CuDef*%
%ADD20RoundRect,0.200000X0.275000X-0.200000X0.275000X0.200000X-0.275000X0.200000X-0.275000X-0.200000X0*%
%TD*%
%TA.AperFunction,SMDPad,CuDef*%
%ADD21RoundRect,0.250000X-1.250000X-0.550000X1.250000X-0.550000X1.250000X0.550000X-1.250000X0.550000X0*%
%TD*%
%TA.AperFunction,SMDPad,CuDef*%
%ADD22RoundRect,0.140000X0.170000X-0.140000X0.170000X0.140000X-0.170000X0.140000X-0.170000X-0.140000X0*%
%TD*%
%TA.AperFunction,SMDPad,CuDef*%
%ADD23RoundRect,0.100000X0.100000X-0.687500X0.100000X0.687500X-0.100000X0.687500X-0.100000X-0.687500X0*%
%TD*%
%TA.AperFunction,ComponentPad*%
%ADD24C,0.700000*%
%TD*%
%TA.AperFunction,SMDPad,CuDef*%
%ADD25R,5.000000X3.400000*%
%TD*%
%TA.AperFunction,SMDPad,CuDef*%
%ADD26RoundRect,0.135000X-0.135000X-0.185000X0.135000X-0.185000X0.135000X0.185000X-0.135000X0.185000X0*%
%TD*%
%TA.AperFunction,SMDPad,CuDef*%
%ADD27RoundRect,0.250000X0.312500X0.625000X-0.312500X0.625000X-0.312500X-0.625000X0.312500X-0.625000X0*%
%TD*%
%TA.AperFunction,SMDPad,CuDef*%
%ADD28RoundRect,0.225000X-0.250000X0.225000X-0.250000X-0.225000X0.250000X-0.225000X0.250000X0.225000X0*%
%TD*%
%TA.AperFunction,SMDPad,CuDef*%
%ADD29RoundRect,0.135000X0.135000X0.185000X-0.135000X0.185000X-0.135000X-0.185000X0.135000X-0.185000X0*%
%TD*%
%TA.AperFunction,SMDPad,CuDef*%
%ADD30RoundRect,0.140000X-0.140000X-0.170000X0.140000X-0.170000X0.140000X0.170000X-0.140000X0.170000X0*%
%TD*%
%TA.AperFunction,SMDPad,CuDef*%
%ADD31RoundRect,0.250000X-0.650000X0.325000X-0.650000X-0.325000X0.650000X-0.325000X0.650000X0.325000X0*%
%TD*%
%TA.AperFunction,SMDPad,CuDef*%
%ADD32C,0.500000*%
%TD*%
%TA.AperFunction,SMDPad,CuDef*%
%ADD33R,1.200000X2.200000*%
%TD*%
%TA.AperFunction,SMDPad,CuDef*%
%ADD34R,5.800000X6.400000*%
%TD*%
%TA.AperFunction,SMDPad,CuDef*%
%ADD35R,4.860000X3.360000*%
%TD*%
%TA.AperFunction,SMDPad,CuDef*%
%ADD36R,1.400000X1.390000*%
%TD*%
%TA.AperFunction,SMDPad,CuDef*%
%ADD37R,2.200000X1.200000*%
%TD*%
%TA.AperFunction,SMDPad,CuDef*%
%ADD38R,6.400000X5.800000*%
%TD*%
%TA.AperFunction,ViaPad*%
%ADD39C,0.800000*%
%TD*%
%TA.AperFunction,ViaPad*%
%ADD40C,0.450000*%
%TD*%
%TA.AperFunction,Conductor*%
%ADD41C,0.300000*%
%TD*%
%TA.AperFunction,Conductor*%
%ADD42C,0.500000*%
%TD*%
%TA.AperFunction,Conductor*%
%ADD43C,0.250000*%
%TD*%
G04 APERTURE END LIST*
%TO.C,NT1*%
G36*
X158750000Y-107250000D02*
G01*
X158250000Y-107250000D01*
X158250000Y-106250000D01*
X158750000Y-106250000D01*
X158750000Y-107250000D01*
G37*
%TD*%
D10*
%TO.P,UR1,1,VDD*%
%TO.N,+3V3*%
X149050000Y-113750000D03*
%TO.P,UR1,2,VSS*%
%TO.N,GND*%
X149050000Y-113100000D03*
%TO.P,UR1,3,SCL*%
%TO.N,/I2C_SCL*%
X149050000Y-112450000D03*
%TO.P,UR1,4,SDA*%
%TO.N,/I2C_SDA*%
X147150000Y-112450000D03*
%TO.P,UR1,5,Wiper*%
%TO.N,/ICTRL*%
X147150000Y-113100000D03*
%TO.P,UR1,6,High*%
%TO.N,/divider_high*%
X147150000Y-113750000D03*
%TD*%
D11*
%TO.P,R7,1*%
%TO.N,/ISENSE-*%
X160925000Y-110500000D03*
%TO.P,R7,2*%
%TO.N,/Vout-FET*%
X162750000Y-110500000D03*
%TD*%
D12*
%TO.P,J4,1,Pin_1*%
%TO.N,+3V3*%
X146700000Y-115900000D03*
%TO.P,J4,2,Pin_2*%
%TO.N,/!FTL*%
X147700000Y-115900000D03*
%TO.P,J4,3,Pin_3*%
%TO.N,/PWMDIM*%
X148700000Y-115900000D03*
%TO.P,J4,4,Pin_4*%
%TO.N,GND*%
X149700000Y-115900000D03*
D13*
%TO.P,J4,MP*%
%TO.N,N/C*%
X145400000Y-119775000D03*
X151000000Y-119775000D03*
%TD*%
D14*
%TO.P,J2,1,N*%
%TO.N,GND*%
X157100000Y-86700000D03*
%TO.P,J2,2,P*%
%TO.N,/LED+*%
X162100000Y-86700000D03*
%TD*%
D15*
%TO.P,C9,1*%
%TO.N,/V-out*%
X160225000Y-107400000D03*
%TO.P,C9,2*%
%TO.N,GND*%
X163175000Y-107400000D03*
%TD*%
D16*
%TO.P,L1,1,1*%
%TO.N,/IN*%
X140275000Y-95700000D03*
%TO.P,L1,2,2*%
%TO.N,/L-out*%
X151525000Y-95700000D03*
%TD*%
D17*
%TO.P,C7,1*%
%TO.N,/V-out*%
X158150000Y-98175000D03*
%TO.P,C7,2*%
%TO.N,GND*%
X158150000Y-95225000D03*
%TD*%
D18*
%TO.P,C5,1*%
%TO.N,/COMP*%
X156675000Y-120200000D03*
%TO.P,C5,2*%
%TO.N,/comp_RC*%
X155125000Y-120200000D03*
%TD*%
D19*
%TO.P,R9,1*%
%TO.N,GND*%
X136100000Y-103837500D03*
%TO.P,R9,2*%
%TO.N,/RCS*%
X136100000Y-106762500D03*
%TD*%
D20*
%TO.P,R5,1*%
%TO.N,/OPV*%
X160900000Y-114725000D03*
%TO.P,R5,2*%
%TO.N,/V-out*%
X160900000Y-113075000D03*
%TD*%
D21*
%TO.P,C1,1*%
%TO.N,/IN*%
X132800000Y-89300000D03*
%TO.P,C1,2*%
%TO.N,GND*%
X137200000Y-89300000D03*
%TD*%
D22*
%TO.P,C10,1*%
%TO.N,+3V3*%
X150300000Y-113880000D03*
%TO.P,C10,2*%
%TO.N,GND*%
X150300000Y-112920000D03*
%TD*%
D23*
%TO.P,U1,1,LFRAMP*%
%TO.N,GND*%
X154825000Y-117562500D03*
%TO.P,U1,2,RT/SYNC*%
%TO.N,/RT{slash}SYNC*%
X155475000Y-117562500D03*
%TO.P,U1,3,SGND*%
%TO.N,GND*%
X156125000Y-117562500D03*
%TO.P,U1,4,ICTRL*%
%TO.N,/ICTRL*%
X156775000Y-117562500D03*
%TO.P,U1,5,COMP*%
%TO.N,/COMP*%
X157425000Y-117562500D03*
%TO.P,U1,6,!FTL*%
%TO.N,/!FTL*%
X158075000Y-117562500D03*
%TO.P,U1,7,PWMDIM*%
%TO.N,/PWMDIM*%
X158725000Y-117562500D03*
%TO.P,U1,8,OVP*%
%TO.N,/OPV*%
X159375000Y-117562500D03*
%TO.P,U1,9,!DIMOUT*%
%TO.N,/!DIMOUT*%
X159375000Y-111837500D03*
%TO.P,U1,10,ISENSE-*%
%TO.N,/ISENSE-*%
X158725000Y-111837500D03*
%TO.P,U1,11,ISENSE+*%
%TO.N,/ISENSE+*%
X158075000Y-111837500D03*
%TO.P,U1,12,CS*%
%TO.N,/CS*%
X157425000Y-111837500D03*
%TO.P,U1,13,PGND*%
%TO.N,GND*%
X156775000Y-111837500D03*
%TO.P,U1,14,NDRV*%
%TO.N,/NDRV*%
X156125000Y-111837500D03*
%TO.P,U1,15,VCC*%
%TO.N,/VCC*%
X155475000Y-111837500D03*
%TO.P,U1,16,IN*%
%TO.N,/IN*%
X154825000Y-111837500D03*
D24*
%TO.P,U1,17,EP*%
%TO.N,GND*%
X158600000Y-113950000D03*
X155600000Y-113950000D03*
X155600000Y-115450000D03*
X158600000Y-115450000D03*
X157100000Y-115450000D03*
D25*
X157100000Y-114700000D03*
D24*
X157100000Y-113950000D03*
%TD*%
D26*
%TO.P,R8,1*%
%TO.N,GND*%
X152740000Y-120300000D03*
%TO.P,R8,2*%
%TO.N,/comp_RC*%
X153760000Y-120300000D03*
%TD*%
D27*
%TO.P,R6,1*%
%TO.N,/Vout-FET*%
X164362500Y-103700000D03*
%TO.P,R6,2*%
%TO.N,/V-out*%
X161437500Y-103700000D03*
%TD*%
D17*
%TO.P,C8,1*%
%TO.N,/V-out*%
X155400000Y-98175000D03*
%TO.P,C8,2*%
%TO.N,GND*%
X155400000Y-95225000D03*
%TD*%
D14*
%TO.P,J1,1,N*%
%TO.N,GND*%
X131900000Y-100800000D03*
%TO.P,J1,2,P*%
%TO.N,/IN*%
X131900000Y-95800000D03*
%TD*%
D26*
%TO.P,R1,1*%
%TO.N,GND*%
X152740000Y-119100000D03*
%TO.P,R1,2*%
%TO.N,/RT{slash}SYNC*%
X153760000Y-119100000D03*
%TD*%
D28*
%TO.P,C3,1*%
%TO.N,/IN*%
X153500000Y-111525000D03*
%TO.P,C3,2*%
%TO.N,GND*%
X153500000Y-113075000D03*
%TD*%
D29*
%TO.P,R2,1*%
%TO.N,/divider_high*%
X145910000Y-113800000D03*
%TO.P,R2,2*%
%TO.N,+3V3*%
X144890000Y-113800000D03*
%TD*%
D30*
%TO.P,C4,1*%
%TO.N,GND*%
X154220000Y-110000000D03*
%TO.P,C4,2*%
%TO.N,/VCC*%
X155180000Y-110000000D03*
%TD*%
D12*
%TO.P,J3,1,Pin_1*%
%TO.N,+3V3*%
X138600000Y-112400000D03*
%TO.P,J3,2,Pin_2*%
%TO.N,/I2C_SDA*%
X139600000Y-112400000D03*
%TO.P,J3,3,Pin_3*%
%TO.N,/I2C_SCL*%
X140600000Y-112400000D03*
%TO.P,J3,4,Pin_4*%
%TO.N,GND*%
X141600000Y-112400000D03*
D13*
%TO.P,J3,MP*%
%TO.N,N/C*%
X142900000Y-116275000D03*
X137300000Y-116275000D03*
%TD*%
D31*
%TO.P,C2,1*%
%TO.N,/IN*%
X137000000Y-95725000D03*
%TO.P,C2,2*%
%TO.N,GND*%
X137000000Y-98675000D03*
%TD*%
D17*
%TO.P,C6,1*%
%TO.N,/V-out*%
X160900000Y-98175000D03*
%TO.P,C6,2*%
%TO.N,GND*%
X160900000Y-95225000D03*
%TD*%
D32*
%TO.P,NT1,1,1*%
%TO.N,/ISENSE+*%
X158500000Y-107250000D03*
%TO.P,NT1,2,2*%
%TO.N,/V-out*%
X158500000Y-106250000D03*
%TD*%
D33*
%TO.P,Q2,1,G*%
%TO.N,/!DIMOUT*%
X163620000Y-99900000D03*
D34*
%TO.P,Q2,2,D*%
%TO.N,/LED+*%
X165900000Y-93600000D03*
D33*
%TO.P,Q2,3,S*%
%TO.N,/Vout-FET*%
X168180000Y-99900000D03*
%TD*%
D29*
%TO.P,R4,1*%
%TO.N,/CS*%
X156210000Y-107900000D03*
%TO.P,R4,2*%
%TO.N,/RCS*%
X155190000Y-107900000D03*
%TD*%
D35*
%TO.P,D1,1,K*%
%TO.N,/V-out*%
X157320000Y-102600000D03*
D36*
%TO.P,D1,2,A*%
%TO.N,/L-out*%
X153338000Y-101680000D03*
X153338000Y-103520000D03*
%TD*%
D37*
%TO.P,Q1,1,G*%
%TO.N,/NDRV*%
X139950000Y-103920000D03*
D38*
%TO.P,Q1,2,D*%
%TO.N,/L-out*%
X146250000Y-106200000D03*
D37*
%TO.P,Q1,3,S*%
%TO.N,/RCS*%
X139950000Y-108480000D03*
%TD*%
D29*
%TO.P,R10,1*%
%TO.N,GND*%
X161910000Y-116200000D03*
%TO.P,R10,2*%
%TO.N,/OPV*%
X160890000Y-116200000D03*
%TD*%
D39*
%TO.N,GND*%
X158250000Y-80250000D03*
D40*
X144900000Y-112800000D03*
D39*
X163000000Y-82750000D03*
X143250000Y-99750000D03*
X159500000Y-92000000D03*
X161900000Y-106200000D03*
X136000000Y-100000000D03*
X139250000Y-90750000D03*
X143250000Y-96750000D03*
X165100000Y-112800000D03*
X171000000Y-96500000D03*
X136750000Y-110000000D03*
X155500000Y-93000000D03*
X154750000Y-106500000D03*
X167250000Y-87500000D03*
X155500000Y-94000000D03*
X143250000Y-93500000D03*
X139500000Y-86250000D03*
X137250000Y-90750000D03*
X159500000Y-94000000D03*
X137250000Y-87750000D03*
X135250000Y-102500000D03*
X138250000Y-90750000D03*
X165000000Y-115500000D03*
X162500000Y-114750000D03*
X154500000Y-94000000D03*
X158500000Y-94000000D03*
X155500000Y-92000000D03*
X142600000Y-82300000D03*
X157500000Y-94000000D03*
X146900000Y-117900000D03*
X167000000Y-113000000D03*
X163250000Y-108750000D03*
X128500000Y-97000000D03*
X137000000Y-102500000D03*
X136250000Y-87750000D03*
X142500000Y-87500000D03*
X139750000Y-81500000D03*
X163175000Y-106025000D03*
X166500000Y-104200000D03*
X158500000Y-93000000D03*
X139500000Y-89750000D03*
X154500000Y-93000000D03*
X166900000Y-109800000D03*
X161500000Y-93000000D03*
X159500000Y-93000000D03*
X136250000Y-90750000D03*
X152750000Y-118000000D03*
X160500000Y-93000000D03*
X130000000Y-92000000D03*
X131000000Y-110500000D03*
X139250000Y-87750000D03*
X135250000Y-98250000D03*
X153200000Y-115800000D03*
X170250000Y-93250000D03*
X151300000Y-112900000D03*
X135000000Y-112250000D03*
X129500000Y-107000000D03*
X140000000Y-101500000D03*
X134500000Y-103750000D03*
X137750000Y-103750000D03*
X135750000Y-83750000D03*
X161500000Y-94000000D03*
X146700000Y-82500000D03*
X152000000Y-110400000D03*
X153100000Y-109950000D03*
X165500000Y-98750000D03*
X168750000Y-110250000D03*
X138000000Y-100000000D03*
X153000000Y-86250000D03*
X160500000Y-94000000D03*
X150700000Y-115900000D03*
X153500000Y-79000000D03*
X171250000Y-103500000D03*
X148200000Y-99700000D03*
X152750000Y-121250000D03*
X148250000Y-96750000D03*
X157500000Y-106500000D03*
X171500000Y-99750000D03*
X158499614Y-91994653D03*
X138750000Y-99250000D03*
X160500000Y-119000000D03*
X135250000Y-99250000D03*
X149250000Y-87500000D03*
X143250000Y-90000000D03*
X138700000Y-105600000D03*
X138250000Y-87750000D03*
X149250000Y-90000000D03*
X143250000Y-79750000D03*
X129000000Y-105000000D03*
X156513738Y-91994653D03*
X156500000Y-94000000D03*
X153000000Y-83000000D03*
X133000000Y-113000000D03*
X148250000Y-93500000D03*
X138500000Y-110500000D03*
X162800000Y-116200000D03*
X157500000Y-93000000D03*
X137000000Y-100000000D03*
X153500000Y-114250000D03*
X168600000Y-103100000D03*
X142600000Y-111700000D03*
X163200000Y-113000000D03*
X139500000Y-88750000D03*
X156500000Y-93000000D03*
%TO.N,/NDRV*%
X156224500Y-110314299D03*
X139900000Y-105500000D03*
%TO.N,/!DIMOUT*%
X165600000Y-105500000D03*
X165600000Y-99850000D03*
%TO.N,/ICTRL*%
X156219011Y-119015553D03*
D40*
X145700000Y-112700000D03*
D39*
%TO.N,/IN*%
X152300000Y-111500000D03*
%TO.N,/!FTL*%
X158200000Y-119300000D03*
D40*
X147700000Y-117300000D03*
D39*
%TO.N,/PWMDIM*%
X159400000Y-119300000D03*
D40*
X153500000Y-116600000D03*
D39*
%TO.N,/V-out*%
X161400000Y-107300000D03*
X162100000Y-113000000D03*
%TD*%
D41*
%TO.N,GND*%
X152740000Y-118010000D02*
X152750000Y-118000000D01*
X153500000Y-114250000D02*
X153500000Y-113030000D01*
X151280000Y-112920000D02*
X151300000Y-112900000D01*
X154825000Y-116225000D02*
X155600000Y-115450000D01*
X141600000Y-112400000D02*
X141900000Y-112400000D01*
X156775000Y-111837500D02*
X156775000Y-114375000D01*
D42*
X163250000Y-107475000D02*
X163175000Y-107400000D01*
D41*
X150120000Y-113100000D02*
X150300000Y-112920000D01*
X152740000Y-119100000D02*
X152740000Y-118010000D01*
X152750000Y-120310000D02*
X152740000Y-120300000D01*
X156125000Y-115675000D02*
X157100000Y-114700000D01*
X156775000Y-114375000D02*
X157100000Y-114700000D01*
X150300000Y-112920000D02*
X151280000Y-112920000D01*
X149700000Y-115900000D02*
X150700000Y-115900000D01*
D42*
X163175000Y-106025000D02*
X163175000Y-107400000D01*
X163250000Y-108750000D02*
X163250000Y-107475000D01*
D41*
X154220000Y-109950000D02*
X153100000Y-109950000D01*
X161910000Y-116200000D02*
X162800000Y-116200000D01*
X152750000Y-121250000D02*
X152750000Y-120310000D01*
X149050000Y-113100000D02*
X150120000Y-113100000D01*
X154825000Y-117562500D02*
X154825000Y-116225000D01*
X141900000Y-112400000D02*
X142600000Y-111700000D01*
X156125000Y-117562500D02*
X156125000Y-115675000D01*
%TO.N,/VCC*%
X155250000Y-110000000D02*
X155475000Y-110225000D01*
X155180000Y-110000000D02*
X155250000Y-110000000D01*
X155475000Y-110225000D02*
X155475000Y-111837500D01*
%TO.N,/COMP*%
X157425000Y-117562500D02*
X157425000Y-119850000D01*
X157425000Y-119850000D02*
X157075000Y-120200000D01*
D42*
%TO.N,/RCS*%
X139950000Y-108480000D02*
X141170000Y-109700000D01*
X141170000Y-109700000D02*
X150100000Y-109700000D01*
X151900000Y-107900000D02*
X155190000Y-107900000D01*
X150100000Y-109700000D02*
X151900000Y-107900000D01*
D43*
%TO.N,/NDRV*%
X156125000Y-110413799D02*
X156224500Y-110314299D01*
D42*
X139900000Y-105500000D02*
X139900000Y-103970000D01*
D41*
X156125000Y-111837500D02*
X156125000Y-110675000D01*
D43*
X156125000Y-110675000D02*
X156125000Y-110413799D01*
D42*
X139900000Y-103970000D02*
X139950000Y-103920000D01*
D41*
%TO.N,/!DIMOUT*%
X165600000Y-109650000D02*
X163412500Y-111837500D01*
X165600000Y-105500000D02*
X165600000Y-109650000D01*
D42*
X165600000Y-99850000D02*
X165550000Y-99900000D01*
X165550000Y-99900000D02*
X163620000Y-99900000D01*
D41*
X163412500Y-111837500D02*
X159375000Y-111837500D01*
%TO.N,/ICTRL*%
X156600000Y-119000000D02*
X156234564Y-119000000D01*
X156775000Y-117562500D02*
X156775000Y-118825000D01*
X156234564Y-119000000D02*
X156219011Y-119015553D01*
X156775000Y-118825000D02*
X156600000Y-119000000D01*
X146100000Y-113100000D02*
X145700000Y-112700000D01*
X147150000Y-113100000D02*
X146100000Y-113100000D01*
%TO.N,/RT{slash}SYNC*%
X155475000Y-117562500D02*
X155475000Y-118925000D01*
X155300000Y-119100000D02*
X153760000Y-119100000D01*
X155475000Y-118925000D02*
X155300000Y-119100000D01*
%TO.N,/CS*%
X157425000Y-111837500D02*
X157425000Y-108325000D01*
X157425000Y-108325000D02*
X157000000Y-107900000D01*
X157000000Y-107900000D02*
X156210000Y-107900000D01*
%TO.N,/ISENSE-*%
X158725000Y-110575000D02*
X159200000Y-110100000D01*
X158725000Y-111837500D02*
X158725000Y-110575000D01*
X159200000Y-110100000D02*
X160775000Y-110100000D01*
%TO.N,/OPV*%
X160900000Y-117200000D02*
X160900000Y-114725000D01*
X160537500Y-117562500D02*
X160900000Y-117200000D01*
X159375000Y-117562500D02*
X160537500Y-117562500D01*
D43*
%TO.N,/comp_RC*%
X153760000Y-120300000D02*
X155025000Y-120300000D01*
X155025000Y-120300000D02*
X155125000Y-120200000D01*
D41*
%TO.N,/ISENSE+*%
X158075000Y-111837500D02*
X158075000Y-110125000D01*
X158075000Y-110125000D02*
X158100000Y-110100000D01*
D42*
X158100000Y-107650000D02*
X158100000Y-110100000D01*
X158500000Y-107250000D02*
X158100000Y-107650000D01*
%TO.N,/IN*%
X153500000Y-111525000D02*
X152325000Y-111525000D01*
D41*
X154512500Y-111525000D02*
X154825000Y-111837500D01*
D42*
X152325000Y-111525000D02*
X152300000Y-111500000D01*
X153500000Y-111525000D02*
X154512500Y-111525000D01*
D41*
%TO.N,/!FTL*%
X147700000Y-115900000D02*
X147700000Y-117300000D01*
X158075000Y-119175000D02*
X158200000Y-119300000D01*
X158075000Y-117562500D02*
X158075000Y-119175000D01*
%TO.N,/PWMDIM*%
X152100000Y-116600000D02*
X151100000Y-117600000D01*
X158725000Y-118625000D02*
X159400000Y-119300000D01*
X148700000Y-117300000D02*
X148700000Y-115900000D01*
X153500000Y-116600000D02*
X152100000Y-116600000D01*
X151100000Y-117600000D02*
X149000000Y-117600000D01*
X149000000Y-117600000D02*
X148700000Y-117300000D01*
X158725000Y-117562500D02*
X158725000Y-118625000D01*
D42*
%TO.N,/V-out*%
X158500000Y-106250000D02*
X158500000Y-103780000D01*
D41*
X160325000Y-107300000D02*
X160225000Y-107400000D01*
D42*
X158500000Y-103780000D02*
X157320000Y-102600000D01*
D41*
X160900000Y-113075000D02*
X162025000Y-113075000D01*
X161400000Y-107300000D02*
X160325000Y-107300000D01*
X162025000Y-113075000D02*
X162100000Y-113000000D01*
%TO.N,/Vout-FET*%
X162425000Y-110100000D02*
X163400000Y-110100000D01*
X164362500Y-109137500D02*
X164362500Y-103700000D01*
X163400000Y-110100000D02*
X164362500Y-109137500D01*
%TO.N,+3V3*%
X145300000Y-115200000D02*
X144890000Y-114790000D01*
X147100000Y-114500000D02*
X148500000Y-114500000D01*
X144890000Y-114790000D02*
X144890000Y-113800000D01*
X139800000Y-114800000D02*
X143890000Y-114800000D01*
X138600000Y-112400000D02*
X138600000Y-113600000D01*
X150170000Y-113750000D02*
X150300000Y-113880000D01*
X146700000Y-115900000D02*
X146700000Y-114900000D01*
X146000000Y-115200000D02*
X145300000Y-115200000D01*
X146700000Y-115900000D02*
X146000000Y-115200000D01*
X143890000Y-114800000D02*
X144890000Y-113800000D01*
X148500000Y-114500000D02*
X149050000Y-113950000D01*
X138600000Y-113600000D02*
X139800000Y-114800000D01*
X146700000Y-114900000D02*
X147100000Y-114500000D01*
X149050000Y-113750000D02*
X150170000Y-113750000D01*
X149050000Y-113950000D02*
X149050000Y-113750000D01*
%TO.N,/I2C_SDA*%
X146700000Y-112000000D02*
X147150000Y-112450000D01*
X144800000Y-112000000D02*
X146700000Y-112000000D01*
X140300000Y-114200000D02*
X142600000Y-114200000D01*
X139600000Y-112400000D02*
X139600000Y-113500000D01*
X142600000Y-114200000D02*
X144800000Y-112000000D01*
X139600000Y-113500000D02*
X140300000Y-114200000D01*
%TO.N,/I2C_SCL*%
X148200000Y-111500000D02*
X149050000Y-112350000D01*
X141200000Y-113700000D02*
X142300000Y-113700000D01*
X149050000Y-112350000D02*
X149050000Y-112450000D01*
X142300000Y-113700000D02*
X144500000Y-111500000D01*
X140600000Y-113100000D02*
X141200000Y-113700000D01*
X144500000Y-111500000D02*
X148200000Y-111500000D01*
X140600000Y-112400000D02*
X140600000Y-113100000D01*
%TO.N,/divider_high*%
X145910000Y-113800000D02*
X147100000Y-113800000D01*
X147100000Y-113800000D02*
X147150000Y-113750000D01*
%TD*%
%TA.AperFunction,Conductor*%
%TO.N,GND*%
G36*
X137753915Y-98019707D02*
G01*
X137808286Y-98058286D01*
X137941714Y-98191714D01*
X137988833Y-98266702D01*
X138000000Y-98332428D01*
X138000000Y-98500000D01*
X138500000Y-99000000D01*
X138917572Y-99000000D01*
X139003915Y-99019707D01*
X139058286Y-99058286D01*
X139191714Y-99191714D01*
X139238833Y-99266702D01*
X139250000Y-99332428D01*
X139250000Y-99667572D01*
X139230293Y-99753915D01*
X139191714Y-99808286D01*
X138500000Y-100500000D01*
X138500000Y-104167572D01*
X138480293Y-104253915D01*
X138441714Y-104308286D01*
X137808286Y-104941714D01*
X137733298Y-104988833D01*
X137667572Y-105000000D01*
X134069805Y-105000000D01*
X133983462Y-104980293D01*
X133945491Y-104956393D01*
X133135357Y-104308286D01*
X130324686Y-102059748D01*
X130269574Y-101990422D01*
X130250000Y-101904356D01*
X130250000Y-99082428D01*
X130269707Y-98996085D01*
X130308286Y-98941714D01*
X130691714Y-98558286D01*
X130766702Y-98511167D01*
X130832428Y-98500000D01*
X134250000Y-98500000D01*
X134691714Y-98058286D01*
X134766702Y-98011167D01*
X134832428Y-98000000D01*
X137667572Y-98000000D01*
X137753915Y-98019707D01*
G37*
%TD.AperFunction*%
%TD*%
%TA.AperFunction,Conductor*%
%TO.N,/LED+*%
G36*
X163794816Y-84019707D02*
G01*
X163859564Y-84069491D01*
X164352094Y-84644109D01*
X164393320Y-84722488D01*
X164400000Y-84773614D01*
X164400000Y-86700000D01*
X166800000Y-89300000D01*
X168217572Y-89300000D01*
X168303915Y-89319707D01*
X168358286Y-89358286D01*
X169141714Y-90141714D01*
X169188833Y-90216702D01*
X169200000Y-90282428D01*
X169200000Y-96817572D01*
X169180293Y-96903915D01*
X169141714Y-96958286D01*
X168858286Y-97241714D01*
X168783298Y-97288833D01*
X168717572Y-97300000D01*
X163282428Y-97300000D01*
X163196085Y-97280293D01*
X163141714Y-97241714D01*
X162658286Y-96758286D01*
X162611167Y-96683298D01*
X162600000Y-96617572D01*
X162600000Y-91900000D01*
X159858286Y-89158286D01*
X159811167Y-89083298D01*
X159800000Y-89017572D01*
X159800000Y-84672048D01*
X159819707Y-84585705D01*
X159846124Y-84544651D01*
X160240331Y-84071603D01*
X160310746Y-84017889D01*
X160393207Y-84000000D01*
X163708473Y-84000000D01*
X163794816Y-84019707D01*
G37*
%TD.AperFunction*%
%TD*%
%TA.AperFunction,Conductor*%
%TO.N,GND*%
G36*
X158189623Y-84019707D02*
G01*
X158259757Y-84076054D01*
X159257477Y-85345880D01*
X159295326Y-85425948D01*
X159300000Y-85468826D01*
X159300000Y-90100000D01*
X161941714Y-92741714D01*
X161988833Y-92816702D01*
X162000000Y-92882428D01*
X162000000Y-95933667D01*
X161980293Y-96020010D01*
X161960200Y-96053067D01*
X161759700Y-96320400D01*
X161692128Y-96377650D01*
X161600500Y-96400000D01*
X154791527Y-96400000D01*
X154705184Y-96380293D01*
X154640435Y-96330508D01*
X154631771Y-96320400D01*
X154147906Y-95755891D01*
X154106680Y-95677512D01*
X154100000Y-95626386D01*
X154100000Y-85082428D01*
X154119707Y-84996085D01*
X154158286Y-84941714D01*
X155041714Y-84058286D01*
X155116702Y-84011167D01*
X155182428Y-84000000D01*
X158103280Y-84000000D01*
X158189623Y-84019707D01*
G37*
%TD.AperFunction*%
%TD*%
%TA.AperFunction,Conductor*%
%TO.N,/L-out*%
G36*
X152908935Y-92469707D02*
G01*
X152957061Y-92502306D01*
X153435469Y-92940847D01*
X153485801Y-93013719D01*
X153500000Y-93087541D01*
X153500000Y-99800000D01*
X153911862Y-100376607D01*
X153962933Y-100448106D01*
X153997082Y-100529820D01*
X154000000Y-100563772D01*
X154000000Y-105408922D01*
X153980293Y-105495265D01*
X153931070Y-105559530D01*
X152956033Y-106401608D01*
X152877806Y-106443128D01*
X152825963Y-106450000D01*
X150900000Y-106450000D01*
X150150000Y-107200000D01*
X150150000Y-108789048D01*
X150130293Y-108875391D01*
X150091714Y-108929762D01*
X149930262Y-109091214D01*
X149855274Y-109138333D01*
X149789548Y-109149500D01*
X142599000Y-109149500D01*
X142512657Y-109129793D01*
X142443416Y-109074574D01*
X142404989Y-108994782D01*
X142400000Y-108950500D01*
X142400000Y-103282428D01*
X142419707Y-103196085D01*
X142458286Y-103141714D01*
X144341714Y-101258286D01*
X144416702Y-101211167D01*
X144482428Y-101200000D01*
X146900000Y-101200000D01*
X147840541Y-100416216D01*
X147919486Y-100376081D01*
X148008029Y-100374174D01*
X148018434Y-100376607D01*
X148092625Y-100396071D01*
X148092627Y-100396071D01*
X148104233Y-100399116D01*
X148195189Y-100400545D01*
X148261765Y-100401591D01*
X148261768Y-100401591D01*
X148273760Y-100401779D01*
X148285447Y-100399102D01*
X148285451Y-100399102D01*
X148375042Y-100378583D01*
X148439029Y-100363928D01*
X148590498Y-100287747D01*
X148660881Y-100227634D01*
X148710300Y-100185426D01*
X148710301Y-100185425D01*
X148719423Y-100177634D01*
X148818361Y-100039947D01*
X148881601Y-99882634D01*
X148905490Y-99714778D01*
X148905645Y-99700000D01*
X148904862Y-99693534D01*
X148904862Y-99693525D01*
X148899813Y-99651803D01*
X148909005Y-99563718D01*
X148955506Y-99488344D01*
X148969975Y-99475021D01*
X149282776Y-99214353D01*
X149300000Y-99200000D01*
X149300000Y-93402907D01*
X149319707Y-93316564D01*
X149374926Y-93247323D01*
X149383975Y-93240518D01*
X150448314Y-92486611D01*
X150530163Y-92452785D01*
X150563339Y-92450000D01*
X152822592Y-92450000D01*
X152908935Y-92469707D01*
G37*
%TD.AperFunction*%
%TD*%
%TA.AperFunction,Conductor*%
%TO.N,/V-out*%
G36*
X161803915Y-97119707D02*
G01*
X161858286Y-97158286D01*
X162241714Y-97541714D01*
X162288833Y-97616702D01*
X162300000Y-97682428D01*
X162300000Y-104517572D01*
X162280293Y-104603915D01*
X162241714Y-104658286D01*
X161700000Y-105200000D01*
X161700000Y-105393654D01*
X161680293Y-105479997D01*
X161625074Y-105549238D01*
X161592274Y-105570488D01*
X161503369Y-105616375D01*
X161494330Y-105624261D01*
X161494326Y-105624263D01*
X161384647Y-105719942D01*
X161375604Y-105727831D01*
X161278113Y-105866547D01*
X161216524Y-106024513D01*
X161207117Y-106095967D01*
X161196966Y-106173077D01*
X161194394Y-106192611D01*
X161195710Y-106204532D01*
X161195710Y-106204537D01*
X161201853Y-106260182D01*
X161200712Y-106299288D01*
X161200000Y-106300000D01*
X161200000Y-108217572D01*
X161180293Y-108303915D01*
X161141714Y-108358286D01*
X160858286Y-108641714D01*
X160783298Y-108688833D01*
X160717572Y-108700000D01*
X159706501Y-108700000D01*
X159620158Y-108680293D01*
X159550917Y-108625074D01*
X159540923Y-108611385D01*
X159433422Y-108450133D01*
X159401925Y-108367360D01*
X159400000Y-108339748D01*
X159400000Y-106000000D01*
X158600000Y-105600000D01*
X155682428Y-105600000D01*
X155596085Y-105580293D01*
X155541714Y-105541714D01*
X155058286Y-105058286D01*
X155011167Y-104983298D01*
X155000000Y-104917572D01*
X155000000Y-100000000D01*
X154308286Y-99308286D01*
X154261167Y-99233298D01*
X154250000Y-99167572D01*
X154250000Y-97863772D01*
X154269707Y-97777429D01*
X154287067Y-97748106D01*
X154690476Y-97183334D01*
X154756698Y-97124528D01*
X154841877Y-97100279D01*
X154852409Y-97100000D01*
X161717572Y-97100000D01*
X161803915Y-97119707D01*
G37*
%TD.AperFunction*%
%TD*%
%TA.AperFunction,Conductor*%
%TO.N,/IN*%
G36*
X134686843Y-88019707D02*
G01*
X134759700Y-88079600D01*
X134960200Y-88346933D01*
X134996240Y-88427831D01*
X135000000Y-88466333D01*
X135000000Y-91100000D01*
X136800000Y-92700000D01*
X141626386Y-92700000D01*
X141712729Y-92719707D01*
X141755888Y-92747904D01*
X142330509Y-93240436D01*
X142383239Y-93311589D01*
X142400000Y-93391527D01*
X142400000Y-98117572D01*
X142380293Y-98203915D01*
X142341714Y-98258286D01*
X141958286Y-98641714D01*
X141883298Y-98688833D01*
X141817572Y-98700000D01*
X139254917Y-98700000D01*
X139168574Y-98680293D01*
X139154298Y-98671965D01*
X139152721Y-98670560D01*
X139143714Y-98665791D01*
X139013485Y-98596838D01*
X139013481Y-98596837D01*
X139002881Y-98591224D01*
X138838441Y-98549919D01*
X138826440Y-98549856D01*
X138826439Y-98549856D01*
X138759917Y-98549508D01*
X138668895Y-98549031D01*
X138657935Y-98551662D01*
X138570288Y-98542052D01*
X138494738Y-98494738D01*
X138358286Y-98358286D01*
X138311167Y-98283298D01*
X138300000Y-98217572D01*
X138300000Y-97600000D01*
X138283607Y-97586339D01*
X137717225Y-97114354D01*
X137717224Y-97114354D01*
X137700000Y-97100000D01*
X134600000Y-97100000D01*
X134245455Y-97400000D01*
X133355647Y-98152914D01*
X133277004Y-98193642D01*
X133227104Y-98200000D01*
X130175659Y-98200000D01*
X130089316Y-98180293D01*
X130043454Y-98149737D01*
X129266789Y-97459368D01*
X129215351Y-97387279D01*
X129200000Y-97310637D01*
X129200000Y-97067445D01*
X129201985Y-97039406D01*
X129204572Y-97021227D01*
X129205490Y-97014778D01*
X129205645Y-97000000D01*
X129201441Y-96965260D01*
X129200000Y-96941353D01*
X129200000Y-94086476D01*
X129219707Y-94000133D01*
X129263219Y-93940996D01*
X130541527Y-92747908D01*
X130700000Y-92600000D01*
X130700000Y-92067445D01*
X130701985Y-92039406D01*
X130704572Y-92021227D01*
X130705490Y-92014778D01*
X130705645Y-92000000D01*
X130701441Y-91965260D01*
X130700000Y-91941353D01*
X130700000Y-89569805D01*
X130719707Y-89483462D01*
X130743607Y-89445491D01*
X131840252Y-88074686D01*
X131909578Y-88019574D01*
X131995644Y-88000000D01*
X134600500Y-88000000D01*
X134686843Y-88019707D01*
G37*
%TD.AperFunction*%
%TD*%
%TA.AperFunction,Conductor*%
%TO.N,/Vout-FET*%
G36*
X168803915Y-98419707D02*
G01*
X168858286Y-98458286D01*
X169041714Y-98641714D01*
X169088833Y-98716702D01*
X169100000Y-98782428D01*
X169100000Y-101112995D01*
X169080293Y-101199338D01*
X169036129Y-101259081D01*
X166869105Y-103263577D01*
X166792339Y-103307740D01*
X166704013Y-103314222D01*
X166692602Y-103312142D01*
X166605696Y-103293670D01*
X166595487Y-103291500D01*
X166404513Y-103291500D01*
X166394310Y-103293669D01*
X166394307Y-103293669D01*
X166328110Y-103307740D01*
X166217712Y-103331206D01*
X166208188Y-103335446D01*
X166208186Y-103335447D01*
X166130480Y-103370044D01*
X166043248Y-103408882D01*
X165888747Y-103521134D01*
X165760960Y-103663056D01*
X165665473Y-103828444D01*
X165606458Y-104010072D01*
X165586496Y-104200000D01*
X165587586Y-104210371D01*
X165587586Y-104210372D01*
X165600019Y-104328669D01*
X165589445Y-104416598D01*
X165537238Y-104495555D01*
X165452526Y-104573913D01*
X165375759Y-104618076D01*
X165358773Y-104622478D01*
X165347805Y-104624809D01*
X165317712Y-104631206D01*
X165308188Y-104635446D01*
X165308186Y-104635447D01*
X165230480Y-104670044D01*
X165143248Y-104708882D01*
X164988747Y-104821134D01*
X164981773Y-104828880D01*
X164981768Y-104828884D01*
X164977021Y-104834157D01*
X164904601Y-104885136D01*
X164829135Y-104900000D01*
X163895644Y-104900000D01*
X163809301Y-104880293D01*
X163740251Y-104825314D01*
X163643713Y-104704641D01*
X163443607Y-104454508D01*
X163405058Y-104374776D01*
X163400000Y-104330195D01*
X163400000Y-102592582D01*
X163419707Y-102506239D01*
X163470817Y-102440365D01*
X165412476Y-100805283D01*
X165491215Y-100764740D01*
X165540659Y-100758500D01*
X165695487Y-100758500D01*
X165705690Y-100756331D01*
X165705693Y-100756331D01*
X165774706Y-100741661D01*
X165882288Y-100718794D01*
X165891812Y-100714554D01*
X165891814Y-100714553D01*
X166017711Y-100658500D01*
X166056752Y-100641118D01*
X166211253Y-100528866D01*
X166339040Y-100386944D01*
X166434527Y-100221556D01*
X166493542Y-100039928D01*
X166501881Y-99960589D01*
X166530506Y-99876779D01*
X166571608Y-99829173D01*
X167182850Y-99314442D01*
X167200000Y-99300000D01*
X167200000Y-98882428D01*
X167219707Y-98796085D01*
X167258286Y-98741714D01*
X167541714Y-98458286D01*
X167616702Y-98411167D01*
X167682428Y-98400000D01*
X168717572Y-98400000D01*
X168803915Y-98419707D01*
G37*
%TD.AperFunction*%
%TD*%
%TA.AperFunction,Conductor*%
%TO.N,GND*%
G36*
X139503915Y-87269707D02*
G01*
X139558286Y-87308286D01*
X139941714Y-87691714D01*
X139988833Y-87766702D01*
X140000000Y-87832428D01*
X140000000Y-90917572D01*
X139980293Y-91003915D01*
X139941714Y-91058286D01*
X139558286Y-91441714D01*
X139483298Y-91488833D01*
X139417572Y-91500000D01*
X136332428Y-91500000D01*
X136246085Y-91480293D01*
X136191714Y-91441714D01*
X135558286Y-90808286D01*
X135511167Y-90733298D01*
X135500000Y-90667572D01*
X135500000Y-87832428D01*
X135519707Y-87746085D01*
X135558286Y-87691714D01*
X135941714Y-87308286D01*
X136016702Y-87261167D01*
X136082428Y-87250000D01*
X139417572Y-87250000D01*
X139503915Y-87269707D01*
G37*
%TD.AperFunction*%
%TD*%
%TA.AperFunction,Conductor*%
%TO.N,/RCS*%
G36*
X137403915Y-105419707D02*
G01*
X137458286Y-105458286D01*
X137741714Y-105741714D01*
X137788833Y-105816702D01*
X137800000Y-105882428D01*
X137800000Y-106300000D01*
X138700000Y-107200000D01*
X140917572Y-107200000D01*
X141003915Y-107219707D01*
X141058286Y-107258286D01*
X141441714Y-107641714D01*
X141488833Y-107716702D01*
X141500000Y-107782428D01*
X141500000Y-109317572D01*
X141480293Y-109403915D01*
X141441714Y-109458286D01*
X141258286Y-109641714D01*
X141183298Y-109688833D01*
X141117572Y-109700000D01*
X137982428Y-109700000D01*
X137896085Y-109680293D01*
X137841714Y-109641714D01*
X137658286Y-109458286D01*
X137611167Y-109383298D01*
X137600000Y-109317572D01*
X137600000Y-109000000D01*
X136900000Y-108300000D01*
X134982428Y-108300000D01*
X134896085Y-108280293D01*
X134841714Y-108241714D01*
X134458286Y-107858286D01*
X134411167Y-107783298D01*
X134400000Y-107717572D01*
X134400000Y-106082428D01*
X134419707Y-105996085D01*
X134458286Y-105941714D01*
X134941714Y-105458286D01*
X135016702Y-105411167D01*
X135082428Y-105400000D01*
X137317572Y-105400000D01*
X137403915Y-105419707D01*
G37*
%TD.AperFunction*%
%TD*%
M02*
