%TF.GenerationSoftware,KiCad,Pcbnew,(6.0.9)*%
%TF.CreationDate,2023-02-03T11:06:12+01:00*%
%TF.ProjectId,Powerboard,506f7765-7262-46f6-9172-642e6b696361,rev?*%
%TF.SameCoordinates,Original*%
%TF.FileFunction,Copper,L2,Inr*%
%TF.FilePolarity,Positive*%
%FSLAX46Y46*%
G04 Gerber Fmt 4.6, Leading zero omitted, Abs format (unit mm)*
G04 Created by KiCad (PCBNEW (6.0.9)) date 2023-02-03 11:06:12*
%MOMM*%
%LPD*%
G01*
G04 APERTURE LIST*
%TA.AperFunction,ComponentPad*%
%ADD10C,4.000000*%
%TD*%
%TA.AperFunction,ComponentPad*%
%ADD11C,0.700000*%
%TD*%
%TA.AperFunction,ViaPad*%
%ADD12C,0.800000*%
%TD*%
%TA.AperFunction,ViaPad*%
%ADD13C,0.450000*%
%TD*%
G04 APERTURE END LIST*
D10*
%TO.N,GND*%
%TO.C,J2*%
X157100000Y-86700000D03*
%TO.N,/LED+*%
X162100000Y-86700000D03*
%TD*%
D11*
%TO.N,GND*%
%TO.C,U1*%
X158600000Y-113950000D03*
X155600000Y-113950000D03*
X155600000Y-115450000D03*
X158600000Y-115450000D03*
X157100000Y-115450000D03*
X157100000Y-113950000D03*
%TD*%
D10*
%TO.N,GND*%
%TO.C,J1*%
X131900000Y-100800000D03*
%TO.N,/IN*%
X131900000Y-95800000D03*
%TD*%
D12*
%TO.N,GND*%
X142500000Y-119000000D03*
X139500000Y-117000000D03*
X158250000Y-80250000D03*
D13*
X144900000Y-112800000D03*
D12*
X163000000Y-82750000D03*
X143250000Y-99750000D03*
X159500000Y-92000000D03*
X161900000Y-106200000D03*
X136000000Y-100000000D03*
X139250000Y-90750000D03*
X143250000Y-96750000D03*
X165100000Y-112800000D03*
X171000000Y-96500000D03*
X136750000Y-110000000D03*
X155500000Y-93000000D03*
X154750000Y-106500000D03*
X167250000Y-87500000D03*
X155500000Y-94000000D03*
X143250000Y-93500000D03*
X139500000Y-86250000D03*
X137250000Y-90750000D03*
X159500000Y-94000000D03*
X137250000Y-87750000D03*
X135250000Y-102500000D03*
X138250000Y-90750000D03*
X165000000Y-115500000D03*
X162500000Y-114750000D03*
X154500000Y-94000000D03*
X158500000Y-94000000D03*
X155500000Y-92000000D03*
X142600000Y-82300000D03*
X157500000Y-94000000D03*
X146900000Y-117900000D03*
X167000000Y-113000000D03*
X163250000Y-108750000D03*
X128500000Y-97000000D03*
X137000000Y-102500000D03*
X136250000Y-87750000D03*
X142500000Y-87500000D03*
X139750000Y-81500000D03*
X163175000Y-106025000D03*
X166500000Y-104200000D03*
X158500000Y-93000000D03*
X139500000Y-89750000D03*
X154500000Y-93000000D03*
X166900000Y-109800000D03*
X161500000Y-93000000D03*
X159500000Y-93000000D03*
X136250000Y-90750000D03*
X152750000Y-118000000D03*
X160500000Y-93000000D03*
X130000000Y-92000000D03*
X131000000Y-110500000D03*
X139250000Y-87750000D03*
X135250000Y-98250000D03*
X153200000Y-115800000D03*
X170250000Y-93250000D03*
X151300000Y-112900000D03*
X135000000Y-112250000D03*
X129500000Y-107000000D03*
X140000000Y-101500000D03*
X134500000Y-103750000D03*
X137750000Y-103750000D03*
X135750000Y-83750000D03*
X161500000Y-94000000D03*
X146700000Y-82500000D03*
X152000000Y-110400000D03*
X153100000Y-109950000D03*
X165500000Y-98750000D03*
X168750000Y-110250000D03*
X138000000Y-100000000D03*
X153000000Y-86250000D03*
X160500000Y-94000000D03*
X150700000Y-115900000D03*
X153500000Y-79000000D03*
X171250000Y-103500000D03*
X148200000Y-99700000D03*
X152750000Y-121250000D03*
X148250000Y-96750000D03*
X157500000Y-106500000D03*
X171500000Y-99750000D03*
X158499614Y-91994653D03*
X138750000Y-99250000D03*
X160500000Y-119000000D03*
X135250000Y-99250000D03*
X149250000Y-87500000D03*
X143250000Y-90000000D03*
X138700000Y-105600000D03*
X138250000Y-87750000D03*
X149250000Y-90000000D03*
X143250000Y-79750000D03*
X129000000Y-105000000D03*
X156513738Y-91994653D03*
X156500000Y-94000000D03*
X153000000Y-83000000D03*
X133000000Y-113000000D03*
X148250000Y-93500000D03*
X138500000Y-110500000D03*
X162800000Y-116200000D03*
X157500000Y-93000000D03*
X137000000Y-100000000D03*
X153500000Y-114250000D03*
X168600000Y-103100000D03*
X142600000Y-111700000D03*
X163200000Y-113000000D03*
X139500000Y-88750000D03*
X156500000Y-93000000D03*
%TO.N,/NDRV*%
X156224500Y-110314299D03*
X139900000Y-105500000D03*
%TO.N,/!DIMOUT*%
X165600000Y-105500000D03*
X165600000Y-99850000D03*
%TO.N,/ICTRL*%
X156219011Y-119015553D03*
D13*
X145700000Y-112700000D03*
D12*
%TO.N,/IN*%
X152300000Y-111500000D03*
%TO.N,/!FTL*%
X158200000Y-119300000D03*
D13*
X147700000Y-117300000D03*
D12*
%TO.N,/PWMDIM*%
X159400000Y-119300000D03*
D13*
X153500000Y-116600000D03*
D12*
%TO.N,/V-out*%
X161400000Y-107300000D03*
X162100000Y-113000000D03*
%TD*%
%TA.AperFunction,Conductor*%
%TO.N,GND*%
G36*
X150468036Y-77805500D02*
G01*
X151390821Y-77844176D01*
X151397012Y-77844566D01*
X152317365Y-77921849D01*
X152323563Y-77922500D01*
X153239891Y-78038260D01*
X153246051Y-78039170D01*
X154156698Y-78193194D01*
X154162794Y-78194357D01*
X154525622Y-78271478D01*
X155066219Y-78386386D01*
X155072295Y-78387811D01*
X155966856Y-78617495D01*
X155972866Y-78619173D01*
X155982823Y-78622179D01*
X156857048Y-78886123D01*
X156862983Y-78888052D01*
X157205622Y-79007371D01*
X157735174Y-79191780D01*
X157741005Y-79193948D01*
X158599787Y-79533965D01*
X158605494Y-79536364D01*
X159174457Y-79789683D01*
X159449230Y-79912020D01*
X159454877Y-79914677D01*
X160130091Y-80249856D01*
X160282144Y-80325336D01*
X160287673Y-80328226D01*
X161091556Y-80770164D01*
X161097022Y-80773169D01*
X161102418Y-80776285D01*
X161892435Y-81254736D01*
X161897676Y-81258062D01*
X162666961Y-81769174D01*
X162672066Y-81772722D01*
X163419285Y-82315609D01*
X163424256Y-82319382D01*
X164148043Y-82893048D01*
X164152852Y-82897026D01*
X164852001Y-83500516D01*
X164856639Y-83504692D01*
X165529906Y-84136932D01*
X165534364Y-84141298D01*
X166180553Y-84801165D01*
X166184808Y-84805694D01*
X166454522Y-85105242D01*
X166802818Y-85492063D01*
X166806895Y-85496788D01*
X167395619Y-86208433D01*
X167399496Y-86213324D01*
X167957890Y-86948980D01*
X167961554Y-86954023D01*
X168387901Y-87567456D01*
X168488649Y-87712414D01*
X168492098Y-87717605D01*
X168987001Y-88497446D01*
X168990202Y-88502732D01*
X169285017Y-89013366D01*
X169452016Y-89302617D01*
X169455018Y-89308078D01*
X169882906Y-90126553D01*
X169885681Y-90132143D01*
X170278916Y-90967811D01*
X170281455Y-90973512D01*
X170639368Y-91824953D01*
X170641665Y-91830756D01*
X170963596Y-92696403D01*
X170965648Y-92702296D01*
X171251049Y-93580670D01*
X171252853Y-93586645D01*
X171501223Y-94476205D01*
X171502775Y-94482250D01*
X171713672Y-95381413D01*
X171714970Y-95387517D01*
X171792727Y-95795133D01*
X171869341Y-96196755D01*
X171888034Y-96294748D01*
X171889071Y-96300881D01*
X171941873Y-96658451D01*
X172023994Y-97214580D01*
X172024776Y-97220771D01*
X172121317Y-98139295D01*
X172121839Y-98145514D01*
X172178431Y-99045005D01*
X172179832Y-99067274D01*
X172180092Y-99073488D01*
X172199435Y-99996880D01*
X172199435Y-100003103D01*
X172189686Y-100468544D01*
X172180093Y-100926490D01*
X172179833Y-100932703D01*
X172143975Y-101502652D01*
X172121839Y-101854486D01*
X172121317Y-101860705D01*
X172024776Y-102779229D01*
X172023994Y-102785420D01*
X171889075Y-103699098D01*
X171888037Y-103705232D01*
X171796073Y-104187329D01*
X171714970Y-104612483D01*
X171713672Y-104618587D01*
X171502775Y-105517750D01*
X171501223Y-105523795D01*
X171252853Y-106413355D01*
X171251049Y-106419330D01*
X170965648Y-107297704D01*
X170963596Y-107303597D01*
X170641665Y-108169244D01*
X170639368Y-108175047D01*
X170281455Y-109026488D01*
X170278916Y-109032189D01*
X169885681Y-109867857D01*
X169882907Y-109873444D01*
X169491757Y-110621647D01*
X169455022Y-110691914D01*
X169452020Y-110697375D01*
X168990202Y-111497268D01*
X168987001Y-111502554D01*
X168492103Y-112282388D01*
X168488653Y-112287580D01*
X167992070Y-113002070D01*
X167961558Y-113045971D01*
X167957894Y-113051014D01*
X167751461Y-113322980D01*
X167399496Y-113786676D01*
X167395619Y-113791567D01*
X166806895Y-114503212D01*
X166802826Y-114507928D01*
X166184808Y-115194306D01*
X166180553Y-115198835D01*
X165534364Y-115858702D01*
X165529906Y-115863068D01*
X164856639Y-116495308D01*
X164852001Y-116499484D01*
X164441458Y-116853856D01*
X164183284Y-117076706D01*
X164152852Y-117102974D01*
X164148053Y-117106943D01*
X163448070Y-117661743D01*
X163424256Y-117680618D01*
X163419285Y-117684391D01*
X162672066Y-118227278D01*
X162666961Y-118230826D01*
X161897676Y-118741938D01*
X161892435Y-118745264D01*
X161102427Y-119223710D01*
X161097032Y-119226825D01*
X160346984Y-119639167D01*
X160287674Y-119671773D01*
X160282143Y-119674664D01*
X160218255Y-119706378D01*
X160142649Y-119721623D01*
X160069549Y-119697022D01*
X160018544Y-119639167D01*
X160003299Y-119563561D01*
X160013757Y-119517342D01*
X160029601Y-119477930D01*
X160029602Y-119477927D01*
X160032950Y-119469598D01*
X160055134Y-119313723D01*
X160055278Y-119300000D01*
X160036363Y-119143694D01*
X160000115Y-119047766D01*
X159983885Y-119004813D01*
X159983883Y-119004809D01*
X159980710Y-118996412D01*
X159891531Y-118866657D01*
X159773976Y-118761919D01*
X159634831Y-118688245D01*
X159626119Y-118686057D01*
X159626117Y-118686056D01*
X159490840Y-118652077D01*
X159490838Y-118652077D01*
X159482128Y-118649889D01*
X159324684Y-118649065D01*
X159315955Y-118651161D01*
X159315952Y-118651161D01*
X159244207Y-118668386D01*
X159171588Y-118685820D01*
X159031679Y-118758032D01*
X158913034Y-118861533D01*
X158909573Y-118866458D01*
X158846045Y-118907716D01*
X158769023Y-118911755D01*
X158700300Y-118876742D01*
X158694284Y-118870663D01*
X158691531Y-118866657D01*
X158684819Y-118860676D01*
X158580683Y-118767895D01*
X158573976Y-118761919D01*
X158434831Y-118688245D01*
X158426119Y-118686057D01*
X158426117Y-118686056D01*
X158290840Y-118652077D01*
X158290838Y-118652077D01*
X158282128Y-118649889D01*
X158124684Y-118649065D01*
X158115955Y-118651161D01*
X158115952Y-118651161D01*
X158044207Y-118668386D01*
X157971588Y-118685820D01*
X157831679Y-118758032D01*
X157713034Y-118861533D01*
X157622501Y-118990348D01*
X157565309Y-119137039D01*
X157544758Y-119293138D01*
X157545744Y-119302069D01*
X157545744Y-119302070D01*
X157560560Y-119436270D01*
X157562035Y-119449633D01*
X157616143Y-119597490D01*
X157621154Y-119604947D01*
X157661667Y-119665236D01*
X157703958Y-119728172D01*
X157820410Y-119834135D01*
X157958776Y-119909262D01*
X158013940Y-119923734D01*
X158102384Y-119946937D01*
X158102388Y-119946937D01*
X158111069Y-119949215D01*
X158268495Y-119951688D01*
X158319031Y-119940114D01*
X158413210Y-119918544D01*
X158413211Y-119918544D01*
X158421968Y-119916538D01*
X158429995Y-119912501D01*
X158554599Y-119849832D01*
X158554601Y-119849831D01*
X158562625Y-119845795D01*
X158682348Y-119743542D01*
X158687592Y-119736245D01*
X158690326Y-119733271D01*
X158755446Y-119691942D01*
X158832506Y-119688711D01*
X158900859Y-119724442D01*
X158902792Y-119726436D01*
X158903958Y-119728172D01*
X159020410Y-119834135D01*
X159158776Y-119909262D01*
X159167460Y-119911540D01*
X159167462Y-119911541D01*
X159183717Y-119915805D01*
X159250712Y-119954019D01*
X159289625Y-120020612D01*
X159290029Y-120097739D01*
X159251815Y-120164734D01*
X159206510Y-120196046D01*
X158605494Y-120463636D01*
X158599787Y-120466035D01*
X157741005Y-120806052D01*
X157735174Y-120808220D01*
X157299074Y-120960086D01*
X156862983Y-121111948D01*
X156857048Y-121113877D01*
X155972867Y-121380827D01*
X155966856Y-121382505D01*
X155072295Y-121612189D01*
X155066219Y-121613614D01*
X154525622Y-121728522D01*
X154162794Y-121805643D01*
X154156698Y-121806806D01*
X153246051Y-121960830D01*
X153239891Y-121961740D01*
X152323563Y-122077500D01*
X152317365Y-122078151D01*
X151397012Y-122155434D01*
X151390821Y-122155824D01*
X150468037Y-122194500D01*
X150461798Y-122194631D01*
X149538202Y-122194631D01*
X149531963Y-122194500D01*
X148609179Y-122155824D01*
X148602988Y-122155434D01*
X147682635Y-122078151D01*
X147676437Y-122077500D01*
X146760109Y-121961740D01*
X146753949Y-121960830D01*
X145843302Y-121806806D01*
X145837206Y-121805643D01*
X145474378Y-121728522D01*
X144933781Y-121613614D01*
X144927705Y-121612189D01*
X144033144Y-121382505D01*
X144027133Y-121380827D01*
X143142952Y-121113877D01*
X143137017Y-121111948D01*
X142700926Y-120960086D01*
X142264826Y-120808220D01*
X142258995Y-120806052D01*
X141400213Y-120466035D01*
X141394506Y-120463636D01*
X140550771Y-120087980D01*
X140545123Y-120085323D01*
X140195042Y-119911541D01*
X139717854Y-119674663D01*
X139712326Y-119671773D01*
X139653016Y-119639167D01*
X138902968Y-119226825D01*
X138897573Y-119223710D01*
X138542535Y-119008691D01*
X155563769Y-119008691D01*
X155564755Y-119017622D01*
X155564755Y-119017623D01*
X155579658Y-119152612D01*
X155581046Y-119165186D01*
X155635154Y-119313043D01*
X155722969Y-119443725D01*
X155729611Y-119449768D01*
X155729612Y-119449770D01*
X155751403Y-119469598D01*
X155839421Y-119549688D01*
X155977787Y-119624815D01*
X156032494Y-119639167D01*
X156121395Y-119662490D01*
X156121399Y-119662490D01*
X156130080Y-119664768D01*
X156287506Y-119667241D01*
X156410084Y-119639167D01*
X156432221Y-119634097D01*
X156432222Y-119634097D01*
X156440979Y-119632091D01*
X156449006Y-119628054D01*
X156573610Y-119565385D01*
X156573612Y-119565384D01*
X156581636Y-119561348D01*
X156701359Y-119459095D01*
X156708158Y-119449633D01*
X156787992Y-119338533D01*
X156787993Y-119338530D01*
X156793235Y-119331236D01*
X156798336Y-119318548D01*
X156848612Y-119193483D01*
X156848613Y-119193480D01*
X156851961Y-119185151D01*
X156874145Y-119029276D01*
X156874289Y-119015553D01*
X156855374Y-118859247D01*
X156811697Y-118743658D01*
X156802896Y-118720366D01*
X156802894Y-118720362D01*
X156799721Y-118711965D01*
X156710542Y-118582210D01*
X156592987Y-118477472D01*
X156453842Y-118403798D01*
X156445130Y-118401610D01*
X156445128Y-118401609D01*
X156309851Y-118367630D01*
X156309849Y-118367630D01*
X156301139Y-118365442D01*
X156143695Y-118364618D01*
X156134966Y-118366714D01*
X156134963Y-118366714D01*
X156063218Y-118383939D01*
X155990599Y-118401373D01*
X155850690Y-118473585D01*
X155732045Y-118577086D01*
X155641512Y-118705901D01*
X155584320Y-118852592D01*
X155583147Y-118861498D01*
X155583147Y-118861500D01*
X155577063Y-118907716D01*
X155563769Y-119008691D01*
X138542535Y-119008691D01*
X138107565Y-118745264D01*
X138102324Y-118741938D01*
X137333039Y-118230826D01*
X137327934Y-118227278D01*
X136580715Y-117684391D01*
X136575744Y-117680618D01*
X136551930Y-117661743D01*
X136088119Y-117294131D01*
X147219646Y-117294131D01*
X147237306Y-117429186D01*
X147292162Y-117553856D01*
X147298993Y-117561983D01*
X147298994Y-117561984D01*
X147322613Y-117590082D01*
X147379804Y-117658119D01*
X147493187Y-117733593D01*
X147623195Y-117774210D01*
X147633808Y-117774405D01*
X147633811Y-117774405D01*
X147748765Y-117776512D01*
X147748769Y-117776512D01*
X147759377Y-117776706D01*
X147890786Y-117740880D01*
X147899832Y-117735326D01*
X147997815Y-117675165D01*
X147997818Y-117675163D01*
X148006858Y-117669612D01*
X148098261Y-117568631D01*
X148157649Y-117446054D01*
X148180247Y-117311737D01*
X148180390Y-117300000D01*
X148179550Y-117294131D01*
X148162586Y-117175679D01*
X148162586Y-117175678D01*
X148161081Y-117165171D01*
X148120859Y-117076706D01*
X148109100Y-117050843D01*
X148109098Y-117050840D01*
X148104706Y-117041180D01*
X148047823Y-116975165D01*
X148022725Y-116946037D01*
X148022724Y-116946036D01*
X148015796Y-116937996D01*
X147901501Y-116863913D01*
X147823758Y-116840663D01*
X147781179Y-116827929D01*
X147781177Y-116827929D01*
X147771006Y-116824887D01*
X147760388Y-116824822D01*
X147760387Y-116824822D01*
X147704194Y-116824479D01*
X147634804Y-116824055D01*
X147624599Y-116826972D01*
X147624596Y-116826972D01*
X147514051Y-116858566D01*
X147514049Y-116858567D01*
X147503842Y-116861484D01*
X147494864Y-116867149D01*
X147494861Y-116867150D01*
X147425130Y-116911148D01*
X147388650Y-116934165D01*
X147298487Y-117036255D01*
X147240601Y-117159548D01*
X147219646Y-117294131D01*
X136088119Y-117294131D01*
X135851947Y-117106943D01*
X135847148Y-117102974D01*
X135816717Y-117076706D01*
X135558542Y-116853856D01*
X135257648Y-116594131D01*
X153019646Y-116594131D01*
X153037306Y-116729186D01*
X153092162Y-116853856D01*
X153098993Y-116861983D01*
X153098994Y-116861984D01*
X153122613Y-116890082D01*
X153179804Y-116958119D01*
X153293187Y-117033593D01*
X153423195Y-117074210D01*
X153433808Y-117074405D01*
X153433811Y-117074405D01*
X153548765Y-117076512D01*
X153548769Y-117076512D01*
X153559377Y-117076706D01*
X153690786Y-117040880D01*
X153699832Y-117035326D01*
X153797815Y-116975165D01*
X153797818Y-116975163D01*
X153806858Y-116969612D01*
X153898261Y-116868631D01*
X153957649Y-116746054D01*
X153980247Y-116611737D01*
X153980390Y-116600000D01*
X153979550Y-116594131D01*
X153962586Y-116475679D01*
X153962586Y-116475678D01*
X153961081Y-116465171D01*
X153932893Y-116403175D01*
X153909100Y-116350843D01*
X153909098Y-116350840D01*
X153904706Y-116341180D01*
X153815796Y-116237996D01*
X153701501Y-116163913D01*
X153623758Y-116140663D01*
X153581179Y-116127929D01*
X153581177Y-116127929D01*
X153571006Y-116124887D01*
X153560388Y-116124822D01*
X153560387Y-116124822D01*
X153504194Y-116124479D01*
X153434804Y-116124055D01*
X153424599Y-116126972D01*
X153424596Y-116126972D01*
X153314051Y-116158566D01*
X153314049Y-116158567D01*
X153303842Y-116161484D01*
X153294864Y-116167149D01*
X153294861Y-116167150D01*
X153225130Y-116211148D01*
X153188650Y-116234165D01*
X153098487Y-116336255D01*
X153040601Y-116459548D01*
X153019646Y-116594131D01*
X135257648Y-116594131D01*
X135147999Y-116499484D01*
X135143361Y-116495308D01*
X134470094Y-115863068D01*
X134465636Y-115858702D01*
X133819447Y-115198835D01*
X133815192Y-115194306D01*
X133197174Y-114507928D01*
X133193105Y-114503212D01*
X132604381Y-113791567D01*
X132600504Y-113786676D01*
X132248539Y-113322980D01*
X132042106Y-113051014D01*
X132038442Y-113045971D01*
X132007930Y-113002070D01*
X131793907Y-112694131D01*
X145219646Y-112694131D01*
X145237306Y-112829186D01*
X145292162Y-112953856D01*
X145298993Y-112961983D01*
X145298994Y-112961984D01*
X145317693Y-112984229D01*
X145379804Y-113058119D01*
X145493187Y-113133593D01*
X145623195Y-113174210D01*
X145633808Y-113174405D01*
X145633811Y-113174405D01*
X145748765Y-113176512D01*
X145748769Y-113176512D01*
X145759377Y-113176706D01*
X145890786Y-113140880D01*
X145899832Y-113135326D01*
X145997815Y-113075165D01*
X145997818Y-113075163D01*
X146006858Y-113069612D01*
X146076078Y-112993138D01*
X161444758Y-112993138D01*
X161445744Y-113002069D01*
X161445744Y-113002070D01*
X161460614Y-113136758D01*
X161462035Y-113149633D01*
X161516143Y-113297490D01*
X161603958Y-113428172D01*
X161610600Y-113434215D01*
X161610601Y-113434217D01*
X161669939Y-113488210D01*
X161720410Y-113534135D01*
X161858776Y-113609262D01*
X161913940Y-113623734D01*
X162002384Y-113646937D01*
X162002388Y-113646937D01*
X162011069Y-113649215D01*
X162168495Y-113651688D01*
X162219031Y-113640114D01*
X162313210Y-113618544D01*
X162313211Y-113618544D01*
X162321968Y-113616538D01*
X162329995Y-113612501D01*
X162454599Y-113549832D01*
X162454601Y-113549831D01*
X162462625Y-113545795D01*
X162582348Y-113443542D01*
X162589049Y-113434217D01*
X162668981Y-113322980D01*
X162668982Y-113322977D01*
X162674224Y-113315683D01*
X162732950Y-113169598D01*
X162755134Y-113013723D01*
X162755278Y-113000000D01*
X162736363Y-112843694D01*
X162686501Y-112711737D01*
X162683885Y-112704813D01*
X162683883Y-112704809D01*
X162680710Y-112696412D01*
X162591531Y-112566657D01*
X162473976Y-112461919D01*
X162434807Y-112441180D01*
X162342771Y-112392449D01*
X162334831Y-112388245D01*
X162326119Y-112386057D01*
X162326117Y-112386056D01*
X162190840Y-112352077D01*
X162190838Y-112352077D01*
X162182128Y-112349889D01*
X162024684Y-112349065D01*
X162015955Y-112351161D01*
X162015952Y-112351161D01*
X161944207Y-112368386D01*
X161871588Y-112385820D01*
X161764642Y-112441019D01*
X161745608Y-112450843D01*
X161731679Y-112458032D01*
X161613034Y-112561533D01*
X161522501Y-112690348D01*
X161465309Y-112837039D01*
X161444758Y-112993138D01*
X146076078Y-112993138D01*
X146098261Y-112968631D01*
X146157649Y-112846054D01*
X146180247Y-112711737D01*
X146180390Y-112700000D01*
X146179550Y-112694131D01*
X146162586Y-112575679D01*
X146162586Y-112575678D01*
X146161081Y-112565171D01*
X146115053Y-112463937D01*
X146109100Y-112450843D01*
X146109098Y-112450840D01*
X146104706Y-112441180D01*
X146026044Y-112349889D01*
X146022725Y-112346037D01*
X146022724Y-112346036D01*
X146015796Y-112337996D01*
X145901501Y-112263913D01*
X145823758Y-112240663D01*
X145781179Y-112227929D01*
X145781177Y-112227929D01*
X145771006Y-112224887D01*
X145760388Y-112224822D01*
X145760387Y-112224822D01*
X145704194Y-112224479D01*
X145634804Y-112224055D01*
X145624599Y-112226972D01*
X145624596Y-112226972D01*
X145514051Y-112258566D01*
X145514049Y-112258567D01*
X145503842Y-112261484D01*
X145494864Y-112267149D01*
X145494861Y-112267150D01*
X145425130Y-112311148D01*
X145388650Y-112334165D01*
X145298487Y-112436255D01*
X145240601Y-112559548D01*
X145238968Y-112570036D01*
X145231131Y-112620372D01*
X145219646Y-112694131D01*
X131793907Y-112694131D01*
X131511347Y-112287580D01*
X131507897Y-112282388D01*
X131012999Y-111502554D01*
X131009798Y-111497268D01*
X131007414Y-111493138D01*
X151644758Y-111493138D01*
X151645744Y-111502069D01*
X151645744Y-111502070D01*
X151647031Y-111513723D01*
X151662035Y-111649633D01*
X151716143Y-111797490D01*
X151803958Y-111928172D01*
X151810600Y-111934215D01*
X151810601Y-111934217D01*
X151869939Y-111988210D01*
X151920410Y-112034135D01*
X152058776Y-112109262D01*
X152113940Y-112123734D01*
X152202384Y-112146937D01*
X152202388Y-112146937D01*
X152211069Y-112149215D01*
X152368495Y-112151688D01*
X152419031Y-112140114D01*
X152513210Y-112118544D01*
X152513211Y-112118544D01*
X152521968Y-112116538D01*
X152529995Y-112112501D01*
X152654599Y-112049832D01*
X152654601Y-112049831D01*
X152662625Y-112045795D01*
X152782348Y-111943542D01*
X152789049Y-111934217D01*
X152868981Y-111822980D01*
X152868982Y-111822977D01*
X152874224Y-111815683D01*
X152932950Y-111669598D01*
X152955134Y-111513723D01*
X152955278Y-111500000D01*
X152936363Y-111343694D01*
X152912018Y-111279266D01*
X152883885Y-111204813D01*
X152883883Y-111204809D01*
X152880710Y-111196412D01*
X152791531Y-111066657D01*
X152673976Y-110961919D01*
X152534831Y-110888245D01*
X152526119Y-110886057D01*
X152526117Y-110886056D01*
X152390840Y-110852077D01*
X152390838Y-110852077D01*
X152382128Y-110849889D01*
X152224684Y-110849065D01*
X152215955Y-110851161D01*
X152215952Y-110851161D01*
X152161929Y-110864131D01*
X152071588Y-110885820D01*
X151931679Y-110958032D01*
X151813034Y-111061533D01*
X151722501Y-111190348D01*
X151665309Y-111337039D01*
X151644758Y-111493138D01*
X131007414Y-111493138D01*
X130547980Y-110697375D01*
X130544978Y-110691914D01*
X130508244Y-110621647D01*
X130343979Y-110307437D01*
X155569258Y-110307437D01*
X155570244Y-110316368D01*
X155570244Y-110316369D01*
X155571531Y-110328022D01*
X155586535Y-110463932D01*
X155640643Y-110611789D01*
X155728458Y-110742471D01*
X155735100Y-110748514D01*
X155735101Y-110748516D01*
X155794439Y-110802509D01*
X155844910Y-110848434D01*
X155983276Y-110923561D01*
X156038440Y-110938033D01*
X156126884Y-110961236D01*
X156126888Y-110961236D01*
X156135569Y-110963514D01*
X156292995Y-110965987D01*
X156345722Y-110953911D01*
X156437710Y-110932843D01*
X156437711Y-110932843D01*
X156446468Y-110930837D01*
X156454495Y-110926800D01*
X156579099Y-110864131D01*
X156579101Y-110864130D01*
X156587125Y-110860094D01*
X156706848Y-110757841D01*
X156713549Y-110748516D01*
X156793481Y-110637279D01*
X156793482Y-110637276D01*
X156798724Y-110629982D01*
X156857450Y-110483897D01*
X156879634Y-110328022D01*
X156879778Y-110314299D01*
X156860863Y-110157993D01*
X156836518Y-110093565D01*
X156808385Y-110019112D01*
X156808383Y-110019108D01*
X156805210Y-110010711D01*
X156716031Y-109880956D01*
X156598476Y-109776218D01*
X156459331Y-109702544D01*
X156450619Y-109700356D01*
X156450617Y-109700355D01*
X156315340Y-109666376D01*
X156315338Y-109666376D01*
X156306628Y-109664188D01*
X156149184Y-109663364D01*
X156140455Y-109665460D01*
X156140452Y-109665460D01*
X156068707Y-109682685D01*
X155996088Y-109700119D01*
X155856179Y-109772331D01*
X155737534Y-109875832D01*
X155647001Y-110004647D01*
X155589809Y-110151338D01*
X155569258Y-110307437D01*
X130343979Y-110307437D01*
X130117093Y-109873444D01*
X130114319Y-109867857D01*
X129721084Y-109032189D01*
X129718545Y-109026488D01*
X129360632Y-108175047D01*
X129358335Y-108169244D01*
X129036404Y-107303597D01*
X129034352Y-107297704D01*
X129032868Y-107293138D01*
X160744758Y-107293138D01*
X160745744Y-107302069D01*
X160745744Y-107302070D01*
X160747031Y-107313723D01*
X160762035Y-107449633D01*
X160816143Y-107597490D01*
X160903958Y-107728172D01*
X160910600Y-107734215D01*
X160910601Y-107734217D01*
X160941226Y-107762083D01*
X161020410Y-107834135D01*
X161028300Y-107838419D01*
X161150884Y-107904977D01*
X161158776Y-107909262D01*
X161213940Y-107923734D01*
X161302384Y-107946937D01*
X161302388Y-107946937D01*
X161311069Y-107949215D01*
X161468495Y-107951688D01*
X161537311Y-107935927D01*
X161613210Y-107918544D01*
X161613211Y-107918544D01*
X161621968Y-107916538D01*
X161629995Y-107912501D01*
X161754599Y-107849832D01*
X161754601Y-107849831D01*
X161762625Y-107845795D01*
X161882348Y-107743542D01*
X161889049Y-107734217D01*
X161968981Y-107622980D01*
X161968982Y-107622977D01*
X161974224Y-107615683D01*
X162032950Y-107469598D01*
X162055134Y-107313723D01*
X162055278Y-107300000D01*
X162036363Y-107143694D01*
X162004063Y-107058214D01*
X161983885Y-107004813D01*
X161983883Y-107004809D01*
X161980710Y-106996412D01*
X161971491Y-106982999D01*
X161896624Y-106874067D01*
X161896623Y-106874066D01*
X161891531Y-106866657D01*
X161773976Y-106761919D01*
X161634831Y-106688245D01*
X161626119Y-106686057D01*
X161626117Y-106686056D01*
X161490840Y-106652077D01*
X161490838Y-106652077D01*
X161482128Y-106649889D01*
X161324684Y-106649065D01*
X161315955Y-106651161D01*
X161315952Y-106651161D01*
X161244207Y-106668386D01*
X161171588Y-106685820D01*
X161031679Y-106758032D01*
X160913034Y-106861533D01*
X160822501Y-106990348D01*
X160765309Y-107137039D01*
X160744758Y-107293138D01*
X129032868Y-107293138D01*
X128808151Y-106601529D01*
X167548074Y-106601529D01*
X167548998Y-106607567D01*
X167572618Y-106761919D01*
X167584153Y-106837302D01*
X167658255Y-107064018D01*
X167768390Y-107275586D01*
X167772057Y-107280471D01*
X167772059Y-107280473D01*
X167787227Y-107300675D01*
X167911602Y-107466325D01*
X168084042Y-107631113D01*
X168281082Y-107765525D01*
X168497428Y-107865949D01*
X168503317Y-107867582D01*
X168503322Y-107867584D01*
X168721386Y-107928059D01*
X168721390Y-107928060D01*
X168727272Y-107929691D01*
X168921986Y-107950500D01*
X169060463Y-107950500D01*
X169122989Y-107945359D01*
X169231624Y-107936428D01*
X169231626Y-107936428D01*
X169237716Y-107935927D01*
X169243642Y-107934438D01*
X169243645Y-107934438D01*
X169463120Y-107879310D01*
X169469048Y-107877821D01*
X169474645Y-107875387D01*
X169474652Y-107875385D01*
X169619832Y-107812258D01*
X169687784Y-107782712D01*
X169888049Y-107653155D01*
X170064464Y-107492629D01*
X170212293Y-107305445D01*
X170216567Y-107297704D01*
X170301584Y-107143694D01*
X170327564Y-107096631D01*
X170407183Y-106871794D01*
X170409164Y-106860676D01*
X170426755Y-106761919D01*
X170449012Y-106636972D01*
X170449568Y-106591515D01*
X170451851Y-106404581D01*
X170451926Y-106398471D01*
X170415847Y-106162698D01*
X170341745Y-105935982D01*
X170231610Y-105724414D01*
X170213213Y-105699911D01*
X170092068Y-105538563D01*
X170088398Y-105533675D01*
X170048093Y-105495158D01*
X169920376Y-105373109D01*
X169915958Y-105368887D01*
X169718918Y-105234475D01*
X169502572Y-105134051D01*
X169496683Y-105132418D01*
X169496678Y-105132416D01*
X169278614Y-105071941D01*
X169278610Y-105071940D01*
X169272728Y-105070309D01*
X169078014Y-105049500D01*
X168939537Y-105049500D01*
X168877011Y-105054641D01*
X168768376Y-105063572D01*
X168768374Y-105063572D01*
X168762284Y-105064073D01*
X168756358Y-105065562D01*
X168756355Y-105065562D01*
X168536880Y-105120690D01*
X168530952Y-105122179D01*
X168525355Y-105124613D01*
X168525348Y-105124615D01*
X168391075Y-105182999D01*
X168312216Y-105217288D01*
X168111951Y-105346845D01*
X167935536Y-105507371D01*
X167787707Y-105694555D01*
X167672436Y-105903369D01*
X167592817Y-106128206D01*
X167591746Y-106134221D01*
X167591745Y-106134223D01*
X167576378Y-106220494D01*
X167550988Y-106363028D01*
X167548074Y-106601529D01*
X128808151Y-106601529D01*
X128748951Y-106419330D01*
X128747147Y-106413355D01*
X128498777Y-105523795D01*
X128497225Y-105517750D01*
X128491452Y-105493138D01*
X139244758Y-105493138D01*
X139245744Y-105502069D01*
X139245744Y-105502070D01*
X139248143Y-105523795D01*
X139262035Y-105649633D01*
X139316143Y-105797490D01*
X139403958Y-105928172D01*
X139410600Y-105934215D01*
X139410601Y-105934217D01*
X139469939Y-105988210D01*
X139520410Y-106034135D01*
X139658776Y-106109262D01*
X139709031Y-106122446D01*
X139802384Y-106146937D01*
X139802388Y-106146937D01*
X139811069Y-106149215D01*
X139968495Y-106151688D01*
X140071023Y-106128206D01*
X140113210Y-106118544D01*
X140113211Y-106118544D01*
X140121968Y-106116538D01*
X140129995Y-106112501D01*
X140254599Y-106049832D01*
X140254601Y-106049831D01*
X140262625Y-106045795D01*
X140382348Y-105943542D01*
X140391673Y-105930565D01*
X140468981Y-105822980D01*
X140468982Y-105822977D01*
X140474224Y-105815683D01*
X140484930Y-105789052D01*
X140529601Y-105677930D01*
X140529602Y-105677927D01*
X140532950Y-105669598D01*
X140555134Y-105513723D01*
X140555278Y-105500000D01*
X140554448Y-105493138D01*
X164944758Y-105493138D01*
X164945744Y-105502069D01*
X164945744Y-105502070D01*
X164948143Y-105523795D01*
X164962035Y-105649633D01*
X165016143Y-105797490D01*
X165103958Y-105928172D01*
X165110600Y-105934215D01*
X165110601Y-105934217D01*
X165169939Y-105988210D01*
X165220410Y-106034135D01*
X165358776Y-106109262D01*
X165409031Y-106122446D01*
X165502384Y-106146937D01*
X165502388Y-106146937D01*
X165511069Y-106149215D01*
X165668495Y-106151688D01*
X165771023Y-106128206D01*
X165813210Y-106118544D01*
X165813211Y-106118544D01*
X165821968Y-106116538D01*
X165829995Y-106112501D01*
X165954599Y-106049832D01*
X165954601Y-106049831D01*
X165962625Y-106045795D01*
X166082348Y-105943542D01*
X166091673Y-105930565D01*
X166168981Y-105822980D01*
X166168982Y-105822977D01*
X166174224Y-105815683D01*
X166184930Y-105789052D01*
X166229601Y-105677930D01*
X166229602Y-105677927D01*
X166232950Y-105669598D01*
X166255134Y-105513723D01*
X166255278Y-105500000D01*
X166236363Y-105343694D01*
X166212018Y-105279266D01*
X166183885Y-105204813D01*
X166183883Y-105204809D01*
X166180710Y-105196412D01*
X166091531Y-105066657D01*
X165973976Y-104961919D01*
X165834831Y-104888245D01*
X165826119Y-104886057D01*
X165826117Y-104886056D01*
X165690840Y-104852077D01*
X165690838Y-104852077D01*
X165682128Y-104849889D01*
X165524684Y-104849065D01*
X165515955Y-104851161D01*
X165515952Y-104851161D01*
X165444207Y-104868386D01*
X165371588Y-104885820D01*
X165231679Y-104958032D01*
X165113034Y-105061533D01*
X165022501Y-105190348D01*
X165019238Y-105198716D01*
X165019238Y-105198717D01*
X165011998Y-105217288D01*
X164965309Y-105337039D01*
X164964136Y-105345945D01*
X164964136Y-105345947D01*
X164963259Y-105352612D01*
X164944758Y-105493138D01*
X140554448Y-105493138D01*
X140536363Y-105343694D01*
X140512018Y-105279266D01*
X140483885Y-105204813D01*
X140483883Y-105204809D01*
X140480710Y-105196412D01*
X140391531Y-105066657D01*
X140273976Y-104961919D01*
X140134831Y-104888245D01*
X140126119Y-104886057D01*
X140126117Y-104886056D01*
X139990840Y-104852077D01*
X139990838Y-104852077D01*
X139982128Y-104849889D01*
X139824684Y-104849065D01*
X139815955Y-104851161D01*
X139815952Y-104851161D01*
X139744207Y-104868386D01*
X139671588Y-104885820D01*
X139531679Y-104958032D01*
X139413034Y-105061533D01*
X139322501Y-105190348D01*
X139319238Y-105198716D01*
X139319238Y-105198717D01*
X139311998Y-105217288D01*
X139265309Y-105337039D01*
X139264136Y-105345945D01*
X139264136Y-105345947D01*
X139263259Y-105352612D01*
X139244758Y-105493138D01*
X128491452Y-105493138D01*
X128286328Y-104618587D01*
X128285030Y-104612483D01*
X128203927Y-104187329D01*
X128111963Y-103705232D01*
X128110925Y-103699098D01*
X127976006Y-102785420D01*
X127975224Y-102779229D01*
X127878683Y-101860705D01*
X127878161Y-101854486D01*
X127856025Y-101502652D01*
X127820167Y-100932703D01*
X127819907Y-100926490D01*
X127810315Y-100468544D01*
X127800565Y-100003103D01*
X127800565Y-99996880D01*
X127803786Y-99843138D01*
X164944758Y-99843138D01*
X164945744Y-99852069D01*
X164945744Y-99852070D01*
X164947031Y-99863723D01*
X164962035Y-99999633D01*
X165016143Y-100147490D01*
X165103958Y-100278172D01*
X165110600Y-100284215D01*
X165110601Y-100284217D01*
X165169939Y-100338210D01*
X165220410Y-100384135D01*
X165358776Y-100459262D01*
X165413940Y-100473734D01*
X165502384Y-100496937D01*
X165502388Y-100496937D01*
X165511069Y-100499215D01*
X165668495Y-100501688D01*
X165719031Y-100490114D01*
X165813210Y-100468544D01*
X165813211Y-100468544D01*
X165821968Y-100466538D01*
X165829995Y-100462501D01*
X165954599Y-100399832D01*
X165954601Y-100399831D01*
X165962625Y-100395795D01*
X166082348Y-100293542D01*
X166089049Y-100284217D01*
X166168981Y-100172980D01*
X166168982Y-100172977D01*
X166174224Y-100165683D01*
X166232950Y-100019598D01*
X166255134Y-99863723D01*
X166255278Y-99850000D01*
X166236363Y-99693694D01*
X166212018Y-99629266D01*
X166183885Y-99554813D01*
X166183883Y-99554809D01*
X166180710Y-99546412D01*
X166091531Y-99416657D01*
X165973976Y-99311919D01*
X165834831Y-99238245D01*
X165826119Y-99236057D01*
X165826117Y-99236056D01*
X165690840Y-99202077D01*
X165690838Y-99202077D01*
X165682128Y-99199889D01*
X165524684Y-99199065D01*
X165515955Y-99201161D01*
X165515952Y-99201161D01*
X165444207Y-99218386D01*
X165371588Y-99235820D01*
X165231679Y-99308032D01*
X165113034Y-99411533D01*
X165022501Y-99540348D01*
X164965309Y-99687039D01*
X164944758Y-99843138D01*
X127803786Y-99843138D01*
X127819908Y-99073488D01*
X127820168Y-99067274D01*
X127821570Y-99045005D01*
X127878161Y-98145514D01*
X127878683Y-98139295D01*
X127975224Y-97220771D01*
X127976006Y-97214580D01*
X128058127Y-96658451D01*
X128110929Y-96300881D01*
X128111966Y-96294748D01*
X128130660Y-96196755D01*
X128206345Y-95800000D01*
X129644671Y-95800000D01*
X129663966Y-96094380D01*
X129721519Y-96383722D01*
X129816348Y-96663077D01*
X129946828Y-96927664D01*
X130110727Y-97172957D01*
X130305242Y-97394758D01*
X130527043Y-97589273D01*
X130772335Y-97753172D01*
X130911568Y-97821834D01*
X131032544Y-97881493D01*
X131032550Y-97881496D01*
X131036923Y-97883652D01*
X131316278Y-97978481D01*
X131321059Y-97979432D01*
X131600838Y-98035083D01*
X131600841Y-98035083D01*
X131605620Y-98036034D01*
X131610481Y-98036353D01*
X131610484Y-98036353D01*
X131895133Y-98055010D01*
X131900000Y-98055329D01*
X131904867Y-98055010D01*
X132189516Y-98036353D01*
X132189519Y-98036353D01*
X132194380Y-98036034D01*
X132199159Y-98035083D01*
X132199162Y-98035083D01*
X132478941Y-97979432D01*
X132483722Y-97978481D01*
X132763077Y-97883652D01*
X132767450Y-97881496D01*
X132767456Y-97881493D01*
X132888432Y-97821834D01*
X133027665Y-97753172D01*
X133272957Y-97589273D01*
X133494758Y-97394758D01*
X133689273Y-97172957D01*
X133853172Y-96927664D01*
X133983652Y-96663077D01*
X134078481Y-96383722D01*
X134136034Y-96094380D01*
X134155329Y-95800000D01*
X134136034Y-95505620D01*
X134078481Y-95216278D01*
X133983652Y-94936923D01*
X133853172Y-94672336D01*
X133689273Y-94427043D01*
X133494758Y-94205242D01*
X133272957Y-94010727D01*
X133027665Y-93846828D01*
X132888432Y-93778166D01*
X132767456Y-93718507D01*
X132767450Y-93718504D01*
X132763077Y-93716348D01*
X132483722Y-93621519D01*
X132478941Y-93620568D01*
X132199162Y-93564917D01*
X132199159Y-93564917D01*
X132194380Y-93563966D01*
X132189519Y-93563647D01*
X132189516Y-93563647D01*
X131904867Y-93544990D01*
X131900000Y-93544671D01*
X131895133Y-93544990D01*
X131610484Y-93563647D01*
X131610481Y-93563647D01*
X131605620Y-93563966D01*
X131600841Y-93564917D01*
X131600838Y-93564917D01*
X131321059Y-93620568D01*
X131316278Y-93621519D01*
X131036923Y-93716348D01*
X131032550Y-93718504D01*
X131032544Y-93718507D01*
X130911456Y-93778221D01*
X130772336Y-93846828D01*
X130768289Y-93849532D01*
X130768284Y-93849535D01*
X130650284Y-93928380D01*
X130527043Y-94010727D01*
X130305242Y-94205242D01*
X130110727Y-94427043D01*
X129946828Y-94672336D01*
X129816348Y-94936923D01*
X129721519Y-95216278D01*
X129663966Y-95505620D01*
X129644671Y-95800000D01*
X128206345Y-95800000D01*
X128207273Y-95795133D01*
X128285030Y-95387517D01*
X128286328Y-95381413D01*
X128497225Y-94482250D01*
X128498777Y-94476205D01*
X128747147Y-93586645D01*
X128748951Y-93580670D01*
X129034352Y-92702296D01*
X129036404Y-92696403D01*
X129358335Y-91830756D01*
X129360632Y-91824953D01*
X129718545Y-90973512D01*
X129721084Y-90967811D01*
X130114319Y-90132143D01*
X130117094Y-90126553D01*
X130544982Y-89308078D01*
X130547984Y-89302617D01*
X130714983Y-89013366D01*
X131009798Y-88502732D01*
X131012999Y-88497446D01*
X131507902Y-87717605D01*
X131511351Y-87712414D01*
X131612100Y-87567456D01*
X132038446Y-86954023D01*
X132042110Y-86948980D01*
X132231096Y-86700000D01*
X159844671Y-86700000D01*
X159863966Y-86994380D01*
X159921519Y-87283722D01*
X160016348Y-87563077D01*
X160146828Y-87827664D01*
X160310727Y-88072957D01*
X160505242Y-88294758D01*
X160727043Y-88489273D01*
X160972335Y-88653172D01*
X161111568Y-88721834D01*
X161232544Y-88781493D01*
X161232550Y-88781496D01*
X161236923Y-88783652D01*
X161516278Y-88878481D01*
X161521059Y-88879432D01*
X161800838Y-88935083D01*
X161800841Y-88935083D01*
X161805620Y-88936034D01*
X161810481Y-88936353D01*
X161810484Y-88936353D01*
X162095133Y-88955010D01*
X162100000Y-88955329D01*
X162104867Y-88955010D01*
X162389516Y-88936353D01*
X162389519Y-88936353D01*
X162394380Y-88936034D01*
X162399159Y-88935083D01*
X162399162Y-88935083D01*
X162678941Y-88879432D01*
X162683722Y-88878481D01*
X162963077Y-88783652D01*
X162967450Y-88781496D01*
X162967456Y-88781493D01*
X163088432Y-88721834D01*
X163227665Y-88653172D01*
X163472957Y-88489273D01*
X163694758Y-88294758D01*
X163889273Y-88072957D01*
X164053172Y-87827664D01*
X164183652Y-87563077D01*
X164278481Y-87283722D01*
X164336034Y-86994380D01*
X164355329Y-86700000D01*
X164336034Y-86405620D01*
X164278481Y-86116278D01*
X164183652Y-85836923D01*
X164053172Y-85572336D01*
X163999536Y-85492063D01*
X163891982Y-85331098D01*
X163889273Y-85327043D01*
X163694758Y-85105242D01*
X163472957Y-84910727D01*
X163227665Y-84746828D01*
X163088432Y-84678166D01*
X162967456Y-84618507D01*
X162967450Y-84618504D01*
X162963077Y-84616348D01*
X162683722Y-84521519D01*
X162678941Y-84520568D01*
X162399162Y-84464917D01*
X162399159Y-84464917D01*
X162394380Y-84463966D01*
X162389519Y-84463647D01*
X162389516Y-84463647D01*
X162104867Y-84444990D01*
X162100000Y-84444671D01*
X162095133Y-84444990D01*
X161810484Y-84463647D01*
X161810481Y-84463647D01*
X161805620Y-84463966D01*
X161800841Y-84464917D01*
X161800838Y-84464917D01*
X161521059Y-84520568D01*
X161516278Y-84521519D01*
X161236923Y-84616348D01*
X161232550Y-84618504D01*
X161232544Y-84618507D01*
X161111456Y-84678221D01*
X160972336Y-84746828D01*
X160968289Y-84749532D01*
X160968284Y-84749535D01*
X160850284Y-84828380D01*
X160727043Y-84910727D01*
X160505242Y-85105242D01*
X160310727Y-85327043D01*
X160308018Y-85331098D01*
X160200465Y-85492063D01*
X160146828Y-85572336D01*
X160016348Y-85836923D01*
X159921519Y-86116278D01*
X159863966Y-86405620D01*
X159844671Y-86700000D01*
X132231096Y-86700000D01*
X132600504Y-86213324D01*
X132604381Y-86208433D01*
X133193105Y-85496788D01*
X133197182Y-85492063D01*
X133545478Y-85105242D01*
X133815192Y-84805694D01*
X133819447Y-84801165D01*
X134465636Y-84141298D01*
X134470094Y-84136932D01*
X135143361Y-83504692D01*
X135147999Y-83500516D01*
X135847148Y-82897026D01*
X135851957Y-82893048D01*
X136575744Y-82319382D01*
X136580715Y-82315609D01*
X137327934Y-81772722D01*
X137333039Y-81769174D01*
X138102324Y-81258062D01*
X138107565Y-81254736D01*
X138897582Y-80776285D01*
X138902978Y-80773169D01*
X138908445Y-80770164D01*
X139712327Y-80328226D01*
X139717856Y-80325336D01*
X139869910Y-80249856D01*
X140168712Y-80101529D01*
X148548074Y-80101529D01*
X148584153Y-80337302D01*
X148658255Y-80564018D01*
X148768390Y-80775586D01*
X148772057Y-80780471D01*
X148772059Y-80780473D01*
X148790809Y-80805445D01*
X148911602Y-80966325D01*
X149084042Y-81131113D01*
X149281082Y-81265525D01*
X149497428Y-81365949D01*
X149503317Y-81367582D01*
X149503322Y-81367584D01*
X149721386Y-81428059D01*
X149721390Y-81428060D01*
X149727272Y-81429691D01*
X149921986Y-81450500D01*
X150060463Y-81450500D01*
X150122989Y-81445359D01*
X150231624Y-81436428D01*
X150231626Y-81436428D01*
X150237716Y-81435927D01*
X150243642Y-81434438D01*
X150243645Y-81434438D01*
X150463120Y-81379310D01*
X150469048Y-81377821D01*
X150474645Y-81375387D01*
X150474652Y-81375385D01*
X150619832Y-81312258D01*
X150687784Y-81282712D01*
X150888049Y-81153155D01*
X151064464Y-80992629D01*
X151212293Y-80805445D01*
X151228388Y-80776290D01*
X151324607Y-80601987D01*
X151327564Y-80596631D01*
X151407183Y-80371794D01*
X151414403Y-80331265D01*
X151447939Y-80142994D01*
X151449012Y-80136972D01*
X151451926Y-79898471D01*
X151415847Y-79662698D01*
X151341745Y-79435982D01*
X151231610Y-79224414D01*
X151213213Y-79199911D01*
X151092068Y-79038563D01*
X151088398Y-79033675D01*
X150915958Y-78868887D01*
X150718918Y-78734475D01*
X150502572Y-78634051D01*
X150496683Y-78632418D01*
X150496678Y-78632416D01*
X150278614Y-78571941D01*
X150278610Y-78571940D01*
X150272728Y-78570309D01*
X150078014Y-78549500D01*
X149939537Y-78549500D01*
X149877011Y-78554641D01*
X149768376Y-78563572D01*
X149768374Y-78563572D01*
X149762284Y-78564073D01*
X149756358Y-78565562D01*
X149756355Y-78565562D01*
X149536880Y-78620690D01*
X149530952Y-78622179D01*
X149525355Y-78624613D01*
X149525348Y-78624615D01*
X149380168Y-78687742D01*
X149312216Y-78717288D01*
X149111951Y-78846845D01*
X148935536Y-79007371D01*
X148787707Y-79194555D01*
X148672436Y-79403369D01*
X148592817Y-79628206D01*
X148591746Y-79634221D01*
X148591745Y-79634223D01*
X148576378Y-79720494D01*
X148550988Y-79863028D01*
X148548074Y-80101529D01*
X140168712Y-80101529D01*
X140545123Y-79914677D01*
X140550770Y-79912020D01*
X140825543Y-79789683D01*
X141394506Y-79536364D01*
X141400213Y-79533965D01*
X142258995Y-79193948D01*
X142264826Y-79191780D01*
X142794378Y-79007371D01*
X143137017Y-78888052D01*
X143142952Y-78886123D01*
X144017177Y-78622179D01*
X144027134Y-78619173D01*
X144033144Y-78617495D01*
X144927705Y-78387811D01*
X144933781Y-78386386D01*
X145474378Y-78271478D01*
X145837206Y-78194357D01*
X145843302Y-78193194D01*
X146753949Y-78039170D01*
X146760109Y-78038260D01*
X147676437Y-77922500D01*
X147682635Y-77921849D01*
X148602988Y-77844566D01*
X148609179Y-77844176D01*
X149531964Y-77805500D01*
X149538202Y-77805369D01*
X150461798Y-77805369D01*
X150468036Y-77805500D01*
G37*
%TD.AperFunction*%
%TD*%
M02*
