%TF.GenerationSoftware,KiCad,Pcbnew,(6.0.9)*%
%TF.CreationDate,2023-02-02T11:01:25+01:00*%
%TF.ProjectId,Powerboard,506f7765-7262-46f6-9172-642e6b696361,rev?*%
%TF.SameCoordinates,Original*%
%TF.FileFunction,Paste,Top*%
%TF.FilePolarity,Positive*%
%FSLAX46Y46*%
G04 Gerber Fmt 4.6, Leading zero omitted, Abs format (unit mm)*
G04 Created by KiCad (PCBNEW (6.0.9)) date 2023-02-02 11:01:25*
%MOMM*%
%LPD*%
G01*
G04 APERTURE LIST*
G04 Aperture macros list*
%AMRoundRect*
0 Rectangle with rounded corners*
0 $1 Rounding radius*
0 $2 $3 $4 $5 $6 $7 $8 $9 X,Y pos of 4 corners*
0 Add a 4 corners polygon primitive as box body*
4,1,4,$2,$3,$4,$5,$6,$7,$8,$9,$2,$3,0*
0 Add four circle primitives for the rounded corners*
1,1,$1+$1,$2,$3*
1,1,$1+$1,$4,$5*
1,1,$1+$1,$6,$7*
1,1,$1+$1,$8,$9*
0 Add four rect primitives between the rounded corners*
20,1,$1+$1,$2,$3,$4,$5,0*
20,1,$1+$1,$4,$5,$6,$7,0*
20,1,$1+$1,$6,$7,$8,$9,0*
20,1,$1+$1,$8,$9,$2,$3,0*%
G04 Aperture macros list end*
%ADD10R,0.650000X0.400000*%
%ADD11RoundRect,0.250000X-0.262500X-0.450000X0.262500X-0.450000X0.262500X0.450000X-0.262500X0.450000X0*%
%ADD12RoundRect,0.150000X-0.150000X-0.625000X0.150000X-0.625000X0.150000X0.625000X-0.150000X0.625000X0*%
%ADD13RoundRect,0.250000X-0.350000X-0.650000X0.350000X-0.650000X0.350000X0.650000X-0.350000X0.650000X0*%
%ADD14RoundRect,0.250000X-0.325000X-0.650000X0.325000X-0.650000X0.325000X0.650000X-0.325000X0.650000X0*%
%ADD15R,3.250000X5.000000*%
%ADD16RoundRect,0.250000X0.650000X-0.325000X0.650000X0.325000X-0.650000X0.325000X-0.650000X-0.325000X0*%
%ADD17RoundRect,0.225000X0.225000X0.250000X-0.225000X0.250000X-0.225000X-0.250000X0.225000X-0.250000X0*%
%ADD18RoundRect,0.250000X-0.625000X0.312500X-0.625000X-0.312500X0.625000X-0.312500X0.625000X0.312500X0*%
%ADD19RoundRect,0.200000X0.275000X-0.200000X0.275000X0.200000X-0.275000X0.200000X-0.275000X-0.200000X0*%
%ADD20RoundRect,0.250000X-1.250000X-0.550000X1.250000X-0.550000X1.250000X0.550000X-1.250000X0.550000X0*%
%ADD21RoundRect,0.140000X0.170000X-0.140000X0.170000X0.140000X-0.170000X0.140000X-0.170000X-0.140000X0*%
%ADD22RoundRect,0.232500X0.232500X-0.757500X0.232500X0.757500X-0.232500X0.757500X-0.232500X-0.757500X0*%
%ADD23RoundRect,0.100000X0.100000X-0.687500X0.100000X0.687500X-0.100000X0.687500X-0.100000X-0.687500X0*%
%ADD24RoundRect,0.135000X-0.135000X-0.185000X0.135000X-0.185000X0.135000X0.185000X-0.135000X0.185000X0*%
%ADD25RoundRect,0.250000X0.312500X0.625000X-0.312500X0.625000X-0.312500X-0.625000X0.312500X-0.625000X0*%
%ADD26RoundRect,0.225000X-0.250000X0.225000X-0.250000X-0.225000X0.250000X-0.225000X0.250000X0.225000X0*%
%ADD27RoundRect,0.135000X0.135000X0.185000X-0.135000X0.185000X-0.135000X-0.185000X0.135000X-0.185000X0*%
%ADD28RoundRect,0.140000X-0.140000X-0.170000X0.140000X-0.170000X0.140000X0.170000X-0.140000X0.170000X0*%
%ADD29RoundRect,0.250000X-0.650000X0.325000X-0.650000X-0.325000X0.650000X-0.325000X0.650000X0.325000X0*%
%ADD30R,2.750000X3.050000*%
%ADD31R,1.200000X2.200000*%
%ADD32R,4.860000X3.360000*%
%ADD33R,1.400000X1.390000*%
%ADD34R,3.050000X2.750000*%
%ADD35R,2.200000X1.200000*%
G04 APERTURE END LIST*
D10*
%TO.C,UR1*%
X149050000Y-113750000D03*
X149050000Y-113100000D03*
X149050000Y-112450000D03*
X147150000Y-112450000D03*
X147150000Y-113100000D03*
X147150000Y-113750000D03*
%TD*%
D11*
%TO.C,R7*%
X160925000Y-110500000D03*
X162750000Y-110500000D03*
%TD*%
D12*
%TO.C,J4*%
X146700000Y-115900000D03*
X147700000Y-115900000D03*
X148700000Y-115900000D03*
X149700000Y-115900000D03*
D13*
X145400000Y-119775000D03*
X151000000Y-119775000D03*
%TD*%
D14*
%TO.C,C9*%
X160225000Y-107400000D03*
X163175000Y-107400000D03*
%TD*%
D15*
%TO.C,L1*%
X140275000Y-95700000D03*
X151525000Y-95700000D03*
%TD*%
D16*
%TO.C,C7*%
X158150000Y-98175000D03*
X158150000Y-95225000D03*
%TD*%
D17*
%TO.C,C5*%
X156675000Y-120200000D03*
X155125000Y-120200000D03*
%TD*%
D18*
%TO.C,R9*%
X136100000Y-103837500D03*
X136100000Y-106762500D03*
%TD*%
D19*
%TO.C,R5*%
X160900000Y-114725000D03*
X160900000Y-113075000D03*
%TD*%
D20*
%TO.C,C1*%
X132800000Y-89300000D03*
X137200000Y-89300000D03*
%TD*%
D21*
%TO.C,C10*%
X150300000Y-113880000D03*
X150300000Y-112920000D03*
%TD*%
D22*
%TO.C,U1*%
X157680000Y-114700000D03*
X156520000Y-114700000D03*
D23*
X154825000Y-117562500D03*
X155475000Y-117562500D03*
X156125000Y-117562500D03*
X156775000Y-117562500D03*
X157425000Y-117562500D03*
X158075000Y-117562500D03*
X158725000Y-117562500D03*
X159375000Y-117562500D03*
X159375000Y-111837500D03*
X158725000Y-111837500D03*
X158075000Y-111837500D03*
X157425000Y-111837500D03*
X156775000Y-111837500D03*
X156125000Y-111837500D03*
X155475000Y-111837500D03*
X154825000Y-111837500D03*
%TD*%
D24*
%TO.C,R8*%
X152740000Y-120300000D03*
X153760000Y-120300000D03*
%TD*%
D25*
%TO.C,R6*%
X164362500Y-103700000D03*
X161437500Y-103700000D03*
%TD*%
D16*
%TO.C,C8*%
X155400000Y-98175000D03*
X155400000Y-95225000D03*
%TD*%
D24*
%TO.C,R1*%
X152740000Y-119100000D03*
X153760000Y-119100000D03*
%TD*%
D26*
%TO.C,C3*%
X153500000Y-111525000D03*
X153500000Y-113075000D03*
%TD*%
D27*
%TO.C,R2*%
X145910000Y-113800000D03*
X144890000Y-113800000D03*
%TD*%
D28*
%TO.C,C4*%
X154220000Y-110000000D03*
X155180000Y-110000000D03*
%TD*%
D12*
%TO.C,J3*%
X138600000Y-112400000D03*
X139600000Y-112400000D03*
X140600000Y-112400000D03*
X141600000Y-112400000D03*
D13*
X142900000Y-116275000D03*
X137300000Y-116275000D03*
%TD*%
D29*
%TO.C,C2*%
X137000000Y-95725000D03*
X137000000Y-98675000D03*
%TD*%
D16*
%TO.C,C6*%
X160900000Y-98175000D03*
X160900000Y-95225000D03*
%TD*%
D30*
%TO.C,Q2*%
X164375000Y-95275000D03*
X167425000Y-91925000D03*
X167425000Y-95275000D03*
X164375000Y-91925000D03*
D31*
X163620000Y-99900000D03*
X168180000Y-99900000D03*
%TD*%
D27*
%TO.C,R4*%
X156210000Y-107900000D03*
X155190000Y-107900000D03*
%TD*%
D32*
%TO.C,D1*%
X157320000Y-102600000D03*
D33*
X153338000Y-101680000D03*
X153338000Y-103520000D03*
%TD*%
D34*
%TO.C,Q1*%
X144575000Y-104675000D03*
X144575000Y-107725000D03*
X147925000Y-107725000D03*
X147925000Y-104675000D03*
D35*
X139950000Y-103920000D03*
X139950000Y-108480000D03*
%TD*%
D27*
%TO.C,R10*%
X161910000Y-116200000D03*
X160890000Y-116200000D03*
%TD*%
M02*
