%TF.GenerationSoftware,KiCad,Pcbnew,(6.0.9)*%
%TF.CreationDate,2023-02-03T11:06:12+01:00*%
%TF.ProjectId,Powerboard,506f7765-7262-46f6-9172-642e6b696361,rev?*%
%TF.SameCoordinates,Original*%
%TF.FileFunction,Copper,L4,Bot*%
%TF.FilePolarity,Positive*%
%FSLAX46Y46*%
G04 Gerber Fmt 4.6, Leading zero omitted, Abs format (unit mm)*
G04 Created by KiCad (PCBNEW (6.0.9)) date 2023-02-03 11:06:12*
%MOMM*%
%LPD*%
G01*
G04 APERTURE LIST*
%TA.AperFunction,ComponentPad*%
%ADD10C,4.000000*%
%TD*%
%TA.AperFunction,ComponentPad*%
%ADD11C,0.700000*%
%TD*%
%TA.AperFunction,SMDPad,CuDef*%
%ADD12R,3.500000X2.000000*%
%TD*%
%TA.AperFunction,ViaPad*%
%ADD13C,0.800000*%
%TD*%
%TA.AperFunction,ViaPad*%
%ADD14C,0.450000*%
%TD*%
%TA.AperFunction,Conductor*%
%ADD15C,1.000000*%
%TD*%
%TA.AperFunction,Conductor*%
%ADD16C,0.500000*%
%TD*%
%TA.AperFunction,Conductor*%
%ADD17C,0.300000*%
%TD*%
G04 APERTURE END LIST*
D10*
%TO.P,J2,1,N*%
%TO.N,GND*%
X157100000Y-86700000D03*
%TO.P,J2,2,P*%
%TO.N,/LED+*%
X162100000Y-86700000D03*
%TD*%
D11*
%TO.P,U1,17,EP*%
%TO.N,GND*%
X158600000Y-113950000D03*
X155600000Y-113950000D03*
X155600000Y-115450000D03*
X158600000Y-115450000D03*
D12*
X157100000Y-114700000D03*
D11*
X157100000Y-115450000D03*
X157100000Y-113950000D03*
%TD*%
D10*
%TO.P,J1,1,N*%
%TO.N,GND*%
X131900000Y-100800000D03*
%TO.P,J1,2,P*%
%TO.N,/IN*%
X131900000Y-95800000D03*
%TD*%
D13*
%TO.N,GND*%
X142500000Y-119000000D03*
X139500000Y-117000000D03*
X158250000Y-80250000D03*
D14*
X144900000Y-112800000D03*
D13*
X163000000Y-82750000D03*
X143250000Y-99750000D03*
X159500000Y-92000000D03*
X161900000Y-106200000D03*
X136000000Y-100000000D03*
X139250000Y-90750000D03*
X143250000Y-96750000D03*
X165100000Y-112800000D03*
X171000000Y-96500000D03*
X136750000Y-110000000D03*
X155500000Y-93000000D03*
X154750000Y-106500000D03*
X167250000Y-87500000D03*
X155500000Y-94000000D03*
X143250000Y-93500000D03*
X139500000Y-86250000D03*
X137250000Y-90750000D03*
X159500000Y-94000000D03*
X137250000Y-87750000D03*
X135250000Y-102500000D03*
X138250000Y-90750000D03*
X165000000Y-115500000D03*
X162500000Y-114750000D03*
X154500000Y-94000000D03*
X158500000Y-94000000D03*
X155500000Y-92000000D03*
X142600000Y-82300000D03*
X157500000Y-94000000D03*
X146900000Y-117900000D03*
X167000000Y-113000000D03*
X163250000Y-108750000D03*
X128500000Y-97000000D03*
X137000000Y-102500000D03*
X136250000Y-87750000D03*
X142500000Y-87500000D03*
X139750000Y-81500000D03*
X163175000Y-106025000D03*
X166500000Y-104200000D03*
X158500000Y-93000000D03*
X139500000Y-89750000D03*
X154500000Y-93000000D03*
X166900000Y-109800000D03*
X161500000Y-93000000D03*
X159500000Y-93000000D03*
X136250000Y-90750000D03*
X152750000Y-118000000D03*
X160500000Y-93000000D03*
X130000000Y-92000000D03*
X131000000Y-110500000D03*
X139250000Y-87750000D03*
X135250000Y-98250000D03*
X153200000Y-115800000D03*
X170250000Y-93250000D03*
X151300000Y-112900000D03*
X135000000Y-112250000D03*
X129500000Y-107000000D03*
X140000000Y-101500000D03*
X134500000Y-103750000D03*
X137750000Y-103750000D03*
X135750000Y-83750000D03*
X161500000Y-94000000D03*
X146700000Y-82500000D03*
X152000000Y-110400000D03*
X153100000Y-109950000D03*
X165500000Y-98750000D03*
X168750000Y-110250000D03*
X138000000Y-100000000D03*
X153000000Y-86250000D03*
X160500000Y-94000000D03*
X150700000Y-115900000D03*
X153500000Y-79000000D03*
X171250000Y-103500000D03*
X148200000Y-99700000D03*
X152750000Y-121250000D03*
X148250000Y-96750000D03*
X157500000Y-106500000D03*
X171500000Y-99750000D03*
X158499614Y-91994653D03*
X138750000Y-99250000D03*
X160500000Y-119000000D03*
X135250000Y-99250000D03*
X149250000Y-87500000D03*
X143250000Y-90000000D03*
X138700000Y-105600000D03*
X138250000Y-87750000D03*
X149250000Y-90000000D03*
X143250000Y-79750000D03*
X129000000Y-105000000D03*
X156513738Y-91994653D03*
X156500000Y-94000000D03*
X153000000Y-83000000D03*
X133000000Y-113000000D03*
X148250000Y-93500000D03*
X138500000Y-110500000D03*
X162800000Y-116200000D03*
X157500000Y-93000000D03*
X137000000Y-100000000D03*
X153500000Y-114250000D03*
X168600000Y-103100000D03*
X142600000Y-111700000D03*
X163200000Y-113000000D03*
X139500000Y-88750000D03*
X156500000Y-93000000D03*
%TO.N,/NDRV*%
X156224500Y-110314299D03*
X139900000Y-105500000D03*
%TO.N,/!DIMOUT*%
X165600000Y-105500000D03*
X165600000Y-99850000D03*
%TO.N,/ICTRL*%
X156219011Y-119015553D03*
D14*
X145700000Y-112700000D03*
D13*
%TO.N,/IN*%
X152300000Y-111500000D03*
%TO.N,/!FTL*%
X158200000Y-119300000D03*
D14*
X147700000Y-117300000D03*
D13*
%TO.N,/PWMDIM*%
X159400000Y-119300000D03*
D14*
X153500000Y-116600000D03*
D13*
%TO.N,/V-out*%
X161400000Y-107300000D03*
X162100000Y-113000000D03*
%TD*%
D15*
%TO.N,/IN*%
X129000000Y-98700000D02*
X131900000Y-95800000D01*
X129000000Y-102000000D02*
X129000000Y-98700000D01*
X138400000Y-107600000D02*
X134600000Y-107600000D01*
X140800000Y-110000000D02*
X138400000Y-107600000D01*
X148800000Y-110000000D02*
X140800000Y-110000000D01*
X134600000Y-107600000D02*
X129000000Y-102000000D01*
X150300000Y-111500000D02*
X148800000Y-110000000D01*
X152300000Y-111500000D02*
X150300000Y-111500000D01*
D16*
%TO.N,/NDRV*%
X139900000Y-105500000D02*
X139900000Y-105602082D01*
D15*
X142897918Y-108600000D02*
X154510201Y-108600000D01*
X154510201Y-108600000D02*
X156224500Y-110314299D01*
X139900000Y-105602082D02*
X142897918Y-108600000D01*
D17*
%TO.N,/!DIMOUT*%
X165600000Y-99850000D02*
X165600000Y-105500000D01*
%TO.N,/ICTRL*%
X152100000Y-117200000D02*
X154403458Y-117200000D01*
X154403458Y-117200000D02*
X156219011Y-119015553D01*
X151450000Y-116550000D02*
X152100000Y-117200000D01*
X151450000Y-114850000D02*
X151450000Y-116550000D01*
X145700000Y-112700000D02*
X149300000Y-112700000D01*
X149300000Y-112700000D02*
X151450000Y-114850000D01*
%TO.N,/!FTL*%
X153700000Y-120700000D02*
X152500000Y-119500000D01*
X156800000Y-120700000D02*
X153700000Y-120700000D01*
X149100000Y-119500000D02*
X147700000Y-118100000D01*
X152500000Y-119500000D02*
X149100000Y-119500000D01*
X147700000Y-118100000D02*
X147700000Y-117300000D01*
X158200000Y-119300000D02*
X156800000Y-120700000D01*
%TO.N,/PWMDIM*%
X153500000Y-116600000D02*
X157300000Y-116600000D01*
X159400000Y-118700000D02*
X159400000Y-119300000D01*
X157300000Y-116600000D02*
X159400000Y-118700000D01*
%TO.N,/V-out*%
X162100000Y-107800000D02*
X161700000Y-107400000D01*
X161700000Y-107400000D02*
X161600000Y-107300000D01*
X162100000Y-113000000D02*
X162100000Y-107800000D01*
X161600000Y-107300000D02*
X161400000Y-107300000D01*
%TD*%
%TA.AperFunction,Conductor*%
%TO.N,GND*%
G36*
X150468036Y-77805500D02*
G01*
X151390821Y-77844176D01*
X151397012Y-77844566D01*
X152317365Y-77921849D01*
X152323563Y-77922500D01*
X153239891Y-78038260D01*
X153246051Y-78039170D01*
X154156698Y-78193194D01*
X154162794Y-78194357D01*
X154525622Y-78271478D01*
X155066219Y-78386386D01*
X155072295Y-78387811D01*
X155966856Y-78617495D01*
X155972866Y-78619173D01*
X155982823Y-78622179D01*
X156857048Y-78886123D01*
X156862983Y-78888052D01*
X157205622Y-79007371D01*
X157735174Y-79191780D01*
X157741005Y-79193948D01*
X158599787Y-79533965D01*
X158605494Y-79536364D01*
X159174457Y-79789683D01*
X159449230Y-79912020D01*
X159454877Y-79914677D01*
X160130091Y-80249856D01*
X160282144Y-80325336D01*
X160287673Y-80328226D01*
X161091556Y-80770164D01*
X161097022Y-80773169D01*
X161102418Y-80776285D01*
X161892435Y-81254736D01*
X161897676Y-81258062D01*
X162666961Y-81769174D01*
X162672066Y-81772722D01*
X163419285Y-82315609D01*
X163424256Y-82319382D01*
X164148043Y-82893048D01*
X164152852Y-82897026D01*
X164852001Y-83500516D01*
X164856639Y-83504692D01*
X165529906Y-84136932D01*
X165534364Y-84141298D01*
X166180553Y-84801165D01*
X166184808Y-84805694D01*
X166454522Y-85105242D01*
X166802818Y-85492063D01*
X166806895Y-85496788D01*
X167395619Y-86208433D01*
X167399496Y-86213324D01*
X167957890Y-86948980D01*
X167961554Y-86954023D01*
X168387901Y-87567456D01*
X168488649Y-87712414D01*
X168492098Y-87717605D01*
X168987001Y-88497446D01*
X168990202Y-88502732D01*
X169285017Y-89013366D01*
X169452016Y-89302617D01*
X169455018Y-89308078D01*
X169882906Y-90126553D01*
X169885681Y-90132143D01*
X170278916Y-90967811D01*
X170281455Y-90973512D01*
X170639368Y-91824953D01*
X170641665Y-91830756D01*
X170963596Y-92696403D01*
X170965648Y-92702296D01*
X171251049Y-93580670D01*
X171252853Y-93586645D01*
X171501223Y-94476205D01*
X171502775Y-94482250D01*
X171713672Y-95381413D01*
X171714970Y-95387517D01*
X171792727Y-95795133D01*
X171869341Y-96196755D01*
X171888034Y-96294748D01*
X171889071Y-96300881D01*
X171941873Y-96658451D01*
X172023994Y-97214580D01*
X172024776Y-97220771D01*
X172121317Y-98139295D01*
X172121839Y-98145514D01*
X172126781Y-98224059D01*
X172178431Y-99045005D01*
X172179832Y-99067274D01*
X172180092Y-99073488D01*
X172199435Y-99996880D01*
X172199435Y-100003103D01*
X172190473Y-100430981D01*
X172180093Y-100926490D01*
X172179833Y-100932703D01*
X172143975Y-101502652D01*
X172121839Y-101854486D01*
X172121317Y-101860705D01*
X172024776Y-102779229D01*
X172023994Y-102785420D01*
X171889075Y-103699098D01*
X171888037Y-103705232D01*
X171796073Y-104187329D01*
X171714970Y-104612483D01*
X171713672Y-104618587D01*
X171502775Y-105517750D01*
X171501223Y-105523795D01*
X171252853Y-106413355D01*
X171251049Y-106419330D01*
X170965648Y-107297704D01*
X170963596Y-107303597D01*
X170641665Y-108169244D01*
X170639368Y-108175047D01*
X170281455Y-109026488D01*
X170278916Y-109032189D01*
X169885681Y-109867857D01*
X169882907Y-109873444D01*
X169513285Y-110580468D01*
X169455022Y-110691914D01*
X169452020Y-110697375D01*
X168990202Y-111497268D01*
X168987001Y-111502554D01*
X168496454Y-112275532D01*
X168492103Y-112282388D01*
X168488653Y-112287580D01*
X167992070Y-113002070D01*
X167961558Y-113045971D01*
X167957894Y-113051014D01*
X167751461Y-113322980D01*
X167399496Y-113786676D01*
X167395619Y-113791567D01*
X166806895Y-114503212D01*
X166802826Y-114507928D01*
X166184808Y-115194306D01*
X166180553Y-115198835D01*
X165534364Y-115858702D01*
X165529906Y-115863068D01*
X164856639Y-116495308D01*
X164852001Y-116499484D01*
X164472603Y-116826972D01*
X164219017Y-117045862D01*
X164152852Y-117102974D01*
X164148053Y-117106943D01*
X163424256Y-117680618D01*
X163419285Y-117684391D01*
X162672066Y-118227278D01*
X162666961Y-118230826D01*
X161897676Y-118741938D01*
X161892435Y-118745264D01*
X161102427Y-119223710D01*
X161097032Y-119226825D01*
X160346984Y-119639167D01*
X160287674Y-119671773D01*
X160282143Y-119674664D01*
X160218255Y-119706378D01*
X160142649Y-119721623D01*
X160069549Y-119697022D01*
X160018544Y-119639167D01*
X160003299Y-119563561D01*
X160013757Y-119517342D01*
X160029601Y-119477930D01*
X160029602Y-119477927D01*
X160032950Y-119469598D01*
X160055134Y-119313723D01*
X160055278Y-119300000D01*
X160036363Y-119143694D01*
X160000115Y-119047766D01*
X159983885Y-119004813D01*
X159983883Y-119004809D01*
X159980710Y-118996412D01*
X159939356Y-118936242D01*
X159896621Y-118874062D01*
X159896618Y-118874059D01*
X159891531Y-118866657D01*
X159884823Y-118860681D01*
X159884821Y-118860678D01*
X159850381Y-118829993D01*
X159808036Y-118765529D01*
X159800500Y-118718744D01*
X159800500Y-118668481D01*
X159800499Y-118668475D01*
X159800499Y-118636567D01*
X159794260Y-118617364D01*
X159788806Y-118594648D01*
X159785646Y-118574696D01*
X159780323Y-118564249D01*
X159780322Y-118564246D01*
X159776480Y-118556706D01*
X159767534Y-118535108D01*
X159764921Y-118527066D01*
X159764920Y-118527064D01*
X159761296Y-118515910D01*
X159749433Y-118499582D01*
X159737216Y-118479647D01*
X159733372Y-118472103D01*
X159728050Y-118461658D01*
X159638342Y-118371950D01*
X157560909Y-116294516D01*
X157560905Y-116294513D01*
X157538342Y-116271950D01*
X157527895Y-116266627D01*
X157527892Y-116266625D01*
X157520356Y-116262785D01*
X157500423Y-116250570D01*
X157493579Y-116245597D01*
X157493573Y-116245594D01*
X157484090Y-116238704D01*
X157472941Y-116235081D01*
X157472938Y-116235080D01*
X157467316Y-116233254D01*
X157464895Y-116232467D01*
X157443289Y-116223518D01*
X157435755Y-116219679D01*
X157435754Y-116219679D01*
X157425304Y-116214354D01*
X157413720Y-116212519D01*
X157413719Y-116212519D01*
X157405370Y-116211197D01*
X157382636Y-116205740D01*
X157363433Y-116199500D01*
X153800470Y-116199500D01*
X153719428Y-116175532D01*
X153701501Y-116163913D01*
X153657689Y-116150810D01*
X153581179Y-116127929D01*
X153581177Y-116127929D01*
X153571006Y-116124887D01*
X153560388Y-116124822D01*
X153560387Y-116124822D01*
X153504194Y-116124479D01*
X153434804Y-116124055D01*
X153424599Y-116126972D01*
X153424596Y-116126972D01*
X153314051Y-116158566D01*
X153314049Y-116158567D01*
X153303842Y-116161484D01*
X153294864Y-116167149D01*
X153294861Y-116167150D01*
X153237850Y-116203122D01*
X153188650Y-116234165D01*
X153098487Y-116336255D01*
X153040601Y-116459548D01*
X153019646Y-116594131D01*
X153024491Y-116631180D01*
X153014357Y-116707639D01*
X152967352Y-116768788D01*
X152896069Y-116798242D01*
X152876749Y-116799500D01*
X152327611Y-116799500D01*
X152253111Y-116779538D01*
X152222252Y-116755859D01*
X151894141Y-116427748D01*
X151855577Y-116360953D01*
X151850500Y-116322389D01*
X151850500Y-114786567D01*
X151844260Y-114767364D01*
X151838803Y-114744630D01*
X151837481Y-114736281D01*
X151837481Y-114736280D01*
X151835646Y-114724696D01*
X151826482Y-114706710D01*
X151817532Y-114685103D01*
X151814921Y-114677065D01*
X151814920Y-114677062D01*
X151811296Y-114665910D01*
X151799433Y-114649582D01*
X151787216Y-114629647D01*
X151783372Y-114622103D01*
X151778050Y-114611658D01*
X151688342Y-114521950D01*
X149560909Y-112394516D01*
X149560905Y-112394513D01*
X149538342Y-112371950D01*
X149527895Y-112366627D01*
X149527892Y-112366625D01*
X149520356Y-112362785D01*
X149500423Y-112350570D01*
X149493579Y-112345597D01*
X149493573Y-112345594D01*
X149484090Y-112338704D01*
X149472941Y-112335081D01*
X149472938Y-112335080D01*
X149467316Y-112333254D01*
X149464895Y-112332467D01*
X149443289Y-112323518D01*
X149435755Y-112319679D01*
X149435754Y-112319679D01*
X149425304Y-112314354D01*
X149413720Y-112312519D01*
X149413719Y-112312519D01*
X149405370Y-112311197D01*
X149382636Y-112305740D01*
X149363433Y-112299500D01*
X146000470Y-112299500D01*
X145919428Y-112275532D01*
X145901501Y-112263913D01*
X145849087Y-112248238D01*
X145781179Y-112227929D01*
X145781177Y-112227929D01*
X145771006Y-112224887D01*
X145760388Y-112224822D01*
X145760387Y-112224822D01*
X145704194Y-112224479D01*
X145634804Y-112224055D01*
X145624599Y-112226972D01*
X145624596Y-112226972D01*
X145514051Y-112258566D01*
X145514049Y-112258567D01*
X145503842Y-112261484D01*
X145494864Y-112267149D01*
X145494861Y-112267150D01*
X145437850Y-112303122D01*
X145388650Y-112334165D01*
X145298487Y-112436255D01*
X145240601Y-112559548D01*
X145238968Y-112570036D01*
X145231131Y-112620372D01*
X145219646Y-112694131D01*
X145237306Y-112829186D01*
X145292162Y-112953856D01*
X145379804Y-113058119D01*
X145493187Y-113133593D01*
X145623195Y-113174210D01*
X145633808Y-113174405D01*
X145633811Y-113174405D01*
X145748765Y-113176512D01*
X145748769Y-113176512D01*
X145759377Y-113176706D01*
X145890786Y-113140880D01*
X145920682Y-113122524D01*
X145998645Y-113100500D01*
X149072389Y-113100500D01*
X149146889Y-113120462D01*
X149177748Y-113144141D01*
X151005859Y-114972251D01*
X151044423Y-115039046D01*
X151049500Y-115077610D01*
X151049500Y-116613433D01*
X151055740Y-116632636D01*
X151061197Y-116655369D01*
X151064354Y-116675304D01*
X151069679Y-116685754D01*
X151069679Y-116685755D01*
X151073518Y-116693289D01*
X151082467Y-116714895D01*
X151088704Y-116734090D01*
X151095594Y-116743573D01*
X151095597Y-116743579D01*
X151100570Y-116750423D01*
X151112785Y-116770356D01*
X151116625Y-116777892D01*
X151116627Y-116777895D01*
X151121950Y-116788342D01*
X151144513Y-116810905D01*
X151144516Y-116810909D01*
X151839091Y-117505484D01*
X151839095Y-117505487D01*
X151861658Y-117528050D01*
X151876070Y-117535393D01*
X151879649Y-117537217D01*
X151899584Y-117549433D01*
X151915911Y-117561296D01*
X151935115Y-117567536D01*
X151956708Y-117576481D01*
X151974696Y-117585646D01*
X151986280Y-117587481D01*
X151986281Y-117587481D01*
X151994630Y-117588803D01*
X152017364Y-117594260D01*
X152036567Y-117600500D01*
X154175847Y-117600500D01*
X154250347Y-117620462D01*
X154281206Y-117644141D01*
X155521398Y-118884333D01*
X155559962Y-118951128D01*
X155565031Y-118991252D01*
X155564942Y-118999783D01*
X155563769Y-119008691D01*
X155564755Y-119017622D01*
X155579658Y-119152612D01*
X155581046Y-119165186D01*
X155635154Y-119313043D01*
X155640165Y-119320500D01*
X155713696Y-119429925D01*
X155722969Y-119443725D01*
X155729611Y-119449768D01*
X155729612Y-119449770D01*
X155751403Y-119469598D01*
X155839421Y-119549688D01*
X155977787Y-119624815D01*
X156032494Y-119639167D01*
X156121395Y-119662490D01*
X156121399Y-119662490D01*
X156130080Y-119664768D01*
X156287506Y-119667241D01*
X156410084Y-119639167D01*
X156432221Y-119634097D01*
X156432222Y-119634097D01*
X156440979Y-119632091D01*
X156449006Y-119628054D01*
X156573610Y-119565385D01*
X156573612Y-119565384D01*
X156581636Y-119561348D01*
X156701359Y-119459095D01*
X156708060Y-119449770D01*
X156787992Y-119338533D01*
X156787993Y-119338530D01*
X156793235Y-119331236D01*
X156798336Y-119318548D01*
X156848612Y-119193483D01*
X156848613Y-119193480D01*
X156851961Y-119185151D01*
X156874145Y-119029276D01*
X156874289Y-119015553D01*
X156855374Y-118859247D01*
X156811697Y-118743658D01*
X156802896Y-118720366D01*
X156802894Y-118720362D01*
X156799721Y-118711965D01*
X156710542Y-118582210D01*
X156592987Y-118477472D01*
X156453842Y-118403798D01*
X156445130Y-118401610D01*
X156445128Y-118401609D01*
X156309851Y-118367630D01*
X156309849Y-118367630D01*
X156301139Y-118365442D01*
X156282506Y-118365344D01*
X156195681Y-118364890D01*
X156121287Y-118344538D01*
X156091102Y-118321251D01*
X155024710Y-117254859D01*
X154986146Y-117188064D01*
X154986146Y-117110936D01*
X155024710Y-117044141D01*
X155091505Y-117005577D01*
X155130069Y-117000500D01*
X157072389Y-117000500D01*
X157146889Y-117020462D01*
X157177748Y-117044141D01*
X158044561Y-117910953D01*
X158570472Y-118436864D01*
X158609036Y-118503659D01*
X158609036Y-118580787D01*
X158570472Y-118647582D01*
X158503677Y-118686146D01*
X158428815Y-118686734D01*
X158425177Y-118685820D01*
X158392513Y-118677616D01*
X158290840Y-118652077D01*
X158290838Y-118652077D01*
X158282128Y-118649889D01*
X158124684Y-118649065D01*
X158115955Y-118651161D01*
X158115952Y-118651161D01*
X158044207Y-118668386D01*
X157971588Y-118685820D01*
X157831679Y-118758032D01*
X157713034Y-118861533D01*
X157622501Y-118990348D01*
X157565309Y-119137039D01*
X157564136Y-119145945D01*
X157564136Y-119145947D01*
X157563259Y-119152612D01*
X157544758Y-119293138D01*
X157546423Y-119308215D01*
X157534758Y-119384453D01*
X157503682Y-119429925D01*
X156677748Y-120255859D01*
X156610953Y-120294423D01*
X156572389Y-120299500D01*
X153927610Y-120299500D01*
X153853110Y-120279538D01*
X153822251Y-120255859D01*
X153309935Y-119743542D01*
X152760909Y-119194516D01*
X152760905Y-119194513D01*
X152738342Y-119171950D01*
X152727895Y-119166627D01*
X152727892Y-119166625D01*
X152720356Y-119162785D01*
X152700423Y-119150570D01*
X152693579Y-119145597D01*
X152693573Y-119145594D01*
X152684090Y-119138704D01*
X152672941Y-119135081D01*
X152672938Y-119135080D01*
X152667316Y-119133254D01*
X152664895Y-119132467D01*
X152643289Y-119123518D01*
X152635755Y-119119679D01*
X152635754Y-119119679D01*
X152625304Y-119114354D01*
X152613720Y-119112519D01*
X152613719Y-119112519D01*
X152605370Y-119111197D01*
X152582636Y-119105740D01*
X152563433Y-119099500D01*
X149327611Y-119099500D01*
X149253111Y-119079538D01*
X149222252Y-119055859D01*
X148144141Y-117977748D01*
X148105577Y-117910953D01*
X148100500Y-117872389D01*
X148100500Y-117598204D01*
X148115409Y-117533238D01*
X148153021Y-117455606D01*
X148157649Y-117446054D01*
X148180247Y-117311737D01*
X148180390Y-117300000D01*
X148179550Y-117294131D01*
X148162586Y-117175679D01*
X148162586Y-117175678D01*
X148161081Y-117165171D01*
X148132802Y-117102974D01*
X148109100Y-117050843D01*
X148109098Y-117050840D01*
X148104706Y-117041180D01*
X148015796Y-116937996D01*
X147901501Y-116863913D01*
X147823758Y-116840663D01*
X147781179Y-116827929D01*
X147781177Y-116827929D01*
X147771006Y-116824887D01*
X147760388Y-116824822D01*
X147760387Y-116824822D01*
X147704194Y-116824479D01*
X147634804Y-116824055D01*
X147624599Y-116826972D01*
X147624596Y-116826972D01*
X147514051Y-116858566D01*
X147514049Y-116858567D01*
X147503842Y-116861484D01*
X147494864Y-116867149D01*
X147494861Y-116867150D01*
X147425130Y-116911148D01*
X147388650Y-116934165D01*
X147298487Y-117036255D01*
X147240601Y-117159548D01*
X147219646Y-117294131D01*
X147237306Y-117429186D01*
X147270878Y-117505484D01*
X147286881Y-117541854D01*
X147299500Y-117601863D01*
X147299500Y-118163433D01*
X147305740Y-118182636D01*
X147311197Y-118205369D01*
X147314354Y-118225304D01*
X147319679Y-118235754D01*
X147319679Y-118235755D01*
X147323518Y-118243289D01*
X147332467Y-118264895D01*
X147338704Y-118284090D01*
X147345594Y-118293573D01*
X147345597Y-118293579D01*
X147350570Y-118300423D01*
X147362785Y-118320356D01*
X147366625Y-118327892D01*
X147366627Y-118327895D01*
X147371950Y-118338342D01*
X147394513Y-118360905D01*
X147394516Y-118360909D01*
X148839091Y-119805484D01*
X148839095Y-119805487D01*
X148861658Y-119828050D01*
X148872105Y-119833373D01*
X148872108Y-119833375D01*
X148879644Y-119837215D01*
X148899577Y-119849430D01*
X148906421Y-119854403D01*
X148906427Y-119854406D01*
X148915910Y-119861296D01*
X148927059Y-119864919D01*
X148927062Y-119864920D01*
X148932684Y-119866746D01*
X148935105Y-119867533D01*
X148956710Y-119876482D01*
X148974696Y-119885646D01*
X148986280Y-119887481D01*
X148986281Y-119887481D01*
X148994630Y-119888803D01*
X149017364Y-119894260D01*
X149036567Y-119900500D01*
X152272389Y-119900500D01*
X152346889Y-119920462D01*
X152377748Y-119944141D01*
X153371950Y-120938342D01*
X153461658Y-121028050D01*
X153472103Y-121033372D01*
X153479647Y-121037216D01*
X153499583Y-121049433D01*
X153515910Y-121061296D01*
X153527064Y-121064920D01*
X153527066Y-121064921D01*
X153535108Y-121067534D01*
X153556706Y-121076480D01*
X153564246Y-121080322D01*
X153564249Y-121080323D01*
X153574696Y-121085646D01*
X153594648Y-121088806D01*
X153617364Y-121094260D01*
X153636567Y-121100499D01*
X153668477Y-121100499D01*
X153668481Y-121100500D01*
X155885736Y-121100500D01*
X155960236Y-121120462D01*
X156014774Y-121175000D01*
X156034736Y-121249500D01*
X156014774Y-121324000D01*
X155960236Y-121378538D01*
X155922791Y-121393819D01*
X155072295Y-121612189D01*
X155066219Y-121613614D01*
X154525622Y-121728522D01*
X154162794Y-121805643D01*
X154156698Y-121806806D01*
X153246051Y-121960830D01*
X153239891Y-121961740D01*
X152323563Y-122077500D01*
X152317365Y-122078151D01*
X151397012Y-122155434D01*
X151390821Y-122155824D01*
X150468037Y-122194500D01*
X150461798Y-122194631D01*
X149538202Y-122194631D01*
X149531963Y-122194500D01*
X148609179Y-122155824D01*
X148602988Y-122155434D01*
X147682635Y-122078151D01*
X147676437Y-122077500D01*
X146760109Y-121961740D01*
X146753949Y-121960830D01*
X145843302Y-121806806D01*
X145837206Y-121805643D01*
X145474378Y-121728522D01*
X144933781Y-121613614D01*
X144927705Y-121612189D01*
X144033144Y-121382505D01*
X144027133Y-121380827D01*
X144019552Y-121378538D01*
X143345401Y-121175000D01*
X143142952Y-121113877D01*
X143137017Y-121111948D01*
X142398529Y-120854780D01*
X142264826Y-120808220D01*
X142258995Y-120806052D01*
X141400213Y-120466035D01*
X141394506Y-120463636D01*
X140550771Y-120087980D01*
X140545123Y-120085323D01*
X140195042Y-119911541D01*
X139717854Y-119674663D01*
X139712326Y-119671773D01*
X139653016Y-119639167D01*
X138902968Y-119226825D01*
X138897573Y-119223710D01*
X138107565Y-118745264D01*
X138102324Y-118741938D01*
X137333039Y-118230826D01*
X137327934Y-118227278D01*
X136580715Y-117684391D01*
X136575744Y-117680618D01*
X135851947Y-117106943D01*
X135847148Y-117102974D01*
X135780984Y-117045862D01*
X135527397Y-116826972D01*
X135147999Y-116499484D01*
X135143361Y-116495308D01*
X134470094Y-115863068D01*
X134465636Y-115858702D01*
X133819447Y-115198835D01*
X133815192Y-115194306D01*
X133197174Y-114507928D01*
X133193105Y-114503212D01*
X132604381Y-113791567D01*
X132600504Y-113786676D01*
X132248539Y-113322980D01*
X132042106Y-113051014D01*
X132038442Y-113045971D01*
X132007930Y-113002070D01*
X131511347Y-112287580D01*
X131507897Y-112282388D01*
X131503546Y-112275532D01*
X131012999Y-111502554D01*
X131009798Y-111497268D01*
X130547980Y-110697375D01*
X130544978Y-110691914D01*
X130486716Y-110580468D01*
X130117093Y-109873444D01*
X130114319Y-109867857D01*
X129721084Y-109032189D01*
X129718545Y-109026488D01*
X129360632Y-108175047D01*
X129358335Y-108169244D01*
X129036404Y-107303597D01*
X129034352Y-107297704D01*
X128748951Y-106419330D01*
X128747147Y-106413355D01*
X128498777Y-105523795D01*
X128497225Y-105517750D01*
X128286328Y-104618587D01*
X128285030Y-104612483D01*
X128203927Y-104187329D01*
X128111963Y-103705232D01*
X128110925Y-103699098D01*
X127976006Y-102785420D01*
X127975224Y-102779229D01*
X127890552Y-101973630D01*
X128244852Y-101973630D01*
X128245553Y-101982251D01*
X128245553Y-101982255D01*
X128249010Y-102024752D01*
X128249500Y-102036831D01*
X128249500Y-102043822D01*
X128249999Y-102048100D01*
X128250000Y-102048121D01*
X128252707Y-102071337D01*
X128253220Y-102076512D01*
X128259039Y-102148059D01*
X128261707Y-102156294D01*
X128262605Y-102160789D01*
X128263654Y-102165229D01*
X128264657Y-102173828D01*
X128267608Y-102181959D01*
X128267610Y-102181966D01*
X128289157Y-102241326D01*
X128290845Y-102246244D01*
X128310302Y-102306303D01*
X128310304Y-102306308D01*
X128312973Y-102314546D01*
X128317468Y-102321953D01*
X128319376Y-102326120D01*
X128321415Y-102330192D01*
X128324369Y-102338331D01*
X128363746Y-102398391D01*
X128366500Y-102402757D01*
X128403761Y-102464160D01*
X128408148Y-102469126D01*
X128408151Y-102469131D01*
X128409562Y-102470728D01*
X128411085Y-102472452D01*
X128411449Y-102472816D01*
X128415640Y-102477542D01*
X128420323Y-102484685D01*
X128426604Y-102490635D01*
X128475705Y-102537149D01*
X128478593Y-102539960D01*
X134021099Y-108082467D01*
X134035745Y-108099509D01*
X134047383Y-108115324D01*
X134053978Y-108120927D01*
X134053979Y-108120928D01*
X134086463Y-108148525D01*
X134095351Y-108156719D01*
X134100303Y-108161671D01*
X134109875Y-108169244D01*
X134122038Y-108178867D01*
X134126057Y-108182163D01*
X134174156Y-108223026D01*
X134180755Y-108228632D01*
X134188467Y-108232570D01*
X134192292Y-108235121D01*
X134196161Y-108237510D01*
X134202949Y-108242881D01*
X134210788Y-108246545D01*
X134210790Y-108246546D01*
X134268004Y-108273286D01*
X134272676Y-108275570D01*
X134322462Y-108300992D01*
X134336616Y-108308219D01*
X134345025Y-108310276D01*
X134349304Y-108311868D01*
X134353654Y-108313315D01*
X134361493Y-108316979D01*
X134431812Y-108331606D01*
X134436839Y-108332743D01*
X134506606Y-108349815D01*
X134513224Y-108350226D01*
X134513227Y-108350226D01*
X134514015Y-108350275D01*
X134517648Y-108350500D01*
X134518180Y-108350500D01*
X134524466Y-108350878D01*
X134532831Y-108352618D01*
X134541484Y-108352384D01*
X134541486Y-108352384D01*
X134609068Y-108350555D01*
X134613099Y-108350500D01*
X138027415Y-108350500D01*
X138101915Y-108370462D01*
X138132774Y-108394141D01*
X140221096Y-110482463D01*
X140235743Y-110499507D01*
X140247383Y-110515324D01*
X140253978Y-110520927D01*
X140253979Y-110520928D01*
X140286470Y-110548531D01*
X140295358Y-110556725D01*
X140300304Y-110561671D01*
X140322040Y-110578868D01*
X140326032Y-110582141D01*
X140380755Y-110628632D01*
X140388462Y-110632567D01*
X140392255Y-110635097D01*
X140396157Y-110637507D01*
X140402949Y-110642881D01*
X140468002Y-110673285D01*
X140472672Y-110675568D01*
X140536616Y-110708219D01*
X140545024Y-110710276D01*
X140549336Y-110711880D01*
X140553656Y-110713317D01*
X140561493Y-110716980D01*
X140569964Y-110718742D01*
X140569967Y-110718743D01*
X140631818Y-110731608D01*
X140636889Y-110732756D01*
X140700159Y-110748238D01*
X140700165Y-110748239D01*
X140706606Y-110749815D01*
X140713227Y-110750226D01*
X140713229Y-110750226D01*
X140713720Y-110750256D01*
X140717648Y-110750500D01*
X140718175Y-110750500D01*
X140724462Y-110750877D01*
X140732831Y-110752618D01*
X140741485Y-110752384D01*
X140741487Y-110752384D01*
X140809083Y-110750555D01*
X140813113Y-110750500D01*
X148427415Y-110750500D01*
X148501915Y-110770462D01*
X148532774Y-110794141D01*
X149721096Y-111982463D01*
X149735743Y-111999507D01*
X149747383Y-112015324D01*
X149753978Y-112020927D01*
X149753979Y-112020928D01*
X149786470Y-112048531D01*
X149795358Y-112056725D01*
X149800303Y-112061670D01*
X149822042Y-112078869D01*
X149826031Y-112082140D01*
X149880755Y-112128632D01*
X149888461Y-112132566D01*
X149892255Y-112135097D01*
X149896157Y-112137507D01*
X149902949Y-112142881D01*
X149910793Y-112146547D01*
X149968004Y-112173286D01*
X149972676Y-112175570D01*
X149978577Y-112178583D01*
X150036616Y-112208219D01*
X150045025Y-112210276D01*
X150049304Y-112211868D01*
X150053654Y-112213315D01*
X150061493Y-112216979D01*
X150069961Y-112218740D01*
X150069963Y-112218741D01*
X150131794Y-112231602D01*
X150136864Y-112232750D01*
X150200159Y-112248238D01*
X150200165Y-112248239D01*
X150206606Y-112249815D01*
X150213227Y-112250226D01*
X150213229Y-112250226D01*
X150215355Y-112250358D01*
X150215363Y-112250358D01*
X150217648Y-112250500D01*
X150218179Y-112250500D01*
X150224469Y-112250878D01*
X150232830Y-112252617D01*
X150241481Y-112252383D01*
X150241482Y-112252383D01*
X150309045Y-112250555D01*
X150313075Y-112250500D01*
X152343822Y-112250500D01*
X152348099Y-112250001D01*
X152348105Y-112250001D01*
X152401046Y-112243828D01*
X152473828Y-112235343D01*
X152638331Y-112175631D01*
X152784685Y-112079677D01*
X152810478Y-112052450D01*
X152899086Y-111958913D01*
X152905040Y-111952628D01*
X152992939Y-111801298D01*
X153043667Y-111633807D01*
X153054503Y-111459138D01*
X153024866Y-111286660D01*
X152956346Y-111125627D01*
X152912968Y-111066683D01*
X152857747Y-110991646D01*
X152857744Y-110991643D01*
X152852617Y-110984676D01*
X152719245Y-110871368D01*
X152563384Y-110791781D01*
X152393394Y-110750185D01*
X152386776Y-110749774D01*
X152386773Y-110749774D01*
X152384644Y-110749642D01*
X152384638Y-110749642D01*
X152382352Y-110749500D01*
X150672585Y-110749500D01*
X150598085Y-110729538D01*
X150567226Y-110705859D01*
X149466226Y-109604859D01*
X149427662Y-109538064D01*
X149427662Y-109460936D01*
X149466226Y-109394141D01*
X149533021Y-109355577D01*
X149571585Y-109350500D01*
X154137616Y-109350500D01*
X154212116Y-109370462D01*
X154242975Y-109394141D01*
X155724803Y-110875970D01*
X155827449Y-110957180D01*
X155886281Y-110984676D01*
X155978148Y-111027612D01*
X155978152Y-111027613D01*
X155985993Y-111031278D01*
X156157331Y-111066917D01*
X156165983Y-111066683D01*
X156165984Y-111066683D01*
X156214900Y-111065359D01*
X156332272Y-111062183D01*
X156340643Y-111059963D01*
X156340646Y-111059963D01*
X156493061Y-111019551D01*
X156493065Y-111019550D01*
X156501432Y-111017331D01*
X156606995Y-110960847D01*
X156648104Y-110938851D01*
X156648106Y-110938850D01*
X156655736Y-110934767D01*
X156786908Y-110818919D01*
X156804420Y-110794141D01*
X156882912Y-110683078D01*
X156882913Y-110683077D01*
X156887912Y-110676003D01*
X156925736Y-110582149D01*
X156950092Y-110521715D01*
X156950093Y-110521711D01*
X156953328Y-110513684D01*
X156979648Y-110340669D01*
X156978947Y-110332048D01*
X156978947Y-110332044D01*
X156966163Y-110174868D01*
X156966163Y-110174866D01*
X156965461Y-110166240D01*
X156911527Y-109999753D01*
X156820739Y-109850139D01*
X156816352Y-109845173D01*
X156816349Y-109845168D01*
X156814928Y-109843560D01*
X156813415Y-109841847D01*
X155089105Y-108117537D01*
X155074458Y-108100493D01*
X155067947Y-108091646D01*
X155062818Y-108084676D01*
X155023731Y-108051469D01*
X155014843Y-108043275D01*
X155009898Y-108038330D01*
X154988159Y-108021131D01*
X154984157Y-108017849D01*
X154936041Y-107976971D01*
X154936042Y-107976971D01*
X154929446Y-107971368D01*
X154921740Y-107967434D01*
X154917946Y-107964903D01*
X154914044Y-107962493D01*
X154907252Y-107957119D01*
X154885466Y-107946937D01*
X154842197Y-107926714D01*
X154837525Y-107924430D01*
X154781299Y-107895720D01*
X154773585Y-107891781D01*
X154765176Y-107889724D01*
X154760897Y-107888132D01*
X154756547Y-107886685D01*
X154748708Y-107883021D01*
X154678389Y-107868394D01*
X154673362Y-107867257D01*
X154603595Y-107850185D01*
X154596977Y-107849774D01*
X154596974Y-107849774D01*
X154596186Y-107849725D01*
X154592553Y-107849500D01*
X154592021Y-107849500D01*
X154585735Y-107849122D01*
X154577370Y-107847382D01*
X154568717Y-107847616D01*
X154568715Y-107847616D01*
X154501133Y-107849445D01*
X154497102Y-107849500D01*
X143270503Y-107849500D01*
X143196003Y-107829538D01*
X143165144Y-107805859D01*
X142652423Y-107293138D01*
X160744758Y-107293138D01*
X160762035Y-107449633D01*
X160816143Y-107597490D01*
X160821154Y-107604947D01*
X160896699Y-107717369D01*
X160903958Y-107728172D01*
X161020410Y-107834135D01*
X161028300Y-107838419D01*
X161107201Y-107881259D01*
X161158776Y-107909262D01*
X161186511Y-107916538D01*
X161302384Y-107946937D01*
X161302388Y-107946937D01*
X161311069Y-107949215D01*
X161468495Y-107951688D01*
X161517239Y-107940524D01*
X161594313Y-107943351D01*
X161659649Y-107984337D01*
X161695740Y-108052500D01*
X161699500Y-108085764D01*
X161699500Y-112418358D01*
X161679538Y-112492858D01*
X161648450Y-112530638D01*
X161613034Y-112561533D01*
X161522501Y-112690348D01*
X161465309Y-112837039D01*
X161444758Y-112993138D01*
X161445744Y-113002069D01*
X161445744Y-113002070D01*
X161460614Y-113136758D01*
X161462035Y-113149633D01*
X161516143Y-113297490D01*
X161603958Y-113428172D01*
X161610600Y-113434215D01*
X161610601Y-113434217D01*
X161669939Y-113488210D01*
X161720410Y-113534135D01*
X161858776Y-113609262D01*
X161913940Y-113623734D01*
X162002384Y-113646937D01*
X162002388Y-113646937D01*
X162011069Y-113649215D01*
X162168495Y-113651688D01*
X162219031Y-113640114D01*
X162313210Y-113618544D01*
X162313211Y-113618544D01*
X162321968Y-113616538D01*
X162329995Y-113612501D01*
X162454599Y-113549832D01*
X162454601Y-113549831D01*
X162462625Y-113545795D01*
X162582348Y-113443542D01*
X162589049Y-113434217D01*
X162668981Y-113322980D01*
X162668982Y-113322977D01*
X162674224Y-113315683D01*
X162732950Y-113169598D01*
X162755134Y-113013723D01*
X162755278Y-113000000D01*
X162736363Y-112843694D01*
X162712018Y-112779266D01*
X162683885Y-112704813D01*
X162683883Y-112704809D01*
X162680710Y-112696412D01*
X162628449Y-112620372D01*
X162596621Y-112574062D01*
X162596618Y-112574059D01*
X162591531Y-112566657D01*
X162584823Y-112560681D01*
X162584821Y-112560678D01*
X162550381Y-112529993D01*
X162508036Y-112465529D01*
X162500500Y-112418744D01*
X162500500Y-107768481D01*
X162500499Y-107768475D01*
X162500499Y-107736567D01*
X162494260Y-107717364D01*
X162488806Y-107694648D01*
X162485646Y-107674696D01*
X162480323Y-107664249D01*
X162480322Y-107664246D01*
X162476480Y-107656706D01*
X162467534Y-107635108D01*
X162464921Y-107627066D01*
X162464920Y-107627064D01*
X162461296Y-107615910D01*
X162449433Y-107599582D01*
X162437216Y-107579647D01*
X162433372Y-107572103D01*
X162428050Y-107561658D01*
X162338342Y-107471950D01*
X162072862Y-107206469D01*
X162037292Y-107143343D01*
X162036363Y-107143694D01*
X162034070Y-107137625D01*
X162034069Y-107137624D01*
X162033187Y-107135288D01*
X161983885Y-107004813D01*
X161983883Y-107004809D01*
X161980710Y-106996412D01*
X161951185Y-106953453D01*
X161896624Y-106874067D01*
X161896623Y-106874066D01*
X161891531Y-106866657D01*
X161773976Y-106761919D01*
X161634831Y-106688245D01*
X161626119Y-106686057D01*
X161626117Y-106686056D01*
X161490840Y-106652077D01*
X161490838Y-106652077D01*
X161482128Y-106649889D01*
X161324684Y-106649065D01*
X161315955Y-106651161D01*
X161315952Y-106651161D01*
X161244207Y-106668386D01*
X161171588Y-106685820D01*
X161031679Y-106758032D01*
X160913034Y-106861533D01*
X160822501Y-106990348D01*
X160765309Y-107137039D01*
X160744758Y-107293138D01*
X142652423Y-107293138D01*
X141960814Y-106601529D01*
X167548074Y-106601529D01*
X167548998Y-106607567D01*
X167572618Y-106761919D01*
X167584153Y-106837302D01*
X167658255Y-107064018D01*
X167768390Y-107275586D01*
X167772057Y-107280471D01*
X167772059Y-107280473D01*
X167787227Y-107300675D01*
X167911602Y-107466325D01*
X168084042Y-107631113D01*
X168281082Y-107765525D01*
X168497428Y-107865949D01*
X168503317Y-107867582D01*
X168503322Y-107867584D01*
X168721386Y-107928059D01*
X168721390Y-107928060D01*
X168727272Y-107929691D01*
X168921986Y-107950500D01*
X169060463Y-107950500D01*
X169147417Y-107943351D01*
X169231624Y-107936428D01*
X169231626Y-107936428D01*
X169237716Y-107935927D01*
X169243642Y-107934438D01*
X169243645Y-107934438D01*
X169463120Y-107879310D01*
X169469048Y-107877821D01*
X169474645Y-107875387D01*
X169474652Y-107875385D01*
X169634549Y-107805859D01*
X169687784Y-107782712D01*
X169888049Y-107653155D01*
X170064464Y-107492629D01*
X170212293Y-107305445D01*
X170216567Y-107297704D01*
X170304934Y-107137625D01*
X170327564Y-107096631D01*
X170407183Y-106871794D01*
X170409164Y-106860676D01*
X170426755Y-106761919D01*
X170449012Y-106636972D01*
X170449568Y-106591515D01*
X170451851Y-106404581D01*
X170451926Y-106398471D01*
X170415847Y-106162698D01*
X170341745Y-105935982D01*
X170231610Y-105724414D01*
X170213213Y-105699911D01*
X170092068Y-105538563D01*
X170088398Y-105533675D01*
X170048093Y-105495158D01*
X169920376Y-105373109D01*
X169915958Y-105368887D01*
X169718918Y-105234475D01*
X169502572Y-105134051D01*
X169496683Y-105132418D01*
X169496678Y-105132416D01*
X169278614Y-105071941D01*
X169278610Y-105071940D01*
X169272728Y-105070309D01*
X169078014Y-105049500D01*
X168939537Y-105049500D01*
X168877011Y-105054641D01*
X168768376Y-105063572D01*
X168768374Y-105063572D01*
X168762284Y-105064073D01*
X168756358Y-105065562D01*
X168756355Y-105065562D01*
X168629355Y-105097462D01*
X168530952Y-105122179D01*
X168525355Y-105124613D01*
X168525348Y-105124615D01*
X168391075Y-105182999D01*
X168312216Y-105217288D01*
X168111951Y-105346845D01*
X167935536Y-105507371D01*
X167787707Y-105694555D01*
X167672436Y-105903369D01*
X167592817Y-106128206D01*
X167591746Y-106134221D01*
X167591745Y-106134223D01*
X167576378Y-106220494D01*
X167550988Y-106363028D01*
X167548074Y-106601529D01*
X141960814Y-106601529D01*
X140852423Y-105493138D01*
X164944758Y-105493138D01*
X164945744Y-105502069D01*
X164945744Y-105502070D01*
X164948143Y-105523795D01*
X164962035Y-105649633D01*
X165016143Y-105797490D01*
X165021154Y-105804947D01*
X165096201Y-105916628D01*
X165103958Y-105928172D01*
X165110600Y-105934215D01*
X165110601Y-105934217D01*
X165169939Y-105988210D01*
X165220410Y-106034135D01*
X165358776Y-106109262D01*
X165409031Y-106122446D01*
X165502384Y-106146937D01*
X165502388Y-106146937D01*
X165511069Y-106149215D01*
X165668495Y-106151688D01*
X165771023Y-106128206D01*
X165813210Y-106118544D01*
X165813211Y-106118544D01*
X165821968Y-106116538D01*
X165829995Y-106112501D01*
X165954599Y-106049832D01*
X165954601Y-106049831D01*
X165962625Y-106045795D01*
X166082348Y-105943542D01*
X166091673Y-105930565D01*
X166168981Y-105822980D01*
X166168982Y-105822977D01*
X166174224Y-105815683D01*
X166184930Y-105789052D01*
X166229601Y-105677930D01*
X166229602Y-105677927D01*
X166232950Y-105669598D01*
X166255134Y-105513723D01*
X166255278Y-105500000D01*
X166236363Y-105343694D01*
X166200360Y-105248414D01*
X166183885Y-105204813D01*
X166183883Y-105204809D01*
X166180710Y-105196412D01*
X166137850Y-105134051D01*
X166096621Y-105074062D01*
X166096618Y-105074059D01*
X166091531Y-105066657D01*
X166084823Y-105060681D01*
X166084821Y-105060678D01*
X166050381Y-105029993D01*
X166008036Y-104965529D01*
X166000500Y-104918744D01*
X166000500Y-100432137D01*
X166020462Y-100357637D01*
X166052731Y-100318838D01*
X166075516Y-100299378D01*
X166075520Y-100299374D01*
X166082348Y-100293542D01*
X166089049Y-100284217D01*
X166168981Y-100172980D01*
X166168982Y-100172977D01*
X166174224Y-100165683D01*
X166232950Y-100019598D01*
X166255134Y-99863723D01*
X166255278Y-99850000D01*
X166236363Y-99693694D01*
X166212018Y-99629266D01*
X166183885Y-99554813D01*
X166183883Y-99554809D01*
X166180710Y-99546412D01*
X166091531Y-99416657D01*
X165973976Y-99311919D01*
X165834831Y-99238245D01*
X165826119Y-99236057D01*
X165826117Y-99236056D01*
X165690840Y-99202077D01*
X165690838Y-99202077D01*
X165682128Y-99199889D01*
X165524684Y-99199065D01*
X165515955Y-99201161D01*
X165515952Y-99201161D01*
X165444207Y-99218386D01*
X165371588Y-99235820D01*
X165231679Y-99308032D01*
X165113034Y-99411533D01*
X165022501Y-99540348D01*
X164965309Y-99687039D01*
X164944758Y-99843138D01*
X164945744Y-99852069D01*
X164945744Y-99852070D01*
X164947031Y-99863723D01*
X164962035Y-99999633D01*
X165016143Y-100147490D01*
X165103958Y-100278172D01*
X165120850Y-100293542D01*
X165150779Y-100320776D01*
X165192447Y-100385680D01*
X165199500Y-100430981D01*
X165199500Y-104918358D01*
X165179538Y-104992858D01*
X165148450Y-105030638D01*
X165113034Y-105061533D01*
X165022501Y-105190348D01*
X165019238Y-105198716D01*
X165019238Y-105198717D01*
X165011998Y-105217288D01*
X164965309Y-105337039D01*
X164964136Y-105345945D01*
X164964136Y-105345947D01*
X164963259Y-105352612D01*
X164944758Y-105493138D01*
X140852423Y-105493138D01*
X140399697Y-105040412D01*
X140396309Y-105037732D01*
X140396304Y-105037727D01*
X140303843Y-104964574D01*
X140303839Y-104964572D01*
X140297051Y-104959201D01*
X140209661Y-104918358D01*
X140146352Y-104888769D01*
X140146348Y-104888768D01*
X140138507Y-104885103D01*
X140072137Y-104871298D01*
X140047332Y-104866138D01*
X140041379Y-104864771D01*
X139990841Y-104852077D01*
X139990837Y-104852076D01*
X139982128Y-104849889D01*
X139973149Y-104849842D01*
X139973147Y-104849842D01*
X139971978Y-104849836D01*
X139968879Y-104849820D01*
X139967169Y-104849464D01*
X139958822Y-104849690D01*
X139954035Y-104849742D01*
X139833666Y-104849112D01*
X139824684Y-104849065D01*
X139815951Y-104851161D01*
X139815860Y-104851172D01*
X139802550Y-104853723D01*
X139800880Y-104853964D01*
X139792228Y-104854198D01*
X139687849Y-104881874D01*
X139684475Y-104882726D01*
X139671586Y-104885820D01*
X139671053Y-104883600D01*
X139669387Y-104883757D01*
X139670133Y-104886571D01*
X139631439Y-104896830D01*
X139631435Y-104896831D01*
X139623068Y-104899050D01*
X139586262Y-104918744D01*
X139476396Y-104977530D01*
X139476394Y-104977531D01*
X139468764Y-104981614D01*
X139337592Y-105097462D01*
X139332596Y-105104531D01*
X139242578Y-105231903D01*
X139236588Y-105240378D01*
X139203491Y-105322502D01*
X139174408Y-105394666D01*
X139174407Y-105394670D01*
X139171172Y-105402697D01*
X139144852Y-105575712D01*
X139145553Y-105584333D01*
X139145553Y-105584337D01*
X139158337Y-105741513D01*
X139159039Y-105750141D01*
X139212973Y-105916628D01*
X139303761Y-106066242D01*
X139308148Y-106071208D01*
X139308151Y-106071213D01*
X139309520Y-106072763D01*
X139311085Y-106074534D01*
X142231692Y-108995141D01*
X142270256Y-109061936D01*
X142270256Y-109139064D01*
X142231692Y-109205859D01*
X142164897Y-109244423D01*
X142126333Y-109249500D01*
X141172586Y-109249500D01*
X141098086Y-109229538D01*
X141067227Y-109205859D01*
X138978904Y-107117537D01*
X138964257Y-107100493D01*
X138957746Y-107091646D01*
X138952617Y-107084676D01*
X138913530Y-107051469D01*
X138904642Y-107043275D01*
X138899697Y-107038330D01*
X138877958Y-107021131D01*
X138873956Y-107017849D01*
X138851437Y-106998717D01*
X138819245Y-106971368D01*
X138811539Y-106967434D01*
X138807745Y-106964903D01*
X138803843Y-106962493D01*
X138797051Y-106957119D01*
X138782572Y-106950352D01*
X138731996Y-106926714D01*
X138727324Y-106924430D01*
X138671098Y-106895720D01*
X138663384Y-106891781D01*
X138654975Y-106889724D01*
X138650696Y-106888132D01*
X138646346Y-106886685D01*
X138638507Y-106883021D01*
X138568188Y-106868394D01*
X138563161Y-106867257D01*
X138493394Y-106850185D01*
X138486776Y-106849774D01*
X138486773Y-106849774D01*
X138485985Y-106849725D01*
X138482352Y-106849500D01*
X138481820Y-106849500D01*
X138475534Y-106849122D01*
X138467169Y-106847382D01*
X138458516Y-106847616D01*
X138458514Y-106847616D01*
X138390932Y-106849445D01*
X138386901Y-106849500D01*
X134972585Y-106849500D01*
X134898085Y-106829538D01*
X134867226Y-106805859D01*
X129794141Y-101732774D01*
X129755577Y-101665979D01*
X129750500Y-101627415D01*
X129750500Y-99072585D01*
X129770462Y-98998085D01*
X129794141Y-98967226D01*
X130854798Y-97906569D01*
X130921593Y-97868005D01*
X130998721Y-97868005D01*
X131026058Y-97878294D01*
X131032544Y-97881493D01*
X131032550Y-97881496D01*
X131036923Y-97883652D01*
X131316278Y-97978481D01*
X131321059Y-97979432D01*
X131600838Y-98035083D01*
X131600841Y-98035083D01*
X131605620Y-98036034D01*
X131610481Y-98036353D01*
X131610484Y-98036353D01*
X131895133Y-98055010D01*
X131900000Y-98055329D01*
X131904867Y-98055010D01*
X132189516Y-98036353D01*
X132189519Y-98036353D01*
X132194380Y-98036034D01*
X132199159Y-98035083D01*
X132199162Y-98035083D01*
X132478941Y-97979432D01*
X132483722Y-97978481D01*
X132763077Y-97883652D01*
X132767450Y-97881496D01*
X132767456Y-97881493D01*
X132888432Y-97821834D01*
X133027665Y-97753172D01*
X133272957Y-97589273D01*
X133494758Y-97394758D01*
X133689273Y-97172957D01*
X133853172Y-96927664D01*
X133931070Y-96769703D01*
X133981493Y-96667456D01*
X133981496Y-96667450D01*
X133983652Y-96663077D01*
X134078481Y-96383722D01*
X134136034Y-96094380D01*
X134155329Y-95800000D01*
X134136034Y-95505620D01*
X134078481Y-95216278D01*
X133983652Y-94936923D01*
X133853172Y-94672336D01*
X133689273Y-94427043D01*
X133494758Y-94205242D01*
X133272957Y-94010727D01*
X133027665Y-93846828D01*
X132888432Y-93778166D01*
X132767456Y-93718507D01*
X132767450Y-93718504D01*
X132763077Y-93716348D01*
X132483722Y-93621519D01*
X132478941Y-93620568D01*
X132199162Y-93564917D01*
X132199159Y-93564917D01*
X132194380Y-93563966D01*
X132189519Y-93563647D01*
X132189516Y-93563647D01*
X131904867Y-93544990D01*
X131900000Y-93544671D01*
X131895133Y-93544990D01*
X131610484Y-93563647D01*
X131610481Y-93563647D01*
X131605620Y-93563966D01*
X131600841Y-93564917D01*
X131600838Y-93564917D01*
X131321059Y-93620568D01*
X131316278Y-93621519D01*
X131036923Y-93716348D01*
X131032550Y-93718504D01*
X131032544Y-93718507D01*
X130911456Y-93778221D01*
X130772336Y-93846828D01*
X130768289Y-93849532D01*
X130768284Y-93849535D01*
X130650284Y-93928380D01*
X130527043Y-94010727D01*
X130305242Y-94205242D01*
X130110727Y-94427043D01*
X129946828Y-94672336D01*
X129816348Y-94936923D01*
X129721519Y-95216278D01*
X129663966Y-95505620D01*
X129644671Y-95800000D01*
X129663966Y-96094380D01*
X129721519Y-96383722D01*
X129816348Y-96663077D01*
X129818504Y-96667450D01*
X129818507Y-96667456D01*
X129821706Y-96673942D01*
X129836753Y-96749588D01*
X129811961Y-96822623D01*
X129793431Y-96845202D01*
X128517537Y-98121096D01*
X128500493Y-98135743D01*
X128484676Y-98147383D01*
X128479073Y-98153978D01*
X128479072Y-98153979D01*
X128451469Y-98186470D01*
X128443275Y-98195358D01*
X128438330Y-98200303D01*
X128421131Y-98222042D01*
X128417860Y-98226031D01*
X128371368Y-98280755D01*
X128367434Y-98288461D01*
X128364903Y-98292255D01*
X128362493Y-98296157D01*
X128357119Y-98302949D01*
X128353453Y-98310793D01*
X128326714Y-98368004D01*
X128324430Y-98372676D01*
X128291781Y-98436616D01*
X128289724Y-98445025D01*
X128288132Y-98449304D01*
X128286685Y-98453654D01*
X128283021Y-98461493D01*
X128281259Y-98469964D01*
X128268398Y-98531796D01*
X128267257Y-98536839D01*
X128250185Y-98606606D01*
X128249500Y-98617648D01*
X128249500Y-98618180D01*
X128249122Y-98624466D01*
X128247382Y-98632831D01*
X128247616Y-98641484D01*
X128247616Y-98641486D01*
X128249445Y-98709068D01*
X128249500Y-98713099D01*
X128249500Y-101931809D01*
X128247805Y-101954217D01*
X128244852Y-101973630D01*
X127890552Y-101973630D01*
X127878683Y-101860705D01*
X127878161Y-101854486D01*
X127856025Y-101502652D01*
X127820167Y-100932703D01*
X127819907Y-100926490D01*
X127809528Y-100430981D01*
X127800565Y-100003103D01*
X127800565Y-99996880D01*
X127819908Y-99073488D01*
X127820168Y-99067274D01*
X127821570Y-99045005D01*
X127873219Y-98224059D01*
X127878161Y-98145514D01*
X127878683Y-98139295D01*
X127975224Y-97220771D01*
X127976006Y-97214580D01*
X128058127Y-96658451D01*
X128110929Y-96300881D01*
X128111966Y-96294748D01*
X128130660Y-96196755D01*
X128207273Y-95795133D01*
X128285030Y-95387517D01*
X128286328Y-95381413D01*
X128497225Y-94482250D01*
X128498777Y-94476205D01*
X128747147Y-93586645D01*
X128748951Y-93580670D01*
X129034352Y-92702296D01*
X129036404Y-92696403D01*
X129358335Y-91830756D01*
X129360632Y-91824953D01*
X129718545Y-90973512D01*
X129721084Y-90967811D01*
X130114319Y-90132143D01*
X130117094Y-90126553D01*
X130544982Y-89308078D01*
X130547984Y-89302617D01*
X130714983Y-89013366D01*
X131009798Y-88502732D01*
X131012999Y-88497446D01*
X131507902Y-87717605D01*
X131511351Y-87712414D01*
X131612100Y-87567456D01*
X132038446Y-86954023D01*
X132042110Y-86948980D01*
X132231096Y-86700000D01*
X159844671Y-86700000D01*
X159863966Y-86994380D01*
X159921519Y-87283722D01*
X160016348Y-87563077D01*
X160146828Y-87827664D01*
X160310727Y-88072957D01*
X160505242Y-88294758D01*
X160727043Y-88489273D01*
X160972335Y-88653172D01*
X161111568Y-88721834D01*
X161232544Y-88781493D01*
X161232550Y-88781496D01*
X161236923Y-88783652D01*
X161516278Y-88878481D01*
X161521059Y-88879432D01*
X161800838Y-88935083D01*
X161800841Y-88935083D01*
X161805620Y-88936034D01*
X161810481Y-88936353D01*
X161810484Y-88936353D01*
X162095133Y-88955010D01*
X162100000Y-88955329D01*
X162104867Y-88955010D01*
X162389516Y-88936353D01*
X162389519Y-88936353D01*
X162394380Y-88936034D01*
X162399159Y-88935083D01*
X162399162Y-88935083D01*
X162678941Y-88879432D01*
X162683722Y-88878481D01*
X162963077Y-88783652D01*
X162967450Y-88781496D01*
X162967456Y-88781493D01*
X163088432Y-88721834D01*
X163227665Y-88653172D01*
X163472957Y-88489273D01*
X163694758Y-88294758D01*
X163889273Y-88072957D01*
X164053172Y-87827664D01*
X164183652Y-87563077D01*
X164278481Y-87283722D01*
X164336034Y-86994380D01*
X164355329Y-86700000D01*
X164336034Y-86405620D01*
X164278481Y-86116278D01*
X164183652Y-85836923D01*
X164053172Y-85572336D01*
X163999536Y-85492063D01*
X163891982Y-85331098D01*
X163889273Y-85327043D01*
X163694758Y-85105242D01*
X163472957Y-84910727D01*
X163227665Y-84746828D01*
X163088432Y-84678166D01*
X162967456Y-84618507D01*
X162967450Y-84618504D01*
X162963077Y-84616348D01*
X162683722Y-84521519D01*
X162678941Y-84520568D01*
X162399162Y-84464917D01*
X162399159Y-84464917D01*
X162394380Y-84463966D01*
X162389519Y-84463647D01*
X162389516Y-84463647D01*
X162104867Y-84444990D01*
X162100000Y-84444671D01*
X162095133Y-84444990D01*
X161810484Y-84463647D01*
X161810481Y-84463647D01*
X161805620Y-84463966D01*
X161800841Y-84464917D01*
X161800838Y-84464917D01*
X161521059Y-84520568D01*
X161516278Y-84521519D01*
X161236923Y-84616348D01*
X161232550Y-84618504D01*
X161232544Y-84618507D01*
X161111456Y-84678221D01*
X160972336Y-84746828D01*
X160968289Y-84749532D01*
X160968284Y-84749535D01*
X160850284Y-84828380D01*
X160727043Y-84910727D01*
X160505242Y-85105242D01*
X160310727Y-85327043D01*
X160308018Y-85331098D01*
X160200465Y-85492063D01*
X160146828Y-85572336D01*
X160016348Y-85836923D01*
X159921519Y-86116278D01*
X159863966Y-86405620D01*
X159844671Y-86700000D01*
X132231096Y-86700000D01*
X132600504Y-86213324D01*
X132604381Y-86208433D01*
X133193105Y-85496788D01*
X133197182Y-85492063D01*
X133545478Y-85105242D01*
X133815192Y-84805694D01*
X133819447Y-84801165D01*
X134465636Y-84141298D01*
X134470094Y-84136932D01*
X135143361Y-83504692D01*
X135147999Y-83500516D01*
X135847148Y-82897026D01*
X135851957Y-82893048D01*
X136575744Y-82319382D01*
X136580715Y-82315609D01*
X137327934Y-81772722D01*
X137333039Y-81769174D01*
X138102324Y-81258062D01*
X138107565Y-81254736D01*
X138897582Y-80776285D01*
X138902978Y-80773169D01*
X138908445Y-80770164D01*
X139712327Y-80328226D01*
X139717856Y-80325336D01*
X139869910Y-80249856D01*
X140168712Y-80101529D01*
X148548074Y-80101529D01*
X148584153Y-80337302D01*
X148658255Y-80564018D01*
X148768390Y-80775586D01*
X148772057Y-80780471D01*
X148772059Y-80780473D01*
X148790809Y-80805445D01*
X148911602Y-80966325D01*
X149084042Y-81131113D01*
X149281082Y-81265525D01*
X149497428Y-81365949D01*
X149503317Y-81367582D01*
X149503322Y-81367584D01*
X149721386Y-81428059D01*
X149721390Y-81428060D01*
X149727272Y-81429691D01*
X149921986Y-81450500D01*
X150060463Y-81450500D01*
X150122989Y-81445359D01*
X150231624Y-81436428D01*
X150231626Y-81436428D01*
X150237716Y-81435927D01*
X150243642Y-81434438D01*
X150243645Y-81434438D01*
X150463120Y-81379310D01*
X150469048Y-81377821D01*
X150474645Y-81375387D01*
X150474652Y-81375385D01*
X150619832Y-81312258D01*
X150687784Y-81282712D01*
X150888049Y-81153155D01*
X151064464Y-80992629D01*
X151212293Y-80805445D01*
X151228388Y-80776290D01*
X151324607Y-80601987D01*
X151327564Y-80596631D01*
X151407183Y-80371794D01*
X151414403Y-80331265D01*
X151447939Y-80142994D01*
X151449012Y-80136972D01*
X151451926Y-79898471D01*
X151415847Y-79662698D01*
X151341745Y-79435982D01*
X151231610Y-79224414D01*
X151213213Y-79199911D01*
X151092068Y-79038563D01*
X151088398Y-79033675D01*
X150915958Y-78868887D01*
X150718918Y-78734475D01*
X150502572Y-78634051D01*
X150496683Y-78632418D01*
X150496678Y-78632416D01*
X150278614Y-78571941D01*
X150278610Y-78571940D01*
X150272728Y-78570309D01*
X150078014Y-78549500D01*
X149939537Y-78549500D01*
X149877011Y-78554641D01*
X149768376Y-78563572D01*
X149768374Y-78563572D01*
X149762284Y-78564073D01*
X149756358Y-78565562D01*
X149756355Y-78565562D01*
X149536880Y-78620690D01*
X149530952Y-78622179D01*
X149525355Y-78624613D01*
X149525348Y-78624615D01*
X149380168Y-78687742D01*
X149312216Y-78717288D01*
X149111951Y-78846845D01*
X148935536Y-79007371D01*
X148787707Y-79194555D01*
X148672436Y-79403369D01*
X148592817Y-79628206D01*
X148591746Y-79634221D01*
X148591745Y-79634223D01*
X148576378Y-79720494D01*
X148550988Y-79863028D01*
X148548074Y-80101529D01*
X140168712Y-80101529D01*
X140545123Y-79914677D01*
X140550770Y-79912020D01*
X140825543Y-79789683D01*
X141394506Y-79536364D01*
X141400213Y-79533965D01*
X142258995Y-79193948D01*
X142264826Y-79191780D01*
X142794378Y-79007371D01*
X143137017Y-78888052D01*
X143142952Y-78886123D01*
X144017177Y-78622179D01*
X144027134Y-78619173D01*
X144033144Y-78617495D01*
X144927705Y-78387811D01*
X144933781Y-78386386D01*
X145474378Y-78271478D01*
X145837206Y-78194357D01*
X145843302Y-78193194D01*
X146753949Y-78039170D01*
X146760109Y-78038260D01*
X147676437Y-77922500D01*
X147682635Y-77921849D01*
X148602988Y-77844566D01*
X148609179Y-77844176D01*
X149531964Y-77805500D01*
X149538202Y-77805369D01*
X150461798Y-77805369D01*
X150468036Y-77805500D01*
G37*
%TD.AperFunction*%
%TD*%
M02*
