%TF.GenerationSoftware,KiCad,Pcbnew,(6.0.9)*%
%TF.CreationDate,2023-02-02T11:01:25+01:00*%
%TF.ProjectId,Powerboard,506f7765-7262-46f6-9172-642e6b696361,rev?*%
%TF.SameCoordinates,Original*%
%TF.FileFunction,Legend,Top*%
%TF.FilePolarity,Positive*%
%FSLAX46Y46*%
G04 Gerber Fmt 4.6, Leading zero omitted, Abs format (unit mm)*
G04 Created by KiCad (PCBNEW (6.0.9)) date 2023-02-02 11:01:25*
%MOMM*%
%LPD*%
G01*
G04 APERTURE LIST*
G04 Aperture macros list*
%AMRoundRect*
0 Rectangle with rounded corners*
0 $1 Rounding radius*
0 $2 $3 $4 $5 $6 $7 $8 $9 X,Y pos of 4 corners*
0 Add a 4 corners polygon primitive as box body*
4,1,4,$2,$3,$4,$5,$6,$7,$8,$9,$2,$3,0*
0 Add four circle primitives for the rounded corners*
1,1,$1+$1,$2,$3*
1,1,$1+$1,$4,$5*
1,1,$1+$1,$6,$7*
1,1,$1+$1,$8,$9*
0 Add four rect primitives between the rounded corners*
20,1,$1+$1,$2,$3,$4,$5,0*
20,1,$1+$1,$4,$5,$6,$7,0*
20,1,$1+$1,$6,$7,$8,$9,0*
20,1,$1+$1,$8,$9,$2,$3,0*%
G04 Aperture macros list end*
%ADD10C,0.150000*%
%ADD11C,0.160000*%
%ADD12C,0.200000*%
%ADD13C,0.210000*%
%ADD14C,0.300000*%
%ADD15C,0.120000*%
%ADD16R,0.650000X0.400000*%
%ADD17RoundRect,0.250000X-0.262500X-0.450000X0.262500X-0.450000X0.262500X0.450000X-0.262500X0.450000X0*%
%ADD18RoundRect,0.150000X-0.150000X-0.625000X0.150000X-0.625000X0.150000X0.625000X-0.150000X0.625000X0*%
%ADD19RoundRect,0.250000X-0.350000X-0.650000X0.350000X-0.650000X0.350000X0.650000X-0.350000X0.650000X0*%
%ADD20C,4.000000*%
%ADD21RoundRect,0.250000X-0.325000X-0.650000X0.325000X-0.650000X0.325000X0.650000X-0.325000X0.650000X0*%
%ADD22R,3.250000X5.000000*%
%ADD23RoundRect,0.250000X0.650000X-0.325000X0.650000X0.325000X-0.650000X0.325000X-0.650000X-0.325000X0*%
%ADD24RoundRect,0.225000X0.225000X0.250000X-0.225000X0.250000X-0.225000X-0.250000X0.225000X-0.250000X0*%
%ADD25RoundRect,0.250000X-0.625000X0.312500X-0.625000X-0.312500X0.625000X-0.312500X0.625000X0.312500X0*%
%ADD26C,2.200000*%
%ADD27RoundRect,0.200000X0.275000X-0.200000X0.275000X0.200000X-0.275000X0.200000X-0.275000X-0.200000X0*%
%ADD28RoundRect,0.250000X-1.250000X-0.550000X1.250000X-0.550000X1.250000X0.550000X-1.250000X0.550000X0*%
%ADD29RoundRect,0.140000X0.170000X-0.140000X0.170000X0.140000X-0.170000X0.140000X-0.170000X-0.140000X0*%
%ADD30R,2.310000X2.460000*%
%ADD31RoundRect,0.100000X0.100000X-0.687500X0.100000X0.687500X-0.100000X0.687500X-0.100000X-0.687500X0*%
%ADD32RoundRect,0.135000X-0.135000X-0.185000X0.135000X-0.185000X0.135000X0.185000X-0.135000X0.185000X0*%
%ADD33RoundRect,0.250000X0.312500X0.625000X-0.312500X0.625000X-0.312500X-0.625000X0.312500X-0.625000X0*%
%ADD34RoundRect,0.225000X-0.250000X0.225000X-0.250000X-0.225000X0.250000X-0.225000X0.250000X0.225000X0*%
%ADD35RoundRect,0.135000X0.135000X0.185000X-0.135000X0.185000X-0.135000X-0.185000X0.135000X-0.185000X0*%
%ADD36RoundRect,0.140000X-0.140000X-0.170000X0.140000X-0.170000X0.140000X0.170000X-0.140000X0.170000X0*%
%ADD37RoundRect,0.250000X-0.650000X0.325000X-0.650000X-0.325000X0.650000X-0.325000X0.650000X0.325000X0*%
%ADD38R,1.200000X2.200000*%
%ADD39R,5.800000X6.400000*%
%ADD40R,4.860000X3.360000*%
%ADD41R,1.400000X1.390000*%
%ADD42R,2.200000X1.200000*%
%ADD43R,6.400000X5.800000*%
G04 APERTURE END LIST*
D10*
X139123809Y-118552380D02*
X139123809Y-117552380D01*
X139552380Y-117647619D02*
X139600000Y-117600000D01*
X139695238Y-117552380D01*
X139933333Y-117552380D01*
X140028571Y-117600000D01*
X140076190Y-117647619D01*
X140123809Y-117742857D01*
X140123809Y-117838095D01*
X140076190Y-117980952D01*
X139504761Y-118552380D01*
X140123809Y-118552380D01*
X141123809Y-118457142D02*
X141076190Y-118504761D01*
X140933333Y-118552380D01*
X140838095Y-118552380D01*
X140695238Y-118504761D01*
X140600000Y-118409523D01*
X140552380Y-118314285D01*
X140504761Y-118123809D01*
X140504761Y-117980952D01*
X140552380Y-117790476D01*
X140600000Y-117695238D01*
X140695238Y-117600000D01*
X140838095Y-117552380D01*
X140933333Y-117552380D01*
X141076190Y-117600000D01*
X141123809Y-117647619D01*
D11*
X147423809Y-121857142D02*
X147376190Y-121904761D01*
X147233333Y-121952380D01*
X147138095Y-121952380D01*
X146995238Y-121904761D01*
X146900000Y-121809523D01*
X146852380Y-121714285D01*
X146804761Y-121523809D01*
X146804761Y-121380952D01*
X146852380Y-121190476D01*
X146900000Y-121095238D01*
X146995238Y-121000000D01*
X147138095Y-120952380D01*
X147233333Y-120952380D01*
X147376190Y-121000000D01*
X147423809Y-121047619D01*
X147709523Y-120952380D02*
X148280952Y-120952380D01*
X147995238Y-121952380D02*
X147995238Y-120952380D01*
X149185714Y-121952380D02*
X148852380Y-121476190D01*
X148614285Y-121952380D02*
X148614285Y-120952380D01*
X148995238Y-120952380D01*
X149090476Y-121000000D01*
X149138095Y-121047619D01*
X149185714Y-121142857D01*
X149185714Y-121285714D01*
X149138095Y-121380952D01*
X149090476Y-121428571D01*
X148995238Y-121476190D01*
X148614285Y-121476190D01*
X150090476Y-121952380D02*
X149614285Y-121952380D01*
X149614285Y-120952380D01*
D12*
X140361904Y-84337380D02*
X139885714Y-84337380D01*
X139885714Y-83337380D01*
X140695238Y-83813571D02*
X141028571Y-83813571D01*
X141171428Y-84337380D02*
X140695238Y-84337380D01*
X140695238Y-83337380D01*
X141171428Y-83337380D01*
X141600000Y-84337380D02*
X141600000Y-83337380D01*
X141838095Y-83337380D01*
X141980952Y-83385000D01*
X142076190Y-83480238D01*
X142123809Y-83575476D01*
X142171428Y-83765952D01*
X142171428Y-83908809D01*
X142123809Y-84099285D01*
X142076190Y-84194523D01*
X141980952Y-84289761D01*
X141838095Y-84337380D01*
X141600000Y-84337380D01*
X143361904Y-84337380D02*
X143361904Y-83337380D01*
X143600000Y-83337380D01*
X143742857Y-83385000D01*
X143838095Y-83480238D01*
X143885714Y-83575476D01*
X143933333Y-83765952D01*
X143933333Y-83908809D01*
X143885714Y-84099285D01*
X143838095Y-84194523D01*
X143742857Y-84289761D01*
X143600000Y-84337380D01*
X143361904Y-84337380D01*
X144361904Y-84337380D02*
X144361904Y-83670714D01*
X144361904Y-83861190D02*
X144409523Y-83765952D01*
X144457142Y-83718333D01*
X144552380Y-83670714D01*
X144647619Y-83670714D01*
X144980952Y-84337380D02*
X144980952Y-83670714D01*
X144980952Y-83337380D02*
X144933333Y-83385000D01*
X144980952Y-83432619D01*
X145028571Y-83385000D01*
X144980952Y-83337380D01*
X144980952Y-83432619D01*
X145361904Y-83670714D02*
X145600000Y-84337380D01*
X145838095Y-83670714D01*
X146600000Y-84289761D02*
X146504761Y-84337380D01*
X146314285Y-84337380D01*
X146219047Y-84289761D01*
X146171428Y-84194523D01*
X146171428Y-83813571D01*
X146219047Y-83718333D01*
X146314285Y-83670714D01*
X146504761Y-83670714D01*
X146600000Y-83718333D01*
X146647619Y-83813571D01*
X146647619Y-83908809D01*
X146171428Y-84004047D01*
X147076190Y-84337380D02*
X147076190Y-83670714D01*
X147076190Y-83861190D02*
X147123809Y-83765952D01*
X147171428Y-83718333D01*
X147266666Y-83670714D01*
X147361904Y-83670714D01*
X148790476Y-83813571D02*
X148933333Y-83861190D01*
X148980952Y-83908809D01*
X149028571Y-84004047D01*
X149028571Y-84146904D01*
X148980952Y-84242142D01*
X148933333Y-84289761D01*
X148838095Y-84337380D01*
X148457142Y-84337380D01*
X148457142Y-83337380D01*
X148790476Y-83337380D01*
X148885714Y-83385000D01*
X148933333Y-83432619D01*
X148980952Y-83527857D01*
X148980952Y-83623095D01*
X148933333Y-83718333D01*
X148885714Y-83765952D01*
X148790476Y-83813571D01*
X148457142Y-83813571D01*
X149600000Y-84337380D02*
X149504761Y-84289761D01*
X149457142Y-84242142D01*
X149409523Y-84146904D01*
X149409523Y-83861190D01*
X149457142Y-83765952D01*
X149504761Y-83718333D01*
X149600000Y-83670714D01*
X149742857Y-83670714D01*
X149838095Y-83718333D01*
X149885714Y-83765952D01*
X149933333Y-83861190D01*
X149933333Y-84146904D01*
X149885714Y-84242142D01*
X149838095Y-84289761D01*
X149742857Y-84337380D01*
X149600000Y-84337380D01*
X150790476Y-84337380D02*
X150790476Y-83813571D01*
X150742857Y-83718333D01*
X150647619Y-83670714D01*
X150457142Y-83670714D01*
X150361904Y-83718333D01*
X150790476Y-84289761D02*
X150695238Y-84337380D01*
X150457142Y-84337380D01*
X150361904Y-84289761D01*
X150314285Y-84194523D01*
X150314285Y-84099285D01*
X150361904Y-84004047D01*
X150457142Y-83956428D01*
X150695238Y-83956428D01*
X150790476Y-83908809D01*
X151266666Y-84337380D02*
X151266666Y-83670714D01*
X151266666Y-83861190D02*
X151314285Y-83765952D01*
X151361904Y-83718333D01*
X151457142Y-83670714D01*
X151552380Y-83670714D01*
X152314285Y-84337380D02*
X152314285Y-83337380D01*
X152314285Y-84289761D02*
X152219047Y-84337380D01*
X152028571Y-84337380D01*
X151933333Y-84289761D01*
X151885714Y-84242142D01*
X151838095Y-84146904D01*
X151838095Y-83861190D01*
X151885714Y-83765952D01*
X151933333Y-83718333D01*
X152028571Y-83670714D01*
X152219047Y-83670714D01*
X152314285Y-83718333D01*
X144576190Y-84947380D02*
X144909523Y-85947380D01*
X145242857Y-84947380D01*
X145766666Y-84947380D02*
X145861904Y-84947380D01*
X145957142Y-84995000D01*
X146004761Y-85042619D01*
X146052380Y-85137857D01*
X146100000Y-85328333D01*
X146100000Y-85566428D01*
X146052380Y-85756904D01*
X146004761Y-85852142D01*
X145957142Y-85899761D01*
X145861904Y-85947380D01*
X145766666Y-85947380D01*
X145671428Y-85899761D01*
X145623809Y-85852142D01*
X145576190Y-85756904D01*
X145528571Y-85566428D01*
X145528571Y-85328333D01*
X145576190Y-85137857D01*
X145623809Y-85042619D01*
X145671428Y-84995000D01*
X145766666Y-84947380D01*
X146528571Y-85852142D02*
X146576190Y-85899761D01*
X146528571Y-85947380D01*
X146480952Y-85899761D01*
X146528571Y-85852142D01*
X146528571Y-85947380D01*
X146957142Y-85042619D02*
X147004761Y-84995000D01*
X147100000Y-84947380D01*
X147338095Y-84947380D01*
X147433333Y-84995000D01*
X147480952Y-85042619D01*
X147528571Y-85137857D01*
X147528571Y-85233095D01*
X147480952Y-85375952D01*
X146909523Y-85947380D01*
X147528571Y-85947380D01*
X142861904Y-88167380D02*
X142861904Y-88881666D01*
X142814285Y-89024523D01*
X142719047Y-89119761D01*
X142576190Y-89167380D01*
X142480952Y-89167380D01*
X143338095Y-89167380D02*
X143338095Y-88167380D01*
X143671428Y-88881666D01*
X144004761Y-88167380D01*
X144004761Y-89167380D01*
X145719047Y-89167380D02*
X145242857Y-89167380D01*
X145242857Y-88167380D01*
X146052380Y-89167380D02*
X146052380Y-88500714D01*
X146052380Y-88167380D02*
X146004761Y-88215000D01*
X146052380Y-88262619D01*
X146100000Y-88215000D01*
X146052380Y-88167380D01*
X146052380Y-88262619D01*
X146909523Y-89119761D02*
X146814285Y-89167380D01*
X146623809Y-89167380D01*
X146528571Y-89119761D01*
X146480952Y-89024523D01*
X146480952Y-88643571D01*
X146528571Y-88548333D01*
X146623809Y-88500714D01*
X146814285Y-88500714D01*
X146909523Y-88548333D01*
X146957142Y-88643571D01*
X146957142Y-88738809D01*
X146480952Y-88834047D01*
X147290476Y-88500714D02*
X147480952Y-89167380D01*
X147671428Y-88691190D01*
X147861904Y-89167380D01*
X148052380Y-88500714D01*
X148814285Y-89119761D02*
X148719047Y-89167380D01*
X148528571Y-89167380D01*
X148433333Y-89119761D01*
X148385714Y-89024523D01*
X148385714Y-88643571D01*
X148433333Y-88548333D01*
X148528571Y-88500714D01*
X148719047Y-88500714D01*
X148814285Y-88548333D01*
X148861904Y-88643571D01*
X148861904Y-88738809D01*
X148385714Y-88834047D01*
X149242857Y-89119761D02*
X149338095Y-89167380D01*
X149528571Y-89167380D01*
X149623809Y-89119761D01*
X149671428Y-89024523D01*
X149671428Y-88976904D01*
X149623809Y-88881666D01*
X149528571Y-88834047D01*
X149385714Y-88834047D01*
X149290476Y-88786428D01*
X149242857Y-88691190D01*
X149242857Y-88643571D01*
X149290476Y-88548333D01*
X149385714Y-88500714D01*
X149528571Y-88500714D01*
X149623809Y-88548333D01*
D13*
X145500000Y-101166666D02*
X146700000Y-101166666D01*
X146833333Y-101233333D01*
X146900000Y-101366666D01*
X146900000Y-101433333D01*
X145033333Y-101166666D02*
X145100000Y-101233333D01*
X145166666Y-101166666D01*
X145100000Y-101100000D01*
X145033333Y-101166666D01*
X145166666Y-101166666D01*
X146433333Y-100300000D02*
X146366666Y-100433333D01*
X146233333Y-100500000D01*
X145033333Y-100500000D01*
X146366666Y-99166666D02*
X146433333Y-99300000D01*
X146433333Y-99566666D01*
X146366666Y-99700000D01*
X146300000Y-99766666D01*
X146166666Y-99833333D01*
X145766666Y-99833333D01*
X145633333Y-99766666D01*
X145566666Y-99700000D01*
X145500000Y-99566666D01*
X145500000Y-99300000D01*
X145566666Y-99166666D01*
X145500000Y-98566666D02*
X146700000Y-98566666D01*
X146833333Y-98633333D01*
X146900000Y-98766666D01*
X146900000Y-98833333D01*
X145033333Y-98566666D02*
X145100000Y-98633333D01*
X145166666Y-98566666D01*
X145100000Y-98500000D01*
X145033333Y-98566666D01*
X145166666Y-98566666D01*
X146433333Y-97700000D02*
X146366666Y-97833333D01*
X146233333Y-97900000D01*
X145033333Y-97900000D01*
X146366666Y-96566666D02*
X146433333Y-96700000D01*
X146433333Y-96966666D01*
X146366666Y-97100000D01*
X146300000Y-97166666D01*
X146166666Y-97233333D01*
X145766666Y-97233333D01*
X145633333Y-97166666D01*
X145566666Y-97100000D01*
X145500000Y-96966666D01*
X145500000Y-96700000D01*
X145566666Y-96566666D01*
X145500000Y-95966666D02*
X146700000Y-95966666D01*
X146833333Y-96033333D01*
X146900000Y-96166666D01*
X146900000Y-96233333D01*
X145033333Y-95966666D02*
X145100000Y-96033333D01*
X145166666Y-95966666D01*
X145100000Y-95900000D01*
X145033333Y-95966666D01*
X145166666Y-95966666D01*
X146433333Y-95100000D02*
X146366666Y-95233333D01*
X146233333Y-95300000D01*
X145033333Y-95300000D01*
X146366666Y-93966666D02*
X146433333Y-94100000D01*
X146433333Y-94366666D01*
X146366666Y-94500000D01*
X146300000Y-94566666D01*
X146166666Y-94633333D01*
X145766666Y-94633333D01*
X145633333Y-94566666D01*
X145566666Y-94500000D01*
X145500000Y-94366666D01*
X145500000Y-94100000D01*
X145566666Y-93966666D01*
X145500000Y-93366666D02*
X146700000Y-93366666D01*
X146833333Y-93433333D01*
X146900000Y-93566666D01*
X146900000Y-93633333D01*
X145033333Y-93366666D02*
X145100000Y-93433333D01*
X145166666Y-93366666D01*
X145100000Y-93300000D01*
X145033333Y-93366666D01*
X145166666Y-93366666D01*
X146433333Y-92500000D02*
X146366666Y-92633333D01*
X146233333Y-92700000D01*
X145033333Y-92700000D01*
X146366666Y-91366666D02*
X146433333Y-91500000D01*
X146433333Y-91766666D01*
X146366666Y-91900000D01*
X146300000Y-91966666D01*
X146166666Y-92033333D01*
X145766666Y-92033333D01*
X145633333Y-91966666D01*
X145566666Y-91900000D01*
X145500000Y-91766666D01*
X145500000Y-91500000D01*
X145566666Y-91366666D01*
D14*
X133721071Y-112214285D02*
X132221071Y-112214285D01*
X132221071Y-111642857D01*
X132292500Y-111500000D01*
X132363928Y-111428571D01*
X132506785Y-111357142D01*
X132721071Y-111357142D01*
X132863928Y-111428571D01*
X132935357Y-111500000D01*
X133006785Y-111642857D01*
X133006785Y-112214285D01*
X132221071Y-110428571D02*
X132221071Y-110142857D01*
X132292500Y-110000000D01*
X132435357Y-109857142D01*
X132721071Y-109785714D01*
X133221071Y-109785714D01*
X133506785Y-109857142D01*
X133649642Y-110000000D01*
X133721071Y-110142857D01*
X133721071Y-110428571D01*
X133649642Y-110571428D01*
X133506785Y-110714285D01*
X133221071Y-110785714D01*
X132721071Y-110785714D01*
X132435357Y-110714285D01*
X132292500Y-110571428D01*
X132221071Y-110428571D01*
X132221071Y-109285714D02*
X133721071Y-108928571D01*
X132649642Y-108642857D01*
X133721071Y-108357142D01*
X132221071Y-108000000D01*
X132935357Y-107428571D02*
X132935357Y-106928571D01*
X133721071Y-106714285D02*
X133721071Y-107428571D01*
X132221071Y-107428571D01*
X132221071Y-106714285D01*
X133721071Y-105214285D02*
X133006785Y-105714285D01*
X133721071Y-106071428D02*
X132221071Y-106071428D01*
X132221071Y-105500000D01*
X132292500Y-105357142D01*
X132363928Y-105285714D01*
X132506785Y-105214285D01*
X132721071Y-105214285D01*
X132863928Y-105285714D01*
X132935357Y-105357142D01*
X133006785Y-105500000D01*
X133006785Y-106071428D01*
X136136071Y-109535714D02*
X134636071Y-109535714D01*
X136136071Y-108821428D02*
X134636071Y-108821428D01*
X136136071Y-107964285D01*
X134636071Y-107964285D01*
X153928571Y-81178571D02*
X154785714Y-81178571D01*
X154357142Y-82678571D02*
X154357142Y-81178571D01*
X155571428Y-81178571D02*
X155857142Y-81178571D01*
X156000000Y-81250000D01*
X156142857Y-81392857D01*
X156214285Y-81678571D01*
X156214285Y-82178571D01*
X156142857Y-82464285D01*
X156000000Y-82607142D01*
X155857142Y-82678571D01*
X155571428Y-82678571D01*
X155428571Y-82607142D01*
X155285714Y-82464285D01*
X155214285Y-82178571D01*
X155214285Y-81678571D01*
X155285714Y-81392857D01*
X155428571Y-81250000D01*
X155571428Y-81178571D01*
X158714285Y-82678571D02*
X158000000Y-82678571D01*
X158000000Y-81178571D01*
X159214285Y-81892857D02*
X159714285Y-81892857D01*
X159928571Y-82678571D02*
X159214285Y-82678571D01*
X159214285Y-81178571D01*
X159928571Y-81178571D01*
X160571428Y-82678571D02*
X160571428Y-81178571D01*
X160928571Y-81178571D01*
X161142857Y-81250000D01*
X161285714Y-81392857D01*
X161357142Y-81535714D01*
X161428571Y-81821428D01*
X161428571Y-82035714D01*
X161357142Y-82321428D01*
X161285714Y-82464285D01*
X161142857Y-82607142D01*
X160928571Y-82678571D01*
X160571428Y-82678571D01*
D10*
%TO.C,L1*%
X145833333Y-90752380D02*
X145357142Y-90752380D01*
X145357142Y-89752380D01*
X146690476Y-90752380D02*
X146119047Y-90752380D01*
X146404761Y-90752380D02*
X146404761Y-89752380D01*
X146309523Y-89895238D01*
X146214285Y-89990476D01*
X146119047Y-90038095D01*
%TO.C,C1*%
X134833333Y-85957142D02*
X134785714Y-86004761D01*
X134642857Y-86052380D01*
X134547619Y-86052380D01*
X134404761Y-86004761D01*
X134309523Y-85909523D01*
X134261904Y-85814285D01*
X134214285Y-85623809D01*
X134214285Y-85480952D01*
X134261904Y-85290476D01*
X134309523Y-85195238D01*
X134404761Y-85100000D01*
X134547619Y-85052380D01*
X134642857Y-85052380D01*
X134785714Y-85100000D01*
X134833333Y-85147619D01*
X135785714Y-86052380D02*
X135214285Y-86052380D01*
X135500000Y-86052380D02*
X135500000Y-85052380D01*
X135404761Y-85195238D01*
X135309523Y-85290476D01*
X135214285Y-85338095D01*
%TO.C,C2*%
X136857142Y-93916666D02*
X136904761Y-93964285D01*
X136952380Y-94107142D01*
X136952380Y-94202380D01*
X136904761Y-94345238D01*
X136809523Y-94440476D01*
X136714285Y-94488095D01*
X136523809Y-94535714D01*
X136380952Y-94535714D01*
X136190476Y-94488095D01*
X136095238Y-94440476D01*
X136000000Y-94345238D01*
X135952380Y-94202380D01*
X135952380Y-94107142D01*
X136000000Y-93964285D01*
X136047619Y-93916666D01*
X136047619Y-93535714D02*
X136000000Y-93488095D01*
X135952380Y-93392857D01*
X135952380Y-93154761D01*
X136000000Y-93059523D01*
X136047619Y-93011904D01*
X136142857Y-92964285D01*
X136238095Y-92964285D01*
X136380952Y-93011904D01*
X136952380Y-93583333D01*
X136952380Y-92964285D01*
%TO.C,Q2*%
X170797619Y-100595238D02*
X170750000Y-100690476D01*
X170654761Y-100785714D01*
X170511904Y-100928571D01*
X170464285Y-101023809D01*
X170464285Y-101119047D01*
X170702380Y-101071428D02*
X170654761Y-101166666D01*
X170559523Y-101261904D01*
X170369047Y-101309523D01*
X170035714Y-101309523D01*
X169845238Y-101261904D01*
X169750000Y-101166666D01*
X169702380Y-101071428D01*
X169702380Y-100880952D01*
X169750000Y-100785714D01*
X169845238Y-100690476D01*
X170035714Y-100642857D01*
X170369047Y-100642857D01*
X170559523Y-100690476D01*
X170654761Y-100785714D01*
X170702380Y-100880952D01*
X170702380Y-101071428D01*
X169797619Y-100261904D02*
X169750000Y-100214285D01*
X169702380Y-100119047D01*
X169702380Y-99880952D01*
X169750000Y-99785714D01*
X169797619Y-99738095D01*
X169892857Y-99690476D01*
X169988095Y-99690476D01*
X170130952Y-99738095D01*
X170702380Y-100309523D01*
X170702380Y-99690476D01*
%TO.C,D1*%
X155581904Y-100052380D02*
X155581904Y-99052380D01*
X155820000Y-99052380D01*
X155962857Y-99100000D01*
X156058095Y-99195238D01*
X156105714Y-99290476D01*
X156153333Y-99480952D01*
X156153333Y-99623809D01*
X156105714Y-99814285D01*
X156058095Y-99909523D01*
X155962857Y-100004761D01*
X155820000Y-100052380D01*
X155581904Y-100052380D01*
X157105714Y-100052380D02*
X156534285Y-100052380D01*
X156820000Y-100052380D02*
X156820000Y-99052380D01*
X156724761Y-99195238D01*
X156629523Y-99290476D01*
X156534285Y-99338095D01*
%TO.C,Q1*%
X150654761Y-107047619D02*
X150559523Y-107000000D01*
X150464285Y-106904761D01*
X150321428Y-106761904D01*
X150226190Y-106714285D01*
X150130952Y-106714285D01*
X150178571Y-106952380D02*
X150083333Y-106904761D01*
X149988095Y-106809523D01*
X149940476Y-106619047D01*
X149940476Y-106285714D01*
X149988095Y-106095238D01*
X150083333Y-106000000D01*
X150178571Y-105952380D01*
X150369047Y-105952380D01*
X150464285Y-106000000D01*
X150559523Y-106095238D01*
X150607142Y-106285714D01*
X150607142Y-106619047D01*
X150559523Y-106809523D01*
X150464285Y-106904761D01*
X150369047Y-106952380D01*
X150178571Y-106952380D01*
X151559523Y-106952380D02*
X150988095Y-106952380D01*
X151273809Y-106952380D02*
X151273809Y-105952380D01*
X151178571Y-106095238D01*
X151083333Y-106190476D01*
X150988095Y-106238095D01*
D15*
%TO.C,UR1*%
X147400000Y-114260000D02*
X149300000Y-114260000D01*
X148800000Y-111940000D02*
X147400000Y-111940000D01*
%TO.C,R7*%
X161610436Y-111235000D02*
X162064564Y-111235000D01*
X161610436Y-109765000D02*
X162064564Y-109765000D01*
%TO.C,J4*%
X145090000Y-116115000D02*
X146140000Y-116115000D01*
X146260000Y-120585000D02*
X150140000Y-120585000D01*
X151310000Y-116115000D02*
X150260000Y-116115000D01*
X151310000Y-118615000D02*
X151310000Y-116115000D01*
X146140000Y-116115000D02*
X146140000Y-115125000D01*
X145090000Y-118615000D02*
X145090000Y-116115000D01*
D12*
%TO.C,J2*%
X164700000Y-83850000D02*
X155650000Y-83850000D01*
X164700000Y-89550000D02*
X155650000Y-89550000D01*
X153650000Y-87550000D02*
X155650000Y-89550000D01*
D15*
X154200000Y-87200000D02*
X154200000Y-86200000D01*
D12*
X153650000Y-85850000D02*
X153650000Y-87550000D01*
X164700000Y-83850000D02*
X164700000Y-89550000D01*
D15*
X165050000Y-86700000D02*
X165850000Y-86700000D01*
X165450000Y-86300000D02*
X165450000Y-87100000D01*
D12*
X153650000Y-85850000D02*
X155650000Y-83850000D01*
D15*
%TO.C,C9*%
X160988748Y-108310000D02*
X162411252Y-108310000D01*
X160988748Y-106490000D02*
X162411252Y-106490000D01*
%TO.C,L1*%
X152200000Y-89400000D02*
X139600000Y-89400000D01*
X139600000Y-89400000D02*
X139600000Y-92900000D01*
X139600000Y-102000000D02*
X139600000Y-98500000D01*
X152200000Y-102000000D02*
X139600000Y-102000000D01*
X152200000Y-89400000D02*
X152200000Y-92900000D01*
X152200000Y-102000000D02*
X152200000Y-98500000D01*
%TO.C,C7*%
X157240000Y-97411252D02*
X157240000Y-95988748D01*
X159060000Y-97411252D02*
X159060000Y-95988748D01*
%TO.C,C5*%
X156040580Y-120710000D02*
X155759420Y-120710000D01*
X156040580Y-119690000D02*
X155759420Y-119690000D01*
%TO.C,R9*%
X135190000Y-104572936D02*
X135190000Y-106027064D01*
X137010000Y-104572936D02*
X137010000Y-106027064D01*
%TO.C,R5*%
X160377500Y-114137258D02*
X160377500Y-113662742D01*
X161422500Y-114137258D02*
X161422500Y-113662742D01*
%TO.C,C1*%
X137760000Y-86540000D02*
X137760000Y-88240000D01*
X132240000Y-90995563D02*
X132240000Y-90360000D01*
X132240000Y-87604437D02*
X132240000Y-88240000D01*
X132240000Y-90995563D02*
X133304437Y-92060000D01*
X133304437Y-86540000D02*
X137760000Y-86540000D01*
X132240000Y-87604437D02*
X133304437Y-86540000D01*
X131687500Y-87302500D02*
X131687500Y-87927500D01*
X131375000Y-87615000D02*
X132000000Y-87615000D01*
X133304437Y-92060000D02*
X137760000Y-92060000D01*
X137760000Y-92060000D02*
X137760000Y-90360000D01*
%TO.C,C10*%
X150660000Y-113507836D02*
X150660000Y-113292164D01*
X149940000Y-113507836D02*
X149940000Y-113292164D01*
%TO.C,U1*%
X159860000Y-114700000D02*
X159860000Y-116900000D01*
X154340000Y-114700000D02*
X154340000Y-112500000D01*
X154340000Y-114700000D02*
X154340000Y-118350000D01*
X159860000Y-114700000D02*
X159860000Y-112500000D01*
%TO.C,R8*%
X153096359Y-120680000D02*
X153403641Y-120680000D01*
X153096359Y-119920000D02*
X153403641Y-119920000D01*
%TO.C,R6*%
X163627064Y-102790000D02*
X162172936Y-102790000D01*
X163627064Y-104610000D02*
X162172936Y-104610000D01*
%TO.C,C8*%
X156310000Y-97411252D02*
X156310000Y-95988748D01*
X154490000Y-97411252D02*
X154490000Y-95988748D01*
D12*
%TO.C,J1*%
X129050000Y-93200000D02*
X134750000Y-93200000D01*
X131050000Y-104250000D02*
X132750000Y-104250000D01*
X129050000Y-93200000D02*
X129050000Y-102250000D01*
X132750000Y-104250000D02*
X134750000Y-102250000D01*
X131050000Y-104250000D02*
X129050000Y-102250000D01*
D15*
X131900000Y-92850000D02*
X131900000Y-92050000D01*
D12*
X134750000Y-93200000D02*
X134750000Y-102250000D01*
D15*
X131500000Y-92450000D02*
X132300000Y-92450000D01*
X132400000Y-103700000D02*
X131400000Y-103700000D01*
%TO.C,R1*%
X153096359Y-119480000D02*
X153403641Y-119480000D01*
X153096359Y-118720000D02*
X153403641Y-118720000D01*
%TO.C,C3*%
X154010000Y-112159420D02*
X154010000Y-112440580D01*
X152990000Y-112159420D02*
X152990000Y-112440580D01*
%TO.C,R2*%
X145553641Y-113420000D02*
X145246359Y-113420000D01*
X145553641Y-114180000D02*
X145246359Y-114180000D01*
%TO.C,C4*%
X154592164Y-110360000D02*
X154807836Y-110360000D01*
X154592164Y-109640000D02*
X154807836Y-109640000D01*
%TO.C,J3*%
X136990000Y-112615000D02*
X138040000Y-112615000D01*
X138040000Y-112615000D02*
X138040000Y-111625000D01*
X143210000Y-112615000D02*
X142160000Y-112615000D01*
X136990000Y-115115000D02*
X136990000Y-112615000D01*
X143210000Y-115115000D02*
X143210000Y-112615000D01*
X138160000Y-117085000D02*
X142040000Y-117085000D01*
%TO.C,C2*%
X137910000Y-96488748D02*
X137910000Y-97911252D01*
X136090000Y-96488748D02*
X136090000Y-97911252D01*
%TO.C,C6*%
X159990000Y-97411252D02*
X159990000Y-95988748D01*
X161810000Y-97411252D02*
X161810000Y-95988748D01*
%TO.C,Q2*%
X162720000Y-98170000D02*
X162720000Y-101000000D01*
X162450000Y-98170000D02*
X162720000Y-98170000D01*
X169350000Y-98170000D02*
X169080000Y-98170000D01*
X169350000Y-96670000D02*
X169350000Y-98170000D01*
X162450000Y-96670000D02*
X162450000Y-98170000D01*
X169080000Y-98170000D02*
X169080000Y-99270000D01*
%TO.C,R4*%
X155853641Y-108280000D02*
X155546359Y-108280000D01*
X155853641Y-107520000D02*
X155546359Y-107520000D01*
%TO.C,D1*%
X160010000Y-100475000D02*
X160010000Y-104725000D01*
X155200000Y-104725000D02*
X160010000Y-104725000D01*
X160010000Y-100475000D02*
X155200000Y-100475000D01*
%TO.C,Q1*%
X141680000Y-109380000D02*
X140580000Y-109380000D01*
X141680000Y-102750000D02*
X141680000Y-103020000D01*
X143180000Y-102750000D02*
X141680000Y-102750000D01*
X141680000Y-103020000D02*
X138850000Y-103020000D01*
X143180000Y-109650000D02*
X141680000Y-109650000D01*
X141680000Y-109650000D02*
X141680000Y-109380000D01*
%TO.C,R10*%
X161553641Y-115820000D02*
X161246359Y-115820000D01*
X161553641Y-116580000D02*
X161246359Y-116580000D01*
%TD*%
%LPC*%
D16*
%TO.C,UR1*%
X149050000Y-113750000D03*
X149050000Y-113100000D03*
X149050000Y-112450000D03*
X147150000Y-112450000D03*
X147150000Y-113100000D03*
X147150000Y-113750000D03*
%TD*%
D17*
%TO.C,R7*%
X160925000Y-110500000D03*
X162750000Y-110500000D03*
%TD*%
D18*
%TO.C,J4*%
X146700000Y-115900000D03*
X147700000Y-115900000D03*
X148700000Y-115900000D03*
X149700000Y-115900000D03*
D19*
X145400000Y-119775000D03*
X151000000Y-119775000D03*
%TD*%
D20*
%TO.C,J2*%
X157100000Y-86700000D03*
X162100000Y-86700000D03*
%TD*%
D21*
%TO.C,C9*%
X160225000Y-107400000D03*
X163175000Y-107400000D03*
%TD*%
D22*
%TO.C,L1*%
X140275000Y-95700000D03*
X151525000Y-95700000D03*
%TD*%
D23*
%TO.C,C7*%
X158150000Y-98175000D03*
X158150000Y-95225000D03*
%TD*%
D24*
%TO.C,C5*%
X156675000Y-120200000D03*
X155125000Y-120200000D03*
%TD*%
D25*
%TO.C,R9*%
X136100000Y-103837500D03*
X136100000Y-106762500D03*
%TD*%
D26*
%TO.C,REF\u002A\u002A*%
X150000000Y-80000000D03*
%TD*%
D27*
%TO.C,R5*%
X160900000Y-114725000D03*
X160900000Y-113075000D03*
%TD*%
D28*
%TO.C,C1*%
X132800000Y-89300000D03*
X137200000Y-89300000D03*
%TD*%
D29*
%TO.C,C10*%
X150300000Y-113880000D03*
X150300000Y-112920000D03*
%TD*%
D30*
%TO.C,U1*%
X157100000Y-114700000D03*
D31*
X154825000Y-117562500D03*
X155475000Y-117562500D03*
X156125000Y-117562500D03*
X156775000Y-117562500D03*
X157425000Y-117562500D03*
X158075000Y-117562500D03*
X158725000Y-117562500D03*
X159375000Y-117562500D03*
X159375000Y-111837500D03*
X158725000Y-111837500D03*
X158075000Y-111837500D03*
X157425000Y-111837500D03*
X156775000Y-111837500D03*
X156125000Y-111837500D03*
X155475000Y-111837500D03*
X154825000Y-111837500D03*
%TD*%
D32*
%TO.C,R8*%
X152740000Y-120300000D03*
X153760000Y-120300000D03*
%TD*%
D33*
%TO.C,R6*%
X164362500Y-103700000D03*
X161437500Y-103700000D03*
%TD*%
D23*
%TO.C,C8*%
X155400000Y-98175000D03*
X155400000Y-95225000D03*
%TD*%
D20*
%TO.C,J1*%
X131900000Y-100800000D03*
X131900000Y-95800000D03*
%TD*%
D32*
%TO.C,R1*%
X152740000Y-119100000D03*
X153760000Y-119100000D03*
%TD*%
D34*
%TO.C,C3*%
X153500000Y-111525000D03*
X153500000Y-113075000D03*
%TD*%
D35*
%TO.C,R2*%
X145910000Y-113800000D03*
X144890000Y-113800000D03*
%TD*%
D36*
%TO.C,C4*%
X154220000Y-110000000D03*
X155180000Y-110000000D03*
%TD*%
D18*
%TO.C,J3*%
X138600000Y-112400000D03*
X139600000Y-112400000D03*
X140600000Y-112400000D03*
X141600000Y-112400000D03*
D19*
X142900000Y-116275000D03*
X137300000Y-116275000D03*
%TD*%
D37*
%TO.C,C2*%
X137000000Y-95725000D03*
X137000000Y-98675000D03*
%TD*%
D23*
%TO.C,C6*%
X160900000Y-98175000D03*
X160900000Y-95225000D03*
%TD*%
D38*
%TO.C,Q2*%
X163620000Y-99900000D03*
D39*
X165900000Y-93600000D03*
D38*
X168180000Y-99900000D03*
%TD*%
D26*
%TO.C,REF\u002A\u002A*%
X169000000Y-106500000D03*
%TD*%
D35*
%TO.C,R4*%
X156210000Y-107900000D03*
X155190000Y-107900000D03*
%TD*%
D40*
%TO.C,D1*%
X157320000Y-102600000D03*
D41*
X153338000Y-101680000D03*
X153338000Y-103520000D03*
%TD*%
D42*
%TO.C,Q1*%
X139950000Y-103920000D03*
D43*
X146250000Y-106200000D03*
D42*
X139950000Y-108480000D03*
%TD*%
D35*
%TO.C,R10*%
X161910000Y-116200000D03*
X160890000Y-116200000D03*
%TD*%
M02*
