M48
; DRILL file {KiCad (6.0.9)} date Thu Feb  2 11:01:19 2023
; FORMAT={-:-/ absolute / metric / decimal}
; #@! TF.CreationDate,2023-02-02T11:01:19+01:00
; #@! TF.GenerationSoftware,Kicad,Pcbnew,(6.0.9)
; #@! TF.FileFunction,Plated,1,6,PTH
FMAT,2
METRIC
; #@! TA.AperFunction,Plated,PTH,ViaDrill
T1C0.200
; #@! TA.AperFunction,Plated,PTH,ComponentDrill
T2C0.300
; #@! TA.AperFunction,Plated,PTH,ViaDrill
T3C0.400
; #@! TA.AperFunction,Plated,PTH,ComponentDrill
T4C2.500
%
G90
G05
T1
X144.9Y-112.8
X145.7Y-112.7
X147.7Y-117.3
X153.5Y-116.6
T2
X155.6Y-113.95
X155.6Y-115.45
X157.1Y-113.95
X157.1Y-115.45
X158.6Y-113.95
X158.6Y-115.45
T3
X128.5Y-97.0
X129.0Y-105.0
X129.5Y-107.0
X130.0Y-92.0
X131.0Y-110.5
X133.0Y-113.0
X134.5Y-103.75
X135.0Y-112.25
X135.25Y-98.25
X135.25Y-99.25
X135.25Y-102.5
X135.75Y-83.75
X136.0Y-100.0
X136.25Y-87.75
X136.25Y-90.75
X136.75Y-110.0
X137.0Y-100.0
X137.0Y-102.5
X137.25Y-87.75
X137.25Y-90.75
X137.75Y-103.75
X138.0Y-100.0
X138.25Y-87.75
X138.25Y-90.75
X138.5Y-110.5
X138.7Y-105.6
X138.75Y-99.25
X139.25Y-87.75
X139.25Y-90.75
X139.5Y-86.25
X139.5Y-88.75
X139.5Y-89.75
X139.75Y-81.5
X139.9Y-105.5
X140.0Y-101.5
X142.5Y-87.5
X142.6Y-82.3
X142.6Y-111.7
X143.25Y-79.75
X143.25Y-90.0
X143.25Y-93.5
X143.25Y-96.75
X143.25Y-99.75
X146.7Y-82.5
X146.9Y-117.9
X148.2Y-99.7
X148.25Y-93.5
X148.25Y-96.75
X149.25Y-87.5
X149.25Y-90.0
X150.7Y-115.9
X151.3Y-112.9
X152.0Y-110.4
X152.3Y-111.5
X152.75Y-118.0
X152.75Y-121.25
X153.0Y-83.0
X153.0Y-86.25
X153.1Y-109.95
X153.2Y-115.8
X153.5Y-79.0
X153.5Y-114.25
X154.5Y-93.0
X154.5Y-94.0
X154.75Y-106.5
X155.5Y-92.0
X155.5Y-93.0
X155.5Y-94.0
X156.219Y-119.016
X156.225Y-110.314
X156.5Y-93.0
X156.5Y-94.0
X156.514Y-91.995
X157.5Y-93.0
X157.5Y-94.0
X157.5Y-106.5
X158.2Y-119.3
X158.25Y-80.25
X158.5Y-91.995
X158.5Y-93.0
X158.5Y-94.0
X159.4Y-119.3
X159.5Y-92.0
X159.5Y-93.0
X159.5Y-94.0
X160.5Y-93.0
X160.5Y-94.0
X160.5Y-119.0
X161.4Y-107.3
X161.5Y-93.0
X161.5Y-94.0
X161.9Y-106.2
X162.1Y-113.0
X162.5Y-114.75
X162.8Y-116.2
X163.0Y-82.75
X163.175Y-106.025
X163.2Y-113.0
X163.25Y-108.75
X165.0Y-115.5
X165.1Y-112.8
X165.5Y-98.75
X165.6Y-99.85
X165.6Y-105.5
X166.5Y-104.2
X166.9Y-109.8
X167.0Y-113.0
X167.25Y-87.5
X168.6Y-103.1
X168.75Y-110.25
X170.25Y-93.25
X171.0Y-96.5
X171.25Y-103.5
X171.5Y-99.75
T4
X131.9Y-95.8
X131.9Y-100.8
X157.1Y-86.7
X162.1Y-86.7
T0
M30
