%TF.GenerationSoftware,KiCad,Pcbnew,(6.0.9)*%
%TF.CreationDate,2023-02-03T10:43:04+01:00*%
%TF.ProjectId,ESPBoard,45535042-6f61-4726-942e-6b696361645f,rev?*%
%TF.SameCoordinates,Original*%
%TF.FileFunction,Legend,Bot*%
%TF.FilePolarity,Positive*%
%FSLAX46Y46*%
G04 Gerber Fmt 4.6, Leading zero omitted, Abs format (unit mm)*
G04 Created by KiCad (PCBNEW (6.0.9)) date 2023-02-03 10:43:04*
%MOMM*%
%LPD*%
G01*
G04 APERTURE LIST*
G04 Aperture macros list*
%AMRoundRect*
0 Rectangle with rounded corners*
0 $1 Rounding radius*
0 $2 $3 $4 $5 $6 $7 $8 $9 X,Y pos of 4 corners*
0 Add a 4 corners polygon primitive as box body*
4,1,4,$2,$3,$4,$5,$6,$7,$8,$9,$2,$3,0*
0 Add four circle primitives for the rounded corners*
1,1,$1+$1,$2,$3*
1,1,$1+$1,$4,$5*
1,1,$1+$1,$6,$7*
1,1,$1+$1,$8,$9*
0 Add four rect primitives between the rounded corners*
20,1,$1+$1,$2,$3,$4,$5,0*
20,1,$1+$1,$4,$5,$6,$7,0*
20,1,$1+$1,$6,$7,$8,$9,0*
20,1,$1+$1,$8,$9,$2,$3,0*%
G04 Aperture macros list end*
%ADD10C,0.160000*%
%ADD11C,0.120000*%
%ADD12C,0.600000*%
%ADD13RoundRect,0.225000X0.250000X-0.225000X0.250000X0.225000X-0.250000X0.225000X-0.250000X-0.225000X0*%
%ADD14RoundRect,0.150000X0.150000X0.625000X-0.150000X0.625000X-0.150000X-0.625000X0.150000X-0.625000X0*%
%ADD15RoundRect,0.250000X0.350000X0.650000X-0.350000X0.650000X-0.350000X-0.650000X0.350000X-0.650000X0*%
%ADD16RoundRect,0.135000X-0.185000X0.135000X-0.185000X-0.135000X0.185000X-0.135000X0.185000X0.135000X0*%
%ADD17RoundRect,0.250000X0.475000X-0.250000X0.475000X0.250000X-0.475000X0.250000X-0.475000X-0.250000X0*%
%ADD18RoundRect,0.135000X-0.135000X-0.185000X0.135000X-0.185000X0.135000X0.185000X-0.135000X0.185000X0*%
%ADD19RoundRect,0.135000X0.185000X-0.135000X0.185000X0.135000X-0.185000X0.135000X-0.185000X-0.135000X0*%
%ADD20R,2.100000X0.750000*%
%ADD21RoundRect,0.135000X0.135000X0.185000X-0.135000X0.185000X-0.135000X-0.185000X0.135000X-0.185000X0*%
%ADD22R,0.650000X1.800000*%
G04 APERTURE END LIST*
D10*
X152661904Y-98804761D02*
X152519047Y-98852380D01*
X152280952Y-98852380D01*
X152185714Y-98804761D01*
X152138095Y-98757142D01*
X152090476Y-98661904D01*
X152090476Y-98566666D01*
X152138095Y-98471428D01*
X152185714Y-98423809D01*
X152280952Y-98376190D01*
X152471428Y-98328571D01*
X152566666Y-98280952D01*
X152614285Y-98233333D01*
X152661904Y-98138095D01*
X152661904Y-98042857D01*
X152614285Y-97947619D01*
X152566666Y-97900000D01*
X152471428Y-97852380D01*
X152233333Y-97852380D01*
X152090476Y-97900000D01*
X151709523Y-97947619D02*
X151661904Y-97900000D01*
X151566666Y-97852380D01*
X151328571Y-97852380D01*
X151233333Y-97900000D01*
X151185714Y-97947619D01*
X151138095Y-98042857D01*
X151138095Y-98138095D01*
X151185714Y-98280952D01*
X151757142Y-98852380D01*
X151138095Y-98852380D01*
X149423809Y-101952380D02*
X149328571Y-101952380D01*
X149233333Y-102000000D01*
X149185714Y-102047619D01*
X149138095Y-102142857D01*
X149090476Y-102333333D01*
X149090476Y-102571428D01*
X149138095Y-102761904D01*
X149185714Y-102857142D01*
X149233333Y-102904761D01*
X149328571Y-102952380D01*
X149423809Y-102952380D01*
X149519047Y-102904761D01*
X149566666Y-102857142D01*
X149614285Y-102761904D01*
X149661904Y-102571428D01*
X149661904Y-102333333D01*
X149614285Y-102142857D01*
X149566666Y-102047619D01*
X149519047Y-102000000D01*
X149423809Y-101952380D01*
X148138095Y-102952380D02*
X148709523Y-102952380D01*
X148423809Y-102952380D02*
X148423809Y-101952380D01*
X148519047Y-102095238D01*
X148614285Y-102190476D01*
X148709523Y-102238095D01*
X155273809Y-101952380D02*
X155178571Y-101952380D01*
X155083333Y-102000000D01*
X155035714Y-102047619D01*
X154988095Y-102142857D01*
X154940476Y-102333333D01*
X154940476Y-102571428D01*
X154988095Y-102761904D01*
X155035714Y-102857142D01*
X155083333Y-102904761D01*
X155178571Y-102952380D01*
X155273809Y-102952380D01*
X155369047Y-102904761D01*
X155416666Y-102857142D01*
X155464285Y-102761904D01*
X155511904Y-102571428D01*
X155511904Y-102333333D01*
X155464285Y-102142857D01*
X155416666Y-102047619D01*
X155369047Y-102000000D01*
X155273809Y-101952380D01*
X153988095Y-102952380D02*
X154559523Y-102952380D01*
X154273809Y-102952380D02*
X154273809Y-101952380D01*
X154369047Y-102095238D01*
X154464285Y-102190476D01*
X154559523Y-102238095D01*
X149761904Y-98804761D02*
X149619047Y-98852380D01*
X149380952Y-98852380D01*
X149285714Y-98804761D01*
X149238095Y-98757142D01*
X149190476Y-98661904D01*
X149190476Y-98566666D01*
X149238095Y-98471428D01*
X149285714Y-98423809D01*
X149380952Y-98376190D01*
X149571428Y-98328571D01*
X149666666Y-98280952D01*
X149714285Y-98233333D01*
X149761904Y-98138095D01*
X149761904Y-98042857D01*
X149714285Y-97947619D01*
X149666666Y-97900000D01*
X149571428Y-97852380D01*
X149333333Y-97852380D01*
X149190476Y-97900000D01*
X148857142Y-97852380D02*
X148238095Y-97852380D01*
X148571428Y-98233333D01*
X148428571Y-98233333D01*
X148333333Y-98280952D01*
X148285714Y-98328571D01*
X148238095Y-98423809D01*
X148238095Y-98661904D01*
X148285714Y-98757142D01*
X148333333Y-98804761D01*
X148428571Y-98852380D01*
X148714285Y-98852380D01*
X148809523Y-98804761D01*
X148857142Y-98757142D01*
X155511904Y-98804761D02*
X155369047Y-98852380D01*
X155130952Y-98852380D01*
X155035714Y-98804761D01*
X154988095Y-98757142D01*
X154940476Y-98661904D01*
X154940476Y-98566666D01*
X154988095Y-98471428D01*
X155035714Y-98423809D01*
X155130952Y-98376190D01*
X155321428Y-98328571D01*
X155416666Y-98280952D01*
X155464285Y-98233333D01*
X155511904Y-98138095D01*
X155511904Y-98042857D01*
X155464285Y-97947619D01*
X155416666Y-97900000D01*
X155321428Y-97852380D01*
X155083333Y-97852380D01*
X154940476Y-97900000D01*
X153988095Y-98852380D02*
X154559523Y-98852380D01*
X154273809Y-98852380D02*
X154273809Y-97852380D01*
X154369047Y-97995238D01*
X154464285Y-98090476D01*
X154559523Y-98138095D01*
X152323809Y-101952380D02*
X152228571Y-101952380D01*
X152133333Y-102000000D01*
X152085714Y-102047619D01*
X152038095Y-102142857D01*
X151990476Y-102333333D01*
X151990476Y-102571428D01*
X152038095Y-102761904D01*
X152085714Y-102857142D01*
X152133333Y-102904761D01*
X152228571Y-102952380D01*
X152323809Y-102952380D01*
X152419047Y-102904761D01*
X152466666Y-102857142D01*
X152514285Y-102761904D01*
X152561904Y-102571428D01*
X152561904Y-102333333D01*
X152514285Y-102142857D01*
X152466666Y-102047619D01*
X152419047Y-102000000D01*
X152323809Y-101952380D01*
X151038095Y-102952380D02*
X151609523Y-102952380D01*
X151323809Y-102952380D02*
X151323809Y-101952380D01*
X151419047Y-102095238D01*
X151514285Y-102190476D01*
X151609523Y-102238095D01*
D11*
%TO.C,C401*%
X134510000Y-93390580D02*
X134510000Y-93109420D01*
X133490000Y-93390580D02*
X133490000Y-93109420D01*
%TO.C,J204*%
X147060000Y-114415000D02*
X147060000Y-113425000D01*
X146940000Y-118885000D02*
X143060000Y-118885000D01*
X141890000Y-116915000D02*
X141890000Y-114415000D01*
X141890000Y-114415000D02*
X142940000Y-114415000D01*
X148110000Y-114415000D02*
X147060000Y-114415000D01*
X148110000Y-116915000D02*
X148110000Y-114415000D01*
%TO.C,R410*%
X161120000Y-86596359D02*
X161120000Y-86903641D01*
X161880000Y-86596359D02*
X161880000Y-86903641D01*
%TO.C,C301*%
X143015000Y-88011252D02*
X143015000Y-87488748D01*
X144485000Y-88011252D02*
X144485000Y-87488748D01*
%TO.C,R319*%
X156846359Y-100130000D02*
X157153641Y-100130000D01*
X156846359Y-99370000D02*
X157153641Y-99370000D01*
%TO.C,R303*%
X153846359Y-110220000D02*
X154153641Y-110220000D01*
X153846359Y-110980000D02*
X154153641Y-110980000D01*
%TO.C,R307*%
X149880000Y-100403641D02*
X149880000Y-100096359D01*
X149120000Y-100403641D02*
X149120000Y-100096359D01*
%TO.C,R317*%
X148120000Y-100096359D02*
X148120000Y-100403641D01*
X148880000Y-100096359D02*
X148880000Y-100403641D01*
%TO.C,R407*%
X162030000Y-91246359D02*
X162030000Y-91553641D01*
X161270000Y-91246359D02*
X161270000Y-91553641D01*
%TO.C,J203*%
X129770000Y-103235000D02*
X129770000Y-103175000D01*
X132430000Y-103235000D02*
X132430000Y-103175000D01*
X129770000Y-103235000D02*
X132430000Y-103235000D01*
X129770000Y-96825000D02*
X129770000Y-96765000D01*
X132430000Y-96825000D02*
X132430000Y-96765000D01*
X129770000Y-96765000D02*
X132430000Y-96765000D01*
X132430000Y-103175000D02*
X133890000Y-103175000D01*
%TO.C,R402*%
X166146359Y-88620000D02*
X166453641Y-88620000D01*
X166146359Y-89380000D02*
X166453641Y-89380000D01*
%TO.C,R404*%
X169880000Y-95263641D02*
X169880000Y-94956359D01*
X169120000Y-95263641D02*
X169120000Y-94956359D01*
%TO.C,J207*%
X158110000Y-114415000D02*
X157060000Y-114415000D01*
X158110000Y-116915000D02*
X158110000Y-114415000D01*
X151890000Y-114415000D02*
X152940000Y-114415000D01*
X151890000Y-116915000D02*
X151890000Y-114415000D01*
X156940000Y-118885000D02*
X153060000Y-118885000D01*
X157060000Y-114415000D02*
X157060000Y-113425000D01*
%TO.C,R408*%
X164153641Y-92480000D02*
X163846359Y-92480000D01*
X164153641Y-91720000D02*
X163846359Y-91720000D01*
%TO.C,J201*%
X170230000Y-103175000D02*
X171690000Y-103175000D01*
X167570000Y-103235000D02*
X167570000Y-103175000D01*
X167570000Y-96825000D02*
X167570000Y-96765000D01*
X167570000Y-103235000D02*
X170230000Y-103235000D01*
X167570000Y-96765000D02*
X170230000Y-96765000D01*
X170230000Y-96825000D02*
X170230000Y-96765000D01*
X170230000Y-103235000D02*
X170230000Y-103175000D01*
%TO.C,R305*%
X154870000Y-100403641D02*
X154870000Y-100096359D01*
X155630000Y-100403641D02*
X155630000Y-100096359D01*
%TO.C,C403*%
X133490000Y-90140580D02*
X133490000Y-89859420D01*
X134510000Y-90140580D02*
X134510000Y-89859420D01*
%TO.C,R316*%
X151680000Y-100096359D02*
X151680000Y-100403641D01*
X150920000Y-100096359D02*
X150920000Y-100403641D01*
%TO.C,R306*%
X151920000Y-100403641D02*
X151920000Y-100096359D01*
X152680000Y-100403641D02*
X152680000Y-100096359D01*
%TO.C,R315*%
X154630000Y-100096359D02*
X154630000Y-100403641D01*
X153870000Y-100096359D02*
X153870000Y-100403641D01*
%TO.C,R318*%
X156846359Y-100620000D02*
X157153641Y-100620000D01*
X156846359Y-101380000D02*
X157153641Y-101380000D01*
%TO.C,R411*%
X164163641Y-87130000D02*
X163856359Y-87130000D01*
X164163641Y-86370000D02*
X163856359Y-86370000D01*
%TO.C,C404*%
X138260000Y-90140580D02*
X138260000Y-89859420D01*
X137240000Y-90140580D02*
X137240000Y-89859420D01*
%TO.C,J202*%
X158505000Y-110960000D02*
X158505000Y-109040000D01*
X158505000Y-109040000D02*
X156950000Y-109040000D01*
X155495000Y-110960000D02*
X155495000Y-109040000D01*
X158505000Y-110960000D02*
X158220000Y-110960000D01*
X155780000Y-109040000D02*
X155495000Y-109040000D01*
X157050000Y-110960000D02*
X155495000Y-110960000D01*
X158220000Y-112190000D02*
X158220000Y-110960000D01*
%TO.C,J206*%
X148045000Y-87540000D02*
X149415000Y-87540000D01*
X153125000Y-87540000D02*
X153410000Y-87540000D01*
X150585000Y-87540000D02*
X151955000Y-87540000D01*
X146590000Y-87540000D02*
X146590000Y-89460000D01*
X146875000Y-86310000D02*
X146875000Y-87540000D01*
X146590000Y-87540000D02*
X146875000Y-87540000D01*
X146590000Y-89460000D02*
X148145000Y-89460000D01*
X149315000Y-89460000D02*
X150685000Y-89460000D01*
X151855000Y-89460000D02*
X153410000Y-89460000D01*
X153410000Y-87540000D02*
X153410000Y-89460000D01*
%TO.C,R304*%
X153846359Y-109020000D02*
X154153641Y-109020000D01*
X153846359Y-109780000D02*
X154153641Y-109780000D01*
%TO.C,C402*%
X138260000Y-93390580D02*
X138260000Y-93109420D01*
X137240000Y-93390580D02*
X137240000Y-93109420D01*
%TO.C,R405*%
X166220000Y-94946359D02*
X166220000Y-95253641D01*
X166980000Y-94946359D02*
X166980000Y-95253641D01*
%TO.C,R401*%
X168146359Y-90120000D02*
X168453641Y-90120000D01*
X168146359Y-90880000D02*
X168453641Y-90880000D01*
%TD*%
%LPC*%
D12*
%TO.C,U301*%
X149200000Y-93360000D03*
X147100000Y-95460000D03*
X147800000Y-93360000D03*
X148500000Y-95460000D03*
X147800000Y-94760000D03*
X147100000Y-94060000D03*
X149200000Y-94760000D03*
X149200000Y-96160000D03*
X148500000Y-94060000D03*
X149900000Y-94060000D03*
X149900000Y-95460000D03*
X147800000Y-96160000D03*
%TD*%
D13*
%TO.C,C401*%
X134000000Y-94025000D03*
X134000000Y-92475000D03*
%TD*%
D14*
%TO.C,J204*%
X146500000Y-114200000D03*
X145500000Y-114200000D03*
X144500000Y-114200000D03*
X143500000Y-114200000D03*
D15*
X147800000Y-118075000D03*
X142200000Y-118075000D03*
%TD*%
D16*
%TO.C,R410*%
X161500000Y-86240000D03*
X161500000Y-87260000D03*
%TD*%
D17*
%TO.C,C301*%
X143750000Y-88700000D03*
X143750000Y-86800000D03*
%TD*%
D18*
%TO.C,R319*%
X156490000Y-99750000D03*
X157510000Y-99750000D03*
%TD*%
%TO.C,R303*%
X153490000Y-110600000D03*
X154510000Y-110600000D03*
%TD*%
D19*
%TO.C,R307*%
X149500000Y-100760000D03*
X149500000Y-99740000D03*
%TD*%
D16*
%TO.C,R317*%
X148500000Y-99740000D03*
X148500000Y-100760000D03*
%TD*%
%TO.C,R407*%
X161650000Y-90890000D03*
X161650000Y-91910000D03*
%TD*%
D20*
%TO.C,J203*%
X132900000Y-102540000D03*
X129300000Y-102540000D03*
X132900000Y-101270000D03*
X129300000Y-101270000D03*
X132900000Y-100000000D03*
X129300000Y-100000000D03*
X132900000Y-98730000D03*
X129300000Y-98730000D03*
X132900000Y-97460000D03*
X129300000Y-97460000D03*
%TD*%
D18*
%TO.C,R402*%
X165790000Y-89000000D03*
X166810000Y-89000000D03*
%TD*%
D19*
%TO.C,R404*%
X169500000Y-95620000D03*
X169500000Y-94600000D03*
%TD*%
D14*
%TO.C,J207*%
X156500000Y-114200000D03*
X155500000Y-114200000D03*
X154500000Y-114200000D03*
X153500000Y-114200000D03*
D15*
X152200000Y-118075000D03*
X157800000Y-118075000D03*
%TD*%
D21*
%TO.C,R408*%
X164510000Y-92100000D03*
X163490000Y-92100000D03*
%TD*%
D20*
%TO.C,J201*%
X170700000Y-102540000D03*
X167100000Y-102540000D03*
X170700000Y-101270000D03*
X167100000Y-101270000D03*
X170700000Y-100000000D03*
X167100000Y-100000000D03*
X170700000Y-98730000D03*
X167100000Y-98730000D03*
X170700000Y-97460000D03*
X167100000Y-97460000D03*
%TD*%
D19*
%TO.C,R305*%
X155250000Y-100760000D03*
X155250000Y-99740000D03*
%TD*%
D13*
%TO.C,C403*%
X134000000Y-90775000D03*
X134000000Y-89225000D03*
%TD*%
D16*
%TO.C,R316*%
X151300000Y-99740000D03*
X151300000Y-100760000D03*
%TD*%
D19*
%TO.C,R306*%
X152300000Y-100760000D03*
X152300000Y-99740000D03*
%TD*%
D16*
%TO.C,R315*%
X154250000Y-99740000D03*
X154250000Y-100760000D03*
%TD*%
D18*
%TO.C,R318*%
X156490000Y-101000000D03*
X157510000Y-101000000D03*
%TD*%
D21*
%TO.C,R411*%
X164520000Y-86750000D03*
X163500000Y-86750000D03*
%TD*%
D13*
%TO.C,C404*%
X137750000Y-90775000D03*
X137750000Y-89225000D03*
%TD*%
D22*
%TO.C,J202*%
X157635000Y-111350000D03*
X156365000Y-108650000D03*
%TD*%
%TO.C,J206*%
X147460000Y-87150000D03*
X148730000Y-89850000D03*
X150000000Y-87150000D03*
X151270000Y-89850000D03*
X152540000Y-87150000D03*
%TD*%
D18*
%TO.C,R304*%
X153490000Y-109400000D03*
X154510000Y-109400000D03*
%TD*%
D13*
%TO.C,C402*%
X137750000Y-94025000D03*
X137750000Y-92475000D03*
%TD*%
D16*
%TO.C,R405*%
X166600000Y-94590000D03*
X166600000Y-95610000D03*
%TD*%
D18*
%TO.C,R401*%
X167790000Y-90500000D03*
X168810000Y-90500000D03*
%TD*%
M02*
