%TF.GenerationSoftware,KiCad,Pcbnew,(6.0.9)*%
%TF.CreationDate,2023-02-03T10:43:04+01:00*%
%TF.ProjectId,ESPBoard,45535042-6f61-4726-942e-6b696361645f,rev?*%
%TF.SameCoordinates,Original*%
%TF.FileFunction,Soldermask,Bot*%
%TF.FilePolarity,Negative*%
%FSLAX46Y46*%
G04 Gerber Fmt 4.6, Leading zero omitted, Abs format (unit mm)*
G04 Created by KiCad (PCBNEW (6.0.9)) date 2023-02-03 10:43:04*
%MOMM*%
%LPD*%
G01*
G04 APERTURE LIST*
G04 Aperture macros list*
%AMRoundRect*
0 Rectangle with rounded corners*
0 $1 Rounding radius*
0 $2 $3 $4 $5 $6 $7 $8 $9 X,Y pos of 4 corners*
0 Add a 4 corners polygon primitive as box body*
4,1,4,$2,$3,$4,$5,$6,$7,$8,$9,$2,$3,0*
0 Add four circle primitives for the rounded corners*
1,1,$1+$1,$2,$3*
1,1,$1+$1,$4,$5*
1,1,$1+$1,$6,$7*
1,1,$1+$1,$8,$9*
0 Add four rect primitives between the rounded corners*
20,1,$1+$1,$2,$3,$4,$5,0*
20,1,$1+$1,$4,$5,$6,$7,0*
20,1,$1+$1,$6,$7,$8,$9,0*
20,1,$1+$1,$8,$9,$2,$3,0*%
G04 Aperture macros list end*
%ADD10C,0.600000*%
%ADD11RoundRect,0.225000X0.250000X-0.225000X0.250000X0.225000X-0.250000X0.225000X-0.250000X-0.225000X0*%
%ADD12RoundRect,0.150000X0.150000X0.625000X-0.150000X0.625000X-0.150000X-0.625000X0.150000X-0.625000X0*%
%ADD13RoundRect,0.250000X0.350000X0.650000X-0.350000X0.650000X-0.350000X-0.650000X0.350000X-0.650000X0*%
%ADD14RoundRect,0.135000X-0.185000X0.135000X-0.185000X-0.135000X0.185000X-0.135000X0.185000X0.135000X0*%
%ADD15RoundRect,0.250000X0.475000X-0.250000X0.475000X0.250000X-0.475000X0.250000X-0.475000X-0.250000X0*%
%ADD16RoundRect,0.135000X-0.135000X-0.185000X0.135000X-0.185000X0.135000X0.185000X-0.135000X0.185000X0*%
%ADD17RoundRect,0.135000X0.185000X-0.135000X0.185000X0.135000X-0.185000X0.135000X-0.185000X-0.135000X0*%
%ADD18R,2.100000X0.750000*%
%ADD19RoundRect,0.135000X0.135000X0.185000X-0.135000X0.185000X-0.135000X-0.185000X0.135000X-0.185000X0*%
%ADD20R,0.650000X1.800000*%
G04 APERTURE END LIST*
D10*
%TO.C,U301*%
X149200000Y-93360000D03*
X147100000Y-95460000D03*
X147800000Y-93360000D03*
X148500000Y-95460000D03*
X147800000Y-94760000D03*
X147100000Y-94060000D03*
X149200000Y-94760000D03*
X149200000Y-96160000D03*
X148500000Y-94060000D03*
X149900000Y-94060000D03*
X149900000Y-95460000D03*
X147800000Y-96160000D03*
%TD*%
D11*
%TO.C,C401*%
X134000000Y-94025000D03*
X134000000Y-92475000D03*
%TD*%
D12*
%TO.C,J204*%
X146500000Y-114200000D03*
X145500000Y-114200000D03*
X144500000Y-114200000D03*
X143500000Y-114200000D03*
D13*
X147800000Y-118075000D03*
X142200000Y-118075000D03*
%TD*%
D14*
%TO.C,R410*%
X161500000Y-86240000D03*
X161500000Y-87260000D03*
%TD*%
D15*
%TO.C,C301*%
X143750000Y-88700000D03*
X143750000Y-86800000D03*
%TD*%
D16*
%TO.C,R319*%
X156490000Y-99750000D03*
X157510000Y-99750000D03*
%TD*%
%TO.C,R303*%
X153490000Y-110600000D03*
X154510000Y-110600000D03*
%TD*%
D17*
%TO.C,R307*%
X149500000Y-100760000D03*
X149500000Y-99740000D03*
%TD*%
D14*
%TO.C,R317*%
X148500000Y-99740000D03*
X148500000Y-100760000D03*
%TD*%
%TO.C,R407*%
X161650000Y-90890000D03*
X161650000Y-91910000D03*
%TD*%
D18*
%TO.C,J203*%
X132900000Y-102540000D03*
X129300000Y-102540000D03*
X132900000Y-101270000D03*
X129300000Y-101270000D03*
X132900000Y-100000000D03*
X129300000Y-100000000D03*
X132900000Y-98730000D03*
X129300000Y-98730000D03*
X132900000Y-97460000D03*
X129300000Y-97460000D03*
%TD*%
D16*
%TO.C,R402*%
X165790000Y-89000000D03*
X166810000Y-89000000D03*
%TD*%
D17*
%TO.C,R404*%
X169500000Y-95620000D03*
X169500000Y-94600000D03*
%TD*%
D12*
%TO.C,J207*%
X156500000Y-114200000D03*
X155500000Y-114200000D03*
X154500000Y-114200000D03*
X153500000Y-114200000D03*
D13*
X152200000Y-118075000D03*
X157800000Y-118075000D03*
%TD*%
D19*
%TO.C,R408*%
X164510000Y-92100000D03*
X163490000Y-92100000D03*
%TD*%
D18*
%TO.C,J201*%
X170700000Y-102540000D03*
X167100000Y-102540000D03*
X170700000Y-101270000D03*
X167100000Y-101270000D03*
X170700000Y-100000000D03*
X167100000Y-100000000D03*
X170700000Y-98730000D03*
X167100000Y-98730000D03*
X170700000Y-97460000D03*
X167100000Y-97460000D03*
%TD*%
D17*
%TO.C,R305*%
X155250000Y-100760000D03*
X155250000Y-99740000D03*
%TD*%
D11*
%TO.C,C403*%
X134000000Y-90775000D03*
X134000000Y-89225000D03*
%TD*%
D14*
%TO.C,R316*%
X151300000Y-99740000D03*
X151300000Y-100760000D03*
%TD*%
D17*
%TO.C,R306*%
X152300000Y-100760000D03*
X152300000Y-99740000D03*
%TD*%
D14*
%TO.C,R315*%
X154250000Y-99740000D03*
X154250000Y-100760000D03*
%TD*%
D16*
%TO.C,R318*%
X156490000Y-101000000D03*
X157510000Y-101000000D03*
%TD*%
D19*
%TO.C,R411*%
X164520000Y-86750000D03*
X163500000Y-86750000D03*
%TD*%
D11*
%TO.C,C404*%
X137750000Y-90775000D03*
X137750000Y-89225000D03*
%TD*%
D20*
%TO.C,J202*%
X157635000Y-111350000D03*
X156365000Y-108650000D03*
%TD*%
%TO.C,J206*%
X147460000Y-87150000D03*
X148730000Y-89850000D03*
X150000000Y-87150000D03*
X151270000Y-89850000D03*
X152540000Y-87150000D03*
%TD*%
D16*
%TO.C,R304*%
X153490000Y-109400000D03*
X154510000Y-109400000D03*
%TD*%
D11*
%TO.C,C402*%
X137750000Y-94025000D03*
X137750000Y-92475000D03*
%TD*%
D14*
%TO.C,R405*%
X166600000Y-94590000D03*
X166600000Y-95610000D03*
%TD*%
D16*
%TO.C,R401*%
X167790000Y-90500000D03*
X168810000Y-90500000D03*
%TD*%
M02*
