%TF.GenerationSoftware,KiCad,Pcbnew,(6.0.9)*%
%TF.CreationDate,2023-02-02T10:43:15+01:00*%
%TF.ProjectId,ESPBoard,45535042-6f61-4726-942e-6b696361645f,rev?*%
%TF.SameCoordinates,Original*%
%TF.FileFunction,Copper,L1,Top*%
%TF.FilePolarity,Positive*%
%FSLAX46Y46*%
G04 Gerber Fmt 4.6, Leading zero omitted, Abs format (unit mm)*
G04 Created by KiCad (PCBNEW (6.0.9)) date 2023-02-02 10:43:15*
%MOMM*%
%LPD*%
G01*
G04 APERTURE LIST*
G04 Aperture macros list*
%AMRoundRect*
0 Rectangle with rounded corners*
0 $1 Rounding radius*
0 $2 $3 $4 $5 $6 $7 $8 $9 X,Y pos of 4 corners*
0 Add a 4 corners polygon primitive as box body*
4,1,4,$2,$3,$4,$5,$6,$7,$8,$9,$2,$3,0*
0 Add four circle primitives for the rounded corners*
1,1,$1+$1,$2,$3*
1,1,$1+$1,$4,$5*
1,1,$1+$1,$6,$7*
1,1,$1+$1,$8,$9*
0 Add four rect primitives between the rounded corners*
20,1,$1+$1,$2,$3,$4,$5,0*
20,1,$1+$1,$4,$5,$6,$7,0*
20,1,$1+$1,$6,$7,$8,$9,0*
20,1,$1+$1,$8,$9,$2,$3,0*%
G04 Aperture macros list end*
%TA.AperFunction,SMDPad,CuDef*%
%ADD10R,1.500000X0.900000*%
%TD*%
%TA.AperFunction,SMDPad,CuDef*%
%ADD11R,0.900000X1.500000*%
%TD*%
%TA.AperFunction,SMDPad,CuDef*%
%ADD12R,0.900000X0.900000*%
%TD*%
%TA.AperFunction,ComponentPad*%
%ADD13C,0.600000*%
%TD*%
%TA.AperFunction,SMDPad,CuDef*%
%ADD14RoundRect,0.250000X-0.450000X0.262500X-0.450000X-0.262500X0.450000X-0.262500X0.450000X0.262500X0*%
%TD*%
%TA.AperFunction,SMDPad,CuDef*%
%ADD15R,0.500000X0.700000*%
%TD*%
%TA.AperFunction,SMDPad,CuDef*%
%ADD16R,0.400000X0.700000*%
%TD*%
%TA.AperFunction,SMDPad,CuDef*%
%ADD17RoundRect,0.135000X-0.185000X0.135000X-0.185000X-0.135000X0.185000X-0.135000X0.185000X0.135000X0*%
%TD*%
%TA.AperFunction,SMDPad,CuDef*%
%ADD18RoundRect,0.135000X0.135000X0.185000X-0.135000X0.185000X-0.135000X-0.185000X0.135000X-0.185000X0*%
%TD*%
%TA.AperFunction,SMDPad,CuDef*%
%ADD19R,0.700000X0.600000*%
%TD*%
%TA.AperFunction,SMDPad,CuDef*%
%ADD20RoundRect,0.243750X-0.456250X0.243750X-0.456250X-0.243750X0.456250X-0.243750X0.456250X0.243750X0*%
%TD*%
%TA.AperFunction,SMDPad,CuDef*%
%ADD21RoundRect,0.135000X0.185000X-0.135000X0.185000X0.135000X-0.185000X0.135000X-0.185000X-0.135000X0*%
%TD*%
%TA.AperFunction,SMDPad,CuDef*%
%ADD22R,0.700000X0.400000*%
%TD*%
%TA.AperFunction,SMDPad,CuDef*%
%ADD23R,1.550000X1.300000*%
%TD*%
%TA.AperFunction,SMDPad,CuDef*%
%ADD24RoundRect,0.250000X0.450000X-0.262500X0.450000X0.262500X-0.450000X0.262500X-0.450000X-0.262500X0*%
%TD*%
%TA.AperFunction,SMDPad,CuDef*%
%ADD25R,0.740000X2.400000*%
%TD*%
%TA.AperFunction,SMDPad,CuDef*%
%ADD26RoundRect,0.250000X0.262500X0.450000X-0.262500X0.450000X-0.262500X-0.450000X0.262500X-0.450000X0*%
%TD*%
%TA.AperFunction,SMDPad,CuDef*%
%ADD27RoundRect,0.225000X0.250000X-0.225000X0.250000X0.225000X-0.250000X0.225000X-0.250000X-0.225000X0*%
%TD*%
%TA.AperFunction,SMDPad,CuDef*%
%ADD28RoundRect,0.135000X-0.135000X-0.185000X0.135000X-0.185000X0.135000X0.185000X-0.135000X0.185000X0*%
%TD*%
%TA.AperFunction,SMDPad,CuDef*%
%ADD29RoundRect,0.140000X0.170000X-0.140000X0.170000X0.140000X-0.170000X0.140000X-0.170000X-0.140000X0*%
%TD*%
%TA.AperFunction,SMDPad,CuDef*%
%ADD30R,0.700000X0.500000*%
%TD*%
%TA.AperFunction,ViaPad*%
%ADD31C,0.450000*%
%TD*%
%TA.AperFunction,ViaPad*%
%ADD32C,0.700000*%
%TD*%
%TA.AperFunction,Conductor*%
%ADD33C,0.300000*%
%TD*%
%TA.AperFunction,Conductor*%
%ADD34C,0.500000*%
%TD*%
%TA.AperFunction,Conductor*%
%ADD35C,0.200000*%
%TD*%
%TA.AperFunction,Conductor*%
%ADD36C,0.180000*%
%TD*%
G04 APERTURE END LIST*
D10*
%TO.P,U301,1,GND*%
%TO.N,GND*%
X141250000Y-87040000D03*
%TO.P,U301,2,3V3*%
%TO.N,+3V3*%
X141250000Y-88310000D03*
%TO.P,U301,3,EN*%
%TO.N,/P3 ESP32/CHIP_PU*%
X141250000Y-89580000D03*
%TO.P,U301,4,IO4*%
%TO.N,Cell4ADC*%
X141250000Y-90850000D03*
%TO.P,U301,5,IO5*%
%TO.N,Cell3ADC*%
X141250000Y-92120000D03*
%TO.P,U301,6,IO6*%
%TO.N,Cell2ADC*%
X141250000Y-93390000D03*
%TO.P,U301,7,IO7*%
%TO.N,Cell1ADC*%
X141250000Y-94660000D03*
%TO.P,U301,8,IO15*%
%TO.N,BQ_CMPOUT*%
X141250000Y-95930000D03*
%TO.P,U301,9,IO16*%
%TO.N,BQ_IADPT*%
X141250000Y-97200000D03*
%TO.P,U301,10,IO17*%
%TO.N,BQ_IBAT*%
X141250000Y-98470000D03*
%TO.P,U301,11,IO18*%
%TO.N,unconnected-(U301-Pad11)*%
X141250000Y-99740000D03*
%TO.P,U301,12,IO8*%
%TO.N,unconnected-(U301-Pad12)*%
X141250000Y-101010000D03*
%TO.P,U301,13,USB_D-*%
%TO.N,/P3 ESP32/USB_D-*%
X141250000Y-102280000D03*
%TO.P,U301,14,USB_D+*%
%TO.N,/P3 ESP32/USB_D+*%
X141250000Y-103550000D03*
D11*
%TO.P,U301,15,IO3*%
%TO.N,/P3 ESP32/Select 3*%
X143015000Y-104800000D03*
%TO.P,U301,16,IO46*%
%TO.N,/P3 ESP32/Select 2*%
X144285000Y-104800000D03*
%TO.P,U301,17,IO9*%
%TO.N,BQ_EN_OTG*%
X145555000Y-104800000D03*
%TO.P,U301,18,IO10*%
%TO.N,MAINLED_PWM*%
X146825000Y-104800000D03*
%TO.P,U301,19,IO11*%
%TO.N,MAINLED_nFTL*%
X148095000Y-104800000D03*
%TO.P,U301,20,IO12*%
%TO.N,/P3 ESP32/LED0*%
X149365000Y-104800000D03*
%TO.P,U301,21,IO13*%
%TO.N,/P3 ESP32/LED1*%
X150635000Y-104800000D03*
%TO.P,U301,22,IO14*%
%TO.N,/P3 ESP32/LED2*%
X151905000Y-104800000D03*
%TO.P,U301,23,IO21*%
%TO.N,/P3 ESP32/LED3*%
X153175000Y-104800000D03*
%TO.P,U301,24,IO47*%
%TO.N,/P3 ESP32/LED4*%
X154445000Y-104800000D03*
%TO.P,U301,25,IO48*%
%TO.N,/P3 ESP32/LED5*%
X155715000Y-104800000D03*
%TO.P,U301,26,IO45*%
%TO.N,/P3 ESP32/Select 1*%
X156985000Y-104800000D03*
D10*
%TO.P,U301,27,IO0*%
%TO.N,/P3 ESP32/BOOT{slash}USER1*%
X158750000Y-103550000D03*
%TO.P,U301,28,IO35*%
%TO.N,/P3 ESP32/LED6*%
X158750000Y-102280000D03*
%TO.P,U301,29,IO36*%
%TO.N,I2C_SDA*%
X158750000Y-101010000D03*
%TO.P,U301,30,IO37*%
%TO.N,I2C_SCL*%
X158750000Y-99740000D03*
%TO.P,U301,31,IO38*%
%TO.N,USBPD_INT_N*%
X158750000Y-98470000D03*
%TO.P,U301,32,IO39*%
%TO.N,BQ_CHRG_OK*%
X158750000Y-97200000D03*
%TO.P,U301,33,IO40*%
%TO.N,USBPD_PTN_ID*%
X158750000Y-95930000D03*
%TO.P,U301,34,IO41*%
%TO.N,Cell3Balance*%
X158750000Y-94660000D03*
%TO.P,U301,35,IO42*%
%TO.N,Cell4Balance*%
X158750000Y-93390000D03*
%TO.P,U301,36,RXD0*%
%TO.N,UART_RXDO*%
X158750000Y-92120000D03*
%TO.P,U301,37,TXD0*%
%TO.N,UART_TXDO*%
X158750000Y-90850000D03*
%TO.P,U301,38,IO2*%
%TO.N,Cell2Balance*%
X158750000Y-89580000D03*
%TO.P,U301,39,IO1*%
%TO.N,Cell1Balance*%
X158750000Y-88310000D03*
%TO.P,U301,40,GND*%
%TO.N,GND*%
X158750000Y-87040000D03*
D12*
%TO.P,U301,41,GND*%
X147100000Y-96160000D03*
D13*
X149200000Y-93360000D03*
X147100000Y-95460000D03*
X147800000Y-93360000D03*
D12*
X147100000Y-94760000D03*
D13*
X148500000Y-95460000D03*
D12*
X148500000Y-96160000D03*
X148500000Y-94760000D03*
D13*
X147800000Y-94760000D03*
D12*
X149900000Y-94760000D03*
D13*
X147100000Y-94060000D03*
D12*
X149900000Y-96160000D03*
D13*
X149200000Y-94760000D03*
D12*
X148500000Y-93360000D03*
X149900000Y-93360000D03*
D13*
X149200000Y-96160000D03*
X148500000Y-94060000D03*
D12*
X147100000Y-93360000D03*
D13*
X149900000Y-94060000D03*
X149900000Y-95460000D03*
X147800000Y-96160000D03*
%TD*%
D14*
%TO.P,R403,1*%
%TO.N,/P4 Batsense-Balancing/C4L*%
X166250000Y-91387500D03*
%TO.P,R403,2*%
%TO.N,Cell3*%
X166250000Y-93212500D03*
%TD*%
D15*
%TO.P,Q406,D,D*%
%TO.N,/P4 Batsense-Balancing/C2L*%
X164000000Y-91100000D03*
D16*
%TO.P,Q406,G,G*%
%TO.N,/P4 Batsense-Balancing/nCell2Balance*%
X163600000Y-92100000D03*
%TO.P,Q406,S,S*%
%TO.N,Cell2*%
X164400000Y-92100000D03*
%TD*%
D17*
%TO.P,R309,1*%
%TO.N,+3V3*%
X142500000Y-108990000D03*
%TO.P,R309,2*%
%TO.N,/P3 ESP32/L1a*%
X142500000Y-110010000D03*
%TD*%
D18*
%TO.P,R418,1*%
%TO.N,Cell3ADC*%
X132760000Y-89250000D03*
%TO.P,R418,2*%
%TO.N,GND*%
X131740000Y-89250000D03*
%TD*%
D19*
%TO.P,D402,1,A1*%
%TO.N,GND*%
X137750000Y-92550000D03*
%TO.P,D402,2,A2*%
%TO.N,Cell2ADC*%
X137750000Y-93950000D03*
%TD*%
D20*
%TO.P,D304,1,K*%
%TO.N,/P3 ESP32/LED3*%
X150000000Y-108062500D03*
%TO.P,D304,2,A*%
%TO.N,/P3 ESP32/L3a*%
X150000000Y-109937500D03*
%TD*%
D17*
%TO.P,R310,1*%
%TO.N,+3V3*%
X145500000Y-108990000D03*
%TO.P,R310,2*%
%TO.N,/P3 ESP32/L2a*%
X145500000Y-110010000D03*
%TD*%
D21*
%TO.P,R302,1*%
%TO.N,+3V3*%
X170430000Y-104780000D03*
%TO.P,R302,2*%
%TO.N,/P3 ESP32/BOOT{slash}USER1*%
X170430000Y-103760000D03*
%TD*%
D18*
%TO.P,R416,1*%
%TO.N,Cell2ADC*%
X136510000Y-92250000D03*
%TO.P,R416,2*%
%TO.N,GND*%
X135490000Y-92250000D03*
%TD*%
D22*
%TO.P,Q403,D,D*%
%TO.N,/P4 Batsense-Balancing/nCell3Balance*%
X168500000Y-95100000D03*
%TO.P,Q403,G,G*%
%TO.N,Cell3Balance*%
X169500000Y-95600000D03*
%TO.P,Q403,S,S*%
%TO.N,GND*%
X169500000Y-94600000D03*
%TD*%
D16*
%TO.P,Q401,D,D*%
%TO.N,/P4 Batsense-Balancing/nCell4Balance*%
X168300000Y-89500000D03*
%TO.P,Q401,G,G*%
%TO.N,Cell4Balance*%
X167800000Y-90500000D03*
%TO.P,Q401,S,S*%
%TO.N,GND*%
X168800000Y-90500000D03*
%TD*%
D23*
%TO.P,SW301,1,1*%
%TO.N,GND*%
X129015000Y-102250000D03*
X136965000Y-102250000D03*
%TO.P,SW301,2,2*%
%TO.N,/P3 ESP32/CHIP_PU*%
X129015000Y-97750000D03*
X136965000Y-97750000D03*
%TD*%
D19*
%TO.P,D403,1,A1*%
%TO.N,GND*%
X134000000Y-89300000D03*
%TO.P,D403,2,A2*%
%TO.N,Cell3ADC*%
X134000000Y-90700000D03*
%TD*%
D15*
%TO.P,Q402,D,D*%
%TO.N,/P4 Batsense-Balancing/C4L*%
X166300000Y-90100000D03*
D16*
%TO.P,Q402,G,G*%
%TO.N,/P4 Batsense-Balancing/nCell4Balance*%
X166700000Y-89100000D03*
%TO.P,Q402,S,S*%
%TO.N,Cell4*%
X165900000Y-89100000D03*
%TD*%
D20*
%TO.P,D305,1,K*%
%TO.N,/P3 ESP32/LED4*%
X153000000Y-108062500D03*
%TO.P,D305,2,A*%
%TO.N,/P3 ESP32/L4a*%
X153000000Y-109937500D03*
%TD*%
D22*
%TO.P,Q407,D,D*%
%TO.N,/P4 Batsense-Balancing/nCell1Balance*%
X162500000Y-86750000D03*
%TO.P,Q407,G,G*%
%TO.N,Cell1Balance*%
X161500000Y-86250000D03*
%TO.P,Q407,S,S*%
%TO.N,GND*%
X161500000Y-87250000D03*
%TD*%
D24*
%TO.P,R406,1*%
%TO.N,/P4 Batsense-Balancing/C3L*%
X164000000Y-95312500D03*
%TO.P,R406,2*%
%TO.N,Cell2*%
X164000000Y-93487500D03*
%TD*%
D25*
%TO.P,J205,1,Pin_1*%
%TO.N,+3V3*%
X136265000Y-108500000D03*
%TO.P,J205,2,Pin_2*%
%TO.N,UART_RXDO*%
X136265000Y-112400000D03*
%TO.P,J205,3,Pin_3*%
%TO.N,UART_TXDO*%
X134995000Y-108500000D03*
%TO.P,J205,4,Pin_4*%
%TO.N,GND*%
X134995000Y-112400000D03*
%TD*%
D26*
%TO.P,R412,1*%
%TO.N,/P4 Batsense-Balancing/C1L*%
X164162500Y-84250000D03*
%TO.P,R412,2*%
%TO.N,GND*%
X162337500Y-84250000D03*
%TD*%
D23*
%TO.P,SW302,1,1*%
%TO.N,GND*%
X163125000Y-97750000D03*
X171075000Y-97750000D03*
%TO.P,SW302,2,2*%
%TO.N,/P3 ESP32/BOOT{slash}USER1*%
X171075000Y-102250000D03*
X163125000Y-102250000D03*
%TD*%
D19*
%TO.P,D404,1,A1*%
%TO.N,GND*%
X137750000Y-89300000D03*
%TO.P,D404,2,A2*%
%TO.N,Cell4ADC*%
X137750000Y-90700000D03*
%TD*%
D18*
%TO.P,R420,1*%
%TO.N,Cell4ADC*%
X136510000Y-89250000D03*
%TO.P,R420,2*%
%TO.N,GND*%
X135490000Y-89250000D03*
%TD*%
D27*
%TO.P,C303,1*%
%TO.N,/P3 ESP32/CHIP_PU*%
X135650000Y-86875000D03*
%TO.P,C303,2*%
%TO.N,GND*%
X135650000Y-85325000D03*
%TD*%
D28*
%TO.P,R419,1*%
%TO.N,Cell4*%
X135490000Y-90250000D03*
%TO.P,R419,2*%
%TO.N,Cell4ADC*%
X136510000Y-90250000D03*
%TD*%
D20*
%TO.P,D301,1,K*%
%TO.N,/P3 ESP32/LED0*%
X141000000Y-108062500D03*
%TO.P,D301,2,A*%
%TO.N,/P3 ESP32/L0a*%
X141000000Y-109937500D03*
%TD*%
D19*
%TO.P,D401,1,A1*%
%TO.N,GND*%
X134000000Y-92550000D03*
%TO.P,D401,2,A2*%
%TO.N,Cell1ADC*%
X134000000Y-93950000D03*
%TD*%
D17*
%TO.P,R314,1*%
%TO.N,+3V3*%
X157500000Y-108990000D03*
%TO.P,R314,2*%
%TO.N,/P3 ESP32/L6a*%
X157500000Y-110010000D03*
%TD*%
D24*
%TO.P,R409,1*%
%TO.N,/P4 Batsense-Balancing/C2L*%
X164000000Y-89812500D03*
%TO.P,R409,2*%
%TO.N,Cell1*%
X164000000Y-87987500D03*
%TD*%
D20*
%TO.P,D302,1,K*%
%TO.N,/P3 ESP32/LED1*%
X144000000Y-108062500D03*
%TO.P,D302,2,A*%
%TO.N,/P3 ESP32/L1a*%
X144000000Y-109937500D03*
%TD*%
D17*
%TO.P,R301,1*%
%TO.N,+3V3*%
X137120000Y-86140000D03*
%TO.P,R301,2*%
%TO.N,/P3 ESP32/CHIP_PU*%
X137120000Y-87160000D03*
%TD*%
D20*
%TO.P,D307,1,K*%
%TO.N,/P3 ESP32/LED6*%
X159000000Y-108062500D03*
%TO.P,D307,2,A*%
%TO.N,/P3 ESP32/L6a*%
X159000000Y-109937500D03*
%TD*%
D22*
%TO.P,Q405,D,D*%
%TO.N,/P4 Batsense-Balancing/nCell2Balance*%
X162500000Y-91400000D03*
%TO.P,Q405,G,G*%
%TO.N,Cell2Balance*%
X161500000Y-90900000D03*
%TO.P,Q405,S,S*%
%TO.N,GND*%
X161500000Y-91900000D03*
%TD*%
D28*
%TO.P,R417,1*%
%TO.N,Cell3*%
X131740000Y-90250000D03*
%TO.P,R417,2*%
%TO.N,Cell3ADC*%
X132760000Y-90250000D03*
%TD*%
D17*
%TO.P,R311,1*%
%TO.N,+3V3*%
X148500000Y-108990000D03*
%TO.P,R311,2*%
%TO.N,/P3 ESP32/L3a*%
X148500000Y-110010000D03*
%TD*%
D15*
%TO.P,Q408,D,D*%
%TO.N,/P4 Batsense-Balancing/C1L*%
X164000000Y-85750000D03*
D16*
%TO.P,Q408,G,G*%
%TO.N,/P4 Batsense-Balancing/nCell1Balance*%
X163600000Y-86750000D03*
%TO.P,Q408,S,S*%
%TO.N,Cell1*%
X164400000Y-86750000D03*
%TD*%
D17*
%TO.P,R308,1*%
%TO.N,+3V3*%
X139500000Y-108990000D03*
%TO.P,R308,2*%
%TO.N,/P3 ESP32/L0a*%
X139500000Y-110010000D03*
%TD*%
%TO.P,R312,1*%
%TO.N,+3V3*%
X151500000Y-108990000D03*
%TO.P,R312,2*%
%TO.N,/P3 ESP32/L4a*%
X151500000Y-110010000D03*
%TD*%
D29*
%TO.P,C304,1*%
%TO.N,GND*%
X165630000Y-104720000D03*
%TO.P,C304,2*%
%TO.N,/P3 ESP32/BOOT{slash}USER1*%
X165630000Y-103760000D03*
%TD*%
D20*
%TO.P,D306,1,K*%
%TO.N,/P3 ESP32/LED5*%
X156000000Y-108062500D03*
%TO.P,D306,2,A*%
%TO.N,/P3 ESP32/L5a*%
X156000000Y-109937500D03*
%TD*%
D29*
%TO.P,C302,1*%
%TO.N,+3V3*%
X139250000Y-87230000D03*
%TO.P,C302,2*%
%TO.N,GND*%
X139250000Y-86270000D03*
%TD*%
D20*
%TO.P,D303,1,K*%
%TO.N,/P3 ESP32/LED2*%
X147000000Y-108062500D03*
%TO.P,D303,2,A*%
%TO.N,/P3 ESP32/L2a*%
X147000000Y-109937500D03*
%TD*%
D30*
%TO.P,Q404,D,D*%
%TO.N,/P4 Batsense-Balancing/C3L*%
X165600000Y-95100000D03*
D22*
%TO.P,Q404,G,G*%
%TO.N,/P4 Batsense-Balancing/nCell3Balance*%
X166600000Y-95500000D03*
%TO.P,Q404,S,S*%
%TO.N,Cell3*%
X166600000Y-94700000D03*
%TD*%
D17*
%TO.P,R313,1*%
%TO.N,+3V3*%
X154500000Y-108990000D03*
%TO.P,R313,2*%
%TO.N,/P3 ESP32/L5a*%
X154500000Y-110010000D03*
%TD*%
D18*
%TO.P,R414,1*%
%TO.N,Cell1ADC*%
X132760000Y-92500000D03*
%TO.P,R414,2*%
%TO.N,GND*%
X131740000Y-92500000D03*
%TD*%
D28*
%TO.P,R413,1*%
%TO.N,Cell1*%
X131740000Y-93500000D03*
%TO.P,R413,2*%
%TO.N,Cell1ADC*%
X132760000Y-93500000D03*
%TD*%
%TO.P,R415,1*%
%TO.N,Cell2*%
X135490000Y-93250000D03*
%TO.P,R415,2*%
%TO.N,Cell2ADC*%
X136510000Y-93250000D03*
%TD*%
D31*
%TO.N,Cell1ADC*%
X134270000Y-94770000D03*
%TO.N,Cell2ADC*%
X138570000Y-93950000D03*
%TO.N,Cell3ADC*%
X133210000Y-90700000D03*
%TO.N,Cell4ADC*%
X138510000Y-90850000D03*
%TO.N,I2C_SDA*%
X159740000Y-101010000D03*
X169250000Y-101250000D03*
%TO.N,USBPD_INT_N*%
X169250000Y-98750000D03*
%TO.N,BQ_CHRG_OK*%
X160250000Y-97250000D03*
%TO.N,I2C_SCL*%
X159750000Y-99750000D03*
%TO.N,+3V3*%
X154250000Y-99250000D03*
X134530000Y-102540000D03*
X146500000Y-112500000D03*
X156500000Y-98500000D03*
X143000000Y-99250000D03*
X169750000Y-104750000D03*
X168710000Y-102540000D03*
X130730000Y-102540000D03*
X142560000Y-88330000D03*
X146500000Y-99250000D03*
X165500000Y-102500000D03*
%TO.N,BQ_IBAT*%
X134300000Y-101300000D03*
%TO.N,BQ_IADPT*%
X134300000Y-98700000D03*
%TO.N,BQ_CMPOUT*%
X130600000Y-98700000D03*
%TO.N,BQ_EN_OTG*%
X145560000Y-103660000D03*
%TO.N,MAINLED_PWM*%
X146820000Y-103670000D03*
%TO.N,GND*%
X133000000Y-109000000D03*
X131000000Y-91000000D03*
X134510000Y-106230000D03*
X133000000Y-111000000D03*
X130000000Y-96000000D03*
D32*
X161100000Y-84800000D03*
D31*
X161000000Y-96824500D03*
X168000000Y-111000000D03*
X131000000Y-107000000D03*
X168500000Y-97500000D03*
X142000000Y-114000000D03*
X144000000Y-97000000D03*
X131750000Y-91600000D03*
X161992971Y-115991529D03*
X135300000Y-91000000D03*
X168000000Y-93000000D03*
X131100000Y-92500000D03*
X142000000Y-116000000D03*
X162750000Y-85500000D03*
X160860000Y-87260000D03*
X167000000Y-87000000D03*
X171000000Y-96660498D03*
X138000000Y-114000000D03*
X153500000Y-113174500D03*
X150998843Y-102994516D03*
D32*
X161100000Y-83800000D03*
D31*
X143500000Y-113174500D03*
X134360000Y-100000000D03*
X169250000Y-98000000D03*
X140000000Y-114000000D03*
X134350000Y-97120000D03*
X139250000Y-85500000D03*
X157991529Y-119991529D03*
X161000000Y-82000000D03*
X157500000Y-87000000D03*
X156000000Y-118000000D03*
X131900000Y-94600000D03*
X146000000Y-120000000D03*
X164250000Y-97750000D03*
X168750000Y-100000000D03*
X167250000Y-88250000D03*
X146000000Y-118000000D03*
X157000000Y-90000000D03*
X137000000Y-85000000D03*
X130730000Y-100000000D03*
X152000000Y-120016941D03*
X168000000Y-107000000D03*
X162750000Y-92425500D03*
X138000000Y-116000000D03*
X144000000Y-120000000D03*
X164000000Y-116000000D03*
X146480000Y-91330000D03*
X131460000Y-100000000D03*
X157000000Y-97000000D03*
X134750000Y-89250000D03*
X151989892Y-100993360D03*
X155250000Y-99250000D03*
X160810000Y-91910000D03*
X156000000Y-96000000D03*
X145967365Y-97048224D03*
X152000000Y-93000000D03*
X169500000Y-93900000D03*
X140000000Y-118000000D03*
X137000000Y-83000000D03*
X159993933Y-115991529D03*
X150000000Y-114000000D03*
X149992491Y-119987294D03*
X147576233Y-92016233D03*
X150650000Y-100660000D03*
X166000000Y-109000000D03*
X168800000Y-91200000D03*
X160462792Y-85626706D03*
X145000000Y-96000000D03*
X153500000Y-115250000D03*
X160000000Y-92250000D03*
X159992010Y-117999519D03*
X137000000Y-103500000D03*
X152019502Y-90325500D03*
X150520498Y-90425500D03*
X132000000Y-96000000D03*
X134750000Y-92500000D03*
X147500000Y-99250000D03*
X166000000Y-107000000D03*
X137600000Y-113330000D03*
X171000000Y-95500000D03*
X139000000Y-83000000D03*
X134560000Y-103320000D03*
X139000000Y-82000000D03*
X135250000Y-101500000D03*
X138500000Y-92750000D03*
X142000000Y-120000000D03*
X129000000Y-105000000D03*
X135000000Y-114000000D03*
X130000000Y-94000000D03*
X165500000Y-100000000D03*
X130790000Y-97460000D03*
X138500000Y-89250000D03*
X145994219Y-88998843D03*
X165500000Y-97500000D03*
X149300000Y-88300000D03*
X133000000Y-87000000D03*
X133000000Y-107000000D03*
X135400000Y-94300000D03*
X155000000Y-87000000D03*
X136000000Y-116000000D03*
X152000000Y-114000000D03*
X151750000Y-87250000D03*
X154000000Y-103000000D03*
X155000000Y-97000000D03*
X129000000Y-103339502D03*
X134000000Y-86000000D03*
X170000000Y-92000000D03*
X148000000Y-114000000D03*
X148000000Y-120000000D03*
X170000000Y-107000000D03*
X144000000Y-118000000D03*
X135660000Y-84470000D03*
X154000000Y-93000000D03*
X138000000Y-117994803D03*
X155992491Y-119991529D03*
X154000000Y-120000000D03*
X144000000Y-99250000D03*
X166000000Y-113000000D03*
X130760000Y-103214500D03*
X166250000Y-104750000D03*
X153500000Y-87250000D03*
X138999999Y-101992010D03*
X159500000Y-86000000D03*
X131000000Y-105000000D03*
X131000000Y-109000000D03*
X140000000Y-104000000D03*
X142500000Y-87000000D03*
X132996245Y-112998557D03*
X148490000Y-100650000D03*
X139997687Y-115999999D03*
X132240000Y-88590000D03*
X138000000Y-104000000D03*
X135000000Y-110750000D03*
X168000000Y-109000000D03*
X143500000Y-115250000D03*
X166000000Y-111000000D03*
X152000000Y-95000000D03*
X154000000Y-118000000D03*
%TO.N,MAINLED_nFTL*%
X148090000Y-103710000D03*
%TO.N,UART_TXDO*%
X135000000Y-106710000D03*
X149190000Y-100640000D03*
%TO.N,UART_RXDO*%
X149960000Y-100590000D03*
X137120000Y-112570000D03*
%TO.N,/P3 ESP32/LED6*%
X157630000Y-102370000D03*
X158020000Y-105180000D03*
D32*
%TO.N,Cell4*%
X165800000Y-88200000D03*
D31*
X136149000Y-91000000D03*
D32*
%TO.N,Cell3*%
X167400000Y-94000000D03*
D31*
X132875000Y-91675000D03*
%TO.N,Cell2*%
X146830000Y-90640000D03*
X136250000Y-94250000D03*
D32*
X165000000Y-92800000D03*
D31*
X150000000Y-88500000D03*
%TO.N,Cell1*%
X146920000Y-91870000D03*
D32*
X165100000Y-87400000D03*
D31*
X151200000Y-91000000D03*
X132800000Y-94600000D03*
%TO.N,/P3 ESP32/USB_D+*%
X142250000Y-103550000D03*
%TO.N,/P3 ESP32/USB_D-*%
X142270000Y-102280000D03*
%TO.N,/P3 ESP32/Select 1*%
X155250000Y-101500000D03*
%TO.N,/P3 ESP32/Select 2*%
X146500000Y-101500000D03*
%TO.N,/P3 ESP32/Select 3*%
X143000000Y-101500000D03*
%TO.N,Cell4Balance*%
X160000000Y-93000000D03*
X167800000Y-91200000D03*
%TO.N,/P4 Batsense-Balancing/nCell4Balance*%
X167300000Y-89000000D03*
%TO.N,Cell3Balance*%
X170100000Y-95600000D03*
%TO.N,/P4 Batsense-Balancing/nCell3Balance*%
X167300000Y-95400000D03*
%TO.N,Cell2Balance*%
X160900000Y-90900000D03*
%TO.N,/P4 Batsense-Balancing/nCell2Balance*%
X163100000Y-91600000D03*
%TO.N,Cell1Balance*%
X160900000Y-86200000D03*
%TO.N,/P4 Batsense-Balancing/nCell1Balance*%
X162900000Y-86300000D03*
%TO.N,USBPD_PTN_ID*%
X160000000Y-96000000D03*
%TD*%
D33*
%TO.N,/P3 ESP32/CHIP_PU*%
X129657831Y-91436895D02*
X130038600Y-90583361D01*
X129015000Y-93163597D02*
X129313542Y-92305781D01*
X133130000Y-97750000D02*
X136965000Y-97750000D01*
X129380000Y-99320000D02*
X131560000Y-99320000D01*
X129015000Y-97750000D02*
X129015000Y-93163597D01*
X129313542Y-92305781D02*
X129657831Y-91436895D01*
X131613125Y-87800000D02*
X135840000Y-87800000D01*
X135840000Y-87800000D02*
X137260000Y-87800000D01*
X135650000Y-86875000D02*
X135650000Y-87610000D01*
X131560000Y-99320000D02*
X133130000Y-97750000D01*
X137260000Y-87300000D02*
X137260000Y-87800000D01*
X129015000Y-97750000D02*
X129015000Y-98955000D01*
X139950000Y-89580000D02*
X141250000Y-89580000D01*
X137260000Y-87800000D02*
X138170000Y-87800000D01*
X138170000Y-87800000D02*
X139950000Y-89580000D01*
X129015000Y-98955000D02*
X129380000Y-99320000D01*
X130038600Y-90583361D02*
X130455165Y-89746708D01*
X131392632Y-88130019D02*
X131613125Y-87800000D01*
X130906779Y-88928437D02*
X131392632Y-88130019D01*
X135650000Y-87610000D02*
X135840000Y-87800000D01*
X137120000Y-87160000D02*
X137260000Y-87300000D01*
X130455165Y-89746708D02*
X130906779Y-88928437D01*
%TO.N,/P3 ESP32/BOOT{slash}USER1*%
X170250000Y-103500000D02*
X165560000Y-103500000D01*
X165560000Y-103500000D02*
X164310000Y-102250000D01*
X164310000Y-102250000D02*
X163125000Y-102250000D01*
X171075000Y-102675000D02*
X170250000Y-103500000D01*
X159850000Y-103080000D02*
X159380000Y-103550000D01*
X163125000Y-102250000D02*
X160250000Y-102250000D01*
X159380000Y-103550000D02*
X158750000Y-103550000D01*
X160250000Y-102250000D02*
X159850000Y-102650000D01*
X171075000Y-102250000D02*
X171075000Y-102675000D01*
X159850000Y-102650000D02*
X159850000Y-103080000D01*
%TO.N,Cell1ADC*%
X134000000Y-94500000D02*
X134000000Y-93950000D01*
X139340000Y-94660000D02*
X138750000Y-95250000D01*
X138750000Y-95250000D02*
X134750000Y-95250000D01*
X133210000Y-93950000D02*
X132760000Y-93500000D01*
X132760000Y-92500000D02*
X132760000Y-93500000D01*
X134000000Y-93950000D02*
X133210000Y-93950000D01*
X134750000Y-95250000D02*
X134270000Y-94770000D01*
X141250000Y-94660000D02*
X139340000Y-94660000D01*
X134270000Y-94770000D02*
X134000000Y-94500000D01*
%TO.N,Cell2ADC*%
X139550000Y-93950000D02*
X138570000Y-93950000D01*
X137210000Y-93950000D02*
X136510000Y-93250000D01*
X141250000Y-93390000D02*
X140110000Y-93390000D01*
X138570000Y-93950000D02*
X137750000Y-93950000D01*
X137750000Y-93950000D02*
X137210000Y-93950000D01*
X136510000Y-93250000D02*
X136510000Y-92250000D01*
X140110000Y-93390000D02*
X139550000Y-93950000D01*
%TO.N,Cell3ADC*%
X139080000Y-91580000D02*
X134880000Y-91580000D01*
X141250000Y-92120000D02*
X139620000Y-92120000D01*
X139620000Y-92120000D02*
X139080000Y-91580000D01*
X133210000Y-90700000D02*
X132760000Y-90250000D01*
X134880000Y-91580000D02*
X134000000Y-90700000D01*
X132760000Y-89250000D02*
X132760000Y-90250000D01*
X134000000Y-90700000D02*
X133210000Y-90700000D01*
%TO.N,Cell4ADC*%
X141250000Y-90850000D02*
X138510000Y-90850000D01*
X136960000Y-90700000D02*
X136510000Y-90250000D01*
X137750000Y-90700000D02*
X136960000Y-90700000D01*
X136510000Y-89250000D02*
X136510000Y-90250000D01*
X138510000Y-90850000D02*
X137900000Y-90850000D01*
X137900000Y-90850000D02*
X137750000Y-90700000D01*
%TO.N,I2C_SDA*%
X158750000Y-101010000D02*
X159740000Y-101010000D01*
X159980000Y-101250000D02*
X159740000Y-101010000D01*
X169250000Y-101250000D02*
X159980000Y-101250000D01*
%TO.N,USBPD_INT_N*%
X160220000Y-98470000D02*
X158750000Y-98470000D01*
X169250000Y-98750000D02*
X160500000Y-98750000D01*
X160500000Y-98750000D02*
X160220000Y-98470000D01*
%TO.N,BQ_CHRG_OK*%
X158800000Y-97250000D02*
X158750000Y-97200000D01*
X160250000Y-97250000D02*
X158800000Y-97250000D01*
%TO.N,I2C_SCL*%
X159750000Y-99750000D02*
X158760000Y-99750000D01*
X158760000Y-99750000D02*
X158750000Y-99740000D01*
D34*
%TO.N,+3V3*%
X139500000Y-108990000D02*
X137740000Y-108990000D01*
D33*
X169780000Y-104780000D02*
X169750000Y-104750000D01*
D34*
X146500000Y-112500000D02*
X139750000Y-112500000D01*
X139750000Y-112500000D02*
X137740000Y-110490000D01*
X137740000Y-110490000D02*
X137740000Y-108990000D01*
X136265000Y-104070405D02*
X134734595Y-102540000D01*
D33*
X137910000Y-86140000D02*
X140080000Y-88310000D01*
D34*
X142540000Y-88310000D02*
X142560000Y-88330000D01*
D33*
X137120000Y-86140000D02*
X137910000Y-86140000D01*
D34*
X134734595Y-102540000D02*
X134530000Y-102540000D01*
X141250000Y-88310000D02*
X142540000Y-88310000D01*
X139510000Y-109000000D02*
X157490000Y-109000000D01*
X136755000Y-108990000D02*
X136265000Y-108500000D01*
X136265000Y-108500000D02*
X136265000Y-104070405D01*
D33*
X140080000Y-88310000D02*
X141250000Y-88310000D01*
D34*
X139500000Y-108990000D02*
X139510000Y-109000000D01*
X157490000Y-109000000D02*
X157500000Y-108990000D01*
D33*
X170430000Y-104780000D02*
X169780000Y-104780000D01*
D34*
X137740000Y-108990000D02*
X136755000Y-108990000D01*
D33*
%TO.N,BQ_IBAT*%
X135200000Y-100400000D02*
X138500000Y-100400000D01*
X138500000Y-100400000D02*
X140430000Y-98470000D01*
X140430000Y-98470000D02*
X141250000Y-98470000D01*
X134300000Y-101300000D02*
X135200000Y-100400000D01*
%TO.N,BQ_IADPT*%
X138420000Y-98930000D02*
X140150000Y-97200000D01*
X134300000Y-98700000D02*
X134530000Y-98930000D01*
X140150000Y-97200000D02*
X141250000Y-97200000D01*
X134530000Y-98930000D02*
X138420000Y-98930000D01*
%TO.N,BQ_CMPOUT*%
X141250000Y-95930000D02*
X139470000Y-95930000D01*
X139000000Y-96400000D02*
X132900000Y-96400000D01*
X132900000Y-96400000D02*
X130600000Y-98700000D01*
X139470000Y-95930000D02*
X139000000Y-96400000D01*
D35*
%TO.N,BQ_EN_OTG*%
X145560000Y-103660000D02*
X145560000Y-104795000D01*
X145560000Y-104795000D02*
X145555000Y-104800000D01*
D33*
%TO.N,MAINLED_PWM*%
X146825000Y-103675000D02*
X146820000Y-103670000D01*
X146825000Y-104800000D02*
X146825000Y-103675000D01*
%TO.N,GND*%
X171075000Y-96735498D02*
X171000000Y-96660498D01*
X136965000Y-102250000D02*
X136965000Y-103465000D01*
X138450000Y-89300000D02*
X138500000Y-89250000D01*
X132240000Y-88590000D02*
X131740000Y-89090000D01*
X136965000Y-103465000D02*
X137000000Y-103500000D01*
X161500000Y-87250000D02*
X160870000Y-87250000D01*
X135650000Y-84480000D02*
X135660000Y-84470000D01*
X134700000Y-89300000D02*
X134750000Y-89250000D01*
X171075000Y-97750000D02*
X171075000Y-96735498D01*
X134995000Y-113995000D02*
X135000000Y-114000000D01*
X165630000Y-104720000D02*
X166220000Y-104720000D01*
D34*
X161650000Y-84250000D02*
X161100000Y-84800000D01*
D33*
X142460000Y-87040000D02*
X142500000Y-87000000D01*
X134000000Y-92550000D02*
X134700000Y-92550000D01*
X141250000Y-87040000D02*
X142460000Y-87040000D01*
X134995000Y-112400000D02*
X134995000Y-113995000D01*
X161500000Y-91900000D02*
X160820000Y-91900000D01*
X140290000Y-87040000D02*
X141250000Y-87040000D01*
X131740000Y-92500000D02*
X131100000Y-92500000D01*
X135000000Y-92250000D02*
X134750000Y-92500000D01*
X137750000Y-92550000D02*
X138300000Y-92550000D01*
X134700000Y-92550000D02*
X134750000Y-92500000D01*
X134995000Y-112400000D02*
X134995000Y-110755000D01*
X168800000Y-90500000D02*
X168800000Y-91200000D01*
X135650000Y-85325000D02*
X135650000Y-84480000D01*
X160820000Y-91900000D02*
X160810000Y-91910000D01*
X157540000Y-87040000D02*
X157500000Y-87000000D01*
X137750000Y-89300000D02*
X138450000Y-89300000D01*
D34*
X162337500Y-84250000D02*
X161650000Y-84250000D01*
X162337500Y-84250000D02*
X161550000Y-84250000D01*
D33*
X134000000Y-89300000D02*
X134700000Y-89300000D01*
D34*
X161550000Y-84250000D02*
X161100000Y-83800000D01*
D33*
X169500000Y-94600000D02*
X169500000Y-93900000D01*
X158750000Y-86750000D02*
X159500000Y-86000000D01*
X135490000Y-89250000D02*
X134750000Y-89250000D01*
X135490000Y-92250000D02*
X135000000Y-92250000D01*
X158750000Y-87040000D02*
X157540000Y-87040000D01*
X129015000Y-102250000D02*
X129015000Y-103324502D01*
X138300000Y-92550000D02*
X138500000Y-92750000D01*
X129015000Y-103324502D02*
X129000000Y-103339502D01*
X158750000Y-87040000D02*
X158750000Y-86750000D01*
X163125000Y-97750000D02*
X164250000Y-97750000D01*
X160870000Y-87250000D02*
X160860000Y-87260000D01*
X166220000Y-104720000D02*
X166250000Y-104750000D01*
X139250000Y-85500000D02*
X139250000Y-86000000D01*
X134995000Y-110755000D02*
X135000000Y-110750000D01*
X139250000Y-86000000D02*
X140290000Y-87040000D01*
X131740000Y-89090000D02*
X131740000Y-89250000D01*
%TO.N,MAINLED_nFTL*%
X148095000Y-103715000D02*
X148090000Y-103710000D01*
X148095000Y-104800000D02*
X148095000Y-103715000D01*
%TO.N,UART_TXDO*%
X158310000Y-90850000D02*
X149260000Y-99900000D01*
X135000000Y-106710000D02*
X135000000Y-108495000D01*
X149260000Y-99900000D02*
X149190000Y-99970000D01*
X135000000Y-108495000D02*
X134995000Y-108500000D01*
X158750000Y-90850000D02*
X158310000Y-90850000D01*
X149190000Y-99970000D02*
X149190000Y-100640000D01*
%TO.N,UART_RXDO*%
X136435000Y-112570000D02*
X136265000Y-112400000D01*
X158120000Y-92120000D02*
X149960000Y-100280000D01*
X137120000Y-112570000D02*
X136435000Y-112570000D01*
X149960000Y-100280000D02*
X149960000Y-100590000D01*
X158750000Y-92120000D02*
X158120000Y-92120000D01*
%TO.N,/P3 ESP32/LED0*%
X148760000Y-106050000D02*
X142050000Y-106050000D01*
X149365000Y-104800000D02*
X149365000Y-105445000D01*
X141000000Y-107100000D02*
X141000000Y-108062500D01*
X142050000Y-106050000D02*
X141000000Y-107100000D01*
X149365000Y-105445000D02*
X148760000Y-106050000D01*
%TO.N,/P3 ESP32/L0a*%
X139500000Y-110010000D02*
X140927500Y-110010000D01*
X140927500Y-110010000D02*
X141000000Y-109937500D01*
%TO.N,/P3 ESP32/LED1*%
X144910000Y-106640000D02*
X149425000Y-106640000D01*
X144000000Y-107550000D02*
X144910000Y-106640000D01*
X150635000Y-105430000D02*
X150635000Y-104800000D01*
X144000000Y-108062500D02*
X144000000Y-107550000D01*
X149425000Y-106640000D02*
X150635000Y-105430000D01*
%TO.N,/P3 ESP32/L1a*%
X143927500Y-110010000D02*
X144000000Y-109937500D01*
X142500000Y-110010000D02*
X143927500Y-110010000D01*
%TO.N,/P3 ESP32/LED2*%
X147902500Y-107160000D02*
X147000000Y-108062500D01*
X151905000Y-104800000D02*
X151905000Y-105455000D01*
X151905000Y-105455000D02*
X150200000Y-107160000D01*
X150200000Y-107160000D02*
X147902500Y-107160000D01*
%TO.N,/P3 ESP32/L2a*%
X145500000Y-110010000D02*
X146927500Y-110010000D01*
X146927500Y-110010000D02*
X147000000Y-109937500D01*
%TO.N,/P3 ESP32/LED3*%
X150000000Y-108062500D02*
X150542500Y-108062500D01*
X153175000Y-105430000D02*
X153175000Y-104800000D01*
X150542500Y-108062500D02*
X153175000Y-105430000D01*
%TO.N,/P3 ESP32/L3a*%
X149927500Y-110010000D02*
X150000000Y-109937500D01*
X148500000Y-110010000D02*
X149927500Y-110010000D01*
%TO.N,/P3 ESP32/LED4*%
X154445000Y-106055000D02*
X154445000Y-104800000D01*
X153000000Y-107500000D02*
X154445000Y-106055000D01*
X153000000Y-108062500D02*
X153000000Y-107500000D01*
%TO.N,/P3 ESP32/L4a*%
X152927500Y-110010000D02*
X153000000Y-109937500D01*
X151500000Y-110010000D02*
X152927500Y-110010000D01*
%TO.N,/P3 ESP32/LED5*%
X155715000Y-107777500D02*
X155715000Y-104800000D01*
X156000000Y-108062500D02*
X155715000Y-107777500D01*
%TO.N,/P3 ESP32/L5a*%
X154500000Y-110010000D02*
X155927500Y-110010000D01*
X155927500Y-110010000D02*
X156000000Y-109937500D01*
%TO.N,/P3 ESP32/LED6*%
X159000000Y-106160000D02*
X159000000Y-108062500D01*
X157630000Y-102370000D02*
X158660000Y-102370000D01*
X158020000Y-105180000D02*
X159000000Y-106160000D01*
X158660000Y-102370000D02*
X158750000Y-102280000D01*
%TO.N,/P3 ESP32/L6a*%
X157500000Y-110010000D02*
X158927500Y-110010000D01*
X158927500Y-110010000D02*
X159000000Y-109937500D01*
%TO.N,Cell4*%
X135490000Y-90370000D02*
X135490000Y-90250000D01*
D34*
X165900000Y-89100000D02*
X165900000Y-88300000D01*
X165900000Y-88300000D02*
X165800000Y-88200000D01*
D33*
X136149000Y-91000000D02*
X136120000Y-91000000D01*
X136120000Y-91000000D02*
X135490000Y-90370000D01*
D34*
%TO.N,Cell3*%
X167400000Y-94000000D02*
X167200000Y-94200000D01*
X166600000Y-93562500D02*
X166600000Y-93700000D01*
X166900000Y-94000000D02*
X166600000Y-93700000D01*
D33*
X132665000Y-91675000D02*
X131740000Y-90750000D01*
X131740000Y-90750000D02*
X131740000Y-90250000D01*
D34*
X167200000Y-94200000D02*
X166600000Y-94200000D01*
X166250000Y-93212500D02*
X166600000Y-93562500D01*
X166600000Y-94200000D02*
X166600000Y-94700000D01*
X166600000Y-93700000D02*
X166600000Y-94200000D01*
D33*
X132875000Y-91675000D02*
X132665000Y-91675000D01*
D34*
X167400000Y-94000000D02*
X166900000Y-94000000D01*
D33*
%TO.N,Cell2*%
X148595000Y-88875000D02*
X149625000Y-88875000D01*
X149625000Y-88875000D02*
X150000000Y-88500000D01*
X135490000Y-93490000D02*
X135490000Y-93250000D01*
D34*
X164400000Y-92100000D02*
X164750000Y-92450000D01*
X164750000Y-92450000D02*
X164750000Y-93050000D01*
D33*
X146830000Y-90640000D02*
X148595000Y-88875000D01*
D34*
X164750000Y-93050000D02*
X165000000Y-92800000D01*
X164312500Y-93487500D02*
X164750000Y-93050000D01*
D33*
X136250000Y-94250000D02*
X135490000Y-93490000D01*
D34*
X164000000Y-93487500D02*
X164312500Y-93487500D01*
%TO.N,Cell1*%
X164000000Y-87987500D02*
X164587500Y-87400000D01*
D33*
X132800000Y-94560000D02*
X131740000Y-93500000D01*
D34*
X164400000Y-86750000D02*
X164400000Y-87587500D01*
D33*
X132800000Y-94600000D02*
X132800000Y-94560000D01*
D34*
X164587500Y-87400000D02*
X165100000Y-87400000D01*
X164400000Y-87587500D02*
X164000000Y-87987500D01*
D36*
%TO.N,/P3 ESP32/USB_D+*%
X141250000Y-103550000D02*
X142250000Y-103550000D01*
%TO.N,/P3 ESP32/USB_D-*%
X142270000Y-102280000D02*
X141250000Y-102280000D01*
D33*
%TO.N,/P3 ESP32/Select 1*%
X155250000Y-101500000D02*
X156985000Y-103235000D01*
X156985000Y-103235000D02*
X156985000Y-104800000D01*
%TO.N,/P3 ESP32/Select 2*%
X146000000Y-102000000D02*
X144750000Y-102000000D01*
X146500000Y-101500000D02*
X146000000Y-102000000D01*
X144750000Y-102000000D02*
X144285000Y-102465000D01*
X144285000Y-102465000D02*
X144285000Y-104800000D01*
D35*
%TO.N,/P3 ESP32/Select 3*%
X143015000Y-101515000D02*
X143015000Y-104800000D01*
X143000000Y-101500000D02*
X143015000Y-101515000D01*
D33*
%TO.N,Cell4Balance*%
X160000000Y-93000000D02*
X159610000Y-93390000D01*
X167800000Y-91200000D02*
X167800000Y-90500000D01*
X159610000Y-93390000D02*
X158750000Y-93390000D01*
%TO.N,/P4 Batsense-Balancing/nCell4Balance*%
X168300000Y-89500000D02*
X167800000Y-89000000D01*
X166800000Y-89000000D02*
X167300000Y-89000000D01*
X166700000Y-89100000D02*
X166800000Y-89000000D01*
X167800000Y-89000000D02*
X167300000Y-89000000D01*
%TO.N,Cell3Balance*%
X169500000Y-95600000D02*
X170100000Y-95600000D01*
X169500000Y-95600000D02*
X168800000Y-96300000D01*
X161060000Y-94660000D02*
X158750000Y-94660000D01*
X168800000Y-96300000D02*
X162700000Y-96300000D01*
X162700000Y-96300000D02*
X161060000Y-94660000D01*
%TO.N,/P4 Batsense-Balancing/nCell3Balance*%
X168200000Y-95400000D02*
X168500000Y-95100000D01*
X167300000Y-95400000D02*
X166700000Y-95400000D01*
X167300000Y-95400000D02*
X168200000Y-95400000D01*
X166700000Y-95400000D02*
X166600000Y-95500000D01*
%TO.N,Cell2Balance*%
X158750000Y-89580000D02*
X159580000Y-89580000D01*
X161500000Y-90900000D02*
X160900000Y-90900000D01*
X159580000Y-89580000D02*
X160900000Y-90900000D01*
%TO.N,/P4 Batsense-Balancing/nCell2Balance*%
X162900000Y-91400000D02*
X162500000Y-91400000D01*
X163600000Y-92100000D02*
X163100000Y-91600000D01*
X163100000Y-91600000D02*
X162900000Y-91400000D01*
%TO.N,Cell1Balance*%
X160200000Y-86500000D02*
X160500000Y-86200000D01*
X160500000Y-86200000D02*
X160900000Y-86200000D01*
X160950000Y-86250000D02*
X161500000Y-86250000D01*
X159790000Y-88310000D02*
X160200000Y-87900000D01*
X158750000Y-88310000D02*
X159790000Y-88310000D01*
X160900000Y-86200000D02*
X160950000Y-86250000D01*
X160200000Y-87900000D02*
X160200000Y-86500000D01*
%TO.N,/P4 Batsense-Balancing/nCell1Balance*%
X162500000Y-86750000D02*
X163350000Y-86750000D01*
X162900000Y-86300000D02*
X162900000Y-86600000D01*
X162900000Y-86600000D02*
X163050000Y-86750000D01*
X163050000Y-86750000D02*
X163350000Y-86750000D01*
X163600000Y-86750000D02*
X163350000Y-86750000D01*
%TO.N,USBPD_PTN_ID*%
X160000000Y-96000000D02*
X158820000Y-96000000D01*
X158820000Y-96000000D02*
X158750000Y-95930000D01*
D34*
%TO.N,/P4 Batsense-Balancing/C4L*%
X166300000Y-90100000D02*
X166300000Y-91337500D01*
X166300000Y-91337500D02*
X166250000Y-91387500D01*
%TO.N,/P4 Batsense-Balancing/C3L*%
X165600000Y-95100000D02*
X164212500Y-95100000D01*
X164212500Y-95100000D02*
X164000000Y-95312500D01*
%TO.N,/P4 Batsense-Balancing/C2L*%
X164000000Y-89812500D02*
X164000000Y-91100000D01*
%TO.N,/P4 Batsense-Balancing/C1L*%
X164000000Y-84412500D02*
X164162500Y-84250000D01*
X164000000Y-85750000D02*
X164000000Y-84412500D01*
%TD*%
M02*
