%TF.GenerationSoftware,KiCad,Pcbnew,(6.0.9)*%
%TF.CreationDate,2023-02-03T10:43:04+01:00*%
%TF.ProjectId,ESPBoard,45535042-6f61-4726-942e-6b696361645f,rev?*%
%TF.SameCoordinates,Original*%
%TF.FileFunction,Copper,L4,Bot*%
%TF.FilePolarity,Positive*%
%FSLAX46Y46*%
G04 Gerber Fmt 4.6, Leading zero omitted, Abs format (unit mm)*
G04 Created by KiCad (PCBNEW (6.0.9)) date 2023-02-03 10:43:04*
%MOMM*%
%LPD*%
G01*
G04 APERTURE LIST*
G04 Aperture macros list*
%AMRoundRect*
0 Rectangle with rounded corners*
0 $1 Rounding radius*
0 $2 $3 $4 $5 $6 $7 $8 $9 X,Y pos of 4 corners*
0 Add a 4 corners polygon primitive as box body*
4,1,4,$2,$3,$4,$5,$6,$7,$8,$9,$2,$3,0*
0 Add four circle primitives for the rounded corners*
1,1,$1+$1,$2,$3*
1,1,$1+$1,$4,$5*
1,1,$1+$1,$6,$7*
1,1,$1+$1,$8,$9*
0 Add four rect primitives between the rounded corners*
20,1,$1+$1,$2,$3,$4,$5,0*
20,1,$1+$1,$4,$5,$6,$7,0*
20,1,$1+$1,$6,$7,$8,$9,0*
20,1,$1+$1,$8,$9,$2,$3,0*%
G04 Aperture macros list end*
%TA.AperFunction,ComponentPad*%
%ADD10C,0.600000*%
%TD*%
%TA.AperFunction,SMDPad,CuDef*%
%ADD11RoundRect,0.225000X0.250000X-0.225000X0.250000X0.225000X-0.250000X0.225000X-0.250000X-0.225000X0*%
%TD*%
%TA.AperFunction,SMDPad,CuDef*%
%ADD12RoundRect,0.150000X0.150000X0.625000X-0.150000X0.625000X-0.150000X-0.625000X0.150000X-0.625000X0*%
%TD*%
%TA.AperFunction,SMDPad,CuDef*%
%ADD13RoundRect,0.250000X0.350000X0.650000X-0.350000X0.650000X-0.350000X-0.650000X0.350000X-0.650000X0*%
%TD*%
%TA.AperFunction,SMDPad,CuDef*%
%ADD14RoundRect,0.135000X-0.185000X0.135000X-0.185000X-0.135000X0.185000X-0.135000X0.185000X0.135000X0*%
%TD*%
%TA.AperFunction,SMDPad,CuDef*%
%ADD15RoundRect,0.250000X0.475000X-0.250000X0.475000X0.250000X-0.475000X0.250000X-0.475000X-0.250000X0*%
%TD*%
%TA.AperFunction,SMDPad,CuDef*%
%ADD16RoundRect,0.135000X-0.135000X-0.185000X0.135000X-0.185000X0.135000X0.185000X-0.135000X0.185000X0*%
%TD*%
%TA.AperFunction,SMDPad,CuDef*%
%ADD17RoundRect,0.135000X0.185000X-0.135000X0.185000X0.135000X-0.185000X0.135000X-0.185000X-0.135000X0*%
%TD*%
%TA.AperFunction,SMDPad,CuDef*%
%ADD18R,2.100000X0.750000*%
%TD*%
%TA.AperFunction,SMDPad,CuDef*%
%ADD19RoundRect,0.135000X0.135000X0.185000X-0.135000X0.185000X-0.135000X-0.185000X0.135000X-0.185000X0*%
%TD*%
%TA.AperFunction,SMDPad,CuDef*%
%ADD20R,0.650000X1.800000*%
%TD*%
%TA.AperFunction,ViaPad*%
%ADD21C,0.450000*%
%TD*%
%TA.AperFunction,ViaPad*%
%ADD22C,0.700000*%
%TD*%
%TA.AperFunction,Conductor*%
%ADD23C,0.300000*%
%TD*%
%TA.AperFunction,Conductor*%
%ADD24C,0.180000*%
%TD*%
%TA.AperFunction,Conductor*%
%ADD25C,0.200000*%
%TD*%
%TA.AperFunction,Conductor*%
%ADD26C,0.500000*%
%TD*%
G04 APERTURE END LIST*
D10*
%TO.P,U301,41,GND*%
%TO.N,GND*%
X149200000Y-93360000D03*
X147100000Y-95460000D03*
X147800000Y-93360000D03*
X148500000Y-95460000D03*
X147800000Y-94760000D03*
X147100000Y-94060000D03*
X149200000Y-94760000D03*
X149200000Y-96160000D03*
X148500000Y-94060000D03*
X149900000Y-94060000D03*
X149900000Y-95460000D03*
X147800000Y-96160000D03*
%TD*%
D11*
%TO.P,C401,1*%
%TO.N,Cell1ADC*%
X134000000Y-94025000D03*
%TO.P,C401,2*%
%TO.N,GND*%
X134000000Y-92475000D03*
%TD*%
D12*
%TO.P,J204,1,Pin_1*%
%TO.N,+3V3*%
X146500000Y-114200000D03*
%TO.P,J204,2,Pin_2*%
%TO.N,MAINLED_nFTL*%
X145500000Y-114200000D03*
%TO.P,J204,3,Pin_3*%
%TO.N,MAINLED_PWM*%
X144500000Y-114200000D03*
%TO.P,J204,4,Pin_4*%
%TO.N,GND*%
X143500000Y-114200000D03*
D13*
%TO.P,J204,MP*%
%TO.N,N/C*%
X147800000Y-118075000D03*
X142200000Y-118075000D03*
%TD*%
D14*
%TO.P,R410,1*%
%TO.N,Cell1Balance*%
X161500000Y-86240000D03*
%TO.P,R410,2*%
%TO.N,GND*%
X161500000Y-87260000D03*
%TD*%
D15*
%TO.P,C301,1*%
%TO.N,+3V3*%
X143750000Y-88700000D03*
%TO.P,C301,2*%
%TO.N,GND*%
X143750000Y-86800000D03*
%TD*%
D16*
%TO.P,R319,1*%
%TO.N,+3V3*%
X156490000Y-99750000D03*
%TO.P,R319,2*%
%TO.N,I2C_SCL*%
X157510000Y-99750000D03*
%TD*%
%TO.P,R303,1*%
%TO.N,/P3 ESP32/USB_D+*%
X153490000Y-110600000D03*
%TO.P,R303,2*%
%TO.N,C_USB_D+*%
X154510000Y-110600000D03*
%TD*%
D17*
%TO.P,R307,1*%
%TO.N,/P3 ESP32/Select 3*%
X149500000Y-100760000D03*
%TO.P,R307,2*%
%TO.N,GND*%
X149500000Y-99740000D03*
%TD*%
D14*
%TO.P,R317,1*%
%TO.N,+3V3*%
X148500000Y-99740000D03*
%TO.P,R317,2*%
%TO.N,/P3 ESP32/Select 3*%
X148500000Y-100760000D03*
%TD*%
%TO.P,R407,1*%
%TO.N,Cell2Balance*%
X161650000Y-90890000D03*
%TO.P,R407,2*%
%TO.N,GND*%
X161650000Y-91910000D03*
%TD*%
D18*
%TO.P,J203,1,Pin_1*%
%TO.N,+3V3*%
X132900000Y-102540000D03*
%TO.P,J203,2,Pin_2*%
X129300000Y-102540000D03*
%TO.P,J203,3,Pin_3*%
%TO.N,BQ_IBAT*%
X132900000Y-101270000D03*
%TO.P,J203,4,Pin_4*%
%TO.N,BQ_EN_OTG*%
X129300000Y-101270000D03*
%TO.P,J203,5,Pin_5*%
%TO.N,GND*%
X132900000Y-100000000D03*
%TO.P,J203,6,Pin_6*%
X129300000Y-100000000D03*
%TO.P,J203,7,Pin_7*%
%TO.N,BQ_IADPT*%
X132900000Y-98730000D03*
%TO.P,J203,8,Pin_8*%
%TO.N,BQ_CMPOUT*%
X129300000Y-98730000D03*
%TO.P,J203,9,Pin_9*%
%TO.N,GND*%
X132900000Y-97460000D03*
%TO.P,J203,10,Pin_10*%
X129300000Y-97460000D03*
%TD*%
D16*
%TO.P,R402,1*%
%TO.N,Cell4*%
X165790000Y-89000000D03*
%TO.P,R402,2*%
%TO.N,/P4 Batsense-Balancing/nCell4Balance*%
X166810000Y-89000000D03*
%TD*%
D17*
%TO.P,R404,1*%
%TO.N,Cell3Balance*%
X169500000Y-95620000D03*
%TO.P,R404,2*%
%TO.N,GND*%
X169500000Y-94600000D03*
%TD*%
D12*
%TO.P,J207,1,Pin_1*%
%TO.N,+3V3*%
X156500000Y-114200000D03*
%TO.P,J207,2,Pin_2*%
%TO.N,I2C_SDA*%
X155500000Y-114200000D03*
%TO.P,J207,3,Pin_3*%
%TO.N,I2C_SCL*%
X154500000Y-114200000D03*
%TO.P,J207,4,Pin_4*%
%TO.N,GND*%
X153500000Y-114200000D03*
D13*
%TO.P,J207,MP*%
%TO.N,N/C*%
X152200000Y-118075000D03*
X157800000Y-118075000D03*
%TD*%
D19*
%TO.P,R408,1*%
%TO.N,Cell2*%
X164510000Y-92100000D03*
%TO.P,R408,2*%
%TO.N,/P4 Batsense-Balancing/nCell2Balance*%
X163490000Y-92100000D03*
%TD*%
D18*
%TO.P,J201,1,Pin_1*%
%TO.N,+3V3*%
X170700000Y-102540000D03*
%TO.P,J201,2,Pin_2*%
X167100000Y-102540000D03*
%TO.P,J201,3,Pin_3*%
%TO.N,I2C_SDA*%
X170700000Y-101270000D03*
%TO.P,J201,4,Pin_4*%
%TO.N,I2C_SCL*%
X167100000Y-101270000D03*
%TO.P,J201,5,Pin_5*%
%TO.N,GND*%
X170700000Y-100000000D03*
%TO.P,J201,6,Pin_6*%
X167100000Y-100000000D03*
%TO.P,J201,7,Pin_7*%
%TO.N,USBPD_INT_N*%
X170700000Y-98730000D03*
%TO.P,J201,8,Pin_8*%
%TO.N,BQ_CHRG_OK*%
X167100000Y-98730000D03*
%TO.P,J201,9,Pin_9*%
%TO.N,USBPD_PTN_ID*%
X170700000Y-97460000D03*
%TO.P,J201,10,Pin_10*%
%TO.N,GND*%
X167100000Y-97460000D03*
%TD*%
D17*
%TO.P,R305,1*%
%TO.N,/P3 ESP32/Select 1*%
X155250000Y-100760000D03*
%TO.P,R305,2*%
%TO.N,GND*%
X155250000Y-99740000D03*
%TD*%
D11*
%TO.P,C403,1*%
%TO.N,Cell3ADC*%
X134000000Y-90775000D03*
%TO.P,C403,2*%
%TO.N,GND*%
X134000000Y-89225000D03*
%TD*%
D14*
%TO.P,R316,1*%
%TO.N,+3V3*%
X151300000Y-99740000D03*
%TO.P,R316,2*%
%TO.N,/P3 ESP32/Select 2*%
X151300000Y-100760000D03*
%TD*%
D17*
%TO.P,R306,1*%
%TO.N,/P3 ESP32/Select 2*%
X152300000Y-100760000D03*
%TO.P,R306,2*%
%TO.N,GND*%
X152300000Y-99740000D03*
%TD*%
D14*
%TO.P,R315,1*%
%TO.N,+3V3*%
X154250000Y-99740000D03*
%TO.P,R315,2*%
%TO.N,/P3 ESP32/Select 1*%
X154250000Y-100760000D03*
%TD*%
D16*
%TO.P,R318,1*%
%TO.N,+3V3*%
X156490000Y-101000000D03*
%TO.P,R318,2*%
%TO.N,I2C_SDA*%
X157510000Y-101000000D03*
%TD*%
D19*
%TO.P,R411,1*%
%TO.N,Cell1*%
X164520000Y-86750000D03*
%TO.P,R411,2*%
%TO.N,/P4 Batsense-Balancing/nCell1Balance*%
X163500000Y-86750000D03*
%TD*%
D11*
%TO.P,C404,1*%
%TO.N,Cell4ADC*%
X137750000Y-90775000D03*
%TO.P,C404,2*%
%TO.N,GND*%
X137750000Y-89225000D03*
%TD*%
D20*
%TO.P,J202,1,Pin_1*%
%TO.N,C_USB_D+*%
X157635000Y-111350000D03*
%TO.P,J202,2,Pin_2*%
%TO.N,C_USB_D-*%
X156365000Y-108650000D03*
%TD*%
%TO.P,J206,1,Pin_1*%
%TO.N,Cell4*%
X147460000Y-87150000D03*
%TO.P,J206,2,Pin_2*%
%TO.N,Cell3*%
X148730000Y-89850000D03*
%TO.P,J206,3,Pin_3*%
%TO.N,Cell2*%
X150000000Y-87150000D03*
%TO.P,J206,4,Pin_4*%
%TO.N,Cell1*%
X151270000Y-89850000D03*
%TO.P,J206,5,Pin_5*%
%TO.N,GND*%
X152540000Y-87150000D03*
%TD*%
D16*
%TO.P,R304,1*%
%TO.N,/P3 ESP32/USB_D-*%
X153490000Y-109400000D03*
%TO.P,R304,2*%
%TO.N,C_USB_D-*%
X154510000Y-109400000D03*
%TD*%
D11*
%TO.P,C402,1*%
%TO.N,Cell2ADC*%
X137750000Y-94025000D03*
%TO.P,C402,2*%
%TO.N,GND*%
X137750000Y-92475000D03*
%TD*%
D14*
%TO.P,R405,1*%
%TO.N,Cell3*%
X166600000Y-94590000D03*
%TO.P,R405,2*%
%TO.N,/P4 Batsense-Balancing/nCell3Balance*%
X166600000Y-95610000D03*
%TD*%
D16*
%TO.P,R401,1*%
%TO.N,Cell4Balance*%
X167790000Y-90500000D03*
%TO.P,R401,2*%
%TO.N,GND*%
X168810000Y-90500000D03*
%TD*%
D21*
%TO.N,GND*%
X157000000Y-94000000D03*
X146900000Y-100000000D03*
%TO.N,UART_RXDO*%
X138300000Y-107200000D03*
X138700000Y-104100000D03*
%TO.N,UART_TXDO*%
X135100000Y-104200000D03*
%TO.N,UART_RXDO*%
X143700000Y-101100000D03*
%TO.N,UART_TXDO*%
X143700000Y-100200000D03*
%TO.N,/P3 ESP32/Select 3*%
X148500000Y-101400000D03*
%TO.N,GND*%
X160200000Y-100400000D03*
%TO.N,I2C_SCL*%
X164800000Y-100400000D03*
%TO.N,+3V3*%
X142800000Y-97100000D03*
%TO.N,Cell1*%
X165000000Y-86800000D03*
X161700000Y-89900000D03*
%TO.N,Cell1ADC*%
X134270000Y-94770000D03*
%TO.N,Cell2ADC*%
X138570000Y-93950000D03*
%TO.N,Cell3ADC*%
X133210000Y-90700000D03*
%TO.N,Cell4ADC*%
X138510000Y-90850000D03*
%TO.N,I2C_SDA*%
X159740000Y-101010000D03*
X169250000Y-101250000D03*
%TO.N,USBPD_INT_N*%
X169250000Y-98750000D03*
%TO.N,BQ_CHRG_OK*%
X160250000Y-97250000D03*
%TO.N,I2C_SCL*%
X159750000Y-99750000D03*
%TO.N,+3V3*%
X134530000Y-102540000D03*
X146500000Y-112500000D03*
X169750000Y-104750000D03*
X130730000Y-102540000D03*
X142560000Y-88330000D03*
%TO.N,BQ_IBAT*%
X134300000Y-101300000D03*
%TO.N,BQ_IADPT*%
X134300000Y-98700000D03*
%TO.N,BQ_CMPOUT*%
X130600000Y-98700000D03*
%TO.N,BQ_EN_OTG*%
X145560000Y-103660000D03*
%TO.N,MAINLED_PWM*%
X146820000Y-103670000D03*
%TO.N,GND*%
X133000000Y-109000000D03*
X131000000Y-91000000D03*
X134100000Y-106230000D03*
X133000000Y-111000000D03*
X130000000Y-96000000D03*
D22*
X161100000Y-84800000D03*
D21*
X161000000Y-96824500D03*
X168000000Y-111000000D03*
X131000000Y-107000000D03*
X168500000Y-97500000D03*
X142000000Y-114000000D03*
X144000000Y-97000000D03*
X131750000Y-91600000D03*
X161992971Y-115991529D03*
X135300000Y-91000000D03*
X168000000Y-93000000D03*
X131100000Y-92500000D03*
X142000000Y-116000000D03*
X162750000Y-85500000D03*
X160860000Y-87260000D03*
X167000000Y-87000000D03*
X171000000Y-96660498D03*
X138000000Y-114000000D03*
X153500000Y-113174500D03*
X146900000Y-101300000D03*
D22*
X161100000Y-83800000D03*
D21*
X143500000Y-113174500D03*
X134360000Y-100000000D03*
X169250000Y-98000000D03*
X140000000Y-114000000D03*
X134350000Y-97120000D03*
X139250000Y-85500000D03*
X157991529Y-119991529D03*
X161000000Y-82000000D03*
X157500000Y-87000000D03*
X156000000Y-118000000D03*
X131900000Y-94600000D03*
X146000000Y-120000000D03*
X164250000Y-97750000D03*
X168750000Y-100000000D03*
X167250000Y-88250000D03*
X146000000Y-118000000D03*
X156000000Y-90700000D03*
X137000000Y-85000000D03*
X130730000Y-100000000D03*
X152000000Y-120016941D03*
X168000000Y-107000000D03*
X162750000Y-92425500D03*
X138000000Y-116000000D03*
X144000000Y-120000000D03*
X164000000Y-116000000D03*
X146480000Y-91330000D03*
X131460000Y-100000000D03*
X157000000Y-97000000D03*
X134750000Y-89250000D03*
X155250000Y-99250000D03*
X160810000Y-91910000D03*
X156000000Y-96000000D03*
X145967365Y-97048224D03*
X152000000Y-93000000D03*
X169500000Y-93900000D03*
X140000000Y-118000000D03*
X137000000Y-83000000D03*
X159993933Y-115991529D03*
X150000000Y-114000000D03*
X149992491Y-119987294D03*
X147576233Y-92016233D03*
X166000000Y-109000000D03*
X168800000Y-91200000D03*
X160462792Y-85626706D03*
X145000000Y-96000000D03*
X153500000Y-115250000D03*
X160000000Y-92250000D03*
X159992010Y-117999519D03*
X137000000Y-103500000D03*
X150520498Y-90425500D03*
X132000000Y-96000000D03*
X134750000Y-92500000D03*
X149500000Y-99250000D03*
X166000000Y-107000000D03*
X137600000Y-113330000D03*
X171000000Y-95500000D03*
X139000000Y-83000000D03*
X134560000Y-103320000D03*
X139000000Y-82000000D03*
X135250000Y-101500000D03*
X138500000Y-92750000D03*
X142000000Y-120000000D03*
X129000000Y-105000000D03*
X135000000Y-114000000D03*
X130000000Y-94000000D03*
X165500000Y-100000000D03*
X130790000Y-97460000D03*
X138500000Y-89250000D03*
X145994219Y-88998843D03*
X165500000Y-97500000D03*
X149300000Y-88300000D03*
X133000000Y-87000000D03*
X133000000Y-107000000D03*
X135400000Y-94300000D03*
X155000000Y-87000000D03*
X136000000Y-116000000D03*
X152000000Y-114000000D03*
X151750000Y-87250000D03*
X153700000Y-103300000D03*
X155000000Y-97000000D03*
X129000000Y-103339502D03*
X134000000Y-86000000D03*
X170000000Y-92000000D03*
X148000000Y-114000000D03*
X148000000Y-120000000D03*
X170000000Y-107000000D03*
X144000000Y-118000000D03*
X135660000Y-84470000D03*
X154000000Y-93000000D03*
X138000000Y-117994803D03*
X155992491Y-119991529D03*
X154000000Y-120000000D03*
X152300000Y-99250000D03*
X166000000Y-113000000D03*
X130760000Y-103214500D03*
X166250000Y-104750000D03*
X153500000Y-87250000D03*
X159500000Y-86000000D03*
X131000000Y-105000000D03*
X131000000Y-109000000D03*
X142500000Y-87000000D03*
X132996245Y-112998557D03*
X139997687Y-115999999D03*
X132240000Y-88590000D03*
X135000000Y-110750000D03*
X168000000Y-109000000D03*
X143500000Y-115250000D03*
X166000000Y-111000000D03*
X152000000Y-95000000D03*
X154000000Y-118000000D03*
%TO.N,MAINLED_nFTL*%
X148090000Y-103710000D03*
%TO.N,UART_RXDO*%
X137120000Y-112570000D03*
%TO.N,/P3 ESP32/LED6*%
X157630000Y-102370000D03*
X158020000Y-105180000D03*
D22*
%TO.N,Cell4*%
X165800000Y-88200000D03*
D21*
X136149000Y-91000000D03*
D22*
%TO.N,Cell3*%
X167400000Y-94000000D03*
D21*
X132875000Y-91675000D03*
%TO.N,Cell2*%
X146830000Y-90640000D03*
X136250000Y-94250000D03*
D22*
X165000000Y-92200000D03*
D21*
X150000000Y-88500000D03*
%TO.N,Cell1*%
X146915000Y-91865000D03*
X151200000Y-91000000D03*
X132800000Y-94600000D03*
%TO.N,/P3 ESP32/USB_D+*%
X142250000Y-103550000D03*
%TO.N,/P3 ESP32/USB_D-*%
X142270000Y-102280000D03*
%TO.N,/P3 ESP32/Select 1*%
X155250000Y-101500000D03*
%TO.N,/P3 ESP32/Select 2*%
X151300000Y-101500000D03*
%TO.N,Cell4Balance*%
X160000000Y-93000000D03*
X167800000Y-91200000D03*
%TO.N,/P4 Batsense-Balancing/nCell4Balance*%
X167300000Y-89000000D03*
%TO.N,Cell3Balance*%
X170100000Y-95600000D03*
%TO.N,/P4 Batsense-Balancing/nCell3Balance*%
X167300000Y-95400000D03*
%TO.N,Cell2Balance*%
X160900000Y-90900000D03*
%TO.N,/P4 Batsense-Balancing/nCell2Balance*%
X163100000Y-91600000D03*
%TO.N,Cell1Balance*%
X160900000Y-86200000D03*
%TO.N,/P4 Batsense-Balancing/nCell1Balance*%
X162900000Y-86300000D03*
%TO.N,USBPD_PTN_ID*%
X160000000Y-96000000D03*
%TD*%
D23*
%TO.N,Cell1*%
X134160000Y-95950000D02*
X132810000Y-94600000D01*
X132810000Y-94600000D02*
X132800000Y-94600000D01*
X142840000Y-95950000D02*
X134160000Y-95950000D01*
X146915000Y-91875000D02*
X142840000Y-95950000D01*
X146915000Y-91865000D02*
X146915000Y-91875000D01*
%TO.N,Cell4Balance*%
X160100000Y-93100000D02*
X160000000Y-93000000D01*
X165900000Y-93100000D02*
X160100000Y-93100000D01*
X167800000Y-91200000D02*
X165900000Y-93100000D01*
%TO.N,UART_RXDO*%
X138300000Y-111390000D02*
X137120000Y-112570000D01*
X138300000Y-107200000D02*
X138300000Y-111390000D01*
X138700000Y-103800000D02*
X138700000Y-104100000D01*
X141400000Y-101100000D02*
X138700000Y-103800000D01*
X143700000Y-101100000D02*
X141400000Y-101100000D01*
%TO.N,UART_TXDO*%
X137400000Y-104200000D02*
X135100000Y-104200000D01*
X137500000Y-104100000D02*
X137400000Y-104200000D01*
X138500000Y-103100000D02*
X137500000Y-104100000D01*
X138500000Y-103000000D02*
X138500000Y-103100000D01*
D24*
%TO.N,/P3 ESP32/USB_D+*%
X151271298Y-110190000D02*
X153080000Y-110190000D01*
X149760000Y-108678702D02*
X151271298Y-110190000D01*
X142250000Y-103550000D02*
X142705000Y-103095000D01*
X149760000Y-104397402D02*
X149760000Y-108678702D01*
X142705000Y-103095000D02*
X148457598Y-103095000D01*
X148457598Y-103095000D02*
X149760000Y-104397402D01*
X153080000Y-110190000D02*
X153490000Y-110600000D01*
D25*
%TO.N,BQ_EN_OTG*%
X130740000Y-101270000D02*
X129300000Y-101270000D01*
X133260000Y-104900000D02*
X131320000Y-102960000D01*
X131320000Y-102960000D02*
X131320000Y-101850000D01*
X131320000Y-101850000D02*
X130740000Y-101270000D01*
X143640000Y-103660000D02*
X142400000Y-104900000D01*
X142400000Y-104900000D02*
X133260000Y-104900000D01*
X145560000Y-103660000D02*
X143640000Y-103660000D01*
D23*
%TO.N,UART_TXDO*%
X138500000Y-102700000D02*
X138500000Y-103000000D01*
X139200000Y-102000000D02*
X138500000Y-102700000D01*
X141000000Y-100200000D02*
X139200000Y-102000000D01*
X143700000Y-100200000D02*
X141000000Y-100200000D01*
%TO.N,/P3 ESP32/Select 3*%
X148500000Y-100760000D02*
X148500000Y-101400000D01*
%TO.N,+3V3*%
X151300000Y-99740000D02*
X151300000Y-98500000D01*
X151300000Y-98500000D02*
X151200000Y-98400000D01*
D26*
X151200000Y-98400000D02*
X148600000Y-98400000D01*
X154200000Y-98400000D02*
X151200000Y-98400000D01*
D23*
X148500000Y-99740000D02*
X148500000Y-98500000D01*
D26*
X148600000Y-98400000D02*
X146500000Y-98400000D01*
D23*
X148500000Y-98500000D02*
X148600000Y-98400000D01*
X156490000Y-98490000D02*
X156400000Y-98400000D01*
X156490000Y-99750000D02*
X156490000Y-98490000D01*
D26*
X146500000Y-98400000D02*
X143100000Y-98400000D01*
X143100000Y-98400000D02*
X142800000Y-98100000D01*
X142800000Y-98100000D02*
X142800000Y-97100000D01*
D23*
%TO.N,I2C_SCL*%
X165670000Y-101270000D02*
X167100000Y-101270000D01*
X164800000Y-100400000D02*
X165670000Y-101270000D01*
D26*
%TO.N,+3V3*%
X165640000Y-102540000D02*
X167100000Y-102540000D01*
X161500000Y-98400000D02*
X165640000Y-102540000D01*
X155900000Y-98400000D02*
X161500000Y-98400000D01*
X155900000Y-98400000D02*
X156400000Y-98400000D01*
X154200000Y-98400000D02*
X155900000Y-98400000D01*
D23*
%TO.N,BQ_CHRG_OK*%
X160700000Y-97700000D02*
X160250000Y-97250000D01*
X163730000Y-98730000D02*
X162700000Y-97700000D01*
X162700000Y-97700000D02*
X160700000Y-97700000D01*
X167100000Y-98730000D02*
X163730000Y-98730000D01*
%TO.N,+3V3*%
X154250000Y-98450000D02*
X154200000Y-98400000D01*
X154250000Y-99250000D02*
X154250000Y-98450000D01*
D26*
X135360000Y-102540000D02*
X140800000Y-97100000D01*
X140800000Y-97100000D02*
X142800000Y-97100000D01*
X134530000Y-102540000D02*
X135360000Y-102540000D01*
D23*
%TO.N,Cell1*%
X164950000Y-86750000D02*
X165000000Y-86800000D01*
X164520000Y-86750000D02*
X164950000Y-86750000D01*
D26*
%TO.N,Cell2*%
X162900000Y-89000000D02*
X165000000Y-91100000D01*
X165000000Y-91100000D02*
X165000000Y-92200000D01*
X158700000Y-88500000D02*
X159200000Y-89000000D01*
X151350000Y-88500000D02*
X158700000Y-88500000D01*
X159200000Y-89000000D02*
X162900000Y-89000000D01*
X150000000Y-87150000D02*
X151350000Y-88500000D01*
%TO.N,Cell1*%
X151320000Y-89900000D02*
X151270000Y-89850000D01*
X161700000Y-89900000D02*
X151320000Y-89900000D01*
%TO.N,Cell4*%
X165600000Y-88000000D02*
X165800000Y-88200000D01*
X160600000Y-88000000D02*
X165600000Y-88000000D01*
X159275000Y-86675000D02*
X160600000Y-88000000D01*
X159220405Y-86675000D02*
X159275000Y-86675000D01*
X148000000Y-85800000D02*
X158400000Y-85800000D01*
X147460000Y-86340000D02*
X148000000Y-85800000D01*
X158825000Y-86279595D02*
X159220405Y-86675000D01*
X147460000Y-87150000D02*
X147460000Y-86340000D01*
X158400000Y-85800000D02*
X158825000Y-86225000D01*
X158825000Y-86225000D02*
X158825000Y-86279595D01*
D23*
%TO.N,Cell1ADC*%
X134000000Y-94500000D02*
X134270000Y-94770000D01*
X134000000Y-94025000D02*
X134000000Y-94500000D01*
%TO.N,Cell2ADC*%
X137750000Y-94025000D02*
X138495000Y-94025000D01*
X138495000Y-94025000D02*
X138570000Y-93950000D01*
%TO.N,Cell3ADC*%
X133285000Y-90775000D02*
X133210000Y-90700000D01*
X134000000Y-90775000D02*
X133285000Y-90775000D01*
%TO.N,Cell4ADC*%
X137750000Y-90775000D02*
X138435000Y-90775000D01*
X138435000Y-90775000D02*
X138510000Y-90850000D01*
%TO.N,I2C_SDA*%
X159390000Y-105120000D02*
X160130000Y-104380000D01*
X159390000Y-114060000D02*
X159390000Y-105120000D01*
X155500000Y-114200000D02*
X155500000Y-114970000D01*
X169270000Y-101270000D02*
X169250000Y-101250000D01*
X159730000Y-101000000D02*
X159740000Y-101010000D01*
X156070000Y-115540000D02*
X157910000Y-115540000D01*
X157910000Y-115540000D02*
X159390000Y-114060000D01*
X160130000Y-101400000D02*
X159740000Y-101010000D01*
X160130000Y-104380000D02*
X160130000Y-101400000D01*
X157510000Y-101000000D02*
X159730000Y-101000000D01*
X155500000Y-114970000D02*
X156070000Y-115540000D01*
X170700000Y-101270000D02*
X169270000Y-101270000D01*
%TO.N,USBPD_INT_N*%
X169270000Y-98730000D02*
X169250000Y-98750000D01*
X170700000Y-98730000D02*
X169270000Y-98730000D01*
%TO.N,I2C_SCL*%
X160160000Y-114717106D02*
X158447106Y-116430000D01*
X159250000Y-99750000D02*
X159750000Y-99750000D01*
X158447106Y-116430000D02*
X155380000Y-116430000D01*
X160160000Y-105410000D02*
X160160000Y-114717106D01*
X154500000Y-115550000D02*
X154500000Y-114200000D01*
X160500000Y-99750000D02*
X160910000Y-100160000D01*
X160910000Y-100160000D02*
X160910000Y-104660000D01*
X157510000Y-99750000D02*
X159250000Y-99750000D01*
X160500000Y-99750000D02*
X159250000Y-99750000D01*
X155380000Y-116430000D02*
X154500000Y-115550000D01*
X160910000Y-104660000D02*
X160160000Y-105410000D01*
D26*
%TO.N,+3V3*%
X146500000Y-114200000D02*
X146500000Y-112500000D01*
D23*
X168750000Y-102580000D02*
X168710000Y-102540000D01*
X142930000Y-88700000D02*
X142560000Y-88330000D01*
X168750000Y-103750000D02*
X168750000Y-102580000D01*
X129300000Y-102540000D02*
X130730000Y-102540000D01*
X143750000Y-88700000D02*
X142930000Y-88700000D01*
D26*
X167100000Y-102540000D02*
X168710000Y-102540000D01*
X156000000Y-112500000D02*
X146500000Y-112500000D01*
D23*
X169750000Y-104750000D02*
X168750000Y-103750000D01*
X154250000Y-99740000D02*
X154250000Y-99250000D01*
X132900000Y-102540000D02*
X134530000Y-102540000D01*
D26*
X168710000Y-102540000D02*
X170700000Y-102540000D01*
D23*
X156490000Y-99750000D02*
X156490000Y-101000000D01*
D26*
X156500000Y-113000000D02*
X156000000Y-112500000D01*
X156500000Y-114200000D02*
X156500000Y-113000000D01*
D24*
%TO.N,C_USB_D+*%
X157635000Y-110635000D02*
X157600000Y-110600000D01*
X157600000Y-110600000D02*
X154510000Y-110600000D01*
X157635000Y-111350000D02*
X157635000Y-110635000D01*
%TO.N,C_USB_D-*%
X156365000Y-108650000D02*
X156365000Y-109435000D01*
X154610000Y-109400000D02*
X154510000Y-109500000D01*
X156330000Y-109400000D02*
X154610000Y-109400000D01*
X156365000Y-109435000D02*
X156330000Y-109400000D01*
D23*
%TO.N,BQ_IBAT*%
X132900000Y-101270000D02*
X134270000Y-101270000D01*
X134270000Y-101270000D02*
X134300000Y-101300000D01*
%TO.N,BQ_IADPT*%
X132900000Y-98730000D02*
X134270000Y-98730000D01*
X134270000Y-98730000D02*
X134300000Y-98700000D01*
%TO.N,BQ_CMPOUT*%
X130600000Y-98700000D02*
X129330000Y-98700000D01*
X129330000Y-98700000D02*
X129300000Y-98730000D01*
%TO.N,MAINLED_PWM*%
X144500000Y-105990000D02*
X144500000Y-114200000D01*
X146820000Y-103670000D02*
X144500000Y-105990000D01*
%TO.N,GND*%
X129300000Y-97460000D02*
X130790000Y-97460000D01*
X167100000Y-97460000D02*
X165540000Y-97460000D01*
X132900000Y-97460000D02*
X134010000Y-97460000D01*
X152540000Y-87150000D02*
X151850000Y-87150000D01*
X134010000Y-97460000D02*
X134350000Y-97120000D01*
X167100000Y-100000000D02*
X168750000Y-100000000D01*
X138500000Y-92750000D02*
X138025000Y-92750000D01*
X155250000Y-99740000D02*
X155250000Y-99250000D01*
X153500000Y-114200000D02*
X153500000Y-113174500D01*
X167100000Y-97460000D02*
X168460000Y-97460000D01*
X132900000Y-100000000D02*
X134360000Y-100000000D01*
X134025000Y-89250000D02*
X134000000Y-89225000D01*
X149500000Y-99740000D02*
X149500000Y-99250000D01*
X131460000Y-100000000D02*
X132900000Y-100000000D01*
X169500000Y-94600000D02*
X169500000Y-93900000D01*
X142500000Y-87000000D02*
X143550000Y-87000000D01*
X143500000Y-114200000D02*
X143500000Y-115250000D01*
X143550000Y-87000000D02*
X143750000Y-86800000D01*
X134750000Y-92500000D02*
X134025000Y-92500000D01*
X153500000Y-114200000D02*
X153500000Y-115250000D01*
X151850000Y-87150000D02*
X151750000Y-87250000D01*
X143500000Y-114200000D02*
X143500000Y-113174500D01*
X130730000Y-100000000D02*
X131460000Y-100000000D01*
X153400000Y-87150000D02*
X153500000Y-87250000D01*
X160810000Y-91910000D02*
X161650000Y-91910000D01*
X152540000Y-87150000D02*
X153400000Y-87150000D01*
X137775000Y-89250000D02*
X137750000Y-89225000D01*
X168810000Y-91190000D02*
X168800000Y-91200000D01*
X134750000Y-89250000D02*
X134025000Y-89250000D01*
X160860000Y-87260000D02*
X161500000Y-87260000D01*
X152300000Y-99740000D02*
X152300000Y-99250000D01*
X130790000Y-97460000D02*
X132900000Y-97460000D01*
X168810000Y-90500000D02*
X168810000Y-91190000D01*
X168750000Y-100000000D02*
X170700000Y-100000000D01*
X165540000Y-97460000D02*
X165500000Y-97500000D01*
X138500000Y-89250000D02*
X137775000Y-89250000D01*
X168460000Y-97460000D02*
X168500000Y-97500000D01*
X129300000Y-100000000D02*
X130730000Y-100000000D01*
X138025000Y-92750000D02*
X137750000Y-92475000D01*
X167100000Y-100000000D02*
X165500000Y-100000000D01*
X134025000Y-92500000D02*
X134000000Y-92475000D01*
%TO.N,MAINLED_nFTL*%
X148090000Y-103710000D02*
X145500000Y-106300000D01*
X145500000Y-106300000D02*
X145500000Y-114200000D01*
%TO.N,/P3 ESP32/LED6*%
X157600000Y-104760000D02*
X157600000Y-102400000D01*
X157600000Y-102400000D02*
X157630000Y-102370000D01*
X158020000Y-105180000D02*
X157600000Y-104760000D01*
%TO.N,Cell4*%
X165790000Y-88210000D02*
X165800000Y-88200000D01*
X147460000Y-87680000D02*
X137090000Y-87680000D01*
X147460000Y-87150000D02*
X147460000Y-87680000D01*
X137090000Y-87680000D02*
X136149000Y-88621000D01*
X165790000Y-89000000D02*
X165790000Y-88210000D01*
X136149000Y-88621000D02*
X136149000Y-91000000D01*
%TO.N,Cell3*%
X138563173Y-92000000D02*
X143250000Y-92000000D01*
D26*
X158800000Y-94000000D02*
X167400000Y-94000000D01*
X149200000Y-91800000D02*
X156600000Y-91800000D01*
D23*
X166600000Y-94590000D02*
X166810000Y-94590000D01*
D26*
X156600000Y-91800000D02*
X158800000Y-94000000D01*
D23*
X138238173Y-91675000D02*
X138563173Y-92000000D01*
X132875000Y-91675000D02*
X138238173Y-91675000D01*
X166810000Y-94590000D02*
X167400000Y-94000000D01*
X143250000Y-92000000D02*
X145400000Y-89850000D01*
D26*
X148730000Y-89850000D02*
X148730000Y-91330000D01*
X148730000Y-91330000D02*
X149200000Y-91800000D01*
D23*
X145400000Y-89850000D02*
X148730000Y-89850000D01*
%TO.N,Cell2*%
X141940000Y-95030000D02*
X136910000Y-95030000D01*
X164900000Y-92100000D02*
X165000000Y-92200000D01*
X136910000Y-95030000D02*
X136250000Y-94370000D01*
X146830000Y-90640000D02*
X146330000Y-90640000D01*
X146330000Y-90640000D02*
X141940000Y-95030000D01*
X164510000Y-92100000D02*
X164900000Y-92100000D01*
X150000000Y-87150000D02*
X150000000Y-88500000D01*
X136250000Y-94370000D02*
X136250000Y-94250000D01*
D26*
%TO.N,Cell1*%
X151200000Y-91000000D02*
X151270000Y-90930000D01*
X151270000Y-90930000D02*
X151270000Y-89850000D01*
D24*
%TO.N,/P3 ESP32/USB_D-*%
X150140000Y-108521298D02*
X151428702Y-109810000D01*
X142270000Y-102280000D02*
X142705000Y-102715000D01*
X150140000Y-104240000D02*
X150140000Y-108521298D01*
X151428702Y-109810000D02*
X153080000Y-109810000D01*
X153080000Y-109810000D02*
X153490000Y-109400000D01*
X148615000Y-102715000D02*
X150140000Y-104240000D01*
X142705000Y-102715000D02*
X148615000Y-102715000D01*
D23*
%TO.N,/P3 ESP32/Select 1*%
X155250000Y-100760000D02*
X155250000Y-101500000D01*
X154250000Y-100760000D02*
X155250000Y-100760000D01*
%TO.N,/P3 ESP32/Select 2*%
X152300000Y-100760000D02*
X151300000Y-100760000D01*
X151300000Y-100760000D02*
X151300000Y-101500000D01*
%TO.N,/P3 ESP32/Select 3*%
X149500000Y-100760000D02*
X148500000Y-100760000D01*
%TO.N,Cell4Balance*%
X167790000Y-90500000D02*
X167790000Y-91190000D01*
X167790000Y-91190000D02*
X167800000Y-91200000D01*
%TO.N,/P4 Batsense-Balancing/nCell4Balance*%
X166810000Y-89000000D02*
X167300000Y-89000000D01*
%TO.N,Cell3Balance*%
X170100000Y-95600000D02*
X169520000Y-95600000D01*
X169520000Y-95600000D02*
X169500000Y-95620000D01*
%TO.N,/P4 Batsense-Balancing/nCell3Balance*%
X167090000Y-95610000D02*
X167300000Y-95400000D01*
X166600000Y-95610000D02*
X167090000Y-95610000D01*
%TO.N,Cell2Balance*%
X160910000Y-90890000D02*
X161650000Y-90890000D01*
X160900000Y-90900000D02*
X160910000Y-90890000D01*
%TO.N,/P4 Batsense-Balancing/nCell2Balance*%
X163490000Y-91990000D02*
X163100000Y-91600000D01*
X163490000Y-92100000D02*
X163490000Y-91990000D01*
%TO.N,Cell1Balance*%
X160900000Y-86200000D02*
X161460000Y-86200000D01*
X161460000Y-86200000D02*
X161500000Y-86240000D01*
%TO.N,/P4 Batsense-Balancing/nCell1Balance*%
X162900000Y-86300000D02*
X162900000Y-86450000D01*
X163200000Y-86750000D02*
X163500000Y-86750000D01*
X162900000Y-86450000D02*
X163200000Y-86750000D01*
%TO.N,USBPD_PTN_ID*%
X168500000Y-96500000D02*
X168250000Y-96250000D01*
X168250000Y-96250000D02*
X161500000Y-96250000D01*
X161500000Y-96250000D02*
X160250000Y-96250000D01*
X169460000Y-97460000D02*
X168500000Y-96500000D01*
X170700000Y-97460000D02*
X169460000Y-97460000D01*
X160250000Y-96250000D02*
X160000000Y-96000000D01*
%TD*%
M02*
