%TF.GenerationSoftware,KiCad,Pcbnew,(6.0.9)*%
%TF.CreationDate,2023-02-03T10:43:04+01:00*%
%TF.ProjectId,ESPBoard,45535042-6f61-4726-942e-6b696361645f,rev?*%
%TF.SameCoordinates,Original*%
%TF.FileFunction,Paste,Top*%
%TF.FilePolarity,Positive*%
%FSLAX46Y46*%
G04 Gerber Fmt 4.6, Leading zero omitted, Abs format (unit mm)*
G04 Created by KiCad (PCBNEW (6.0.9)) date 2023-02-03 10:43:04*
%MOMM*%
%LPD*%
G01*
G04 APERTURE LIST*
G04 Aperture macros list*
%AMRoundRect*
0 Rectangle with rounded corners*
0 $1 Rounding radius*
0 $2 $3 $4 $5 $6 $7 $8 $9 X,Y pos of 4 corners*
0 Add a 4 corners polygon primitive as box body*
4,1,4,$2,$3,$4,$5,$6,$7,$8,$9,$2,$3,0*
0 Add four circle primitives for the rounded corners*
1,1,$1+$1,$2,$3*
1,1,$1+$1,$4,$5*
1,1,$1+$1,$6,$7*
1,1,$1+$1,$8,$9*
0 Add four rect primitives between the rounded corners*
20,1,$1+$1,$2,$3,$4,$5,0*
20,1,$1+$1,$4,$5,$6,$7,0*
20,1,$1+$1,$6,$7,$8,$9,0*
20,1,$1+$1,$8,$9,$2,$3,0*%
G04 Aperture macros list end*
%ADD10R,1.500000X0.900000*%
%ADD11R,0.900000X1.500000*%
%ADD12R,0.900000X0.900000*%
%ADD13RoundRect,0.250000X-0.450000X0.262500X-0.450000X-0.262500X0.450000X-0.262500X0.450000X0.262500X0*%
%ADD14R,0.500000X0.700000*%
%ADD15R,0.400000X0.700000*%
%ADD16RoundRect,0.135000X-0.185000X0.135000X-0.185000X-0.135000X0.185000X-0.135000X0.185000X0.135000X0*%
%ADD17RoundRect,0.135000X0.135000X0.185000X-0.135000X0.185000X-0.135000X-0.185000X0.135000X-0.185000X0*%
%ADD18R,0.700000X0.600000*%
%ADD19RoundRect,0.243750X-0.456250X0.243750X-0.456250X-0.243750X0.456250X-0.243750X0.456250X0.243750X0*%
%ADD20RoundRect,0.135000X0.185000X-0.135000X0.185000X0.135000X-0.185000X0.135000X-0.185000X-0.135000X0*%
%ADD21R,0.700000X0.400000*%
%ADD22R,1.550000X1.300000*%
%ADD23RoundRect,0.250000X0.450000X-0.262500X0.450000X0.262500X-0.450000X0.262500X-0.450000X-0.262500X0*%
%ADD24R,0.740000X2.400000*%
%ADD25RoundRect,0.250000X0.262500X0.450000X-0.262500X0.450000X-0.262500X-0.450000X0.262500X-0.450000X0*%
%ADD26RoundRect,0.225000X0.250000X-0.225000X0.250000X0.225000X-0.250000X0.225000X-0.250000X-0.225000X0*%
%ADD27RoundRect,0.135000X-0.135000X-0.185000X0.135000X-0.185000X0.135000X0.185000X-0.135000X0.185000X0*%
%ADD28RoundRect,0.140000X0.170000X-0.140000X0.170000X0.140000X-0.170000X0.140000X-0.170000X-0.140000X0*%
%ADD29R,0.700000X0.500000*%
G04 APERTURE END LIST*
D10*
%TO.C,U301*%
X141250000Y-87040000D03*
X141250000Y-88310000D03*
X141250000Y-89580000D03*
X141250000Y-90850000D03*
X141250000Y-92120000D03*
X141250000Y-93390000D03*
X141250000Y-94660000D03*
X141250000Y-95930000D03*
X141250000Y-97200000D03*
X141250000Y-98470000D03*
X141250000Y-99740000D03*
X141250000Y-101010000D03*
X141250000Y-102280000D03*
X141250000Y-103550000D03*
D11*
X143015000Y-104800000D03*
X144285000Y-104800000D03*
X145555000Y-104800000D03*
X146825000Y-104800000D03*
X148095000Y-104800000D03*
X149365000Y-104800000D03*
X150635000Y-104800000D03*
X151905000Y-104800000D03*
X153175000Y-104800000D03*
X154445000Y-104800000D03*
X155715000Y-104800000D03*
X156985000Y-104800000D03*
D10*
X158750000Y-103550000D03*
X158750000Y-102280000D03*
X158750000Y-101010000D03*
X158750000Y-99740000D03*
X158750000Y-98470000D03*
X158750000Y-97200000D03*
X158750000Y-95930000D03*
X158750000Y-94660000D03*
X158750000Y-93390000D03*
X158750000Y-92120000D03*
X158750000Y-90850000D03*
X158750000Y-89580000D03*
X158750000Y-88310000D03*
X158750000Y-87040000D03*
D12*
X147100000Y-96160000D03*
X147100000Y-94760000D03*
X148500000Y-96160000D03*
X148500000Y-94760000D03*
X149900000Y-94760000D03*
X149900000Y-96160000D03*
X148500000Y-93360000D03*
X149900000Y-93360000D03*
X147100000Y-93360000D03*
%TD*%
D13*
%TO.C,R403*%
X166250000Y-91387500D03*
X166250000Y-93212500D03*
%TD*%
D14*
%TO.C,Q406*%
X164000000Y-91100000D03*
D15*
X163600000Y-92100000D03*
X164400000Y-92100000D03*
%TD*%
D16*
%TO.C,R309*%
X142500000Y-108990000D03*
X142500000Y-110010000D03*
%TD*%
D17*
%TO.C,R418*%
X132760000Y-89250000D03*
X131740000Y-89250000D03*
%TD*%
D18*
%TO.C,D402*%
X137750000Y-92550000D03*
X137750000Y-93950000D03*
%TD*%
D19*
%TO.C,D304*%
X150000000Y-108062500D03*
X150000000Y-109937500D03*
%TD*%
D16*
%TO.C,R310*%
X145500000Y-108990000D03*
X145500000Y-110010000D03*
%TD*%
D20*
%TO.C,R302*%
X170430000Y-104780000D03*
X170430000Y-103760000D03*
%TD*%
D17*
%TO.C,R416*%
X136510000Y-92250000D03*
X135490000Y-92250000D03*
%TD*%
D21*
%TO.C,Q403*%
X168500000Y-95100000D03*
X169500000Y-95600000D03*
X169500000Y-94600000D03*
%TD*%
D15*
%TO.C,Q401*%
X168300000Y-89500000D03*
X167800000Y-90500000D03*
X168800000Y-90500000D03*
%TD*%
D22*
%TO.C,SW301*%
X129015000Y-102250000D03*
X136965000Y-102250000D03*
X129015000Y-97750000D03*
X136965000Y-97750000D03*
%TD*%
D18*
%TO.C,D403*%
X134000000Y-89300000D03*
X134000000Y-90700000D03*
%TD*%
D14*
%TO.C,Q402*%
X166300000Y-90100000D03*
D15*
X166700000Y-89100000D03*
X165900000Y-89100000D03*
%TD*%
D19*
%TO.C,D305*%
X153000000Y-108062500D03*
X153000000Y-109937500D03*
%TD*%
D21*
%TO.C,Q407*%
X162500000Y-86750000D03*
X161500000Y-86250000D03*
X161500000Y-87250000D03*
%TD*%
D23*
%TO.C,R406*%
X164000000Y-95312500D03*
X164000000Y-93487500D03*
%TD*%
D24*
%TO.C,J205*%
X136265000Y-108500000D03*
X136265000Y-112400000D03*
X134995000Y-108500000D03*
X134995000Y-112400000D03*
%TD*%
D25*
%TO.C,R412*%
X164162500Y-84250000D03*
X162337500Y-84250000D03*
%TD*%
D22*
%TO.C,SW302*%
X163125000Y-97750000D03*
X171075000Y-97750000D03*
X171075000Y-102250000D03*
X163125000Y-102250000D03*
%TD*%
D18*
%TO.C,D404*%
X137750000Y-89300000D03*
X137750000Y-90700000D03*
%TD*%
D17*
%TO.C,R420*%
X136510000Y-89250000D03*
X135490000Y-89250000D03*
%TD*%
D26*
%TO.C,C303*%
X135650000Y-86875000D03*
X135650000Y-85325000D03*
%TD*%
D27*
%TO.C,R419*%
X135490000Y-90250000D03*
X136510000Y-90250000D03*
%TD*%
D19*
%TO.C,D301*%
X141000000Y-108062500D03*
X141000000Y-109937500D03*
%TD*%
D18*
%TO.C,D401*%
X134000000Y-92550000D03*
X134000000Y-93950000D03*
%TD*%
D16*
%TO.C,R314*%
X157500000Y-108990000D03*
X157500000Y-110010000D03*
%TD*%
D23*
%TO.C,R409*%
X164000000Y-89812500D03*
X164000000Y-87987500D03*
%TD*%
D19*
%TO.C,D302*%
X144000000Y-108062500D03*
X144000000Y-109937500D03*
%TD*%
D16*
%TO.C,R301*%
X137120000Y-86140000D03*
X137120000Y-87160000D03*
%TD*%
D19*
%TO.C,D307*%
X159000000Y-108062500D03*
X159000000Y-109937500D03*
%TD*%
D21*
%TO.C,Q405*%
X162500000Y-91400000D03*
X161500000Y-90900000D03*
X161500000Y-91900000D03*
%TD*%
D27*
%TO.C,R417*%
X131740000Y-90250000D03*
X132760000Y-90250000D03*
%TD*%
D16*
%TO.C,R311*%
X148500000Y-108990000D03*
X148500000Y-110010000D03*
%TD*%
D14*
%TO.C,Q408*%
X164000000Y-85750000D03*
D15*
X163600000Y-86750000D03*
X164400000Y-86750000D03*
%TD*%
D16*
%TO.C,R308*%
X139500000Y-108990000D03*
X139500000Y-110010000D03*
%TD*%
%TO.C,R312*%
X151500000Y-108990000D03*
X151500000Y-110010000D03*
%TD*%
D28*
%TO.C,C304*%
X165630000Y-104720000D03*
X165630000Y-103760000D03*
%TD*%
D19*
%TO.C,D306*%
X156000000Y-108062500D03*
X156000000Y-109937500D03*
%TD*%
D28*
%TO.C,C302*%
X139250000Y-87230000D03*
X139250000Y-86270000D03*
%TD*%
D19*
%TO.C,D303*%
X147000000Y-108062500D03*
X147000000Y-109937500D03*
%TD*%
D29*
%TO.C,Q404*%
X165600000Y-95100000D03*
D21*
X166600000Y-95500000D03*
X166600000Y-94700000D03*
%TD*%
D16*
%TO.C,R313*%
X154500000Y-108990000D03*
X154500000Y-110010000D03*
%TD*%
D17*
%TO.C,R414*%
X132760000Y-92500000D03*
X131740000Y-92500000D03*
%TD*%
D27*
%TO.C,R413*%
X131740000Y-93500000D03*
X132760000Y-93500000D03*
%TD*%
%TO.C,R415*%
X135490000Y-93250000D03*
X136510000Y-93250000D03*
%TD*%
M02*
