M48
; DRILL file {KiCad (6.0.9)} date Thu Feb  2 10:41:42 2023
; FORMAT={-:-/ absolute / metric / decimal}
; #@! TF.CreationDate,2023-02-02T10:41:42+01:00
; #@! TF.GenerationSoftware,Kicad,Pcbnew,(6.0.9)
; #@! TF.FileFunction,Plated,1,6,PTH
FMAT,2
METRIC
; #@! TA.AperFunction,Plated,PTH,ViaDrill
T1C0.200
; #@! TA.AperFunction,Plated,PTH,ComponentDrill
T2C0.200
; #@! TA.AperFunction,Plated,PTH,ViaDrill
T3C0.300
%
G90
G05
T1
X129.0Y-103.34
X129.0Y-105.0
X130.0Y-94.0
X130.0Y-96.0
X130.6Y-98.7
X130.73Y-100.0
X130.73Y-102.54
X130.76Y-103.215
X130.79Y-97.46
X131.0Y-91.0
X131.0Y-105.0
X131.0Y-107.0
X131.0Y-109.0
X131.1Y-92.5
X131.46Y-100.0
X131.75Y-91.6
X131.9Y-94.6
X132.0Y-96.0
X132.24Y-88.59
X132.8Y-94.6
X132.875Y-91.675
X132.996Y-112.999
X133.0Y-87.0
X133.0Y-107.0
X133.0Y-109.0
X133.0Y-111.0
X133.21Y-90.7
X134.0Y-86.0
X134.27Y-94.77
X134.3Y-98.7
X134.3Y-101.3
X134.35Y-97.12
X134.36Y-100.0
X134.51Y-106.23
X134.53Y-102.54
X134.56Y-103.32
X134.75Y-89.25
X134.75Y-92.5
X135.0Y-106.71
X135.0Y-110.75
X135.0Y-114.0
X135.25Y-101.5
X135.3Y-91.0
X135.4Y-94.3
X135.66Y-84.47
X136.0Y-116.0
X136.149Y-91.0
X136.25Y-94.25
X137.0Y-83.0
X137.0Y-85.0
X137.0Y-103.5
X137.12Y-112.57
X137.6Y-113.33
X138.0Y-104.0
X138.0Y-114.0
X138.0Y-116.0
X138.0Y-117.995
X138.5Y-89.25
X138.5Y-92.75
X138.51Y-90.85
X138.57Y-93.95
X139.0Y-101.992
X139.0Y-82.0
X139.0Y-83.0
X139.25Y-85.5
X139.998Y-116.0
X140.0Y-104.0
X140.0Y-114.0
X140.0Y-118.0
X142.0Y-114.0
X142.0Y-116.0
X142.0Y-120.0
X142.25Y-103.55
X142.27Y-102.28
X142.5Y-87.0
X142.56Y-88.33
X143.0Y-99.25
X143.0Y-101.5
X143.5Y-113.174
X143.5Y-115.25
X144.0Y-97.0
X144.0Y-99.25
X144.0Y-118.0
X144.0Y-120.0
X145.0Y-96.0
X145.56Y-103.66
X145.967Y-97.048
X145.994Y-88.999
X146.0Y-118.0
X146.0Y-120.0
X146.48Y-91.33
X146.5Y-99.25
X146.5Y-101.5
X146.5Y-112.5
X146.82Y-103.67
X146.83Y-90.64
X146.92Y-91.87
X147.5Y-99.25
X147.576Y-92.016
X148.0Y-114.0
X148.0Y-120.0
X148.09Y-103.71
X148.49Y-100.65
X149.19Y-100.64
X149.3Y-88.3
X149.96Y-100.59
X149.992Y-119.987
X150.0Y-88.5
X150.0Y-114.0
X150.52Y-90.425
X150.65Y-100.66
X150.999Y-102.995
X151.2Y-91.0
X151.75Y-87.25
X151.99Y-100.993
X152.0Y-93.0
X152.0Y-95.0
X152.0Y-114.0
X152.0Y-120.017
X152.02Y-90.325
X153.5Y-87.25
X153.5Y-113.174
X153.5Y-115.25
X154.0Y-93.0
X154.0Y-103.0
X154.0Y-118.0
X154.0Y-120.0
X154.25Y-99.25
X155.0Y-87.0
X155.0Y-97.0
X155.25Y-99.25
X155.25Y-101.5
X155.992Y-119.992
X156.0Y-96.0
X156.0Y-118.0
X156.5Y-98.5
X157.0Y-90.0
X157.0Y-97.0
X157.5Y-87.0
X157.63Y-102.37
X157.992Y-119.992
X158.02Y-105.18
X159.5Y-86.0
X159.74Y-101.01
X159.75Y-99.75
X159.992Y-118.0
X159.994Y-115.992
X160.0Y-92.25
X160.0Y-93.0
X160.0Y-96.0
X160.25Y-97.25
X160.463Y-85.627
X160.81Y-91.91
X160.86Y-87.26
X160.9Y-86.2
X160.9Y-90.9
X161.0Y-82.0
X161.0Y-96.825
X161.993Y-115.992
X162.75Y-85.5
X162.75Y-92.425
X162.9Y-86.3
X163.1Y-91.6
X164.0Y-116.0
X164.25Y-97.75
X165.5Y-97.5
X165.5Y-100.0
X165.5Y-102.5
X166.0Y-107.0
X166.0Y-109.0
X166.0Y-111.0
X166.0Y-113.0
X166.25Y-104.75
X167.0Y-87.0
X167.25Y-88.25
X167.3Y-89.0
X167.3Y-95.4
X167.8Y-91.2
X168.0Y-93.0
X168.0Y-107.0
X168.0Y-109.0
X168.0Y-111.0
X168.5Y-97.5
X168.71Y-102.54
X168.75Y-100.0
X168.8Y-91.2
X169.25Y-98.0
X169.25Y-98.75
X169.25Y-101.25
X169.5Y-93.9
X169.75Y-104.75
X170.0Y-92.0
X170.0Y-107.0
X170.1Y-95.6
X171.0Y-95.5
X171.0Y-96.66
T2
X147.1Y-94.06
X147.1Y-95.46
X147.8Y-93.36
X147.8Y-94.76
X147.8Y-96.16
X148.5Y-94.06
X148.5Y-95.46
X149.2Y-93.36
X149.2Y-94.76
X149.2Y-96.16
X149.9Y-94.06
X149.9Y-95.46
T3
X161.1Y-83.8
X161.1Y-84.8
X165.0Y-92.8
X165.1Y-87.4
X165.8Y-88.2
X167.4Y-94.0
T0
M30
