%TF.GenerationSoftware,KiCad,Pcbnew,(6.0.9)*%
%TF.CreationDate,2023-02-02T11:07:53+01:00*%
%TF.ProjectId,OuterUSB,4f757465-7255-4534-922e-6b696361645f,rev?*%
%TF.SameCoordinates,Original*%
%TF.FileFunction,Copper,L4,Inr*%
%TF.FilePolarity,Positive*%
%FSLAX46Y46*%
G04 Gerber Fmt 4.6, Leading zero omitted, Abs format (unit mm)*
G04 Created by KiCad (PCBNEW (6.0.9)) date 2023-02-02 11:07:53*
%MOMM*%
%LPD*%
G01*
G04 APERTURE LIST*
%TA.AperFunction,ComponentPad*%
%ADD10R,1.000000X1.000000*%
%TD*%
%TA.AperFunction,ComponentPad*%
%ADD11O,1.000000X1.000000*%
%TD*%
%TA.AperFunction,ComponentPad*%
%ADD12O,0.900000X1.600000*%
%TD*%
%TA.AperFunction,ComponentPad*%
%ADD13O,1.100000X2.200000*%
%TD*%
%TA.AperFunction,ComponentPad*%
%ADD14R,1.700000X1.700000*%
%TD*%
%TA.AperFunction,ComponentPad*%
%ADD15O,1.700000X1.700000*%
%TD*%
%TA.AperFunction,ViaPad*%
%ADD16C,0.450000*%
%TD*%
G04 APERTURE END LIST*
D10*
%TO.N,/CC2*%
%TO.C,J104*%
X144650000Y-97850000D03*
D11*
%TO.N,/CC1*%
X144650000Y-96580000D03*
%TD*%
D12*
%TO.N,unconnected-(J101-PadS1)*%
%TO.C,J101*%
X145480000Y-100400000D03*
D13*
%TO.N,unconnected-(J101-PadS2)*%
X145480000Y-103400000D03*
%TO.N,unconnected-(J101-PadS3)*%
X154520000Y-103400000D03*
D12*
%TO.N,unconnected-(J101-PadS4)*%
X154520000Y-100400000D03*
%TD*%
D14*
%TO.N,GND*%
%TO.C,J102*%
X149525000Y-96600000D03*
D15*
%TO.N,/VBUS*%
X152065000Y-96600000D03*
%TD*%
D10*
%TO.N,/Data-*%
%TO.C,J103*%
X155450000Y-98050000D03*
D11*
%TO.N,/Data+*%
X155450000Y-96780000D03*
%TD*%
D16*
%TO.N,GND*%
X146600000Y-99250000D03*
X154500000Y-95500000D03*
X146000000Y-95600000D03*
X154850000Y-99000000D03*
X145950000Y-99100000D03*
X153600000Y-99000000D03*
X145300000Y-99100000D03*
X154150000Y-99000000D03*
%TO.N,/CC1*%
X148350000Y-99100000D03*
%TO.N,/Data+*%
X150200841Y-98609845D03*
X148998820Y-99129759D03*
%TO.N,/Data-*%
X149496509Y-98712435D03*
X150824500Y-98950000D03*
%TO.N,/CC2*%
X151475000Y-99125000D03*
%TD*%
%TA.AperFunction,Conductor*%
%TO.N,GND*%
G36*
X155982475Y-95251922D02*
G01*
X156000000Y-95255408D01*
X156007147Y-95253987D01*
X156014437Y-95253987D01*
X156014437Y-95254986D01*
X156026787Y-95254743D01*
X156042007Y-95257153D01*
X156065524Y-95260878D01*
X156087541Y-95268031D01*
X156132404Y-95290890D01*
X156136209Y-95292829D01*
X156154939Y-95306437D01*
X156193563Y-95345061D01*
X156207171Y-95363791D01*
X156231969Y-95412459D01*
X156239123Y-95434478D01*
X156245257Y-95473213D01*
X156245014Y-95485563D01*
X156246013Y-95485563D01*
X156246013Y-95492853D01*
X156244592Y-95500000D01*
X156246014Y-95507147D01*
X156248078Y-95517525D01*
X156249500Y-95531962D01*
X156249500Y-96744319D01*
X156234003Y-96786897D01*
X156247910Y-96809240D01*
X156249500Y-96824499D01*
X156249500Y-102126000D01*
X156232187Y-102173566D01*
X156188350Y-102198876D01*
X156175500Y-102200000D01*
X154807839Y-102200000D01*
X154781543Y-102193477D01*
X154780992Y-102194911D01*
X154776821Y-102193310D01*
X154772881Y-102191224D01*
X154768554Y-102190137D01*
X154612769Y-102151006D01*
X154612768Y-102151006D01*
X154608441Y-102149919D01*
X154523078Y-102149472D01*
X154443354Y-102149054D01*
X154443351Y-102149054D01*
X154438895Y-102149031D01*
X154434560Y-102150072D01*
X154434558Y-102150072D01*
X154379126Y-102163381D01*
X154274032Y-102188612D01*
X154270064Y-102190660D01*
X154267938Y-102191757D01*
X154233997Y-102200000D01*
X153874000Y-102200000D01*
X153826434Y-102182687D01*
X153801124Y-102138850D01*
X153800000Y-102126000D01*
X153800000Y-100952973D01*
X153817313Y-100905407D01*
X153861150Y-100880097D01*
X153911000Y-100888887D01*
X153942367Y-100924654D01*
X153995464Y-101052841D01*
X153998414Y-101056685D01*
X153998416Y-101056689D01*
X154088763Y-101174431D01*
X154091718Y-101178282D01*
X154095569Y-101181237D01*
X154213311Y-101271584D01*
X154213315Y-101271586D01*
X154217159Y-101274536D01*
X154363238Y-101335044D01*
X154368040Y-101335676D01*
X154368043Y-101335677D01*
X154515192Y-101355049D01*
X154520000Y-101355682D01*
X154524808Y-101355049D01*
X154671957Y-101335677D01*
X154671960Y-101335676D01*
X154676762Y-101335044D01*
X154822841Y-101274536D01*
X154826685Y-101271586D01*
X154826689Y-101271584D01*
X154944431Y-101181237D01*
X154948282Y-101178282D01*
X154951237Y-101174431D01*
X155041584Y-101056689D01*
X155041586Y-101056685D01*
X155044536Y-101052841D01*
X155105044Y-100906762D01*
X155107398Y-100888887D01*
X155120183Y-100791768D01*
X155120500Y-100789361D01*
X155120500Y-100010639D01*
X155105044Y-99893238D01*
X155044536Y-99747159D01*
X155041586Y-99743315D01*
X155041584Y-99743311D01*
X154951237Y-99625569D01*
X154948282Y-99621718D01*
X154944431Y-99618763D01*
X154826689Y-99528416D01*
X154826685Y-99528414D01*
X154822841Y-99525464D01*
X154676762Y-99464956D01*
X154671960Y-99464324D01*
X154671957Y-99464323D01*
X154524808Y-99444951D01*
X154520000Y-99444318D01*
X154515192Y-99444951D01*
X154368043Y-99464323D01*
X154368040Y-99464324D01*
X154363238Y-99464956D01*
X154217159Y-99525464D01*
X154213315Y-99528414D01*
X154213311Y-99528416D01*
X154095569Y-99618763D01*
X154091718Y-99621718D01*
X154088763Y-99625569D01*
X153998416Y-99743311D01*
X153998414Y-99743315D01*
X153995464Y-99747159D01*
X153934956Y-99893238D01*
X153919500Y-100010639D01*
X153919500Y-100745975D01*
X153902187Y-100793541D01*
X153858350Y-100818851D01*
X153808499Y-100810060D01*
X153800000Y-100805153D01*
X153800000Y-100800000D01*
X146200000Y-100800000D01*
X146200000Y-100804749D01*
X146179810Y-100812098D01*
X146129191Y-100812098D01*
X146090414Y-100779561D01*
X146080500Y-100742561D01*
X146080500Y-100010639D01*
X146065044Y-99893238D01*
X146004536Y-99747159D01*
X146001586Y-99743315D01*
X146001584Y-99743311D01*
X145911237Y-99625569D01*
X145908282Y-99621718D01*
X145904431Y-99618763D01*
X145786689Y-99528416D01*
X145786685Y-99528414D01*
X145782841Y-99525464D01*
X145636762Y-99464956D01*
X145631960Y-99464324D01*
X145631957Y-99464323D01*
X145484808Y-99444951D01*
X145480000Y-99444318D01*
X145475192Y-99444951D01*
X145328043Y-99464323D01*
X145328040Y-99464324D01*
X145323238Y-99464956D01*
X145177159Y-99525464D01*
X145173315Y-99528414D01*
X145173311Y-99528416D01*
X145055569Y-99618763D01*
X145051718Y-99621718D01*
X145048763Y-99625569D01*
X144958416Y-99743311D01*
X144958414Y-99743315D01*
X144955464Y-99747159D01*
X144894956Y-99893238D01*
X144879500Y-100010639D01*
X144879500Y-100789361D01*
X144879817Y-100791768D01*
X144892603Y-100888887D01*
X144894956Y-100906762D01*
X144955464Y-101052841D01*
X144958414Y-101056685D01*
X144958416Y-101056689D01*
X145048763Y-101174431D01*
X145051718Y-101178282D01*
X145055569Y-101181237D01*
X145173311Y-101271584D01*
X145173315Y-101271586D01*
X145177159Y-101274536D01*
X145323238Y-101335044D01*
X145328040Y-101335676D01*
X145328043Y-101335677D01*
X145475192Y-101355049D01*
X145480000Y-101355682D01*
X145484808Y-101355049D01*
X145631957Y-101335677D01*
X145631960Y-101335676D01*
X145636762Y-101335044D01*
X145782841Y-101274536D01*
X145786685Y-101271586D01*
X145786689Y-101271584D01*
X145904431Y-101181237D01*
X145908282Y-101178282D01*
X145911237Y-101174431D01*
X146001584Y-101056689D01*
X146001586Y-101056685D01*
X146004536Y-101052841D01*
X146057633Y-100924654D01*
X146091831Y-100887334D01*
X146142017Y-100880727D01*
X146184708Y-100907925D01*
X146200000Y-100952973D01*
X146200000Y-102126000D01*
X146182687Y-102173566D01*
X146138850Y-102198876D01*
X146126000Y-102200000D01*
X145767839Y-102200000D01*
X145741543Y-102193477D01*
X145740992Y-102194911D01*
X145736821Y-102193310D01*
X145732881Y-102191224D01*
X145728554Y-102190137D01*
X145572769Y-102151006D01*
X145572768Y-102151006D01*
X145568441Y-102149919D01*
X145483078Y-102149472D01*
X145403354Y-102149054D01*
X145403351Y-102149054D01*
X145398895Y-102149031D01*
X145394560Y-102150072D01*
X145394558Y-102150072D01*
X145339126Y-102163381D01*
X145234032Y-102188612D01*
X145230064Y-102190660D01*
X145227938Y-102191757D01*
X145193997Y-102200000D01*
X143874000Y-102200000D01*
X143826434Y-102182687D01*
X143801124Y-102138850D01*
X143800000Y-102126000D01*
X143800000Y-99100000D01*
X147969819Y-99100000D01*
X147970730Y-99105752D01*
X147987514Y-99211727D01*
X147987515Y-99211730D01*
X147988426Y-99217482D01*
X147991071Y-99222673D01*
X147991072Y-99222676D01*
X148039781Y-99318273D01*
X148039783Y-99318276D01*
X148042427Y-99323465D01*
X148126535Y-99407573D01*
X148131724Y-99410217D01*
X148131727Y-99410219D01*
X148227324Y-99458928D01*
X148227327Y-99458929D01*
X148232518Y-99461574D01*
X148238270Y-99462485D01*
X148238273Y-99462486D01*
X148344248Y-99479270D01*
X148350000Y-99480181D01*
X148355752Y-99479270D01*
X148461727Y-99462486D01*
X148461730Y-99462485D01*
X148467482Y-99461574D01*
X148472673Y-99458929D01*
X148472676Y-99458928D01*
X148568273Y-99410219D01*
X148568276Y-99410217D01*
X148573465Y-99407573D01*
X148577581Y-99403457D01*
X148577585Y-99403454D01*
X148607206Y-99373833D01*
X148653083Y-99352441D01*
X148701977Y-99365543D01*
X148711856Y-99373833D01*
X148775355Y-99437332D01*
X148780544Y-99439976D01*
X148780547Y-99439978D01*
X148876144Y-99488687D01*
X148876147Y-99488688D01*
X148881338Y-99491333D01*
X148887090Y-99492244D01*
X148887093Y-99492245D01*
X148993068Y-99509029D01*
X148998820Y-99509940D01*
X149004572Y-99509029D01*
X149110547Y-99492245D01*
X149110550Y-99492244D01*
X149116302Y-99491333D01*
X149121493Y-99488688D01*
X149121496Y-99488687D01*
X149217093Y-99439978D01*
X149217096Y-99439976D01*
X149222285Y-99437332D01*
X149306393Y-99353224D01*
X149309037Y-99348035D01*
X149309039Y-99348032D01*
X149357748Y-99252435D01*
X149357749Y-99252432D01*
X149360394Y-99247241D01*
X149376040Y-99148457D01*
X149400579Y-99104186D01*
X149447836Y-99086045D01*
X149460702Y-99086945D01*
X149496509Y-99092616D01*
X149502261Y-99091705D01*
X149608236Y-99074921D01*
X149608239Y-99074920D01*
X149613991Y-99074009D01*
X149619182Y-99071364D01*
X149619185Y-99071363D01*
X149714782Y-99022654D01*
X149714785Y-99022652D01*
X149719974Y-99020008D01*
X149804082Y-98935900D01*
X149822575Y-98899605D01*
X149859594Y-98865085D01*
X149910143Y-98862435D01*
X149940834Y-98880876D01*
X149977376Y-98917418D01*
X149982565Y-98920062D01*
X149982568Y-98920064D01*
X150078165Y-98968773D01*
X150078168Y-98968774D01*
X150083359Y-98971419D01*
X150089111Y-98972330D01*
X150089114Y-98972331D01*
X150195089Y-98989115D01*
X150200841Y-98990026D01*
X150206593Y-98989115D01*
X150312568Y-98972331D01*
X150312571Y-98972330D01*
X150318323Y-98971419D01*
X150347300Y-98956655D01*
X150397538Y-98950485D01*
X150439991Y-98978054D01*
X150453982Y-99011013D01*
X150462014Y-99061727D01*
X150462015Y-99061730D01*
X150462926Y-99067482D01*
X150465571Y-99072673D01*
X150465572Y-99072676D01*
X150514281Y-99168273D01*
X150514283Y-99168276D01*
X150516927Y-99173465D01*
X150601035Y-99257573D01*
X150606224Y-99260217D01*
X150606227Y-99260219D01*
X150701824Y-99308928D01*
X150701827Y-99308929D01*
X150707018Y-99311574D01*
X150712770Y-99312485D01*
X150712773Y-99312486D01*
X150818748Y-99329270D01*
X150824500Y-99330181D01*
X150830252Y-99329270D01*
X150936227Y-99312486D01*
X150936230Y-99312485D01*
X150941982Y-99311574D01*
X151040105Y-99261578D01*
X151090345Y-99255409D01*
X151132798Y-99282978D01*
X151139633Y-99293915D01*
X151167427Y-99348465D01*
X151251535Y-99432573D01*
X151256724Y-99435217D01*
X151256727Y-99435219D01*
X151352324Y-99483928D01*
X151352327Y-99483929D01*
X151357518Y-99486574D01*
X151363270Y-99487485D01*
X151363273Y-99487486D01*
X151469248Y-99504270D01*
X151475000Y-99505181D01*
X151480752Y-99504270D01*
X151586727Y-99487486D01*
X151586730Y-99487485D01*
X151592482Y-99486574D01*
X151597673Y-99483929D01*
X151597676Y-99483928D01*
X151693273Y-99435219D01*
X151693276Y-99435217D01*
X151698465Y-99432573D01*
X151782573Y-99348465D01*
X151785217Y-99343276D01*
X151785219Y-99343273D01*
X151833928Y-99247676D01*
X151833929Y-99247673D01*
X151836574Y-99242482D01*
X151837485Y-99236730D01*
X151837486Y-99236727D01*
X151854270Y-99130752D01*
X151855181Y-99125000D01*
X151854270Y-99119248D01*
X151837486Y-99013273D01*
X151837485Y-99013270D01*
X151836574Y-99007518D01*
X151833928Y-99002324D01*
X151785219Y-98906727D01*
X151785217Y-98906724D01*
X151782573Y-98901535D01*
X151698465Y-98817427D01*
X151693276Y-98814783D01*
X151693273Y-98814781D01*
X151597676Y-98766072D01*
X151597673Y-98766071D01*
X151592482Y-98763426D01*
X151586730Y-98762515D01*
X151586727Y-98762514D01*
X151480752Y-98745730D01*
X151475000Y-98744819D01*
X151469248Y-98745730D01*
X151363273Y-98762514D01*
X151363270Y-98762515D01*
X151357518Y-98763426D01*
X151259395Y-98813422D01*
X151209155Y-98819591D01*
X151166702Y-98792022D01*
X151159867Y-98781084D01*
X151147162Y-98756149D01*
X151132073Y-98726535D01*
X151047965Y-98642427D01*
X151042776Y-98639783D01*
X151042773Y-98639781D01*
X150947176Y-98591072D01*
X150947173Y-98591071D01*
X150941982Y-98588426D01*
X150936230Y-98587515D01*
X150936227Y-98587514D01*
X150830252Y-98570730D01*
X150824500Y-98569819D01*
X150818748Y-98570730D01*
X150712773Y-98587514D01*
X150712770Y-98587515D01*
X150707018Y-98588426D01*
X150678041Y-98603190D01*
X150627803Y-98609360D01*
X150585350Y-98581791D01*
X150571359Y-98548832D01*
X150563327Y-98498118D01*
X150563326Y-98498115D01*
X150562415Y-98492363D01*
X150559769Y-98487169D01*
X150511060Y-98391572D01*
X150511057Y-98391568D01*
X150508414Y-98386380D01*
X150424306Y-98302272D01*
X150419117Y-98299628D01*
X150419114Y-98299626D01*
X150323517Y-98250917D01*
X150323514Y-98250916D01*
X150318323Y-98248271D01*
X150312571Y-98247360D01*
X150312568Y-98247359D01*
X150206593Y-98230575D01*
X150200841Y-98229664D01*
X150195089Y-98230575D01*
X150089114Y-98247359D01*
X150089111Y-98247360D01*
X150083359Y-98248271D01*
X150078168Y-98250916D01*
X150078165Y-98250917D01*
X149982568Y-98299626D01*
X149982565Y-98299628D01*
X149977376Y-98302272D01*
X149893268Y-98386380D01*
X149874775Y-98422675D01*
X149837756Y-98457195D01*
X149787207Y-98459845D01*
X149756516Y-98441404D01*
X149719974Y-98404862D01*
X149714785Y-98402218D01*
X149714782Y-98402216D01*
X149619185Y-98353507D01*
X149619182Y-98353506D01*
X149613991Y-98350861D01*
X149608239Y-98349950D01*
X149608236Y-98349949D01*
X149502261Y-98333165D01*
X149496509Y-98332254D01*
X149490757Y-98333165D01*
X149384782Y-98349949D01*
X149384779Y-98349950D01*
X149379027Y-98350861D01*
X149373836Y-98353506D01*
X149373833Y-98353507D01*
X149278236Y-98402216D01*
X149278233Y-98402218D01*
X149273044Y-98404862D01*
X149188936Y-98488970D01*
X149186292Y-98494159D01*
X149186290Y-98494162D01*
X149137581Y-98589759D01*
X149134935Y-98594953D01*
X149119290Y-98693736D01*
X149094750Y-98738008D01*
X149047493Y-98756149D01*
X149034627Y-98755249D01*
X148998820Y-98749578D01*
X148993068Y-98750489D01*
X148887093Y-98767273D01*
X148887090Y-98767274D01*
X148881338Y-98768185D01*
X148876147Y-98770830D01*
X148876144Y-98770831D01*
X148780547Y-98819540D01*
X148780544Y-98819542D01*
X148775355Y-98822186D01*
X148741615Y-98855926D01*
X148695741Y-98877318D01*
X148646846Y-98864218D01*
X148636964Y-98855926D01*
X148573465Y-98792427D01*
X148568276Y-98789783D01*
X148568273Y-98789781D01*
X148472676Y-98741072D01*
X148472673Y-98741071D01*
X148467482Y-98738426D01*
X148461730Y-98737515D01*
X148461727Y-98737514D01*
X148355752Y-98720730D01*
X148350000Y-98719819D01*
X148344248Y-98720730D01*
X148238273Y-98737514D01*
X148238270Y-98737515D01*
X148232518Y-98738426D01*
X148227327Y-98741071D01*
X148227324Y-98741072D01*
X148131727Y-98789781D01*
X148131724Y-98789783D01*
X148126535Y-98792427D01*
X148042427Y-98876535D01*
X148039783Y-98881724D01*
X148039781Y-98881727D01*
X147991072Y-98977324D01*
X147988426Y-98982518D01*
X147987515Y-98988270D01*
X147987514Y-98988273D01*
X147974147Y-99072676D01*
X147969819Y-99100000D01*
X143800000Y-99100000D01*
X143800000Y-96573138D01*
X143994758Y-96573138D01*
X144012035Y-96729633D01*
X144013568Y-96733822D01*
X144035489Y-96793723D01*
X144066143Y-96877490D01*
X144068628Y-96881188D01*
X144068630Y-96881192D01*
X144151472Y-97004473D01*
X144153958Y-97008172D01*
X144174034Y-97026440D01*
X144222749Y-97070767D01*
X144246279Y-97115585D01*
X144235495Y-97165042D01*
X144195444Y-97195997D01*
X144172946Y-97199500D01*
X144135180Y-97199500D01*
X144131611Y-97200210D01*
X144131610Y-97200210D01*
X144098425Y-97206811D01*
X144098424Y-97206812D01*
X144091278Y-97208233D01*
X144041496Y-97241496D01*
X144008233Y-97291278D01*
X144006812Y-97298424D01*
X144006811Y-97298425D01*
X144001367Y-97325795D01*
X143999500Y-97335180D01*
X143999500Y-98364820D01*
X144000210Y-98368389D01*
X144000210Y-98368390D01*
X144004822Y-98391572D01*
X144008233Y-98408722D01*
X144041496Y-98458504D01*
X144091278Y-98491767D01*
X144098424Y-98493188D01*
X144098425Y-98493189D01*
X144131610Y-98499790D01*
X144131611Y-98499790D01*
X144135180Y-98500500D01*
X145164820Y-98500500D01*
X145168389Y-98499790D01*
X145168390Y-98499790D01*
X145201575Y-98493189D01*
X145201576Y-98493188D01*
X145208722Y-98491767D01*
X145258504Y-98458504D01*
X145291767Y-98408722D01*
X145295179Y-98391572D01*
X145299790Y-98368390D01*
X145299790Y-98368389D01*
X145300500Y-98364820D01*
X145300500Y-97335180D01*
X145298633Y-97325795D01*
X145293189Y-97298425D01*
X145293188Y-97298424D01*
X145291767Y-97291278D01*
X145258504Y-97241496D01*
X145208722Y-97208233D01*
X145201576Y-97206812D01*
X145201575Y-97206811D01*
X145168390Y-97200210D01*
X145168389Y-97200210D01*
X145164820Y-97199500D01*
X145126913Y-97199500D01*
X145079347Y-97182187D01*
X145054037Y-97138350D01*
X145062827Y-97088500D01*
X145078854Y-97069230D01*
X145128955Y-97026440D01*
X145132348Y-97023542D01*
X145196818Y-96933822D01*
X145221620Y-96899307D01*
X145221620Y-96899306D01*
X145224224Y-96895683D01*
X145269041Y-96784199D01*
X145281287Y-96753735D01*
X145281287Y-96753734D01*
X145282950Y-96749598D01*
X145305134Y-96593723D01*
X145305215Y-96585963D01*
X151059757Y-96585963D01*
X151060060Y-96589572D01*
X151060060Y-96589574D01*
X151075474Y-96773138D01*
X151076175Y-96781483D01*
X151102504Y-96873302D01*
X151124382Y-96949598D01*
X151130258Y-96970091D01*
X151131911Y-96973307D01*
X151218288Y-97141380D01*
X151218291Y-97141385D01*
X151219944Y-97144601D01*
X151341818Y-97298369D01*
X151491238Y-97425535D01*
X151494400Y-97427302D01*
X151659354Y-97519492D01*
X151659358Y-97519494D01*
X151662513Y-97521257D01*
X151665949Y-97522374D01*
X151665955Y-97522376D01*
X151784467Y-97560882D01*
X151849118Y-97581889D01*
X151909541Y-97589094D01*
X152040346Y-97604692D01*
X152040349Y-97604692D01*
X152043946Y-97605121D01*
X152108365Y-97600164D01*
X152235965Y-97590346D01*
X152235966Y-97590346D01*
X152239576Y-97590068D01*
X152428556Y-97537303D01*
X152439826Y-97531610D01*
X152600455Y-97450471D01*
X152600458Y-97450469D01*
X152603689Y-97448837D01*
X152758303Y-97328040D01*
X152886509Y-97179511D01*
X152888292Y-97176372D01*
X152888295Y-97176368D01*
X152934967Y-97094210D01*
X152983425Y-97008909D01*
X152995269Y-96973307D01*
X153044215Y-96826168D01*
X153045358Y-96822732D01*
X153047063Y-96809240D01*
X153051624Y-96773138D01*
X154794758Y-96773138D01*
X154812035Y-96929633D01*
X154813568Y-96933822D01*
X154863683Y-97070767D01*
X154866143Y-97077490D01*
X154868628Y-97081188D01*
X154868630Y-97081192D01*
X154951472Y-97204473D01*
X154953958Y-97208172D01*
X154974034Y-97226440D01*
X155022749Y-97270767D01*
X155046279Y-97315585D01*
X155035495Y-97365042D01*
X154995444Y-97395997D01*
X154972946Y-97399500D01*
X154935180Y-97399500D01*
X154931611Y-97400210D01*
X154931610Y-97400210D01*
X154898425Y-97406811D01*
X154898424Y-97406812D01*
X154891278Y-97408233D01*
X154841496Y-97441496D01*
X154808233Y-97491278D01*
X154806812Y-97498424D01*
X154806811Y-97498425D01*
X154802047Y-97522376D01*
X154799500Y-97535180D01*
X154799500Y-98564820D01*
X154800210Y-98568389D01*
X154800210Y-98568390D01*
X154804196Y-98588426D01*
X154808233Y-98608722D01*
X154841496Y-98658504D01*
X154891278Y-98691767D01*
X154898424Y-98693188D01*
X154898425Y-98693189D01*
X154931610Y-98699790D01*
X154931611Y-98699790D01*
X154935180Y-98700500D01*
X155964820Y-98700500D01*
X155968389Y-98699790D01*
X155968390Y-98699790D01*
X156001575Y-98693189D01*
X156001576Y-98693188D01*
X156008722Y-98691767D01*
X156058504Y-98658504D01*
X156091767Y-98608722D01*
X156095805Y-98588426D01*
X156099790Y-98568390D01*
X156099790Y-98568389D01*
X156100500Y-98564820D01*
X156100500Y-97535180D01*
X156097953Y-97522376D01*
X156093189Y-97498425D01*
X156093188Y-97498424D01*
X156091767Y-97491278D01*
X156058504Y-97441496D01*
X156008722Y-97408233D01*
X156001576Y-97406812D01*
X156001575Y-97406811D01*
X155968390Y-97400210D01*
X155968389Y-97400210D01*
X155964820Y-97399500D01*
X155926913Y-97399500D01*
X155879347Y-97382187D01*
X155854037Y-97338350D01*
X155862827Y-97288500D01*
X155878854Y-97269230D01*
X155928955Y-97226440D01*
X155932348Y-97223542D01*
X156024224Y-97095683D01*
X156054682Y-97019918D01*
X156081287Y-96953735D01*
X156081287Y-96953734D01*
X156082950Y-96949598D01*
X156100754Y-96824499D01*
X156102238Y-96814072D01*
X156118189Y-96784199D01*
X156105963Y-96769628D01*
X156102036Y-96753209D01*
X156086899Y-96628123D01*
X156086363Y-96623694D01*
X156030710Y-96476412D01*
X155983919Y-96408331D01*
X155944062Y-96350339D01*
X155944060Y-96350337D01*
X155941531Y-96346657D01*
X155898431Y-96308256D01*
X155827310Y-96244889D01*
X155827307Y-96244887D01*
X155823976Y-96241919D01*
X155684831Y-96168245D01*
X155532128Y-96129889D01*
X155450583Y-96129462D01*
X155379142Y-96129088D01*
X155379139Y-96129088D01*
X155374684Y-96129065D01*
X155370349Y-96130106D01*
X155370347Y-96130106D01*
X155334976Y-96138598D01*
X155221588Y-96165820D01*
X155081679Y-96238032D01*
X155078321Y-96240961D01*
X155078320Y-96240962D01*
X155044635Y-96270348D01*
X154963034Y-96341533D01*
X154960466Y-96345187D01*
X154960465Y-96345188D01*
X154906857Y-96421465D01*
X154872501Y-96470348D01*
X154870879Y-96474507D01*
X154870879Y-96474508D01*
X154825344Y-96591301D01*
X154815309Y-96617039D01*
X154814727Y-96621463D01*
X154814726Y-96621465D01*
X154797382Y-96753209D01*
X154794758Y-96773138D01*
X153051624Y-96773138D01*
X153069691Y-96630115D01*
X153069691Y-96630111D01*
X153069949Y-96628071D01*
X153070341Y-96600000D01*
X153069961Y-96596119D01*
X153053488Y-96428123D01*
X153051194Y-96404728D01*
X152994484Y-96216894D01*
X152902370Y-96043653D01*
X152838042Y-95964778D01*
X152780648Y-95894406D01*
X152780647Y-95894405D01*
X152778361Y-95891602D01*
X152627180Y-95766535D01*
X152612814Y-95758767D01*
X152457768Y-95674934D01*
X152454585Y-95673213D01*
X152451135Y-95672145D01*
X152451130Y-95672143D01*
X152332841Y-95635527D01*
X152267152Y-95615193D01*
X152072019Y-95594683D01*
X151876618Y-95612466D01*
X151873145Y-95613488D01*
X151873146Y-95613488D01*
X151691864Y-95666842D01*
X151691860Y-95666844D01*
X151688393Y-95667864D01*
X151597115Y-95715583D01*
X151517719Y-95757090D01*
X151517716Y-95757092D01*
X151514512Y-95758767D01*
X151511694Y-95761033D01*
X151511692Y-95761034D01*
X151364419Y-95879444D01*
X151364416Y-95879447D01*
X151361600Y-95881711D01*
X151235480Y-96032016D01*
X151233738Y-96035184D01*
X151233737Y-96035186D01*
X151230624Y-96040849D01*
X151140956Y-96203954D01*
X151139864Y-96207397D01*
X151139863Y-96207399D01*
X151094520Y-96350339D01*
X151081628Y-96390978D01*
X151081225Y-96394574D01*
X151081224Y-96394577D01*
X151073135Y-96466695D01*
X151059757Y-96585963D01*
X145305215Y-96585963D01*
X145305278Y-96580000D01*
X145286363Y-96423694D01*
X145230710Y-96276412D01*
X145156368Y-96168245D01*
X145144062Y-96150339D01*
X145144060Y-96150337D01*
X145141531Y-96146657D01*
X145098431Y-96108256D01*
X145027310Y-96044889D01*
X145027307Y-96044887D01*
X145023976Y-96041919D01*
X144884831Y-95968245D01*
X144732128Y-95929889D01*
X144650583Y-95929462D01*
X144579142Y-95929088D01*
X144579139Y-95929088D01*
X144574684Y-95929065D01*
X144570349Y-95930106D01*
X144570347Y-95930106D01*
X144490936Y-95949171D01*
X144421588Y-95965820D01*
X144281679Y-96038032D01*
X144278321Y-96040961D01*
X144278320Y-96040962D01*
X144175136Y-96130976D01*
X144163034Y-96141533D01*
X144160466Y-96145187D01*
X144160465Y-96145188D01*
X144093949Y-96239831D01*
X144072501Y-96270348D01*
X144070879Y-96274507D01*
X144070879Y-96274508D01*
X144021460Y-96401263D01*
X144015309Y-96417039D01*
X144014727Y-96421463D01*
X144014726Y-96421465D01*
X144008291Y-96470348D01*
X143994758Y-96573138D01*
X143800000Y-96573138D01*
X143800000Y-95382150D01*
X143817313Y-95334584D01*
X143821674Y-95329824D01*
X143845061Y-95306437D01*
X143863791Y-95292829D01*
X143867596Y-95290890D01*
X143912459Y-95268031D01*
X143934476Y-95260878D01*
X143957993Y-95257153D01*
X143973213Y-95254743D01*
X143985563Y-95254986D01*
X143985563Y-95253987D01*
X143992853Y-95253987D01*
X144000000Y-95255408D01*
X144017525Y-95251922D01*
X144031962Y-95250500D01*
X155968038Y-95250500D01*
X155982475Y-95251922D01*
G37*
%TD.AperFunction*%
%TD*%
M02*
