%TF.GenerationSoftware,KiCad,Pcbnew,(6.0.9)*%
%TF.CreationDate,2023-02-02T11:07:53+01:00*%
%TF.ProjectId,OuterUSB,4f757465-7255-4534-922e-6b696361645f,rev?*%
%TF.SameCoordinates,Original*%
%TF.FileFunction,Copper,L6,Bot*%
%TF.FilePolarity,Positive*%
%FSLAX46Y46*%
G04 Gerber Fmt 4.6, Leading zero omitted, Abs format (unit mm)*
G04 Created by KiCad (PCBNEW (6.0.9)) date 2023-02-02 11:07:53*
%MOMM*%
%LPD*%
G01*
G04 APERTURE LIST*
G04 Aperture macros list*
%AMRoundRect*
0 Rectangle with rounded corners*
0 $1 Rounding radius*
0 $2 $3 $4 $5 $6 $7 $8 $9 X,Y pos of 4 corners*
0 Add a 4 corners polygon primitive as box body*
4,1,4,$2,$3,$4,$5,$6,$7,$8,$9,$2,$3,0*
0 Add four circle primitives for the rounded corners*
1,1,$1+$1,$2,$3*
1,1,$1+$1,$4,$5*
1,1,$1+$1,$6,$7*
1,1,$1+$1,$8,$9*
0 Add four rect primitives between the rounded corners*
20,1,$1+$1,$2,$3,$4,$5,0*
20,1,$1+$1,$4,$5,$6,$7,0*
20,1,$1+$1,$6,$7,$8,$9,0*
20,1,$1+$1,$8,$9,$2,$3,0*%
G04 Aperture macros list end*
%TA.AperFunction,ComponentPad*%
%ADD10R,1.000000X1.000000*%
%TD*%
%TA.AperFunction,ComponentPad*%
%ADD11O,1.000000X1.000000*%
%TD*%
%TA.AperFunction,ComponentPad*%
%ADD12O,0.900000X1.600000*%
%TD*%
%TA.AperFunction,ComponentPad*%
%ADD13O,1.100000X2.200000*%
%TD*%
%TA.AperFunction,SMDPad,CuDef*%
%ADD14RoundRect,0.135000X-0.135000X-0.185000X0.135000X-0.185000X0.135000X0.185000X-0.135000X0.185000X0*%
%TD*%
%TA.AperFunction,ComponentPad*%
%ADD15R,1.700000X1.700000*%
%TD*%
%TA.AperFunction,ComponentPad*%
%ADD16O,1.700000X1.700000*%
%TD*%
%TA.AperFunction,ViaPad*%
%ADD17C,0.450000*%
%TD*%
%TA.AperFunction,Conductor*%
%ADD18C,0.300000*%
%TD*%
G04 APERTURE END LIST*
D10*
%TO.P,J104,1,Pin_1*%
%TO.N,/CC2*%
X144650000Y-97850000D03*
D11*
%TO.P,J104,2,Pin_2*%
%TO.N,/CC1*%
X144650000Y-96580000D03*
%TD*%
D12*
%TO.P,J101,S1,Shell*%
%TO.N,unconnected-(J101-PadS1)*%
X145480000Y-100400000D03*
D13*
%TO.P,J101,S2,Shell*%
%TO.N,unconnected-(J101-PadS2)*%
X145480000Y-103400000D03*
%TO.P,J101,S3,Shell*%
%TO.N,unconnected-(J101-PadS3)*%
X154520000Y-103400000D03*
D12*
%TO.P,J101,S4,Shell*%
%TO.N,unconnected-(J101-PadS4)*%
X154520000Y-100400000D03*
%TD*%
D14*
%TO.P,R101,1*%
%TO.N,/CC2*%
X145740000Y-97850000D03*
%TO.P,R101,2*%
%TO.N,GND*%
X146760000Y-97850000D03*
%TD*%
D15*
%TO.P,J102,1,Pin_1*%
%TO.N,GND*%
X149525000Y-96600000D03*
D16*
%TO.P,J102,2,Pin_2*%
%TO.N,/VBUS*%
X152065000Y-96600000D03*
%TD*%
D10*
%TO.P,J103,1,Pin_1*%
%TO.N,/Data-*%
X155450000Y-98050000D03*
D11*
%TO.P,J103,2,Pin_2*%
%TO.N,/Data+*%
X155450000Y-96780000D03*
%TD*%
D14*
%TO.P,R102,1*%
%TO.N,/CC1*%
X145740000Y-96550000D03*
%TO.P,R102,2*%
%TO.N,GND*%
X146760000Y-96550000D03*
%TD*%
D17*
%TO.N,GND*%
X146600000Y-99250000D03*
X154500000Y-95500000D03*
X146000000Y-95600000D03*
X154850000Y-99000000D03*
X145950000Y-99100000D03*
X153600000Y-99000000D03*
X145300000Y-99100000D03*
X154150000Y-99000000D03*
%TO.N,/CC1*%
X148350000Y-99100000D03*
%TO.N,/Data+*%
X150200841Y-98609845D03*
X148998820Y-99129759D03*
%TO.N,/Data-*%
X149496509Y-98712435D03*
X150824500Y-98950000D03*
%TO.N,/CC2*%
X151475000Y-99125000D03*
%TD*%
D18*
%TO.N,GND*%
X146760000Y-96360000D02*
X146760000Y-99090000D01*
X146760000Y-99090000D02*
X146600000Y-99250000D01*
X146000000Y-95600000D02*
X146760000Y-96360000D01*
%TO.N,/CC1*%
X145710000Y-96580000D02*
X145740000Y-96550000D01*
X144650000Y-96580000D02*
X145710000Y-96580000D01*
%TO.N,/Data-*%
X149496509Y-98718686D02*
X150000000Y-99222177D01*
X151324500Y-98450000D02*
X152650000Y-98450000D01*
X153050000Y-98050000D02*
X155450000Y-98050000D01*
X150000000Y-99250000D02*
X150524500Y-99250000D01*
X150524500Y-99250000D02*
X150824500Y-98950000D01*
X150824500Y-98950000D02*
X151324500Y-98450000D01*
X152650000Y-98450000D02*
X153050000Y-98050000D01*
X150000000Y-99222177D02*
X150000000Y-99250000D01*
X149496509Y-98712435D02*
X149496509Y-98718686D01*
%TO.N,/CC2*%
X144650000Y-97850000D02*
X145740000Y-97850000D01*
%TD*%
M02*
