M48
; DRILL file {KiCad (6.0.9)} date Fri Feb  3 12:08:00 2023
; FORMAT={-:-/ absolute / metric / decimal}
; #@! TF.CreationDate,2023-02-03T12:08:00+01:00
; #@! TF.GenerationSoftware,Kicad,Pcbnew,(6.0.9)
; #@! TF.FileFunction,Plated,1,4,PTH
FMAT,2
METRIC
; #@! TA.AperFunction,Plated,PTH,ViaDrill
T1C0.200
; #@! TA.AperFunction,Plated,PTH,ComponentDrill
T2C0.600
; #@! TA.AperFunction,Plated,PTH,ComponentDrill
T3C0.650
; #@! TA.AperFunction,Plated,PTH,ComponentDrill
T4C1.000
%
G90
G05
T1
X144.5Y-95.6
X145.3Y-99.1
X145.95Y-99.1
X146.6Y-99.25
X146.76Y-97.16
X148.35Y-99.1
X148.999Y-99.13
X149.497Y-98.712
X150.201Y-98.61
X150.825Y-98.95
X151.475Y-99.125
X153.6Y-99.0
X154.15Y-99.0
X154.5Y-95.5
X154.85Y-99.0
T3
X144.5Y-96.73
X144.5Y-98.0
X155.5Y-96.73
X155.5Y-98.0
T4
X148.725Y-96.6
X151.265Y-96.6
T2
G00X145.48Y-100.1
M15
G01X145.48Y-100.7
M16
G05
G00X154.52Y-100.1
M15
G01X154.52Y-100.7
M16
G05
T3
G00X145.48Y-102.925
M15
G01X145.48Y-103.875
M16
G05
G00X154.52Y-102.925
M15
G01X154.52Y-103.875
M16
G05
T0
M30
