%TF.GenerationSoftware,KiCad,Pcbnew,(6.0.9)*%
%TF.CreationDate,2023-02-03T12:08:02+01:00*%
%TF.ProjectId,OuterUSB,4f757465-7255-4534-922e-6b696361645f,rev?*%
%TF.SameCoordinates,Original*%
%TF.FileFunction,Copper,L2,Inr*%
%TF.FilePolarity,Positive*%
%FSLAX46Y46*%
G04 Gerber Fmt 4.6, Leading zero omitted, Abs format (unit mm)*
G04 Created by KiCad (PCBNEW (6.0.9)) date 2023-02-03 12:08:02*
%MOMM*%
%LPD*%
G01*
G04 APERTURE LIST*
%TA.AperFunction,ComponentPad*%
%ADD10R,1.000000X1.000000*%
%TD*%
%TA.AperFunction,ComponentPad*%
%ADD11O,1.000000X1.000000*%
%TD*%
%TA.AperFunction,ComponentPad*%
%ADD12O,0.900000X1.600000*%
%TD*%
%TA.AperFunction,ComponentPad*%
%ADD13O,1.100000X2.200000*%
%TD*%
%TA.AperFunction,ComponentPad*%
%ADD14R,1.700000X1.700000*%
%TD*%
%TA.AperFunction,ComponentPad*%
%ADD15O,1.700000X1.700000*%
%TD*%
%TA.AperFunction,ViaPad*%
%ADD16C,0.450000*%
%TD*%
G04 APERTURE END LIST*
D10*
%TO.N,/CC2*%
%TO.C,J104*%
X144500000Y-98000000D03*
D11*
%TO.N,/CC1*%
X144500000Y-96730000D03*
%TD*%
D12*
%TO.N,unconnected-(J101-PadS1)*%
%TO.C,J101*%
X145480000Y-100400000D03*
D13*
%TO.N,unconnected-(J101-PadS2)*%
X145480000Y-103400000D03*
%TO.N,unconnected-(J101-PadS3)*%
X154520000Y-103400000D03*
D12*
%TO.N,unconnected-(J101-PadS4)*%
X154520000Y-100400000D03*
%TD*%
D14*
%TO.N,GND*%
%TO.C,J102*%
X148725000Y-96600000D03*
D15*
%TO.N,/VBUS*%
X151265000Y-96600000D03*
%TD*%
D10*
%TO.N,/Data-*%
%TO.C,J103*%
X155500000Y-98000000D03*
D11*
%TO.N,/Data+*%
X155500000Y-96730000D03*
%TD*%
D16*
%TO.N,GND*%
X144500000Y-95600000D03*
X146600000Y-99250000D03*
X154500000Y-95500000D03*
X146760000Y-97160000D03*
X154850000Y-99000000D03*
X145950000Y-99100000D03*
X153600000Y-99000000D03*
X145300000Y-99100000D03*
X154150000Y-99000000D03*
%TO.N,/CC1*%
X148350000Y-99100000D03*
%TO.N,/Data+*%
X150200841Y-98609845D03*
X148998820Y-99129759D03*
%TO.N,/Data-*%
X149496509Y-98712435D03*
X150824500Y-98950000D03*
%TO.N,/CC2*%
X151475000Y-99125000D03*
%TD*%
%TA.AperFunction,Conductor*%
%TO.N,GND*%
G36*
X155982475Y-95251922D02*
G01*
X156000000Y-95255408D01*
X156007147Y-95253987D01*
X156014437Y-95253987D01*
X156014437Y-95254986D01*
X156026787Y-95254743D01*
X156042007Y-95257153D01*
X156065524Y-95260878D01*
X156087541Y-95268031D01*
X156132404Y-95290890D01*
X156136209Y-95292829D01*
X156154939Y-95306437D01*
X156193563Y-95345061D01*
X156207171Y-95363791D01*
X156231969Y-95412459D01*
X156239123Y-95434478D01*
X156245257Y-95473213D01*
X156245014Y-95485563D01*
X156246013Y-95485563D01*
X156246013Y-95492853D01*
X156244592Y-95500000D01*
X156246014Y-95507147D01*
X156248078Y-95517525D01*
X156249500Y-95531962D01*
X156249500Y-96467916D01*
X156232187Y-96515482D01*
X156188350Y-96540792D01*
X156138500Y-96532002D01*
X156106277Y-96494073D01*
X156082286Y-96430582D01*
X156082285Y-96430580D01*
X156080710Y-96426412D01*
X155991531Y-96296657D01*
X155905894Y-96220357D01*
X155877310Y-96194889D01*
X155877307Y-96194887D01*
X155873976Y-96191919D01*
X155734831Y-96118245D01*
X155582128Y-96079889D01*
X155500583Y-96079462D01*
X155429142Y-96079088D01*
X155429139Y-96079088D01*
X155424684Y-96079065D01*
X155420349Y-96080106D01*
X155420347Y-96080106D01*
X155340936Y-96099171D01*
X155271588Y-96115820D01*
X155131679Y-96188032D01*
X155128321Y-96190961D01*
X155128320Y-96190962D01*
X155117057Y-96200788D01*
X155013034Y-96291533D01*
X155010466Y-96295187D01*
X155010465Y-96295188D01*
X154930947Y-96408331D01*
X154922501Y-96420348D01*
X154865309Y-96567039D01*
X154864727Y-96571463D01*
X154864726Y-96571465D01*
X154857546Y-96626008D01*
X154844758Y-96723138D01*
X154862035Y-96879633D01*
X154916143Y-97027490D01*
X154918628Y-97031188D01*
X154918630Y-97031192D01*
X154996744Y-97147437D01*
X155003958Y-97158172D01*
X155023955Y-97176368D01*
X155072749Y-97220767D01*
X155096279Y-97265585D01*
X155085495Y-97315042D01*
X155045444Y-97345997D01*
X155022946Y-97349500D01*
X154985180Y-97349500D01*
X154981611Y-97350210D01*
X154981610Y-97350210D01*
X154948425Y-97356811D01*
X154948424Y-97356812D01*
X154941278Y-97358233D01*
X154891496Y-97391496D01*
X154858233Y-97441278D01*
X154849500Y-97485180D01*
X154849500Y-98514820D01*
X154850210Y-98518389D01*
X154850210Y-98518390D01*
X154856266Y-98548832D01*
X154858233Y-98558722D01*
X154891496Y-98608504D01*
X154941278Y-98641767D01*
X154948424Y-98643188D01*
X154948425Y-98643189D01*
X154981610Y-98649790D01*
X154981611Y-98649790D01*
X154985180Y-98650500D01*
X156014820Y-98650500D01*
X156018389Y-98649790D01*
X156018390Y-98649790D01*
X156051575Y-98643189D01*
X156051576Y-98643188D01*
X156058722Y-98641767D01*
X156108504Y-98608504D01*
X156113971Y-98600322D01*
X156116610Y-98598387D01*
X156117707Y-98597290D01*
X156117876Y-98597459D01*
X156154792Y-98570390D01*
X156205303Y-98573701D01*
X156241868Y-98608704D01*
X156249500Y-98641434D01*
X156249500Y-102126000D01*
X156232187Y-102173566D01*
X156188350Y-102198876D01*
X156175500Y-102200000D01*
X154807839Y-102200000D01*
X154781543Y-102193477D01*
X154780992Y-102194911D01*
X154776821Y-102193310D01*
X154772881Y-102191224D01*
X154768554Y-102190137D01*
X154612769Y-102151006D01*
X154612768Y-102151006D01*
X154608441Y-102149919D01*
X154523078Y-102149472D01*
X154443354Y-102149054D01*
X154443351Y-102149054D01*
X154438895Y-102149031D01*
X154434560Y-102150072D01*
X154434558Y-102150072D01*
X154379126Y-102163381D01*
X154274032Y-102188612D01*
X154270064Y-102190660D01*
X154267938Y-102191757D01*
X154233997Y-102200000D01*
X153874000Y-102200000D01*
X153826434Y-102182687D01*
X153801124Y-102138850D01*
X153800000Y-102126000D01*
X153800000Y-100952973D01*
X153817313Y-100905407D01*
X153861150Y-100880097D01*
X153911000Y-100888887D01*
X153942367Y-100924654D01*
X153995464Y-101052841D01*
X153998414Y-101056685D01*
X153998416Y-101056689D01*
X154088763Y-101174431D01*
X154091718Y-101178282D01*
X154095569Y-101181237D01*
X154213311Y-101271584D01*
X154213315Y-101271586D01*
X154217159Y-101274536D01*
X154363238Y-101335044D01*
X154368040Y-101335676D01*
X154368043Y-101335677D01*
X154515192Y-101355049D01*
X154520000Y-101355682D01*
X154524808Y-101355049D01*
X154671957Y-101335677D01*
X154671960Y-101335676D01*
X154676762Y-101335044D01*
X154822841Y-101274536D01*
X154826685Y-101271586D01*
X154826689Y-101271584D01*
X154944431Y-101181237D01*
X154948282Y-101178282D01*
X154951237Y-101174431D01*
X155041584Y-101056689D01*
X155041586Y-101056685D01*
X155044536Y-101052841D01*
X155105044Y-100906762D01*
X155107398Y-100888887D01*
X155120183Y-100791768D01*
X155120500Y-100789361D01*
X155120500Y-100010639D01*
X155105044Y-99893238D01*
X155044536Y-99747159D01*
X155041586Y-99743315D01*
X155041584Y-99743311D01*
X154951237Y-99625569D01*
X154948282Y-99621718D01*
X154944431Y-99618763D01*
X154826689Y-99528416D01*
X154826685Y-99528414D01*
X154822841Y-99525464D01*
X154676762Y-99464956D01*
X154671960Y-99464324D01*
X154671957Y-99464323D01*
X154524808Y-99444951D01*
X154520000Y-99444318D01*
X154515192Y-99444951D01*
X154368043Y-99464323D01*
X154368040Y-99464324D01*
X154363238Y-99464956D01*
X154217159Y-99525464D01*
X154213315Y-99528414D01*
X154213311Y-99528416D01*
X154095569Y-99618763D01*
X154091718Y-99621718D01*
X154088763Y-99625569D01*
X153998416Y-99743311D01*
X153998414Y-99743315D01*
X153995464Y-99747159D01*
X153934956Y-99893238D01*
X153919500Y-100010639D01*
X153919500Y-100745975D01*
X153902187Y-100793541D01*
X153858350Y-100818851D01*
X153808499Y-100810060D01*
X153800000Y-100805153D01*
X153800000Y-100800000D01*
X146200000Y-100800000D01*
X146200000Y-100804749D01*
X146179810Y-100812098D01*
X146129191Y-100812098D01*
X146090414Y-100779561D01*
X146080500Y-100742561D01*
X146080500Y-100010639D01*
X146065044Y-99893238D01*
X146004536Y-99747159D01*
X146001586Y-99743315D01*
X146001584Y-99743311D01*
X145911237Y-99625569D01*
X145908282Y-99621718D01*
X145904431Y-99618763D01*
X145786689Y-99528416D01*
X145786685Y-99528414D01*
X145782841Y-99525464D01*
X145636762Y-99464956D01*
X145631960Y-99464324D01*
X145631957Y-99464323D01*
X145484808Y-99444951D01*
X145480000Y-99444318D01*
X145475192Y-99444951D01*
X145328043Y-99464323D01*
X145328040Y-99464324D01*
X145323238Y-99464956D01*
X145177159Y-99525464D01*
X145173315Y-99528414D01*
X145173311Y-99528416D01*
X145055569Y-99618763D01*
X145051718Y-99621718D01*
X145048763Y-99625569D01*
X144958416Y-99743311D01*
X144958414Y-99743315D01*
X144955464Y-99747159D01*
X144894956Y-99893238D01*
X144879500Y-100010639D01*
X144879500Y-100789361D01*
X144879817Y-100791768D01*
X144892603Y-100888887D01*
X144894956Y-100906762D01*
X144955464Y-101052841D01*
X144958414Y-101056685D01*
X144958416Y-101056689D01*
X145048763Y-101174431D01*
X145051718Y-101178282D01*
X145055569Y-101181237D01*
X145173311Y-101271584D01*
X145173315Y-101271586D01*
X145177159Y-101274536D01*
X145323238Y-101335044D01*
X145328040Y-101335676D01*
X145328043Y-101335677D01*
X145475192Y-101355049D01*
X145480000Y-101355682D01*
X145484808Y-101355049D01*
X145631957Y-101335677D01*
X145631960Y-101335676D01*
X145636762Y-101335044D01*
X145782841Y-101274536D01*
X145786685Y-101271586D01*
X145786689Y-101271584D01*
X145904431Y-101181237D01*
X145908282Y-101178282D01*
X145911237Y-101174431D01*
X146001584Y-101056689D01*
X146001586Y-101056685D01*
X146004536Y-101052841D01*
X146057633Y-100924654D01*
X146091831Y-100887334D01*
X146142017Y-100880727D01*
X146184708Y-100907925D01*
X146200000Y-100952973D01*
X146200000Y-102126000D01*
X146182687Y-102173566D01*
X146138850Y-102198876D01*
X146126000Y-102200000D01*
X145767839Y-102200000D01*
X145741543Y-102193477D01*
X145740992Y-102194911D01*
X145736821Y-102193310D01*
X145732881Y-102191224D01*
X145728554Y-102190137D01*
X145572769Y-102151006D01*
X145572768Y-102151006D01*
X145568441Y-102149919D01*
X145483078Y-102149472D01*
X145403354Y-102149054D01*
X145403351Y-102149054D01*
X145398895Y-102149031D01*
X145394560Y-102150072D01*
X145394558Y-102150072D01*
X145339126Y-102163381D01*
X145234032Y-102188612D01*
X145230064Y-102190660D01*
X145227938Y-102191757D01*
X145193997Y-102200000D01*
X143874000Y-102200000D01*
X143826434Y-102182687D01*
X143801124Y-102138850D01*
X143800000Y-102126000D01*
X143800000Y-99100000D01*
X147969819Y-99100000D01*
X147970730Y-99105752D01*
X147987514Y-99211727D01*
X147987515Y-99211730D01*
X147988426Y-99217482D01*
X147991071Y-99222673D01*
X147991072Y-99222676D01*
X148039781Y-99318273D01*
X148039783Y-99318276D01*
X148042427Y-99323465D01*
X148126535Y-99407573D01*
X148131724Y-99410217D01*
X148131727Y-99410219D01*
X148227324Y-99458928D01*
X148227327Y-99458929D01*
X148232518Y-99461574D01*
X148238270Y-99462485D01*
X148238273Y-99462486D01*
X148344248Y-99479270D01*
X148350000Y-99480181D01*
X148355752Y-99479270D01*
X148461727Y-99462486D01*
X148461730Y-99462485D01*
X148467482Y-99461574D01*
X148472673Y-99458929D01*
X148472676Y-99458928D01*
X148568273Y-99410219D01*
X148568276Y-99410217D01*
X148573465Y-99407573D01*
X148577581Y-99403457D01*
X148577585Y-99403454D01*
X148607206Y-99373833D01*
X148653083Y-99352441D01*
X148701977Y-99365543D01*
X148711856Y-99373833D01*
X148775355Y-99437332D01*
X148780544Y-99439976D01*
X148780547Y-99439978D01*
X148876144Y-99488687D01*
X148876147Y-99488688D01*
X148881338Y-99491333D01*
X148887090Y-99492244D01*
X148887093Y-99492245D01*
X148993068Y-99509029D01*
X148998820Y-99509940D01*
X149004572Y-99509029D01*
X149110547Y-99492245D01*
X149110550Y-99492244D01*
X149116302Y-99491333D01*
X149121493Y-99488688D01*
X149121496Y-99488687D01*
X149217093Y-99439978D01*
X149217096Y-99439976D01*
X149222285Y-99437332D01*
X149306393Y-99353224D01*
X149309037Y-99348035D01*
X149309039Y-99348032D01*
X149357748Y-99252435D01*
X149357749Y-99252432D01*
X149360394Y-99247241D01*
X149376040Y-99148457D01*
X149400579Y-99104186D01*
X149447836Y-99086045D01*
X149460702Y-99086945D01*
X149496509Y-99092616D01*
X149502261Y-99091705D01*
X149608236Y-99074921D01*
X149608239Y-99074920D01*
X149613991Y-99074009D01*
X149619182Y-99071364D01*
X149619185Y-99071363D01*
X149714782Y-99022654D01*
X149714785Y-99022652D01*
X149719974Y-99020008D01*
X149804082Y-98935900D01*
X149822575Y-98899605D01*
X149859594Y-98865085D01*
X149910143Y-98862435D01*
X149940834Y-98880876D01*
X149977376Y-98917418D01*
X149982565Y-98920062D01*
X149982568Y-98920064D01*
X150078165Y-98968773D01*
X150078168Y-98968774D01*
X150083359Y-98971419D01*
X150089111Y-98972330D01*
X150089114Y-98972331D01*
X150195089Y-98989115D01*
X150200841Y-98990026D01*
X150206593Y-98989115D01*
X150312568Y-98972331D01*
X150312571Y-98972330D01*
X150318323Y-98971419D01*
X150347300Y-98956655D01*
X150397538Y-98950485D01*
X150439991Y-98978054D01*
X150453982Y-99011013D01*
X150462014Y-99061727D01*
X150462015Y-99061730D01*
X150462926Y-99067482D01*
X150465571Y-99072673D01*
X150465572Y-99072676D01*
X150514281Y-99168273D01*
X150514283Y-99168276D01*
X150516927Y-99173465D01*
X150601035Y-99257573D01*
X150606224Y-99260217D01*
X150606227Y-99260219D01*
X150701824Y-99308928D01*
X150701827Y-99308929D01*
X150707018Y-99311574D01*
X150712770Y-99312485D01*
X150712773Y-99312486D01*
X150818748Y-99329270D01*
X150824500Y-99330181D01*
X150830252Y-99329270D01*
X150936227Y-99312486D01*
X150936230Y-99312485D01*
X150941982Y-99311574D01*
X151040105Y-99261578D01*
X151090345Y-99255409D01*
X151132798Y-99282978D01*
X151139633Y-99293915D01*
X151167427Y-99348465D01*
X151251535Y-99432573D01*
X151256724Y-99435217D01*
X151256727Y-99435219D01*
X151352324Y-99483928D01*
X151352327Y-99483929D01*
X151357518Y-99486574D01*
X151363270Y-99487485D01*
X151363273Y-99487486D01*
X151469248Y-99504270D01*
X151475000Y-99505181D01*
X151480752Y-99504270D01*
X151586727Y-99487486D01*
X151586730Y-99487485D01*
X151592482Y-99486574D01*
X151597673Y-99483929D01*
X151597676Y-99483928D01*
X151693273Y-99435219D01*
X151693276Y-99435217D01*
X151698465Y-99432573D01*
X151782573Y-99348465D01*
X151785217Y-99343276D01*
X151785219Y-99343273D01*
X151833928Y-99247676D01*
X151833929Y-99247673D01*
X151836574Y-99242482D01*
X151837485Y-99236730D01*
X151837486Y-99236727D01*
X151854270Y-99130752D01*
X151855181Y-99125000D01*
X151854270Y-99119248D01*
X151837486Y-99013273D01*
X151837485Y-99013270D01*
X151836574Y-99007518D01*
X151833928Y-99002324D01*
X151785219Y-98906727D01*
X151785217Y-98906724D01*
X151782573Y-98901535D01*
X151698465Y-98817427D01*
X151693276Y-98814783D01*
X151693273Y-98814781D01*
X151597676Y-98766072D01*
X151597673Y-98766071D01*
X151592482Y-98763426D01*
X151586730Y-98762515D01*
X151586727Y-98762514D01*
X151480752Y-98745730D01*
X151475000Y-98744819D01*
X151469248Y-98745730D01*
X151363273Y-98762514D01*
X151363270Y-98762515D01*
X151357518Y-98763426D01*
X151259395Y-98813422D01*
X151209155Y-98819591D01*
X151166702Y-98792022D01*
X151159867Y-98781084D01*
X151147162Y-98756149D01*
X151132073Y-98726535D01*
X151047965Y-98642427D01*
X151042776Y-98639783D01*
X151042773Y-98639781D01*
X150947176Y-98591072D01*
X150947173Y-98591071D01*
X150941982Y-98588426D01*
X150936230Y-98587515D01*
X150936227Y-98587514D01*
X150830252Y-98570730D01*
X150824500Y-98569819D01*
X150818748Y-98570730D01*
X150712773Y-98587514D01*
X150712770Y-98587515D01*
X150707018Y-98588426D01*
X150678041Y-98603190D01*
X150627803Y-98609360D01*
X150585350Y-98581791D01*
X150571359Y-98548832D01*
X150563327Y-98498118D01*
X150563326Y-98498115D01*
X150562415Y-98492363D01*
X150559769Y-98487169D01*
X150511060Y-98391572D01*
X150511057Y-98391568D01*
X150508414Y-98386380D01*
X150424306Y-98302272D01*
X150419117Y-98299628D01*
X150419114Y-98299626D01*
X150323517Y-98250917D01*
X150323514Y-98250916D01*
X150318323Y-98248271D01*
X150312571Y-98247360D01*
X150312568Y-98247359D01*
X150206593Y-98230575D01*
X150200841Y-98229664D01*
X150195089Y-98230575D01*
X150089114Y-98247359D01*
X150089111Y-98247360D01*
X150083359Y-98248271D01*
X150078168Y-98250916D01*
X150078165Y-98250917D01*
X149982568Y-98299626D01*
X149982565Y-98299628D01*
X149977376Y-98302272D01*
X149893268Y-98386380D01*
X149874775Y-98422675D01*
X149837756Y-98457195D01*
X149787207Y-98459845D01*
X149756516Y-98441404D01*
X149719974Y-98404862D01*
X149714785Y-98402218D01*
X149714782Y-98402216D01*
X149619185Y-98353507D01*
X149619182Y-98353506D01*
X149613991Y-98350861D01*
X149608239Y-98349950D01*
X149608236Y-98349949D01*
X149502261Y-98333165D01*
X149496509Y-98332254D01*
X149490757Y-98333165D01*
X149384782Y-98349949D01*
X149384779Y-98349950D01*
X149379027Y-98350861D01*
X149373836Y-98353506D01*
X149373833Y-98353507D01*
X149278236Y-98402216D01*
X149278233Y-98402218D01*
X149273044Y-98404862D01*
X149188936Y-98488970D01*
X149186292Y-98494159D01*
X149186290Y-98494162D01*
X149137581Y-98589759D01*
X149134935Y-98594953D01*
X149119290Y-98693736D01*
X149094750Y-98738008D01*
X149047493Y-98756149D01*
X149034627Y-98755249D01*
X148998820Y-98749578D01*
X148993068Y-98750489D01*
X148887093Y-98767273D01*
X148887090Y-98767274D01*
X148881338Y-98768185D01*
X148876147Y-98770830D01*
X148876144Y-98770831D01*
X148780547Y-98819540D01*
X148780544Y-98819542D01*
X148775355Y-98822186D01*
X148741615Y-98855926D01*
X148695741Y-98877318D01*
X148646846Y-98864218D01*
X148636964Y-98855926D01*
X148573465Y-98792427D01*
X148568276Y-98789783D01*
X148568273Y-98789781D01*
X148472676Y-98741072D01*
X148472673Y-98741071D01*
X148467482Y-98738426D01*
X148461730Y-98737515D01*
X148461727Y-98737514D01*
X148355752Y-98720730D01*
X148350000Y-98719819D01*
X148344248Y-98720730D01*
X148238273Y-98737514D01*
X148238270Y-98737515D01*
X148232518Y-98738426D01*
X148227327Y-98741071D01*
X148227324Y-98741072D01*
X148131727Y-98789781D01*
X148131724Y-98789783D01*
X148126535Y-98792427D01*
X148042427Y-98876535D01*
X148039783Y-98881724D01*
X148039781Y-98881727D01*
X147991072Y-98977324D01*
X147988426Y-98982518D01*
X147987515Y-98988270D01*
X147987514Y-98988273D01*
X147974147Y-99072676D01*
X147969819Y-99100000D01*
X143800000Y-99100000D01*
X143800000Y-98685813D01*
X143817313Y-98638247D01*
X143861150Y-98612937D01*
X143915111Y-98624284D01*
X143935217Y-98637718D01*
X143935220Y-98637719D01*
X143941278Y-98641767D01*
X143948424Y-98643188D01*
X143948425Y-98643189D01*
X143981610Y-98649790D01*
X143981611Y-98649790D01*
X143985180Y-98650500D01*
X145014820Y-98650500D01*
X145018389Y-98649790D01*
X145018390Y-98649790D01*
X145051575Y-98643189D01*
X145051576Y-98643188D01*
X145058722Y-98641767D01*
X145108504Y-98608504D01*
X145141767Y-98558722D01*
X145143735Y-98548832D01*
X145149790Y-98518390D01*
X145149790Y-98518389D01*
X145150500Y-98514820D01*
X145150500Y-97485180D01*
X145141767Y-97441278D01*
X145108504Y-97391496D01*
X145058722Y-97358233D01*
X145051576Y-97356812D01*
X145051575Y-97356811D01*
X145018390Y-97350210D01*
X145018389Y-97350210D01*
X145014820Y-97349500D01*
X144976913Y-97349500D01*
X144929347Y-97332187D01*
X144904037Y-97288350D01*
X144912827Y-97238500D01*
X144928854Y-97219230D01*
X144978955Y-97176440D01*
X144982348Y-97173542D01*
X145074224Y-97045683D01*
X145079176Y-97033366D01*
X145131287Y-96903735D01*
X145131287Y-96903734D01*
X145132950Y-96899598D01*
X145155134Y-96743723D01*
X145155278Y-96730000D01*
X145137848Y-96585963D01*
X150259757Y-96585963D01*
X150260060Y-96589572D01*
X150260060Y-96589574D01*
X150263293Y-96628071D01*
X150276175Y-96781483D01*
X150303048Y-96875198D01*
X150328669Y-96964548D01*
X150330258Y-96970091D01*
X150331911Y-96973307D01*
X150418288Y-97141380D01*
X150418291Y-97141385D01*
X150419944Y-97144601D01*
X150541818Y-97298369D01*
X150691238Y-97425535D01*
X150719407Y-97441278D01*
X150859354Y-97519492D01*
X150859358Y-97519494D01*
X150862513Y-97521257D01*
X150865949Y-97522374D01*
X150865955Y-97522376D01*
X150984467Y-97560882D01*
X151049118Y-97581889D01*
X151109541Y-97589094D01*
X151240346Y-97604692D01*
X151240349Y-97604692D01*
X151243946Y-97605121D01*
X151308365Y-97600164D01*
X151435965Y-97590346D01*
X151435966Y-97590346D01*
X151439576Y-97590068D01*
X151628556Y-97537303D01*
X151631783Y-97535673D01*
X151800455Y-97450471D01*
X151800458Y-97450469D01*
X151803689Y-97448837D01*
X151958303Y-97328040D01*
X152086509Y-97179511D01*
X152088292Y-97176372D01*
X152088295Y-97176368D01*
X152156572Y-97056179D01*
X152183425Y-97008909D01*
X152189001Y-96992149D01*
X152244215Y-96826168D01*
X152245358Y-96822732D01*
X152250130Y-96784962D01*
X152269691Y-96630115D01*
X152269691Y-96630111D01*
X152269949Y-96628071D01*
X152270341Y-96600000D01*
X152264536Y-96540792D01*
X152262054Y-96515482D01*
X152251194Y-96404728D01*
X152194484Y-96216894D01*
X152122215Y-96080976D01*
X152104069Y-96046848D01*
X152104068Y-96046847D01*
X152102370Y-96043653D01*
X151978361Y-95891602D01*
X151827180Y-95766535D01*
X151812814Y-95758767D01*
X151657768Y-95674934D01*
X151654585Y-95673213D01*
X151651135Y-95672145D01*
X151651130Y-95672143D01*
X151532841Y-95635527D01*
X151467152Y-95615193D01*
X151272019Y-95594683D01*
X151076618Y-95612466D01*
X151073145Y-95613488D01*
X151073146Y-95613488D01*
X150891864Y-95666842D01*
X150891860Y-95666844D01*
X150888393Y-95667864D01*
X150797115Y-95715583D01*
X150717719Y-95757090D01*
X150717716Y-95757092D01*
X150714512Y-95758767D01*
X150711694Y-95761033D01*
X150711692Y-95761034D01*
X150564419Y-95879444D01*
X150564416Y-95879447D01*
X150561600Y-95881711D01*
X150435480Y-96032016D01*
X150433738Y-96035184D01*
X150433737Y-96035186D01*
X150409042Y-96080106D01*
X150340956Y-96203954D01*
X150339864Y-96207397D01*
X150339863Y-96207399D01*
X150310381Y-96300339D01*
X150281628Y-96390978D01*
X150281225Y-96394574D01*
X150281224Y-96394577D01*
X150277186Y-96430582D01*
X150259757Y-96585963D01*
X145137848Y-96585963D01*
X145136363Y-96573694D01*
X145080710Y-96426412D01*
X144991531Y-96296657D01*
X144905894Y-96220357D01*
X144877310Y-96194889D01*
X144877307Y-96194887D01*
X144873976Y-96191919D01*
X144734831Y-96118245D01*
X144582128Y-96079889D01*
X144500583Y-96079462D01*
X144429142Y-96079088D01*
X144429139Y-96079088D01*
X144424684Y-96079065D01*
X144420349Y-96080106D01*
X144420347Y-96080106D01*
X144340936Y-96099171D01*
X144271588Y-96115820D01*
X144131679Y-96188032D01*
X144128321Y-96190961D01*
X144128320Y-96190962D01*
X144117057Y-96200788D01*
X144013034Y-96291533D01*
X144010466Y-96295187D01*
X144010465Y-96295188D01*
X143934543Y-96403214D01*
X143893028Y-96432176D01*
X143842609Y-96427676D01*
X143806879Y-96391821D01*
X143800000Y-96360664D01*
X143800000Y-95382150D01*
X143817313Y-95334584D01*
X143821674Y-95329824D01*
X143845061Y-95306437D01*
X143863791Y-95292829D01*
X143867596Y-95290890D01*
X143912459Y-95268031D01*
X143934476Y-95260878D01*
X143957993Y-95257153D01*
X143973213Y-95254743D01*
X143985563Y-95254986D01*
X143985563Y-95253987D01*
X143992853Y-95253987D01*
X144000000Y-95255408D01*
X144017525Y-95251922D01*
X144031962Y-95250500D01*
X155968038Y-95250500D01*
X155982475Y-95251922D01*
G37*
%TD.AperFunction*%
%TD*%
M02*
