M48
; DRILL file {KiCad (6.0.9)} date Thu Feb  2 11:07:50 2023
; FORMAT={-:-/ absolute / metric / decimal}
; #@! TF.CreationDate,2023-02-02T11:07:50+01:00
; #@! TF.GenerationSoftware,Kicad,Pcbnew,(6.0.9)
; #@! TF.FileFunction,Plated,1,6,PTH
FMAT,2
METRIC
; #@! TA.AperFunction,Plated,PTH,ViaDrill
T1C0.200
; #@! TA.AperFunction,Plated,PTH,ComponentDrill
T2C0.600
; #@! TA.AperFunction,Plated,PTH,ComponentDrill
T3C0.650
; #@! TA.AperFunction,Plated,PTH,ComponentDrill
T4C1.000
%
G90
G05
T1
X145.3Y-99.1
X145.95Y-99.1
X146.0Y-95.6
X146.6Y-99.25
X148.35Y-99.1
X148.999Y-99.13
X149.497Y-98.712
X150.201Y-98.61
X150.825Y-98.95
X151.475Y-99.125
X153.6Y-99.0
X154.15Y-99.0
X154.5Y-95.5
X154.85Y-99.0
T3
X144.65Y-96.58
X144.65Y-97.85
X155.45Y-96.78
X155.45Y-98.05
T4
X149.525Y-96.6
X152.065Y-96.6
T2
G00X145.48Y-100.1
M15
G01X145.48Y-100.7
M16
G05
G00X154.52Y-100.1
M15
G01X154.52Y-100.7
M16
G05
T3
G00X145.48Y-102.925
M15
G01X145.48Y-103.875
M16
G05
G00X154.52Y-102.925
M15
G01X154.52Y-103.875
M16
G05
T0
M30
