%TF.GenerationSoftware,KiCad,Pcbnew,(6.0.9)*%
%TF.CreationDate,2023-02-02T11:12:29+01:00*%
%TF.ProjectId,SamsungLedBoard,53616d73-756e-4674-9c65-64426f617264,rev?*%
%TF.SameCoordinates,Original*%
%TF.FileFunction,Legend,Top*%
%TF.FilePolarity,Positive*%
%FSLAX46Y46*%
G04 Gerber Fmt 4.6, Leading zero omitted, Abs format (unit mm)*
G04 Created by KiCad (PCBNEW (6.0.9)) date 2023-02-02 11:12:29*
%MOMM*%
%LPD*%
G01*
G04 APERTURE LIST*
G04 Aperture macros list*
%AMRotRect*
0 Rectangle, with rotation*
0 The origin of the aperture is its center*
0 $1 length*
0 $2 width*
0 $3 Rotation angle, in degrees counterclockwise*
0 Add horizontal line*
21,1,$1,$2,0,0,$3*%
G04 Aperture macros list end*
%ADD10C,0.160000*%
%ADD11C,0.120000*%
%ADD12R,2.100000X4.430000*%
%ADD13C,2.200000*%
%ADD14RotRect,4.430000X2.100000X170.000000*%
%ADD15RotRect,4.430000X2.100000X330.000000*%
%ADD16RotRect,4.430000X2.100000X130.000000*%
%ADD17RotRect,4.430000X2.100000X290.000000*%
%ADD18RotRect,4.430000X2.100000X250.000000*%
%ADD19RotRect,4.430000X2.100000X50.000000*%
%ADD20RotRect,4.430000X2.100000X10.000000*%
%ADD21RotRect,4.430000X2.100000X210.000000*%
%ADD22C,4.000000*%
G04 APERTURE END LIST*
D10*
X140085714Y-116507142D02*
X140085714Y-117150000D01*
X140042857Y-117278571D01*
X139957142Y-117364285D01*
X139828571Y-117407142D01*
X139742857Y-117407142D01*
X140514285Y-117407142D02*
X140514285Y-116507142D01*
X140814285Y-117150000D01*
X141114285Y-116507142D01*
X141114285Y-117407142D01*
X142657142Y-117407142D02*
X142228571Y-117407142D01*
X142228571Y-116507142D01*
X142957142Y-117407142D02*
X142957142Y-116807142D01*
X142957142Y-116507142D02*
X142914285Y-116550000D01*
X142957142Y-116592857D01*
X143000000Y-116550000D01*
X142957142Y-116507142D01*
X142957142Y-116592857D01*
X143728571Y-117364285D02*
X143642857Y-117407142D01*
X143471428Y-117407142D01*
X143385714Y-117364285D01*
X143342857Y-117278571D01*
X143342857Y-116935714D01*
X143385714Y-116850000D01*
X143471428Y-116807142D01*
X143642857Y-116807142D01*
X143728571Y-116850000D01*
X143771428Y-116935714D01*
X143771428Y-117021428D01*
X143342857Y-117107142D01*
X144071428Y-116807142D02*
X144242857Y-117407142D01*
X144414285Y-116978571D01*
X144585714Y-117407142D01*
X144757142Y-116807142D01*
X145442857Y-117364285D02*
X145357142Y-117407142D01*
X145185714Y-117407142D01*
X145100000Y-117364285D01*
X145057142Y-117278571D01*
X145057142Y-116935714D01*
X145100000Y-116850000D01*
X145185714Y-116807142D01*
X145357142Y-116807142D01*
X145442857Y-116850000D01*
X145485714Y-116935714D01*
X145485714Y-117021428D01*
X145057142Y-117107142D01*
X145828571Y-117364285D02*
X145914285Y-117407142D01*
X146085714Y-117407142D01*
X146171428Y-117364285D01*
X146214285Y-117278571D01*
X146214285Y-117235714D01*
X146171428Y-117150000D01*
X146085714Y-117107142D01*
X145957142Y-117107142D01*
X145871428Y-117064285D01*
X145828571Y-116978571D01*
X145828571Y-116935714D01*
X145871428Y-116850000D01*
X145957142Y-116807142D01*
X146085714Y-116807142D01*
X146171428Y-116850000D01*
X148628571Y-120507142D02*
X148928571Y-121407142D01*
X149228571Y-120507142D01*
X149700000Y-120507142D02*
X149785714Y-120507142D01*
X149871428Y-120550000D01*
X149914285Y-120592857D01*
X149957142Y-120678571D01*
X150000000Y-120850000D01*
X150000000Y-121064285D01*
X149957142Y-121235714D01*
X149914285Y-121321428D01*
X149871428Y-121364285D01*
X149785714Y-121407142D01*
X149700000Y-121407142D01*
X149614285Y-121364285D01*
X149571428Y-121321428D01*
X149528571Y-121235714D01*
X149485714Y-121064285D01*
X149485714Y-120850000D01*
X149528571Y-120678571D01*
X149571428Y-120592857D01*
X149614285Y-120550000D01*
X149700000Y-120507142D01*
X150385714Y-121321428D02*
X150428571Y-121364285D01*
X150385714Y-121407142D01*
X150342857Y-121364285D01*
X150385714Y-121321428D01*
X150385714Y-121407142D01*
X151285714Y-121407142D02*
X150771428Y-121407142D01*
X151028571Y-121407142D02*
X151028571Y-120507142D01*
X150942857Y-120635714D01*
X150857142Y-120721428D01*
X150771428Y-120764285D01*
X142057142Y-85852380D02*
X142057142Y-84852380D01*
X142057142Y-85328571D02*
X142628571Y-85328571D01*
X142628571Y-85852380D02*
X142628571Y-84852380D01*
X143104761Y-85852380D02*
X143104761Y-85185714D01*
X143104761Y-84852380D02*
X143057142Y-84900000D01*
X143104761Y-84947619D01*
X143152380Y-84900000D01*
X143104761Y-84852380D01*
X143104761Y-84947619D01*
X143628571Y-85804761D02*
X143628571Y-85852380D01*
X143580952Y-85947619D01*
X143533333Y-85995238D01*
X144819047Y-85852380D02*
X144819047Y-85185714D01*
X144819047Y-85280952D02*
X144866666Y-85233333D01*
X144961904Y-85185714D01*
X145104761Y-85185714D01*
X145200000Y-85233333D01*
X145247619Y-85328571D01*
X145247619Y-85852380D01*
X145247619Y-85328571D02*
X145295238Y-85233333D01*
X145390476Y-85185714D01*
X145533333Y-85185714D01*
X145628571Y-85233333D01*
X145676190Y-85328571D01*
X145676190Y-85852380D01*
X146057142Y-85185714D02*
X146295238Y-85852380D01*
X146533333Y-85185714D02*
X146295238Y-85852380D01*
X146200000Y-86090476D01*
X146152380Y-86138095D01*
X146057142Y-86185714D01*
X147676190Y-85185714D02*
X147676190Y-85852380D01*
X147676190Y-85280952D02*
X147723809Y-85233333D01*
X147819047Y-85185714D01*
X147961904Y-85185714D01*
X148057142Y-85233333D01*
X148104761Y-85328571D01*
X148104761Y-85852380D01*
X149009523Y-85852380D02*
X149009523Y-85328571D01*
X148961904Y-85233333D01*
X148866666Y-85185714D01*
X148676190Y-85185714D01*
X148580952Y-85233333D01*
X149009523Y-85804761D02*
X148914285Y-85852380D01*
X148676190Y-85852380D01*
X148580952Y-85804761D01*
X148533333Y-85709523D01*
X148533333Y-85614285D01*
X148580952Y-85519047D01*
X148676190Y-85471428D01*
X148914285Y-85471428D01*
X149009523Y-85423809D01*
X149485714Y-85852380D02*
X149485714Y-85185714D01*
X149485714Y-85280952D02*
X149533333Y-85233333D01*
X149628571Y-85185714D01*
X149771428Y-85185714D01*
X149866666Y-85233333D01*
X149914285Y-85328571D01*
X149914285Y-85852380D01*
X149914285Y-85328571D02*
X149961904Y-85233333D01*
X150057142Y-85185714D01*
X150200000Y-85185714D01*
X150295238Y-85233333D01*
X150342857Y-85328571D01*
X150342857Y-85852380D01*
X151200000Y-85804761D02*
X151104761Y-85852380D01*
X150914285Y-85852380D01*
X150819047Y-85804761D01*
X150771428Y-85709523D01*
X150771428Y-85328571D01*
X150819047Y-85233333D01*
X150914285Y-85185714D01*
X151104761Y-85185714D01*
X151200000Y-85233333D01*
X151247619Y-85328571D01*
X151247619Y-85423809D01*
X150771428Y-85519047D01*
X152438095Y-85852380D02*
X152438095Y-85185714D01*
X152438095Y-84852380D02*
X152390476Y-84900000D01*
X152438095Y-84947619D01*
X152485714Y-84900000D01*
X152438095Y-84852380D01*
X152438095Y-84947619D01*
X152866666Y-85804761D02*
X152961904Y-85852380D01*
X153152380Y-85852380D01*
X153247619Y-85804761D01*
X153295238Y-85709523D01*
X153295238Y-85661904D01*
X153247619Y-85566666D01*
X153152380Y-85519047D01*
X153009523Y-85519047D01*
X152914285Y-85471428D01*
X152866666Y-85376190D01*
X152866666Y-85328571D01*
X152914285Y-85233333D01*
X153009523Y-85185714D01*
X153152380Y-85185714D01*
X153247619Y-85233333D01*
X154771428Y-84852380D02*
X154771428Y-85566666D01*
X154723809Y-85709523D01*
X154628571Y-85804761D01*
X154485714Y-85852380D01*
X154390476Y-85852380D01*
X155676190Y-85852380D02*
X155676190Y-85328571D01*
X155628571Y-85233333D01*
X155533333Y-85185714D01*
X155342857Y-85185714D01*
X155247619Y-85233333D01*
X155676190Y-85804761D02*
X155580952Y-85852380D01*
X155342857Y-85852380D01*
X155247619Y-85804761D01*
X155200000Y-85709523D01*
X155200000Y-85614285D01*
X155247619Y-85519047D01*
X155342857Y-85471428D01*
X155580952Y-85471428D01*
X155676190Y-85423809D01*
X156580952Y-85804761D02*
X156485714Y-85852380D01*
X156295238Y-85852380D01*
X156200000Y-85804761D01*
X156152380Y-85757142D01*
X156104761Y-85661904D01*
X156104761Y-85376190D01*
X156152380Y-85280952D01*
X156200000Y-85233333D01*
X156295238Y-85185714D01*
X156485714Y-85185714D01*
X156580952Y-85233333D01*
X157152380Y-85852380D02*
X157057142Y-85804761D01*
X157009523Y-85757142D01*
X156961904Y-85661904D01*
X156961904Y-85376190D01*
X157009523Y-85280952D01*
X157057142Y-85233333D01*
X157152380Y-85185714D01*
X157295238Y-85185714D01*
X157390476Y-85233333D01*
X157438095Y-85280952D01*
X157485714Y-85376190D01*
X157485714Y-85661904D01*
X157438095Y-85757142D01*
X157390476Y-85804761D01*
X157295238Y-85852380D01*
X157152380Y-85852380D01*
X157914285Y-85852380D02*
X157914285Y-84852380D01*
X157914285Y-85233333D02*
X158009523Y-85185714D01*
X158200000Y-85185714D01*
X158295238Y-85233333D01*
X158342857Y-85280952D01*
X158390476Y-85376190D01*
X158390476Y-85661904D01*
X158342857Y-85757142D01*
X158295238Y-85804761D01*
X158200000Y-85852380D01*
X158009523Y-85852380D01*
X157914285Y-85804761D01*
X154192857Y-117407142D02*
X153764285Y-117407142D01*
X153764285Y-116507142D01*
X154835714Y-117364285D02*
X154750000Y-117407142D01*
X154578571Y-117407142D01*
X154492857Y-117364285D01*
X154450000Y-117278571D01*
X154450000Y-116935714D01*
X154492857Y-116850000D01*
X154578571Y-116807142D01*
X154750000Y-116807142D01*
X154835714Y-116850000D01*
X154878571Y-116935714D01*
X154878571Y-117021428D01*
X154450000Y-117107142D01*
X155650000Y-117407142D02*
X155650000Y-116507142D01*
X155650000Y-117364285D02*
X155564285Y-117407142D01*
X155392857Y-117407142D01*
X155307142Y-117364285D01*
X155264285Y-117321428D01*
X155221428Y-117235714D01*
X155221428Y-116978571D01*
X155264285Y-116892857D01*
X155307142Y-116850000D01*
X155392857Y-116807142D01*
X155564285Y-116807142D01*
X155650000Y-116850000D01*
X157064285Y-116935714D02*
X157192857Y-116978571D01*
X157235714Y-117021428D01*
X157278571Y-117107142D01*
X157278571Y-117235714D01*
X157235714Y-117321428D01*
X157192857Y-117364285D01*
X157107142Y-117407142D01*
X156764285Y-117407142D01*
X156764285Y-116507142D01*
X157064285Y-116507142D01*
X157150000Y-116550000D01*
X157192857Y-116592857D01*
X157235714Y-116678571D01*
X157235714Y-116764285D01*
X157192857Y-116850000D01*
X157150000Y-116892857D01*
X157064285Y-116935714D01*
X156764285Y-116935714D01*
X157792857Y-117407142D02*
X157707142Y-117364285D01*
X157664285Y-117321428D01*
X157621428Y-117235714D01*
X157621428Y-116978571D01*
X157664285Y-116892857D01*
X157707142Y-116850000D01*
X157792857Y-116807142D01*
X157921428Y-116807142D01*
X158007142Y-116850000D01*
X158050000Y-116892857D01*
X158092857Y-116978571D01*
X158092857Y-117235714D01*
X158050000Y-117321428D01*
X158007142Y-117364285D01*
X157921428Y-117407142D01*
X157792857Y-117407142D01*
X158864285Y-117407142D02*
X158864285Y-116935714D01*
X158821428Y-116850000D01*
X158735714Y-116807142D01*
X158564285Y-116807142D01*
X158478571Y-116850000D01*
X158864285Y-117364285D02*
X158778571Y-117407142D01*
X158564285Y-117407142D01*
X158478571Y-117364285D01*
X158435714Y-117278571D01*
X158435714Y-117192857D01*
X158478571Y-117107142D01*
X158564285Y-117064285D01*
X158778571Y-117064285D01*
X158864285Y-117021428D01*
X159292857Y-117407142D02*
X159292857Y-116807142D01*
X159292857Y-116978571D02*
X159335714Y-116892857D01*
X159378571Y-116850000D01*
X159464285Y-116807142D01*
X159550000Y-116807142D01*
X160235714Y-117407142D02*
X160235714Y-116507142D01*
X160235714Y-117364285D02*
X160150000Y-117407142D01*
X159978571Y-117407142D01*
X159892857Y-117364285D01*
X159850000Y-117321428D01*
X159807142Y-117235714D01*
X159807142Y-116978571D01*
X159850000Y-116892857D01*
X159892857Y-116850000D01*
X159978571Y-116807142D01*
X160150000Y-116807142D01*
X160235714Y-116850000D01*
D11*
%TO.C,D5*%
X147400000Y-112100000D02*
X147900000Y-112600000D01*
X152600000Y-107400000D02*
X152600000Y-112600000D01*
X152600000Y-112600000D02*
X147900000Y-112600000D01*
X147400000Y-107400000D02*
X152600000Y-107400000D01*
X146800000Y-112400000D02*
X147300000Y-112400000D01*
X147000000Y-112100000D02*
X147000000Y-112700000D01*
X146800000Y-112400000D02*
X146700000Y-112400000D01*
X147400000Y-112100000D02*
X147400000Y-107400000D01*
%TO.C,D3*%
X161607864Y-105368140D02*
X161694689Y-104875737D01*
X157690985Y-98788015D02*
X162811985Y-99690985D01*
X161416611Y-104725161D02*
X161995839Y-104319582D01*
X161607864Y-105368140D02*
X161590500Y-105466621D01*
X161416611Y-104725161D02*
X156788015Y-103909015D01*
X156788015Y-103909015D02*
X157690985Y-98788015D01*
X162811985Y-99690985D02*
X161995839Y-104319582D01*
X161347152Y-105119084D02*
X161938036Y-105223273D01*
%TO.C,D8*%
X142351666Y-98551666D02*
X137848334Y-95951666D01*
X144951666Y-94048334D02*
X142351666Y-98551666D01*
X140921539Y-91028719D02*
X140671539Y-91461731D01*
X137848334Y-95951666D02*
X140198334Y-91881347D01*
X140921539Y-91028719D02*
X140971539Y-90942116D01*
X140881347Y-91698334D02*
X140198334Y-91881347D01*
X140881347Y-91698334D02*
X144951666Y-94048334D01*
X141081347Y-91351924D02*
X140561731Y-91051924D01*
%TO.C,D4*%
X160062963Y-108020468D02*
X156462554Y-111041570D01*
X155758138Y-110979941D02*
X152737037Y-107379532D01*
X155451721Y-111237056D02*
X155837393Y-111696683D01*
X155758138Y-110979941D02*
X156462554Y-111041570D01*
X155491348Y-111595427D02*
X155874370Y-111274033D01*
X156720468Y-104037037D02*
X160062963Y-108020468D01*
X152737037Y-107379532D02*
X156720468Y-104037037D01*
X155491348Y-111595427D02*
X155414744Y-111659706D01*
%TO.C,D9*%
X149932453Y-92153948D02*
X145046052Y-93932453D01*
X148786168Y-87250273D02*
X148316322Y-87421283D01*
X145046052Y-93932453D02*
X143267547Y-89046052D01*
X148324959Y-87737393D02*
X149932453Y-92153948D01*
X143267547Y-89046052D02*
X147684102Y-87438557D01*
X148324959Y-87737393D02*
X147684102Y-87438557D01*
X148700836Y-87600585D02*
X148495623Y-87036769D01*
X148786168Y-87250273D02*
X148880137Y-87216071D01*
%TO.C,D1*%
X150167547Y-92153948D02*
X151946052Y-87267547D01*
X155053948Y-93932453D02*
X150167547Y-92153948D01*
X151946052Y-87267547D02*
X156362607Y-88875041D01*
X157327865Y-89439202D02*
X157421834Y-89473404D01*
X156661443Y-89515898D02*
X155053948Y-93932453D01*
X157327865Y-89439202D02*
X156858018Y-89268192D01*
X157037320Y-89652706D02*
X157242532Y-89088890D01*
X156661443Y-89515898D02*
X156362607Y-88875041D01*
%TO.C,D10*%
X147400000Y-97400000D02*
X152100000Y-97400000D01*
X147400000Y-102600000D02*
X147400000Y-97400000D01*
X152600000Y-97900000D02*
X152600000Y-102600000D01*
X153200000Y-97600000D02*
X152700000Y-97600000D01*
X153200000Y-97600000D02*
X153300000Y-97600000D01*
X152600000Y-102600000D02*
X147400000Y-102600000D01*
X153000000Y-97900000D02*
X153000000Y-97300000D01*
X152600000Y-97900000D02*
X152100000Y-97400000D01*
%TO.C,D6*%
X143279532Y-104037037D02*
X147262963Y-107379532D01*
X139952013Y-107380331D02*
X139566340Y-107839957D01*
X147262963Y-107379532D02*
X143920468Y-111362963D01*
X140258430Y-107637446D02*
X140320059Y-108341862D01*
X143920468Y-111362963D02*
X140320059Y-108341862D01*
X139605968Y-107481586D02*
X139529363Y-107417308D01*
X139605968Y-107481586D02*
X139988990Y-107802980D01*
X140258430Y-107637446D02*
X143279532Y-104037037D01*
%TO.C,D7*%
X137680418Y-99604161D02*
X142309015Y-98788015D01*
X137280787Y-99065371D02*
X137263422Y-98966890D01*
X138090985Y-104811985D02*
X137274839Y-100183389D01*
X137610959Y-99210238D02*
X137020075Y-99314427D01*
X137280787Y-99065371D02*
X137367611Y-99557775D01*
X142309015Y-98788015D02*
X143211985Y-103909015D01*
X137680418Y-99604161D02*
X137274839Y-100183389D01*
X143211985Y-103909015D02*
X138090985Y-104811985D01*
%TO.C,D2*%
X155148334Y-94148334D02*
X159651666Y-91548334D01*
X161818653Y-96301666D02*
X157748334Y-98651666D01*
X159651666Y-91548334D02*
X162001666Y-95618653D01*
X162018653Y-96648076D02*
X162538269Y-96348076D01*
X162378461Y-96671281D02*
X162128461Y-96238269D01*
X161818653Y-96301666D02*
X162001666Y-95618653D01*
X157748334Y-98651666D02*
X155148334Y-94148334D01*
X162378461Y-96671281D02*
X162428461Y-96757884D01*
%TD*%
%LPC*%
D12*
%TO.C,D5*%
X151250000Y-110000000D03*
X148750000Y-110000000D03*
%TD*%
D13*
%TO.C,REF\u002A\u002A*%
X150000000Y-117000000D03*
%TD*%
D14*
%TO.C,D3*%
X160017060Y-100568990D03*
X159582940Y-103031010D03*
%TD*%
D15*
%TO.C,D8*%
X140775000Y-96082532D03*
X142025000Y-93917468D03*
%TD*%
D13*
%TO.C,REF\u002A\u002A*%
X133000000Y-100000000D03*
%TD*%
D16*
%TO.C,D4*%
X157357556Y-106896515D03*
X155442444Y-108503485D03*
%TD*%
D17*
%TO.C,D9*%
X145425384Y-91027525D03*
X147774616Y-90172475D03*
%TD*%
D18*
%TO.C,D1*%
X152325384Y-90172475D03*
X154674616Y-91027525D03*
%TD*%
D12*
%TO.C,D10*%
X148750000Y-100000000D03*
X151250000Y-100000000D03*
%TD*%
D19*
%TO.C,D6*%
X144557556Y-108503485D03*
X142642444Y-106896515D03*
%TD*%
D20*
%TO.C,D7*%
X140417060Y-103031010D03*
X139982940Y-100568990D03*
%TD*%
D21*
%TO.C,D2*%
X158075000Y-94017468D03*
X159325000Y-96182532D03*
%TD*%
D13*
%TO.C,REF\u002A\u002A*%
X167000000Y-100000000D03*
%TD*%
D22*
%TO.C,J1*%
X152500000Y-82000000D03*
X147500000Y-82000000D03*
%TD*%
M02*
