%TF.GenerationSoftware,KiCad,Pcbnew,(6.0.9)*%
%TF.CreationDate,2023-02-03T11:18:55+01:00*%
%TF.ProjectId,SamsungLedBoard,53616d73-756e-4674-9c65-64426f617264,rev?*%
%TF.SameCoordinates,Original*%
%TF.FileFunction,Legend,Bot*%
%TF.FilePolarity,Positive*%
%FSLAX46Y46*%
G04 Gerber Fmt 4.6, Leading zero omitted, Abs format (unit mm)*
G04 Created by KiCad (PCBNEW (6.0.9)) date 2023-02-03 11:18:55*
%MOMM*%
%LPD*%
G01*
G04 APERTURE LIST*
%ADD10C,0.160000*%
%ADD11C,0.150000*%
%ADD12C,0.120000*%
%ADD13C,0.200000*%
%ADD14C,2.200000*%
%ADD15C,4.000000*%
G04 APERTURE END LIST*
D10*
X163000000Y-100000000D02*
G75*
G03*
X163000000Y-100000000I-13000000J0D01*
G01*
X153676190Y-104585714D02*
X153676190Y-105442857D01*
X153723809Y-105538095D01*
X153819047Y-105585714D01*
X153866666Y-105585714D01*
X153676190Y-104252380D02*
X153723809Y-104300000D01*
X153676190Y-104347619D01*
X153628571Y-104300000D01*
X153676190Y-104252380D01*
X153676190Y-104347619D01*
X153057142Y-105252380D02*
X153152380Y-105204761D01*
X153200000Y-105109523D01*
X153200000Y-104252380D01*
X152247619Y-105204761D02*
X152342857Y-105252380D01*
X152533333Y-105252380D01*
X152628571Y-105204761D01*
X152676190Y-105157142D01*
X152723809Y-105061904D01*
X152723809Y-104776190D01*
X152676190Y-104680952D01*
X152628571Y-104633333D01*
X152533333Y-104585714D01*
X152342857Y-104585714D01*
X152247619Y-104633333D01*
X151819047Y-104585714D02*
X151819047Y-105442857D01*
X151866666Y-105538095D01*
X151961904Y-105585714D01*
X152009523Y-105585714D01*
X151819047Y-104252380D02*
X151866666Y-104300000D01*
X151819047Y-104347619D01*
X151771428Y-104300000D01*
X151819047Y-104252380D01*
X151819047Y-104347619D01*
X151200000Y-105252380D02*
X151295238Y-105204761D01*
X151342857Y-105109523D01*
X151342857Y-104252380D01*
X150390476Y-105204761D02*
X150485714Y-105252380D01*
X150676190Y-105252380D01*
X150771428Y-105204761D01*
X150819047Y-105157142D01*
X150866666Y-105061904D01*
X150866666Y-104776190D01*
X150819047Y-104680952D01*
X150771428Y-104633333D01*
X150676190Y-104585714D01*
X150485714Y-104585714D01*
X150390476Y-104633333D01*
X149961904Y-104585714D02*
X149961904Y-105442857D01*
X150009523Y-105538095D01*
X150104761Y-105585714D01*
X150152380Y-105585714D01*
X149961904Y-104252380D02*
X150009523Y-104300000D01*
X149961904Y-104347619D01*
X149914285Y-104300000D01*
X149961904Y-104252380D01*
X149961904Y-104347619D01*
X149342857Y-105252380D02*
X149438095Y-105204761D01*
X149485714Y-105109523D01*
X149485714Y-104252380D01*
X148533333Y-105204761D02*
X148628571Y-105252380D01*
X148819047Y-105252380D01*
X148914285Y-105204761D01*
X148961904Y-105157142D01*
X149009523Y-105061904D01*
X149009523Y-104776190D01*
X148961904Y-104680952D01*
X148914285Y-104633333D01*
X148819047Y-104585714D01*
X148628571Y-104585714D01*
X148533333Y-104633333D01*
X148104761Y-104585714D02*
X148104761Y-105442857D01*
X148152380Y-105538095D01*
X148247619Y-105585714D01*
X148295238Y-105585714D01*
X148104761Y-104252380D02*
X148152380Y-104300000D01*
X148104761Y-104347619D01*
X148057142Y-104300000D01*
X148104761Y-104252380D01*
X148104761Y-104347619D01*
X147485714Y-105252380D02*
X147580952Y-105204761D01*
X147628571Y-105109523D01*
X147628571Y-104252380D01*
X146676190Y-105204761D02*
X146771428Y-105252380D01*
X146961904Y-105252380D01*
X147057142Y-105204761D01*
X147104761Y-105157142D01*
X147152380Y-105061904D01*
X147152380Y-104776190D01*
X147104761Y-104680952D01*
X147057142Y-104633333D01*
X146961904Y-104585714D01*
X146771428Y-104585714D01*
X146676190Y-104633333D01*
D11*
%TO.C,J1*%
X150133333Y-77852380D02*
X150133333Y-78566666D01*
X150180952Y-78709523D01*
X150276190Y-78804761D01*
X150419047Y-78852380D01*
X150514285Y-78852380D01*
X149133333Y-78852380D02*
X149704761Y-78852380D01*
X149419047Y-78852380D02*
X149419047Y-77852380D01*
X149514285Y-77995238D01*
X149609523Y-78090476D01*
X149704761Y-78138095D01*
D12*
X144150000Y-81600000D02*
X144150000Y-82400000D01*
D13*
X155950000Y-82850000D02*
X153950000Y-84850000D01*
D12*
X144550000Y-82000000D02*
X143750000Y-82000000D01*
D13*
X144900000Y-79150000D02*
X144900000Y-84850000D01*
D12*
X155400000Y-82500000D02*
X155400000Y-81500000D01*
D13*
X144900000Y-79150000D02*
X153950000Y-79150000D01*
X155950000Y-81150000D02*
X155950000Y-82850000D01*
X155950000Y-81150000D02*
X153950000Y-79150000D01*
X144900000Y-84850000D02*
X153950000Y-84850000D01*
%TD*%
%LPC*%
D14*
%TO.C,REF\u002A\u002A*%
X150000000Y-117000000D03*
%TD*%
%TO.C,REF\u002A\u002A*%
X133000000Y-100000000D03*
%TD*%
%TO.C,REF\u002A\u002A*%
X167000000Y-100000000D03*
%TD*%
D15*
%TO.C,J1*%
X152500000Y-82000000D03*
X147500000Y-82000000D03*
%TD*%
M02*
