M48
; DRILL file {KiCad (6.0.9)} date Fri Feb  3 11:18:54 2023
; FORMAT={-:-/ absolute / metric / decimal}
; #@! TF.CreationDate,2023-02-03T11:18:54+01:00
; #@! TF.GenerationSoftware,Kicad,Pcbnew,(6.0.9)
; #@! TF.FileFunction,Plated,1,2,PTH
FMAT,2
METRIC
; #@! TA.AperFunction,Plated,PTH,ViaDrill
T1C0.400
; #@! TA.AperFunction,Plated,PTH,ComponentDrill
T2C2.500
%
G90
G05
T1
X137.8Y-98.0
X139.2Y-98.2
X139.4Y-106.0
X140.8Y-98.4
X141.0Y-105.2
X142.0Y-90.8
X142.2Y-104.6
X142.6Y-98.8
X143.0Y-91.8
X143.8Y-103.8
X144.0Y-92.8
X145.2Y-94.4
X145.6Y-111.6
X146.2Y-110.2
X146.8Y-108.8
X147.6Y-106.8
X148.2Y-93.6
X148.2Y-95.0
X148.2Y-96.4
X151.0Y-96.8
X151.2Y-86.4
X151.2Y-103.4
X152.6Y-106.8
X152.8Y-86.6
X153.0Y-96.8
X153.0Y-108.8
X153.2Y-103.2
X153.4Y-99.0
X153.4Y-101.4
X153.6Y-110.2
X154.0Y-87.0
X154.0Y-111.8
X154.8Y-94.2
X156.2Y-92.8
X156.4Y-103.8
X157.2Y-91.6
X157.2Y-98.8
X158.0Y-104.6
X158.2Y-90.6
X159.0Y-98.6
X159.4Y-105.2
X160.8Y-106.2
X161.0Y-98.2
X162.4Y-98.0
T2
X147.5Y-82.0
X152.5Y-82.0
T0
M30
