%TF.GenerationSoftware,KiCad,Pcbnew,(6.0.9)*%
%TF.CreationDate,2023-02-03T11:18:55+01:00*%
%TF.ProjectId,SamsungLedBoard,53616d73-756e-4674-9c65-64426f617264,rev?*%
%TF.SameCoordinates,Original*%
%TF.FileFunction,Copper,L2,Bot*%
%TF.FilePolarity,Positive*%
%FSLAX46Y46*%
G04 Gerber Fmt 4.6, Leading zero omitted, Abs format (unit mm)*
G04 Created by KiCad (PCBNEW (6.0.9)) date 2023-02-03 11:18:55*
%MOMM*%
%LPD*%
G01*
G04 APERTURE LIST*
%TA.AperFunction,ComponentPad*%
%ADD10C,4.000000*%
%TD*%
%TA.AperFunction,ViaPad*%
%ADD11C,0.800000*%
%TD*%
G04 APERTURE END LIST*
D10*
%TO.P,J1,1,-*%
%TO.N,/L1A*%
X152500000Y-82000000D03*
%TO.P,J1,2,+*%
%TO.N,/L10C*%
X147500000Y-82000000D03*
%TD*%
D11*
%TO.N,/L1A*%
X154000000Y-87000000D03*
X151200000Y-86400000D03*
X152800000Y-86600000D03*
%TO.N,/L1-2*%
X154800000Y-94200000D03*
X156200000Y-92800000D03*
X158200000Y-90600000D03*
X157200000Y-91600000D03*
%TO.N,/L2-3*%
X161000000Y-98200000D03*
X162400000Y-98000000D03*
X157200000Y-98800000D03*
X159000000Y-98600000D03*
%TO.N,/L3-4*%
X158000000Y-104600000D03*
X160800000Y-106200000D03*
X159400000Y-105200000D03*
X156400000Y-103800000D03*
%TO.N,/L4-5*%
X152600000Y-106800000D03*
X153000000Y-108800000D03*
X154000000Y-111800000D03*
X153600000Y-110200000D03*
%TO.N,/L5-6*%
X145600000Y-111600000D03*
X146800000Y-108800000D03*
X147600000Y-106800000D03*
X146200000Y-110200000D03*
%TO.N,/L6-7*%
X143800000Y-103800000D03*
X142200000Y-104600000D03*
X141000000Y-105200000D03*
X139400000Y-106000000D03*
%TO.N,/L7-8*%
X139200000Y-98200000D03*
X140800000Y-98400000D03*
X137800000Y-98000000D03*
X142600000Y-98800000D03*
%TO.N,/L8-9*%
X142000000Y-90800000D03*
X144000000Y-92800000D03*
X145200000Y-94400000D03*
X143000000Y-91800000D03*
%TO.N,/L9-10*%
X148200000Y-96400000D03*
X148200000Y-95000000D03*
X148200000Y-93600000D03*
%TO.N,/L10C*%
X151200000Y-103400000D03*
X151000000Y-96800000D03*
X153200000Y-103200000D03*
X153000000Y-96800000D03*
X153400000Y-99000000D03*
X153400000Y-101400000D03*
%TD*%
%TA.AperFunction,Conductor*%
%TO.N,/L3-4*%
G36*
X162298647Y-102581231D02*
G01*
X162352420Y-102610417D01*
X162378769Y-102665638D01*
X162377156Y-102700513D01*
X161763637Y-105400000D01*
X161407189Y-106968370D01*
X161375489Y-107021243D01*
X158487206Y-109524422D01*
X158475223Y-109534807D01*
X158418866Y-109558630D01*
X158359269Y-109544777D01*
X158335219Y-109524422D01*
X154845677Y-105453290D01*
X154822162Y-105396804D01*
X154835166Y-105339259D01*
X156964995Y-101660464D01*
X157010513Y-101619578D01*
X157068699Y-101612722D01*
X162298647Y-102581231D01*
G37*
%TD.AperFunction*%
%TD*%
%TA.AperFunction,Conductor*%
%TO.N,/L8-9*%
G36*
X145420832Y-88265185D02*
G01*
X145434471Y-88289625D01*
X147374385Y-93333401D01*
X147377627Y-93394500D01*
X147344919Y-93445361D01*
X144053242Y-96156154D01*
X143996303Y-96178551D01*
X143940424Y-96165247D01*
X139285234Y-93449720D01*
X139244497Y-93404068D01*
X139238373Y-93343190D01*
X139249440Y-93314603D01*
X141381631Y-89631728D01*
X141427149Y-89590842D01*
X141434603Y-89587889D01*
X142080397Y-89361861D01*
X145309366Y-88231722D01*
X145370535Y-88230345D01*
X145420832Y-88265185D01*
G37*
%TD.AperFunction*%
%TD*%
%TA.AperFunction,Conductor*%
%TO.N,/L7-8*%
G36*
X138891209Y-93853205D02*
G01*
X143540068Y-96565040D01*
X143580805Y-96610692D01*
X143587588Y-96668264D01*
X142812218Y-100932802D01*
X142783206Y-100986672D01*
X142732843Y-101012436D01*
X140490813Y-101427627D01*
X137501442Y-101981214D01*
X137440781Y-101973219D01*
X137396405Y-101931095D01*
X137385410Y-101897870D01*
X136804373Y-97830613D01*
X136813830Y-97772340D01*
X138752778Y-93894445D01*
X138795713Y-93850853D01*
X138856070Y-93840823D01*
X138891209Y-93853205D01*
G37*
%TD.AperFunction*%
%TD*%
%TA.AperFunction,Conductor*%
%TO.N,/L2-3*%
G36*
X161224588Y-94064852D02*
G01*
X161247222Y-94094445D01*
X163185999Y-97971998D01*
X163195356Y-98030958D01*
X162615197Y-101898686D01*
X162587867Y-101953428D01*
X162533579Y-101981651D01*
X162499265Y-101981345D01*
X159421203Y-101411334D01*
X157266558Y-101012326D01*
X157212784Y-100983139D01*
X157187334Y-100933505D01*
X156413098Y-96868765D01*
X156420784Y-96808064D01*
X156460466Y-96764728D01*
X161108792Y-94053205D01*
X161168582Y-94040216D01*
X161224588Y-94064852D01*
G37*
%TD.AperFunction*%
%TD*%
%TA.AperFunction,Conductor*%
%TO.N,/L5-6*%
G36*
X145663150Y-105821050D02*
G01*
X147697729Y-106499243D01*
X149732307Y-107177436D01*
X149781532Y-107213775D01*
X149800000Y-107271356D01*
X149800000Y-112696789D01*
X149781093Y-112754980D01*
X149731593Y-112790944D01*
X149696879Y-112795703D01*
X145034570Y-112601440D01*
X144973853Y-112577339D01*
X142074405Y-110064484D01*
X142042814Y-110012085D01*
X142048055Y-109951125D01*
X142064077Y-109925243D01*
X144338838Y-107271356D01*
X145556679Y-105850542D01*
X145608903Y-105818665D01*
X145663150Y-105821050D01*
G37*
%TD.AperFunction*%
%TD*%
%TA.AperFunction,Conductor*%
%TO.N,/L6-7*%
G36*
X142991962Y-101620717D02*
G01*
X143035005Y-101660464D01*
X145164834Y-105339259D01*
X145177627Y-105399092D01*
X145154323Y-105453290D01*
X141665360Y-109523747D01*
X141613135Y-109555624D01*
X141552147Y-109550716D01*
X141524693Y-109533553D01*
X141513580Y-109523747D01*
X138227051Y-106623869D01*
X138195928Y-106571192D01*
X138194648Y-106564322D01*
X137614192Y-102694611D01*
X137624258Y-102634259D01*
X137667876Y-102591350D01*
X137694070Y-102582580D01*
X142931301Y-101612722D01*
X142991962Y-101620717D01*
G37*
%TD.AperFunction*%
%TD*%
%TA.AperFunction,Conductor*%
%TO.N,/L4-5*%
G36*
X154443321Y-105850542D02*
G01*
X155661163Y-107271356D01*
X157932431Y-109921169D01*
X157955946Y-109977655D01*
X157941768Y-110037175D01*
X157918045Y-110063743D01*
X154426812Y-112779146D01*
X154366032Y-112800000D01*
X150299000Y-112800000D01*
X150240809Y-112781093D01*
X150204845Y-112731593D01*
X150200000Y-112701000D01*
X150200000Y-107271356D01*
X150218907Y-107213165D01*
X150267693Y-107177436D01*
X152302271Y-106499243D01*
X154336850Y-105821050D01*
X154398033Y-105820586D01*
X154443321Y-105850542D01*
G37*
%TD.AperFunction*%
%TD*%
%TA.AperFunction,Conductor*%
%TO.N,/L1-2*%
G36*
X154692998Y-88035428D02*
G01*
X158767169Y-89587493D01*
X158817602Y-89630404D01*
X160950560Y-93314603D01*
X160963353Y-93374436D01*
X160938534Y-93430362D01*
X160914766Y-93449720D01*
X156265922Y-96161545D01*
X156206131Y-96174534D01*
X156146035Y-96146035D01*
X152845076Y-92845076D01*
X152817299Y-92790559D01*
X152822383Y-92740311D01*
X153988599Y-89630404D01*
X154565057Y-88093181D01*
X154603193Y-88045334D01*
X154662169Y-88029040D01*
X154692998Y-88035428D01*
G37*
%TD.AperFunction*%
%TD*%
%TA.AperFunction,Conductor*%
%TO.N,/L10C*%
G36*
X153409343Y-94622424D02*
G01*
X154392385Y-96981724D01*
X154400000Y-97019801D01*
X154400000Y-102570026D01*
X154383373Y-102624941D01*
X153229390Y-104355915D01*
X153181380Y-104393845D01*
X153147017Y-104400000D01*
X150299000Y-104400000D01*
X150240809Y-104381093D01*
X150204845Y-104331593D01*
X150200000Y-104301000D01*
X150200000Y-94600000D01*
X153392806Y-94600000D01*
X153409343Y-94622424D01*
G37*
%TD.AperFunction*%
%TD*%
%TA.AperFunction,Conductor*%
%TO.N,/L10C*%
G36*
X149580894Y-79418907D02*
G01*
X149616858Y-79468407D01*
X149618747Y-79474989D01*
X149797044Y-80188176D01*
X149800000Y-80212187D01*
X149800000Y-85800000D01*
X149805154Y-85810307D01*
X149805154Y-85810309D01*
X152189548Y-90579096D01*
X152200000Y-90623370D01*
X152200000Y-93600000D01*
X152206986Y-93605822D01*
X153381336Y-94584447D01*
X153395627Y-94603826D01*
X150200000Y-97400000D01*
X149194445Y-94584447D01*
X147200745Y-89002085D01*
X147200742Y-89002078D01*
X147200000Y-89000000D01*
X144806732Y-83814585D01*
X144798226Y-83784031D01*
X144405255Y-80247292D01*
X144417620Y-80187369D01*
X144433645Y-80166355D01*
X145171004Y-79428996D01*
X145225521Y-79401219D01*
X145241008Y-79400000D01*
X149522703Y-79400000D01*
X149580894Y-79418907D01*
G37*
%TD.AperFunction*%
%TD*%
M02*
